<svg version="1.1" id="Layer_1" xmlns="http://www.w3.org/2000/svg" xmlns:xlink="http://www.w3.org/1999/xlink" x="0px" y="0px"
	 viewBox="0 0 1402 771" style="enable-background:new 0 0 1402 771;" xml:space="preserve">
<style type="text/css">
	.st0{fill:url(#SVGID_1_);}
	.st1{fill:#FFFFFF;stroke:#ED2224;stroke-miterlimit:10;}
	.st2{fill:url(#SVGID_00000003797077143900419780000008047150916312844674_);}
	.st3{fill:url(#SVGID_00000017475830289471388530000018095488367800250780_);}
	.st4{fill:url(#SVGID_00000043447503570401068300000015602125483825905042_);}
	.st5{fill:url(#SVGID_00000141413625186702458940000013198481238710109326_);}
	.st6{fill:url(#SVGID_00000081628975590423325130000015815116492342885523_);}
	.st7{fill:url(#SVGID_00000098205396231148692680000002618543515978643635_);}
	.st8{fill:url(#SVGID_00000023268917766500504090000014099893653311404734_);}
	.st9{fill:url(#SVGID_00000100382585931492799790000000323515797872008620_);}
	.st10{fill:url(#SVGID_00000142169841058911453520000018043914565550266535_);}
	.st11{fill:#1483A3;}
	.st12{fill:#5B9BBF;}
	.st13{fill:#09667D;}
	.st14{fill:#114A2B;}
	.st15{fill:#A09C99;}
	.st16{fill:#5D5E62;}
	.st17{fill:#B0B0AC;}
	.st18{fill:#027E40;}
</style>
<linearGradient id="SVGID_1_" gradientUnits="userSpaceOnUse" x1="692.7073" y1="1209.5902" x2="711.0046" y2="-885.453">
	<stop  offset="0" style="stop-color:#FFFFFF"/>
	<stop  offset="1" style="stop-color:#3C94AA"/>
</linearGradient>
<rect y="1.1" class="st0" width="1402" height="518"/>
<path class="st1" d="M36,357"/>
<linearGradient id="SVGID_00000046298715391373808280000008063657471533987233_" gradientUnits="userSpaceOnUse" x1="1317.7264" y1="539.7996" x2="1309.7743" y2="0.1895">
	<stop  offset="0" style="stop-color:#FFFFFF"/>
	<stop  offset="1" style="stop-color:#3C94AA"/>
</linearGradient>
<path style="fill:url(#SVGID_00000046298715391373808280000008063657471533987233_);" d="M1322.3,377.9l-13.9,0.1
	C1312.8,378.2,1317.4,378.2,1322.3,377.9z"/>
<linearGradient id="SVGID_00000103236767323405539890000005580719155047202470_" gradientUnits="userSpaceOnUse" x1="1314.6246" y1="459.8581" x2="1319.202" y2="-64.2534">
	<stop  offset="0" style="stop-color:#FFFFFF"/>
	<stop  offset="0.6741" style="stop-color:#3C94AA"/>
</linearGradient>
<path style="fill:url(#SVGID_00000103236767323405539890000005580719155047202470_);" d="M1322.3,377.9l-13.9,0.1
	C1312.8,378.2,1317.4,378.2,1322.3,377.9z"/>
<linearGradient id="SVGID_00000037656464696565092770000012037511194675307929_" gradientUnits="userSpaceOnUse" x1="1313.8243" y1="551.481" x2="1318.4017" y2="27.3695">
	<stop  offset="0" style="stop-color:#FFFFFF"/>
	<stop  offset="0.7995" style="stop-color:#3C94AA"/>
</linearGradient>
<path style="fill:url(#SVGID_00000037656464696565092770000012037511194675307929_);" d="M1322.3,377.9l-13.9,0.1
	C1312.8,378.2,1317.4,378.2,1322.3,377.9z"/>
<linearGradient id="SVGID_00000039843329775117272720000012107720444557461134_" gradientUnits="userSpaceOnUse" x1="13.7351" y1="559.0164" x2="5.7829" y2="19.4062">
	<stop  offset="0" style="stop-color:#FFFFFF"/>
	<stop  offset="1" style="stop-color:#3C94AA"/>
</linearGradient>
<path style="fill:url(#SVGID_00000039843329775117272720000012107720444557461134_);" d="M22.7,383.3L0,383.4v26
	C6.1,400,13.7,391.2,22.7,383.3z"/>
<linearGradient id="SVGID_00000159440139072352105560000006708317826031594408_" gradientUnits="userSpaceOnUse" x1="10.7685" y1="448.4707" x2="15.3459" y2="-75.6408">
	<stop  offset="0" style="stop-color:#FFFFFF"/>
	<stop  offset="0.6741" style="stop-color:#3C94AA"/>
</linearGradient>
<path style="fill:url(#SVGID_00000159440139072352105560000006708317826031594408_);" d="M22.7,383.3L0,383.4v26
	C6.1,400,13.7,391.2,22.7,383.3z"/>
<linearGradient id="SVGID_00000048469871306561849240000007866367900930859669_" gradientUnits="userSpaceOnUse" x1="15.7769" y1="625.043" x2="23.3289" y2="-239.6563">
	<stop  offset="0" style="stop-color:#FFFFFF"/>
	<stop  offset="0.7995" style="stop-color:#3C94AA"/>
</linearGradient>
<path style="fill:url(#SVGID_00000048469871306561849240000007866367900930859669_);" d="M36,375l-36-9v43.4
	C6.1,400,27,382.9,36,375z"/>
<linearGradient id="SVGID_00000107556856249829948610000001294457521224843664_" gradientUnits="userSpaceOnUse" x1="886.8568" y1="546.1493" x2="878.9047" y2="6.5391">
	<stop  offset="0" style="stop-color:#FFFFFF"/>
	<stop  offset="1" style="stop-color:#3C94AA"/>
</linearGradient>
<path style="fill:url(#SVGID_00000107556856249829948610000001294457521224843664_);" d="M879.9,432.7c3.8-0.3,7.5-0.5,10.5-0.4
	c0,0,0,0,0,0C887.4,432.2,883.8,432.4,879.9,432.7z"/>
<linearGradient id="SVGID_00000060025899266871060230000007890520453675737258_" gradientUnits="userSpaceOnUse" x1="884.975" y1="456.1057" x2="889.5524" y2="-68.0058">
	<stop  offset="0" style="stop-color:#FFFFFF"/>
	<stop  offset="0.6741" style="stop-color:#3C94AA"/>
</linearGradient>
<path style="fill:url(#SVGID_00000060025899266871060230000007890520453675737258_);" d="M879.9,432.7c3.8-0.3,7.5-0.5,10.5-0.4
	c0,0,0,0,0,0C887.4,432.2,883.8,432.4,879.9,432.7z"/>
<linearGradient id="SVGID_00000117658637489865384760000002587485433848505023_" gradientUnits="userSpaceOnUse" x1="884.1747" y1="547.7286" x2="888.7521" y2="23.6171">
	<stop  offset="0" style="stop-color:#FFFFFF"/>
	<stop  offset="0.7995" style="stop-color:#3C94AA"/>
</linearGradient>
<path style="fill:url(#SVGID_00000117658637489865384760000002587485433848505023_);" d="M879.9,432.7c3.8-0.3,7.5-0.5,10.5-0.4
	c0,0,0,0,0,0C887.4,432.2,883.8,432.4,879.9,432.7z"/>
<path class="st11" d="M879.9,527.2c-9-45-205.9-111.5-206.1-114.6c-3,0.3-126.7-14.3-131.1-27.7c0.4-1.8,9.9-1.2,52.2-1.8
	c22.1-0.3,28.4-0.6,29.7-3.7c2.4-5.7-13.9-18.3-36.9-36c-13.9-8.3-21.9-23.5-13.3-36.9l18.7,15.1c-3.2-3.9-6.5-7.7-10-11.5
	c-7-8.4-9.7-11.9-13.8-11.9c-2.7,0-4.6,1.5-14.4,12c-1.7,1.9-3.3,3.5-4.6,4.9c-7.4,7.9-8.8,9.1-10.8,8.9c-2.6,0-6.1-6.1-9.9-14.5
	c-8.7-19.1-19.2-50.5-25.9-51.8c-6.9-1-17.7,22.7-24.7,36.7c-1.6,3.1-2.9,5.8-4,7.5c-4.7,7.6-7.2,9.8-15.4,20.3
	c-4,5.2-8.8,12.1-18.4,25.8c-17.1,24.5-17,25.6-21.5,29.5c-1.6,1.5-3.2,2.8-4.9,4.1c-27.3,20.3-66.3,13.5-102.8,0.4
	c-39.8-14.3-76.4-36-91-37.7c-82.3-18.4-155.8,1.1-198.5,38.9c-9,7.9-16.6,16.7-22.7,26.1v124.3 M505.5,413.5"/>
<path class="st11" d="M738.3,452.7"/>
<path class="st11" d="M855,530.3c1.3-1.4,250.8,1.4,252,0c12-78.1-373.1-107.7-431.1-111.7c7.3,7.2,29.1,97.7,35.1,102.7"/>
<path class="st11" d="M801,510"/>
<path class="st11" d="M288,501c1.1-0.6-43-87.6-41.7-87c-22.7-15.3-41.9-24.3-43.5-22.6c4.3,3.8,47.9,98.8,58.2,109.6
	C259.2,493.4,279.4,495,288,501z"/>
<path class="st11" d="M249.2,416.9c0-0.3,0.1-0.5,0.1-0.8c-0.6-0.4-1.2-0.8-1.8-1.3C248.1,415.4,248.7,416.1,249.2,416.9z"/>
<path class="st11" d="M1200.3,305.1c0.2,0.9,0.4,1.9,0.7,2.9C1201,306.9,1200.8,305.9,1200.3,305.1z"/>
<path class="st11" d="M1180.9,299.7l19.1,4.9C1198,302.2,1192.7,300.9,1180.9,299.7z"/>
<path class="st12" d="M489,409.5c0.1,0.2,0.2,0.4,0.3,0.6c0.9-1.5,2.5,0.2,4.2,7.1c-0.4-14.4,3.2-15.5,4-0.3
	c0.9-5.8,2.2-11.2,3.1-10.7c0.6,0.4,0.5,4.9-0.2,10.6c1.7-5.5,3.8-10.1,5.2-9.3c0.5,0.6,0.5,2.9-0.1,6c3.2-4.2,4.5-5.9,8.2-7.6
	c8.4-3.8,15.2-1.4,17.9-5c2.5-3.4-2.7-6.5-3.8-13.6c-1.7-11.3,9.2-19.9,7.5-20.8c-1-0.3-32.2,24.7-40.5,26.5l-5.7,12
	C489.1,406.4,489.1,407.9,489,409.5z"/>
<path class="st13" d="M230.5,422.8c0,0.1,0,0.2,0,0.3c0.1,0.1,0.2,0.1,0.3,0.2C230.8,423.1,230.6,422.9,230.5,422.8z"/>
<path class="st13" d="M339.2,420.8c-0.9-0.7-1.9-1.4-2.8-2.2c-0.6,0.8-1.3,1.8-2.1,2.8C335.9,421.1,337.5,420.9,339.2,420.8z"/>
<path class="st13" d="M369,501c18,0,63,0,81,0c2.6-2.5-110.3-88.7-108-90c-8-6.1-26.8-11.1-36-18c-24.8-19.2-36-27-72-36l-28,10.6"
	/>
<path class="st13" d="M579.5,427.3c1.9,0,3.9,0,6,0c0.7-1.8,1.7-1.8,2.6,0c1.3,0,2.7,0,4,0c0.8-1.2,1.4-1.2,1.6,0c1.5,0,3.1,0,4.7,0
	c0.2,0,0.3,0,0.5,0c27.5,0.3,60.6,1.4,79,6.4c14,4,25.5,12.8,35.4,23.5c0-0.1,0-0.2,0-0.3c-0.1-10.8,3.6-13.8,5.7-9
	c0.3-0.7,0.6-1.5,1.1-2.2c4.4,2.2,7.9,5.2,10.1,8.6c1.7,0.6,3.9,2.5,5.9,5.8c0.1-4.1,0.9-6.6,1.9-7.3
	c-16.3-13.9-32.2-26.9-41.6-35.7c-6-5-13.3-11.7-20.5-18.9c-5.8-5.8-11.6-11.9-16.9-17.7c-5.9-6.6-11.2-12.8-14.8-17.8l-46.9-37.9
	l-4.1-3.3l-18.7-15.1c-8.6,13.4-0.6,28.5,13.3,36.9c22.9,17.7,39.2,30.2,36.9,36c-1.3,3.1-7.6,3.4-29.7,3.7
	c-42.4,0.6-51.8,0.1-52.2,1.8c4.4,13.4,128,28,131.1,27.7c0.1,3.2-58.7,8.1-94.3,11.1C579.6,424.8,579.6,426,579.5,427.3z"/>
<path class="st12" d="M452.7,416.7c0.7-1,1.4-2.1,2-3.2c8.2-14.6,0.9-22.5,8.2-30.4c11.2-12.3,41-7.2,41-8.3
	c0-0.7-10.8,0.2-20.5-5.5c-16.9-12.3-6.8-9.5,12.3-12.9c5.4-1.3,14.9-3.5,15.4-7.4c-5-10.3-29.3-9.5-15.4-34.1l6.1-34.1
	c-14.7,31.4-40.1,76.2-69.6,103.3c-27,21.9-60.1,19.9-59.4,25.8c0.5,4.1,16.4,7.6,29.7,7.4c15.1-0.2,24.2-5.2,28.7-0.9
	c4.6,4.3-1.2,13.1,2,14.8c2.6,1.4,9.8-2.8,16-9.8"/>
<path class="st12" d="M1134.7,323.1c11.1-10.2,28.2-6.2,28.7-10.1c0.5-4.3-18.7-13.7-32.8-8.3c-33.8,18.3-5.6,55.1-54.3,61.8
	l23.6,5.5C1133.2,358.6,1120.6,340.6,1134.7,323.1z"/>
<path class="st14" d="M850.8,448C850.8,448,850.8,448,850.8,448c-0.1,0-0.3,0-0.5-0.1C850.5,447.9,850.7,448,850.8,448z"/>
<path class="st14" d="M793,454.7c0.1,0,0.3,0,0.4,0c-0.1-0.1-0.2-0.2-0.3-0.2C793.1,454.5,793,454.6,793,454.7z"/>
<path class="st14" d="M373.2,420.8c0.4,0,0.9,0.1,1.3,0.1C374.1,420.9,373.7,420.8,373.2,420.8z"/>
<path class="st14" d="M230.6,423.1c0-0.1,0-0.2,0-0.3c-0.9-1.4-1.7-2.6-2.3-3.7c-0.3,0.7-0.7,1.5-1.1,2.2c0.2,0.1,0.4,0.3,0.7,0.4
	C228.7,422.1,229.6,422.6,230.6,423.1z"/>
<path class="st15" d="M979.2,471.9c0.9-2.5,1.9-5.5,2.9-7.9C981.2,466.4,980.1,469.4,979.2,471.9
	C979.2,471.9,979.2,471.9,979.2,471.9z"/>
<path class="st15" d="M978.7,473.2C978.7,473.2,978.7,473.2,978.7,473.2c0.1-0.4,0.3-0.8,0.4-1.2c0,0,0,0,0,0
	C979,472.4,978.9,472.8,978.7,473.2z"/>
<path class="st15" d="M994.2,499.3C994.2,499.3,994.2,499.2,994.2,499.3c0.1-0.1,0-0.2,0-0.2c0,0-0.1,0.1-0.1,0.1
	C994.1,499.2,994.1,499.2,994.2,499.3z"/>
<path class="st15" d="M978.6,475.4c0.3,0.2,0.5,0.3,0.8,0.5c0,0,0,0,0,0C979.2,475.7,978.9,475.5,978.6,475.4z"/>
<path class="st15" d="M977.8,475.5C977.8,475.5,977.8,475.5,977.8,475.5C977.8,475.5,977.8,475.5,977.8,475.5
	c0.1-0.2,0.2-0.5,0.4-0.8c0,0,0,0,0,0C978,475,977.9,475.3,977.8,475.5z"/>
<path class="st15" d="M994.5,499.7c0,0,0.1-0.1,0.1-0.1c0,0-0.1-0.1-0.1-0.1c0,0-0.1,0.1-0.1,0.1
	C994.4,499.6,994.5,499.6,994.5,499.7z"/>
<path class="st16" d="M979.2,472C979.2,472,979.2,472,979.2,472C979.2,472,979.2,472,979.2,472C979.2,471.9,979.2,471.9,979.2,472
	C979.2,472,979.2,472,979.2,472z"/>
<path class="st17" d="M978.2,474.7C978.2,474.7,978.2,474.7,978.2,474.7c0.2-0.4,0.4-0.9,0.6-1.5c0,0,0,0,0,0
	C978.5,473.7,978.3,474.2,978.2,474.7z"/>
<path class="st15" d="M994.2,499.1c-0.2-0.2-0.4-0.3-0.6-0.5C993.7,498.8,993.9,499,994.2,499.1
	C994.1,499.1,994.1,499.1,994.2,499.1z"/>
<path class="st16" d="M994.4,499.5c0,0,0.1-0.1,0.1-0.1c-0.1-0.1-0.2-0.1-0.2-0.2c0,0-0.1,0.1-0.1,0.1
	C994.2,499.4,994.3,499.4,994.4,499.5z"/>
<path class="st13" d="M0,357c87.7-12.9,134-22.5,135-18c1.5,7-38.1,34.7-36,45c1.7,8.1,17.4,4.1,18,9c0.8,6.9-63.7,20.4-63,27
	c0.6,5.7,26,1.5,27,9c1,7.2-55.2,19.5-54,27c0.8,4.8,24,1.4,27,9c2.3,5.8-6.8,18.4-54,48"/>
<path class="st12" d="M261,501c0.4-0.7-33.1-81.2-32.8-82c-0.9-1.7-1.5-3.2-1.8-4.4c-10.3-10.8-19.3-19.4-23.6-23.2
	c1.6-1.6,20.8,7.3,43.5,22.6c0.4,0.2-3.7,5.6-3.3,6c0.6,0.4,44.4,80.6,45,81c8.3,1,13.4-1.1,9,0c1.5-2.6,16.1,2,18,0
	c-8.6-6.8-62.6-103.2-66.4-106.9L171.1,348c-14.6,37.3,16.9,38.3-34.9,46.1c-0.2,2,11.4,3,24,8.3c13.7,4.2,37.5,85.9,46.8,98.6"/>
<path class="st17" d="M77.3,449.9c0-0.1,0-0.1,0-0.2c-0.1,0-0.1,0-0.2-0.1c-0.2,0.1-0.3,0.2-0.5,0.3C76.9,450,77.1,450,77.3,449.9z"
	/>
<path class="st18" d="M1395,442.9v-1.4c-0.2,0.1-0.4,0.3-0.6,0.5C1394.6,442.3,1394.8,442.6,1395,442.9z"/>
<path class="st13" d="M1402,357c-4.9,0.3-89.2,21.2-93.6,20.9c-3.3-0.2-6.5-0.7-9.8-1.3c-4.9-1-16.6-6.2-39.9-16.6
	c-31.2-13.9-36.5-17.7-41-22.1c-9.5-9.3-14.3-20.3-16.7-30c-0.2-1-3.8-4-4-4.9c0-0.1,3.3,1.8,3.2,1.7l-0.2-0.1l-19.1-4.9l-1.7-0.4
	c-0.2,0.2-0.2,0.2-0.4,0.4c4.9,28.8-31,40.2-35.9,46.5c-1.8,2.5,48.7-5.2,56.3,10c0,0.1,0,0.2,0,0.2c-1.6,8.6-14.4,14-27.6,15.6
	c-11.6,1-15.9-2.4-18.4,0c-3.9,3.7,0.3,16.9,10.2,23.1c24.9,14.6,49.1-11.5,66.5,8.2c0.1,0.1,0.1,0.2,0.1,0.3
	c-3.6,18.9-47,24,34.9,25.7c25,0.5,30.9,0.2,34.8,4.6c4.8,5.4,1.1,11.6,0.2,26.4c0,0.2,0.1,0.3,0.3,0.4c1.5,0.2,2.5,0.4,2.7,0.5
	c3,0.9,3.2,2.9,4.3,4.3c0,0-0.1,0-0.1,0c0,0,0.1,0,0.1,0c1,1.7,2.7,3.7,4.8,5.7c0,0,0,0,0,0c-0.9-5.2-2.3,39,2,47.9
	c0.1,0.1,0.1,0.2,0.3,0.2c4.5,0.4,87.3-1.7,87.8-1"/>
<path class="st11" d="M1402,534.7c0.8-15,23.8-52.4-93.6-110.3c-5.3-2.6-18.7,5.3-43.6,4.8c-82.1-1.6-38.1-6.8-34.8-25.8
	c-17.3-19.9-41.6,6.3-66.6-8.3c-9.9-6.1-14.1-19.4-10.2-23.1c2.6-2.4,6.8,1,18.4,0c13.3-1.6,26.2-7,27.7-15.7
	c-7.4-15.3-58.1-7.7-56.3-10.1c4.9-6.3,40.9-17.7,35.9-46.7c-0.2,0-0.3,0-0.5,0c-29.2-3.5-22.5-5.3-49.7-1.9
	c-23,5.9-14.8,34.1-45.1,56.7c-12.4,9.3-27.3,20.4-48.1,22.7c-6.9,0.8-12.5,0.3-17.6,2.2c-2.1,0.7-4,1.8-6,3.5
	c-9.2,8.1-128.4,136-139.7,147.3 M1130.6,304.7c14-5.4,33.2,4,32.8,8.3c-0.4,4-17.6-0.1-28.7,10.1c-14.1,17.4-1.5,35.5-34.8,48.9
	l-23.6-5.5C1125,359.8,1096.8,323.1,1130.6,304.7z"/>
<path class="st1" d="M0,357"/>
<path class="st12" d="M1003.6,448.5c17.7-12.5,11.8-2.3,13.4-1.5c2.6,1.3-12.9,16-5.2,21.8c1.3,1,3.7,1,6.6,0.3
	c1.4-1.3,2.5-2.3,3.2-3c2.4-2.2,5.7-6,7.7-6.3c-0.3,0.2-0.5,0.5-0.7,0.7c0.7-0.5,1.5-0.7,2.1-0.5c0.6,0.1,1.2,0.4,1.8,0.5
	c0.3,0.1,0.7,0.2,1.3,0.3c4.3-3.6,7.6-8.1,7.7-12.4c-1.2-7.1-9-21.4,0-29.5c8.8-6.1,29.2,10,32.8,6.5c2.4-16.2-36.9-40.1-55.3-39.6
	l1,24.9c-10.8,7.8-22.6,30.3-27.7,37.8c-3.9,4.6-8.9,8-13.9,10.3c0.6,0.5,1.3,0.9,1.9,1.4C987.8,457.7,995.9,454,1003.6,448.5z"/>
</svg>