<?xml version="1.0" encoding="UTF-8" standalone="no"?>
<!-- Created with Inkscape (http://www.inkscape.org/) -->

<svg
   version="1.1"
   id="svg1"
   width="662.43744"
   height="845.29108"
   viewBox="0 0 662.43744 845.29117"
   sodipodi:docname="mountain.svg"
   inkscape:version="1.4.3 (0d15f75, 2025-12-25)"
   inkscape:export-batch-name="doodles"
   xmlns:inkscape="http://www.inkscape.org/namespaces/inkscape"
   xmlns:sodipodi="http://sodipodi.sourceforge.net/DTD/sodipodi-0.dtd"
   xmlns="http://www.w3.org/2000/svg"
   xmlns:svg="http://www.w3.org/2000/svg">
  <sodipodi:namedview
     id="namedview1"
     pagecolor="#505050"
     bordercolor="#eeeeee"
     borderopacity="1"
     inkscape:showpageshadow="0"
     inkscape:pageopacity="0"
     inkscape:pagecheckerboard="0"
     inkscape:deskcolor="#505050"
     inkscape:zoom="0.36251647"
     inkscape:cx="2884.0069"
     inkscape:cy="1148.9133"
     inkscape:window-width="1920"
     inkscape:window-height="1051"
     inkscape:window-x="-9"
     inkscape:window-y="-9"
     inkscape:window-maximized="1"
     inkscape:current-layer="g2" />
  <defs
     id="defs1" />
  <g
     id="g17"
     inkscape:groupmode="layer"
     inkscape:label="17"
     transform="translate(-34431.123,-408.66146)">
    <path
       style="fill:#000000"
       d="m 34826.213,1253.16 c -0.43,-1.1206 -0.229,-3.0259 0.447,-4.234 1.353,-2.4179 -0.195,-15.0418 -2.076,-16.9224 -0.639,-0.6387 -0.695,-3.9928 -0.125,-7.4535 1.896,-11.511 1.505,-16.3033 -1.329,-16.3033 -1.58,0 -2.839,1.2488 -3.363,3.337 -0.98,3.9033 -2.781,4.2908 -4.653,1.0011 -1.053,-1.8496 -1.831,-2.0308 -3.737,-0.8704 -2.261,1.376 -9.336,12.2086 -12.338,18.8902 -0.742,1.6518 -1.815,2.9945 -2.383,2.9837 -1.826,-0.035 -7.041,-15.4564 -7.042,-20.822 0,-2.8528 0.865,-9.9922 1.923,-15.8654 1.058,-5.8731 2.95,-17.2856 4.205,-25.3611 1.255,-8.0756 2.734,-17.3858 3.286,-20.6894 0.552,-3.3036 1.978,-12.0875 3.168,-19.5196 1.191,-7.4322 2.941,-16.5055 3.89,-20.163 2.921,-11.2623 -0.01,-21.3567 -4.815,-16.5562 -2.178,2.1779 -6.436,1.8596 -8.246,-0.6164 -1.423,-1.946 -2.006,-1.9408 -6.794,0.06 l -5.238,2.1884 -2.695,-3.7306 c -1.482,-2.0519 -4.657,-5.916 -7.055,-8.587 -2.399,-2.671 -5.505,-8.0769 -6.903,-12.0132 -1.399,-3.9362 -4.926,-12.8994 -7.839,-19.9181 -2.913,-7.0187 -7.118,-18.1309 -9.345,-24.6938 -2.227,-6.5628 -7.749,-22.444 -12.271,-35.29144 -4.522,-12.84744 -9.085,-26.06195 -10.139,-29.36557 -5.092,-15.95255 -6.309,-19.60021 -7.573,-22.69158 -1.914,-4.68555 -14.901,-42.20891 -19.833,-57.30758 -4.115,-12.59758 -8.308,-20.11074 -11.223,-20.11074 -0.853,0 -4.131,-1.86926 -7.285,-4.15392 -9.085,-6.58141 -18.589,-11.86366 -21.345,-11.86366 -1.394,0 -4.655,-1.2512 -7.247,-2.78043 -2.592,-1.52924 -6.68,-3.08735 -9.086,-3.46247 -2.405,-0.37513 -4.974,-1.14342 -5.708,-1.70732 -0.735,-0.5639 -3.094,-1.4467 -5.243,-1.96179 -2.15,-0.51508 -7.681,-2.70021 -12.292,-4.85584 -4.61,-2.15564 -9.609,-3.91933 -11.108,-3.91933 -1.499,0 -2.725,-0.59201 -2.725,-1.31558 0,-0.72357 -2.713,-1.99877 -6.029,-2.83377 -3.317,-0.83501 -6.355,-2.04498 -6.753,-2.68882 -0.398,-0.64384 -2.04,-1.18973 -3.648,-1.21308 -1.609,-0.0233 -4.091,-0.92433 -5.516,-2.00219 -1.425,-1.07787 -4.128,-1.96227 -6.006,-1.96534 -1.879,-0.003 -6.371,-1.50472 -9.982,-3.33699 -3.612,-1.83228 -8.275,-3.33141 -10.363,-3.33141 -2.088,0 -4.84,-0.55769 -6.114,-1.23932 -7.978,-4.26543 -31.691,-4.08374 -39.96,0.30616 -2.349,1.24738 -5.224,2.26795 -6.387,2.26795 -1.164,0 -7.767,2.71231 -14.675,6.02735 l -12.558,6.02736 -15.386,-0.2372 -15.386,-0.23719 -1.708,-5.04256 c -1.057,-3.12178 -3.487,-6.24555 -6.379,-8.20072 -4.006,-2.70813 -4.675,-3.90831 -4.693,-8.42268 -0.01,-2.8955 -0.502,-6.61392 -1.089,-8.26317 -0.858,-2.4062 -0.131,-3.98846 3.68,-8.00879 2.612,-2.75559 4.754,-6.26592 4.76,-7.80074 0,-1.82018 3.512,-5.76556 10.078,-11.34578 5.536,-4.70537 10.923,-9.85639 11.97,-11.44672 1.048,-1.59032 5.078,-4.09513 8.955,-5.56624 12.144,-4.60707 24.511,-10.61645 26.31,-12.78453 0.951,-1.14549 1.397,-2.94743 0.991,-4.00431 -0.406,-1.05689 0.124,-2.6363 1.176,-3.50981 3.029,-2.51343 17.389,-9.05146 32.633,-14.85697 7.708,-2.93578 20.622,-8.25736 28.698,-11.82574 8.075,-3.56839 16.391,-6.79048 18.479,-7.16022 4.947,-0.87614 17.185,-4.87594 18.895,-6.17565 0.734,-0.55792 6.378,-2.59874 12.543,-4.53514 6.164,-1.9364 12.771,-4.32743 14.682,-5.3134 1.912,-0.98598 5.712,-2.75273 8.446,-3.92613 6.371,-2.73437 7.238,-6.2144 4.445,-17.824 -1.201,-4.99392 -3.407,-15.08644 -4.9,-22.42783 -1.494,-7.3414 -3.238,-15.4503 -3.876,-18.01978 -3.175,-12.78119 -5.481,-23.01204 -7.373,-32.70257 -1.146,-5.87312 -3.507,-16.68498 -5.246,-24.02638 -1.74,-7.34139 -3.799,-17.85293 -4.578,-23.35897 -0.778,-5.50605 -2.072,-13.31462 -2.874,-17.35238 -3.105,-15.61547 -3.874,-21.36179 -5.54,-41.37876 -2.121,-25.47917 -2.14,-34.5453 -0.08,-35.82153 0.871,-0.53844 2.564,-3.32503 3.762,-6.1924 1.198,-2.86738 6.027,-9.42993 10.731,-14.58345 4.703,-5.15353 8.551,-9.84419 8.551,-10.4237 0,-1.94142 16.027,-1.11771 20.195,1.03796 2.225,1.15039 5.649,1.95324 7.609,1.78411 3.55,-0.3063 13.575,3.79344 13.575,5.55161 0,0.50825 3.221,3.57577 7.158,6.8167 8.914,7.33893 25.53,27.51998 37.727,45.8241 2.936,4.40484 9.581,14.31572 14.767,22.02418 5.187,7.70846 14.105,21.2233 19.818,30.03297 5.713,8.80967 10.844,16.32357 11.402,16.69756 0.558,0.37398 3.262,4.87893 6.009,10.01099 7.027,13.13065 18.044,28.68559 20.317,28.68559 1.053,0 3.868,-1.65181 6.257,-3.67069 4.428,-3.74304 20.595,-16.18129 37.388,-28.7644 40.42,-30.2866 90.259,-59.50372 110.97,-65.05367 13.049,-3.49702 26.067,-3.01842 32.908,1.20992 6.651,4.1102 15.09,14.57776 16.282,20.19532 0.546,2.56949 1.448,5.27246 2.005,6.0066 2.068,2.72547 2.252,10.84268 0.422,18.65027 -2.651,11.31193 -9.566,43.99038 -11.165,52.76145 -0.736,4.03777 -2.468,12.14667 -3.848,18.01978 -1.38,5.87312 -3.196,15.64172 -4.035,21.708 -0.839,6.06628 -3.296,19.27285 -5.459,29.34791 -2.163,10.07507 -3.932,20.08559 -3.932,22.2456 0,2.16 -0.594,5.7719 -1.32,8.02644 -0.726,2.25454 -2.817,12.00435 -4.647,21.66625 -1.829,9.66189 -3.912,18.97211 -4.63,20.68937 -1.353,3.24061 -5.433,22.84669 -8.844,42.49886 -1.083,6.24019 -3.45,16.1564 -5.26,22.03604 -1.81,5.87964 -3.8,13.41507 -4.422,16.74541 -1.101,5.89539 -0.934,6.34029 6.321,16.8606 11.946,17.32343 26.033,36.78371 44.733,61.79857 17.546,23.47265 22.397,29.56707 47.71,59.94374 27.929,33.51591 54.334,72.35505 59.246,87.14495 1.824,5.4916 1.965,7.7039 0.75,11.7598 -0.823,2.7477 -1.497,6.2564 -1.497,7.7972 0,3.1171 -4.507,6.1697 -7.445,5.0423 -3.214,-1.2331 -5.99,0.5226 -4.731,2.992 0.617,1.2114 1.483,4.1121 1.925,6.446 0.733,3.8723 0.457,4.3195 -3.149,5.1116 -4.001,0.8787 -5.055,2.4865 -2.617,3.9929 6.191,3.8261 -8.437,7.3649 -16.506,3.9933 -2.482,-1.0369 -4.861,-1.5366 -5.287,-1.1105 -1.679,1.6792 -7.747,-1.1367 -9.167,-4.2544 -0.827,-1.8151 -2.247,-3.3002 -3.155,-3.3002 -2.804,0 -28.621,-24.0884 -28.621,-26.7046 0,-0.7294 -0.685,-1.3262 -1.523,-1.3262 -0.838,0 -6.995,-5.3709 -13.682,-11.9353 -20.316,-19.9436 -39.391,-36.11744 -42.597,-36.11744 -0.325,0 -3.22,-2.44092 -6.433,-5.42427 -3.213,-2.98335 -7.944,-6.52339 -10.513,-7.86676 -2.57,-1.34336 -5.874,-3.77938 -7.342,-5.41336 -6.809,-7.578 -28.698,-19.32425 -28.698,-15.40047 0,0.32994 -1.786,9.58903 -3.968,20.57574 -2.183,10.98672 -4.548,24.08146 -5.255,29.09936 -1.482,10.5049 -6.064,34.1536 -8.04,41.497 -0.741,2.7505 -3.188,14.9118 -5.439,27.0251 -5.473,29.4594 -11.59,59.6836 -14.722,72.7465 -1.409,5.8731 -4.093,18.1866 -5.966,27.3634 -1.873,9.1767 -5.635,25.9952 -8.36,37.3743 -2.725,11.3792 -4.772,22.1911 -4.549,24.0264 0.367,3.0147 0.237,3.1138 -1.346,1.026 -2.346,-3.0919 -4.397,-1.5015 -6.633,5.1437 -2.203,6.5474 -9.997,13.9707 -11.247,10.7127 z m 7.45,-145.0231 c 0,-0.7341 -0.6,-1.3348 -1.335,-1.3348 -0.734,0 -1.334,0.6007 -1.334,1.3348 0,0.7342 0.6,1.3348 1.334,1.3348 0.735,0 1.335,-0.6006 1.335,-1.3348 z m 10.451,-14.453 c 0.389,-2.7402 0.123,-2.9373 -2.248,-1.6685 -1.478,0.7913 -4.53,1.4388 -6.78,1.4388 -3.886,0 -5.128,1.1888 -3.228,3.0892 0.476,0.4755 3.329,0.7258 6.34,0.5562 4.608,-0.2595 5.546,-0.8014 5.916,-3.4157 z m -5.118,-15.9136 c 0.01,-2.5709 -1.893,-1.9927 -5.269,1.6006 -2.054,2.1865 -2.76,4.065 -2.132,5.6728 0.834,2.1341 1.301,1.9546 4.167,-1.6005 1.775,-2.2025 3.23,-4.7553 3.234,-5.6729 z m 7.205,5.5637 c 0.446,-1.1613 0.81,-3.684 0.81,-5.6062 0,-5.0004 -3.227,-1.5282 -3.493,3.7583 -0.213,4.2415 1.351,5.3189 2.683,1.8479 z m 3.48,-13.9062 c 0,-0.7342 -0.265,-1.3348 -0.589,-1.3348 -0.324,0 -0.96,0.6006 -1.413,1.3348 -0.454,0.7341 -0.189,1.3348 0.588,1.3348 0.778,0 1.414,-0.6007 1.414,-1.3348 z m -7.674,-9.3611 c 0.552,-3.294 1.382,-8.5557 1.846,-11.6926 0.463,-3.137 1.364,-6.0256 2,-6.4191 1.839,-1.1365 1.351,-2.8681 -1.071,-3.7974 -3,-1.151 -4.4,1.4333 -4.424,8.1661 -0.01,3.0768 -0.621,5.9654 -1.356,6.4191 -0.734,0.4537 -1.334,2.4713 -1.334,4.4836 0,2.0123 -0.669,4.3271 -1.486,5.1441 -1.941,1.9412 -0.218,4.6542 2.611,4.1104 1.471,-0.2827 2.548,-2.4319 3.214,-6.4142 z m 9.009,2.0197 c 0,-1.1012 -0.236,-2.0022 -0.525,-2.0022 -0.289,0 -0.87,0.901 -1.293,2.0022 -0.422,1.1012 -0.186,2.0022 0.525,2.0022 0.711,0 1.293,-0.901 1.293,-2.0022 z m 2.669,-17.2736 c 0,-1.792 0.575,-3.6133 1.277,-4.0472 1.721,-1.0638 0.124,-4.952 -1.775,-4.3199 -1.793,0.597 -2.474,11.6253 -0.718,11.6253 0.669,0 1.216,-1.4662 1.216,-3.2582 z m -30.7,-9.3867 c 0,-1.6531 1.436,-10.1459 3.191,-18.873 1.755,-8.7271 3.902,-21.27339 4.771,-27.88064 0.869,-6.60725 2.717,-18.32011 4.106,-26.02857 3.567,-19.79001 4.506,-27.46139 4.565,-37.30165 0.05,-8.55505 0.02,-8.62417 -5.287,-12.28221 -2.937,-2.02332 -6.929,-4.04223 -8.872,-4.48648 -1.943,-0.44425 -4.589,-1.97499 -5.88,-3.40166 -1.291,-1.42667 -3.011,-2.59394 -3.821,-2.59394 -0.811,0 -2.239,-1.22463 -3.174,-2.72139 -0.935,-1.49677 -2.317,-2.3399 -3.071,-1.87363 -1.406,0.86902 -5.757,-0.52977 -15.314,-4.92325 -2.985,-1.3722 -6.218,-2.49492 -7.184,-2.49492 -0.966,0 -3.63,-1.13652 -5.919,-2.52561 -2.289,-1.38908 -6.058,-2.92608 -8.375,-3.41555 l -4.213,-0.88995 0.556,5.94533 c 0.305,3.26994 1.71,8.56106 3.121,11.75805 1.411,3.19699 3.849,10.61799 5.418,16.4911 1.57,5.87312 4.642,15.14805 6.827,20.61096 2.186,5.46291 5.17,14.39643 6.632,19.85226 1.462,5.45583 3.56,11.66265 4.661,13.79294 1.102,2.1303 3.176,9.48865 4.609,16.35191 1.433,6.86325 4.393,16.6788 6.578,21.8124 2.184,5.1336 5.23,14.0694 6.768,19.8574 4.155,15.6356 3.78,15.0016 6.736,11.3768 1.414,-1.7331 2.571,-4.5036 2.571,-6.1567 z m 21.357,-0.7031 c 0,-0.7341 -0.265,-1.3348 -0.589,-1.3348 -0.324,0 -0.96,0.6007 -1.414,1.3348 -0.453,0.7342 -0.188,1.3348 0.589,1.3348 0.778,0 1.414,-0.6006 1.414,-1.3348 z m 16.554,-21.1464 c 0.352,-1.2169 1.04,-5.6269 1.529,-9.8 0.842,-7.17825 0.743,-7.54916 -1.831,-6.87622 -1.496,0.39123 -2.434,1.45689 -2.084,2.36814 0.35,0.91128 -0.142,2.30238 -1.093,3.09138 -2.461,2.0415 -1.525,15.1046 1.012,14.131 1.006,-0.3859 2.116,-1.6974 2.467,-2.9143 z m -9.064,-7.9059 c 0.816,-0.5394 2.114,-4.5846 2.884,-8.98945 0.771,-4.40483 1.605,-8.87411 1.854,-9.93171 0.249,-1.05761 -0.599,-2.15281 -1.884,-2.43377 -1.79,-0.39157 -2.34,0.36912 -2.356,3.25772 -0.01,2.07271 -0.57,4.63719 -1.242,5.69884 -0.736,1.16371 -0.738,2.83351 0,4.20467 0.865,1.61636 0.645,2.49397 -0.76,3.0333 -1.088,0.4174 -1.978,1.9791 -1.978,3.4705 0,2.8428 1.005,3.3299 3.486,1.6899 z m 13.578,-22.47782 c 2.024,-3.76598 4.512,-19.76026 3.488,-22.42698 -1.172,-3.05419 -3.046,-2.61875 -3.775,0.87689 -0.344,1.65181 -1.648,7.20791 -2.898,12.34689 -2.281,9.37283 -2.585,15.77561 -0.883,18.53066 0.506,0.81883 1.279,-0.30397 1.735,-2.52042 0.453,-2.19838 1.503,-5.26155 2.333,-6.80704 z m -35.084,-77.94533 c 0.454,-0.73414 -0.111,-1.3348 -1.256,-1.3348 -1.144,0 -2.081,0.60066 -2.081,1.3348 0,0.73414 0.565,1.33479 1.256,1.33479 0.691,0 1.628,-0.60065 2.081,-1.33479 z m 87.999,-6.23358 c 0.775,-2.01937 -1.1,-4.37241 -3.526,-4.42437 -1.424,-0.0305 -3.754,4.83721 -2.781,5.81065 1.648,1.64754 5.465,0.80852 6.307,-1.38628 z m -102.691,-3.09472 c 0.468,-0.75665 -0.07,-0.98042 -1.256,-0.5246 -2.312,0.88737 -2.736,1.8441 -0.816,1.8441 0.691,0 1.623,-0.59377 2.072,-1.3195 z m 6.016,-7.35669 c -0.914,-1.10121 -2.388,-2.00219 -3.275,-2.00219 -0.887,0 -2.408,-1.48576 -3.38,-3.30169 -0.972,-1.81592 -3.91,-4.00889 -6.529,-4.87327 -2.619,-0.86437 -5.54,-2.34965 -6.491,-3.30061 -3.85,-3.84965 -26.572,-15.68027 -29.713,-15.47011 -2.305,0.15427 -2.783,-0.13005 -1.545,-0.91955 1.3,-0.82879 0.175,-1.9256 -4.092,-3.9912 -9.681,-4.68633 -10.78,-3.87162 -9.192,6.81221 0.258,1.73378 11.304,8.09392 17.078,9.83339 3.072,0.92545 9.079,3.52388 13.348,5.77427 4.269,2.2504 8.693,4.09292 9.831,4.0945 1.138,0.002 2.695,0.62819 3.459,1.39248 1.343,1.34268 18.632,7.86862 20.998,7.92582 0.641,0.0155 0.417,-0.87284 -0.497,-1.97405 z m -33.37,-4.43569 c 0,-1.2065 -10.031,-5.5753 -12.801,-5.5753 -2.478,0 -1.898,2.73441 0.867,4.08669 6.371,3.1157 11.934,3.80968 11.934,1.48861 z m 62.874,-18.4229 c 2.064,-2.48652 9.019,-34.67803 9.131,-42.2598 0.04,-2.77885 -0.926,-6.68314 -2.149,-8.67619 -3.549,-5.78614 -15.569,-23.58105 -16.422,-24.31312 -1.836,-1.57474 -9.386,-11.81863 -9.386,-12.73519 0,-0.55289 -2.102,-3.57127 -4.672,-6.70752 -2.57,-3.13626 -6.133,-8.60405 -7.917,-12.15066 -1.785,-3.54661 -5.128,-8.55069 -7.43,-11.12018 -2.301,-2.56949 -5.948,-7.67509 -8.103,-11.34579 -2.156,-3.6707 -5.697,-9.07663 -7.869,-12.01319 -2.173,-2.93655 -4.939,-7.14117 -6.147,-9.34359 -5.699,-10.38817 -18.708,-28.69817 -20.39,-28.69817 -1.036,0 -5.861,2.89356 -10.722,6.43014 -4.862,3.53657 -13.551,9.393 -19.31,13.01429 -5.759,3.62128 -12.553,8.33051 -15.099,10.46496 -4.142,3.47385 -4.542,4.38369 -3.811,8.67619 1.057,6.21118 13.915,57.80983 19.246,77.23347 2.27,8.27296 4.128,16.28918 4.128,17.81383 0,4.82337 4.071,9.76217 10.482,12.71678 11.881,5.47587 22.269,9.62254 29.562,11.80138 4.037,1.2063 9.143,2.96953 11.345,3.91828 5.44,2.34317 12.078,4.38378 19.815,6.09111 3.557,0.78485 11.966,4.0955 18.687,7.35699 13.786,6.68932 14.532,6.85779 17.031,3.84598 z m -183.804,-78.2524 c 0.86,-4.29176 -0.484,-12.14039 -4.041,-23.59676 -1.009,-3.25087 -1.835,-7.00499 -1.835,-8.34249 0,-2.23947 -1.522,-3.08679 -4.535,-2.52434 -0.658,0.12299 -3.414,0.44417 -6.124,0.71373 -2.709,0.26957 -6.976,1.74556 -9.48,3.27999 -2.505,1.53443 -7.915,3.73986 -12.021,4.90097 -4.107,1.1611 -9.209,3.50039 -11.339,5.19842 -3.83,3.05359 -3.844,3.11795 -1.336,5.88916 1.394,1.54101 4.094,2.82093 5.999,2.84428 1.905,0.0234 4.63,0.92434 6.055,2.0022 1.425,1.07786 3.702,1.95975 5.06,1.95975 1.358,0 6.196,1.95214 10.752,4.33809 17.101,8.95729 21.586,9.61242 22.845,3.337 z m 245.824,-18.49979 c 1.252,-2.02561 1.646,-11.86688 0.476,-11.86688 -1.421,0 -5.402,10.66763 -4.516,12.10117 1.04,1.68247 2.923,1.57326 4.04,-0.23429 z m -7.652,-16.30413 c 2.557,-2.72143 2.73,-3.63141 1.413,-7.40954 -1.935,-5.55232 -5.699,-5.17705 -5.989,0.59723 -0.113,2.24374 -0.622,5.39245 -1.132,6.99714 -1.258,3.9637 1.907,3.86122 5.708,-0.18483 z m -18.628,-21.25762 c 0.609,-1.65182 2.137,-10.81187 3.394,-20.35568 1.258,-9.54381 2.855,-20.35568 3.551,-24.02638 5.357,-28.28756 9.152,-55.56053 10.027,-72.07912 0.389,-7.3414 1.185,-15.16316 1.768,-17.3817 1.276,-4.85469 -0.363,-9.98168 -3.191,-9.98168 -1.817,0 -22.692,13.43961 -35.41,22.79708 -2.569,1.89056 -8.278,6.09403 -12.687,9.34104 -4.408,3.247 -12.425,9.47228 -17.816,13.83395 -9.749,7.88883 -9.796,7.95782 -8.959,13.18981 0.462,2.89273 2.053,6.83233 3.534,8.75468 2.881,3.73874 12.398,18.52326 23.248,36.11592 3.67,5.95197 8.343,13.01543 10.384,15.69659 2.041,2.68115 6.777,9.87521 10.525,15.9868 7.016,11.44055 9.71,13.31877 11.632,8.10869 z m -169.673,-101.1716 c 5.805,-4.69662 8.324,-7.65547 8.324,-9.77768 0,-3.37996 -9.878,-16.8203 -15.646,-21.28921 -2.04,-1.58025 -4.731,-4.14069 -5.981,-5.68987 -1.385,-1.71754 -3.913,-2.86336 -6.479,-2.93631 l -4.207,-0.11963 1.044,6.25496 c 0.574,3.44023 0.955,7.97328 0.848,10.07344 -0.108,2.10016 0.61,5.40379 1.594,7.34139 0.985,1.93761 2.211,6.97708 2.724,11.19882 0.964,7.92717 3.276,11.67868 7.196,11.67868 1.243,0 6.006,-3.03056 10.583,-6.73459 z m 78.511,608.90797 c -0.575,-0.9304 -0.685,-2.0521 -0.244,-2.4927 1.194,-1.1946 2.497,0.5624 1.852,2.498 -0.452,1.3564 -0.767,1.3554 -1.608,-0.01 z"
       id="path34" />
  </g>
</svg>
