<?xml version="1.0" encoding="UTF-8" standalone="no"?>
<!-- Created with Inkscape (http://www.inkscape.org/) -->

<svg
   version="1.1"
   id="svg1"
   width="1065.381"
   height="1955.6095"
   viewBox="0 0 1065.381 1955.6097"
   sodipodi:docname="mountain.svg"
   inkscape:version="1.4.3 (0d15f75, 2025-12-25)"
   inkscape:export-batch-name="doodles"
   xmlns:inkscape="http://www.inkscape.org/namespaces/inkscape"
   xmlns:sodipodi="http://sodipodi.sourceforge.net/DTD/sodipodi-0.dtd"
   xmlns="http://www.w3.org/2000/svg"
   xmlns:svg="http://www.w3.org/2000/svg">
  <sodipodi:namedview
     id="namedview1"
     pagecolor="#505050"
     bordercolor="#eeeeee"
     borderopacity="1"
     inkscape:showpageshadow="0"
     inkscape:pageopacity="0"
     inkscape:pagecheckerboard="0"
     inkscape:deskcolor="#505050"
     inkscape:zoom="0.36251647"
     inkscape:cx="2884.0069"
     inkscape:cy="1148.9133"
     inkscape:window-width="1920"
     inkscape:window-height="1051"
     inkscape:window-x="-9"
     inkscape:window-y="-9"
     inkscape:window-maximized="1"
     inkscape:current-layer="g2" />
  <defs
     id="defs1" />
  <g
     id="g5"
     inkscape:groupmode="layer"
     inkscape:label="5"
     transform="translate(-7359.1536,-553.14971)">
    <path
       style="fill:#000000"
       d="m 8174.3489,2505.5425 c 0,-2.1061 0.7533,-3.3361 2.0435,-3.3361 2.788,0 4.122,3.9947 1.8206,5.452 -3.0024,1.9011 -3.8641,1.4292 -3.8641,-2.1159 z m 2.7742,-8.8982 c -0.2424,-8.1912 -4.5554,-10.8585 -6.1103,-3.7788 -1.3059,5.9455 -3.8586,5.0517 -2.8581,-1.0008 0.4549,-2.7523 0.8337,-6.055 0.8418,-7.3394 0.021,-3.3223 2.2259,-2.895 3.1422,0.609 0.4234,1.6193 1.2062,2.5078 1.7396,1.9744 1.1203,-1.1203 1.4346,-2.7248 2.6225,-13.3906 0.7975,-7.1606 0.662,-7.7651 -1.6422,-7.3257 -1.5189,0.2898 -2.659,1.792 -2.885,3.8015 -1.2516,11.1314 -4.1594,13.0681 -3.2555,2.1682 0.5916,-7.1348 -3.4304,-23.7478 -7.0691,-29.1986 -1.4273,-2.138 -1.6801,-2.056 -3.0705,0.9956 -1.0349,2.2713 -1.102,4.412 -0.2117,6.7536 0.7168,1.8855 1.3034,6.0799 1.3034,9.3208 0,5.1274 -0.4211,5.9983 -3.2429,6.7065 -2.8767,0.722 -3.3459,1.7765 -4.1559,9.3406 -0.5022,4.6896 -0.5895,9.3701 -0.1939,10.4009 1.0718,2.793 -2.8134,7.5213 -6.1609,7.498 -2.0386,-0.014 -2.4035,-0.3524 -1.2025,-1.1143 1.3305,-0.8441 1.4141,-2.4392 0.3662,-6.9853 -0.7469,-3.2403 -1.3727,-10.3159 -1.3906,-15.7235 -0.03,-9.0482 -0.3591,-10.2038 -4.1277,-14.496 -3.6462,-4.1528 -3.9953,-5.2691 -3.1849,-10.1844 0.5006,-3.0362 1.8286,-7.3218 2.9512,-9.5236 3.9968,-7.8394 4.3288,-8.662 4.3288,-10.7267 0,-1.149 -1.8015,-2.7172 -4.0033,-3.4847 -3.1521,-1.0988 -4.0033,-2.1835 -4.0033,-5.1015 0,-6.5066 1.6108,-12.0461 3.5029,-12.0461 1.3619,0 1.8348,-2.1586 1.8348,-8.3751 0,-4.6064 0.6372,-13.4568 1.416,-19.6677 1.0493,-8.3687 1.0053,-13.3693 -0.17,-19.3141 -1.2259,-6.2007 -1.2242,-12.5656 0.01,-28.0381 0.8763,-11.009 1.6236,-23.6193 1.6605,-28.0229 0.1028,-12.2486 -2.2052,-30.1553 -4.5578,-35.3623 -1.1606,-2.5687 -2.4975,-10.0749 -2.9708,-16.6803 -1.3743,-19.1762 -3.4048,-44.8027 -4.1236,-52.0426 -2.5582,-25.7643 -3.7109,-35.3236 -6.0337,-50.0409 -1.448,-9.1742 -3.2485,-19.983 -4.001,-24.0196 -0.7525,-4.0367 -2.7807,-15.446 -4.5071,-25.3541 -4.7902,-27.4923 -11.0377,-57.3757 -13.3696,-63.9502 -1.1515,-3.2465 -3.2961,-12.7235 -4.7659,-21.0601 -3.1103,-17.6413 -17.6883,-75.9938 -20.5397,-82.2155 -1.0707,-2.3363 -3.4788,-10.4148 -5.3512,-17.9523 -1.8725,-7.5375 -4.3083,-15.8675 -5.413,-18.5113 -1.1046,-2.6438 -2.0347,-6.0846 -2.067,-7.6463 -0.032,-1.5618 -0.9639,-5.2415 -2.0704,-8.1772 -1.1065,-2.9358 -3.4773,-10.225 -5.2684,-16.1984 -1.7911,-5.9734 -5.1391,-14.9808 -7.44,-20.0164 -2.3009,-5.0356 -4.7094,-11.8139 -5.3522,-15.0629 -0.6428,-3.2489 -2.9685,-9.6015 -5.1682,-14.1169 -2.1998,-4.5153 -3.9995,-8.9427 -3.9995,-9.8386 0,-0.8958 -1.0181,-3.5506 -2.2625,-5.8994 -1.2443,-2.3489 -2.3828,-4.9578 -2.5301,-5.7977 -0.9266,-5.2869 -9.1276,-28.2084 -10.7362,-30.0077 -1.0707,-1.1976 -2.5694,-4.5003 -3.3304,-7.3393 -1.572,-5.8645 -10.0317,-28.9812 -11.8264,-32.3166 -0.6519,-1.2115 -3.1372,-6.4061 -5.5229,-11.5437 -2.3858,-5.1375 -5.353,-10.8422 -6.5939,-12.677 -1.2409,-1.8348 -3.3335,-7.2393 -4.6503,-12.0098 -2.0514,-7.4322 -7.1243,-17.7981 -9.7956,-20.0164 -0.4419,-0.367 -1.6546,-2.3186 -2.6949,-4.3369 -1.0403,-2.0183 -2.6466,-3.6697 -3.5696,-3.6697 -2.5174,0 -9.0481,-12.5533 -13.19,-25.354 -4.4774,-13.8378 -5.5751,-16.0131 -8.0802,-16.0131 -1.0751,0 -1.9547,-0.6259 -1.9547,-1.3908 0,-0.7649 -0.6109,-2.116 -1.3575,-3.0024 -3.002,-3.5641 -8.1036,-11.4092 -12.7629,-19.6265 -2.705,-4.7706 -6.3391,-10.9127 -8.0759,-13.6492 -1.7368,-2.7365 -3.1711,-6.0392 -3.1874,-7.3394 -0.016,-1.3001 -1.242,-3.8651 -2.7236,-5.6999 -1.4817,-1.8348 -4.7392,-6.4504 -7.2388,-10.2569 -2.4997,-3.8065 -5.7203,-7.5499 -7.1569,-8.3188 -2.4121,-1.2909 -13.5428,-18.9383 -13.5428,-21.4716 0,-0.613 -1.6651,-2.8121 -3.7002,-4.8869 -2.0352,-2.0748 -6.0415,-7.075 -8.903,-11.1116 -10.1193,-14.275 -16.1496,-21.917 -21.522,-27.274 -2.9892,-2.9807 -6.382,-6.9207 -7.5395,-8.7555 -4.4183,-7.0039 -34.1301,-37.214 -47.903,-48.7065 -27.5923,-23.0237 -36.6448,-31.07 -53.2046,-47.2909 -9.168,-8.9803 -18.4757,-17.0919 -20.6836,-18.0257 -3.58,-1.514 -16.7773,-13.2151 -41.5697,-36.8567 -14.1389,-13.4827 -34.638,-31.2379 -41.5845,-36.0182 -3.6701,-2.5256 -7.7818,-6.693 -9.1371,-9.261 -2.9432,-5.5768 -17.4181,-20.0135 -25.8165,-25.7485 -8.8272,-6.0278 -24.6571,-20.9552 -24.8787,-23.4604 -0.1054,-1.1924 -0.2556,-2.9186 -0.3336,-3.836 -0.1707,-2.0075 -3.7317,-2.241 -4.3829,-0.2874 -0.775,2.3249 -5.0008,-1.7442 -5.5912,-5.3839 -0.2976,-1.8348 -1.2486,-3.1729 -2.1134,-2.9735 -2.4806,0.572 -8.3274,-4.2126 -13.3228,-10.9027 -2.5217,-3.3771 -5.5542,-6.1402 -6.7389,-6.1402 -2.8168,0 -5.3565,-2.6113 -5.3565,-5.5076 0,-1.2677 -4.4229,-5.8908 -9.8286,-10.2736 -9.4556,-7.6661 -36.3976,-32.8756 -40.7664,-38.1448 -4.7814,-5.7668 -17.0618,-19.352 -24.9681,-27.6209 -4.6387,-4.8515 -7.9998,-9.2873 -7.469,-9.8573 0.5307,-0.5701 0.093,-0.7637 -0.9726,-0.4303 -2.9747,0.9306 -6.2446,-2.6208 -11.0372,-11.9875 -2.405,-4.7005 -7.8256,-12.653 -12.0458,-17.6722 -4.2201,-5.0192 -7.6729,-10.1612 -7.6729,-11.4266 0,-1.2655 -0.3764,-1.9245 -0.8364,-1.4645 -1.5433,1.5434 -8.4386,-3.0654 -10.4735,-7.0004 -1.1077,-2.1421 -5.7382,-9.7882 -10.2899,-16.9913 -18.3218,-28.9941 -23.8967,-38.8794 -27.3249,-48.45174 -1.9727,-5.5084 -4.7922,-11.76355 -6.2654,-13.90034 -1.4733,-2.13678 -3.1382,-6.34022 -3.6998,-9.34097 -0.5617,-3.00075 -2.4931,-9.9596 -4.2922,-15.4641 -4.22,-12.91218 -8.2986,-30.60675 -10.8951,-47.26768 -3.7136,-23.82863 -1.4481,-107.17154 3.3763,-124.20593 0.8315,-2.93573 2.2171,-8.04306 3.0793,-11.34961 0.8622,-3.30655 2.8552,-8.11048 4.4289,-10.6754 1.5738,-2.56492 3.2599,-7.3657 3.747,-10.6684 1.9112,-12.9585 4.0597,-20.79832 6.3905,-23.31871 1.3403,-1.44932 3.9065,-5.74156 5.7027,-9.53831 3.9223,-8.29105 15.3443,-25.77278 18.6098,-28.48294 1.2864,-1.06757 3.53,-2.56497 4.9859,-3.32755 2.8991,-1.51849 4.4412,-4.0396 9.8267,-16.0652 4.3931,-9.80957 13.3389,-21.30164 18.2226,-23.40931 1.9939,-0.86052 3.9911,-2.71698 4.4381,-4.12547 0.447,-1.40849 2.2685,-3.51469 4.0476,-4.68045 1.7792,-1.16575 3.2349,-2.8777 3.2349,-3.80433 0,-0.92662 0.9007,-2.43231 2.0016,-3.34598 1.1009,-0.91367 2.0017,-2.78867 2.0017,-4.16667 0,-1.378 0.6311,-2.50545 1.4025,-2.50545 0.7714,0 2.3172,-2.18924 3.4352,-4.86498 2.5765,-6.1663 4.8967,-8.47927 8.5059,-8.47927 1.8165,0 6.6503,-3.8896 13.2586,-10.66883 7.419,-7.61088 12.5663,-11.62692 17.9582,-14.01147 4.157,-1.83844 8.4014,-3.34263 9.4319,-3.34263 1.0305,0 2.2544,-1.19959 2.7198,-2.66575 0.4653,-1.46616 2.4574,-3.05896 4.4268,-3.53955 1.9694,-0.48059 5.0128,-1.98321 6.7631,-3.33916 1.7503,-1.35595 4.5672,-2.46536 6.2598,-2.46536 1.6925,0 3.4428,-0.59131 3.8894,-1.31401 0.4467,-0.7227 2.1335,-1.21405 3.7485,-1.09189 1.6149,0.12215 6.6013,-1.05673 11.0808,-2.61974 6.8485,-2.38961 27.5673,-5.3818 37.2259,-5.37614 8.0732,0.005 31.8769,3.91254 39.1369,6.42504 4.6232,1.59994 9.6134,2.59317 11.0894,2.20719 1.4817,-0.38747 3.8248,0.27526 5.2315,1.47973 5.1714,4.42782 20.4899,7.30564 21.5741,4.05301 0.8137,-2.44105 5.0353,-0.16859 5.0353,2.71046 0,1.77494 2.2675,3.66352 7.4328,6.19065 10.4542,5.11477 46.5208,29.39125 52.3936,35.26624 2.6913,2.69224 7.8163,7.21897 11.389,10.05941 14.3023,11.37095 39.8162,38.68383 49.2466,52.71893 3.5003,5.20948 7.4584,6.31729 5.6503,1.58144 -0.462,-1.21014 1.1879,-0.23811 3.6664,2.16008 2.4786,2.39819 5.0136,3.89942 5.6335,3.33607 0.6199,-0.56336 0.7286,-0.32786 0.2416,0.52332 -1.2033,2.10304 0.3505,5.79173 2.4397,5.79173 1.5999,0 14.5807,17.83314 19.7297,27.10464 1.2994,2.33989 4.7365,7.85729 7.6379,12.2609 4.5889,6.96483 21.3584,39.37345 21.3584,41.27715 0,0.37972 1.7923,4.60363 3.9829,9.38648 2.1906,4.78284 7.0477,17.85856 10.7936,29.05716 3.7459,11.19859 7.3522,21.56206 8.0142,23.02993 4.2247,9.36883 8.4718,23.15577 10.6848,34.68442 1.4099,7.34518 3.2307,16.83477 4.0463,21.08797 1.6479,8.59374 3.5876,9.28535 6.0829,2.16891 3.3097,-9.43884 10.1361,-31.42766 11.1524,-35.92329 0.5807,-2.56877 2.632,-9.17417 4.5584,-14.67867 3.1605,-9.03069 5.3486,-14.54365 10.9376,-27.55739 0.9932,-2.31272 1.8059,-4.60174 1.8059,-5.08672 0,-0.48499 1.5589,-4.29743 3.4643,-8.4721 8.1154,-17.78093 9.5618,-21.10652 10.556,-24.27062 0.5765,-1.83483 2.3648,-5.43778 3.9738,-8.00655 1.6091,-2.56877 5.8344,-10.37515 9.3896,-17.34752 6.5106,-12.7687 14.8396,-26.7869 16.6498,-28.02293 0.5375,-0.36696 1.3647,-1.9107 1.8383,-3.43052 1.3218,-4.24182 8.6147,-15.25143 10.1028,-15.25143 0.727,0 0.9281,1.05086 0.4467,2.33525 -0.7783,2.07665 -0.6161,2.12435 1.4643,0.43079 3.0368,-2.47206 6.4877,-9.17586 5.7637,-11.19665 -1.3012,-3.63206 6.1567,-14.52332 9.1566,-13.37212 1.0907,0.41851 4.9509,-2.69424 9.5493,-7.70011 4.2451,-4.62143 12.1942,-12.63432 17.6644,-17.80641 5.4703,-5.1721 15.3261,-14.50798 21.9017,-20.74642 21.0608,-19.98075 22.7812,-21.51772 27.5539,-24.61563 2.5795,-1.67437 5.5054,-4.02672 6.5019,-5.22744 0.9965,-1.20072 2.4999,-2.18313 3.3409,-2.18313 0.841,0 4.4445,-2.4091 8.0077,-5.35356 3.5632,-2.94446 7.9057,-5.71177 9.6501,-6.14958 1.7444,-0.4378 3.1716,-1.28826 3.1716,-1.88989 0,-0.60164 3.4528,-2.37688 7.6729,-3.94498 4.2201,-1.5681 11.8764,-5.09083 17.0139,-7.82829 13.1962,-7.03137 30.0355,-12.80775 34.9587,-11.99187 1.5316,0.25382 3.9003,-0.49899 5.2638,-1.6729 1.5297,-1.31695 7.8453,-2.83166 16.4906,-3.95505 12.3346,-1.60279 13.3727,-1.92887 8.6738,-2.72464 -2.9358,-0.49718 -6.3491,-0.36875 -7.5853,0.28539 -2.8986,1.53391 -10.0563,1.53822 -11.0029,0.007 -0.8536,-1.38117 3.6276,-2.77628 9.0013,-2.80234 2.0666,-0.01 4.8281,-0.59121 6.1366,-1.29154 1.3086,-0.70032 9.8261,-1.5904 18.9279,-1.97795 17.641,-0.75115 22.7558,0.36 23.6771,5.14365 0.4024,2.08942 -0.027,2.31642 -2.657,1.40348 -5.6024,-1.94495 -19.1809,-0.88007 -16.9699,1.33085 1.3376,1.33769 31.8907,1.86044 31.0694,0.53159 -0.4544,-0.73533 -1.6656,-1.01489 -2.6914,-0.62123 -1.0259,0.39365 -3.217,0.12825 -4.8691,-0.58978 -2.0855,-0.90634 0.6547,-1.05337 8.9619,-0.48085 11.1227,0.76656 12.3384,1.1436 17.2541,5.35124 2.9085,2.48961 5.8337,4.52657 6.5003,4.52657 2.9452,0 18.3719,8.19382 25.853,13.73173 10.0042,7.40561 16.1254,10.67112 17.9219,9.56085 3.5975,-2.2234 26.682,20.51303 32.4979,32.00792 2.0799,4.11094 4.2132,7.74113 4.7406,8.06708 0.9613,0.5941 16.4289,31.4601 26.4228,52.72739 2.9315,6.23844 8.4771,20.65023 12.3234,32.0262 3.8464,11.37598 8.4103,23.8934 10.142,27.8165 6.1706,13.9792 9.8183,31.96822 15.1949,74.93423 2.0476,16.36334 2.8965,23.97186 3.3501,30.02456 0.2199,2.93573 1.1443,11.64286 2.0542,19.34916 3.6849,31.21153 1.7775,123.18136 -3.4596,166.80313 -1.0133,8.4403 -2.5059,21.3508 -3.3169,28.6902 -0.811,7.3393 -2.6317,20.2499 -4.046,28.6901 -1.4142,8.4402 -4.0883,25.254 -5.9424,37.3639 -4.395,28.706 -7.9545,47.6728 -11.2694,60.0491 -1.4743,5.5045 -2.7105,12.1099 -2.747,14.6787 -0.037,2.5688 -1.2281,7.9732 -2.6481,12.0098 -1.4199,4.0367 -2.6013,9.0292 -2.6253,11.0945 -0.024,2.0654 -1.5382,7.0229 -3.3651,11.0168 -1.8268,3.9939 -3.7221,9.8102 -4.2116,12.9252 -0.4896,3.1149 -2.066,8.3657 -3.5033,11.6684 -1.4372,3.3027 -3.1028,10.6449 -3.7013,16.316 -0.5986,5.6712 -1.9545,11.9763 -3.0133,14.0115 -2.1897,4.2089 -3.8253,9.3008 -6.9752,21.7151 -1.2105,4.7705 -2.6395,9.2742 -3.1756,10.0082 -0.5361,0.7339 -1.7535,4.0366 -2.7052,7.3393 -0.9518,3.3027 -2.2609,7.7459 -2.9092,9.8737 -0.6484,2.1278 -1.1788,5.5452 -1.1788,7.5942 0,2.049 -0.6005,4.0965 -1.3344,4.5501 -0.734,0.4536 -1.3344,2.8474 -1.3344,5.3195 0,2.5405 -2.0307,8.3906 -4.6705,13.4552 -3.3565,6.4393 -4.673,10.6904 -4.6793,15.1092 -0.01,3.8901 -0.9827,7.6194 -2.6601,10.1521 -1.4582,2.2018 -2.6552,5.2343 -2.66,6.7389 0,1.5045 -0.5049,3.306 -1.1112,4.0033 -1.6236,1.867 -4.5356,11.7473 -4.1266,14.0012 0.1942,1.0698 -0.3351,3.4464 -1.1762,5.2812 -0.841,1.8348 -2.49,7.2392 -3.6643,12.0098 -1.1743,4.7706 -3.2923,10.6597 -4.7066,13.0869 -1.4143,2.4273 -2.5715,5.449 -2.5715,6.715 0,1.2659 -0.9315,5.5852 -2.07,9.5983 -3.0279,10.6725 -4.1615,15.2892 -7.034,28.6473 -1.4205,6.6054 -3.496,14.712 -4.6122,18.0147 -1.1163,3.3027 -2.675,9.6079 -3.4638,14.0115 -0.7887,4.4036 -2.6839,13.411 -4.2115,20.0164 -1.5275,6.6054 -3.32,14.712 -3.9834,18.0147 -0.6633,3.3027 -2.1443,10.2084 -3.2912,15.3459 -1.1468,5.1375 -2.3281,13.1297 -2.625,17.7604 -0.2969,4.6307 -1.1009,9.1344 -1.7867,10.0082 -0.6858,0.8738 -1.6505,3.9907 -2.1438,6.9265 -0.4933,2.9357 -1.8295,10.7421 -2.9695,17.3475 -1.1399,6.6054 -2.5947,15.6127 -3.233,20.0163 -0.6382,4.4037 -1.8205,11.9098 -2.6272,16.6804 -0.8067,4.7705 -1.4026,12.4045 -1.3241,16.9644 0.087,5.0269 -0.9575,11.853 -2.6521,17.3395 -1.5372,4.9768 -3.1614,14.6283 -3.6093,21.4478 -0.448,6.8195 -1.323,12.7133 -1.9445,13.0975 -0.6216,0.3841 -1.1397,3.8155 -1.1514,7.6253 -0.012,3.8099 -1.2278,18.0361 -2.7024,31.6139 -1.7513,16.1256 -2.9246,38.3386 -3.3833,64.0524 -0.9105,51.0375 -1.331,61.5235 -2.5874,64.5207 -0.6036,1.4397 -0.4403,2.8377 0.3915,3.3518 1.5022,0.9284 1.782,6.9587 1.8349,39.5487 0.042,25.9416 -0.057,22.1298 1.2298,47.3721 0.6172,12.1099 1.4472,32.8268 1.8445,46.0376 1.1359,37.7719 5.1984,91.8837 8.816,117.4294 0.7275,5.1376 1.8623,13.7374 2.5218,19.1108 0.6595,5.3734 1.8556,12.5793 2.658,16.0131 0.8024,3.4338 3.0071,13.4256 4.8994,22.2041 3.7321,17.3134 10.2309,37.3208 15.7272,48.4187 1.9065,3.8495 3.4679,7.4525 3.4698,8.0065 0,0.5541 2.9448,5.4272 6.5399,10.8293 5.8752,8.8281 15.4193,17.4349 19.478,17.5652 0.7339,0.024 3.6932,1.8276 6.5762,4.009 2.883,2.1814 6.6954,3.9662 8.4721,3.9662 4.4325,0 10.1964,2.9436 19.6205,10.0204 4.3891,3.296 8.9613,5.9927 10.1603,5.9927 2.388,0 10.1279,10.2073 8.7697,11.5655 -0.463,0.463 -2.2035,1.5332 -3.8679,2.3783 -2.9768,1.5114 -3.6228,4.6342 -1.8254,8.8245 0.6206,1.4468 -0.243,2.6512 -2.822,3.9356 -2.044,1.0179 -5.7352,3.3142 -8.2028,5.1029 -4.5864,3.3247 -12.7249,4.3743 -16.3638,2.1105 -1.0092,-0.6279 -3.0876,-0.9799 -4.6186,-0.7823 -1.531,0.1976 -3.5561,-0.5716 -4.5003,-1.7092 -0.9441,-1.1377 -2.2045,-2.0685 -2.8008,-2.0685 -0.5963,0 -2.7746,-0.6427 -4.8407,-1.4282 -2.0661,-0.7856 -4.0176,-1.3924 -4.3367,-1.3486 -0.319,0.044 -0.8272,4.3758 -1.1293,9.6268 -0.4897,8.5136 -0.3067,9.4542 1.6901,8.688 1.2316,-0.4726 2.7907,-0.8593 3.4646,-0.8593 0.6739,0 1.2252,-1.201 1.2252,-2.6689 0,-1.4678 0.5651,-2.6688 1.2557,-2.6688 1.9311,0 2.9592,2.3806 1.435,3.3226 -2.1189,1.3095 -1.5901,3.3555 0.6454,2.4976 1.4782,-0.5672 2.0016,0.1852 2.0016,2.8776 0,3.3075 -0.3573,3.5741 -3.8537,2.8749 -3.9276,-0.7856 -8.1561,2.1031 -8.1561,5.5717 0,1.0301 -1.1786,1.2926 -3.3534,0.7467 -3.715,-0.9324 -7.322,1.2829 -7.322,4.4969 0,1.1247 2.402,4.3298 5.3377,7.1225 2.9358,2.7927 5.3377,5.4019 5.3377,5.7983 0,1.7157 -6.3391,0.4817 -10.0082,-1.9482 -2.2018,-1.4582 -5.5045,-2.6641 -7.3393,-2.6797 -1.8348,-0.016 -4.8373,-0.8978 -6.6721,-1.9602 -1.8349,-1.0625 -7.5395,-3.9803 -12.6771,-6.484 -5.1375,-2.5038 -10.6921,-5.8525 -12.3434,-7.4416 -3.0907,-2.9741 -4.098,-8.123 -1.5893,-8.123 0.7773,0 1.0421,-0.6005 0.5885,-1.3344 -1.3497,-2.1838 -7.3394,-1.5952 -7.3394,0.7212 0,1.5265 -0.941,1.1831 -3.656,-1.3344 -2.0108,-1.8646 -4.2627,-3.3928 -5.0041,-3.3961 -0.7414,0 -4.5456,-6.3085 -8.4538,-14.0115 -3.9082,-7.703 -7.9268,-14.0054 -8.9304,-14.0054 -1.0988,0 -3.0217,-3.8487 -4.8337,-9.6746 -1.6549,-5.321 -4.0915,-10.9143 -5.4146,-12.4294 -1.3231,-1.5152 -2.4057,-3.9472 -2.4057,-5.4045 0,-1.4572 -0.543,-3.22 -1.2067,-3.9172 -0.6637,-0.6973 -3.4145,-7.8731 -6.1129,-15.9464 -2.6983,-8.0733 -5.5182,-15.2792 -6.2663,-16.0131 -0.9237,-0.9063 -0.9961,5.302 -0.2256,19.3492 1.8382,33.5134 1.2957,124.4518 -0.8081,135.4441 -0.9832,5.1375 -2.1493,15.9464 -2.5914,24.0196 -0.9378,17.127 -3.0768,18.9616 -4.3113,3.698 -0.8279,-10.2357 -4.2768,-21.0973 -9.2748,-29.2095 -1.4099,-2.2885 -2.5635,-5.3488 -2.5635,-6.8008 0,-2.3207 -2.0137,-7.6212 -5.1841,-13.6459 -1.8898,-3.5912 -3.6928,-2.8313 -3.6889,1.5548 0,2.4039 -0.4483,10.0754 -1.0009,17.0477 -0.5526,6.9724 -1.1092,14.1783 -1.2368,16.0131 -0.1912,2.7497 0.3121,3.2773 2.8634,3.0018 2.5214,-0.2724 3.0163,0.2225 2.6689,2.6688 -0.2709,1.9072 -1.3511,3.0056 -2.9599,3.0098 -2.3112,0.01 -2.5094,1.005 -2.2596,11.3904 0.1506,6.2611 -0.3853,13.1172 -1.1908,15.2358 -0.8055,2.1186 -1.0911,4.7993 -0.6347,5.9571 0.6358,1.613 1.247,1.1693 2.6149,-1.8981 1.5283,-3.4273 1.8008,-3.587 1.8935,-1.11 0.06,1.5913 0.4729,3.8432 0.9184,5.0041 0.4562,1.1888 0.1232,2.1108 -0.7625,2.1108 -1.8688,0 -4.6486,2.5999 -5.7326,5.3615 -0.4625,1.1783 -0.8189,0.5386 -0.8816,-1.5827 z m -22.7906,-59.7459 c 0,-3.9424 -2.2784,-4.4974 -2.9985,-0.7304 -0.4248,2.2224 -0.034,3.3205 1.1819,3.3205 0.9991,0 1.8166,-1.1656 1.8166,-2.5901 z m 12.3291,-11.4068 c 0.8796,-4.2336 0.5958,-5.6266 -1.6287,-7.9945 -1.4816,-1.5771 -2.6939,-4.0868 -2.6939,-5.5771 0,-1.4903 -1.2376,-3.8297 -2.7503,-5.1987 -2.3538,-2.1301 -2.928,-2.208 -3.9828,-0.5404 -0.6779,1.0717 -1.2418,3.5929 -1.253,5.6025 -0.017,2.9805 0.5228,3.5954 2.9273,3.3361 1.9511,-0.2104 3.1206,0.5153 3.4588,2.1462 0.3939,1.8997 -0.068,2.2803 -2.017,1.6618 -1.3903,-0.4413 -3.6299,0 -4.9767,0.9883 -3.7539,2.7449 -1.1548,9.5157 3.7233,9.6995 1.971,0.074 3.9857,0.5371 4.4772,1.0286 1.8358,1.8358 3.6833,-0.1827 4.7158,-5.1523 z m -0.3193,-26.7818 c 0,-2.9953 -5.3586,-7.7735 -6.942,-6.1901 -0.8936,0.8936 -0.336,2.6918 1.6801,5.4187 3.0131,4.0755 5.2619,4.4052 5.2619,0.7714 z m 153.2535,-17.9767 c 0.4031,-2.7656 0.1914,-2.9433 -1.6681,-1.4001 -2.5181,2.0898 -2.8626,5.9078 -0.4617,5.1171 0.9174,-0.3021 1.8758,-1.9748 2.1298,-3.717 z m -18.2193,-3.89 c 3.5011,-7.0745 2.9652,-10.748 -1.5681,-10.748 -2.6168,0 -3.3024,1.3823 -4.7552,9.588 -0.8619,4.8685 -0.1274,7.7595 1.9715,7.7595 0.5972,0 2.5555,-2.9698 4.3518,-6.5995 z m -133.59,-3.0751 c 0.06,-0.9174 0.3789,-3.3033 0.708,-5.302 0.5006,-3.0398 0.023,-3.7784 -2.9218,-4.5175 -3.9157,-0.9828 -5.8484,0.9065 -5.8821,5.75 -0.03,4.2486 7.8244,8.1965 8.0959,4.0695 z m 120.4711,-5.6713 c -0.4225,-1.1009 -1.0041,-2.0016 -1.2926,-2.0016 -0.2884,0 -0.5244,0.9007 -0.5244,2.0016 0,1.1009 0.5816,2.0017 1.2925,2.0017 0.7109,0 0.9469,-0.9008 0.5245,-2.0017 z m -102.5378,-17.3475 c 0.5274,-8.4402 1.29,-15.3459 1.6946,-15.3459 0.4047,0 1.7597,0.9267 3.0112,2.0593 1.9392,1.7549 2.3835,1.7776 3.0069,0.1532 1.0015,-2.6099 -2.9149,-7.8955 -5.2003,-7.0185 -1.5114,0.58 -1.8277,-1.8003 -1.717,-12.921 0.075,-7.4976 -0.225,-15.1332 -0.6661,-16.968 -0.4411,-1.8349 -1.0872,-15.6462 -1.4357,-30.6918 -0.591,-25.5093 -3.6414,-58.5416 -5.7173,-61.9113 -0.4994,-0.8106 0.7844,-0.3671 2.8527,0.9856 2.5561,1.6716 4.1967,2.0235 5.1217,1.0985 2.2275,-2.2275 0.041,-7.4049 -4.1136,-9.7402 -2.7318,-1.5356 -4.0807,-3.5055 -4.5686,-6.6721 -0.3808,-2.4713 -1.063,-5.6942 -1.516,-7.1621 -0.4531,-1.4678 -0.211,-3.5695 0.5379,-4.6704 1.1576,-1.7018 1.7555,-1.5019 3.9909,1.3344 2.7354,3.4706 3.409,2.1555 1.8585,-3.6283 -0.5419,-2.0213 -1.6902,-2.8683 -3.6184,-2.6688 -2.3715,0.2453 -2.9927,-0.6713 -3.8718,-5.7127 -0.5759,-3.3027 -1.0631,-6.9057 -1.0827,-8.0066 -0.1014,-5.684 -3.0082,-27.9141 -4.1335,-31.6114 -0.9805,-3.2212 -2.1687,-4.3564 -4.8884,-4.6704 -3.1883,-0.3682 -3.5779,-0.9556 -3.4589,-5.215 0.074,-2.6401 1.056,-6.648 2.1827,-8.9066 1.3561,-2.7182 1.8159,-6.1705 1.3604,-10.2121 -1.1525,-10.2251 1.6881,-6.82 3.5338,4.236 1.7351,10.3932 3.4226,14.2736 5.6173,12.9172 1.6942,-1.0471 1.4592,-5.5056 -0.4514,-8.5651 -1.2799,-2.0493 -1.2838,-2.9682 -0.018,-4.2338 1.2656,-1.2656 1.1465,-2.1357 -0.549,-4.0092 -1.6939,-1.8717 -2.1102,-4.8984 -1.9119,-13.898 0.2044,-9.2746 -0.3253,-12.9019 -2.7324,-18.7093 -1.6422,-3.9623 -3.4947,-7.2042 -4.1167,-7.2042 -1.9527,0 -2.6461,3.6841 -1.2014,6.3835 1.0151,1.8967 0.8979,3.2557 -0.4383,5.083 -1.6895,2.3105 -1.7748,2.2377 -1.1583,-0.9872 0.4827,-2.5253 -0.1099,-4.0246 -2.1577,-5.4589 -1.7824,-1.2485 -2.5159,-2.7782 -1.9897,-4.1494 0.4584,-1.1946 0.197,-3.9979 -0.581,-6.2296 -1.4461,-4.1483 -0.8365,-7.9856 1.2687,-7.9856 0.6468,0 1.5637,2.4252 2.0377,5.3893 0.8209,5.1337 3.9688,6.9676 3.7291,2.1724 -0.061,-1.2232 -0.2113,-3.9378 -0.3336,-6.0324 -0.1224,-2.0947 -1.8645,-5.5475 -3.8714,-7.673 -4.0924,-4.3342 -6.9295,-11.2105 -7.1001,-17.2088 -0.063,-2.2018 -0.5872,-5.2042 -1.1657,-6.6721 -0.9087,-2.3057 -1.1894,-2.0483 -2.0631,1.892 -1.3049,5.885 -2.7716,3.2892 -3.708,-6.5625 -0.6077,-6.3939 -0.52,-6.7806 0.6806,-3.0024 1.4014,4.4098 3.661,5.905 3.661,2.4225 0,-1.053 -0.9113,-6.2466 -2.0251,-11.5416 -1.1139,-5.2949 -1.763,-9.8893 -1.4426,-10.2097 0.8666,-0.8665 3.5597,4.628 3.1521,6.4309 -0.1934,0.8554 0.399,1.8305 1.3164,2.1669 2.2248,0.8157 2.1652,-7.5072 -0.1166,-16.2911 -1.6557,-6.3738 -1.938,-6.6722 -6.3128,-6.6722 -4.1627,0 -4.5944,-0.3644 -4.742,-4.0032 -0.2212,-5.4506 -1.736,-8.6738 -4.0764,-8.6738 -1.2607,0 -1.8008,-1.063 -1.5253,-3.0024 0.3265,-2.2987 1.2866,-2.9902 4.0961,-2.9499 2.0183,0.029 3.6696,-0.4609 3.6696,-1.0885 0,-2.8116 -2.9969,-6.3034 -5.41,-6.3034 -2.1253,0 -2.4894,-0.6292 -1.8466,-3.1905 0.4404,-1.7548 0.1418,-3.5978 -0.6635,-4.0955 -0.8054,-0.4978 -1.1153,-1.4698 -0.6887,-2.1601 0.4267,-0.6903 -0.4643,-2.8315 -1.9798,-4.7582 -1.5156,-1.9268 -2.7556,-4.8425 -2.7556,-6.4793 0,-1.6369 -1.201,-4.503 -2.6689,-6.3691 -3.4249,-4.354 -3.3627,-5.1909 0.6673,-8.9768 5.5859,-5.2477 4.0389,-9.9262 -7.1599,-21.6537 -3.3129,-3.4692 -5.613,-6.7182 -5.1113,-7.2199 0.5017,-0.5017 2.014,0.085 3.3607,1.3036 3.2834,2.9715 4.2439,2.7924 4.2195,-0.7865 -0.028,-4.1443 -1.3248,-5.7198 -5.9844,-7.2716 -3.9044,-1.3002 -3.9921,-1.5207 -3.5504,-8.9259 0.3226,-5.4075 -0.1778,-8.5555 -1.7386,-10.9376 -1.244,-1.8985 -1.8328,-4.4753 -1.3618,-5.9594 0.5436,-1.7127 0.1077,-2.8917 -1.2638,-3.418 -1.3234,-0.5078 -2.0936,-2.4423 -2.0936,-5.2583 0,-3.5348 -0.7579,-4.8259 -3.6697,-6.2511 -3.2518,-1.5917 -3.6433,-2.4738 -3.4384,-7.7458 0.1792,-4.6107 0,-5.1988 -0.8172,-2.6134 -0.8729,2.7777 -1.208,2.9626 -2.002,1.105 -0.5245,-1.2271 -1.0745,-3.0286 -1.222,-4.0033 -0.1476,-0.9747 -0.6313,-2.3727 -1.0748,-3.1067 -0.4435,-0.7339 -1.1757,-3.4361 -1.6271,-6.0049 -0.5219,-2.9702 -0.42,-3.7311 0.2801,-2.0902 0.8179,1.917 1.3702,2.1444 2.1489,0.8846 0.5764,-0.9327 0.3797,-2.364 -0.437,-3.1808 -0.8168,-0.8168 -1.4851,-3.4667 -1.4851,-5.8886 0,-4.7794 -0.6523,-5.1043 -6.0943,-3.0352 -4.2886,1.6305 -8.0213,0.6892 -9.1735,-2.3134 -1.0209,-2.6604 1.3107,-4.3032 4.8091,-3.3883 2.2594,0.5909 2.4727,0.1866 1.67,-3.166 -0.5062,-2.1138 -1.507,-4.5885 -2.224,-5.4993 -0.7362,-0.935 -0.9103,-4.2798 -0.4,-7.6828 0.7432,-4.956 0.5041,-6.1804 -1.3456,-6.8902 -2.197,-0.8431 -8.5925,-13.4707 -8.5925,-16.9655 0,-0.9677 -1.201,-3.1442 -2.6688,-4.8367 -2.8507,-3.2868 -3.5278,-6.6721 -1.3345,-6.6721 1.7478,0 1.7299,-4.9358 -0.022,-6.0184 -0.7459,-0.4609 -1.0364,-1.3556 -0.6455,-1.9881 0.3909,-0.6325 0.1005,-1.5272 -0.6454,-1.9882 -2.1716,-1.3422 -1.5837,-6.0184 0.7566,-6.0184 1.1621,0 1.8504,-0.7506 1.5296,-1.668 -0.3208,-0.9174 -1.658,-1.4718 -2.9716,-1.232 -2.9298,0.535 -4.6266,-1.9239 -4.6537,-6.7438 -0.014,-2.5009 -1.168,-4.3688 -3.6901,-5.9729 -2.0183,-1.2837 -4.1498,-3.099 -4.7368,-4.034 -0.5869,-0.9351 -1.8645,-1.7001 -2.839,-1.7001 -0.9746,0 -2.5523,-0.9403 -3.5061,-2.0895 -1.414,-1.7038 -1.4194,-2.9597 -0.029,-6.8039 1.6265,-4.4982 1.515,-4.9102 -2.4326,-8.983 -2.2755,-2.3478 -4.1644,-5.7413 -4.1975,-7.5412 -0.033,-1.7999 -0.8325,-5.074 -1.7765,-7.2758 -1.4705,-3.4299 -1.4141,-4.231 0.3938,-5.5932 3.1415,-2.3669 0.1807,-6.5433 -4.2561,-6.0037 -2.8574,0.3475 -3.5418,-0.2551 -4.3216,-3.8055 -0.5096,-2.3202 -1.9527,-5.2447 -3.2069,-6.4989 -4.6106,-4.6105 -6.7889,-8.8243 -6.7889,-13.1325 0,-2.6939 -0.7804,-4.715 -2.0016,-5.1836 -1.1009,-0.4225 -2.0016,-2.0077 -2.0016,-3.5227 0,-1.5151 -0.8224,-3.7026 -1.8276,-4.8613 -1.0051,-1.1587 -2.4008,-3.9082 -3.1016,-6.11 -1.0287,-3.2321 -2.3597,-4.2697 -6.9088,-5.3863 -6.6045,-1.6211 -5.9025,-3.2875 1.385,-3.2875 6.1628,0 6.3771,-1.2859 1.112,-6.6721 -2.2018,-2.2524 -4.0033,-5.1964 -4.0033,-6.5423 0,-3.5931 -9.5385,-20.1462 -11.609,-20.1462 -0.9743,0 -2.8142,-0.5567 -4.0886,-1.237 -1.2744,-0.6804 -3.3732,-1.5643 -4.6639,-1.9642 -1.2908,-0.4 -3.0662,-2.3954 -3.9455,-4.4343 -0.8792,-2.0389 -3.276,-6.2173 -5.3261,-9.2853 -2.0501,-3.0679 -3.7275,-6.147 -3.7275,-6.8423 0,-0.6953 -0.8423,-1.9632 -1.8718,-2.8176 -1.0294,-0.8544 -3.4236,-4.8311 -5.3204,-8.8372 -1.8968,-4.006 -3.9369,-7.2837 -4.5335,-7.2837 -1.7541,0 -4.2874,3.0428 -4.2874,5.1497 0,2.2792 9.5213,15.2153 14.1808,19.2667 2.3393,2.034 3.1354,3.9779 2.9227,7.1364 -0.1815,2.6956 0.6492,5.3815 2.1917,7.0859 1.3662,1.5097 2.107,3.1218 1.6463,3.5826 -0.4608,0.4607 0.3436,2.3395 1.7874,4.175 1.4438,1.8355 2.6252,4.7576 2.6252,6.4934 0,2.1929 0.7612,3.1561 2.4942,3.1561 1.8306,0 2.702,1.2805 3.2752,4.8125 0.4295,2.6469 1.8592,5.6303 3.1771,6.6297 1.9247,1.4597 1.9998,1.8256 0.3818,1.8596 -1.1078,0.023 -2.7643,-1.1585 -3.681,-2.6264 -1.7506,-2.8032 -4.3129,-3.602 -4.3129,-1.3445 0,1.8846 5.5414,8.0163 7.2464,8.0183 2.3428,0 8.7667,6.1515 8.7667,8.3913 0,1.1427 2.6761,7.3216 5.947,13.731 3.2709,6.4094 6.5608,13.4141 7.3109,15.5659 0.7501,2.1518 2.5054,4.2108 3.9007,4.5757 1.7508,0.4579 2.7461,2.2234 3.2122,5.6983 0.3714,2.7692 1.7276,7.2524 3.0137,9.9627 2.3331,4.9168 2.3305,4.9359 -1.1821,8.6023 -1.9363,2.021 -3.5205,4.3568 -3.5205,5.1908 0,3.0127 2.9272,3.2332 4.9316,0.3715 l 2.0495,-2.926 1.7933,3.1149 c 0.9864,1.7132 3.4689,6.3711 5.5169,10.3508 4.4704,8.6873 7.8431,10.7666 6.3767,3.9313 l -0.9643,-4.495 2.8252,3.5465 c 1.5539,1.9506 2.8252,3.9616 2.8252,4.4689 0,2.6054 4.5527,9.9993 6.157,9.9993 2.5861,0 2.3203,4.8716 -0.3212,5.8852 -2.7197,1.0436 -5.8358,-1.4315 -5.8358,-4.6354 0,-2.5724 -2.3076,-4.7247 -3.6386,-3.3936 -1.5407,1.5406 2.4988,11.6595 6.3394,15.8802 2.1412,2.3531 3.9107,3.5278 3.9322,2.6103 0.021,-0.9174 -0.5614,-1.668 -1.2953,-1.668 -1.7797,0 -1.711,-3.613 0.09,-4.726 0.7843,-0.4847 1.7537,0.3794 2.1573,1.9229 0.8041,3.0749 3.2046,3.5502 7.1816,1.4217 1.4851,-0.7948 2.5811,-0.8554 2.5811,-0.1427 0,0.6812 -0.8541,1.5663 -1.8981,1.967 -1.044,0.4006 -2.0968,2.1162 -2.3396,3.8124 -0.3218,2.2486 -1.2189,3.0041 -3.3115,2.7889 -3.0403,-0.3127 -4.8511,2.3954 -3.6662,5.4831 0.7297,1.9016 6.1829,3.4546 12.3831,3.5264 3.0234,0.035 3.1832,0.2267 1.1676,1.4007 -2.5152,1.465 -3.187,7.2158 -1.0008,8.5669 0.7339,0.4536 1.3344,2.5609 1.3344,4.6829 0,4.2179 2.9537,6.6843 6.8004,5.6784 2.0991,-0.5489 2.3157,0 1.6417,4.1519 -0.5196,3.2022 -0.089,5.8327 1.3011,7.9548 1.8768,2.8644 1.8776,3.3705 0.01,5.2399 -1.8695,1.8695 -1.8603,2.3677 0.095,5.1588 1.1901,1.6992 2.1639,4.1997 2.1639,5.5566 0,1.357 0.9008,3.368 2.0017,4.4689 2.9343,2.9343 2.4496,4.1954 -1.3345,3.4721 -2.4891,-0.4759 -3.336,-0.068 -3.336,1.6072 0,3.6464 2.5657,7.3629 4.5558,6.5993 2.2093,-0.8478 4.0785,1.5967 2.1381,2.796 -0.746,0.461 -1.3562,2.5688 -1.3562,4.684 0,2.1151 -0.6529,4.2492 -1.4507,4.7423 -0.9472,0.5854 -0.9969,1.3504 -0.1433,2.204 1.8692,1.8692 7.3366,-1.2976 6.4098,-3.7126 -0.4008,-1.0446 -0.2123,-1.8993 0.4191,-1.8993 0.6313,0 1.501,1.4072 1.9327,3.127 0.9912,3.9491 7.1726,10.2172 10.0759,10.2172 1.3113,0 2.2009,1.0788 2.2009,2.6689 0,3.2541 -1.7395,3.4059 -5.0192,0.4378 -2.3258,-2.1048 -2.445,-2.0718 -2.1067,0.5833 0.1972,1.5479 -0.242,2.9113 -0.9759,3.0298 -4.3454,0.7019 -5.9046,2.8061 -5.1754,6.9844 2.3057,13.2115 6.8704,18.5235 5.4241,6.3122 -0.8536,-7.2076 -0.5646,-7.5147 4.7234,-5.0192 4.1175,1.9432 7.7029,7.4757 7.7099,11.8972 0,1.7216 1.3508,5.2319 2.9956,7.8007 1.872,2.9235 3.0392,6.9165 3.1207,10.6754 0.1622,7.49 3.6473,19.4687 6.9727,23.9666 1.9519,2.6399 2.216,4.0747 1.1782,6.4005 -1.0239,2.2945 -0.8201,3.5698 0.8688,5.436 2.8421,3.1404 2.7792,3.7686 -0.4623,4.6163 -3.3256,0.8696 -3.6464,6.9402 -0.4611,8.7228 2.2207,1.2428 1.9594,2.8303 -1.1916,7.2372 -2.5112,3.5122 0.289,6.8796 6.3807,7.673 5.0873,0.6626 5.1402,0.7318 7.6487,10.0082 3.9431,14.5809 4.2763,17.116 2.1567,16.4094 -3.2724,-1.0907 -5.3939,2.5107 -4.4482,7.5513 0.7856,4.1878 1.1546,4.5212 3.5717,3.2276 3.6153,-1.9348 5.7199,1.0283 5.0948,7.1731 -0.1306,1.2844 0.3819,2.3353 1.1389,2.3353 0.757,0 1.0541,0.84 0.6601,1.8666 -0.3939,1.0267 -0.075,2.2631 0.7091,2.7476 2.3892,1.4766 1.5928,3.3923 -1.4102,3.3923 -2.4308,0 -2.7228,-0.5642 -2.0454,-3.9515 0.4347,-2.1734 0.2095,-4.3105 -0.5004,-4.7493 -0.7099,-0.4387 -1.2907,-1.9632 -1.2907,-3.3878 0,-1.505 -0.9117,-2.5901 -2.1762,-2.5901 -1.7722,0 -2.0227,0.9291 -1.3492,5.0041 0.455,2.7523 0.8338,6.5422 0.8419,8.4222 0.016,3.7058 4.7649,9.7795 6.7077,8.5788 2.0963,-1.2956 5.1288,5.1067 6.0109,12.69 0.4696,4.0366 1.7913,11.4078 2.9373,16.3805 2.2624,9.8174 1.7025,12.685 -1.3422,6.8739 l -1.9229,-3.67 -0.5952,4.0552 c -0.591,4.0266 2.5086,9.721 5.2913,9.721 2.6495,0 5.3652,18.5201 2.9359,20.0215 -1.1358,0.7019 -1.1857,2.2926 -0.1855,5.9147 0.7524,2.7251 1.0338,5.8255 0.6254,6.8898 -0.4084,1.0643 0.7659,4.2146 2.6096,7.0007 2.2728,3.4343 3.1339,6.2073 2.6743,8.6114 -0.4033,2.1102 0.379,5.5841 1.9321,8.5793 1.6002,3.0861 2.9607,9.2901 3.5167,16.0363 0.4988,6.0516 1.4936,12.5462 2.2108,14.4324 0.8774,2.3077 0.836,4.3037 -0.1263,6.1019 -1.0598,1.9803 -0.9078,4.4633 0.5871,9.5872 1.1095,3.8032 2.3327,10.131 2.7183,14.0619 0.3855,3.9308 1.3893,7.9764 2.2305,8.99 0.8475,1.0211 1.1506,3.353 0.6799,5.2287 -1.1359,4.5257 1.4374,24.6066 3.9124,30.5299 1.4449,3.4581 2.019,10.5798 2.133,26.459 0.086,11.95 0.5361,25.5833 1.0008,30.2962 0.8576,8.6982 3.1977,12.0152 4.6253,6.5562 1.1943,-4.5671 2.1728,-2.4011 3.3563,7.4299 1.2038,9.9987 -0.073,12.3199 -4.0304,7.3278 l -2.5324,-3.1944 0.6133,6.6452 c 0.4246,4.6002 1.4656,7.3352 3.3827,8.8876 2.8357,2.2963 3.7101,5.1508 1.5777,5.1508 -2.7777,0 -2.7478,4.5664 0.049,7.5439 2.7395,2.9161 2.8294,3.5891 1.3412,10.0367 -1.0876,4.7117 -1.1608,7.3454 -0.2299,8.2763 0.751,0.751 1.3654,5.27 1.3654,10.0424 0,7.8833 -0.3758,9.0647 -4.1094,12.9167 l -4.1094,4.2399 4.4338,4.831 c 2.4385,2.6571 4.829,4.8311 5.3122,4.8311 0.4831,0 1.3099,-6.9056 1.8372,-15.3459 z m -7.157,-90.0737 c 0,-1.8348 0.3029,-2.5854 0.6731,-1.668 0.3702,0.9174 0.3702,2.4186 0,3.3361 -0.3702,0.9174 -0.6731,0.1668 -0.6731,-1.6681 z m -14.3946,-174.8096 c -0.7518,-3.6697 -0.9614,-6.6722 -0.466,-6.6722 1.3295,0 5.3584,10.8502 4.528,12.194 -1.5457,2.5009 -2.7555,0.8564 -4.062,-5.5218 z m -5.0234,3.2245 c -0.4987,-1.2996 -0.2005,-1.9097 0.7747,-1.5846 1.9947,0.6649 3.093,3.6978 1.3391,3.6978 -0.7166,0 -1.6678,-0.951 -2.1138,-2.1132 z m -15.9737,-86.6351 c -0.5148,-1.3414 -0.3258,-3.0491 0.42,-3.7949 2.0396,-2.0395 2.9403,-0.3202 1.654,3.1571 -1.032,2.7898 -1.2254,2.8493 -2.074,0.6378 z m -68.1262,-215.3215 c -0.5749,-0.9301 -0.6848,-2.0515 -0.2443,-2.492 1.1942,-1.1942 2.4964,0.5622 1.8513,2.4973 -0.452,1.356 -0.7663,1.355 -1.607,-0.01 z m -48.0226,-109.9356 c -2.8603,-4.4366 -5.3186,-10.2659 -4.6228,-10.9617 1.2864,-1.2864 6.6171,1.0511 6.0093,2.635 -0.3513,0.9154 -0.1482,3.8389 0.4512,6.4968 1.2627,5.5985 0.8542,6.0052 -1.8377,1.8299 z m -18.9441,-39.3872 c -0.8081,-0.5385 -1.7704,-2.6028 -2.1385,-4.5873 l -0.6692,-3.6082 3.7269,2.941 c 3.6421,2.8739 4.3118,5.0449 1.801,5.8383 -0.6881,0.2174 -1.9122,-0.045 -2.7202,-0.5838 z m -16.7958,-46.594 c 0.9633,-0.3854 2.1142,-0.338 2.5576,0.1054 0.4435,0.4434 -0.3447,0.7588 -1.7514,0.7009 -1.5545,-0.064 -1.8707,-0.3803 -0.8062,-0.8063 z m 273.8074,770.8329 c 0,-1.4909 -0.9008,-3.0563 -2.0017,-3.4788 -1.1009,-0.4224 -2.0016,-1.8445 -2.0016,-3.1602 0,-1.3156 -2.402,-5.5888 -5.3377,-9.4959 -2.9357,-3.9071 -5.3377,-7.8517 -5.3377,-8.7659 0,-0.9291 -0.8827,-1.3233 -2.0017,-0.8939 -2.7495,1.0551 -2.5385,7.9389 0.3337,10.8822 3.8382,3.9335 12.3434,15.3081 12.3434,16.5078 0,0.6135 0.9007,1.1155 2.0016,1.1155 1.1224,0 2.0017,-1.1908 2.0017,-2.7108 z m 51.4545,-5.4238 c 0.4971,-0.8044 -0.068,-2.4343 -1.2557,-3.622 -1.9898,-1.9898 -2.1595,-1.8748 -2.1595,1.4624 0,3.6853 1.7775,4.8093 3.4152,2.1596 z m -12.0834,-4.7034 c -2.4039,-1.7578 -4.6761,-1.3646 -4.6761,0.8091 0,1.3729 4.1535,2.4918 5.8735,1.5822 0.6616,-0.3498 0.1228,-1.4259 -1.1974,-2.3913 z m -140.4022,-5.8388 c 1.1717,-4.4804 -0.5848,-13.1164 -3.1376,-15.4267 -2.2813,-2.0645 -2.4657,-1.9191 -3.3162,2.6145 -1.095,5.8366 0.2202,13.706 2.4411,14.6062 2.8265,1.1457 3.2993,0.9343 4.0127,-1.794 z m 141.8431,-7.0109 c -0.4277,-0.9174 -1.1482,-2.7189 -1.6013,-4.0033 -0.6658,-1.8877 -2.4249,-2.3352 -9.1784,-2.3352 -5.7985,0 -8.863,-0.6125 -10.016,-2.0017 -0.9136,-1.1009 -2.7076,-2.0016 -3.9867,-2.0016 -1.279,0 -3.9134,-1.2491 -5.8543,-2.7758 -1.9409,-1.5267 -4.2737,-2.5098 -5.1841,-2.1847 -0.9103,0.3251 -3.3242,-0.2518 -5.364,-1.282 -2.0399,-1.0302 -4.2917,-1.5129 -5.0041,-1.0726 -2.4197,1.4954 -1.308,5.777 2.2208,8.5527 3.9283,3.09 13.1909,3.8019 14.2821,1.0976 0.3702,-0.9174 0.7205,-0.3904 0.7784,1.1711 0.1516,4.0845 3.0921,5.9791 11.0895,7.1453 11.7238,1.7096 18.7029,1.5883 17.8181,-0.3098 z m -59.494,-7.6729 c 0,-0.734 -0.2648,-1.3345 -0.5884,-1.3345 -0.3237,0 -0.9596,0.6005 -1.4132,1.3345 -0.4536,0.7339 -0.1888,1.3344 0.5884,1.3344 0.7773,0 1.4132,-0.6005 1.4132,-1.3344 z m -2.6688,-3.3361 c 0,-1.1009 -0.9743,-2.0016 -2.1651,-2.0016 -1.7731,0 -1.8643,0.3622 -0.5038,2.0016 0.9137,1.1009 1.8879,2.0016 2.165,2.0016 0.2771,0 0.5039,-0.9007 0.5039,-2.0016 z m -84.1595,-32.4543 c -1.6209,-3.2788 -1.8577,-2.3583 -2.8562,11.1035 -0.7995,10.7781 -0.6557,15.5652 0.541,18.0147 1.4404,2.9484 1.7723,1.658 2.8562,-11.1034 0.9582,-11.2822 0.8399,-15.2213 -0.541,-18.0148 z m 34.311,25.7831 c -0.2182,-3.7809 -1.514,-4.3654 -2.7186,-1.2262 -1.2621,3.289 -0.9691,4.5613 1.0505,4.5613 1.1461,0 1.7866,-1.2806 1.6681,-3.3351 z m 83.2091,-15.2639 c 0,-1.7633 -0.849,-2.522 -2.6689,-2.3849 -1.5983,0.1204 -2.6688,1.1577 -2.6688,2.5859 0,1.4953 0.9955,2.3849 2.6688,2.3849 1.7507,0 2.6689,-0.8896 2.6689,-2.5859 z m -8.6833,-15.6099 c 1.4509,-1.4509 1.7366,-2.6289 0.8522,-3.5133 -1.9998,-1.9998 -5.5132,-0.097 -5.5132,2.9853 0,3.2762 1.7181,3.4709 4.661,0.528 z m -109.6507,-23.8386 c -0.8598,-4.1639 -1.5328,-14.5059 -1.5931,-24.4809 -0.019,-3.1895 -0.6758,-8.8941 -1.459,-12.6771 -0.7832,-3.7829 -1.6226,-10.8399 -1.8654,-15.6822 -0.2428,-4.8424 -0.909,-9.5607 -1.4804,-10.4852 -0.5714,-0.9246 -1.5815,-8.9725 -2.2446,-17.8843 -2.0629,-27.72 -2.759,-33.4363 -5.1424,-42.2246 -0.8958,-3.3027 -2.1595,-11.1091 -2.8084,-17.3475 -2.4041,-23.1148 -4.8343,-36.7168 -7.2715,-40.7 -1.9328,-3.1589 -8.5946,-28.8324 -8.5837,-33.0804 0.012,-4.5603 -5.6325,-29.4236 -7.1209,-31.3687 -2.8175,-3.6818 -3.0502,1.4985 -0.6319,14.0654 1.3655,7.0956 2.1519,13.7629 1.7476,14.8165 -0.4043,1.0535 0.2273,3.3842 1.4035,5.1793 1.1762,1.7951 1.8714,3.5309 1.5449,3.8575 -0.3265,0.3265 -0.045,3.4269 0.6265,6.8899 2.8366,14.6373 6.7543,37.6901 7.9868,46.9963 0.729,5.5045 2.2434,11.9549 3.3653,14.3342 1.122,2.3794 1.6554,5.3281 1.1854,6.5528 -0.4699,1.2246 0.3109,8.2853 1.7352,15.6903 1.4244,7.405 3.2816,21.5702 4.1273,31.4783 0.8456,9.9081 2.1146,21.6177 2.8199,26.0213 1.1605,7.2455 2.852,22.0292 4.5805,40.0328 0.3523,3.6696 0.6461,10.5753 0.6528,15.3459 0.016,11.1232 2.3484,22.6501 4.7719,23.5801 1.0392,0.3988 1.971,1.7117 2.0706,2.9175 0.1,1.2059 0.6826,-2.3112 1.2955,-7.8157 0.6128,-5.5045 0.7422,-11.8097 0.2876,-14.0115 z m 38.9675,-101.5751 c -1.1883,-1.1883 -2.4923,-1.8287 -2.8978,-1.4232 -1.1879,1.1879 0.8444,3.5837 3.0401,3.5837 1.7427,0 1.7233,-0.2949 -0.1423,-2.1605 z m 56.6813,-3.3347 c 0,-0.734 -0.6005,-0.9633 -1.3345,-0.5097 -0.7339,0.4536 -1.3344,1.4252 -1.3344,2.1591 0,0.7339 0.6005,0.9633 1.3344,0.5097 0.734,-0.4536 1.3345,-1.4252 1.3345,-2.1591 z m -58.627,-31.9157 c 3.3459,-1.7906 3.3065,-4.8806 -0.076,-5.9541 -3.607,-1.1449 -5.3496,0.1836 -5.3496,4.0782 0,3.5351 1.4125,4.0235 5.4254,1.8759 z m -2.1985,-15.4417 c 2.9077,-1.1158 2.726,-5.8617 -0.2245,-5.8637 -2.1541,0 -2.331,-2.2532 -2.2812,-29.0238 0.03,-15.9621 0.4259,-29.9228 0.8804,-31.0237 0.4545,-1.1009 1.4135,-5.2492 2.1309,-9.2184 1.2393,-6.8554 1.1284,-7.3898 -2.2148,-10.6754 l -3.5194,-3.4587 0.08,-59.3819 c 0.1149,-84.8485 2.0122,-131.9874 7.2123,-179.1918 1.4727,-13.3694 3.3143,-27.9109 4.0922,-32.3146 0.778,-4.4036 1.951,-11.009 2.6067,-14.6786 2.3223,-12.9971 5.2096,-30.9811 8.6765,-54.0442 1.9307,-12.8439 4.0454,-25.4542 4.6992,-28.023 0.6538,-2.5687 3.3502,-16.0798 5.9921,-30.0245 2.6419,-13.9448 5.6745,-28.0132 6.7392,-31.2631 1.0647,-3.25 1.9358,-8.066 1.9358,-10.7022 0,-2.6363 1.1237,-8.9846 2.4972,-14.1074 1.3734,-5.1228 3.26,-13.2173 4.1924,-17.9879 0.9324,-4.7706 2.2107,-9.2442 2.8405,-9.9415 0.6299,-0.6972 1.1453,-2.8499 1.1453,-4.7837 0,-1.9338 1.1321,-7.068 2.5157,-11.4093 3.253,-10.2069 6.4815,-24.6422 7.5851,-33.9146 0.4804,-4.0367 1.3753,-7.9635 1.9886,-8.7263 0.6133,-0.7629 1.6834,-3.7653 2.378,-6.6722 1.1293,-4.7259 2.103,-7.8036 7.1604,-22.6326 0.751,-2.2018 1.8595,-6.7055 2.4635,-10.0082 1.8212,-9.9592 2.7426,-13.8793 3.9208,-16.6803 0.6173,-1.4679 1.8195,-6.5043 2.6714,-11.192 0.852,-4.6877 5.706,-20.9815 10.7868,-36.2085 5.0808,-15.227 9.2379,-28.606 9.2379,-29.731 0,-1.1251 1.2232,-4.8992 2.7182,-8.3869 1.495,-3.4877 3.9692,-11.1674 5.4982,-17.066 1.529,-5.8986 3.2591,-11.6518 3.8448,-12.7849 3.3403,-6.4621 6.3452,-14.7517 7.08,-19.5314 0.4618,-3.0039 2.0874,-8.4083 3.6124,-12.0099 4.4297,-10.461 4.8419,-11.5976 6.2468,-17.2237 4.0291,-16.1359 4.9783,-19.308 7.7871,-26.0213 1.6889,-4.0366 3.9567,-10.9423 5.0396,-15.3459 3.5035,-14.2477 4.984,-19.813 8.3416,-31.359 1.8142,-6.2384 3.8429,-14.0448 4.5082,-17.3475 0.6653,-3.3027 2.1515,-9.6079 3.3025,-14.0115 2.2596,-8.6441 2.7505,-11.4144 7.9219,-44.7032 5.3594,-34.4995 5.9461,-38.5553 7.5294,-52.0426 0.8184,-6.9723 1.682,-13.9333 1.9191,-15.4687 1.6969,-10.989 3.6627,-29.1957 4.7415,-43.9132 1.6773,-22.88408 4.23,-122.20564 3.2068,-124.76872 -0.4395,-1.1009 -1.3391,-11.6095 -1.9991,-23.35244 -0.6599,-11.74294 -1.8095,-25.55424 -2.5546,-30.69178 -0.745,-5.13753 -1.9079,-14.1449 -2.5842,-20.01637 -1.8192,-15.79413 -5.2655,-36.67613 -6.3399,-38.4145 -0.5169,-0.83637 -1.3995,-3.94458 -1.9614,-6.90716 -3.0335,-15.99351 -3.9599,-19.8397 -7.7257,-32.07499 -2.259,-7.33934 -6.1426,-17.54769 -8.6303,-22.68522 -2.4877,-5.13754 -6.4527,-13.54442 -8.811,-18.68195 -2.3583,-5.13754 -5.1678,-10.33917 -6.2433,-11.55918 -1.0754,-1.22001 -2.0782,-3.055 -2.2283,-4.07776 -0.1501,-1.02276 -1.6059,-3.29038 -3.2352,-5.03915 -1.6292,-1.74878 -2.9622,-3.65507 -2.9622,-4.2362 0,-0.58113 -4.2034,-5.66782 -9.341,-11.30374 -5.1375,-5.63592 -9.341,-10.75189 -9.341,-11.36881 0,-0.61692 -0.8364,-1.12167 -1.8588,-1.12167 -1.0224,0 -2.1923,-0.86894 -2.5999,-1.93097 -1.1425,-2.97726 -27.7485,-18.0573 -31.8852,-18.07223 -4.2491,-0.0153 -15.3457,-2.48195 -18.6305,-4.1413 -5.708,-2.88347 -44.0768,-0.77311 -46.3682,2.55033 -0.4075,0.591 -1.9419,1.13623 -3.4097,1.21161 -5.4508,0.27993 -8.6738,0.95956 -8.6738,1.82901 0,0.49219 -1.3511,1.20798 -3.0025,1.59063 -9.7068,2.24931 -49.7788,22.0319 -60.6381,29.9356 -33.2338,24.18863 -58.9588,48.51401 -82.2427,77.76821 -0.8763,1.1009 -6.1803,8.90729 -11.7868,17.34753 -12.1165,18.24053 -38.0878,68.74488 -41.859,81.39992 -0.5468,1.83484 -1.814,4.52054 -2.8161,5.96823 -1.002,1.44768 -1.8218,4.17992 -1.8218,6.07163 0,1.89171 -0.7013,4.14077 -1.5585,4.99791 -1.6201,1.62013 -3.928,7.38955 -7.0632,17.65728 -5.6132,18.38321 -9.1507,30.98583 -10.8625,38.69833 -1.0589,4.77056 -3.415,13.30556 -5.2359,18.96665 -5.145,15.99571 -18.2219,80.05782 -20.0991,98.46277 -1.4723,14.4359 -2.1754,42.8301 -1.6685,67.3884 0.094,4.5638 -1.8291,37.8958 -2.3292,40.3664 -0.3342,1.6513 -1.353,3.0024 -2.264,3.0024 -0.9109,0 -3.3648,1.5843 -5.453,3.5207 -3.0542,2.8319 -4.0264,3.1582 -4.9701,1.668 -0.6452,-1.0189 -1.1824,-2.8034 -1.1936,-3.9654 -0.027,-2.8342 -1.2226,-3.8591 -3.487,-2.9902 -1.3106,0.503 -1.8711,3.0598 -1.8711,8.5349 0,9.028 -1.9208,10.9663 -9.6278,9.7156 -3.6698,-0.5955 -5.0158,-1.6519 -6.3081,-4.9506 -1.5879,-4.0533 -1.8767,-4.1788 -8.6285,-3.7503 l -6.9856,0.4433 -2.2397,-6.9351 c -1.2319,-3.8143 -2.2398,-8.1065 -2.2398,-9.5384 0,-4.8782 -2.4933,-7.2725 -10.2574,-9.8497 -4.2665,-1.4162 -8.1191,-3.0701 -8.5613,-3.6753 -1.2946,-1.7718 -4.9657,-20.3625 -7.295,-36.9422 -1.9482,-13.8664 -7.7256,-49.8623 -9.1224,-56.8364 -0.9482,-4.7348 -4.6222,-38.94969 -6.2198,-57.9241 -0.8342,-9.90811 -1.7091,-18.33194 -1.9443,-18.71963 -0.2352,-0.38769 -1.0954,-5.79211 -1.9116,-12.00983 -3.0739,-23.41651 -4.2049,-28.05713 -21.5362,-88.36797 -8.1797,-28.46417 -14.8455,-43.57944 -30.9836,-70.25782 -4.1734,-6.89917 -7.588,-12.84745 -7.588,-13.2184 0,-1.1081 -12.5932,-19.57086 -13.6779,-20.05292 -0.5504,-0.24464 -1.0008,-1.08049 -1.0008,-1.85743 0,-2.22235 -10.1246,-17.84817 -20.5564,-31.7256 -5.2412,-6.97237 -10.4127,-14.41246 -11.4923,-16.53353 -2.0196,-3.96802 -23.3894,-25.67594 -29.3348,-29.79906 -1.8349,-1.27244 -7.8398,-5.9417 -13.3443,-10.37614 -10.6241,-8.55879 -35.3434,-24.47971 -42.0344,-27.07303 -2.2018,-0.85339 -5.7164,-1.83901 -7.8103,-2.19028 -2.0939,-0.35127 -5.2949,-1.61355 -7.1134,-2.80508 -1.8185,-1.19152 -7.9117,-2.67388 -13.5405,-3.29412 -5.6288,-0.62025 -12.3319,-1.77564 -14.8958,-2.56754 -10.0845,-3.11471 -34.0501,-0.70672 -46.4253,4.66468 -2.4102,1.04613 -5.743,1.90206 -7.4061,1.90206 -1.6632,0 -3.5944,0.54217 -4.2916,1.20483 -0.6973,0.66265 -5.4712,3.39673 -10.6087,6.07573 -16.2828,8.49077 -33.9413,21.9871 -38.0311,29.06709 -1.1009,1.9058 -4.1473,5.77565 -6.7698,8.59967 -2.6225,2.82401 -5.9108,6.92683 -7.3073,9.11737 -1.3965,2.19053 -3.2907,4.45543 -4.2092,5.0331 -0.9185,0.57766 -3.572,3.88037 -5.8968,7.33933 -2.3247,3.45897 -5.8755,8.09051 -7.8907,10.29231 -3.1457,3.43699 -18.6344,30.42702 -18.6344,32.47155 0,0.39359 -2.0782,4.73142 -4.6182,9.63962 -2.5399,4.9082 -4.245,9.29711 -3.789,9.75313 0.456,0.45602 -0.1667,1.92945 -1.3837,3.2743 -1.2171,1.34484 -2.7684,5.10159 -3.4473,8.34833 -0.6789,3.24675 -2.7661,13.15867 -4.6381,22.02651 -1.8721,8.86783 -3.9692,22.07864 -4.6602,29.35735 -1.2936,13.62542 -0.9939,63.49661 0.395,65.74399 0.4288,0.6938 1.4244,5.89697 2.2124,11.56261 0.788,5.66564 3.1206,15.18475 5.1835,21.15358 2.0628,5.96884 4.1349,12.93974 4.6046,15.4909 1.1938,6.4843 5.0861,14.99102 17.1107,37.39591 2.1665,4.03664 4.7354,8.24008 5.7087,9.34098 0.9733,1.1009 3.7921,5.90483 6.2641,10.6754 2.472,4.77057 7.6633,13.47769 11.5363,19.34916 3.8729,5.87147 7.3843,12.33949 7.8031,14.37349 0.4188,2.0339 3.5361,6.6239 6.9275,10.2001 3.3913,3.5761 10.6697,12.3605 16.1742,19.521 11.2618,14.6498 52.5862,56.7069 71.7393,73.0115 2.3776,2.024 4.3229,4.1463 4.3229,4.7164 0,0.57 1.7796,2.0876 3.9547,3.3725 2.1751,1.2849 4.741,3.1223 5.7019,4.0833 0.961,0.9609 6.2371,5.4828 11.7248,10.0486 5.4877,4.5658 12.6798,10.8702 15.9825,14.0098 3.3027,3.1396 10.5086,9.5028 16.0131,14.1404 5.5045,4.6376 24.2115,22.5965 41.5711,39.9085 17.3595,17.3121 37.3985,36.5807 44.5309,42.8191 7.1324,6.2384 15.1473,13.2839 17.8109,15.6566 2.6635,2.3727 7.9812,6.8764 11.8171,10.0082 3.8359,3.1318 14.0443,11.7067 22.6853,19.0554 8.6409,7.3487 19.3138,16.1328 23.7174,19.5202 4.4036,3.3874 9.1511,7.4338 10.5501,8.992 1.3989,1.5582 6.2029,4.9098 10.6754,7.4481 4.4725,2.5382 12.0052,8.2421 16.7393,12.6754 4.7341,4.4332 9.0472,8.0604 9.5846,8.0604 0.5375,0 1.3584,1.201 1.8243,2.6688 0.4659,1.4679 1.7074,2.6689 2.7588,2.6689 1.0514,0 1.9158,0.4504 1.9208,1.0008 0.01,0.5505 2.1408,2.4527 4.7461,4.2271 2.6054,1.7745 5.5731,5.2273 6.5949,7.6729 1.1805,2.8252 2.7817,4.4467 4.3911,4.4467 1.3932,0 4.9585,2.5521 7.9229,5.6713 12.145,12.7794 14.6677,15.6479 17.7807,20.2184 1.7922,2.6311 3.68,4.788 4.1952,4.793 0.5152,0.01 2.8759,2.8614 5.246,6.3476 2.3701,3.4862 5.0885,6.8116 6.0408,7.3899 1.8771,1.1397 17.8624,21.7955 26.4748,34.2099 2.9357,4.2317 6.3313,8.6735 7.5458,9.8706 3.4047,3.3561 23.5999,34.3605 34.4886,52.9484 5.3743,9.1741 12.677,21.2188 16.2283,26.7658 3.5513,5.5471 6.4569,10.6742 6.4569,11.3938 0,0.7195 3.5036,7.0545 7.7857,14.0778 4.2821,7.0233 8.7663,15.2206 9.9649,18.2161 1.1986,2.9955 4.9009,9.6924 8.2274,14.8821 3.3265,5.1897 6.0482,10.0736 6.0482,10.8531 0,0.7795 3.2577,8.1294 7.2394,16.3331 7.299,15.0386 18.1147,39.0654 18.1147,40.2414 0,0.7019 13.9366,31.3631 20.1033,44.2282 2.154,4.4937 3.9163,8.8707 3.9163,9.7268 0,2.0777 11.5673,32.9224 14.0022,37.3375 1.0556,1.914 3.1152,7.5136 4.577,12.4435 1.4617,4.9299 3.5345,10.659 4.6061,12.7313 1.0716,2.0724 3.8566,9.1479 6.1889,15.7235 2.3322,6.5755 6.9395,19.4617 10.2384,28.6358 8.6605,24.085 27.1062,84.8681 27.1318,89.4065 0.01,1.1009 1.2351,5.9048 2.7307,10.6754 3.6914,11.7741 14.5326,52.5839 15.1648,57.0854 0.2805,1.997 2.0818,10.2363 4.0029,18.3096 1.9212,8.0733 4.4044,20.3834 5.5183,27.3557 2.7143,16.9893 4.5421,26.0276 6.8814,34.0279 2.0007,6.8426 3.2266,14.779 3.1947,20.6836 -0.036,6.5925 3.9436,24.6276 6.1688,27.9589 1.2491,1.87 2.113,4.1507 1.9199,5.0681 -0.3974,1.8875 0.01,2.0036 2.9928,0.858 z m -70.1786,-26.5457 c -0.7061,-4.4036 -1.4936,-9.2075 -1.7499,-10.6754 -0.2564,-1.4679 -0.5162,-3.1547 -0.5774,-3.7484 -0.061,-0.5938 -0.6311,-0.7582 -1.2666,-0.3655 -1.2366,0.7642 -1.151,1.8403 1.2637,15.8875 0.8608,5.0076 2.0261,8.6106 2.5896,8.0066 0.5634,-0.6041 0.4467,-4.7012 -0.2594,-9.1048 z m -4.3519,-28.0221 c -0.4543,-2.4217 -1.7594,-5.1778 -2.9003,-6.1246 -1.8383,-1.5257 -1.9648,-1.1235 -1.1123,3.5356 0.529,2.8913 1.5728,6.7582 2.3196,8.5931 1.1694,2.8735 1.4382,2.9938 1.9383,0.8675 0.3194,-1.3576 0.209,-4.4499 -0.2453,-6.8716 z m 41.5233,-30.2756 c -0.4259,-1.0645 -0.7421,-0.7483 -0.8062,0.8062 -0.058,1.4067 0.2575,2.1949 0.7009,1.7514 0.4434,-0.4434 0.4908,-1.5943 0.1053,-2.5576 z m 33.7835,-7.7563 c 0,-1.4827 -0.8896,-2.6689 -2.0016,-2.6689 -2.4129,0 -2.5797,1.557 -0.4003,3.7364 2.1534,2.1535 2.4019,2.043 2.4019,-1.0675 z m -84.6913,-3.6697 c -0.5058,-2.7523 -1.5462,-5.6046 -2.312,-6.3385 -0.9633,-0.9232 -1.0996,0.3076 -0.4422,3.9931 0.9938,5.5722 1.704,7.3495 2.9368,7.3495 0.4053,0 0.3232,-2.2519 -0.1826,-5.0041 z m 27.311,3.5743 c 0,-1.5004 -3.2656,-5.2423 -4.5751,-5.2423 -1.3689,0 -0.8014,3.4306 0.8388,5.0708 1.9861,1.9861 3.7363,2.0665 3.7363,0.1715 z m 58.1655,-18.2462 c -1.4577,-1.4578 -2.4573,0.8605 -1.4107,3.2717 0.9924,2.2864 1.0643,2.2843 1.6172,-0.047 0.3183,-1.3418 0.2253,-2.793 -0.2065,-3.2248 z m -80.8507,-10.8524 c 0,-5.4991 -3.7994,-10.9062 -4.2147,-5.9981 -0.1163,1.3743 -0.1091,3.6996 0.016,5.1675 0.6465,7.591 4.1988,8.2937 4.1988,0.8306 z m 82.7344,-2.165 c 0,-1.1121 -1.1862,-2.0017 -2.6689,-2.0017 -1.4827,0 -2.6688,0.8896 -2.6688,2.0017 0,1.112 1.1861,2.0016 2.6688,2.0016 1.4827,0 2.6689,-0.8896 2.6689,-2.0016 z m -77.8473,-46.3713 c -0.3702,-0.9174 -0.6731,-0.1668 -0.6731,1.668 0,1.8349 0.3029,2.5855 0.6731,1.6681 0.3701,-0.9175 0.3701,-2.4187 0,-3.3361 z m -6.2215,-1.0008 c 0,-0.734 -0.6005,-1.3344 -1.3344,-1.3344 -0.734,0 -1.3345,0.6004 -1.3345,1.3344 0,0.7339 0.6005,1.3344 1.3345,1.3344 0.7339,0 1.3344,-0.6005 1.3344,-1.3344 z m 19.0157,-20.1694 c -0.7347,-2.8351 -1.4248,-3.7353 -1.9024,-2.4816 -0.8263,2.1689 1.1996,8.7862 2.3406,7.6452 0.393,-0.3931 0.1958,-2.7167 -0.4382,-5.1636 z m -32.7745,-31.5396 c -0.3357,-1.2844 -0.6103,-0.2335 -0.6103,2.3353 0,2.5687 0.2746,3.6196 0.6103,2.3352 0.3356,-1.2844 0.3356,-3.3861 0,-4.6705 z m -4.3645,-26.3124 c -0.4321,-1.7215 -0.1324,-4.3504 0.6659,-5.8421 1.7827,-3.331 -0.01,-4.8033 -4.477,-3.6816 -3.6964,0.9277 -5.5011,5.9423 -2.5467,7.076 1.1002,0.4222 2.5537,2.223 3.23,4.0019 1.5335,4.0334 4.1979,2.7094 3.1278,-1.5542 z m -24.5783,-49.4162 c 0,-1.1009 -0.6005,-2.0016 -1.3344,-2.0016 -0.734,0 -1.3345,0.9007 -1.3345,2.0016 0,1.1009 0.6005,2.0016 1.3345,2.0016 0.7339,0 1.3344,-0.9007 1.3344,-2.0016 z m -6.5371,-21.6341 c -1.2819,-2.2026 -1.3914,-2.1724 -1.4289,0.3945 -0.045,3.089 1.6483,5.4975 2.3613,3.3585 0.2507,-0.7521 -0.1689,-2.441 -0.9324,-3.753 z m -0.135,-5.1207 c 0,-0.4034 -0.9519,-2.5741 -2.1152,-4.8238 -1.4214,-2.7485 -2.5565,-3.6491 -3.4603,-2.7452 -0.9039,0.9038 -0.5974,2.4862 0.9342,4.8238 2.0462,3.1228 4.6413,4.6578 4.6413,2.7452 z m 2.6484,-15.1936 c 0.024,-2.294 -5.1737,-8.0925 -7.2546,-8.0925 -0.8097,0 -2.7852,0.9197 -4.3901,2.0438 -2.5059,1.7552 -2.7064,2.5081 -1.4196,5.3323 1.4969,3.2852 1.5003,3.2857 3.4384,0.5188 1.912,-2.7299 1.9779,-2.7074 4.5752,1.5636 2.068,3.4006 2.893,3.9262 3.8328,2.4415 0.6586,-1.0405 1.2066,-2.7539 1.2179,-3.8075 z m -42.6812,-36.0063 c 0,-1.4079 0.3235,-3.4026 0.7188,-4.4328 0.4412,-1.1497 -0.6562,-2.4996 -2.8413,-3.4952 -4.5487,-2.0725 -5.6664,-0.9647 -2.5269,2.5045 1.8792,2.0764 2.0849,3.0749 0.8815,4.2783 -2.3225,2.3225 -1.9124,3.7049 1.0991,3.7049 1.7413,0 2.6688,-0.8896 2.6688,-2.5597 z m -4.0033,-18.7911 c 0,-4.7366 -0.5019,-4.8828 -4.3748,-1.2747 -2.4919,2.3216 -2.6329,2.9156 -0.945,3.9828 3.6048,2.2792 5.3198,1.4061 5.3198,-2.7081 z m -15.241,-28.7474 c -0.4526,-1.8034 -1.412,-3.2788 -2.1319,-3.2788 -1.9264,0 -1.5965,7.6845 0.359,8.3624 2.1768,0.7546 2.794,-1.0153 1.7729,-5.0836 z m -8.1819,-49.3153 c -2.1725,-5.6886 -4.5956,-7.9719 -4.6037,-4.3381 -0.01,2.4809 5.9343,13.2335 6.4522,11.6801 0.2449,-0.7348 -0.5869,-4.0387 -1.8485,-7.342 z m -8.8135,-18.0454 c -1.3674,-3.9226 -2.5337,-4.7883 -4.2027,-3.1193 -1.1238,1.1238 3.2679,8.5269 4.5781,7.7172 0.5554,-0.3433 0.3865,-2.4123 -0.3754,-4.5979 z m -6.5043,-9.6451 c -0.023,-0.9174 -0.9264,-2.8367 -2.0067,-4.2652 -1.4244,-1.8834 -2.3662,-2.1951 -3.427,-1.1342 -1.0609,1.0609 -0.6928,2.2329 1.3394,4.2651 3.2225,3.2226 4.154,3.4806 4.0943,1.1343 z m -7.9865,-16.6803 c -0.052,-2.3131 -7.4542,-15.5082 -8.985,-16.0159 -2.9989,-0.9946 -1.7681,4.3982 2.461,10.783 3.7192,5.615 6.5839,7.9127 6.524,5.2329 z m -32.0039,-8.9227 c 0,-0.9678 -0.8472,-2.4627 -1.8828,-3.3221 -2.6396,-2.1907 -3.97,0.4471 -1.8985,3.764 1.7334,2.7757 3.7813,2.5363 3.7813,-0.4419 z m 14.6787,-51.308 c 0,-1.4842 -10.4356,-17.1939 -12.1083,-18.2276 -2.706,-1.6724 -0.9589,2.7566 4.2876,10.8691 5.0492,7.8075 7.8207,10.4152 7.8207,7.3585 z m -33.381,-54.5299 c -0.011,-0.5504 -0.5791,-1.8841 -1.2619,-2.9638 -1.5374,-2.431 -3.3411,-0.9106 -2.2605,1.9055 0.7981,2.0798 3.5602,2.9097 3.5224,1.0583 z m 4.8755,-351.9545 c 0.4225,-1.1009 1.6046,-2.0017 2.627,-2.0017 1.0224,0 1.8589,-0.6005 1.8589,-1.3344 0,-2.3861 -5.2052,-1.4066 -6.6252,1.2467 -1.7368,3.2451 -1.7378,4.091 -0.01,4.091 0.757,0 1.722,-0.9007 2.1444,-2.0016 z m -478.576,-473.87842 c 0,-1.1009 -0.6005,-1.63051 -1.3345,-1.17691 -0.7339,0.45359 -1.3344,1.72545 -1.3344,2.82635 0,1.10091 0.6005,1.63052 1.3344,1.17692 0.734,-0.45359 1.3345,-1.72545 1.3345,-2.82636 z m 13.3442,-16.01898 c 0,-2.15275 -3.4521,-2.47518 -4.71,-0.43992 -0.4753,0.76908 -0.5036,2.33794 -0.063,3.48635 0.6475,1.68759 1.1821,1.77196 2.7871,0.43992 1.0922,-0.90646 1.9858,-2.47532 1.9858,-3.48635 z m 489.734,979.6313 c -0.9575,-1.1537 -1.0872,-2.0016 -0.3061,-2.0016 0.7453,0 1.7007,0.9007 2.1231,2.0016 0.4225,1.1009 0.5603,2.0017 0.3062,2.0017 -0.2541,0 -1.2095,-0.9008 -2.1232,-2.0017 z M 7782.6777,667.98319 c -4.394,-5.53538 -10.0909,-12.37338 -12.6597,-15.19557 -2.5687,-2.82219 -5.3252,-5.94951 -6.1255,-6.9496 -0.8003,-1.00009 -9.4157,-9.47462 -19.1453,-18.83227 -9.7296,-9.35766 -17.1471,-17.01392 -16.4833,-17.01392 5.1493,0 48.2347,44.14328 60.2382,61.71716 6.6957,9.80294 3.0779,7.48866 -5.8244,-3.7258 z m 225.8467,1.02052 c 1.3871,-3.67784 9.6722,-11.92465 9.6829,-9.63816 0.01,1.10091 -2.3664,4.23709 -5.2702,6.96931 -2.9038,2.73222 -4.8895,3.9332 -4.4127,2.66885 z m 12.5692,-12.17641 c -1.3932,-0.86469 -0.9425,-1.91246 2.0016,-4.6533 3.1676,-2.94889 3.8768,-3.17219 4.2632,-1.34234 0.6381,3.02169 -3.9625,7.42463 -6.2648,5.99564 z"
       id="path22" />
  </g>
</svg>
