<?xml version="1.0" encoding="UTF-8" standalone="no"?>
<!-- Created with Inkscape (http://www.inkscape.org/) -->

<svg
   version="1.1"
   id="svg1"
   width="1478.7466"
   height="1466.0693"
   viewBox="0 0 1478.7466 1466.0695"
   sodipodi:docname="mountain.svg"
   inkscape:version="1.4.3 (0d15f75, 2025-12-25)"
   inkscape:export-batch-name="doodles"
   xmlns:inkscape="http://www.inkscape.org/namespaces/inkscape"
   xmlns:sodipodi="http://sodipodi.sourceforge.net/DTD/sodipodi-0.dtd"
   xmlns="http://www.w3.org/2000/svg"
   xmlns:svg="http://www.w3.org/2000/svg">
  <sodipodi:namedview
     id="namedview1"
     pagecolor="#505050"
     bordercolor="#eeeeee"
     borderopacity="1"
     inkscape:showpageshadow="0"
     inkscape:pageopacity="0"
     inkscape:pagecheckerboard="0"
     inkscape:deskcolor="#505050"
     inkscape:zoom="0.36251647"
     inkscape:cx="2884.0069"
     inkscape:cy="1148.9133"
     inkscape:window-width="1920"
     inkscape:window-height="1051"
     inkscape:window-x="-9"
     inkscape:window-y="-9"
     inkscape:window-maximized="1"
     inkscape:current-layer="g2" />
  <defs
     id="defs1" />
  <g
     id="g6"
     inkscape:groupmode="layer"
     inkscape:label="6"
     transform="translate(-9613.8972,-21.120502)">
    <path
       style="fill:#000000"
       d="m 10669.823,1486.4602 c -4.771,-0.5361 -13.963,-1.1265 -20.428,-1.312 -6.465,-0.1855 -12.026,-0.7773 -12.358,-1.315 -0.333,-0.5378 -4.652,-1.3778 -9.599,-1.8667 -4.946,-0.489 -11.118,-1.4257 -13.715,-2.0817 -2.596,-0.6559 -8.516,-1.5435 -13.155,-1.9723 -4.639,-0.4289 -9.921,-1.3452 -11.739,-2.0362 -1.817,-0.691 -3.828,-0.9328 -4.468,-0.5372 -0.64,0.3956 -3.407,-0.2181 -6.149,-1.3639 -2.743,-1.1457 -7.123,-2.0201 -9.734,-1.9431 -2.612,0.077 -12.856,-2.0738 -22.765,-4.7797 -9.908,-2.7059 -22.219,-5.7127 -27.357,-6.6818 -25.243,-4.7613 -69.232,-18.5047 -83.314,-26.0293 -2.611,-1.3957 -19.269,-6.9819 -49.164,-16.4874 -12.676,-4.0305 -24.824,-8.5936 -26.996,-10.1403 -2.172,-1.5466 -5.013,-3.027 -6.312,-3.2896 -1.3,-0.2627 -6.967,-2.3324 -12.594,-4.5995 -5.627,-2.267 -10.882,-4.1219 -11.677,-4.1219 -0.795,0 -1.446,-0.636 -1.446,-1.4133 0,-0.7773 -0.58,-1.0548 -1.289,-0.6168 -0.709,0.4381 -3.561,-0.361 -6.339,-1.7758 -2.777,-1.4147 -8.119,-3.4822 -11.871,-4.5944 -3.752,-1.1121 -7.955,-2.6206 -9.342,-3.3521 -1.386,-0.7316 -8.826,-3.2695 -16.533,-5.6399 -7.706,-2.3705 -15.339,-5.1303 -16.962,-6.133 -2.413,-1.491 -19.974,-7.8273 -25.075,-9.0471 -0.734,-0.1756 -5.238,-2.1767 -10.009,-4.447 -4.771,-2.2703 -13.779,-6.3445 -20.017,-9.0538 -6.239,-2.7093 -12.276,-5.7475 -13.415,-6.7516 -2.348,-2.0697 -17.841,-10.5423 -30.291,-16.5651 -4.587,-2.2193 -8.34,-4.5089 -8.34,-5.0881 0,-0.5793 -1.952,-1.7658 -4.338,-2.6368 -2.385,-0.871 -6.082,-3.0935 -8.214,-4.9389 -2.133,-1.8454 -4.704,-3.3553 -5.714,-3.3553 -1.01,0 -2.18,-0.8973 -2.601,-1.9941 -0.421,-1.0967 -1.156,-1.7528 -1.633,-1.4579 -0.763,0.4719 -10.977,-6.0776 -27.424,-17.5859 -2.869,-2.0078 -6.549,-4.5514 -8.177,-5.6524 -3.124,-2.1135 -4.551,-3.1792 -19.203,-14.346 -5.056,-3.8534 -9.849,-7.0062 -10.651,-7.0062 -0.802,0 -1.458,-0.5231 -1.458,-1.1625 0,-0.6394 -2.103,-2.5911 -4.673,-4.3372 -2.57,-1.746 -5.023,-4.2586 -5.451,-5.5835 -0.428,-1.3249 -1.449,-2.1853 -2.269,-1.912 -0.82,0.2734 -2.65,-0.4443 -4.067,-1.5946 -7.421,-6.0268 -23.734,-20.5113 -32.04,-28.4483 -5.185,-4.9544 -9.962,-9.008 -10.615,-9.008 -0.654,0 -7.709,-6.4557 -15.6788,-14.346 -26.7909,-26.5243 -30.1118,-29.693 -31.1199,-29.693 -0.5523,0 -3.7293,-2.5522 -7.0601,-5.6717 -11.2698,-10.5548 -16.2029,-14.9971 -22.5997,-20.3513 -7.0787,-5.9248 -13.7193,-12.2988 -20.1599,-19.3505 -2.3464,-2.5689 -10.7176,-10.6761 -18.6027,-18.0159 -7.8851,-7.3399 -17.976,-16.962 -22.4242,-21.3826 -4.4482,-4.4206 -9.8892,-9.311 -12.0912,-10.8677 -2.2019,-1.5567 -6.7383,-5.4465 -10.0807,-8.644 -8.462,-8.0951 -21.1602,-19.0705 -22.6808,-19.6037 -0.6977,-0.2447 -1.2686,-1.2552 -1.2686,-2.2455 0,-0.9904 -1.1744,-2.1734 -2.6098,-2.629 -3.1801,-1.0093 -58.5044,-56.08637 -65.7036,-65.40999 -2.8337,-3.66992 -6.4882,-8.42972 -8.1212,-10.57734 -1.633,-2.14761 -3.8698,-4.7996 -4.9708,-5.8933 -1.101,-1.0937 -2.9026,-3.32973 -4.0035,-4.96895 -8.9454,-13.31865 -12.6912,-18.27349 -14.2732,-18.88059 -1.0119,-0.38828 -2.6985,-2.36656 -3.748,-4.39618 -1.0496,-2.02961 -6.4419,-8.41256 -11.9829,-14.18431 -5.9702,-6.21872 -10.572,-12.28379 -11.2954,-14.88696 -0.6713,-2.41606 -4.4149,-7.85016 -8.319,-12.07576 -3.9041,-4.2256 -10.7016,-12.11058 -15.1055,-17.52218 -4.4039,-5.41159 -10.1412,-12.09097 -12.7494,-14.84307 -2.6083,-2.7521 -5.486,-6.63594 -6.3949,-8.63075 -0.9089,-1.99482 -3.0853,-4.7539 -4.8363,-6.13128 -1.7511,-1.37738 -3.8905,-4.74693 -4.7544,-7.48789 -0.8638,-2.74096 -3.0092,-7.22268 -4.7674,-9.95938 -1.7582,-2.73671 -3.1968,-6.20861 -3.1968,-7.71535 0,-1.50674 -0.9046,-3.08666 -2.0102,-3.51094 -4.099,-1.57291 -19.6106,-38.71439 -21.4561,-51.37497 -0.4667,-3.20169 -0.8622,-15.73002 -0.879,-27.84074 -0.025,-17.80907 0.5401,-24.69886 2.9531,-36.0319 4.9941,-23.4553 9.3563,-38.96874 13.3214,-47.37528 2.0773,-4.4039 4.5397,-10.10895 5.4721,-12.6779 2.7177,-7.48731 16.7821,-30.02745 27.7315,-44.44329 7.5616,-9.95547 8.527,-13.58948 3.8929,-14.65394 -8.5263,-1.95856 -18.1246,-4.99206 -21.6858,-6.8537 -2.202,-1.15109 -5.621,-2.09658 -7.5978,-2.1011 -2.1441,-0.005 -4.395,-1.15139 -5.5788,-2.84148 -1.0914,-1.55829 -3.3166,-3.51002 -4.9449,-4.33717 -1.7788,-0.90362 -3.629,-3.78471 -4.6355,-7.2179 -0.9212,-3.14269 -2.3485,-6.52562 -3.1718,-7.51761 -1.129,-1.36028 -1.0379,-1.97977 0.3704,-2.5202 1.027,-0.3941 2.2955,-2.99859 2.8187,-5.78775 0.5233,-2.78915 1.8229,-7.63828 2.8881,-10.77584 1.4857,-4.37603 1.5855,-6.36114 0.4283,-8.52338 -1.2852,-2.40141 -0.7577,-3.90895 3.5631,-10.18251 2.7894,-4.05008 7.6068,-9.24044 10.7053,-11.53413 3.0985,-2.29369 6.3727,-5.51159 7.2761,-7.15089 0.9033,-1.6393 2.7,-3.3162 3.9925,-3.72645 1.2926,-0.41025 7.0516,-5.40059 12.7979,-11.08965 12.2053,-12.08389 20.612,-18.97818 27.1291,-22.24849 5.1359,-2.5772 16.6569,-10.69177 28.0248,-19.73867 4.0369,-3.21268 9.3501,-6.52845 11.807,-7.36837 2.457,-0.83993 6.5773,-3.37981 9.1563,-5.64418 2.5789,-2.26438 5.9735,-4.61976 7.5434,-5.23418 4.3064,-1.68539 23.492,-18.76266 25.5498,-22.74207 1.1723,-2.26684 5.4557,-5.28074 12.2407,-8.61281 5.7406,-2.81916 10.9247,-5.94689 11.5203,-6.95052 0.5956,-1.00362 1.6156,-1.49554 2.2667,-1.09315 0.6511,0.4024 4.3675,-0.81986 8.2587,-2.71613 3.8912,-1.89626 9.1768,-3.72572 11.7457,-4.06546 2.569,-0.33974 5.8196,-0.97796 7.2236,-1.41827 2.3129,-0.72531 2.3442,-0.9173 0.3337,-2.04247 -4.6079,-2.57868 -2.5033,-4.83228 4.1197,-4.41159 l 6.339,0.40265 1.5368,-9.55992 c 1.6265,-10.11843 1.4503,-33.20646 -0.4143,-54.26616 -1.646,-18.59091 -0.8291,-76.45783 1.5826,-112.09925 0.5006,-7.39747 6.5318,-40.0914 8.7396,-47.37528 0.8899,-2.93594 2.4322,-7.91131 3.4274,-11.05639 0.9951,-3.14508 1.8093,-8.70208 1.8093,-12.34889 0,-5.42359 1.4569,-9.56232 8.0032,-22.736305 14.1059,-28.386825 25.0343,-42.628223 43.1002,-56.16639 8.0289,-6.016634 9.9375,-6.846681 16.6815,-7.254658 18.3369,-1.109299 35.4196,-3.247882 37.1029,-4.644915 1.1429,-0.948503 7.7032,-1.49338 17.5558,-1.458117 12.951,0.04635 17.4952,0.631346 25.7137,3.310243 12.401,4.042342 21.326,5.64136 21.326,3.820966 0,-0.737334 -0.751,-1.608701 -1.668,-1.936372 -0.918,-0.327671 -1.292,-1.003688 -0.833,-1.502259 1.274,-1.38287 14.859,5.051825 19.276,9.130175 9.033,8.340329 10.284,9.611904 13.222,13.430411 3.849,5.002793 10.389,20.874664 14.022,34.03013 3.04,11.007401 5.107,27.860751 6.057,49.377051 0.929,21.0492 3.294,48.12415 4.654,53.26717 0.663,2.50655 0.787,5.20894 0.277,6.00531 -0.51,0.79637 -1.055,5.05114 -1.21,9.45504 -0.154,4.4039 -0.576,14.61294 -0.937,22.68675 -0.712,15.9364 1.327,35.69233 4.148,40.17854 2.114,3.36265 7.518,2.90876 11.819,-0.99271 1.522,-1.38109 3.17,-2.10891 3.661,-1.61738 0.492,0.49154 1.949,0.007 3.238,-1.07749 1.289,-1.08415 6.547,-3.68335 11.685,-5.776 5.138,-2.09264 13.245,-5.73518 18.016,-8.09453 8.406,-4.15725 17.534,-6.97691 31.361,-9.68753 8.236,-1.61468 27.352,-0.50519 27.371,1.58864 0,0.99871 5.331,1.60155 16.084,1.82176 l 16.069,0.32912 11.608,5.91221 c 6.384,3.25171 14.922,6.51068 18.973,7.24214 4.052,0.73146 11.859,2.83289 17.349,4.66983 5.491,1.83695 16.889,4.95696 25.33,6.93335 28.777,6.73812 57.113,16.48003 71.508,24.58436 l 6.783,3.81931 5.707,-2.55482 c 3.138,-1.40516 7.189,-2.55483 9.001,-2.55483 5.454,0 33.221,-5.20103 53.121,-9.95005 31.992,-7.63475 37.026,-8.50477 58.061,-10.03466 23.954,-1.74222 64.827,3.11195 86.743,10.30186 11.678,3.83092 35.89,15.00263 39.526,18.23776 13.185,11.72861 28.041,19.35723 44.454,22.82744 7.343,1.55252 32.177,13.50129 47.234,22.72582 5.723,3.50673 20.106,15.56699 15.907,13.33865 -0.942,-0.50017 -2.038,0.0491 -2.5,1.25367 -1.11,2.89104 0.346,4.10107 2.642,2.19595 1.971,-1.63612 6.206,-0.72475 6.206,1.33557 0,0.66944 -1.501,0.84036 -3.336,0.37981 -5.842,-1.46618 -2.724,4.86842 3.344,6.79433 1.464,0.46453 2.661,1.44514 2.661,2.17912 0,0.74578 1.229,0.94452 2.786,0.4505 1.92,-0.60953 3.594,-0.0159 5.39,1.91184 1.432,1.53772 3.332,2.79773 4.221,2.8 2.583,0.007 15.628,13.42847 15.628,16.0801 0,1.37502 2.646,4.19521 6.161,6.56737 16.598,11.20249 49.806,43.82191 53.798,52.84472 1.437,3.24999 3.248,5.90908 4.023,5.90908 0.775,0 1.41,1.16674 1.41,2.59275 0,2.81528 5.015,12.08692 6.538,12.08692 0.515,0 2.303,2.81301 3.974,6.25115 3.164,6.51368 5.887,10.44 13.175,19.00323 2.386,2.80263 4.337,5.53635 4.337,6.07492 0,0.53858 1.815,3.66784 4.033,6.95391 2.217,3.28607 5.307,8.47768 6.865,11.53691 1.558,3.05924 4.247,7.42053 5.976,9.69176 1.729,2.27123 3.144,4.68408 3.144,5.3619 0,0.67781 1.501,3.44179 3.336,6.14218 1.835,2.70038 3.337,5.74235 3.337,6.75994 0,1.01758 1.785,3.6017 3.966,5.74249 2.182,2.14078 3.983,4.76781 4.004,5.83784 0.02,1.07003 2.085,4.07269 4.589,6.67257 4.602,4.77955 11.462,19.11789 11.462,23.95857 0,1.44676 0.548,2.96952 1.219,3.38389 2.091,1.29249 12.126,24.69041 12.126,28.27414 0,1.0031 1.151,2.97502 2.558,4.38206 2.372,2.37206 9.331,23.44094 16.125,48.82057 1.572,5.87187 3.99,12.26734 5.374,14.21217 1.383,1.94482 2.896,5.05416 3.362,6.90964 0.864,3.44175 3.879,5.51002 6.064,4.15955 0.668,-0.41269 1.214,-0.11437 1.214,0.66293 0,0.7773 0.596,1.41327 1.325,1.41327 1.728,0 8.017,5.47828 8.017,6.98404 0,0.64056 1.501,3.37406 3.336,6.07444 1.835,2.70038 3.337,5.94161 3.337,7.20272 0,1.26111 0.768,2.77317 1.708,3.36013 0.939,0.58696 3.717,5.57118 6.173,11.07606 2.456,5.50487 6.734,14.81311 9.508,20.68498 13.365,28.29654 14.019,30.53098 9.369,32.00669 -3.575,1.13478 -4.747,5.54214 -2.161,8.12817 1.151,1.15115 2.093,3.04435 2.093,4.20712 0,1.16276 1.541,4.1345 3.424,6.60387 1.884,2.46937 3.778,6.72978 4.21,9.46757 0.432,2.7378 1.143,5.27807 1.58,5.64507 0.437,0.36699 1.94,2.91925 3.34,5.67168 1.4,2.75244 3.033,5.00444 3.628,5.00444 0.596,0 0.79,0.76402 0.431,1.69782 -0.358,0.9338 0.862,4.83431 2.711,8.6678 1.85,3.83349 3.363,7.50012 3.363,8.14807 0,0.64794 1.014,3.50341 2.254,6.34548 1.24,2.84208 2.291,5.51057 2.335,5.92999 0.05,0.41942 1.132,1.81351 2.417,3.09798 1.284,1.28447 2.335,3.47508 2.335,4.86802 0,3.43304 4.992,12.98508 9.586,18.34178 2.068,2.41099 3.759,4.93048 3.759,5.59887 0,0.6684 1.652,2.00341 3.67,2.9667 2.598,1.23951 4.063,3.30863 5.015,7.07902 0.739,2.93017 2.343,6.82892 3.565,8.66387 3.115,4.67782 10.351,25.72337 26.384,76.73461 0.693,2.20195 2.297,9.90017 3.565,17.10717 2.126,12.0736 2.138,13.3892 0.161,16.7358 -1.491,2.5243 -1.914,5.3546 -1.388,9.2794 0.568,4.2302 0.188,6.277 -1.513,8.1565 -2.212,2.444 -6.562,24.72 -8.091,41.4296 -1.496,16.3515 -10.922,52.5441 -16.851,64.7001 -2.846,5.8366 -5.175,11.3916 -5.175,12.3443 0,0.9528 -0.577,1.7323 -1.282,1.7323 -0.706,0 -1.156,2.9394 -1.001,6.532 0.187,4.3524 -0.421,7.3581 -1.824,9.0079 -1.158,1.3618 -2.81,4.9499 -3.671,7.9734 -1.519,5.3329 -7.556,16.7375 -17.575,33.2036 -2.68,4.4039 -5.276,9.1025 -5.77,10.4413 -0.865,2.3471 -26.232,40.3915 -37.187,55.7728 -5.719,8.0294 -10.995,21.195 -18.337,45.7582 -1.515,5.0681 -4.39,11.9742 -6.39,15.347 -2,3.3727 -4.555,7.7227 -5.677,9.6667 -3.283,5.6827 -9.285,14.3718 -11.762,17.0257 -1.26,1.3494 -5.233,6.2833 -8.828,10.9643 -7.074,9.2077 -19.894,20.8077 -30.056,27.1941 -3.504,2.202 -8.114,5.3971 -10.244,7.1002 -3.318,2.652 -9.925,6.7813 -21.223,13.2629 -7.507,4.307 -19.81,9.4035 -21.31,8.8279 -0.937,-0.3597 -5.233,1.8264 -9.547,4.858 -6.46,4.5398 -8.726,5.4299 -12.848,5.0467 -2.753,-0.2559 -5.005,10e-4 -5.005,0.5709 0,0.5699 -1.501,1.0361 -3.336,1.0361 -1.835,0 -3.336,0.5638 -3.336,1.2528 0,0.689 -2.853,1.678 -6.339,2.1977 -3.633,0.5416 -7.037,1.9348 -7.974,3.2634 -1.48,2.0973 -9.986,4.8254 -12.88,4.1307 -0.643,-0.1545 -1.981,0.8783 -2.973,2.295 -0.993,1.4167 -3.769,2.8797 -6.171,3.2512 -2.401,0.3714 -9.771,2.244 -16.376,4.1614 -6.606,1.9173 -12.743,3.2082 -13.636,2.8686 -0.894,-0.3396 -1.928,-0.1283 -2.298,0.4695 -0.814,1.3174 -21.509,4.8288 -35.754,6.0665 -3.473,0.3018 -6.868,0.8908 -7.544,1.309 -0.677,0.4182 -7.444,1.1092 -15.038,1.5354 -7.595,0.4262 -14.409,0.9037 -15.143,1.061 -0.734,0.1572 -5.238,-0.1527 -10.009,-0.6887 z m -56.049,-95.2979 c 2.569,-0.3936 7.073,-0.9898 10.008,-1.3248 13.837,-1.5787 23.766,-3.3814 25.356,-4.6038 1.786,-1.3722 10.094,-2.7293 20.685,-3.3788 4.771,-0.2926 13.779,-1.2468 20.018,-2.1206 6.239,-0.8738 16.149,-1.6697 22.023,-1.7688 5.873,-0.099 11.374,-0.6099 12.224,-1.1353 0.85,-0.5253 4.152,-0.9923 7.337,-1.0376 8.687,-0.1236 23.922,-2.6362 28.68,-4.7298 2.313,-1.0178 5.255,-1.8505 6.539,-1.8505 1.284,0 5.567,-1.5815 9.518,-3.5145 3.951,-1.933 7.535,-3.1627 7.965,-2.7326 0.43,0.4301 1.631,-0.067 2.668,-1.1039 1.037,-1.0372 4.119,-2.3013 6.847,-2.8092 2.729,-0.5079 7.202,-2.3331 9.94,-4.056 2.738,-1.7229 5.532,-3.1325 6.211,-3.1325 1.867,0 17.267,-8.9264 22.508,-13.0472 2.543,-1.9988 6.936,-5.8862 9.764,-8.6387 2.828,-2.7524 5.493,-5.0044 5.923,-5.0044 0.43,0 2.177,-1.3512 3.882,-3.0027 1.705,-1.6514 8.368,-6.3055 14.805,-10.3424 6.438,-4.037 15.075,-10.3971 19.192,-14.1337 4.118,-3.7366 8.544,-7.173 9.835,-7.6363 1.291,-0.4634 2.206,-1.3096 2.032,-1.8806 -0.174,-0.5709 1.274,-4.3409 3.218,-8.3778 1.945,-4.0369 4.844,-10.6428 6.442,-14.6797 1.599,-4.0369 4.558,-10.0422 6.576,-13.3451 2.018,-3.3029 5.246,-8.7875 7.172,-12.1879 1.927,-3.4005 4.324,-6.4979 5.329,-6.8832 2.852,-1.0946 29.672,-43.3624 28.352,-44.6826 -0.323,-0.323 0.577,-1.8375 2.001,-3.3658 1.424,-1.5282 2.589,-3.7463 2.589,-4.9291 0,-1.1827 0.535,-2.721 1.19,-3.4182 0.654,-0.6973 2.717,-5.7718 4.585,-11.2767 1.867,-5.5049 4.691,-13.3118 6.274,-17.3487 3.897,-9.9343 6.304,-21.3007 7.115,-33.5977 1.032,-15.6547 0.402,-16.9401 -11.208,-22.8499 -8.612,-4.3838 -10.749,-4.9552 -15.814,-4.2277 -5.312,0.7629 -5.764,0.6138 -4.853,-1.6038 2.319,-5.6504 2.261,-7.372 -0.342,-10.1824 -2.875,-3.1028 -3.364,-5.1867 -3.115,-13.2733 0.267,-8.6936 11.932,-18.4402 22.283,-18.6195 4.224,-0.073 6.369,-4.7745 6.882,-15.0848 0.879,-17.6467 1.524,-24.0275 2.766,-27.3575 0.733,-1.96418 0.762,-4.61728 0.07,-6.45095 -0.645,-1.71306 -0.911,-3.5402 -0.589,-4.06031 0.321,-0.52011 0.876,-3.32224 1.233,-6.22696 1.661,-13.53098 2.908,-17.59703 7.252,-23.64398 3.793,-5.27878 4.46,-7.17749 3.764,-10.70834 -1.039,-5.26973 -7.029,-18.01771 -10.169,-21.64054 -1.272,-1.46797 -4.274,-6.27222 -6.672,-10.67612 -2.397,-4.4039 -5.385,-9.50842 -6.639,-11.34338 -1.254,-1.83496 -6.648,-12.044 -11.988,-22.68675 -14.899,-29.69715 -17.655,-35.04219 -20.297,-39.36819 -1.345,-2.20195 -3.878,-7.03024 -5.63,-10.72953 -1.751,-3.69929 -4.148,-7.52615 -5.327,-8.50412 -1.178,-0.97798 -2.142,-2.78557 -2.142,-4.01686 0,-1.2313 -0.56,-2.80923 -1.244,-3.50652 -0.685,-0.69728 -4.25,-7.1663 -7.924,-14.37559 -3.674,-7.2093 -7.364,-13.93298 -8.201,-14.94153 -1.499,-1.80563 -6.8,-15.52988 -9.527,-24.664 -0.767,-2.56895 -2.157,-5.5716 -3.09,-6.67258 -1.465,-1.73016 -9.602,-23.6369 -15.862,-42.70448 -5.437,-16.56496 -11.536,-39.08265 -11.536,-42.59484 0,-2.17561 -0.593,-4.32193 -1.317,-4.7696 -0.725,-0.44766 -2.299,-4.19243 -3.5,-8.3217 -1.2,-4.12927 -5.111,-14.43478 -8.692,-22.90113 -3.58,-8.46635 -6.509,-16.08614 -6.509,-16.93287 0,-0.84672 -1.123,-2.97169 -2.495,-4.72213 -1.372,-1.75045 -2.93,-5.17494 -3.462,-7.60998 -0.532,-2.43504 -1.837,-4.7611 -2.9,-5.16902 -1.063,-0.40792 -3.064,-2.95978 -4.447,-5.67079 -1.383,-2.71101 -3.434,-5.69192 -4.557,-6.62423 -1.124,-0.93231 -4.546,-6.29692 -7.604,-11.92136 -3.059,-5.62443 -6.287,-11.12704 -7.173,-12.22802 -0.886,-1.10097 -2.986,-5.30469 -4.666,-9.3416 -1.68,-4.03691 -3.883,-7.82007 -4.895,-8.40703 -1.012,-0.58696 -1.84,-1.97201 -1.84,-3.07789 0,-1.10587 -1.733,-3.62829 -3.85,-5.60537 -2.118,-1.97708 -4.28,-5.00781 -4.805,-6.73497 -0.524,-1.72715 -2.386,-5.2514 -4.137,-7.83166 -1.751,-2.58027 -2.848,-5.23561 -2.437,-5.90077 0.411,-0.66515 -0.02,-1.04436 -0.953,-0.84268 -1.5,0.32309 -6.286,-7.04204 -10.408,-16.01549 -0.767,-1.67037 -2.455,-4.18718 -3.75,-5.59292 -1.296,-1.40574 -5.358,-8.44652 -9.028,-15.64618 -3.67,-7.19965 -8.685,-15.79267 -11.145,-19.0956 -7.507,-10.07934 -27.955,-27.90544 -36.165,-31.52717 -1.871,-0.82532 -4.727,-2.62691 -6.348,-4.00354 -1.62,-1.37663 -6.919,-4.90509 -11.776,-7.84102 -10.282,-6.21632 -28.048,-17.54344 -36.656,-23.37098 -3.303,-2.23593 -10.209,-6.72713 -15.347,-9.98042 -5.138,-3.2533 -10.021,-6.49527 -10.851,-7.20439 -0.83,-0.70911 -4.583,-2.89679 -8.341,-4.86151 -3.757,-1.96472 -6.831,-4.0997 -6.831,-4.74439 0,-1.07812 -4.251,-3.63566 -19.119,-11.50462 -3.336,-1.76525 -8.04,-2.96971 -11.727,-3.00266 -3.386,-0.0303 -9.391,-0.69221 -13.345,-1.47101 -3.953,-0.77881 -15.295,-1.68647 -25.204,-2.01702 -21.637,-0.72179 -91.099,1.66517 -101.454,3.4863 -11.558,2.03284 -41.966,4.06232 -42.379,2.82851 -0.205,-0.61181 -3.207,-0.67468 -6.672,-0.13971 -7.24,1.11776 -25.638,0.10197 -27.722,-1.53061 -2.64,-2.06755 -13.917,1.98953 -21.491,7.73091 -6.747,5.11541 -40.425,16.45391 -55.174,18.57595 -2.569,0.3696 -5.872,1.22197 -7.34,1.89416 -1.468,0.67219 -7.474,2.75148 -13.345,4.62065 -15.282,4.86443 -24.689,8.92902 -24.689,10.66716 0,1.35896 12.107,7.84791 32.028,17.16563 4.037,1.88819 10.625,5.55718 14.64,8.1533 4.015,2.59612 8.519,5.09003 10.009,5.54202 1.49,0.45199 3.61,1.57206 4.711,2.48904 1.101,0.91699 7.106,4.37543 13.345,7.68542 6.239,3.31 15.247,8.23033 20.018,10.93408 4.77,2.70375 12.049,6.83106 16.173,9.1718 4.125,2.34074 8.471,5.07374 9.659,6.07334 1.187,0.99959 2.971,1.50555 3.965,1.12435 2.438,-0.93578 3.85,0.19976 7.288,5.86145 2.948,4.85514 2.644,7.72421 -0.539,5.08269 -0.953,-0.7908 -2.359,-1.05041 -3.125,-0.57692 -2.562,1.58364 -1.432,6.31249 2.61,10.91614 4.879,5.55627 5.083,8.88504 0.668,10.89667 -2.234,1.01785 -3.337,2.59773 -3.337,4.78152 0,2.55746 -1.03,3.60148 -4.774,4.83699 -2.841,0.93757 -5.777,3.22552 -7.252,5.65011 -1.397,2.29845 -4.697,4.94773 -7.57,6.07777 -5.306,2.08742 -7.306,2.3222 -35.786,4.2008 -18.995,1.25296 -21.917,1.68696 -36.699,5.45074 -5.505,1.40164 -12.33,2.84335 -15.166,3.2038 -2.836,0.36045 -6.139,0.96082 -7.34,1.33416 -4.538,1.4112 -58.024,1.8563 -69.223,0.57606 -6.433,-0.73534 -13.759,-1.55909 -16.282,-1.83055 -11.467,-1.23437 -18.551,-2.22535 -24.106,-3.37269 -5.597,-1.15582 -10.944,-1.67859 -35.596,-3.47984 -8.547,-0.62446 -9.882,-0.39118 -12.448,2.17459 -1.581,1.58075 -2.54,3.74465 -2.132,4.80867 0.718,1.86992 -0.942,10.6044 -4.918,25.88386 -1.051,4.03691 -2.605,11.75445 -3.454,17.1501 -0.849,5.39564 -2.435,11.08418 -3.526,12.6412 -1.09,1.55701 -1.983,3.52314 -1.983,4.36916 0,0.84603 -2.205,6.26732 -4.901,12.04733 -2.696,5.78 -4.785,10.99623 -4.644,11.59163 0.142,0.59539 -0.582,2.69726 -1.608,4.6708 -1.027,1.97355 -2.691,5.38986 -3.697,7.59181 -1.007,2.20195 -2.806,4.73493 -3.997,5.62884 -2.498,1.87367 -5.688,13.14445 -4.339,15.32705 0.499,0.80768 -0.08,2.18684 -1.276,3.06479 -1.2,0.87795 -2.371,2.83014 -2.601,4.33819 -0.23,1.50806 -1.065,3.55116 -1.855,4.54022 -0.79,0.98907 -2.113,4.05029 -2.941,6.80273 -0.827,2.75244 -2.104,6.9988 -2.838,9.43635 -1.615,5.36429 -1.652,6.2442 -0.258,6.2442 0.593,0 1.73,-1.65146 2.527,-3.66991 1.163,-2.94177 1.473,-3.14035 1.566,-1.00089 0.14,3.24211 -12.674,20.82436 -18.791,25.78185 -5.789,4.69253 -8.972,7.38073 -19.583,16.53694 -8.141,7.02412 -19.9485,12.85208 -22.6531,11.18058 -0.5682,-0.35115 -4.1452,0.27387 -7.949,1.38892 -6.7055,1.96566 -7.1395,1.92505 -14.2593,-1.33448 -4.3127,-1.97443 -7.3432,-4.21843 -7.3432,-5.43744 0,-1.18593 -1.144,-2.07561 -2.669,-2.07561 -1.468,0 -2.669,0.60054 -2.669,1.33452 0,1.69816 -4.9217,1.75342 -5.964,0.067 -0.4308,-0.69716 0.4345,-1.91935 1.923,-2.71599 1.4886,-0.79663 2.7064,-1.95782 2.7064,-2.58041 0,-1.77055 -6.3721,-2.54432 -7.9509,-0.9655 -0.998,0.99801 -3.8064,-0.93093 -9.5177,-6.53714 -8.6584,-8.4992 -19.8978,-22.44606 -19.8978,-24.69113 0,-0.74882 -0.8613,-1.69202 -1.9141,-2.096 -1.0527,-0.40398 -6.5098,-6.65808 -12.1267,-13.89801 -5.6169,-7.23992 -10.6108,-13.34626 -11.0974,-13.56964 -0.4866,-0.22338 -2.6864,-4.00933 -4.8884,-8.41323 -2.2019,-4.4039 -5.3077,-9.64873 -6.9016,-11.65518 -1.594,-2.00645 -4.2958,-6.51044 -6.0041,-10.00887 -1.7083,-3.49842 -3.8572,-6.84101 -4.7753,-7.42797 -0.9182,-0.58695 -1.6694,-1.89207 -1.6694,-2.90026 0,-1.00819 -1.5013,-3.6173 -3.3363,-5.79802 -1.835,-2.18073 -3.3363,-4.54794 -3.3363,-5.26048 0,-0.71254 -1.1858,-2.80298 -2.635,-4.64543 -1.4493,-1.84244 -4.274,-7.17808 -6.2771,-11.85697 -2.0031,-4.6789 -4.0167,-8.80735 -4.4747,-9.17434 -0.4579,-0.36699 -3.7196,-7.42324 -7.2481,-15.68055 -4.4004,-10.29772 -7.0925,-15.01129 -8.5708,-15.00692 -1.1855,0.004 -4.3072,1.98301 -6.9373,4.3989 -2.63,2.41589 -6.2515,5.56582 -8.0478,6.99983 -4.9374,3.94176 -10.1328,11.66535 -9.548,14.19427 0.3096,1.33895 -0.7254,2.90107 -2.5639,3.86969 -1.6958,0.89339 -3.3835,1.9858 -3.7505,2.42757 -0.3669,0.44178 -2.2036,1.59283 -4.0814,2.55789 -1.8778,0.96506 -4.509,3.7877 -5.8472,6.27254 -1.3382,2.48484 -5.65,8.30013 -9.5817,12.92288 -3.9318,4.62275 -8.6298,11.40766 -10.44,15.07757 -4.0648,8.24101 -8.8008,23.8237 -8.6699,28.52625 0.1172,4.20698 -1.3296,14.72362 -2.4095,17.51452 -0.426,1.10097 -0.62,5.17472 -0.4312,9.05277 0.1889,3.87806 -0.2755,7.79675 -1.0319,8.70822 -0.7565,0.91146 -1.7211,4.53721 -2.1436,8.05722 -0.4226,3.52001 -1.4186,9.20982 -2.2134,12.64403 -0.7948,3.4342 -1.6386,9.24667 -1.8752,12.91658 -0.2366,3.66992 -0.7532,10.45828 -1.148,15.08525 -0.3947,4.62697 -0.2053,9.76045 0.421,11.40773 0.6263,1.64728 1.5581,6.86956 2.0707,11.60505 0.5127,4.7355 1.4443,8.80014 2.0704,9.03255 0.626,0.23241 0.6111,1.80909 -0.033,3.50373 -1.386,3.64547 -0.7121,15.76059 1.1921,21.4295 0.7396,2.20195 2.2906,7.18618 3.4467,11.07607 1.8364,6.17864 4.5439,10.36798 11.0124,17.0394 0.9175,0.94626 1.6681,2.08509 1.6681,2.53073 0,0.44565 1.3512,2.31048 3.0027,4.14407 1.6515,1.83359 4.0536,4.51452 5.3381,5.95763 1.2844,1.44311 2.3354,3.21927 2.3354,3.94704 0,0.72776 1.201,2.07328 2.669,2.99004 1.4679,0.91676 2.669,2.29998 2.669,3.07382 0,0.77385 2.9769,4.68298 6.6152,8.68697 9.2021,10.12675 9.399,10.36978 9.399,11.6008 0,0.60345 2.1594,3.13395 4.7986,5.62334 2.6392,2.48939 6.2985,6.90217 8.1317,9.80617 1.8332,2.90401 5.8728,7.75536 8.9769,10.78079 3.1041,3.02543 8.5049,9.85142 12.0019,15.16888 3.497,5.31746 6.9065,10.00702 7.5767,10.42125 0.6703,0.41423 1.2187,1.64481 1.2187,2.73462 0,1.88442 4.4973,7.87088 20.3309,27.06291 9.0015,10.91073 10.2431,12.16806 12.0152,12.16806 0.8038,0 1.163,0.29854 0.7981,0.66342 -0.5992,0.59921 17.3484,19.3543 18.521,19.3543 1.6688,0 16.395,14.49419 16.395,16.13666 0,0.66662 0.487,1.0619 1.0822,0.87841 1.069,-0.32953 9.8131,7.0963 25.9056,21.99991 4.5455,4.2097 11.0342,9.544 14.4194,11.854 3.3852,2.31 6.7134,5.4716 7.396,7.0257 0.6826,1.5542 1.6615,2.7056 2.1753,2.5588 0.5138,-0.1468 2.9321,1.6548 5.3741,4.0036 2.4419,2.3487 8.4862,7.8736 13.4317,12.2775 4.9455,4.4039 17.8966,16.7148 28.7806,27.3575 10.884,10.6428 26.189,25.6056 34.01,33.2507 7.822,7.645 14.222,14.3816 14.222,14.97 0,0.5885 3.453,3.6381 7.673,6.777 4.22,3.1388 8.154,6.4612 8.741,7.383 0.587,0.9218 1.574,1.6761 2.194,1.6761 0.62,0 3.103,1.846 5.519,4.1024 2.415,2.2563 6.532,5.2067 9.149,6.5563 2.616,1.3497 6.083,3.7073 7.704,5.2392 1.621,1.5319 3.49,2.7853 4.154,2.7853 0.663,0 3.474,1.8016 6.244,4.0035 2.771,2.202 5.763,4.0036 6.65,4.0036 0.886,0 2.755,1.2788 4.153,2.8419 1.398,1.5631 4.953,3.8832 7.899,5.1558 2.947,1.2725 6.173,3.2966 7.17,4.4978 0.997,1.2013 2.365,2.1841 3.04,2.1841 1.152,0 2.694,1.0875 7.012,4.9454 0.991,0.885 4.423,2.9512 7.627,4.5914 3.205,1.6403 7.628,4.3247 9.83,5.9655 2.202,1.6407 7.614,4.6894 12.026,6.775 7.665,3.6227 18.17,10.6328 19.113,12.7537 0.244,0.5505 1.044,1.0009 1.778,1.0009 1.581,0 16.783,10.8535 23.832,17.0151 2.729,2.3854 5.403,4.3372 5.942,4.3372 0.984,0 7.531,4.9488 11.486,8.6813 1.163,1.0971 2.739,1.9948 3.503,1.9948 0.763,0 3.659,2.0797 6.434,4.6216 2.775,2.5418 5.568,4.2988 6.206,3.9043 0.638,-0.3945 0.995,-0.1581 0.794,0.5254 -0.313,1.0579 5.071,6.5575 16.982,17.348 1.468,1.3299 4.47,3.2907 6.672,4.3572 2.202,1.0665 5.382,3.2903 7.067,4.9418 1.685,1.6514 3.748,3.0026 4.585,3.0026 0.837,0 2.761,1.1249 4.276,2.4998 3.914,3.551 23.085,11.5116 58.138,24.1412 20.636,7.4352 26.588,9.9592 38.211,16.2039 5.774,3.1023 14.402,6.7627 19.173,8.1344 12.204,3.5086 11.853,3.3858 21.352,7.4752 2.569,1.106 5.136,1.9133 5.704,1.7941 0.568,-0.1193 3.271,0.9057 6.005,2.2776 2.735,1.372 5.807,2.1997 6.826,1.8394 1.132,-0.4 1.492,-0.068 0.923,0.8525 -0.606,0.9799 0.343,1.5077 2.71,1.5077 2.003,0 7.594,1.7205 12.423,3.8235 10.265,4.4698 17.412,6.8526 20.553,6.8526 1.232,0 2.24,0.5528 2.24,1.2285 0,0.6756 1.952,1.6469 4.337,2.1583 4.752,1.0188 38.809,13.3748 42.947,15.5811 1.417,0.7559 7.723,2.4495 14.012,3.7636 9.114,1.9044 15.769,2.2757 32.788,1.8291 11.743,-0.3082 23.454,-0.8825 26.023,-1.2761 z m 145.462,-127.2192 c 0,-0.7339 0.6,-1.7056 1.334,-2.1593 0.734,-0.4536 1.335,-0.2242 1.335,0.5098 0,0.734 -0.601,1.7056 -1.335,2.1593 -0.734,0.4536 -1.334,0.2242 -1.334,-0.5098 z m -5.763,-2.3616 c -0.5,-0.5004 -0.91,-1.9465 -0.91,-3.2136 0,-2.7102 -3.689,-4.479 -5.841,-2.8002 -0.824,0.6434 -3.45,1.5395 -5.836,1.9915 -3.465,0.6565 -4.337,0.3814 -4.337,-1.3692 0,-1.205 -0.408,-1.7831 -0.906,-1.2848 -1.147,1.1472 -11.105,-9.7486 -11.105,-12.1511 0,-2.958 3.519,-8.7604 7.753,-12.7846 3.134,-2.9796 4.515,-3.5115 6.458,-2.4888 1.359,0.7154 5.33,1.2196 8.826,1.1205 4.319,-0.1225 6.165,0.3139 5.761,1.3625 -0.864,2.2473 3.415,5.6337 8.37,6.6248 4.157,0.8313 6.893,3.7973 6.851,7.4253 -0.02,1.3842 -0.268,1.3649 -1.19,-0.091 -0.932,-1.4709 -2.305,-0.9347 -6.745,2.6332 -4.868,3.9121 -5.482,4.9924 -4.837,8.5195 0.754,4.1274 -0.674,8.1444 -2.312,6.5061 z m -278.332,-29.5494 c -0.738,-0.246 -1.028,-1.2632 -0.646,-2.2605 0.389,-1.0133 -0.674,-2.5734 -2.41,-3.5364 -2.963,-1.6437 -3.745,-1.9375 -6.171,-2.3182 -1.752,-0.275 -1.08,-6.2602 0.982,-8.7438 1.545,-1.8614 3.222,-2.1548 8.582,-1.5019 3.664,0.4463 7.304,1.3124 8.088,1.9248 0.785,0.6124 3.094,1.5118 5.131,1.9987 5.298,1.2661 9.311,5.6611 8.242,9.027 -0.628,1.9796 -1.271,2.3319 -2.327,1.2756 -1.057,-1.0563 -2.218,-0.7635 -4.205,1.06 -2.487,2.2825 -11.934,4.1853 -15.266,3.0747 z m 122.95,-109.4962 c 0.387,-1.4797 -0.348,-3.0798 -1.846,-4.0148 -1.369,-0.8551 -2.489,-2.5345 -2.489,-3.7319 0,-1.8294 -1.123,-2.0613 -7.027,-1.452 -5.305,0.5476 -8.305,0.1029 -12.248,-1.8151 -2.873,-1.3971 -6.684,-2.5402 -8.469,-2.5402 -3.027,0 -3.184,-0.3387 -2.319,-5.0044 1.169,-6.3047 4.786,-12.2505 9.626,-15.8215 5.198,-3.8351 16.046,-5.1133 22.062,-2.5995 2.59,1.082 5.025,1.6511 5.411,1.2645 0.387,-0.3865 2.651,1.7213 5.032,4.6841 2.381,2.9628 4.853,5.063 5.494,4.6671 0.64,-0.396 0.819,-1.2789 0.397,-1.9622 -0.422,-0.6833 -0.132,-1.2423 0.645,-1.2423 0.778,0 1.423,0.7507 1.434,1.6682 0.01,1.112 0.452,1.0008 1.314,-0.3337 1.071,-1.6569 1.292,-1.5419 1.284,0.6673 0,1.6997 -3.145,5.0924 -8.642,9.3416 -4.747,3.6699 -8.637,7.092 -8.644,7.6047 0,0.5127 1.489,2.5521 3.324,4.532 2.664,2.8747 3.337,3.135 3.337,1.2921 0,-2.6961 3.181,-2.0931 3.662,0.6942 0.184,1.0665 -1.898,2.9095 -4.774,4.2266 -6.431,2.9443 -7.361,2.9266 -6.564,-0.1248 z m -307.27,-1.0831 c -3.303,-1.1447 -6.838,-2.759 -7.856,-3.5873 -3.229,-2.6282 -7.114,-13.304 -7.486,-20.5738 -0.326,-6.3685 0.01,-7.3314 3.642,-10.3856 3.178,-2.6746 5.202,-3.2889 9.851,-2.9895 3.218,0.2072 5.851,0.731 5.852,1.164 0,0.4331 2.553,1.5096 5.672,2.3925 3.12,0.8828 9.448,2.8017 14.064,4.2642 4.616,1.4625 8.913,2.3372 9.549,1.9438 0.637,-0.3934 3.285,2.246 5.885,5.8655 4.076,5.6723 4.615,7.2799 3.907,11.6449 -1.102,6.7858 -4.691,9.4264 -13.078,9.6197 -3.754,0.087 -10.02,0.7633 -13.925,1.5039 -8.803,1.6696 -8.766,1.6716 -16.077,-0.8623 z m 327.774,-16.7247 c -0.962,-4.8093 0.291,-6.877 3.111,-5.134 1.503,0.9288 1.566,1.5855 0.299,3.1116 -0.882,1.0639 -1.23,2.9113 -0.772,4.1053 0.458,1.194 0.244,2.1709 -0.477,2.1709 -0.721,0 -1.694,-1.9142 -2.161,-4.2538 z m -506.902,-53.6246 c -1.006,-1.0058 -3.735,-2.8142 -6.064,-4.0187 -2.33,-1.2046 -6.374,-3.6411 -8.987,-5.4146 -2.613,-1.7734 -5.379,-3.4336 -6.146,-3.6893 -0.767,-0.2556 -2.507,-3.7511 -3.867,-7.7676 -2.317,-6.8468 -2.332,-7.4577 -0.229,-9.7826 2.946,-3.2582 12.005,-7.8433 13.577,-6.8719 0.679,0.4196 2.423,0.021 3.875,-0.8864 1.983,-1.2384 3.41,-1.2801 5.726,-0.1674 9.641,4.6307 19.767,6.1255 19.767,2.9181 0,-2.6231 4.15,-0.9805 5.324,2.1072 0.701,1.8448 2.745,3.6734 4.637,4.1483 3.878,0.9732 3.92,1.0728 1.839,4.4047 -1.953,3.1264 -0.463,7.3754 2.223,6.3443 1.322,-0.507 1.991,0.064 1.991,1.6999 0,2.9604 -3.338,6.0283 -5.264,4.8379 -0.783,-0.4836 -1.075,-0.062 -0.677,0.9767 1.975,5.1445 -11.25,13.9989 -17.41,11.6569 -2.032,-0.7727 -3.541,-0.7541 -4.038,0.05 -1.139,1.8428 -4.151,1.5811 -6.277,-0.5452 z m 564.358,-12.4061 c -1.621,-1.6209 -0.922,-3.0425 1.112,-2.2619 1.101,0.4225 2.002,1.3044 2.002,1.9599 0,1.3991 -1.839,1.5774 -3.114,0.302 z m -12.711,-13.8323 c -1.73,-0.722 -4.733,-1.2649 -6.672,-1.2065 -6.307,0.1899 -8.842,-0.9375 -10.104,-4.4927 -1.486,-4.1859 0.729,-9.986 4.231,-11.082 3.713,-1.1619 10.266,-4.8636 11.264,-6.3622 0.516,-0.7743 1.922,0.395 3.242,2.6958 2.095,3.6499 2.695,3.9263 5.896,2.718 3.045,-1.1496 4.271,-0.7803 8.435,2.5418 2.679,2.1377 4.871,4.5874 4.871,5.4437 0,0.8563 0.751,1.8469 1.668,2.2012 0.917,0.3544 0,0.5515 -2.055,0.438 -2.047,-0.1134 -4.29,-1.104 -4.984,-2.2012 -1.836,-2.9046 -1.701,0.7714 0.156,4.2414 0.802,1.4985 0.953,3.2112 0.334,3.806 -1.875,1.8036 -12.927,2.658 -16.282,1.2587 z m -241.737,-51.79406 c -3.274,-1.6179 -4.538,-3.05643 -4.228,-4.81326 0.243,-1.37814 -0.334,-3.95599 -1.283,-5.72856 -1.442,-2.69584 -1.391,-3.80582 0.312,-6.78785 1.201,-2.10197 2.974,-3.40082 4.32,-3.16496 1.255,0.22001 4.115,-0.90452 6.354,-2.49897 2.239,-1.59444 6.09,-3.35437 8.558,-3.91095 5.082,-1.14606 6.587,0.6053 6.071,7.06282 -0.262,3.27068 0.08,3.63313 2.811,2.98938 4.716,-1.1115 6.135,0.63132 6.745,8.28585 0.307,3.84455 0.269,6.70229 -0.08,6.35052 -0.352,-0.35176 -1.408,-0.002 -2.346,0.77663 -0.939,0.77891 -5.399,1.65029 -9.912,1.93639 -4.513,0.28611 -9.205,0.81052 -10.427,1.16536 -1.222,0.35484 -4.324,-0.39324 -6.893,-1.6624 z m 357.64,-20.56103 c 0,-0.91748 -1.357,-2.36098 -3.003,-3.2078 -12.926,-6.65099 -16.358,-8.12128 -17.731,-7.59463 -2.618,1.00471 -6.471,-8.66937 -4.86,-12.20413 1.051,-2.30854 0.872,-3.48939 -0.782,-5.1433 -1.181,-1.18074 -1.882,-2.31326 -1.559,-2.51672 0.323,-0.20345 2.515,-1.71907 4.871,-3.36806 2.356,-1.64898 4.951,-2.99815 5.767,-2.99815 0.816,0 2.492,-1.00804 3.724,-2.2401 2.097,-2.09713 2.271,-2.07939 2.725,0.278 0.267,1.38496 1.434,3.9664 2.594,5.73652 l 2.109,3.21841 2.291,-2.82915 c 2.927,-3.61576 3.392,-3.55772 4.424,0.55251 0.477,1.90242 2.438,4.08253 4.482,4.98389 1.998,0.88121 4.417,2.66238 5.377,3.95816 0.959,1.29577 2.477,2.35594 3.373,2.35594 2.38,0 5.494,4.16487 5.986,8.00709 l 0.427,3.33629 -2.32,-3.33629 c -1.276,-1.83495 -2.5,-3.56725 -2.72,-3.84954 -0.219,-0.28229 -2.22,0.24096 -4.446,1.16279 -3.322,1.37603 -4.046,2.44612 -4.046,5.97811 0,2.59013 -1.05,5.25192 -2.638,6.68903 -1.45,1.31282 -2.316,2.90723 -1.923,3.54312 0.393,0.63588 0.08,1.15616 -0.698,1.15616 -0.778,0 -1.418,-0.75067 -1.424,-1.66815 z m -833.3602,-19.68409 c 0.3541,-2.7984 -0.061,-4.00355 -1.3789,-4.00355 -1.037,0 -5.1874,-1.01673 -9.223,-2.25941 -5.8331,-1.79618 -7.6689,-3.05941 -8.9537,-6.16137 -0.889,-2.14608 -3.1262,-5.30204 -4.9717,-7.01324 -2.8834,-2.67371 -3.148,-3.56637 -1.881,-6.34717 1.2882,-2.8273 2.7937,-3.40127 11.9227,-4.5456 5.7465,-0.72034 11.6037,-0.89474 13.016,-0.38756 1.4123,0.50718 4.1147,0.1603 6.0053,-0.77086 1.8907,-0.93115 5.1,-2.10187 7.1318,-2.60159 3.5438,-0.87159 3.6395,-0.7647 2.3503,2.62609 -1.0579,2.78246 -0.9211,3.69692 0.643,4.29709 2.9944,1.14909 6.1668,-0.53533 5.7193,-3.03674 -0.4789,-2.67688 1.5504,-3.57193 4.2426,-1.87123 1.6768,1.0593 1.5104,1.86562 -1.1191,5.42211 -2.1894,2.96141 -2.8423,5.15948 -2.2424,7.54962 0.5349,2.13151 0.038,4.60563 -1.3514,6.72587 -1.2087,1.8447 -2.3575,4.81041 -2.5529,6.59045 -0.6203,5.65084 -5.7738,9.79063 -12.1881,9.79063 -5.5291,0 -5.6624,-0.10332 -5.1688,-4.00354 z m 361.7012,-7.20508 c 0.983,-2.27606 2.396,-3.99537 3.14,-3.82068 0.744,0.17469 1.01,-0.57597 0.591,-1.66814 -0.442,-1.15323 0,-1.99433 1.049,-2.0062 1.402,-0.0158 1.359,-0.32317 -0.191,-1.35988 -1.734,-1.16065 -1.66,-1.6002 0.558,-3.29308 2.298,-1.75413 2.754,-1.67505 4.47,0.77432 1.691,2.41432 1.629,3.03925 -0.54,5.43556 -1.347,1.48918 -2.517,3.40415 -2.598,4.25548 -0.08,0.85132 -0.24,2.55863 -0.352,3.79401 -0.142,1.56893 -1.366,2.2131 -4.059,2.13653 -3.799,-0.10803 -3.829,-0.17003 -2.068,-4.24792 z m -18.489,-7.49259 c -0.386,-1.47787 -0.265,-4.33039 0.269,-6.33895 0.91,-3.41951 1.497,-3.67719 9.221,-4.04922 9.072,-0.43688 10.445,0.95643 4.58,4.64651 -2.018,1.26993 -5.367,3.6859 -7.442,5.36883 -4.629,3.75442 -5.727,3.81624 -6.628,0.37283 z m 284.177,-75.3402 c -1.798,-4.6851 3.401,-13.93931 5.721,-10.18458 0.577,0.93297 1.432,1.64502 1.901,1.58233 0.468,-0.0627 4.5,-0.11398 8.96,-0.11398 h 8.108 l -3.104,3.79995 c -1.707,2.08997 -3.477,3.22987 -3.934,2.53311 -0.456,-0.69676 -1.657,-0.145 -2.669,1.22613 -2.122,2.87604 -13.973,3.79119 -14.983,1.15704 z m -76.83,-13.49825 c 0.06,-1.55463 0.38,-1.87085 0.806,-0.80627 0.385,0.96336 0.338,2.11438 -0.105,2.55782 -0.444,0.44345 -0.759,-0.34474 -0.701,-1.75155 z m -37.672,-2.36412 c -6.013,-1.88669 -9.714,-5.14168 -11.93,-10.49092 -1.598,-3.85751 -1.455,-4.31593 2.424,-7.78229 2.268,-2.02583 4.328,-4.73989 4.579,-6.03122 0.301,-1.55074 1.784,-2.40576 4.367,-2.51833 2.15,-0.0937 4.152,-0.89653 4.448,-1.78398 0.846,-2.53743 3.324,-1.96041 13.784,3.20913 9.544,4.71637 9.918,4.78711 16.968,3.20928 4.433,-0.9921 7.687,-1.13652 8.448,-0.37503 1.675,1.67516 0,5.68823 -2.381,5.68823 -2.67,0 -12.482,5.14433 -12.482,6.54405 0,0.63346 -1.341,1.50238 -2.98,1.93094 -4.497,1.17598 -1.247,3.49384 5.257,3.74867 3.976,0.1558 5.293,0.70586 4.796,2.00266 -0.677,1.76261 -6.286,2.30432 -18.75,1.81082 -3.296,-0.1305 -5.672,0.37661 -5.672,1.21076 0,1.78598 -4.486,1.63223 -10.876,-0.37277 z m 41.57,0.66519 c 0,-2.23034 4.564,-4.16353 6.706,-2.8401 2.334,1.4426 1.676,2.16862 -3.039,3.35193 -2.294,0.57567 -3.667,0.38396 -3.667,-0.51183 z m 85.409,-0.19163 c 1.101,-0.7115 2.602,-1.29364 3.336,-1.29364 0.734,0 0.434,0.58214 -0.667,1.29364 -1.101,0.71151 -2.602,1.29365 -3.336,1.29365 -0.734,0 -0.434,-0.58214 0.667,-1.29365 z m -87.768,-8.00709 c 0.982,-1.57307 3.112,-2.66903 5.186,-2.66903 2.134,0 4.279,-1.14298 5.447,-2.90281 1.81,-2.72616 6.436,-2.82882 6.386,-0.14173 -0.03,1.60115 -12.979,8.3826 -16.007,8.3826 -2.345,0 -2.472,-0.33274 -1.012,-2.66903 z m -506.6881,-1.22053 c -0.4297,-0.69524 -0.2124,-1.61563 0.4829,-2.04531 0.6952,-0.42968 1.6156,-0.21241 2.0453,0.48283 0.4296,0.69524 0.2124,1.61563 -0.4829,2.04531 -0.6952,0.42968 -1.6156,0.21241 -2.0453,-0.48283 z m -13.777,-8.37129 c 0.8248,-2.47449 3.6977,-2.88491 3.6977,-0.52825 0,1.16214 -0.9508,2.11298 -2.113,2.11298 -1.1621,0 -1.8752,-0.71313 -1.5847,-1.58473 z m 754.3621,-5.08784 c -0.453,-0.73399 0.147,-1.33452 1.335,-1.33452 1.187,0 1.788,0.60053 1.334,1.33452 -0.453,0.73398 -1.054,1.33451 -1.334,1.33451 -0.281,0 -0.881,-0.60053 -1.335,-1.33451 z m -556.16,-10.4776 c -0.56,-2.14244 -2.315,-2.79593 -9.601,-3.57622 -7.928,-0.84904 -14.835,-0.54859 -20.679,0.8995 -3.442,0.85309 -2.987,-3.8648 0.703,-7.28666 4.021,-3.7284 3.645,-7.58384 -0.74,-7.58384 -4.461,0 -3.3,-5.27433 2.293,-10.41987 8.124,-7.47409 10.397,-8.49729 19.374,-8.72041 7.218,-0.17943 9.053,0.27792 12.544,3.12611 2.25,1.83495 5.202,3.98991 6.561,4.78878 2.15,1.26399 2.281,2.06962 1.011,6.20761 -1.249,4.06895 -1.103,5.11106 1.007,7.22185 2.952,2.95257 2.043,8.47205 -1.395,8.47205 -3.365,0 -4.047,1.22182 -2.684,4.80802 1.018,2.67764 0.804,3.19907 -1.311,3.19907 -1.389,0 -3.397,0.33423 -4.462,0.74274 -1.193,0.45773 -2.199,-0.26317 -2.621,-1.87873 z m -12.541,-31.59368 c -0.637,-1.65968 -1.184,-1.72945 -2.961,-0.37763 -1.198,0.91202 -2.429,1.82814 -2.735,2.03584 -0.306,0.20769 1.026,0.37762 2.961,0.37762 2.603,0 3.314,-0.52845 2.735,-2.03583 z m 35.563,27.39161 c 2.613,-1.68895 4.38,-1.68895 3.336,0 -0.454,0.73399 -1.84,1.32532 -3.082,1.31408 -1.944,-0.0176 -1.98,-0.19922 -0.254,-1.31408 z m 560.496,-10.75539 c -1.101,-0.69126 -3.654,-1.84215 -5.672,-2.55752 -3.885,-1.37679 -5.014,-4.03578 -1.713,-4.03578 3.355,0 11.388,4.41018 11.388,6.25249 0,2.02257 -1.167,2.12189 -4.003,0.34081 z m -552.35,-1.14099 c -1.062,-0.67249 -1.497,-2.13401 -1.011,-3.40044 0.469,-1.22157 1.416,-1.87291 2.104,-1.44743 0.689,0.42549 1.629,0.16328 2.09,-0.58267 0.857,-1.38636 8.688,-1.94973 8.688,-0.62502 0,1.18588 -7.22,7.18952 -8.674,7.21322 -0.734,0.012 -2.173,-0.50899 -3.197,-1.15766 z m 527.079,-2.51592 c -0.09,-4.92126 -3.137,-11.67672 -5.729,-12.71933 -0.933,-0.37535 -0.145,-0.72988 1.752,-0.78782 4.361,-0.13328 5.615,-1.36562 3.717,-3.65249 -1.754,-2.11291 0.635,-5.79447 3.76,-5.79447 1.357,0 1.8,1.23892 1.505,4.20489 -0.249,2.49711 0.258,4.43929 1.249,4.78202 0.975,0.33738 1.668,-0.54507 1.668,-2.12437 0,-3.3718 2.405,-4.99129 4.42,-2.97631 1.135,1.13492 1.106,2.1796 -0.116,4.13606 -2.286,3.66086 -2.037,5.53152 0.7,5.25307 5.493,-0.55876 6.179,-0.0335 3.632,2.78138 -1.35,1.49138 -5.097,3.37696 -8.326,4.19019 -3.853,0.97027 -6.263,2.44668 -7.01,4.2946 -0.975,2.41348 -1.15,2.18656 -1.222,-1.58742 z m 100.726,-44.39618 c 0.485,-0.78429 -0.379,-1.75375 -1.923,-2.15741 -3.339,-0.87335 -3.429,-1.32133 -0.789,-3.96099 2.636,-2.63575 1.378,-4.46789 -3.068,-4.46789 -1.961,0 -6.791,-1.3368 -10.732,-2.97066 l -7.168,-2.97066 0.702,-5.23245 c 0.497,-3.70205 0.09,-5.8419 -1.382,-7.31619 -1.888,-1.88865 -1.785,-2.16258 1.102,-2.92578 9.147,-2.41796 14.368,-2.57561 16.447,-0.49662 1.16,1.16039 1.784,2.63593 1.387,3.27896 -0.399,0.64543 2.136,0.83068 5.659,0.41354 l 6.382,-0.75562 1.82,6.16577 c 1.203,4.07745 1.379,6.7259 0.518,7.81959 -0.716,0.90961 -1.706,3.45543 -2.2,5.65738 -1.579,7.04685 -3.744,11.34337 -5.716,11.34337 -1.056,0 -1.523,-0.64095 -1.039,-1.42434 z m 17.293,-14.58984 c 0.454,-0.73398 1.991,-1.33451 3.416,-1.33451 1.424,0 2.59,0.60053 2.59,1.33451 0,0.73399 -1.537,1.33452 -3.415,1.33452 -1.937,0 -3.058,-0.57763 -2.591,-1.33452 z m -523.581,-3.97559 c -5.993,-3.34681 -6.473,-3.96852 -4.18,-5.41814 3.798,-2.40192 7.972,-1.44462 9.336,2.14078 2.523,6.63691 1.745,7.13124 -5.156,3.27736 z m -26.239,-5.59248 c -2.936,-1.52765 -5.569,-2.98319 -5.851,-3.23452 -1.014,-0.90288 2.816,-8.40671 5.506,-10.78857 2.707,-2.39669 2.734,-2.37878 1.854,1.23804 -0.732,3.01023 -0.445,3.66992 1.595,3.66992 3.652,0 7.657,-4.82605 5.831,-7.02593 -0.794,-0.95701 -0.96,-2.51805 -0.369,-3.47406 0.875,-1.41671 2.11,-1.38555 6.71,0.16935 5.217,1.76349 5.474,2.06804 3.455,4.08684 -1.199,1.19975 -3.145,2.7208 -4.323,3.38012 -1.358,0.76002 -1.814,2.05436 -1.245,3.53651 0.698,1.81998 1.905,2.1742 5.447,1.59933 6.459,-1.04806 10.589,0.18041 8.613,2.56164 -0.84,1.01132 -3.104,1.85196 -5.033,1.86808 -1.928,0.0161 -6.124,1.21718 -9.324,2.66903 -6.979,3.16679 -6.26,3.18108 -12.866,-0.25578 z m 50.045,1.56098 c 0,-0.73398 0.901,-1.33451 2.001,-1.33451 1.101,0 2.002,0.60053 2.002,1.33451 0,0.73399 -0.901,1.33452 -2.002,1.33452 -1.1,0 -2.001,-0.60053 -2.001,-1.33452 z m 498.441,-1.66814 c -1.119,-2.74307 0,-6.33894 1.96,-6.33894 1.605,0 1.639,2.23984 0.09,6.00531 -1.007,2.45014 -1.175,2.4775 -2.051,0.33363 z m -32.028,-13.01152 c 0.453,-0.73398 1.089,-1.33451 1.413,-1.33451 0.324,0 0.588,0.60053 0.588,1.33451 0,0.73398 -0.636,1.33452 -1.413,1.33452 -0.777,0 -1.042,-0.60054 -0.588,-1.33452 z m -961.5183,-6.14222 c -2.5689,-1.84917 -5.8718,-4.85856 -7.3398,-6.68751 -1.4679,-1.82896 -3.5698,-3.50323 -4.6708,-3.72061 -4.6681,-0.92165 -6.2801,-2.44064 -6.2305,-5.87075 0.029,-1.98107 -0.4179,-5.22728 -0.9923,-7.21379 -1.2187,-4.21441 0.2216,-4.82307 12.9952,-5.49147 4.2759,-0.22373 8.1793,-1.01321 8.6744,-1.7544 1.2319,-1.84425 5.5709,-3.34201 5.5709,-1.92297 0,0.63138 1.6246,1.55571 3.6103,2.05407 1.9856,0.49836 4.4218,2.06479 5.4137,3.48096 0.9919,1.41617 2.6702,2.57485 3.7296,2.57485 2.3757,0 2.3764,0.16147 0.02,4.70241 -1.7228,3.32081 -1.6499,4.01878 0.7607,7.27924 2.1569,2.91739 2.4414,4.47367 1.4895,8.14732 -1.0111,3.9017 -1.9167,4.69212 -6.4324,5.61384 -11.0738,2.26038 -11.8848,2.20219 -16.599,-1.19119 z m 584.5173,-9.81149 c 0,-1.98475 -1.197,-2.79674 -5.004,-3.3955 -2.753,-0.43282 -7.207,-1.44041 -9.898,-2.2391 -2.691,-0.79869 -6.422,-1.15987 -8.291,-0.80263 -2.404,0.45959 -4.256,-0.26413 -6.333,-2.47491 -2.646,-2.81639 -2.781,-3.61955 -1.375,-8.14613 0.857,-2.76193 3.986,-7.65722 6.953,-10.87842 4.951,-5.37669 5.669,-5.73081 8.765,-4.32047 2.734,1.24577 4.093,1.10996 7.188,-0.71826 2.984,-1.76266 4.232,-1.91002 5.719,-0.67548 2.664,2.21107 1.321,8.23465 -1.836,8.23465 -2.181,0 -5.229,3.54697 -5.229,6.0844 0,0.50699 1.951,0.48778 4.337,-0.0427 2.385,-0.53047 7.039,-1.13453 10.342,-1.34236 3.303,-0.20783 8.798,-1.13732 12.211,-2.06554 7.79,-2.11884 10.84,-1.18002 9.339,2.87515 -1.364,3.68713 -6.269,5.69745 -8.383,3.43519 -2.005,-2.14682 -11.432,-1.23497 -12.365,1.19606 -0.395,1.02873 -0.04,1.87041 0.797,1.87041 0.833,0 1.109,0.40585 0.613,0.90189 -0.496,0.49603 0.253,2.14749 1.664,3.66991 3.931,4.24081 3.976,7.69359 0.128,9.68052 -5.101,2.63343 -9.342,2.24904 -9.342,-0.8467 z m 21.352,-7.94851 c 0,-1.23238 8.851,-5.81353 14.346,-7.42528 1.652,-0.4844 2.994,-0.38985 2.983,0.2101 -0.04,2.1733 -2.05,3.76936 -5.318,4.22489 -1.835,0.25578 -3.816,1.30671 -4.403,2.33541 -1.172,2.05267 -7.608,2.60672 -7.608,0.65488 z m 129.448,-24.75253 c 0,-0.49377 0.649,-2.10931 1.441,-3.59008 1.099,-2.0527 0.978,-3.22076 -0.509,-4.9167 -3.505,-3.99719 -3.798,-7.51454 -0.887,-10.63903 3.16,-3.39168 8.314,-4.06363 7.111,-0.92696 -0.5,1.30221 0.03,2.00178 1.532,2.00178 1.663,0 2.101,-0.75888 1.583,-2.74228 -0.929,-3.54929 4.279,-5.72061 10.101,-4.21192 4.836,1.25313 6.258,3.90926 2.76,5.15457 -2.814,1.00151 -7.117,4.47359 -7.117,5.74203 0,0.47284 2.098,0.61467 4.664,0.31517 6.099,-0.71206 9.708,0.58728 7.569,2.72565 -2.852,2.85245 -1.802,6.15646 2.101,6.60691 5.457,0.62981 5.468,4.3515 0.01,4.7346 -3.378,0.2373 -4.698,-0.3554 -5.702,-2.55987 -2.17,-4.7643 -5.418,-6.00883 -8.471,-3.24597 -1.457,1.31881 -4.645,2.87582 -7.084,3.46001 -2.439,0.5842 -5.486,1.49591 -6.77,2.02602 -1.285,0.53011 -2.336,0.55984 -2.336,0.0661 z m -331.52,-43.25441 c -0.395,-0.63918 -2.597,-1.53797 -4.894,-1.99731 -2.954,-0.59085 -3.955,-1.41073 -3.421,-2.80278 0.415,-1.08219 -0.27,-2.89707 -1.523,-4.03308 -1.254,-1.136 -4.254,-4.00591 -6.667,-6.37756 -4.26,-4.18608 -4.445,-4.23639 -6.339,-1.72164 -1.644,2.18214 -2.342,5.8331 -1.837,9.6046 0.153,1.14671 -3.049,3.10607 -5.119,3.13142 -0.917,0.0112 -1.668,-1.44545 -1.668,-3.23709 0,-4.76044 -1.847,-5.19065 -8.762,-2.04063 -8.367,3.81174 -8.812,3.19785 -3.903,-5.37796 1.794,-3.1334 1.707,-3.40492 -1.436,-4.46485 -2.629,-0.88685 -3.156,-1.72865 -2.457,-3.93028 3.23,-10.17552 9.391,-14.16762 23.566,-15.26769 9.902,-0.76852 19.683,3.39957 19.683,8.38799 0,1.75579 1.138,3.77955 2.551,4.53581 2.203,1.17868 2.518,2.73717 2.305,11.39033 -0.228,9.24835 -0.04,10.02639 2.453,10.04524 1.485,0.0112 3.6,0.61177 4.701,1.33452 1.78,1.16807 1.78,1.46009 0,2.62816 -2.491,1.63552 -6.279,1.73648 -7.233,0.1928 z m 448.196,-12.8829 c -1.038,-5.53629 -4.873,-8.64171 -10.672,-8.64171 -2.477,0 -5.15,-1.08622 -6.591,-2.67814 -1.333,-1.47297 -3.362,-2.5239 -4.509,-2.3354 -1.649,0.27101 -1.998,-0.74402 -1.668,-4.84993 0.368,-4.57516 0.126,-5.07917 -2.037,-4.23829 -7.431,2.89025 -6.308,-1.81157 2.608,-10.92039 7.35,-7.50881 10.124,-8.57979 11.233,-4.33717 0.384,1.46796 1.79,2.66903 3.125,2.66903 1.334,0 3.991,0.59485 5.903,1.3219 2.97,1.12893 3.268,1.71337 2.042,4.00354 -1.195,2.23304 -1.026,2.68165 1.014,2.68165 1.347,0 3.17,-0.72064 4.05,-1.60142 1.246,-1.24555 1.602,-0.46708 1.602,3.5031 0,4.95995 0.113,5.08184 4.003,4.30381 2.46,-0.49198 4.004,-0.24819 4.004,0.63228 0,0.78814 -1.802,3.11593 -4.004,5.17286 -2.202,2.05693 -3.999,4.2496 -3.995,4.87259 0,0.623 1.806,2.15573 4.004,3.40606 2.395,1.3629 3.995,3.36709 3.995,5.00443 0,3.09255 -0.501,3.27101 -3.971,1.41405 -1.607,-0.86023 -2.217,-2.24887 -1.758,-4.00355 0.762,-2.91724 -1.499,-3.69209 -3.12,-1.06892 -0.55,0.88966 -0.867,3.59205 -0.705,6.00531 0.419,6.2204 -3.376,5.95725 -4.553,-0.31569 z m -427.618,0.6999 c 0,-1.51648 -0.889,-2.66903 -2.06,-2.66903 -1.133,0 -1.963,-0.75067 -1.843,-1.66815 0.526,-4.05188 -0.398,-6.20606 -4.93,-11.5006 -2.656,-3.10314 -4.479,-5.99225 -4.051,-6.42023 1.289,-1.28861 10.077,3.49141 11.579,6.29789 0.77,1.43823 2.244,2.61497 3.275,2.61497 3.064,0 3.465,2.04641 1.809,9.22114 -1.563,6.77269 -3.779,9.19049 -3.779,4.12401 z m 447.284,-13.53014 c 0.245,-1.73321 1.047,-3.00117 1.781,-2.81767 1.97,0.4925 1.622,4.68615 -0.446,5.37549 -1.221,0.40688 -1.641,-0.39735 -1.335,-2.55782 z m -2.459,-8.62404 c -0.451,-1.17506 0.02,-2.66719 1.043,-3.31586 3.658,-2.31644 4.762,-1.10895 3.054,3.3414 -1.043,2.71732 -3.05,2.70481 -4.097,-0.0255 z m -190.6,-16.13683 c -7.246,-0.94962 -7.967,-1.50829 -5.486,-4.24982 2.875,-3.17636 8.037,-2.2284 10.796,1.98243 1.531,2.33545 1.636,3.13833 0.393,2.99203 -0.934,-0.10998 -3.501,-0.43606 -5.703,-0.72464 z m -25.084,-7.24873 c -4.098,-4.67118 -3.105,-7.84086 2.457,-7.84086 1.929,0 4.766,-1.98244 7.638,-5.33806 2.513,-2.93593 5.227,-5.33806 6.031,-5.33806 2.885,0 2.782,2.30163 -0.308,6.8491 -2.133,3.13869 -2.922,5.78465 -2.455,8.23002 0.5,2.61508 0.142,3.60409 -1.305,3.60409 -1.096,0 -2.741,0.9008 -3.655,2.00177 -2.455,2.95788 -4.329,2.47429 -8.403,-2.168 z m -101.685,1.51603 c -0.467,-0.75648 0.07,-0.98021 1.256,-0.52448 2.312,0.88718 2.735,1.84371 0.815,1.84371 -0.691,0 -1.623,-0.59365 -2.071,-1.31923 z m -16.387,-5.35334 c -0.38,-1.10098 -1.955,-3.03935 -3.5,-4.3075 -2.42,-1.98618 -2.491,-2.30984 -0.515,-2.3354 3.162,-0.0409 13.053,-5.33213 13.053,-6.983 0,-0.74721 -2.038,-1.10789 -4.582,-0.81093 -3.593,0.41949 -4.359,0.13851 -3.552,-1.30284 0.602,-1.07572 3.884,-2.03519 7.917,-2.31404 6.37,-0.44048 8.762,0.72479 5.555,2.70679 -0.734,0.45362 -1.335,1.92614 -1.335,3.27226 0,1.34612 -0.9,2.79316 -2.001,3.21565 -2.581,0.99042 -2.547,4.11753 0.09,8.14024 l 2.091,3.19087 -6.264,-0.23517 c -4.213,-0.15816 -6.49,-0.89061 -6.955,-2.23693 z m 48.406,1.33451 c 0.454,-0.73398 1.09,-1.33451 1.413,-1.33451 0.324,0 0.589,0.60053 0.589,1.33451 0,0.73398 -0.636,1.33452 -1.414,1.33452 -0.777,0 -1.042,-0.60054 -0.588,-1.33452 z m 90.407,-0.33363 c 0.302,-0.91748 1.975,-1.87595 3.717,-2.12994 2.766,-0.40318 2.943,-0.19146 1.4,1.66814 -2.09,2.51827 -5.908,2.86283 -5.117,0.4618 z m -110.856,-7.07669 c 0.603,-2.89872 2.972,-3.07609 3.513,-0.26314 0.282,1.46077 -0.373,2.3354 -1.747,2.3354 -1.282,0 -2.018,-0.86321 -1.766,-2.07226 z m 15.821,-3.18481 c -0.842,-1.57413 -0.896,-2.8897 -0.139,-3.35805 1.307,-0.80778 1.819,-0.22809 3.185,3.61069 1.13,3.17456 -1.32,2.97134 -3.046,-0.25264 z m 77.359,-2.75002 c 0,-0.73398 0.901,-1.33451 2.002,-1.33451 1.101,0 2.002,0.60053 2.002,1.33451 0,0.73399 -0.901,1.33452 -2.002,1.33452 -1.101,0 -2.002,-0.60053 -2.002,-1.33452 z m -99.476,-1.4233 c -1.437,-2.32398 0.199,-2.81615 2.03,-0.61072 1.052,1.2683 1.153,2.03402 0.269,2.03402 -0.781,0 -1.815,-0.64048 -2.299,-1.4233 z m 263.099,-85.08548 c -0.471,-0.76163 -0.205,-1.78667 0.589,-2.27788 1.984,-1.2257 2.686,-0.25089 1.362,1.89069 -0.709,1.14732 -1.397,1.28381 -1.951,0.38719 z m -231.578,-1.31433 c -0.06,-0.9608 -0.732,-1.3595 -1.498,-0.886 -0.766,0.4735 -2.264,0.1378 -3.329,-0.746 -1.065,-0.8838 -3.248,-1.26392 -4.851,-0.8447 -2.051,0.53636 -3.844,-0.24066 -6.052,-2.62225 -2.689,-2.90163 -3.873,-3.26005 -8.298,-2.51232 -3.161,0.53397 -5.505,0.31818 -6.046,-0.55653 -0.485,-0.78577 -2.008,-1.42868 -3.383,-1.42868 -3.853,0 -4.337,-4.27004 -1.269,-11.20554 3.312,-7.48783 5.218,-8.47847 10.961,-5.69669 2.72,1.31779 4.777,1.62041 5.577,0.8206 1.839,-1.83773 4.382,-1.56153 8.109,0.88069 4.34,2.84356 3.003,4.68418 -2.024,2.78667 -3.052,-1.15204 -4.367,-1.11434 -5.643,0.16181 -1.329,1.32868 -1.064,1.8207 1.316,2.44296 1.639,0.42856 2.98,1.39095 2.98,2.13866 0,0.74771 1.501,2.75085 3.336,4.45143 1.835,1.70059 3.345,3.87131 3.357,4.82384 0.04,3.11996 2.15,5.17573 4.423,4.30331 1.226,-0.47038 2.229,-1.81189 2.229,-2.98113 0,-1.56058 0.395,-1.7311 1.484,-0.64125 1.054,1.05357 1.085,2.58415 0.106,5.27134 -0.759,2.08267 -1.427,3.00057 -1.485,2.03978 z m 18.041,-3.90553 c -1.757,-1.75743 -0.641,-4.35643 1.871,-4.35643 1.468,0 2.669,0.83655 2.669,1.85899 0,2.01303 -3.241,3.79612 -4.54,2.49744 z m 202.699,-3.35554 c -1.146,-2.61171 -2.142,-2.945 -7.648,-2.55977 -5.778,0.40425 -6.446,0.13933 -7.653,-3.03686 -0.728,-1.91386 -2.179,-3.80808 -3.225,-4.20937 -1.046,-0.40129 -2.29,-2.28066 -2.766,-4.17639 -0.962,-3.83074 0.819,-5.64828 5.566,-5.68127 2.267,-0.0158 3.258,1.12449 4.329,4.98399 0.765,2.75244 1.394,5.80281 1.398,6.77861 0.01,2.65763 7.95,0.54358 11.026,-2.93602 l 2.512,-2.8417 -0.788,3.68143 c -0.459,2.14237 0.04,5.27961 1.188,7.50426 1.087,2.10256 1.6,4.19924 1.14,4.65929 -1.673,1.67299 -3.791,0.7695 -5.079,-2.1662 z m 18.033,-0.92213 c 0,-0.69067 0.6,-1.62691 1.334,-2.08053 0.734,-0.45363 1.335,0.11146 1.335,1.25575 0,1.1443 -0.601,2.08053 -1.335,2.08053 -0.734,0 -1.334,-0.56509 -1.334,-1.25575 z m -241.466,-3.31714 c -2.021,-2.43517 1.174,-4.88856 5.047,-3.87569 3.554,0.92931 3.19,3.10998 -0.762,4.57207 -1.839,0.68034 -3.346,0.43552 -4.285,-0.69638 z m 13.264,-6.0133 c 0,-2.96494 4.447,-3.94515 6.06,-1.33565 1.06,1.71527 0.799,1.98625 -3.057,3.17164 -2.444,0.75102 -3.003,0.40895 -3.003,-1.83599 z m -463.4391,152.71203 c 4.513,-8.46561 12.0681,-37.51918 17.0051,-65.39123 1.17,-6.60585 2.669,-14.71303 3.33,-18.01595 0.661,-3.30292 1.557,-8.19065 1.991,-10.86162 0.713,-4.39341 1.664,-5.31625 9.971,-9.68174 5.199,-2.73201 10.106,-4.47119 11.311,-4.00889 1.17,0.44909 2.128,0.14204 2.128,-0.68235 0,-0.82438 2.252,-2.51636 5.004,-3.75996 2.753,-1.24359 5.905,-2.97377 7.006,-3.84484 1.101,-0.87107 7.387,-1.9942 13.968,-2.49583 6.581,-0.50164 13.121,-1.53039 14.534,-2.28612 1.455,-0.77906 5.998,-1.03872 10.49,-0.59965 7.093,0.69327 11.445,1.63005 29.43,6.3345 2.767,0.72393 5.581,0.97687 6.252,0.56209 0.671,-0.41479 3.811,-0.1802 6.979,0.52132 3.167,0.70151 9.962,1.59925 15.1,1.99498 13.583,1.04622 25.334,2.98992 28.581,4.72767 1.559,0.83441 3.273,1.27745 3.808,0.98453 0.536,-0.29292 6.679,0.31804 13.651,1.35771 19.687,2.93525 44.109,3.75737 45.519,1.53228 0.632,-0.99747 1.158,-2.20293 1.169,-2.6788 0.02,-1.06999 -20.156,-14.44088 -21.999,-14.57485 -0.734,-0.0534 -2.235,-0.89718 -3.336,-1.87513 -1.101,-0.97795 -5.709,-3.56332 -10.239,-5.74526 -4.53,-2.18195 -9.935,-5.12372 -12.01,-6.53727 -2.076,-1.41355 -7.678,-4.59052 -12.449,-7.05992 -4.771,-2.4694 -8.974,-4.89757 -9.341,-5.39593 -0.367,-0.49837 -2.216,-1.74949 -4.108,-2.78028 -1.892,-1.03079 -6.224,-3.67575 -9.626,-5.8777 -3.403,-2.20195 -9.929,-6.10541 -14.503,-8.67435 -4.573,-2.56894 -10.884,-6.8772 -14.025,-9.57391 -3.14,-2.6967 -6.851,-5.26542 -8.246,-5.70825 -1.395,-0.44283 -5.355,-4.39222 -8.799,-8.77642 -3.445,-4.38421 -7.37,-8.56361 -8.722,-9.28758 -2.633,-1.40905 -2.356,-6.19565 0.504,-8.69106 0.841,-0.73398 2.914,-3.13611 4.607,-5.33806 3.79,-4.9299 9.377,-7.10562 18.586,-7.2383 6.282,-0.0905 7.479,-0.5932 11.026,-4.63374 2.749,-3.13042 5.522,-4.75808 8.967,-5.26248 2.744,-0.40165 7.09,-1.09538 9.659,-1.54162 2.569,-0.44624 8.574,-1.41011 13.345,-2.14194 8.624,-1.32285 8.674,-1.35573 8.656,-5.65575 -0.01,-3.38048 -1.254,-5.44065 -5.672,-9.43231 -3.109,-2.80892 -5.653,-5.48869 -5.653,-5.95503 0,-1.83012 11.592,-6.85583 15.806,-6.85233 3.269,0.003 4.64,-0.67664 5.127,-2.54194 0.784,-2.99459 4.123,-4.08369 12.6,-4.1087 8.103,-0.0239 11.012,-3.01928 5.596,-5.76208 -2.07,-1.04859 -6.162,-2.34157 -9.092,-2.87329 -2.93,-0.53172 -5.884,-1.31047 -6.564,-1.73056 -1.266,-0.78268 -12.436,-1.67761 -23.915,-1.91602 -4.325,-0.0898 -8.938,1.00266 -14.012,3.31839 -4.161,1.89877 -14.772,6.29513 -23.58,9.76967 -8.807,3.47455 -16.614,6.7387 -17.348,7.25366 -0.734,0.51496 -6.139,3.45017 -12.011,6.5227 -7.831,4.09761 -13.437,8.40908 -21.037,16.17784 -5.698,5.82528 -11.436,10.59143 -12.752,10.59143 -1.315,0 -4.426,1.50132 -6.914,3.33628 -5.359,3.95398 -7.065,4.11332 -10.715,1.00089 -1.507,-1.28447 -4.066,-2.3354 -5.687,-2.3354 -2.297,0 -3.221,-1.10509 -4.184,-5.00443 -1.144,-4.6311 -1.592,-5.00127 -6.006,-4.96199 -2.623,0.0233 -5.884,0.8874 -7.247,1.92014 -2.176,1.64779 -2.824,1.5563 -5.297,-0.74718 -1.549,-1.44367 -4.637,-3.09634 -6.86,-3.67258 -2.45,-0.63469 -4.229,-2.06667 -4.513,-3.63244 -0.258,-1.4216 -1.57,-3.78579 -2.915,-5.25376 -3.262,-3.5578 -5.2478,-9.00506 -6.811,-18.68321 -1.1234,-6.95554 -2.0001,-8.62049 -6.6755,-12.67789 -4.1481,-3.59977 -5.8138,-6.33968 -7.2644,-11.94884 -1.2501,-4.83404 -1.4356,-7.72451 -0.5525,-8.60762 3.0602,-3.06024 0.1788,-21.64917 -3.5794,-23.09131 -1.7741,-0.68082 -8.4362,-19.90263 -8.4362,-24.34081 0,-1.35276 -1.2886,-6.57641 -2.8636,-11.60812 -3.5972,-11.49206 -3.5566,-28.42629 0.1276,-53.18753 3.7818,-25.41726 4.4645,-33.88244 4.4823,-55.57158 0.016,-19.88018 -1.8272,-31.441871 -5.2209,-32.744161 -2.4309,-0.932819 -9.8687,3.732848 -9.8793,6.197173 0,1.126218 -1.202,3.849265 -2.6603,6.051214 -1.4583,2.20195 -2.6554,4.778526 -2.6602,5.725726 0,0.9472 -1.1582,3.349327 -2.5631,5.338058 -5.5737,7.89002 -15.6321,44.1553 -18.7693,67.6726 -0.7834,5.87186 -2.069,14.39303 -2.857,18.93593 -0.788,4.5429 -1.135,8.74662 -0.7713,9.3416 0.3638,0.59499 0.068,8.88871 -0.6565,18.43049 -0.7249,9.54178 -1.3058,17.94922 -1.2909,18.68321 0.453,22.34751 1.6683,56.31887 2.1913,61.25439 0.3812,3.5966 1.9611,10.79709 3.5109,16.00109 1.5498,5.204 2.9924,13.07089 3.2057,17.48199 0.3533,7.30496 1.7696,18.94516 4.0862,33.58297 1.0605,6.70139 -2.5257,17.33778 -6.2436,18.51779 -1.3561,0.43041 -5.3344,4.14195 -8.8407,8.24786 -7.6177,8.92029 -18.96,14.62336 -32.4526,16.31755 -4.8532,0.60939 -10.6209,2.03717 -12.817,3.17284 -2.1962,1.13568 -6.354,2.37311 -9.2396,2.74986 -12.8351,1.67578 -22.9336,3.42542 -27.0539,4.68731 -7.1434,2.18776 -25.3764,18.18227 -37.3302,32.74724 -4.1735,5.08509 -12.0921,14.39333 -17.597,20.68499 -5.5049,6.29165 -12.3567,14.92533 -15.2262,19.18594 -4.8365,7.18119 -5.0575,7.90637 -3.0277,9.93617 2.0298,2.02981 2.5903,1.97577 7.6789,-0.74036 3.019,-1.61148 6.2999,-2.92997 7.2909,-2.92997 3.1961,0 20.9903,-8.70046 32.2952,-15.79073 6.0473,-3.79281 11.5297,-6.89602 12.183,-6.89602 0.6533,0 4.7134,-1.54921 9.0225,-3.44268 4.3091,-1.89347 9.0358,-3.94921 10.5038,-4.56831 1.468,-0.6191 8.2243,-1.43305 15.0141,-1.80878 12.1815,-0.67409 12.4957,-0.61356 23.7119,4.56831 6.2517,2.8883 12.0376,5.25146 12.8576,5.25146 1.8181,0 7.1577,5.61942 9.4553,9.95072 0.9258,1.74536 3.852,5.50902 6.5025,8.36368 6.1553,6.62916 6.6436,7.59775 12.2973,24.39007 7.5273,22.35709 8.651,25.14523 16.9684,42.10152 4.3378,8.84316 8.0821,17.35761 8.3207,18.92101 0.2385,1.56339 1.7176,3.93659 3.2868,5.27376 1.5691,1.33718 4.4714,5.43389 6.4494,9.10381 4.7124,8.74312 12.2647,18.01595 14.6733,18.01595 1.0518,0 1.9404,0.75066 1.9747,1.66814 0.034,0.91748 2.6352,-5.8385 5.78,-15.01329 3.1447,-9.17479 6.358,-17.8825 7.1405,-19.35047 z m -13.4276,-307.16085 c -0.4894,-0.48932 -0.8897,-1.51022 -0.8897,-2.26867 0,-0.83621 0.6216,-0.75742 1.5792,0.20018 0.8685,0.86854 1.2689,1.88945 0.8896,2.26867 -0.3792,0.37923 -1.0898,0.28915 -1.5791,-0.20018 z m -1.3723,-7.78467 c 0.4225,-1.10097 1.0042,-2.00177 1.2926,-2.00177 0.2885,0 0.5245,0.9008 0.5245,2.00177 0,1.10098 -0.5817,2.00178 -1.2926,2.00178 -0.711,0 -0.947,-0.9008 -0.5245,-2.00178 z m 774.369,115.35376 c -2.587,-1.5985 -3.218,-0.34532 -1.108,2.19764 1.287,1.55086 1.967,1.70826 2.355,0.54516 0.3,-0.89935 -0.262,-2.13361 -1.247,-2.7428 z m -25.224,-22.60497 c 0,-0.73398 -0.6,-1.33452 -1.334,-1.33452 -0.734,0 -1.335,0.60054 -1.335,1.33452 0,0.73398 0.601,1.33451 1.335,1.33451 0.734,0 1.334,-0.60053 1.334,-1.33451 z m -555.158,-113.43377 c 0,-0.73398 -0.6,-1.33451 -1.334,-1.33451 -0.734,0 -1.335,0.60053 -1.335,1.33451 0,0.73399 0.601,1.33452 1.335,1.33452 0.734,0 1.334,-0.60053 1.334,-1.33452 z"
       id="path23" />
  </g>
</svg>
