<?xml version="1.0" encoding="UTF-8" standalone="no"?>
<!-- Created with Inkscape (http://www.inkscape.org/) -->

<svg
   version="1.1"
   id="svg1"
   width="1324.4989"
   height="1180.4492"
   viewBox="0 0 1324.4989 1180.4493"
   sodipodi:docname="mountain.svg"
   inkscape:version="1.4.3 (0d15f75, 2025-12-25)"
   inkscape:export-batch-name="doodles"
   xmlns:inkscape="http://www.inkscape.org/namespaces/inkscape"
   xmlns:sodipodi="http://sodipodi.sourceforge.net/DTD/sodipodi-0.dtd"
   xmlns="http://www.w3.org/2000/svg"
   xmlns:svg="http://www.w3.org/2000/svg">
  <sodipodi:namedview
     id="namedview1"
     pagecolor="#505050"
     bordercolor="#eeeeee"
     borderopacity="1"
     inkscape:showpageshadow="0"
     inkscape:pageopacity="0"
     inkscape:pagecheckerboard="0"
     inkscape:deskcolor="#505050"
     inkscape:zoom="0.36251647"
     inkscape:cx="2884.0069"
     inkscape:cy="1148.9133"
     inkscape:window-width="1920"
     inkscape:window-height="1051"
     inkscape:window-x="-9"
     inkscape:window-y="-9"
     inkscape:window-maximized="1"
     inkscape:current-layer="g2" />
  <defs
     id="defs1" />
  <g
     id="g18"
     inkscape:groupmode="layer"
     inkscape:label="18"
     transform="translate(-36161.36,-198.85608)">
    <path
       style="fill:#000000"
       d="m 36638.963,1377.9762 c -8.074,-0.9149 -21.887,-2.3582 -30.695,-3.2074 -18.636,-1.7965 -38.54,-5.7238 -52.717,-10.4019 -5.506,-1.8165 -13.02,-3.7168 -16.699,-4.2228 -3.679,-0.506 -8.166,-1.9551 -9.973,-3.2202 -1.806,-1.2652 -5.102,-2.3007 -7.324,-2.3013 -2.222,-6e-4 -7.826,-1.7918 -12.452,-3.9804 -4.627,-2.1886 -8.831,-3.8709 -9.342,-3.7383 -1.693,0.4383 -7.529,-1.9648 -12.708,-5.2332 -2.807,-1.7714 -11.515,-6.563 -19.352,-10.6481 -7.836,-4.0851 -16.35,-9.049 -18.919,-11.0309 -2.569,-1.9819 -10.076,-7.1332 -16.682,-11.4473 -12.627,-8.2453 -30.029,-24.5076 -30.029,-28.0613 0,-1.1492 -0.583,-1.7292 -1.295,-1.2888 -0.713,0.4404 -1.649,-0.608 -2.081,-2.3296 -0.433,-1.7217 -2.852,-4.2431 -5.378,-5.6032 -2.526,-1.3601 -4.592,-2.96 -4.592,-3.5554 0,-0.5954 -0.887,-0.7423 -1.971,-0.3263 -2.622,1.0063 -5.814,-5.6007 -3.717,-7.6968 1.038,-1.0381 2.326,-0.4332 4.568,2.1451 1.717,1.975 3.122,4.1433 3.122,4.8186 0,2.1247 2.648,1.4711 3.113,-0.7685 0.244,-1.1754 -1.858,-4.7458 -4.671,-7.9342 -2.813,-3.1884 -7.818,-9.1256 -11.121,-13.1939 -3.303,-4.0682 -7.957,-8.3651 -10.343,-9.5487 -2.386,-1.1836 -4.337,-3.0247 -4.337,-4.0913 0,-1.0666 -0.807,-1.9393 -1.792,-1.9393 -2.225,0 -8.174,-11.257 -6.975,-13.1977 0.482,-0.7798 -0.356,-3.6846 -1.863,-6.4551 -4.303,-7.9153 -12.506,-27.0775 -12.064,-28.1808 0.101,-0.2504 -0.768,-1.1513 -1.93,-2.0019 -1.162,-0.8507 -3.274,-5.1502 -4.694,-9.5544 -3.278,-10.1702 -7.276,-21.5815 -11.546,-32.9559 -2.678,-7.1339 -3.807,-8.7682 -5.602,-8.115 -2.093,0.7619 -2.092,0.64 0.02,-1.7743 1.476,-1.6876 1.862,-3.2482 1.106,-4.4718 -0.639,-1.0337 -1.861,-5.5844 -2.715,-10.1127 l -1.554,-8.2333 -5.122,0.9366 c -2.817,0.5152 -8.622,3.2094 -12.899,5.9871 -15.413,10.0097 -22.469,14.8302 -33.237,22.705 -6.022,4.4042 -12.967,9.1666 -15.433,10.5832 -2.466,1.4165 -9.588,5.5543 -15.827,9.1951 -16.254,9.4846 -21.301,11.3605 -35.099,13.0478 -18.529,2.2657 -19.638,2.2433 -23.085,-0.4681 -2.031,-1.5973 -4.194,-2.1964 -5.935,-1.6438 -1.507,0.4782 -3.55,0.1972 -4.54,-0.6244 -2.323,-1.9279 -1.145,-6.4261 1.939,-7.4049 1.921,-0.6097 2.258,-1.7595 1.71,-5.8412 -0.581,-4.3314 0.08,-6.148 4.443,-12.2975 5.895,-8.299 36.847,-39.4763 46.629,-46.9676 10.828,-8.2922 39.334,-29.0571 48.638,-35.4293 14.613,-10.0092 29.349,-23.0639 29.487,-26.1234 0.07,-1.5368 0.299,-22.6132 0.512,-46.83623 0.212,-24.22308 0.516,-44.04196 0.674,-44.04196 0.158,0 0.496,-2.70257 0.751,-6.00572 1.015,-13.15699 2.075,-20.57834 3.133,-21.93307 1.06,-1.35627 2.678,-13.19567 3.57,-26.11269 0.907,-13.14465 1.656,-16.87083 4.294,-21.35367 1.512,-2.56912 3.163,-7.67398 3.669,-11.34414 1.327,-9.62376 9.473,-45.41589 12.758,-56.05339 0.68,-2.2021 2.736,-9.70925 4.57,-16.68256 4.734,-18.00056 8.661,-30.28162 12.263,-38.34889 4.223,-9.45933 5.047,-14.16742 2.804,-16.0285 -1.001,-0.83105 -6.608,-1.92512 -12.46,-2.43129 -5.852,-0.50616 -15.07,-2.345 -20.486,-4.08631 -5.415,-1.74132 -11.364,-3.16603 -13.219,-3.16603 -2.199,0 -5.14,-1.85817 -8.451,-5.33842 -3.192,-3.35569 -6.276,-5.33842 -8.305,-5.33842 -6.281,0 -8.168,-8.12111 -2.319,-9.97765 1.49,-0.47286 2.717,-2.52889 3.168,-5.30653 0.869,-5.35621 4.708,-9.55485 11.225,-12.27793 2.594,-1.08387 7.117,-3.48609 10.051,-5.33826 l 5.335,-3.36758 30.871,0.45046 30.871,0.45047 7.101,-14.01335 c 13.462,-26.56642 20.731,-39.40864 29.332,-51.82483 8.471,-12.2279 8.613,-12.57923 7.872,-19.35177 -0.415,-3.79377 -2.622,-12.30291 -4.903,-18.90921 -5.25,-15.20307 -4.966,-13.80567 -5.979,-29.44569 -1.937,-29.9372 -1.17,-132.72595 1.115,-149.39132 0.302,-2.20209 0.938,-8.66252 1.413,-14.3565 0.475,-5.69399 2.094,-17.70543 3.598,-26.6921 1.504,-8.98666 2.903,-19.04197 3.107,-22.34511 0.683,-10.99667 10.445,-59.34987 12.458,-61.70231 1.088,-1.27182 2.686,-5.47583 3.551,-9.34223 1.274,-5.69186 2.318,-7.39307 5.486,-8.93832 6.736,-3.28491 16.425,-3.06105 23.933,0.55294 3.67,1.76679 12.679,4.81903 20.019,6.78277 16.014,4.28432 23.603,7.9422 32.987,15.90083 3.878,3.2893 9.453,8.03031 12.389,10.53559 12.627,10.77413 17.929,15.10372 23.471,19.16744 3.24,2.37595 10.996,8.22758 17.235,13.00361 6.239,4.77603 13.746,10.33922 16.682,12.36264 10.683,7.36206 15.496,15.62983 15.052,25.85429 -0.233,5.35403 -0.839,7.06556 -2.672,7.54476 -1.303,0.3409 -2.37,1.75091 -2.37,3.13336 0,1.38246 -0.751,2.50814 -1.668,2.50152 -0.918,-0.007 -3.18,1.82576 -5.026,4.07194 -3.16,3.84287 -3.948,4.09744 -13.355,4.31223 -5.901,0.13473 -11.789,-0.51363 -14.369,-1.58237 -2.404,-0.99585 -4.709,-1.47283 -5.122,-1.05997 -1.376,1.37581 -27.71,-13.10338 -38.534,-21.18733 -11.588,-8.65361 -13.953,-10.32614 -24.023,-16.99046 -6.298,-4.16761 -13.052,-7.51828 -10.982,-5.44792 0.522,0.52178 0.421,1.60453 -0.224,2.4061 -2.834,3.52037 -7.377,53.33705 -7.131,78.19716 0.06,6.14515 0.148,51.47551 0.113,59.05625 0,1.28456 0.07,10.06482 0.167,19.51169 0.1,9.44687 -0.219,18.75573 -0.703,20.68637 -1.652,6.58071 2.653,3.81455 9.596,-6.16564 20.237,-29.0903 68.414,-86.18064 92.722,-109.87695 39.687,-38.68794 59.754,-53.40955 99.95,-73.32364 17.428,-8.63443 22.688,-10.88739 38.703,-16.57854 13.098,-4.6544 29.767,-9.24292 38.704,-10.65403 5.505,-0.8693 13.166,-2.24517 17.024,-3.05749 3.857,-0.81232 7.387,-1.10374 7.843,-0.6476 0.456,0.45613 2.888,-0.0309 5.405,-1.08229 2.516,-1.0514 10.998,-2.25811 18.848,-2.68158 7.851,-0.42348 16.376,-1.29746 18.945,-1.94218 7.307,-1.83377 17.894,-3.79806 36.701,-6.80932 21.752,-3.4828 75.577,-4.93626 96.759,-2.61286 7.707,0.84538 18.709,2.04689 24.447,2.67002 5.738,0.62313 12.044,1.7199 14.013,2.43727 6.702,2.44181 14.244,4.14517 21.417,4.8374 7.596,0.73289 16.528,4.411 21.134,8.70179 1.532,1.42703 3.039,2.34075 3.349,2.03049 0.31,-0.31026 2.627,0.0905 5.147,0.89052 2.521,0.80005 6.728,1.62269 9.351,1.82809 5.248,0.41106 19.049,6.47833 22.446,9.86796 1.186,1.1834 7.559,4.76516 14.163,7.95947 6.604,3.19432 18.551,9.11789 26.55,13.1635 13.528,6.84228 14.634,7.1821 15.841,4.86899 2.064,-3.95632 23.645,-24.16679 31.415,-29.41985 7.259,-4.90832 31.372,-22.95217 34.96,-26.16089 11.118,-9.9444 30.758,-26.45448 35.272,-29.65141 3.109,-2.20209 9.507,-7.33129 14.218,-11.3982 11.731,-10.12789 21.787,-17.41921 33.908,-24.58481 9.845,-5.82101 10.659,-6.05703 20.868,-6.05703 h 10.624 l 6.421,6.00572 c 5.453,5.10116 7.246,6.00572 11.902,6.00572 6.073,0 5.483,-1.05281 9.63,17.15564 2.691,11.81742 -0.193,35.95085 -8.796,73.59747 -2.6,11.37751 -5.643,25.19066 -6.762,30.69591 -3.752,18.46038 -8.711,40.62622 -9.304,41.58563 -1.346,2.17798 -4.775,27.28185 -6.479,47.43482 -1.005,11.89261 -2.219,22.25682 -2.698,23.03158 -0.801,1.29578 1.944,5.05445 13.633,18.66851 4.409,5.13521 29.708,42.36411 29.708,43.71715 0,0.40922 1.983,3.51833 4.408,6.90914 2.424,3.39081 5.817,9.16797 7.54,12.83813 1.722,3.67017 4.449,8.47474 6.058,10.67684 5.81,7.94777 29.825,59.05358 34.493,73.40325 5.366,16.49718 13.099,49.37814 14.817,63.00107 0.704,5.58785 2.659,49.721 2.608,58.88668 -0.03,4.67255 -0.695,7.53346 -1.951,8.34128 -1.619,1.04175 -1.628,1.41131 -0.06,2.41989 2.697,1.73816 1.999,20.15909 -1.363,35.96277 -1.509,7.09199 -2.936,15.29682 -3.172,18.23295 -0.643,8.02893 -3.014,22.25111 -6.563,39.37083 -1.749,8.44138 -3.59,18.6511 -4.091,22.68828 -1.709,13.7915 -11.146,45.65193 -26.803,90.49574 l -4.337,12.42137 3.507,1.33339 c 1.929,0.73336 6.532,1.91356 10.229,2.62265 8.783,1.68447 34.783,8.89294 62.776,17.40479 18.732,5.69566 20.347,6.40715 21.102,9.2918 0.368,1.40796 1.592,2.55993 2.72,2.55993 9.462,0 20.415,17.75999 13.416,21.75359 -1.029,0.587 -1.871,2.1981 -1.871,3.5803 0,1.44 -1.282,2.911 -3.003,3.4453 -1.651,0.5128 -4.892,3.0365 -7.2,5.6081 -3.532,3.9345 -4.78,4.5298 -7.867,3.7548 -2.018,-0.5065 -6.54,-0.1852 -10.048,0.7139 -5.069,1.2992 -8.797,1.2857 -18.158,-0.066 -6.479,-0.9353 -16.284,-1.8468 -21.789,-2.0256 -13.857,-0.4501 -22.968,-1.9555 -25.492,-4.2126 -1.239,-1.1076 -4.604,-1.8476 -8.008,-1.7611 -3.229,0.082 -11.665,-0.5939 -18.748,-1.5023 -7.082,-0.9083 -13.711,-1.3312 -14.731,-0.9398 -1.547,0.5935 -6.618,9.1133 -11.532,19.374 -6.897,14.4021 -14.026,27.015 -15.268,27.015 -0.707,0 -0.315,-1.4803 0.871,-3.2896 2.48,-3.7861 2.657,-4.7181 0.892,-4.7181 -1.231,0 -8.564,10.4862 -12.249,17.5156 -8.116,15.4816 -15.828,29.388 -17.409,31.3929 -0.664,0.8415 -2.267,3.7108 -3.564,6.3763 -1.296,2.6654 -5.21,8.5832 -8.696,13.1506 -3.487,4.5674 -8.86,11.7223 -11.941,15.8998 -15.428,20.918 -33.514,40.8204 -59.649,65.64 -17.006,16.1498 -39.066,34.1887 -41.842,34.2146 -0.846,0.01 -7.543,3.4 -14.884,7.5379 -7.34,4.1379 -17.711,9.773 -23.047,12.5224 -5.336,2.7494 -10.441,5.5809 -11.344,6.2923 -2.036,1.6029 -23.319,13.0922 -32.339,17.457 -47.423,22.9497 -76.605,36.2919 -98.439,45.0069 -4.227,1.6873 -11.133,3.4636 -15.348,3.9474 -4.214,0.4837 -10.965,2.0018 -15.002,3.3735 -4.037,1.3717 -9.743,3.0864 -12.679,3.8105 -2.936,0.7241 -9.821,2.8519 -15.301,4.7286 -5.479,1.8767 -11.898,3.4121 -14.264,3.4121 -6.513,0 -21.474,3.6867 -30.841,7.5995 -4.597,1.9201 -8.696,3.1526 -9.109,2.7389 -0.414,-0.4137 -2.659,-0.1788 -4.989,0.5219 -6.838,2.0563 -54.01,6.771 -106.335,10.6281 -45.507,3.3544 -102.679,4.2178 -123.451,1.8642 z m 66.846,-43.4088 c 12.415,-0.7781 28.579,-2.2464 35.919,-3.2628 7.34,-1.0164 22.054,-2.5396 32.698,-3.3848 10.643,-0.8453 22.354,-2.3321 26.025,-3.304 3.67,-0.972 10.877,-2.1737 16.015,-2.6705 5.138,-0.4969 14.562,-2.3889 20.942,-4.2046 6.38,-1.8157 15.689,-3.8167 20.687,-4.4467 4.997,-0.63 11.488,-1.7958 14.424,-2.5908 2.936,-0.7949 8.942,-2.0382 13.346,-2.7629 4.404,-0.7247 11.311,-2.2866 15.348,-3.4708 4.037,-1.1842 10.343,-2.7371 14.014,-3.4508 3.67,-0.7137 9.375,-2.2073 12.678,-3.3191 3.303,-1.1117 9.049,-2.5224 12.768,-3.1348 3.719,-0.6123 13.205,-3.8653 21.079,-7.2289 7.875,-3.3635 15.076,-6.1155 16.001,-6.1155 5.465,0 103.533,-47.2967 120.314,-58.0254 20.881,-13.3496 30.993,-20.0615 33.365,-22.1462 8.871,-7.7952 31.182,-26.0481 37.086,-30.3401 2.327,-1.6917 6.059,-4.9949 8.293,-7.3403 2.234,-2.3454 5.7,-5.6116 7.702,-7.2584 2.002,-1.6467 3.64,-4.1991 3.64,-5.672 0,-1.6755 0.887,-2.6781 2.37,-2.6781 2.722,0 11.42,-8.7906 21.128,-21.3536 9.149,-11.8387 24.548,-34.4091 24.548,-35.9799 0,-0.7048 2.427,-3.5272 5.394,-6.2719 6.747,-6.2433 10.621,-12.4177 10.621,-16.9298 0,-1.9142 1.199,-5.4467 2.664,-7.8501 1.466,-2.4033 2.667,-5.1697 2.67,-6.1475 0,-0.9778 2.434,-4.2809 5.403,-7.3403 5.438,-5.6029 10.169,-12.5824 13.938,-20.5642 1.928,-4.082 1.88,-4.4876 -0.857,-7.2243 -2.181,-2.1808 -4.748,-2.9738 -10.356,-3.1991 -16.734,-0.6725 -40.072,-3.1314 -42.61,-4.4894 -1.489,-0.7968 -6.2,-1.4676 -10.469,-1.4907 -4.269,-0.023 -14.368,-1.2733 -22.442,-2.7783 -8.074,-1.5049 -17.683,-3.1725 -21.354,-3.7057 -3.67,-0.5332 -8.775,-1.6529 -11.344,-2.48834 -2.569,-0.8354 -10.977,-3.08408 -18.684,-4.99707 -7.708,-1.913 -16.716,-4.2855 -20.019,-5.27223 -3.303,-0.98673 -10.51,-3.11925 -16.016,-4.73893 -5.505,-1.61968 -16.015,-5.02356 -23.355,-7.56418 -7.34,-2.54061 -14.397,-4.61799 -15.682,-4.6164 -1.284,0.002 -2.335,-0.49525 -2.335,-1.10409 0,-0.60883 -1.643,-1.51935 -3.651,-2.02336 -10.795,-2.7092 -42.085,-18.10614 -59.743,-29.39721 -3.67,-2.34684 -11.778,-6.84644 -18.017,-9.99909 -7.988,-4.03622 -13.615,-8.08546 -19.018,-13.68647 -7.239,-7.50309 -7.674,-8.32938 -7.674,-14.56444 0,-5.51985 0.887,-7.91617 5.377,-14.52888 3.714,-5.46892 6.501,-8.16218 9.009,-8.70552 1.997,-0.43271 4.933,-1.4159 6.525,-2.18487 7.162,-3.45986 28.086,2.76724 62.502,18.60073 8.808,4.05247 20.819,9.02572 26.692,11.05165 5.872,2.02593 16.982,5.89433 24.69,8.59645 7.707,2.70211 17.016,5.72997 20.686,6.72857 3.67,0.9986 12.979,3.60776 20.687,5.79814 32.082,9.11763 57.67,15.15936 88.083,20.79782 13.815,2.5611 74.549,7.31771 82.389,6.45247 4.611,-0.50902 6.142,-1.42313 8.341,-4.98051 1.481,-2.39638 2.693,-5.37724 2.693,-6.62414 0,-1.24689 1.547,-4.29509 3.437,-6.77377 3.464,-4.54079 5.656,-11.15008 9.172,-27.64485 1.053,-4.93573 2.888,-11.02824 4.08,-13.53891 1.191,-2.51067 2.218,-6.58006 2.283,-9.0431 0.06,-2.46304 1.138,-6.88054 2.386,-9.81667 1.248,-2.93613 4.501,-15.24786 7.229,-27.35939 2.728,-12.11154 5.52,-23.06383 6.204,-24.33843 0.683,-1.2746 1.243,-3.98113 1.243,-6.01453 0,-2.0334 0.559,-5.64498 1.241,-8.02574 0.683,-2.38076 0.732,-4.32865 0.11,-4.32865 -2.837,0 -5.652,1.94289 -6.661,4.5964 -0.682,1.79481 -3.056,3.4647 -6.237,4.38725 -14.112,4.09298 -25.846,7.0316 -28.079,7.0316 -1.368,0 -3.672,0.82337 -5.12,1.82971 -5.406,3.7576 -42.332,9.34291 -76.036,11.50087 -11.744,0.75198 -27.059,1.97373 -34.032,2.71502 -13.313,1.41519 -41.754,0.89953 -75.405,-1.36716 -83.808,-5.64519 -101.249,-4.68236 -130.764,7.21894 -8.883,3.58197 -12.246,4.39616 -13.581,3.28813 -1.139,-0.94527 -4.407,-1.1438 -9.125,-0.55433 -4.838,0.6045 -7.35,0.43812 -7.35,-0.48683 0,-0.77287 -1.508,-1.78372 -3.351,-2.24634 -1.844,-0.46261 -4.587,-2.57606 -6.097,-4.69654 -1.51,-2.12048 -3.684,-3.85542 -4.831,-3.85542 -1.699,0 -1.899,-0.92874 -1.083,-5.00477 0.552,-2.75262 1.132,-6.59589 1.29,-8.5406 0.159,-1.9447 2.488,-6.10667 5.178,-9.2488 2.69,-3.14214 4.89,-6.1043 4.89,-6.58259 0,-2.19168 24.842,-15.95187 28.862,-15.98676 0.826,-0.007 4.73,-1.42851 8.675,-3.15854 3.945,-1.73002 11.376,-3.90884 16.515,-4.84181 5.138,-0.93297 11.444,-2.57439 14.013,-3.64759 7.786,-3.25244 55.19,-3.83913 88.084,-1.09015 15.048,1.25756 36.368,2.48481 47.378,2.72721 11.011,0.2424 30.529,0.82704 43.375,1.29919 12.846,0.47215 33.305,0.29872 45.465,-0.38541 12.161,-0.68414 24.926,-0.81658 28.367,-0.29432 3.573,0.54219 11.551,0.20121 18.596,-0.79478 13.147,-1.85863 32.011,-2.40737 33.445,-0.9729 0.476,0.47596 5.629,0.73946 11.451,0.58557 9.669,-0.25559 10.661,-0.04 11.465,2.49051 0.483,1.52368 1.356,2.47517 1.94,2.11443 2.299,-1.42097 7.088,-19.49984 6.357,-24.00148 -0.408,-2.51323 -0.01,-7.4612 0.884,-10.99547 1.145,-4.52742 1.333,-11.55194 0.637,-23.77582 -0.543,-9.54242 -1.229,-23.95615 -1.523,-32.03051 -0.295,-8.07435 -1.027,-17.98379 -1.627,-22.02097 -0.6,-4.03718 -1.179,-8.54147 -1.286,-10.00954 -0.107,-1.46806 -1.243,-6.09648 -2.523,-10.28537 -1.28,-4.18889 -2.608,-9.15762 -2.949,-11.04162 -0.721,-3.97309 -4.705,-14.25771 -7.766,-20.04575 -1.165,-2.2021 -2.135,-4.60438 -2.156,-5.33842 -0.02,-0.73403 -1.212,-2.83603 -2.647,-4.67111 -1.436,-1.83508 -2.624,-4.38751 -2.64,-5.67207 -0.04,-3.26787 -1.812,-2.91958 -6.783,1.3346 -8.218,7.03327 -22.097,15.14172 -45.296,26.46501 -12.846,6.26968 -30.863,15.19422 -40.038,19.83231 -9.176,4.6381 -26.592,12.48083 -38.704,17.4283 -12.111,4.94747 -23.823,9.76205 -26.025,10.69907 -12.258,5.21593 -31.953,12.91882 -58.055,22.70605 -50.956,19.10617 -69.608,26.17878 -77.407,29.35132 -14.24,5.7926 -22.514,8.61942 -39.256,13.41198 -14.46,4.13931 -17.339,4.53156 -31.784,4.331 -14.841,-0.20604 -16.425,-0.49029 -24.102,-4.32478 -10.75,-5.3686 -12.281,-8.35877 -8.872,-17.32893 2.923,-7.69454 12.816,-18.42955 19.934,-21.63224 2.569,-1.15591 9.476,-3.78838 15.348,-5.84993 5.872,-2.06155 20.286,-7.75582 32.03,-12.65393 11.745,-4.89812 22.856,-9.40272 24.691,-10.01022 9.637,-3.19033 51.737,-19.00424 74.737,-28.07308 7.708,-3.03897 16.116,-6.01431 18.685,-6.61187 2.569,-0.59756 11.877,-4.45388 20.685,-8.5696 8.807,-4.11572 16.917,-7.48313 18.023,-7.48313 2.565,0 17.959,-5.57605 30.024,-10.87575 5.138,-2.25702 14.147,-6.17034 20.019,-8.69627 5.872,-2.52593 13.079,-5.71153 16.015,-7.07912 2.936,-1.3676 9.242,-4.09808 14.014,-6.06775 4.771,-1.96967 10.176,-4.34708 12.011,-5.28313 1.835,-0.93605 6.339,-2.1336 10.01,-2.66122 3.67,-0.52762 7.431,-1.58331 8.357,-2.34597 0.927,-0.76267 3.505,-1.59862 5.73,-1.85766 2.225,-0.25904 7.773,-1.91864 12.329,-3.688 4.556,-1.76935 9.184,-3.25535 10.285,-3.3022 3.732,-0.15884 10.002,-1.8791 11.678,-3.20423 3.146,-2.48683 1.66,-8.58744 -5.469,-22.46555 -6.887,-13.40645 -15.315,-27.86156 -17.048,-29.24152 -0.461,-0.36701 -2.565,-3.39711 -4.675,-6.73354 -4.961,-7.84177 -22.653,-28.3392 -30.83,-35.71796 -3.505,-3.16244 -7.981,-7.25884 -9.946,-9.10312 -1.965,-1.84428 -5.569,-4.39753 -8.008,-5.67389 -2.438,-1.27637 -8.247,-4.8158 -12.908,-7.86542 -4.661,-3.04962 -9.616,-5.90697 -11.011,-6.34967 -1.395,-0.4427 -2.568,-1.51516 -2.608,-2.38324 -0.04,-0.86807 -3.749,-3.37958 -8.245,-5.58112 -4.495,-2.20154 -8.898,-4.72821 -9.785,-5.61482 -1.633,-1.63297 -11.098,-6.58007 -24.768,-12.94556 -4.127,-1.9216 -10.132,-5.47274 -13.346,-7.89141 -6.767,-5.09312 -16.623,-10.3699 -17.581,-9.41236 -0.362,0.36184 -2.075,-0.75955 -3.807,-2.49198 -1.733,-1.73242 -7.262,-5.22211 -12.287,-7.75486 -5.025,-2.53275 -10.609,-5.95628 -12.408,-7.60785 -1.8,-1.65158 -3.567,-3.00286 -3.928,-3.00286 -0.8,0 -16.58,-10.02677 -18.855,-11.98042 -0.896,-0.7705 -4.49,-2.92133 -7.985,-4.77963 -3.495,-1.85831 -7.604,-4.55294 -9.132,-5.98809 -1.528,-1.43514 -3.369,-2.60935 -4.093,-2.60935 -0.723,0 -2.002,-0.68707 -2.842,-1.52683 -2.52,-2.52051 -47.596,-19.48127 -54.393,-20.46675 -1.468,-0.21285 -5.222,-1.0568 -8.341,-1.87545 -3.12,-0.81865 -7.994,-2.08903 -10.832,-2.82306 -2.838,-0.73403 -6.781,-1.33461 -8.763,-1.33461 -1.981,0 -4.87,-0.67838 -6.419,-1.50751 -1.55,-0.82914 -7.366,-1.69115 -12.925,-1.91558 -5.559,-0.22444 -15.813,-0.81889 -22.787,-1.32102 -6.973,-0.50212 -13.88,-0.9396 -15.348,-0.97217 -6.37,-0.14132 -39.157,3.1723 -43.384,4.38456 -2.554,0.73245 -6.526,1.33172 -8.827,1.33172 -2.301,0 -6.236,0.8578 -8.746,1.90622 -6.023,2.51666 -39.98,6.23837 -41.983,4.60139 -1.691,-1.3814 -15.539,-3.70768 -28.134,-4.72597 -6.41,-0.51832 -12.311,0.29026 -26.024,3.5665 -9.754,2.33022 -19.114,4.78274 -20.8,5.45004 -1.687,0.66729 -4.19,1.21326 -5.564,1.21326 -1.374,0 -4.199,0.84217 -6.277,1.87148 -2.078,1.02931 -7.682,3.52135 -12.453,5.53786 -29.268,12.36958 -43.239,20.61863 -66.485,39.25297 -20.644,16.54926 -62.701,59.08348 -77.905,78.79052 -4.248,5.50525 -11.09,14.21354 -15.204,19.35177 -4.114,5.13823 -10.878,13.78578 -15.03,19.21678 -4.152,5.431 -9.496,12.33758 -11.875,15.34795 -2.379,3.01037 -10.419,14.48199 -17.867,25.49248 -7.448,11.01048 -15.261,22.20749 -17.362,24.88224 -2.101,2.67474 -3.82,5.38804 -3.82,6.02956 0,0.64152 -1.642,3.55795 -3.649,6.48097 -2.006,2.92301 -5.179,8.31743 -7.051,11.98759 -1.872,3.67017 -5.035,9.21352 -7.029,12.31858 -1.994,3.10505 -3.625,6.0589 -3.625,6.56412 0,0.50521 -2.865,4.87129 -6.367,9.7024 -3.502,4.83111 -8.69,13.28812 -11.529,18.79337 -2.839,5.50524 -5.889,10.91039 -6.776,12.01144 -0.888,1.10105 -2.03,2.90276 -2.537,4.00381 -0.507,1.10105 -1.791,3.50334 -2.852,5.33842 -2.38,4.11472 -2.546,9.31071 -0.301,9.43343 0.917,0.0502 7.373,0.32312 14.347,0.60657 6.973,0.28345 20.151,1.23752 29.285,2.12014 17.811,1.72118 80.63,0.90141 115.519,-1.50752 10.277,-0.70953 26.943,-0.90488 37.036,-0.43412 16.775,0.78247 18.35,1.07154 18.35,3.36823 0,1.38176 1.051,2.90836 2.336,3.39244 1.284,0.48407 4.524,2.45569 7.198,4.38138 3.75,2.69972 4.586,3.99591 3.654,5.66202 -0.759,1.35548 -0.695,2.4786 0.171,3.01355 0.82,0.50734 0.151,1.85475 -1.652,3.32634 -2.753,2.24615 -2.817,2.55715 -0.696,3.3828 1.284,0.50009 2.335,1.41512 2.335,2.03341 0,2.09016 -8.656,9.2547 -11.189,9.26092 -3.199,0.008 -10.242,1.79986 -26.18,6.66129 -22.669,6.91466 -27.123,7.85523 -44.041,9.29937 -9.176,0.78321 -22.989,2.02171 -30.696,2.75222 -7.708,0.73052 -19.419,1.62737 -26.025,1.99302 -14.911,0.82528 -67.122,0.97358 -68.434,0.19438 -0.889,-0.52704 -43.084,-2.62558 -48.877,-2.43079 -3.427,0.11527 -3.916,0.80905 -8.143,11.56529 -2.019,5.13822 -4.497,10.52686 -5.505,11.97475 -1.009,1.44788 -1.834,3.92697 -1.834,5.50908 0,1.58211 -0.878,4.97615 -1.95,7.54232 -1.072,2.56617 -3.192,9.09566 -4.71,14.50999 -1.519,5.41432 -3.705,13.14737 -4.858,17.18455 -3.287,11.50457 -5.733,21.80453 -5.785,24.35653 -0.07,3.49784 5.894,2.68575 17.974,-2.44691 8.474,-3.60068 38.924,-14.21562 43.438,-15.14238 2.606,-0.53512 10.113,-3.10856 16.682,-5.71875 6.57,-2.6102 19.452,-7.55705 28.627,-10.99302 9.176,-3.43597 21.187,-7.95491 26.692,-10.04209 5.506,-2.08718 13.013,-4.70318 16.683,-5.81332 3.67,-1.11014 12.378,-3.90691 19.352,-6.21505 37.947,-12.56052 41.879,-13.36467 67.096,-13.722 21.823,-0.30925 30.33,1.06412 30.33,4.89686 0,0.84887 1.201,2.57184 2.669,3.82884 3.462,2.96403 3.374,4.57714 -0.312,5.74702 l -2.981,0.94612 3.133,1.15902 c 2.423,0.89625 2.952,1.83679 2.332,4.14858 -0.44,1.64427 -0.809,3.66903 -0.819,4.49947 -0.05,4.06638 -17.597,16.50727 -23.283,16.50727 -1.1,0 -3.973,1.71137 -6.384,3.80304 -2.411,2.09168 -6.169,4.23873 -8.352,4.77123 -5.66,1.38131 -34.11,11.57807 -56.756,20.34278 -10.644,4.1192 -22.956,8.8383 -27.36,10.48687 -4.404,1.64857 -21.821,8.40683 -38.703,15.01836 -30.559,11.96716 -59.106,21.90937 -100.459,34.98712 -24.619,7.78564 -24.901,8.01042 -26.838,21.40815 -0.686,4.74625 -1.908,10.33153 -2.714,12.41171 -0.807,2.08019 -1.206,4.20485 -0.886,4.72146 0.319,0.51661 -0.244,6.45748 -1.252,13.20192 -2.88,19.28185 -3.964,41.12887 -2.097,42.28263 0.914,0.56459 4.658,-1.45398 8.934,-4.81599 4.048,-3.1834 9.576,-7.22936 12.284,-8.99102 2.709,-1.76167 8.431,-6.11582 12.715,-9.67589 4.285,-3.56006 9.09,-6.47509 10.677,-6.47784 4.035,-0.007 10.548,-4.24436 17.94,-11.67165 3.465,-3.48113 8.402,-7.46075 10.971,-8.8436 2.569,-1.38285 6.369,-3.9378 8.444,-5.67767 2.075,-1.73986 4.332,-3.16339 5.016,-3.16339 0.684,0 4.747,-3.153 9.028,-7.00667 4.281,-3.85367 10.732,-8.64814 14.335,-10.65438 3.604,-2.00623 10.414,-6.0601 15.135,-9.00858 4.721,-2.94848 9.989,-5.36088 11.707,-5.36088 1.719,0 7.903,-2.40229 13.742,-5.33842 5.84,-2.93613 11.682,-5.34066 12.983,-5.3434 1.301,-0.003 4.167,-1.09374 6.369,-2.42444 7.241,-4.37589 27.346,-9.80762 27.371,-7.39499 0,0.63222 -1.941,2.75485 -4.328,4.71697 -6.19,5.08638 -3.581,6.19802 4.378,1.86597 l 6.749,-3.67297 3.106,3.35177 c 2.223,2.39814 2.697,3.76147 1.666,4.79182 -1.03,1.03035 -0.794,1.44007 0.829,1.44007 3.068,0 2.865,3.05105 -0.4,6.00572 -1.468,1.32858 -2.669,3.08212 -2.669,3.89677 0,2.25675 -5.261,11.72384 -8.482,15.26445 -1.574,1.73028 -7.367,6.05428 -12.872,9.60889 -5.505,3.55461 -10.748,7.66603 -11.65,9.13648 -1.766,2.87903 -15.49,13.47568 -17.452,13.47568 -0.655,0 -3.233,1.84451 -5.73,4.0989 -4.188,3.78252 -26.039,20.4942 -39.138,29.93352 -3.055,2.2021 -11.862,9.40896 -19.571,16.01525 -7.708,6.6063 -18.372,15.31462 -23.699,19.35172 -5.326,4.0372 -15.427,12.145 -22.447,18.0172 -7.019,5.8723 -16.147,13.2915 -20.284,16.4872 -4.137,3.1957 -10.437,8.482 -13.999,11.7472 -5.738,5.2594 -6.398,6.4239 -5.78,10.2049 4.831,29.5672 17.847,76.0361 26.336,94.0238 2.166,4.5896 3.938,8.8702 3.938,9.5124 0,0.6422 0.804,1.8346 1.786,2.6498 0.982,0.8152 2.505,3.8804 3.383,6.8115 0.878,2.9311 3.891,8.7938 6.695,13.0282 2.805,4.2345 6.096,9.5007 7.314,11.7028 5.779,10.4444 29.295,40.2725 39.458,50.0477 3.434,3.3031 11.014,9.2578 16.845,13.2326 5.831,3.9748 14.505,10.3103 19.276,14.079 13.249,10.4646 56.867,31.0615 79.008,37.3078 4.183,1.1803 7.972,2.7386 8.42,3.463 0.447,0.7243 2.149,1.317 3.781,1.317 1.631,0 6.25,0.9463 10.264,2.1029 4.014,1.1566 10.3,2.6233 13.97,3.2594 3.671,0.6361 12.379,2.4363 19.352,4.0006 23.261,5.2178 46.977,6.3205 84.863,3.946 z m 107.32,-82.6809 c -34.882,-3.9242 -75.091,-24.6081 -108.002,-55.558 -10.743,-10.1026 -32.728,-35.3685 -40.518,-46.5646 -10.426,-14.9846 -27.556,-41.568 -28.586,-44.3623 -0.477,-1.293 -2.191,-4.1526 -3.808,-6.3547 -1.618,-2.2021 -7.845,-13.9133 -13.838,-26.0248 -5.992,-12.1116 -13.121,-26.5223 -15.841,-32.0238 -2.72,-5.5015 -6.085,-11.1458 -7.478,-12.5427 -1.862,-1.866 -2.184,-3.1072 -1.217,-4.6779 0.724,-1.1758 1.043,-4.43 0.709,-7.2314 -0.475,-3.9738 0.01,-5.6723 2.217,-7.726 1.554,-1.4478 2.826,-3.2016 2.826,-3.8972 0,-0.6957 1.651,-3.5867 3.67,-6.42454 3.984,-5.60164 12.47,-9.55657 20.503,-9.55657 8.213,0 21.673,6.25418 29.57,13.73981 8.428,7.988 14.445,17.2613 27.023,41.6463 8.247,15.9875 15.821,29.1829 24.513,42.7073 11.587,18.0276 45.438,58.1136 58.877,69.7206 15.614,13.4864 43.264,28.8464 57.16,31.7538 7.98,1.6697 9.613,1.6014 18.472,-0.7726 10.765,-2.8848 20.45,-6.4083 22.395,-8.1475 0.697,-0.6236 3.006,-1.1339 5.132,-1.1339 3.906,0 16.38,-7.7413 34.305,-21.2896 4.771,-3.6062 12.164,-9.1497 16.428,-12.3189 4.264,-3.1693 9.396,-7.2637 11.405,-9.0988 2.009,-1.8351 8.43,-7.3771 14.268,-12.3156 5.839,-4.9385 13.619,-12.7223 17.289,-17.2973 3.67,-4.575 10.877,-12.9103 16.015,-18.5227 5.139,-5.6125 12.325,-13.8324 15.971,-18.2664 5.658,-6.8823 7.415,-8.1674 12.004,-8.783 3.6,-0.4829 6.276,-1.8501 8.102,-4.1407 3.008,-3.7721 5.963,-4.5006 5.963,-1.4699 0,2.9269 5.595,7.5861 7.961,6.6297 1.127,-0.4554 2.904,-1.175 3.949,-1.599 1.267,-0.5143 1.643,-0.1385 1.129,1.129 -2.753,6.7833 -2.796,6.5711 1.348,6.5711 3.485,0 4.078,0.554 4.642,4.3374 0.356,2.3856 0.08,5.8389 -0.614,7.674 -0.693,1.8351 -0.892,5.8069 -0.441,8.8263 0.451,3.0194 0.233,6.9231 -0.484,8.6749 -0.718,1.7519 -1.65,5.3287 -2.072,7.9485 -1.481,9.192 -31.932,51.2305 -48.301,66.6809 -20.856,19.6854 -53.229,43.2203 -81.893,59.5349 -16.899,9.6187 -24.487,12.7601 -28.431,11.7703 -1.629,-0.409 -8.36,1.0112 -14.958,3.1559 -6.598,2.1447 -16.801,4.3221 -22.674,4.8387 -5.872,0.5166 -11.878,1.1188 -13.346,1.3381 -1.468,0.2193 -6.573,-0.04 -11.344,-0.5771 z m -15.928,-96.6819 c -0.867,-1.0437 -3.967,-2.3017 -6.89,-2.7956 -3.689,-0.6232 -6.192,-2.0841 -8.182,-4.7754 -1.577,-2.1326 -3.736,-3.8775 -4.799,-3.8775 -1.55,0 -1.743,-1.256 -0.978,-6.3394 0.525,-3.4866 1.438,-10.243 2.029,-15.0143 0.591,-4.7712 2.62,-15.0151 4.508,-22.7642 4.026,-16.524 11.096,-52.4145 12.209,-61.9831 0.427,-3.6702 1.075,-9.6759 1.439,-13.3461 0.365,-3.6702 1.256,-10.7657 1.98,-15.7678 0.724,-5.0022 1.043,-9.53877 0.707,-10.08139 -0.335,-0.54262 -0.102,-3.35654 0.519,-6.25316 0.62,-2.89661 1.519,-14.57544 1.997,-25.95294 0.478,-11.37751 1.089,-21.58723 1.357,-22.68828 2.073,-8.5076 2.801,-70.62115 1.317,-112.43438 -0.54,-15.22785 -1.053,-32.33914 -1.138,-38.0251 l -0.156,-10.33811 -16.339,-5.34955 c -12.772,-4.18188 -16.34,-5.86916 -16.349,-7.73011 0,-1.30932 -2.128,-3.62994 -4.716,-5.15694 -11.221,-6.62088 -10.379,-8.79612 20.416,-52.75787 5.614,-8.01484 11.192,-13.77484 20.992,-21.67825 7.34,-5.91979 14.456,-10.76733 15.813,-10.77232 1.357,-0.005 4.06,1.69276 6.006,3.77277 4.864,5.19938 8.879,7.11257 12.84,6.11843 2.42,-0.60722 3.587,-0.22944 4.196,1.35836 0.464,1.20974 1.906,2.02416 3.205,1.80982 2.981,-0.49204 7.987,3.93499 7.987,7.06309 0,3.13134 8.941,16.23068 16.775,24.57771 11.799,12.57114 13.124,14.833 11.284,19.2742 -0.893,2.15615 -1.177,4.64364 -0.63,5.52776 3.478,5.62831 -1.106,13.95673 -10.268,18.65605 -2.673,1.37105 -6.92,4.4656 -9.437,6.87679 l -4.577,4.38399 1.716,17.34986 c 4.405,44.53825 5.32,114.56107 1.961,150.14301 -0.797,8.44137 -2.092,25.55768 -2.879,38.03623 -2.319,36.79583 -3.434,49.47553 -4.5,51.20043 -0.31,0.5028 -0.932,8.644 -1.38,18.0914 -0.449,9.4475 -1.14,17.7012 -1.535,18.3417 -0.396,0.6405 -0.986,4.307 -1.31,8.1478 -0.325,3.8408 -0.912,9.0852 -1.305,11.6543 -0.393,2.5692 -0.961,7.9743 -1.262,12.0115 -0.301,4.0372 -0.798,9.142 -1.105,11.3441 -0.307,2.2021 -1.025,7.6073 -1.596,12.0115 -1.006,7.7627 -5.788,17.3498 -8.652,17.3498 -0.726,0 -1.169,0.3581 -0.985,0.7958 0.449,1.0709 -3.053,5.2099 -4.408,5.2099 -0.593,0 -1.271,-1.3042 -1.505,-2.8983 -0.591,-4.0188 -3.079,-4.4583 -6.406,-1.1317 -2.109,2.1085 -4.711,2.8788 -10.427,3.0863 -4.906,0.178 -7.616,0.8497 -7.616,1.8872 0,1.8271 -4.568,5.6229 -6.844,5.6871 -0.827,0.023 -2.213,-0.8114 -3.079,-1.8551 z m -190.606,-516.11495 c -4.589,-2.42475 -8.65,-5.36995 -9.023,-6.54488 -0.373,-1.17493 -2.923,-3.40324 -5.668,-4.9518 -7.562,-4.26689 -13.217,-10.96539 -14.078,-16.67773 -0.696,-4.62059 -0.504,-5.00477 2.499,-5.00477 1.789,0 3.252,0.70067 3.252,1.55704 0,0.85637 0.29,1.2672 0.644,0.91295 1.077,-1.07608 -2.459,-9.13777 -3.936,-8.97689 -5.298,0.57692 -5.677,-0.005 -4.567,-7.02288 1.057,-6.68746 -0.144,-11.8277 -2.764,-11.8277 -2.734,0 1.295,-17.2615 4.686,-20.07573 1.063,-0.88263 1.934,-3.60439 1.934,-6.04836 0,-3.77425 0.918,-5.07527 6.095,-8.63721 3.352,-2.3065 6.505,-5.23834 7.006,-6.51521 0.502,-1.27687 4.776,-5.75607 9.5,-9.95379 4.723,-4.19771 9.819,-10.05662 11.324,-13.01981 4.492,-8.84543 12.618,-15.27942 23.69,-18.75822 8.615,-2.70713 12.408,-3.06474 31.803,-2.99878 17.509,0.0596 23.251,0.5467 28.027,2.37784 3.303,1.26662 11.11,3.16404 17.35,4.2165 11.796,1.98993 25.537,6.84573 28.636,10.11963 0.987,1.04258 4.256,4.31104 7.265,7.26323 6.25,6.13145 6.58,8.18096 2.635,16.33162 -2.102,4.34138 -2.448,6.24852 -1.335,7.36131 0.826,0.82604 1.502,2.60405 1.502,3.95114 0,1.97331 0.482,2.19136 2.48,1.1221 2.021,-1.08161 2.764,-0.70233 4.018,2.05015 1.343,2.94703 0.862,4.72005 -3.775,13.9173 -6.3,12.49278 -9.846,17.53852 -21.362,30.38969 -4.986,5.56527 -10.479,10.29934 -13.012,11.2153 -2.411,0.87175 -4.383,2.0087 -4.383,2.52655 0,0.51785 -1.205,0.62661 -2.677,0.24168 -1.472,-0.38493 -3.423,-0.0796 -4.337,0.67858 -0.914,0.75815 -8.568,4.79395 -17.009,8.96845 -8.441,4.17449 -16.549,8.64223 -18.017,9.92831 -1.468,1.28608 -5.973,3.59231 -10.01,5.12495 -4.037,1.53265 -11.544,4.375 -16.682,6.31634 -6.595,2.49151 -12.876,3.72414 -21.354,4.19073 -11.61,0.63889 -12.291,0.51351 -20.357,-3.74763 z m 16.745,-47.01541 c 0.958,-0.59557 2.524,-0.41317 3.515,0.40936 1.329,1.10313 1.953,1.04704 2.433,-0.21876 1.209,-3.18404 1.11,-23.72329 -0.114,-23.72329 -1.06,0 -13.25,10.2152 -20.803,17.43398 -2.528,2.41609 -2.522,2.48717 0.403,4.8541 3.056,2.47291 11.44,3.18933 14.566,1.24461 z m 81.669,-27.51373 c 9.676,-12.18868 10.512,-14.17845 7.257,-17.27237 -4.176,-3.9682 -18.295,-8.04241 -23.671,-6.83003 -8.5,1.91717 -9.552,4.23203 -4.894,10.77303 1.483,2.0834 3.569,6.26071 4.636,9.28292 2.538,7.19504 6.238,13.37795 7.969,13.31845 0.759,-0.0261 4.675,-4.1985 8.703,-9.272 z m 286.967,76.10191 c -1.096,-0.7027 -5.6,-1.26114 -10.01,-1.24098 -4.409,0.0202 -9.218,-0.24743 -10.686,-0.59466 -6.91,-1.63431 -17.106,-6.58573 -23.451,-11.38829 -9.354,-7.07918 -22.947,-25.06868 -26.701,-35.3354 -1.651,-4.51748 -4.169,-10.56564 -5.593,-13.44037 l -2.591,-5.22679 3,-2.26324 c 3.587,-2.7058 2.959,-7.16233 -2.099,-14.89562 -3.073,-4.69821 -3.127,-5.14826 -1.18,-9.80872 1.846,-4.41856 1.839,-5.03244 -0.08,-6.43442 -1.902,-1.39014 -1.806,-1.96991 0.927,-5.62642 16.503,-22.07906 33.012,-33.90891 59.101,-42.34922 17.033,-5.51087 25.446,-6.68604 37.458,-5.23263 11.249,1.36095 30.818,8.28919 33.545,11.87588 0.882,1.16048 2.532,1.75403 3.665,1.319 1.435,-0.55043 2.832,0.72002 4.596,4.1777 1.395,2.73276 7.386,9.06236 13.315,14.06577 12.108,10.21781 16.771,15.66132 22.356,26.10035 2.114,3.95231 4.632,8.61482 5.594,10.36113 0.962,1.74632 3.216,8.95533 5.008,16.02003 3.023,11.91701 3.097,12.96288 1.025,14.47806 -1.228,0.89823 -3.426,1.32135 -4.883,0.94026 -1.763,-0.46109 -2.335,-0.18367 -1.709,0.82924 1.225,1.98232 -0.482,11.09305 -1.913,10.20874 -0.603,-0.37273 -3.215,0.68353 -5.805,2.34723 -13.806,8.86873 -16.82,10.99923 -24.169,17.08655 -8.502,7.04313 -16.355,11.32987 -29.361,16.02802 -4.404,1.59093 -9.809,3.69249 -12.011,4.67013 -2.202,0.97763 -7.307,2.14656 -11.344,2.59761 -4.038,0.45105 -8.842,1.08753 -10.677,1.4144 -1.835,0.32686 -4.233,0.0194 -5.329,-0.68334 z m 42.126,-56.45953 c 2.988,-0.9064 6.879,-2.6132 8.645,-3.79289 l 3.211,-2.14489 -2.284,-7.24686 c -2.219,-7.03916 -10.82,-18.45169 -12.58,-16.69186 -0.783,0.78327 -5.601,25.99137 -5.714,29.89676 -0.06,2.07975 1.812,2.07541 8.722,-0.0203 z m -65.038,-8.65467 c 1.764,-3.39278 6.887,-26.54973 6.887,-31.13036 0,-5.42992 -3.137,-5.0968 -12.805,1.35985 -10.147,6.77564 -11.862,8.24767 -12.931,11.09764 -1.29,3.43551 1.2,9.11009 3.594,8.1916 1.298,-0.49818 3.621,1.55033 6.841,6.03121 5.282,7.35257 6.555,8.02573 8.414,4.45006 z m 220.424,647.31888 c 0,-1.0135 -5.006,2.2956 -6.783,4.484 -1.171,1.4418 -0.239,1.1195 2.445,-0.8454 2.386,-1.7464 4.338,-3.3838 4.338,-3.6386 z m 10.954,-7.9805 c 6.82,-6.6599 6.447,-8.4639 -0.518,-2.5023 -3.068,2.6263 -6.106,4.7751 -6.751,4.7751 -0.646,0 -0.802,0.6005 -0.349,1.3346 1.298,2.0996 2.221,1.6623 7.618,-3.6074 z m 125.731,-158.7381 c 1.226,-3.1952 0.271,-3.4405 -1.618,-0.4156 -0.896,1.4347 -1.088,2.6085 -0.426,2.6085 0.661,0 1.581,-0.9868 2.044,-2.1929 z m 6.958,-13.4887 c 2.177,-3.4866 4.83,-8.1411 5.894,-10.3432 1.065,-2.2021 2.52,-4.4216 3.234,-4.9322 2.092,-1.4963 -0.555,-3.1079 -2.782,-1.6936 -3.868,2.4563 -13.483,23.3084 -10.748,23.3084 0.243,0 2.224,-2.8527 4.402,-6.3394 z m 63.2,-170.82937 c -0.01,-0.55052 -0.579,-1.88441 -1.262,-2.9642 -1.538,-2.43137 -3.342,-0.91078 -2.261,1.90569 0.798,2.08008 3.561,2.91011 3.523,1.05851 z m -146.306,-475.11922 c 0.362,-1.28456 1.984,-9.54242 3.604,-18.35081 1.619,-8.80839 4.993,-23.8227 7.497,-33.36512 10.54,-40.16019 12.198,-47.96196 11.312,-53.23894 -0.966,-5.7526 -4.427,-8.96152 -7.346,-6.81144 -0.992,0.73028 -4.445,3.24747 -7.674,5.59376 -7.964,5.78664 -20.968,16.35078 -25.141,20.4242 -1.88,1.83509 -9.424,7.39207 -16.765,12.34886 -21.843,14.75061 -25.167,17.11614 -29.361,20.89892 -2.202,1.98605 -6.256,5.25778 -9.008,7.27051 -2.753,2.01273 -5.005,4.16259 -5.005,4.77747 0,0.61488 4.955,3.69174 11.01,6.83747 6.056,3.14573 15.081,8.32375 20.055,11.50672 4.974,3.18297 11.88,7.19223 15.348,8.90948 3.467,1.71725 11.108,5.89656 16.981,9.28736 11.861,6.84888 13.535,7.3009 14.493,3.91156 z m -360.823,-124.45188 c 0,-0.73403 -0.866,-1.3346 -1.923,-1.3346 -1.058,0 -2.295,0.60057 -2.748,1.3346 -0.454,0.73403 0.411,1.33461 1.923,1.33461 1.511,0 2.748,-0.60058 2.748,-1.33461 z m -514.776,980.59547 c -1.509,-1.6487 -3.183,-4.4991 -3.719,-6.3341 -0.717,-2.4555 0.149,-1.8059 3.282,2.4597 4.607,6.2737 4.884,8.7337 0.437,3.8744 z m 932.708,-162.2138 c 3.357,-6.0256 5.328,-8.5311 6.101,-7.7575 0.883,0.883 -5.401,11.3555 -7.244,12.0721 -0.891,0.3463 -0.381,-1.5797 1.143,-4.3146 z m 10.476,-17.6189 c 0,-0.7341 0.636,-1.3346 1.413,-1.3346 0.777,0 1.042,0.6005 0.589,1.3346 -0.454,0.734 -1.09,1.3346 -1.414,1.3346 -0.323,0 -0.588,-0.6006 -0.588,-1.3346 z"
       id="path35" />
  </g>
</svg>
