<?xml version="1.0" encoding="UTF-8" standalone="no"?>
<!-- Created with Inkscape (http://www.inkscape.org/) -->

<svg
   version="1.1"
   id="svg1"
   width="1274.4126"
   height="443.28201"
   viewBox="0 0 1274.4126 443.28206"
   sodipodi:docname="mountain.svg"
   inkscape:version="1.4.3 (0d15f75, 2025-12-25)"
   inkscape:export-batch-name="doodles"
   xmlns:inkscape="http://www.inkscape.org/namespaces/inkscape"
   xmlns:sodipodi="http://sodipodi.sourceforge.net/DTD/sodipodi-0.dtd"
   xmlns="http://www.w3.org/2000/svg"
   xmlns:svg="http://www.w3.org/2000/svg">
  <sodipodi:namedview
     id="namedview1"
     pagecolor="#505050"
     bordercolor="#eeeeee"
     borderopacity="1"
     inkscape:showpageshadow="0"
     inkscape:pageopacity="0"
     inkscape:pagecheckerboard="0"
     inkscape:deskcolor="#505050"
     inkscape:zoom="0.36251647"
     inkscape:cx="2884.0069"
     inkscape:cy="1148.9133"
     inkscape:window-width="1920"
     inkscape:window-height="1051"
     inkscape:window-x="-9"
     inkscape:window-y="-9"
     inkscape:window-maximized="1"
     inkscape:current-layer="g2" />
  <defs
     id="defs1" />
  <g
     id="g4"
     inkscape:groupmode="layer"
     inkscape:label="4"
     transform="translate(-4874.54,-600.39644)">
    <path
       style="fill:#000000"
       d="m 5712.165,1043.5146 c -0.3449,-0.3185 -5.7318,-0.9839 -11.9709,-1.4786 -17.0167,-1.3493 -21.0406,-1.7639 -32.697,-3.3686 -23.9096,-3.2918 -28.2261,-3.9831 -32.697,-5.2368 -2.569,-0.7204 -6.1724,-1.7008 -8.0074,-2.1786 -9.2805,-2.4166 -15.2793,-5.7371 -22.0023,-12.1788 -3.3016,-3.1634 -8.4281,-6.989 -11.3922,-8.5012 -2.9641,-1.5122 -6.422,-3.6077 -7.6842,-4.6567 -1.2622,-1.049 -7.0993,-5.4667 -12.9714,-9.81706 -10.6234,-7.87031 -14.0775,-10.88922 -20.957,-18.31665 -1.9841,-2.14216 -4.5532,-4.79568 -5.709,-5.8967 -5.1492,-4.90495 -17.998,-20.84502 -18.019,-22.35406 -0.013,-0.91752 -0.5553,-1.66822 -1.2057,-1.66822 -0.6504,0 -3.8034,-3.65677 -7.0065,-8.12615 -3.2032,-4.46939 -6.4616,-8.82343 -7.241,-9.67564 -12.9603,-14.17164 -30.2318,-36.9664 -35.0492,-46.25761 -1.332,-2.56905 -3.6388,-6.77295 -5.1262,-9.342 -1.4874,-2.56905 -5.7662,-10.07601 -9.5084,-16.68213 -8.5865,-15.15761 -22.5504,-31.96573 -31.4533,-37.85994 -3.7742,-2.49869 -8.1221,-5.6812 -9.662,-7.07226 -1.8987,-1.71509 -6.1945,-2.92524 -13.3457,-3.75961 -9.9301,-1.15859 -11.5588,-0.95371 -27.8952,3.50905 -9.5422,2.60671 -18.6675,5.36497 -20.2784,6.12948 -3.4367,1.63098 -17.7569,14.81732 -17.7569,16.35093 0,0.5779 -2.4398,3.82039 -5.4218,7.20553 -6.8755,7.80504 -7.9239,9.16709 -7.9239,10.2939 0,1.1225 -7.265,9.03677 -12.6178,13.74544 -7.4878,6.5867 -21.2993,19.50408 -27.6102,25.82268 -3.4823,3.48656 -6.8364,6.33921 -7.4536,6.33921 -0.6171,0 -2.1959,1.81793 -3.5085,4.03985 -1.3125,2.22191 -3.8442,5.49768 -5.626,7.27947 -1.7818,1.7818 -3.2396,3.55629 -3.2396,3.94331 0,0.38701 -2.0615,2.82641 -4.581,5.42087 -2.5196,2.59446 -7.6699,9.66193 -11.4452,15.70549 -3.7753,6.04355 -9.5789,14.29134 -12.8969,18.32842 -3.3179,4.03708 -9.0857,11.08746 -12.8173,15.66752 -3.7316,4.58006 -7.8864,8.67706 -9.2329,9.10444 -1.3466,0.42738 -2.1413,1.27387 -1.766,1.88109 0.3753,0.60722 -1.4176,2.94787 -3.9843,5.20143 -2.5667,2.25356 -4.6667,4.71629 -4.6667,5.47273 0,0.75644 -0.4504,1.39274 -1.0009,1.414 -0.5505,0.0213 -6.7062,4.85972 -13.6794,10.75209 -6.9731,5.8924 -15.0806,12.7175 -18.0167,15.1668 -4.6509,3.8799 -17.1403,10.85 -25.3568,14.1512 -3.8295,1.5386 -17.3494,5.7571 -17.3494,5.4134 0,-0.1591 -2.3283,0.6835 -5.1741,1.8725 -3.3112,1.3835 -6.9148,1.8739 -10.0092,1.362 -2.6594,-0.4399 -8.7389,-0.2511 -13.51,0.4195 -4.9811,0.7002 -8.8641,0.7189 -9.1196,0.044 -0.5698,-1.5056 -5.5607,-1.546 -5.5607,-0.045 0,2.0919 -26.0811,-0.3981 -27.4551,-2.6211 -0.4006,-0.6483 -3.0309,-1.1786 -5.8451,-1.1786 -3.3171,0 -5.387,-0.7041 -5.885,-2.0019 -0.4426,-1.1535 -2.4368,-2.0018 -4.7056,-2.0018 -3.8259,0 -12.3763,-3.6538 -13.2733,-5.672 -0.2447,-0.5505 -1.2953,-1.0009 -2.3348,-1.0009 -3.1081,0 -15.1663,-7.1743 -15.9219,-9.4731 -0.8138,-2.4761 -6.9398,-5.6013 -8.7666,-4.4723 -0.6842,0.4229 -1.6043,-0.17 -2.0446,-1.3176 -0.4404,-1.1475 -1.4871,-2.1054 -2.3261,-2.1286 -2.0895,-0.058 -8.8656,-6.157 -8.8656,-7.98 0,-0.8125 -0.5492,-1.1379 -1.2205,-0.723 -0.6714,0.4149 -2.4622,-1.20117 -3.9798,-3.59129 -1.5175,-2.39012 -4.8719,-6.05979 -7.4541,-8.15483 -2.5822,-2.09505 -4.695,-4.64741 -4.695,-5.67193 0,-1.02452 -0.805,-1.86276 -1.789,-1.86276 -1.7973,0 -16.874,-17.21064 -21.6283,-24.68956 -1.3999,-2.20205 -2.9041,-4.304 -3.3428,-4.671 -2.7366,-2.28933 -15.9265,-30.973 -19.945,-43.37356 -5.9486,-18.35671 -6.6778,-20.80008 -6.6859,-22.4007 0,-0.89187 -0.8457,-3.22661 -1.8692,-5.18833 -1.0234,-1.96171 -2.513,-6.60778 -3.3101,-10.32459 -0.7972,-3.7168 -3.8163,-13.82262 -6.7092,-22.45738 -5.0487,-15.06912 -12.7485,-43.21195 -14.8842,-54.4021 -0.5604,-2.93606 -1.9538,-9.04976 -3.0966,-13.58601 -6.086,-24.15931 -10.1244,-46.96059 -10.1054,-57.05643 0.01,-4.45349 -0.973,-14.10282 -2.1809,-21.44296 -1.208,-7.34014 -2.3425,-17.5496 -2.5211,-22.6877 -0.1787,-5.1381 -0.4145,-9.64228 -0.5241,-10.00928 -0.1096,-0.36701 -0.4779,-5.94649 -0.8184,-12.39884 -0.512,-9.70097 -0.2649,-11.8675 1.4277,-12.51699 1.1257,-0.432 1.7309,-1.60879 1.3447,-2.61509 -0.3861,-1.00631 0.1064,-1.82964 1.0945,-1.82964 0.9881,0 2.5597,-0.91961 3.4925,-2.04357 1.4026,-1.69004 1.2578,-2.3684 -0.8375,-3.9212 -2.4806,-1.83842 -2.4778,-1.92096 0.1356,-3.95243 1.4681,-1.14114 3.9692,-2.43163 5.5581,-2.86777 1.589,-0.43613 3.6167,-2.5498 4.5061,-4.69704 3.1685,-7.64945 14.1667,-17.14807 17.4825,-15.0988 0.8071,0.4988 7.6896,1.66853 15.2944,2.59942 7.8923,0.96607 16.2725,2.85871 19.5245,4.40958 3.1337,1.49438 10.502,3.36469 16.3741,4.15623 10.8631,1.46432 21.7014,5.75488 26.9948,10.68643 1.6068,1.49695 3.3012,2.72172 3.7653,2.72172 1.8168,0 14.8313,12.07703 18.619,17.27776 2.2021,3.02352 5.123,6.82891 6.491,8.45641 1.3679,1.62751 5.505,7.46328 9.1935,12.96839 3.6884,5.5051 7.887,11.31607 9.3301,12.91327 1.4431,1.59719 2.264,3.48607 1.8243,4.19751 -0.4396,0.71144 0.098,1.63788 1.1948,2.05877 1.0968,0.42088 1.9942,1.59185 1.9942,2.60214 0,1.0103 1.265,2.98095 2.8111,4.37924 3.0127,2.7246 7.8655,11.40019 7.8655,14.06159 0,0.88896 0.8076,2.56442 1.7948,3.72323 0.9871,1.15882 2.8433,4.8077 4.1248,8.10861 1.2815,3.30092 2.726,6.30371 3.2098,6.67286 0.4839,0.36915 3.2413,5.3255 6.1275,11.01411 2.8862,5.68861 5.7389,10.34292 6.3392,10.34292 0.6004,0 1.0916,0.62567 1.0916,1.39038 0,0.7647 1.2011,2.67962 2.6691,4.25536 1.468,1.57574 2.6691,3.93173 2.6691,5.23553 0,1.30379 1.2012,3.01335 2.6692,3.79901 1.468,0.78567 2.6691,2.07729 2.6691,2.87027 0,2.64507 12.2774,19.95112 13.795,19.44525 0.8223,-0.27408 2.6069,0.53752 3.9658,1.80357 7.2657,6.76904 18.6113,2.27119 46.5594,-18.45798 4.1805,-3.10068 8.0841,-6.43736 8.6747,-7.41483 0.5906,-0.97748 4.3769,-4.19418 8.414,-7.14824 10.7182,-7.84285 28.6206,-24.60687 34.9664,-32.74302 4.8001,-6.15436 15.4026,-17.30052 49.7788,-52.33129 4.9567,-5.05105 12.3919,-10.60709 19.5155,-14.58314 6.3294,-3.53278 12.2436,-7.72734 13.1427,-9.32125 2.2575,-4.00209 11.9271,-10.88531 18.1911,-12.94916 2.8615,-0.94279 6.7041,-2.79772 8.5391,-4.12208 3.8775,-2.79841 29.139,-11.1476 40.4793,-13.37883 9.8812,-1.94414 29.4994,-0.73233 46.2678,2.85795 6.9732,1.49302 18.0835,3.85107 24.6896,5.24011 13.4698,2.83224 36.2418,9.03516 39.5089,10.76193 1.1776,0.62236 7.2314,3.81635 13.453,7.09776 55.8492,29.45601 100.6299,62.84983 115.2764,85.96387 2.6891,4.24371 7.4692,10.41835 10.6224,13.72141 9.0595,9.49002 21.8184,23.9622 29.0077,32.90282 7.9181,9.84708 15.7807,15.73908 25.436,19.06098 3.9345,1.35368 8.3018,3.05207 9.7052,3.77421 1.4033,0.72214 5.0354,2.58959 8.0714,4.1499 6.6658,3.4258 18.7792,3.79801 27.177,0.83507 3.4354,-1.21208 10.4228,-2.00186 17.7109,-2.00186 10.8333,0 12.6181,-0.36703 17.8466,-3.67007 3.1952,-2.01854 5.8105,-4.03093 5.8118,-4.47197 0,-0.44105 2.8957,-4.64495 6.432,-9.342 6.5484,-8.69787 9.3582,-13.51066 15.5047,-26.5568 8.8776,-18.84289 20.3331,-36.09339 25.5694,-38.50404 1.5375,-0.70784 4.6628,-4.19501 6.9451,-7.74925 7.1144,-11.07917 12.8062,-17.92169 16.5601,-19.90777 1.9871,-1.05137 7.8054,-7.76487 12.9296,-14.91889 9.8835,-13.79883 24.4469,-29.26622 33.323,-35.3914 3.0592,-2.11111 6.6462,-6.27196 8.3527,-9.68886 1.645,-3.29381 4.0826,-6.97671 5.4169,-8.18423 1.3343,-1.20751 2.4451,-3.15338 2.4685,-4.32414 0.023,-1.17076 0.774,-3.0537 1.6682,-4.18431 2.0612,-2.60625 13.2638,-10.12983 16.5144,-11.09101 2.5451,-0.75256 20.4408,-2.65863 25.1485,-2.67856 5.0648,-0.0215 29.374,4.60176 34.3922,6.54081 2.7674,1.06935 7.4367,1.94427 10.3762,1.94427 2.9396,0 8.7829,1.27348 12.9851,2.82995 4.2022,1.55647 11.1229,3.60794 15.3792,4.55882 5.1513,1.15083 10.0597,3.49645 14.6803,7.01545 6.004,4.57257 16.1333,11.46084 35.4754,24.12442 2.6567,1.73937 6.632,4.85611 8.8341,6.92607 2.202,2.06997 9.1803,6.65241 15.5072,10.18321 11.3241,6.31945 19.6943,12.40675 26.4399,19.22863 4.4786,4.52913 15.4306,11.88057 17.6996,11.88057 2.1942,0 13.3852,10.81393 13.907,13.43842 0.8424,4.23688 4.8336,14.04379 6.4799,15.92214 0.9651,1.10102 1.589,3.95366 1.3865,6.33921 -0.2025,2.38554 0.1037,4.33735 0.6806,4.33735 0.5769,0 1.7425,1.65154 2.5904,3.67007 2.9335,6.98419 6.5358,12.62687 9.2947,14.55929 1.8102,1.26791 2.7777,3.41776 2.791,6.20224 0.014,2.98758 0.373,3.70484 1.1998,2.39914 2.0855,-3.29355 2.431,13.01861 0.6088,28.74342 -1.7591,15.18061 -5.4878,25.36506 -13.1231,35.84395 -2.9667,4.07162 -7.0341,14.35402 -8.3222,21.03846 -0.6836,3.54784 -8.4097,10.66389 -8.4097,7.7457 0,-0.784 -1.18,-1.42545 -2.6222,-1.42545 -2.7539,0 -6.0369,4.53879 -4.768,6.59184 0.4073,0.65911 -1.1621,1.61631 -3.4877,2.12709 -2.3256,0.51078 -7.5166,3.11202 -11.5355,5.78052 -9.5029,6.30978 -9.391,6.2483 -15.6219,8.57617 -14.9471,5.58423 -22.3262,6.24558 -50.8257,4.55521 -9.7675,-0.57934 -13.0227,-1.32952 -16.7528,-3.86079 -7.0523,-4.78585 -17.271,-13.17242 -22.7859,-18.70062 -2.7236,-2.7301 -6.9858,-6.33884 -9.4716,-8.01941 -22.2134,-15.0177 -27.4788,-18.08182 -32.3866,-18.84684 -6.0145,-0.93754 -3.2656,-3.16269 -29.7841,24.10874 -4.4483,4.57462 -9.5464,10.62808 -11.3292,13.45213 -4.1064,6.50505 -15.8633,18.44481 -19.2074,19.50618 -1.3992,0.44408 -3.3329,2.28156 -4.2972,4.08329 -1.9723,3.68538 -11.3243,14.65167 -19.36,22.70185 -2.936,2.94135 -8.5897,9.85042 -12.5636,15.35348 -3.974,5.50305 -7.6268,10.30583 -8.1173,10.67284 -0.4905,0.36701 -4.1237,5.77202 -8.0737,12.01114 -18.4975,29.21714 -34.5084,51.18513 -39.046,53.57373 -1.6124,0.8488 -3.2621,2.0454 -3.6659,2.6591 -0.9115,1.3849 -22.6371,13.1649 -24.2799,13.1649 -0.658,0 -3.7068,1.6731 -6.7751,3.7182 -8.9805,5.9854 -28.6876,13.389 -37.8775,14.2298 -2.054,0.188 -5.2541,0.7627 -7.1112,1.2771 -1.8572,0.5145 -3.6589,0.6749 -4.0038,0.3563 z m -606.8287,-69.46886 c 7.0305,-2.11584 26.2644,-15.56593 32.6698,-22.8456 2.3855,-2.71115 4.3374,-4.50769 4.3374,-3.99231 0,1.12634 6.1011,-5.30244 10.9471,-11.53506 1.9211,-2.47076 6.4407,-7.54503 10.0435,-11.27615 10.3231,-10.69058 27.3826,-31.1964 32.8704,-39.51065 4.6606,-7.0611 14.921,-18.45741 29.9606,-33.27742 34.8829,-34.37376 45.8337,-45.7808 50.97,-53.09366 8.1171,-11.55675 24.2648,-27.76876 34.0316,-34.16701 6.0523,-3.96491 13.3839,-6.8099 30.0278,-11.6521 23.3127,-6.78233 24.1738,-6.99167 36.7007,-8.92162 8.9231,-1.37474 16.4505,-1.12554 35.9075,1.18874 16.1178,1.9171 24.854,5.05158 35.8042,12.84612 4.5994,3.27396 12.3561,8.6296 17.2371,11.90142 4.8811,3.27181 10.5863,7.80506 12.6785,10.07388 2.0921,2.26883 6.302,5.87358 9.3553,8.01057 3.0533,2.13699 6.9201,6.14596 8.5928,8.90882 1.6727,2.76286 5.6305,8.43097 8.7951,12.5958 3.1647,4.16483 5.7539,8.20032 5.7539,8.96776 0,0.76744 1.2611,3.6657 2.8025,6.44058 1.5414,2.77488 4.0937,7.44411 5.6719,10.37607 1.5782,2.93197 3.8244,6.39531 4.9915,7.69631 1.1671,1.30101 2.9659,4.00687 3.9974,6.01302 3.666,7.13028 13.8234,22.36939 16.5092,24.76871 1.5005,1.34045 1.8274,1.98859 0.7263,1.44032 -1.101,-0.54827 0.1228,1.0575 2.7194,3.56839 5.0566,4.88944 14.4083,17.11057 17.2799,22.58196 2.9522,5.62499 18.1843,23.25825 24.2823,28.11015 3.1707,2.52276 9.3682,7.9157 13.7723,11.9843 17.5754,16.23664 34.6236,26.60775 45.3754,27.60372 2.202,0.20398 9.5807,1.31725 16.397,2.47394 15.753,2.67317 30.9461,2.73686 40.3222,0.16903 19.6883,-5.39196 30.882,-11.93345 39.1067,-22.85336 2.3468,-3.11589 8.3207,-10.70527 13.2753,-16.86527 4.9545,-6.16 9.0083,-11.89288 9.0083,-12.73973 0,-3.23715 20.159,-30.0843 37.397,-49.80421 9.8932,-11.31767 18.7626,-21.22686 19.7097,-22.02042 12.1577,-10.18673 26.5579,-26.55416 37.0005,-42.05519 2.1911,-3.25243 6.506,-8.65744 9.5888,-12.01114 3.0828,-3.3537 6.6861,-7.34785 8.0074,-8.87589 3.4719,-4.0151 20.654,-15.23845 23.3289,-15.23845 1.249,0 2.6178,-0.56117 3.0417,-1.24705 0.4239,-0.68587 4.2128,-2.31061 8.4198,-3.61052 7.3474,-2.27025 26.3231,-3.01725 39.0116,-1.53573 5.9938,0.69984 25.7422,10.73858 39.1957,19.92444 5.7632,3.93509 12.9646,8.81515 16.0029,10.84458 3.0384,2.02943 6.1249,4.44305 6.8589,5.36361 2.0305,2.54649 14.5532,11.20039 17.613,12.17152 3.3721,1.07025 15.8989,-2.11905 24.1785,-6.15578 3.4392,-1.67677 9.9058,-6.65413 14.3703,-11.0608 7.0176,-6.92672 8.4931,-9.27771 10.8913,-17.35413 5.8645,-19.74955 4.6697,-32.99814 -3.8162,-42.3149 -11.2439,-12.34475 -13.1954,-14.21616 -16.7175,-16.03167 -13.4124,-6.91371 -28.5027,-16.48165 -28.5027,-18.07208 0,-1.0319 -0.7507,-1.61829 -1.6682,-1.3031 -0.9175,0.3152 -3.259,0.12431 -5.2032,-0.42418 -4.0502,-1.14258 -6.4532,0.58234 -6.5167,4.6778 -0.023,1.50473 -0.9242,3.90163 -2.0019,5.32644 -1.0777,1.42482 -1.9594,4.00843 -1.9594,5.74135 0,2.30099 -1.0798,3.52721 -4.0037,4.54648 -2.2021,0.76764 -4.0037,1.86844 -4.0037,2.44623 0,0.57779 -1.4565,2.00485 -3.2366,3.17124 -2.617,1.71469 -4.0475,1.83806 -7.4717,0.64437 -3.8212,-1.33209 -4.1551,-1.87647 -3.4162,-5.57096 0.8642,-4.32077 2.7289,-6.17496 6.2438,-6.20871 2.755,-0.0264 5.6715,-3.31627 9.7646,-11.01439 3.2825,-6.17347 3.2852,-6.21049 0.7057,-9.48984 -1.4243,-1.81071 -2.5896,-3.67221 -2.5896,-4.13666 0,-1.48172 -5.7954,-8.74382 -6.9779,-8.74382 -1.1242,0 -9.0802,-5.23717 -10.3715,-6.82722 -1.6853,-2.07511 -13.4982,-7.2902 -21.3532,-9.42689 -11.4716,-3.12047 -17.4147,-3.01991 -27.2217,0.46061 -7.5016,2.66235 -20.8228,11.13141 -20.8228,13.23825 0,0.495 -3.4532,3.501 -7.6738,6.68 -13.3677,10.06873 -28.1567,23.3773 -34.0275,30.62121 -3.1218,3.85198 -9.3793,10.97233 -13.9055,15.82302 -14.8692,15.93518 -19.1049,21.94784 -28.499,40.45492 -23.0209,45.35277 -43.0812,68.88516 -65.1082,76.377 -5.1627,1.75594 -9.7349,2.84436 -10.1606,2.41869 -0.4257,-0.42566 -0.7739,0.16274 -0.7739,1.30757 0,2.97612 -2.6649,3.60716 -9.6904,2.29467 -6.5511,-1.22389 -10.0391,-0.0912 -19.5092,6.33537 -2.4954,1.69346 -6.5199,3.07902 -8.9432,3.07902 -2.4233,0 -4.7538,0.56275 -5.1789,1.25055 -1.0369,1.67778 -11.625,1.48647 -13.7618,-0.24865 -1.2801,-1.03949 -1.4916,-0.83958 -0.8581,0.81119 0.8688,2.26414 -1.3899,3.10754 -2.6898,1.00434 -0.4032,-0.65246 -5.093,-1.19771 -10.4217,-1.21168 -5.3287,-0.014 -11.4902,-0.73693 -13.6922,-1.60659 -2.202,-0.86965 -7.3068,-1.82528 -11.3439,-2.12362 -16.0347,-1.18496 -20.1923,-1.87372 -26.3199,-4.36022 -6.9397,-2.81602 -22.4387,-6.75116 -29.4795,-7.4847 -4.663,-0.48581 -10.8919,-4.35664 -19.4175,-12.06664 -2.8336,-2.56251 -5.7562,-4.65911 -6.4946,-4.65911 -0.7384,0 -3.5247,-2.33553 -6.1918,-5.19006 -10.7696,-11.52638 -24.1514,-26.51128 -28.7356,-32.17792 -2.672,-3.30307 -6.7985,-8.36227 -9.17,-11.24267 -2.3714,-2.88041 -6.6187,-8.28542 -9.4383,-12.01114 -2.8196,-3.72572 -6.8333,-8.66582 -8.9193,-10.978 -2.086,-2.31217 -3.4325,-4.56426 -2.9921,-5.00464 0.4404,-0.44037 -0.095,-0.80068 -1.1909,-0.80068 -1.0955,0 -3.4476,-1.55643 -5.2271,-3.45873 -1.7795,-1.9023 -6.8388,-5.57416 -11.2429,-8.15968 -4.404,-2.58553 -11.6107,-7.5486 -16.0148,-11.02906 -4.4041,-3.48046 -9.3587,-7.03641 -11.0102,-7.90212 -1.6516,-0.86572 -3.012,-2.60387 -3.0232,-3.86257 -0.017,-1.86201 -0.2428,-1.93728 -1.2135,-0.40389 -1.0101,1.59566 -1.5281,1.54957 -3.3782,-0.30057 -1.2019,-1.20187 -4.4093,-3.21254 -7.1277,-4.46816 -2.7183,-1.25561 -6.3271,-3.33508 -8.0196,-4.62105 -1.6924,-1.28597 -5.5961,-3.49146 -8.6747,-4.9011 -16.9438,-7.75823 -22.5386,-9.61963 -31.3851,-10.44183 -5.2682,-0.48962 -9.5785,-1.40454 -9.5785,-2.03315 0,-0.62861 -2.5524,-1.14746 -5.6719,-1.15301 -3.1196,-0.006 -9.5756,-0.66155 -14.3467,-1.45779 -10.1689,-1.69708 -19.6715,-1.76367 -21.8284,-0.15296 -0.8396,0.62703 -4.2291,1.98595 -7.5321,3.01984 -3.3031,1.03388 -8.7081,3.24149 -12.0112,4.9058 -3.303,1.66431 -6.6631,3.02853 -7.4669,3.0316 -0.8037,0.003 -2.5484,1.2067 -3.8769,2.67473 -1.3286,1.46803 -3.1665,2.66914 -4.0843,2.66914 -2.9691,0 -24.609,18.30183 -24.609,20.81293 0,0.9322 -1.2817,2.10172 -2.8483,2.59894 -3.0356,0.96347 -21.4095,19.03907 -29.1814,28.70775 -6.6277,8.2452 -31.2525,32.78309 -34.8098,34.68686 -2.8163,1.50725 -8.9952,6.66412 -15.1201,12.61906 -1.5099,1.46803 -6.658,5.53116 -11.4402,9.02919 -4.7822,3.49802 -8.6949,7.09314 -8.6949,7.98915 0,0.896 -1.0717,1.83549 -2.3815,2.08775 -1.3099,0.25225 -3.835,1.91201 -5.6113,3.68834 -1.7763,1.77634 -3.8266,3.2297 -4.5562,3.2297 -0.7295,0 -3.0089,1.56185 -5.0653,3.47078 -2.0563,1.90892 -5.4872,4.37666 -7.6241,5.48386 -2.1369,1.1072 -5.44,3.46774 -7.3402,5.24564 -1.9001,1.7779 -4.9562,3.59687 -6.7912,4.04215 -1.835,0.44529 -3.937,1.24549 -4.671,1.77825 -0.734,0.53275 -2.2354,1.05129 -3.3364,1.15232 -6.0471,0.55486 -12.0112,1.92739 -12.0112,2.76415 0,0.52658 -1.8071,0.69219 -4.0159,0.36801 -2.2088,-0.32418 -4.9258,0.16569 -6.0378,1.0886 -1.1121,0.92291 -2.3866,1.31329 -2.8324,0.86751 -0.4458,-0.44578 -2.0051,-0.17117 -3.4652,0.61025 -1.9142,1.02441 -2.4017,1.01131 -1.7477,-0.0469 0.4989,-0.80725 0.3066,-1.46772 -0.4274,-1.46772 -0.734,0 -1.7011,0.59294 -2.149,1.31765 -0.8699,1.40767 -8.3979,0.84646 -12.3205,-0.91849 -1.3036,-0.58655 -10.0169,-1.06645 -19.3629,-1.06645 -12.3587,0 -17.1696,-0.45493 -17.6412,-1.66821 -0.371,-0.95443 -2.9684,-1.66821 -6.0705,-1.66821 -3.5885,0 -5.6818,-0.67697 -6.1902,-2.00186 -0.4225,-1.10102 -1.5117,-2.00186 -2.4205,-2.00186 -0.9087,0 -2.7392,-1.20111 -4.0677,-2.66914 -1.3286,-1.46803 -2.9493,-2.66914 -3.6015,-2.66914 -1.6851,0 -6.7806,-5.1995 -10.463,-10.67657 -1.7273,-2.56905 -4.3741,-5.90512 -5.8819,-7.41349 -10.319,-10.32329 -15.2318,-16.65403 -18.067,-23.28164 -2.9635,-6.92764 -6.0926,-12.70666 -7.9378,-14.65992 -4.1238,-4.36548 -14.6134,-21.61766 -15.4444,-25.40157 -0.4834,-2.20085 -2.0312,-4.61824 -3.4396,-5.37198 -1.4084,-0.75373 -2.5607,-2.26148 -2.5607,-3.35054 0,-2.80319 -7.7798,-17.04376 -9.9855,-18.27818 -1.2166,-0.68081 -2.1129,-0.15907 -2.6536,1.54459 -0.4491,1.41496 -2.0763,4.1742 -3.6161,6.13164 -2.1869,2.78029 -3.0681,3.16936 -4.0275,1.77826 -0.7806,-1.13203 -0.9135,0.28546 -0.3646,3.89122 0.5672,3.72617 0.3653,5.67193 -0.5885,5.67193 -0.7985,0 -1.4519,0.58171 -1.4519,1.29268 0,0.71098 0.7808,0.9931 1.735,0.62693 1.2067,-0.46307 1.7349,0.67011 1.7349,3.72212 0,2.41333 0.5281,5.58442 1.1735,7.04686 0.6454,1.46243 1.2865,3.76003 1.4246,5.10577 0.2592,2.52531 1.7197,7.7542 6.0263,21.57548 1.3723,4.40408 2.4224,9.20854 2.3336,10.67657 -0.089,1.46803 0.828,5.91604 2.0374,9.88448 1.6366,5.37012 1.8183,7.67388 0.7108,9.00835 -1.1396,1.3732 -0.9909,1.79302 0.6353,1.79302 1.3621,0 1.8411,0.73561 1.3362,2.05156 -0.433,1.12836 0.07,3.08017 1.1184,4.33736 2.754,3.30342 5.0909,9.25346 5.0909,12.96236 0,1.76596 0.6753,4.89062 1.5007,6.9437 0.8254,2.05307 1.9462,4.93398 2.4907,6.40201 0.5444,1.46802 2.3714,6.2253 4.0599,10.57172 1.6886,4.34642 3.0519,8.8506 3.0296,10.00928 -0.022,1.15869 0.3999,2.70726 0.9382,3.44127 0.5383,0.73402 1.7335,3.7368 2.656,6.67286 0.9224,2.93605 2.4096,6.23912 3.3047,7.34014 2.2045,2.7115 7.377,13.79751 7.377,15.81081 0,0.89231 0.9009,1.96806 2.0019,2.39057 1.101,0.4225 2.0018,1.35916 2.0018,2.08146 0,0.7223 2.102,3.76894 4.671,6.77029 2.5691,3.00136 4.671,6.24975 4.671,7.21865 0,0.9689 0.6194,1.76163 1.3765,1.76163 0.757,0 1.7792,1.04947 2.2714,2.33214 1.5279,3.98161 20.9736,22.47226 29.0996,27.67041 4.2497,2.71852 8.5713,5.78725 9.6034,6.81939 1.0321,1.03214 3.4862,2.24239 5.4534,2.68944 1.9672,0.44706 6.2792,1.60724 9.5823,2.57819 7.939,2.33371 16.8573,2.37336 24.3831,0.10841 z M 5971.7916,711.9772 c -4.3412,-4.64211 -5.4819,-9.0263 -3.3735,-12.96582 1.0993,-2.05401 1.3373,-5.3637 0.7125,-9.90646 -0.7771,-5.65055 -0.5865,-6.82192 1.1101,-6.82192 1.1266,0 2.4195,0.60055 2.8731,1.33457 0.4537,0.73401 2.337,1.33457 4.1852,1.33457 1.9346,0 5.0154,1.65513 7.2614,3.90105 3.6778,3.67787 5.1197,6.96794 2.9001,6.61747 -0.5505,-0.0869 -2.3087,-0.0869 -3.9071,0 -2.6929,0.14645 -2.869,0.72117 -2.3994,7.83183 0.2788,4.22058 0.1948,8.72476 -0.1865,10.00928 -1.0257,3.45497 -5.2748,2.83697 -9.1759,-1.33457 z"
       id="path21" />
  </g>
</svg>
