<?xml version="1.0" encoding="UTF-8" standalone="no"?>
<!-- Created with Inkscape (http://www.inkscape.org/) -->

<svg
   version="1.1"
   id="svg1"
   width="1728.1648"
   height="2283.3032"
   viewBox="0 0 1728.1648 2283.3035"
   sodipodi:docname="mountain.svg"
   inkscape:version="1.4.3 (0d15f75, 2025-12-25)"
   inkscape:export-batch-name="doodles"
   inkscape:export-batch-path="C:\Users\Kjmut\Downloads\doodles"
   xmlns:inkscape="http://www.inkscape.org/namespaces/inkscape"
   xmlns:sodipodi="http://sodipodi.sourceforge.net/DTD/sodipodi-0.dtd"
   xmlns="http://www.w3.org/2000/svg"
   xmlns:svg="http://www.w3.org/2000/svg">
  <sodipodi:namedview
     id="namedview1"
     pagecolor="#505050"
     bordercolor="#eeeeee"
     borderopacity="1"
     inkscape:showpageshadow="0"
     inkscape:pageopacity="0"
     inkscape:pagecheckerboard="0"
     inkscape:deskcolor="#505050"
     inkscape:zoom="0.36251647"
     inkscape:cx="2884.0069"
     inkscape:cy="1148.9133"
     inkscape:window-width="1920"
     inkscape:window-height="1051"
     inkscape:window-x="-9"
     inkscape:window-y="-9"
     inkscape:window-maximized="1"
     inkscape:current-layer="g2" />
  <defs
     id="defs1" />
  <g
     id="g14"
     inkscape:groupmode="layer"
     inkscape:label="14"
     transform="translate(-27048.184,-422.10495)">
    <path
       style="fill:#000000"
       d="m 27532.617,2703.513 c -3.669,-1.0117 -12.858,-2.1665 -20.419,-2.5663 -19.166,-1.0133 -27.741,-5.1334 -40.266,-19.348 -8.699,-9.8721 -9.179,-10.7815 -12.013,-22.7839 -5.215,-22.0863 -3.633,-45.8151 5.441,-81.6033 2.353,-9.2796 15.159,-37.3892 26.566,-58.3108 2.2,-4.0358 4.001,-8.1694 4.001,-9.1856 0,-1.0162 4.426,-8.5209 9.835,-16.677 5.41,-8.1562 10.759,-16.6305 11.889,-18.8319 1.129,-2.2013 5.395,-8.6458 9.479,-14.321 4.085,-5.6752 7.805,-11.9791 8.267,-14.0087 0.463,-2.0296 3.179,-8.6782 6.035,-14.7746 2.856,-6.0965 5.193,-11.9799 5.193,-13.0744 0,-1.0944 0.885,-3.6999 1.966,-5.7899 2.533,-4.8985 4.934,-15.4552 4.871,-21.4166 -0.03,-2.5682 0.883,-9.4104 2.022,-15.2047 1.138,-5.7943 1.737,-12.2029 1.329,-14.2414 -0.408,-2.0384 -0.123,-7.2038 0.633,-11.4785 0.756,-4.2748 1.642,-15.5772 1.968,-25.1165 0.327,-9.5392 0.648,-18.2447 0.713,-19.3453 0.06,-1.1007 0.893,-5.3033 1.841,-9.3392 0.948,-4.0358 2.075,-13.6418 2.504,-21.3466 0.43,-7.7048 1.69,-20.0125 2.8,-27.3504 1.11,-7.3379 2.022,-17.9845 2.026,-23.6591 0.02,-20.2585 5.483,-98.1035 8.271,-117.7622 1.561,-11.0068 2.968,-22.1138 3.127,-24.682 0.527,-8.5177 5.814,-53.1002 6.645,-56.0349 0.86,-3.034 3.207,-28.2577 5.4,-58.0361 1.081,-14.6758 2.104,-28.1842 2.273,-30.0187 0.364,-3.9359 -1.751,-59.5418 -2.39,-62.8615 -0.241,-1.2536 0.1,-9.3861 0.75,-18.0723 1.354,-18.0006 2.275,-34.6124 3.352,-60.4875 0.891,-21.4112 0.818,-16.4682 0.881,-59.3703 0.03,-19.0785 0.1,-46.9959 0.154,-62.0386 0.06,-15.0427 0.02,-38.1571 -0.09,-51.3653 -0.104,-13.2082 0.01,-28.5177 0.261,-34.0212 0.807,-17.9593 2.467,-99.213 2.175,-106.5078 -0.193,-4.8462 0.44,-8.2175 1.988,-10.5798 2.947,-4.4975 3.295,-17.2872 0.519,-19.0716 -1.519,-0.9766 -1.586,-1.5011 -0.298,-2.3345 2.619,-1.6954 2.606,-17.9836 -0.02,-21.9873 -1.189,-1.8149 -5.948,-5.1223 -10.575,-7.3498 -7.906,-3.8061 -12.898,-6.835 -28.425,-17.2476 -6.47,-4.3393 -20.344,-16.4228 -37.177,-32.3797 -8.468,-8.0276 -21.883,-24.1517 -34.868,-41.9113 -2.935,-4.0142 -6.556,-7.8633 -8.047,-8.5534 -2.487,-1.1517 -5.625,-6.5948 -18.986,-32.931 -2.606,-5.1366 -6.145,-11.2503 -7.864,-13.5862 -1.72,-2.3358 -3.127,-4.6326 -3.127,-5.1039 0,-0.4712 -2.317,-4.864 -5.149,-9.7617 -2.832,-4.8976 -5.546,-10.5594 -6.031,-12.5817 -0.485,-2.0223 -3.469,-8.0527 -6.631,-13.4009 -3.162,-5.3482 -6.102,-10.8981 -6.533,-12.3331 -0.432,-1.435 -2.049,-7.0039 -3.594,-12.3754 -1.545,-5.3716 -3.694,-11.1167 -4.775,-12.767 -1.081,-1.6503 -4.339,-10.9149 -7.24,-20.588 -2.901,-9.6731 -7.057,-21.3388 -9.235,-25.9238 -2.179,-4.585 -4.382,-10.7378 -4.895,-13.673 -0.514,-2.9351 -1.824,-8.6387 -2.911,-12.6745 -1.088,-4.0359 -2.798,-11.7569 -3.801,-17.1578 -1.003,-5.401 -2.176,-10.9276 -2.605,-12.2813 -0.43,-1.3538 -1.317,-5.3401 -1.972,-8.8584 -4.53,-24.3356 -12.765,-56.4069 -17.231,-67.1014 -2.291,-5.4861 -6.694,-28.68285 -7.597,-40.02494 -2.756,-34.61998 -3.296,-55.21841 -1.95,-74.36649 1.778,-25.29452 2.4,-37.80017 3.381,-68.00983 0.41,-12.63278 1.338,-24.52729 2.063,-26.43226 0.724,-1.90496 1.689,-7.77914 2.145,-13.05373 1.563,-18.10451 15.012,-67.88018 21.817,-80.75118 0.645,-1.21988 3.391,-10.32302 6.101,-20.22918 2.71,-9.90616 6.901,-24.31513 9.314,-32.01992 2.413,-7.7048 5.395,-17.61096 6.629,-22.0137 1.233,-4.40274 3.042,-9.8061 4.02,-12.00747 0.977,-2.20137 4.552,-13.60847 7.944,-25.34911 20.296,-70.25858 24.354,-80.13904 49.041,-119.40763 5.18,-8.23988 7.027,-12.94117 8.647,-22.0137 0.393,-2.20137 3.055,-7.14221 5.916,-10.97964 6.185,-8.29519 8.2,-13.08893 7.039,-16.74636 -0.773,-2.43472 -0.408,-2.61913 3.822,-1.93268 3.954,0.64158 5.253,0.15692 8.408,-3.13598 2.052,-2.14216 5.084,-3.89484 6.738,-3.89484 1.654,0 3.378,-0.60037 3.832,-1.33416 1.307,-2.11502 12.13,-1.55085 17.27,0.90027 4.258,2.03048 4.901,2.04374 7.049,0.14525 3.508,-3.10042 12.551,-4.16666 18.986,-2.23871 4.308,1.29065 5.968,2.65808 7.406,6.09803 1.019,2.43887 2.721,4.4343 3.783,4.4343 3.971,0 10.01,8.99044 11.655,17.35189 1.008,5.12118 2.993,9.85411 5.411,12.89672 2.101,2.6436 3.82,5.33724 3.82,5.98587 0,0.64862 1.468,3.41784 3.263,6.15382 4.278,6.52233 9.251,22.07874 12.538,39.21541 3.654,19.05327 8.388,45.13071 8.922,49.14432 1.785,13.43621 7.703,34.21417 17.289,60.70444 5.318,14.69534 12.279,39.14032 14.057,49.36405 0.894,5.13653 2.468,12.09189 3.498,15.45635 1.669,5.45131 3.552,14.82036 5.138,25.56022 0.297,2.013 1.469,7.41637 2.605,12.00748 1.136,4.59111 2.652,11.51161 3.371,15.37889 1.552,8.35913 4.968,20.29461 6.499,22.70676 0.836,1.31799 3.096,0.59025 9.652,-3.10911 4.709,-2.65643 9.461,-5.60096 10.562,-6.54339 3.568,-3.05502 52.75,-25.92133 69.377,-32.25545 14.556,-5.54532 41.603,-16.58927 49.364,-20.15625 4.035,-1.85498 12.741,-5.31067 19.345,-7.67931 6.604,-2.36864 14.709,-5.53573 18.011,-7.03798 3.302,-1.50224 10.507,-4.36186 16.01,-6.35471 5.504,-1.99285 11.207,-4.09026 12.675,-4.66092 3.063,-1.19115 14.679,-3.64083 25.751,-5.43083 4.181,-0.67601 10.605,-1.80715 14.274,-2.51364 10.332,-1.98962 45.623,-5.36599 56.133,-5.37039 5.191,-0.002 14.877,0.93041 21.525,2.0724 6.648,1.14199 15.221,1.89245 19.051,1.6677 l 6.963,-0.40864 3.181,-12.00747 c 5.868,-22.14501 17.57,-47.76179 33.571,-73.48761 3.615,-5.81058 9.571,-15.96806 13.236,-22.57217 22.344,-40.25394 48.104,-72.87739 73.622,-93.23793 4.961,-3.95823 11.382,-10.29382 14.268,-14.07907 2.887,-3.78526 9.756,-10.67479 15.265,-15.31007 9.026,-7.59387 10.875,-8.5695 18.689,-9.85999 4.77,-0.7877 10.332,-1.84096 12.36,-2.34057 2.974,-0.7324 3.537,-0.51319 2.906,1.13154 -1.016,2.64607 3.224,4.02162 9.036,2.93143 2.84,-0.53292 5.823,-0.0873 8.397,1.25455 2.195,1.14458 4.741,2.08476 5.658,2.08928 0.918,0.005 1.668,0.74253 1.668,1.64003 0,0.89749 3.552,5.2502 7.893,9.67268 9.332,9.50717 13.166,17.79863 17.964,38.85495 3.263,14.32119 8.147,46.90409 9.379,62.57738 0.347,4.40274 1.563,16.71039 2.702,27.35035 4.48,41.81212 6.446,67.26038 8.094,104.73183 0.419,9.53927 1.349,24.24843 2.065,32.68701 2.889,34.02701 3.746,38.85418 7.66,43.15373 5.134,5.63949 6.686,14.74937 8.216,48.23647 0.963,21.07681 1.493,24.91271 4.332,31.35284 2.441,5.53363 3.001,8.45699 2.278,11.8892 -0.526,2.50321 -0.691,5.24615 -0.365,6.09542 0.326,0.84926 -0.09,8.10697 -0.922,16.12823 -0.833,8.02127 -1.464,15.91739 -1.402,17.54694 0.06,1.62955 -0.517,4.61747 -1.286,6.63982 -1.419,3.73127 -1.961,11.4334 -3.187,45.28509 -1.08,29.82379 -5.82,58.45793 -10.791,65.18697 -1.626,2.2014 -3.397,5.5034 -3.936,7.3379 -0.539,1.8345 -1.786,4.258 -2.772,5.3855 -2.115,2.4185 -5.857,10.9694 -7.278,16.6282 -15.572,62.0292 -22.583,84.2599 -35.557,112.7368 -1.839,4.0359 -4.722,10.3702 -6.407,14.0763 -1.685,3.7061 -4.049,9.6374 -5.252,13.1808 -1.997,5.8836 -9.189,23.5989 -13.578,33.4474 -5.359,12.0227 -11.272,24.4185 -13.047,27.3503 -1.111,1.8345 -3.687,7.2379 -5.724,12.0075 -4.783,11.1969 -13.639,26.2257 -22.399,38.0131 -3.822,5.1423 -8.699,11.8212 -10.839,14.842 -16.983,23.9803 -67.551,74.0784 -78.923,78.1905 -5.815,2.1026 -5.623,5.5329 0.654,11.6941 7.583,7.4438 14.501,16.3083 15.631,20.0306 0.557,1.8332 2.465,4.887 4.241,6.7863 1.775,1.8993 5.316,9.404 7.868,16.6771 2.552,7.273 5.585,14.9024 6.739,16.9541 1.155,2.0516 4.406,10.4569 7.224,18.6782 10.294,30.0284 14.122,39.1985 20.175,48.3268 3.397,5.123 7.537,12.0141 9.2,15.3137 1.664,3.2995 3.756,6.6016 4.649,7.3379 0.894,0.7362 3.03,4.9409 4.748,9.3436 1.717,4.4028 3.592,8.6572 4.166,9.4544 0.574,0.7971 1.874,3.799 2.89,6.6708 3.245,9.1779 11.466,25.0956 15.227,29.4827 2.31,2.6956 8.275,6.3079 16.316,9.8812 6.971,3.0977 14.914,7.0394 17.651,8.7592 2.737,1.7199 5.929,3.127 7.092,3.127 3.502,0 7.467,2.6866 16.562,11.2221 9.274,8.7024 33.699,33.1395 44.926,44.9479 3.767,3.9615 9.62,9.8913 13.008,13.1772 3.388,3.286 6.16,6.4899 6.16,7.1199 0,1.2201 11.397,18.322 17.66,26.5007 2.067,2.6987 4.427,6.9014 5.245,9.3392 0.818,2.4377 2.202,5.3329 3.075,6.4335 2.258,2.8459 7.485,18.2475 8.604,25.3491 0.52,3.3021 1.622,8.1051 2.448,10.6734 1.391,4.3214 4.508,18.0415 5.153,22.6807 0.153,1.1007 0.937,5.2678 1.741,9.2602 0.805,3.9924 2.084,14.499 2.842,23.3479 0.759,8.8489 2.508,21.4923 3.888,28.0964 2.364,11.3198 7.371,41.592 10.814,65.374 0.85,5.8703 2.676,15.1391 4.059,20.5973 1.382,5.4581 2.513,11.5729 2.513,13.5883 0,2.0154 0.597,5.2336 1.326,7.1515 0.729,1.918 1.598,9.6118 1.931,17.0975 0.635,14.2972 2.418,28.687 4.867,39.303 0.803,3.4799 1.971,11.4303 2.595,17.6675 3.475,34.7407 5.564,51.4177 7.938,63.3728 6.236,31.4024 9.563,102.4361 6.095,130.1181 -1.06,8.4591 -2.197,16.2639 -2.528,17.3442 -0.33,1.0802 -1.355,6.2943 -2.277,11.587 -1.859,10.6624 -0.71,14.0548 4.621,13.644 1.53,-0.118 3.452,-0.148 4.271,-0.067 2.777,0.2754 22.296,18.7136 26.257,24.8017 3.677,5.6529 18.241,18.0392 21.211,18.0392 3.213,0 9.237,-5.9746 11.748,-11.652 3.578,-8.0875 10.409,-36.322 11.954,-49.4054 2.071,-17.5362 4.198,-40.8394 4.047,-44.3415 -0.327,-7.6117 3.328,-68.4918 5.167,-86.0536 0.691,-6.6041 0.991,-16.9452 0.665,-22.9802 -0.804,-14.8946 3.152,-49.8598 8.073,-71.3532 2.651,-11.5813 5.307,-30.2658 8.778,-61.7637 1.536,-13.942 3.394,-29.5517 4.129,-34.6882 2.16,-15.0956 2.436,-19.3454 1.257,-19.3454 -0.61,0 -1.076,-2.2514 -1.034,-5.0031 0.04,-2.7517 -0.351,-7.1044 -0.873,-9.6727 -2.202,-10.8155 -4.222,-41.8618 -3.277,-50.3583 0.551,-4.9566 0.992,-14.1152 0.981,-20.3524 -0.02,-12.6198 3.32,-41.7869 6.103,-53.2569 0.993,-4.0961 5.087,-19.455 9.097,-34.1308 4.01,-14.6758 8.842,-32.9872 10.737,-40.692 10.134,-41.2064 11.945,-48.2946 15.005,-58.7032 1.833,-6.2372 5.136,-16.7437 7.34,-23.3478 2.203,-6.6041 4.915,-15.3096 6.026,-19.3454 2.97,-10.7859 21.771,-59.0173 29.905,-76.7144 2.024,-4.4027 4.125,-9.5059 4.67,-11.3404 0.545,-1.8345 1.56,-4.0484 2.256,-4.9199 0.695,-0.8714 5.327,-9.5769 10.291,-19.3454 4.965,-9.7684 11.45,-22.2636 14.412,-27.7671 18.152,-33.727 22.237,-40.1512 34.354,-54.0336 4.483,-5.1365 10.483,-12.9414 13.333,-17.3441 6.943,-10.7249 18.12,-24.7422 28.355,-35.5592 4.619,-4.8817 8.398,-9.5737 8.398,-10.4267 0,-2.9629 14.442,-15.742 21.932,-19.4062 6.602,-3.2301 8.522,-3.5823 15.532,-2.8496 14.643,1.5305 28.623,10.4391 34.392,21.9149 3.326,6.6168 4.164,11.8405 4.894,30.5115 0.579,14.8067 0.421,16.0855 -2.729,22.1102 -1.839,3.517 -5.094,11.1912 -7.234,17.0536 -4.775,13.084 -7.11,16.4382 -21.071,30.2691 -6.065,6.0085 -11.027,11.5286 -11.027,12.267 0,0.7384 -3.753,5.8363 -8.339,11.3285 -17.687,21.1809 -22.853,28.8873 -41.551,61.9808 -6.356,11.2494 -14.091,23.7785 -17.189,27.8426 -10.706,14.0436 -14.522,19.7774 -18.419,27.6755 -3.967,8.0414 -8.856,13.7622 -14.143,16.5503 -3.951,2.0833 -4.424,1.9622 -4.424,-1.1316 0,-1.4675 -0.384,-2.6683 -0.854,-2.6683 -2.348,0 -9.819,13.1556 -9.819,17.291 0,1.4968 -0.531,2.7215 -1.179,2.7215 -0.648,0 -1.527,1.0506 -1.953,2.3347 -0.876,2.6384 -2.25,6.0929 -9.949,25.0156 -9.328,22.9269 -13.553,35.5441 -15.617,46.6448 -2.78,14.9405 -11.04,89.848 -13.02,118.0612 -2.128,30.3326 -1.894,126.8939 0.35,144.1529 0.907,6.971 1.637,14.1755 1.622,16.0099 -0.01,1.8345 0.544,9.4965 1.24,17.0268 1.352,14.6347 1.69,62.5527 0.581,82.3684 -0.369,6.6041 -1.021,25.5159 -1.448,42.0262 -1.826,70.6243 -7.432,121.3531 -18.871,170.7729 -11.159,48.2125 -17.597,69.4868 -23.828,78.7458 -4.353,6.4695 -9.986,17.7508 -9.986,20.0015 0,0.5577 -3.319,4.4968 -7.377,8.7534 -4.849,5.0877 -9.659,12.2728 -14.037,20.9705 -8.873,17.6277 -27.256,39.1263 -37.914,44.3411 -3.997,1.9554 -7.967,4.3978 -8.821,5.4276 -0.855,1.0297 -2.433,1.8722 -3.507,1.8722 -1.075,0 -6.254,2.9726 -11.511,6.6058 -10.494,7.2536 -21.422,11.7973 -37.246,15.4871 l -10.344,2.4121 -9.001,-3.1204 c -13.16,-4.5624 -26.138,-12.1503 -28.743,-16.8051 -1.54,-2.7509 -5.954,-2.353 -6.898,0.6218 -0.442,1.3932 -5.136,7.352 -10.43,13.2419 -9.292,10.3379 -15.838,16.0915 -32.479,28.547 -4.308,3.2243 -9.973,7.9292 -12.589,10.4554 -2.617,2.5261 -7.828,5.6888 -11.581,7.0281 -3.752,1.3393 -10.549,5.4253 -15.103,9.08 -9.519,7.64 -24.979,15.8352 -29.871,15.8352 -3.345,0 -15.538,4.4226 -28.077,10.1836 -3.669,1.6857 -9.373,3.6639 -12.675,4.3961 -8.357,1.853 -15.043,5.5152 -39.725,21.7593 -7.54,4.9624 -14.027,9.0226 -14.416,9.0226 -0.388,0 -4.125,2.3037 -8.304,5.1193 -6.386,4.3027 -30.307,16.2273 -32.552,16.2273 -0.381,0 -5.129,2.4479 -10.55,5.4398 -16.086,8.8768 -28.778,12.9496 -57.888,18.5762 -11.74,2.2693 -23.147,4.6329 -25.349,5.2523 -2.201,0.6195 -8.805,2.1452 -14.676,3.3904 -5.87,1.2453 -16.377,3.6585 -23.348,5.3627 -6.971,1.7042 -15.076,3.4337 -18.011,3.8432 -2.935,0.4096 -13.349,1.992 -23.142,3.5164 -15.978,2.4873 -18.375,2.5757 -23.348,0.8607 -3.048,-1.0511 -9.144,-2.9438 -13.547,-4.206 -4.403,-1.2622 -12.529,-4.6325 -18.059,-7.4895 -5.53,-2.857 -10.771,-5.1946 -11.648,-5.1946 -0.877,0 -4.862,2.0904 -8.856,4.6453 -3.994,2.5549 -11.96,6.8442 -17.703,9.5318 -5.743,2.6875 -15.993,7.5014 -22.778,10.6975 -6.785,3.1961 -13.301,5.8112 -14.481,5.8112 -4.941,0 -35.195,8.6378 -42.915,12.2524 -6.865,3.2145 -9.393,3.7597 -14.134,3.0487 -3.298,-0.4945 -8.008,-0.1866 -10.985,0.7182 -2.866,0.8712 -10.146,2.3076 -16.177,3.1919 -8.92,1.3081 -11.089,1.2839 -11.632,-0.1296 -0.366,-0.9556 -2.036,-1.8072 -3.71,-1.8923 -2.732,-0.1389 -2.77,-0.2231 -0.376,-0.8214 4.198,-1.0488 6.453,-5.6946 2.764,-5.6946 -3.093,0 -6.099,-3.912 -6.099,-7.937 0,-4.4788 -1.965,-6.3471 -7.313,-6.9543 -3.057,-0.3471 -4.281,-1.3783 -5.284,-4.4541 -0.717,-2.2014 -1.439,-4.2124 -1.602,-4.469 -0.164,-0.2566 -2.29,0.1906 -4.724,0.9938 -2.433,0.8032 -8.628,1.7723 -13.764,2.1537 -9.352,0.6943 -23.01,5.334 -30.271,10.2829 -1.974,1.3449 -10.979,5.9341 -20.013,10.1982 -37.226,17.5721 -47.061,21.2689 -60.759,22.8383 -13.475,1.5439 -12.353,1.587 -21.039,-0.8082 z m 45.617,-120.6744 c 10.681,-1.9123 18.409,-2.5482 24.953,-2.0532 20.58,1.5565 19.694,1.6667 26.824,-3.3396 6.457,-4.534 28.797,-12.5921 37.294,-13.4519 6.52,-0.6598 12.788,-12.945 27.899,-54.6787 4.188,-11.567 6.94,-22.1448 8.695,-33.4203 1.412,-9.0733 3.441,-18.5886 4.509,-21.1451 3.691,-8.8328 12.819,-44.6703 17.642,-69.2654 5.976,-30.4667 13.63,-62.0096 16.673,-68.7095 1.543,-3.3964 5.733,-19.6958 10.118,-39.3578 6.409,-28.7378 7.598,-36.8297 11.866,-80.7169 1.07,-11.0068 3.124,-27.8173 4.564,-37.3566 10.612,-70.2758 12.54,-81.8079 18.072,-108.0672 5.464,-25.9438 9.973,-64.8754 12.128,-104.7318 0.456,-8.4386 1.048,-17.537 1.315,-20.2187 0.267,-2.6816 1.157,-13.4883 1.978,-24.0149 0.821,-10.5266 2.367,-24.016 3.436,-29.9766 3.868,-21.5618 7.101,-52.8256 7.39,-71.4644 0.125,-8.0456 0.703,-11.7915 1.887,-12.2461 0.939,-0.3602 2.12,-3.6545 2.624,-7.3207 0.508,-3.6966 1.732,-6.9785 2.746,-7.3678 2.252,-0.864 7.287,-10.4786 7.287,-13.9138 0,-1.3831 1.273,-3.6584 2.829,-5.0563 4.981,-4.4735 17.183,-21.4885 17.183,-23.9596 0,-3.4936 3.941,-7.2664 7.589,-7.2664 1.745,0 6.272,-1.5701 10.059,-3.4892 6.728,-3.4094 16.234,-4.575 18.448,-2.2621 0.569,0.5949 1.236,2.5826 1.481,4.4171 0.389,2.901 1.018,3.2782 4.835,2.8959 4.147,-0.4155 4.339,-0.2459 3.502,3.0925 -0.682,2.7174 -0.233,3.9902 1.949,5.5183 1.559,1.0924 2.836,2.9556 2.836,4.1403 0,1.1848 1.016,3.2776 2.259,4.6508 5.886,6.504 6.619,19.8503 2.354,42.8735 -1.066,5.7595 -1.614,10.999 -1.215,11.6432 0.398,0.6442 0.13,3.4365 -0.595,6.2051 -1.248,4.7695 -2.551,14.7882 -5.379,41.3899 -2.785,26.2019 -4.578,45.3973 -4.827,51.6988 -1.117,28.2901 -7.075,115.3389 -7.995,116.8278 -0.411,0.6647 -1.013,6.17 -1.339,12.234 -0.325,6.064 -1.82,21.8321 -3.321,35.0403 -1.5,13.2083 -3.302,31.5197 -4.003,40.692 -3.298,43.1665 -7.081,72.7264 -18.183,142.0884 -0.47,2.9352 -0.976,7.7382 -1.124,10.6734 -0.431,8.5369 -3.003,23.8588 -11.002,65.5166 -1.283,6.6825 -3.213,13.2043 -4.289,14.4929 -1.25,1.4977 -1.912,5.056 -1.836,9.8636 0.07,4.1364 -0.522,7.9291 -1.307,8.4282 -0.785,0.4991 -1.856,5.3021 -2.38,10.6733 -0.525,5.3713 -1.904,11.567 -3.066,13.7684 -1.162,2.2014 -2.137,5.5034 -2.168,7.3379 -0.03,1.8345 -0.914,4.8363 -1.962,6.6708 -1.049,1.8345 -1.928,4.9082 -1.954,6.8306 -0.03,1.9223 -1.239,7.2266 -2.696,11.7872 -1.457,4.5607 -3.311,12.2937 -4.119,17.1844 -0.808,4.8908 -2.618,12.0668 -4.022,15.9467 -1.404,3.8799 -2.552,8.1404 -2.552,9.4677 0,1.3273 -0.956,4.3289 -2.124,6.6702 -1.661,3.3299 -1.777,4.6735 -0.535,6.1703 1.888,2.2747 16.988,9.9952 19.549,9.9952 2.136,0 2.156,0.1922 0.487,4.5827 -0.845,2.2236 -0.845,3.4223 0,3.4223 2.677,0 1.176,4.1169 -2.034,5.5794 -2.048,0.9329 -3.336,2.6238 -3.336,4.3788 0,1.8005 -2.775,5.3026 -7.496,9.4585 -9.009,7.9304 -13.765,14.7818 -17.085,24.6107 -3.082,9.1246 -14.452,32.8548 -18.84,39.3208 -3.541,5.2185 -3.948,6.8011 -2.049,7.9747 1.294,0.7998 11.787,-1.719 20.859,-5.0069 19.1,-6.9227 58.562,-31.4545 64.218,-39.9225 4.233,-6.3366 8.192,-38.2344 9.816,-79.0805 2.006,-50.4654 4.101,-72.6006 9.532,-100.7294 5.386,-27.8947 7.438,-40.9135 8.304,-52.6994 0.877,-11.9297 1.329,-14.8307 5.295,-34.0212 1.137,-5.5034 3.93,-19.9124 6.206,-32.0199 2.275,-12.1075 4.771,-24.045 5.544,-26.5277 1.392,-4.4636 2.105,-7.4819 8.242,-34.8438 1.728,-7.7048 5.561,-23.6147 8.518,-35.3554 2.957,-11.7406 6.719,-27.3503 8.361,-34.6882 1.641,-7.3379 5.04,-22.0471 7.553,-32.687 2.513,-10.64 5.456,-23.2478 6.54,-28.0175 1.941,-8.5401 3.049,-12.9555 13.894,-55.3677 3.003,-11.7407 8.463,-34.8551 12.135,-51.3653 9.976,-44.8597 22.928,-90.0639 27.905,-97.394 1.245,-1.8344 2.642,-5.302 3.103,-7.7056 0.906,-4.7224 10.844,-20.3118 12.949,-20.3118 1.688,0 1.638,3.5167 -0.1,6.7585 -1.02,1.9052 -0.949,2.5806 0.27,2.5806 2.223,0 10.45,-8.084 10.45,-10.2679 0,-2.2675 2.239,-2.2371 3.603,0.049 1.338,2.2433 6.815,3.707 7.815,2.0887 0.411,-0.6649 2.524,-1.2089 4.696,-1.2089 3.59,0 3.87,0.3167 3.077,3.4786 -0.578,2.3028 -0.249,3.8743 0.975,4.6492 2.698,1.7088 3.849,1.4726 3.849,-0.7899 0,-1.1007 1.11,-2.0012 2.466,-2.0012 1.644,0 3.245,1.8887 4.805,5.6701 3.416,8.2782 4.097,9.4596 5.776,10.0192 1.948,0.6494 5.619,-8.0956 5.674,-13.5175 0.02,-2.2952 0.954,-5.3738 2.069,-6.8414 1.854,-2.4414 2.006,-1.615 1.782,9.7187 -0.267,13.5544 0.627,16.4061 3.093,9.8722 0.882,-2.3364 2.335,-4.248 3.228,-4.248 1.702,0 1.596,13.6278 -0.212,27.3503 l -0.879,6.6708 2.747,-3.3354 c 2.89,-3.51 3.59,-2.2735 1.651,2.915 -0.635,1.6988 -0.724,4.2895 -0.198,5.7571 0.527,1.4676 0.132,6.2072 -0.876,10.5326 -1.008,4.3254 -1.59,8.1073 -1.293,8.4043 0.297,0.297 0,2.9102 -0.644,5.8071 -0.972,4.3288 -3.354,19.7812 -5.953,38.6288 -0.253,1.8344 -0.776,11.4404 -1.161,21.3466 -0.386,9.9061 -1.238,25.816 -1.893,35.3553 -0.655,9.5393 -1.258,19.1452 -1.34,21.3466 -0.899,24.2416 -2.592,52.4368 -3.245,54.0336 -0.45,1.1007 -1.129,8.3052 -1.508,16.01 -0.379,7.7048 -1.153,20.0125 -1.719,27.3504 -2.412,31.2587 -1.112,46.4915 7.169,84.0523 1.78,8.0716 4.114,19.1986 5.187,24.7266 1.073,5.528 5.487,20.8375 9.809,34.0212 12.727,38.8169 28.586,93.0286 28.479,97.3493 -0.05,2.2014 0.411,5.2032 1.034,6.6708 1.579,3.716 5.063,29.4943 6.034,44.6334 0.444,6.9374 1.163,13.1876 1.597,13.8894 0.434,0.7018 0.946,3.7312 1.139,6.7319 0.192,3.0008 0.77,8.7976 1.284,12.8817 0.688,5.4664 0.408,8.4587 -1.061,11.3404 -1.097,2.1531 -2.403,7.8231 -2.901,12.6001 l -0.907,8.6855 -7.6,4.8479 c -4.179,2.6663 -9.4,5.7641 -11.602,6.8839 -2.201,1.1199 -6.704,4.8398 -10.006,8.2665 -6.175,6.4088 -17.028,12.6619 -21.976,12.6619 -1.539,0 -6.38,1.2835 -10.757,2.8522 -4.377,1.5688 -11.261,3.6098 -15.297,4.5357 -16.901,3.8773 -28.546,7.4133 -34.861,10.5849 -3.694,1.8556 -7.331,3.3738 -8.081,3.3738 -0.751,0 -4.17,1.4091 -7.599,3.1312 -3.429,1.7222 -8.619,3.5778 -11.534,4.1236 -8.908,1.6679 -18.923,7.2402 -24.597,13.6867 -2.962,3.3646 -5.385,6.86 -5.385,7.7675 0,2.708 -3.932,5.1436 -8.445,5.2306 -3.34,0.064 -4.319,0.713 -4.656,3.0834 -0.4,2.8199 0.04,3.0007 7.338,2.9822 9.821,-0.025 23.665,-3.2485 28.385,-6.6096 1.997,-1.4213 7.779,-3.4756 12.851,-4.565 28.913,-6.2104 36.875,-7.8303 49.731,-10.1176 15.577,-2.7714 30.506,-7.8474 44.877,-15.2588 5.136,-2.649 11.741,-5.4663 14.676,-6.2606 2.935,-0.7944 6.254,-2.2615 7.375,-3.2603 2.296,-2.0446 25.229,-13.9458 26.873,-13.9458 0.585,0 8.727,-5.2658 18.095,-11.7017 23.301,-16.008 31.244,-20.3182 37.443,-20.3182 3.918,0 5.988,-0.9197 8.89,-3.9486 3.934,-4.1056 13.789,-9.393 17.509,-9.393 1.179,0 3.774,-1.1608 5.766,-2.5796 1.993,-1.4188 5.387,-2.9728 7.544,-3.4532 6.869,-1.5304 21.062,-6.226 27.269,-9.0215 3.302,-1.4873 8.935,-2.8622 12.518,-3.0552 3.583,-0.1931 7.242,-1.1505 8.132,-2.1276 0.89,-0.9772 3.483,-6.5796 5.762,-12.4499 3.274,-8.4318 4.871,-16.2771 7.607,-37.3566 1.905,-14.6758 4.097,-31.4863 4.871,-37.3566 0.774,-5.8703 1.618,-14.2755 1.875,-18.6783 0.256,-4.4027 1.133,-17.0106 1.947,-28.0174 0.814,-11.0068 1.757,-28.4177 2.095,-38.6907 0.338,-10.2731 1.243,-26.6232 2.011,-36.3335 0.768,-9.7104 1.096,-18.1421 0.728,-18.7372 -0.367,-0.5951 -0.785,-16.365 -0.928,-35.0443 -0.231,-30.1997 -2.058,-77.7251 -3.409,-88.663 -0.272,-2.2013 -1.063,-12.1075 -1.758,-22.0137 -1.097,-15.6304 -5.08,-38.4589 -10.822,-62.0386 -3.022,-12.4055 -9.641,-34.6677 -11.306,-38.0236 -0.911,-1.8345 -2.967,-8.6983 -4.569,-15.253 -1.603,-6.5546 -3.849,-14.0593 -4.991,-16.677 -1.142,-2.6177 -2.22,-6.2604 -2.395,-8.0949 -0.176,-1.8345 -1.272,-10.2397 -2.436,-18.6783 -1.164,-8.4386 -2.782,-21.947 -3.594,-30.0187 -1.805,-17.9446 -7.052,-45.458 -11.577,-60.7044 -4.038,-13.6091 -6.88,-20.5554 -19.646,-48.0299 -4.051,-8.718 -28.601,-34.6883 -32.791,-34.6883 -0.879,0 -5.355,-2.1013 -9.947,-4.6695 -4.593,-2.5683 -9.247,-4.6696 -10.343,-4.6696 -1.096,0 -2.624,-1.3864 -3.396,-3.0809 -0.884,-1.9412 -3.468,-3.6993 -6.982,-4.7523 -3.635,-1.089 -8.269,-4.3158 -13.3,-9.2601 -4.246,-4.1738 -10.848,-10.5906 -14.67,-14.2596 -3.823,-3.6689 -8.86,-9.2038 -11.194,-12.2997 -2.334,-3.0959 -4.877,-5.6475 -5.651,-5.6702 -0.774,-0.023 -3.475,-3.4066 -6.003,-7.5199 -2.529,-4.1132 -6.7,-10.267 -9.269,-13.6752 -2.569,-3.4081 -5.695,-8.4126 -6.945,-11.1212 -1.251,-2.7085 -5.753,-10.2132 -10.004,-16.677 -10.795,-16.4107 -15.374,-24.9915 -29.769,-55.7798 -5.228,-11.1826 -14.996,-35.1431 -18.765,-46.0286 -2.16,-6.2373 -4.756,-13.1415 -5.769,-15.3429 -4.94,-10.7339 -15.101,-52.2526 -13.689,-55.9324 0.389,-1.0144 -0.133,-2.9534 -1.16,-4.3088 -1.027,-1.3555 -1.886,-3.7418 -1.909,-5.303 -0.02,-1.5612 -0.927,-3.5727 -2.009,-4.4701 -1.081,-0.8974 -2.348,-3.6726 -2.816,-6.1671 -1.103,-5.8763 -4.298,-5.9563 -16.171,-0.4049 -9.101,4.2548 -24.193,9.7742 -32.413,11.8541 -2.568,0.6498 -7.672,2.146 -11.341,3.3249 -3.668,1.1789 -9.972,3.0935 -14.008,4.2548 -4.036,1.1612 -12.741,4.0976 -19.346,6.5252 -18.42,6.7711 -39.118,12.1027 -53.366,13.7461 -4.403,0.5078 -10.049,1.9594 -12.546,3.2258 -2.498,1.2664 -5.574,2.3025 -6.837,2.3025 -1.262,0 -4.922,0.9503 -8.133,2.1118 -8.898,3.2186 -20.143,6.0423 -20.929,5.2557 -0.386,-0.3863 -1.652,0.1182 -2.812,1.1212 -2.815,2.433 -8.301,3.2443 -37.465,5.5398 -35.431,2.7887 -42.548,2.5927 -58.096,-1.6001 -7.305,-1.9698 -15.383,-3.6209 -17.951,-3.6689 -4.35,-0.081 -4.66,0.1864 -4.521,3.9151 0.08,2.2014 0.611,15.4096 1.175,29.3516 0.565,13.942 0.987,35.2553 0.938,47.3628 -0.05,12.1075 -0.147,33.4854 -0.217,47.5063 -0.07,14.021 0.465,29.6307 1.188,34.6883 0.723,5.0576 1.635,19.4019 2.025,31.8764 1.661,53.0165 2.43,72.0997 2.941,72.974 0.698,1.1948 0.533,52.1828 -0.208,64.4448 -0.31,5.1365 -0.859,33.0539 -1.22,62.0386 -0.36,28.9847 -1.206,58.403 -1.879,65.374 -0.674,6.971 -1.246,13.8753 -1.272,15.3429 -0.166,9.4905 -1.971,30.6146 -3.192,37.3566 -0.797,4.4027 -1.648,14.3089 -1.891,22.0137 -0.643,20.3922 -2.878,55.9982 -4.481,71.3777 -0.764,7.3379 -1.988,19.0452 -2.721,26.0162 -0.732,6.971 -2.291,17.1774 -3.463,22.6808 -1.173,5.5034 -2.272,14.8092 -2.444,20.6795 -0.171,5.8704 -1.091,14.2756 -2.044,18.6783 -0.954,4.4028 -1.964,13.4084 -2.245,20.0125 -0.282,6.6041 -0.742,14.1088 -1.023,16.677 -0.281,2.5683 -0.955,8.8722 -1.498,14.0087 -0.574,5.428 -1.891,10.3774 -3.144,11.8182 -1.452,1.6684 -2.191,5.1586 -2.259,10.6733 -0.06,4.5069 -0.773,12.9973 -1.592,18.8676 -5.361,38.4152 -6.873,55.0869 -8.291,91.3902 -0.874,22.3806 -2.44,45.495 -3.478,51.3653 -2.899,16.3817 -10.491,47.4788 -12.867,52.6995 -1.168,2.5682 -2.842,6.979 -3.72,9.8016 -0.877,2.8227 -2.426,6.7251 -3.442,8.6721 -1.016,1.947 -1.851,3.95 -1.855,4.4511 0,0.5011 -3.01,5.8535 -6.679,11.8942 -3.758,6.1869 -6.671,12.5975 -6.671,14.6801 0,3.0079 -1.502,4.7506 -8.059,9.3501 -4.836,3.3923 -7.79,6.3546 -7.386,7.4074 0.628,1.637 -11.551,15.1273 -13.657,15.1273 -2.258,0 -20.225,20.0273 -24.536,27.3504 -7.006,11.8995 -7.697,22.0137 -1.504,22.0137 1.045,0 8.864,-1.2466 17.374,-2.7703 z m 794.238,-116.5858 c 0,-1.6607 -11.071,-11.3036 -12.186,-10.6143 -1.699,1.05 0.92,4.1164 6.826,7.9928 5.215,3.4225 5.36,3.4936 5.36,2.6215 z m -419.841,-15.5231 c 0.403,-1.5384 0.408,-3.6397 0.01,-4.6696 -0.89,-2.3206 -4.429,-2.4833 -4.454,-0.2048 -0.01,0.9172 -0.38,3.0185 -0.822,4.6695 -0.638,2.3806 -0.253,3.0019 1.864,3.0019 1.587,0 2.964,-1.1333 3.399,-2.797 z m 529.243,-21.3754 c 0,-0.7338 -0.601,-0.9631 -1.334,-0.5096 -0.734,0.4535 -1.335,1.4249 -1.335,2.1587 0,0.7338 0.601,0.9631 1.335,0.5096 0.733,-0.4535 1.334,-1.4249 1.334,-2.1587 z m 6.924,-8.4049 c 1.288,-2.4789 1.064,-2.4298 -2.074,0.4564 -1.934,1.7789 -3.516,3.8037 -3.516,4.4994 0,1.7906 3.868,-1.6382 5.59,-4.9558 z m -596.624,-554.4546 c 0,-0.7338 -0.636,-1.3342 -1.413,-1.3342 -0.777,0 -1.042,0.6004 -0.589,1.3342 0.454,0.7337 1.09,1.3341 1.413,1.3341 0.324,0 0.589,-0.6004 0.589,-1.3341 z m -86.34,-492.4898 c 12.629,0.1358 22.11,-0.3351 23.682,-1.1762 1.792,-0.9594 2.62,-0.9662 2.62,-0.022 0,0.7596 1.482,1.3811 3.294,1.3811 2.291,0 3.073,-0.5743 2.569,-1.8877 -0.463,-1.2065 -3.457,-2.1119 -8.297,-2.5089 -8.742,-0.7171 -17.845,-3.0363 -23.582,-6.008 -7.951,-4.1191 -9.352,-4.9567 -10.173,-6.0813 -0.458,-0.6287 -1.244,-0.4786 -1.746,0.3335 -1.364,2.2063 -12.234,1.815 -14.573,-0.5246 -1.101,-1.1007 -3.205,-2.0013 -4.675,-2.0013 -3.919,0 -4.422,-3.3879 -2.898,-19.521 1.532,-16.2271 2.436,-20.1222 6.537,-28.1602 3.55,-6.9589 3.549,-7.0011 -0.467,-19.0738 l -3.312,-9.9594 2.919,-8.4144 c 2.374,-6.8445 2.619,-8.8947 1.311,-10.9887 -2.726,-4.3661 -1.849,-10.4512 2.398,-16.6234 2.203,-3.2019 5.055,-6.162 6.337,-6.5781 4.25,-1.3783 13.953,-12.4878 14.882,-17.0379 0.799,-3.9081 1.486,-4.4767 6.182,-5.1112 2.906,-0.3926 6.026,-1.1735 6.933,-1.7353 0.907,-0.5619 3.861,-0.411 6.564,0.3353 3.34,0.9223 8.077,0.917 14.789,-0.017 7.54,-1.0486 10.342,-0.9855 11.852,0.2673 2.111,1.7525 11.416,3.8233 19.341,4.3046 2.657,0.1614 7.16,1.8916 10.006,3.8449 2.846,1.9532 6.874,3.9666 8.95,4.4741 2.132,0.521 4.421,2.3393 5.258,4.1758 0.984,2.1589 2.278,3.045 3.847,2.6346 4.044,-1.0575 5.415,2.5102 5.34,13.8992 -0.04,5.9656 0.726,13.0327 1.701,15.7045 0.975,2.6718 2.569,7.5595 3.542,10.8616 2.431,8.252 6.494,17.5645 8.827,20.235 1.481,1.6944 1.601,2.8646 0.503,4.9154 -0.792,1.4804 -1.441,4.7624 -1.441,7.2933 0,3.5531 -0.638,4.7687 -2.802,5.3345 -1.541,0.4031 -2.411,1.3668 -1.932,2.1416 0.541,0.8752 0.03,1.0882 -1.335,0.5625 -3.125,-1.1995 -4.56,1.8001 -4.583,9.5855 -0.03,8.2986 -2.976,13.292 -6.683,11.3084 -4.158,-2.2253 -5.165,-1.5658 -5.598,3.6643 -0.383,4.6256 -0.817,5.0992 -5.751,6.2776 -5.48,1.3087 -7.702,3.0602 -6.451,5.0841 0.39,0.6322 -1.376,0.7581 -3.926,0.2797 -4.293,-0.8052 -5.012,-0.4201 -9.702,5.1907 -4.078,4.8783 -6.313,6.3279 -11.459,7.4314 -3.516,0.7541 -8.186,1.0124 -10.378,0.574 -3.455,-0.6912 -4.097,-0.3477 -4.834,2.5869 -1.9,7.57 -0.905,8.2745 11.509,8.1539 l 11.383,-0.1106 7.364,-5.9975 c 4.049,-3.2986 10.618,-7.9338 14.597,-10.3004 8.461,-5.0328 16.432,-11.6072 37.533,-30.9566 17.313,-15.8759 28.067,-24.3515 40.736,-32.1057 14.099,-8.6294 45.263,-23.8163 48.872,-23.8163 1.84,0 3.65,-0.4935 4.023,-1.0967 0.373,-0.6032 5.061,-2.8108 10.419,-4.9058 7.242,-2.8322 12.237,-6.0582 19.475,-12.5785 16.581,-14.9359 42.947,-48.2993 57.012,-72.1422 9.026,-15.3022 18.314,-29.9064 21.636,-34.0211 5.518,-6.8344 23.033,-34.2498 27.702,-43.3603 2.445,-4.7697 7.305,-15.4952 10.8,-23.8344 3.496,-8.3393 8.212,-18.2455 10.481,-22.0137 8.502,-14.12 19.533,-38.3933 29.489,-64.88751 5.653,-15.04269 10.744,-29.45166 11.314,-32.01992 0.571,-2.56827 1.99,-8.97616 3.154,-14.23976 2.047,-9.25166 4.038,-40.41753 3.997,-62.57356 -0.02,-10.30937 -1.773,-17.60329 -5.269,-21.91478 -0.892,-1.10069 -3.195,-7.40461 -5.117,-14.00872 -3.717,-12.7708 -4.115,-19.56118 -3.089,-52.69946 0.641,-20.71612 -1.145,-72.64014 -3.053,-88.72187 -3.809,-32.12351 -4.992,-40.3566 -6.04,-42.05238 -1.055,-1.70717 -2.005,-5.77517 -3.323,-14.24069 -0.594,-3.81095 -1.415,-7.47175 -1.825,-8.1351 -0.41,-0.66335 -1.099,-6.25071 -1.531,-12.41635 -0.675,-9.62516 -1.919,-21.28074 -4.044,-37.89354 -0.419,-3.27432 -1.657,-32.50374 -1.879,-44.36094 -0.09,-4.8017 -3.282,-3.47899 -6.44,2.66833 -5.785,11.26324 -12.525,22.78051 -20.757,35.46477 -9.406,14.49456 -36.899,59.68219 -36.899,60.64694 0,0.34317 -2.785,5.6501 -6.188,11.79317 -8.433,15.22341 -19.161,36.49708 -19.161,37.99708 0,0.67599 -1.167,3.40568 -2.593,6.06598 -1.426,2.66029 -2.326,5.20299 -2.001,5.65043 0.325,0.44745 0.206,0.52854 -0.265,0.1802 -0.47,-0.34833 -3.508,3.70419 -6.749,9.00561 -3.242,5.30142 -7.367,10.7448 -9.167,12.09641 -1.799,1.35161 -4.84,5.13399 -6.757,8.4053 -4.997,8.52546 -17.457,14.69551 -31.563,15.62903 -9.39,0.62142 -10.747,0.37074 -17.241,-3.18533 -6.281,-3.43926 -7.958,-3.78142 -15.388,-3.14012 -4.79,0.41342 -8.339,0.18946 -8.339,-0.52623 0,-0.68528 -1.651,-1.24056 -3.669,-1.23397 -2.017,0.007 -7.571,-0.60781 -12.341,-1.36534 -21.35,-3.39086 -70.927,0.56822 -86.005,6.86803 -2.774,1.15904 -6.228,2.10735 -7.677,2.10735 -1.448,0 -4.226,0.87633 -6.174,1.9474 -3.267,1.79679 -16.309,7.14358 -30.892,12.66508 -3.302,1.25026 -8.105,3.24268 -10.673,4.42758 -2.568,1.18491 -9.773,4.22477 -16.01,6.75524 -13.125,5.32515 -26.943,11.01767 -32.687,13.46629 -2.201,0.93846 -8.205,3.35516 -13.341,5.37044 -5.137,2.01529 -10.54,4.31523 -12.008,5.11098 -1.467,0.79575 -9.272,4.86717 -17.344,9.0476 -20.906,10.82729 -34.884,19.44072 -43.504,26.80784 -4.115,3.51662 -7.867,6.00823 -8.338,5.5369 -0.472,-0.47132 -0.857,-0.15652 -0.857,0.69957 0,0.85609 -0.656,1.55652 -1.458,1.55652 -0.801,0 -2.923,1.15334 -4.715,2.56297 -1.792,1.40964 -7.891,4.479 -13.552,6.82081 -5.662,2.34182 -15.377,6.67097 -21.59,9.62034 -9.79,4.64758 -12.829,5.44336 -22.798,5.96912 l -11.503,0.60663 -3.551,-4.22023 c -1.954,-2.32113 -3.552,-4.96153 -3.552,-5.86755 0,-0.90602 -1.243,-2.9818 -2.762,-4.61284 -1.52,-1.63104 -4.576,-7.2977 -6.792,-12.59258 -8.361,-19.98336 -27.176,-83.98848 -28.694,-97.61337 -0.331,-2.97282 -1.456,-8.407 -2.499,-12.07595 -1.043,-3.66895 -2.246,-9.07231 -2.673,-12.00747 -1.619,-11.12471 -5.118,-29.37749 -7.288,-38.02366 -0.644,-2.56827 -2.041,-8.27181 -3.104,-12.67455 -3.631,-15.04815 -9.174,-34.68675 -10.166,-36.02242 -0.546,-0.73379 -2.946,-7.63809 -5.335,-15.34288 -2.389,-7.70479 -5.162,-16.41021 -6.161,-19.34537 -1,-2.93516 -2.218,-8.03834 -2.708,-11.34039 -1.329,-8.96767 -2.142,-9.95789 -5.763,-7.02566 -2.111,1.70956 -3.257,4.39036 -3.751,8.77664 -0.392,3.4734 -1.233,6.6371 -1.869,7.03045 -0.637,0.39336 -1.158,1.94581 -1.158,3.44991 0,4.32235 -7.383,30.30744 -16.056,56.50515 -4.377,13.2231 -7.959,25.64542 -7.959,27.60515 0,1.95973 -0.548,3.90191 -1.218,4.31596 -0.67,0.41404 -1.685,3.30125 -2.256,6.41601 -0.57,3.11477 -1.107,5.96339 -1.192,6.33029 -0.08,0.36689 -0.605,2.76839 -1.157,5.33665 -0.551,2.56827 -1.522,5.87032 -2.157,7.3379 -0.635,1.46758 -2.198,7.17113 -3.474,12.67456 -1.277,5.50342 -3.23,12.10753 -4.341,14.67579 -2.161,4.99517 -2.233,5.23402 -3.407,11.34039 -2.023,10.51662 -4.69,22.02627 -6.649,28.68452 -1.187,4.03584 -2.747,11.54051 -3.467,16.67704 -0.719,5.13653 -1.953,12.34102 -2.742,16.00997 -0.788,3.66895 -2.024,10.87343 -2.745,16.00996 -1.588,11.30387 -1.984,65.96219 -0.566,78.04856 0.56,4.76964 1.148,11.97412 1.308,16.00997 1.128,28.5394 2.254,45.62314 3.386,51.36529 0.723,3.66895 2.857,14.76078 4.741,24.64849 2.796,14.6716 4.543,20.1921 9.5,30.0187 3.341,6.6225 7.288,13.7503 8.77,15.8395 3.522,4.9618 14.398,25.2405 21.22,39.5618 10.689,22.4415 14.724,31.2466 17.212,37.5596 1.392,3.5302 4.658,10.6433 7.258,15.8069 2.6,5.1637 5.848,12.2308 7.218,15.7048 1.369,3.474 4.358,10.1734 6.641,14.8876 2.284,4.7142 4.152,9.1131 4.152,9.7753 0,0.6622 2.93,7.3101 6.51,14.7729 6.069,12.649 11.483,29.4072 25.445,78.7466 3.111,10.9966 6.677,20.5708 8.803,23.6391 4.234,6.1095 23.364,23.5735 34.64,31.6229 24.966,17.8216 60.622,37.0533 77.36,41.7243 5.134,1.4328 13.539,2.6143 18.678,2.6256 5.139,0.011 10.222,0.5762 11.296,1.2554 1.132,0.7161 11.783,0.9017 25.349,0.4417 12.868,-0.4363 32.874,-0.6914 44.457,-0.5668 z m -81.765,-273.6593 c -4.036,-0.5855 -8.839,-1.2668 -10.673,-1.5142 -9.604,-1.2951 -12.042,-2.6146 -17.213,-9.3168 -2.907,-3.7676 -6.076,-8.3547 -7.044,-10.1936 -4.895,-9.3027 -21.866,-29.3638 -27.309,-32.2811 -7.023,-3.7639 -19.253,-6.6292 -21.244,-4.977 -1.151,0.955 -1.933,0.9499 -2.53,-0.017 -0.476,-0.7694 -2.931,-1.399 -5.456,-1.399 -2.525,0 -4.591,-0.5685 -4.591,-1.2634 0,-0.6949 -2.251,-1.2916 -5.003,-1.326 -10.728,-0.1341 -13.03,-0.7723 -16.19,-4.4884 -1.75,-2.0584 -4.002,-3.428 -5.003,-3.0438 -1.002,0.3843 -1.821,0.2304 -1.821,-0.342 0,-0.5724 -1.351,-2.4913 -3.002,-4.2643 -3.031,-3.2546 -3.362,-5.3088 -3.651,-22.6286 -0.332,-19.93872 1.213,-25.40718 11.049,-39.12371 8.942,-12.46828 14.995,-14.45331 44.968,-14.74671 13.751,-0.1346 18.667,0.38725 28.017,2.9746 29.928,8.28094 42.133,17.00428 66.539,47.56037 5.275,6.60415 11.29,14.11895 13.367,16.69955 5.743,7.1382 9.508,15.3611 12.991,28.3762 3.974,14.8488 3.953,17.0895 -0.193,20.9852 -1.846,1.7344 -4.874,5.7415 -6.727,8.9047 -1.854,3.1632 -3.845,5.7512 -4.423,5.7512 -0.579,0 -1.876,1.6511 -2.882,3.669 -3.29,6.5975 -8.209,11.0068 -12.279,11.0068 -3.841,0 -11.059,3.0343 -11.905,5.0042 -0.25,0.5817 -3.756,0.5787 -7.792,-0.01 z m 233.256,-43.5314 c -0.554,-1.4675 -8.865,-11.8308 -12.452,-15.5262 -2.219,-2.2871 -2.531,-3.8622 -1.853,-9.3664 0.449,-3.6394 0.391,-7.4272 -0.127,-8.4174 -1.231,-2.3505 1.063,-14.9706 3.189,-17.545 0.909,-1.1007 2.477,-4.7029 3.484,-8.00499 2.685,-8.80265 8.184,-16.6133 33.721,-47.90066 4.251,-5.20761 8.192,-9.46837 8.759,-9.46837 0.566,0 1.978,-1.95122 3.136,-4.33603 1.158,-2.38482 5.622,-7.86187 9.92,-12.17122 10.134,-10.16207 29.586,-26.18598 31.787,-26.18598 0.944,0 2.54,-0.99995 3.547,-2.2221 1.007,-1.22216 4.833,-4.13439 8.502,-6.47162 6.279,-3.99973 7.455,-4.26045 20.012,-4.43542 11.091,-0.15453 14.411,0.30049 19.679,2.69719 4.784,2.17634 6.378,3.6448 6.504,5.99043 0.299,5.5694 0.469,5.97318 3.169,7.55148 3.013,1.76101 3.612,4.0691 3.499,13.46822 -0.07,5.89788 -1.096,8.08736 -9.987,21.34661 -5.449,8.12607 -12.822,17.2596 -16.385,20.29674 -3.563,3.03714 -8.007,6.93957 -9.874,8.67206 -1.867,1.7325 -6.76,5.45963 -10.873,8.28253 -12.888,8.84665 -17.706,14.40963 -22.316,25.76993 -16.311,40.1905 -25.765,55.0022 -35.174,55.1089 -2.044,0.023 -5.057,0.9212 -6.697,1.9955 -3.71,2.4308 -16.984,2.11 -20.112,-0.4861 -1.893,-1.5705 -2.561,-1.52 -4.627,0.3499 -2.584,2.3387 -7.697,2.9501 -8.431,1.008 z m -908.123,-11.2331 c -2.345,-2.8258 -0.338,-7.8085 2.956,-7.3384 3.98,0.5678 4.987,9.0756 1.075,9.0756 -1.424,0 -3.238,-0.7817 -4.031,-1.7372 z"
       id="path31" />
  </g>
</svg>
