<?xml version="1.0" encoding="UTF-8" standalone="no"?>
<!-- Created with Inkscape (http://www.inkscape.org/) -->

<svg
   version="1.1"
   id="svg1"
   width="1095.4353"
   height="1165.3751"
   viewBox="0 0 1095.4353 1165.3752"
   sodipodi:docname="mountain.svg"
   inkscape:version="1.4.3 (0d15f75, 2025-12-25)"
   inkscape:export-batch-name="doodles"
   xmlns:inkscape="http://www.inkscape.org/namespaces/inkscape"
   xmlns:sodipodi="http://sodipodi.sourceforge.net/DTD/sodipodi-0.dtd"
   xmlns="http://www.w3.org/2000/svg"
   xmlns:svg="http://www.w3.org/2000/svg">
  <sodipodi:namedview
     id="namedview1"
     pagecolor="#505050"
     bordercolor="#eeeeee"
     borderopacity="1"
     inkscape:showpageshadow="0"
     inkscape:pageopacity="0"
     inkscape:pagecheckerboard="0"
     inkscape:deskcolor="#505050"
     inkscape:zoom="0.36251647"
     inkscape:cx="2884.0069"
     inkscape:cy="1148.9133"
     inkscape:window-width="1920"
     inkscape:window-height="1051"
     inkscape:window-x="-9"
     inkscape:window-y="-9"
     inkscape:window-maximized="1"
     inkscape:current-layer="g2" />
  <defs
     id="defs1" />
  <g
     id="g7"
     inkscape:groupmode="layer"
     inkscape:label="7"
     transform="translate(-11627.064,-442.35665)">
    <path
       style="fill:#000000"
       d="m 11864.831,1604.7809 c -2.909,-2.9095 -2.972,-2.9138 -4.866,-0.3336 -2.173,2.9594 -1.975,3.2744 -6.712,-10.6956 -1.238,-3.6511 -2.735,-7.2534 -3.328,-8.0052 -0.948,-1.2035 -3.339,-34.5447 -3.111,-43.3947 0.05,-1.8346 -0.737,-10.5403 -1.743,-19.3461 -1.006,-8.8058 -2.059,-18.7124 -2.339,-22.0146 -0.801,-9.4327 -6.328,-33.8106 -8.167,-36.0238 -1.583,-1.9048 -3.66,-8.8845 -5.459,-18.3454 -0.795,-4.1809 -3.577,-5.7617 -5.282,-3.002 -1.403,2.2702 -4.446,1.4728 -5.359,-1.4044 -0.702,-2.2099 -1.241,-2.4308 -2.791,-1.1441 -1.057,0.877 -2.232,1.2841 -2.611,0.9046 -0.38,-0.3794 -2.216,-8.7204 -4.081,-18.5356 -1.866,-9.8151 -4.004,-18.9875 -4.753,-20.3831 -4.423,-8.245 -24.996,-143.4276 -30.579,-200.9302 -1.322,-13.6158 -6.106,-51.6001 -6.979,-55.4166 -0.342,-1.4934 -0.987,-5.9964 -1.433,-10.0067 -2.98,-26.7842 -4.965,-45.4799 -5.378,-50.6533 -0.589,-7.3889 -3.067,-26.1564 -4.756,-36.0238 -0.691,-4.036 -1.513,-9.4396 -1.828,-12.0079 -0.702,-5.7298 -5.613,-40.06883 -7.485,-52.3426 -0.753,-4.93932 -1.262,-9.44229 -1.13,-10.0066 0.447,-1.91344 -1.885,-17.02451 -2.943,-19.06776 -0.578,-1.11714 -1.415,-5.92031 -1.86,-10.67371 -0.445,-4.75341 -1.353,-11.34434 -2.019,-14.64652 -0.665,-3.30218 -1.909,-10.80714 -2.765,-16.67768 -0.856,-5.87054 -2.657,-16.67768 -4.003,-24.01586 -1.346,-7.33818 -3.934,-21.44749 -5.751,-31.35403 -1.817,-9.90655 -3.973,-21.91447 -4.792,-26.68429 -1.801,-10.48409 -9.925,-51.74308 -12.743,-64.7094 -3.792,-17.4532 -27.236,-109.96054 -28.473,-112.35751 -0.678,-1.31171 -2.005,-5.6871 -2.951,-9.7231 -2.103,-8.97873 -9.099,-30.74613 -13.938,-43.36196 -1.97,-5.13673 -4.201,-11.44089 -4.959,-14.00926 -0.758,-2.56836 -3.413,-8.5127 -5.901,-13.20966 -2.487,-4.69695 -4.523,-9.43922 -4.523,-10.53837 0,-1.09916 -2.787,-7.11139 -6.193,-13.36051 -3.406,-6.24911 -7.256,-15.31596 -8.554,-20.14855 -1.299,-4.83258 -3.157,-10.76482 -4.129,-13.18274 -1.488,-3.70297 -1.474,-4.57769 0.09,-5.54697 1.024,-0.63291 2.606,-0.86516 3.516,-0.51612 2.856,1.0962 3.582,-2.18884 1.265,-5.72569 -2.613,-3.98771 -2.097,-4.83428 2.938,-4.81347 2.048,0.008 4.727,-0.51261 5.954,-1.15794 1.226,-0.64534 4.528,-1.53719 7.338,-1.98189 2.81,-0.4447 5.481,-1.03643 5.935,-1.31496 1.404,-0.85974 17.303,4.73152 28.526,10.03188 5.871,2.7724 18.312,10.22825 27.647,16.56857 9.335,6.34032 17.384,11.52785 17.886,11.52785 0.502,0 2.771,1.3891 5.042,3.08688 7.795,5.82887 24.905,15.59212 27.323,15.59212 1.331,0 6.38,2.10139 11.22,4.66975 4.84,2.56836 9.422,4.66975 10.183,4.66975 0.76,0 6.347,2.33774 12.415,5.19498 28.087,13.22596 32.551,15.20211 35.048,15.51408 4.335,0.54161 16.034,4.23983 20.176,6.37782 2.112,1.09021 8.343,3.51743 13.846,5.39381 8.802,3.00078 26.172,11.41335 47.365,22.93911 18.045,9.81386 34.452,17.96199 36.167,17.96199 1.051,0 4.313,1.51645 7.249,3.36989 2.937,1.85344 9.979,5.64516 15.651,8.42605 13.116,6.431 30.623,16.53337 41.346,23.85893 4.593,3.13818 8.749,5.70578 9.234,5.70578 0.486,0 1.831,0.84019 2.989,1.86709 1.159,1.0269 6.309,4.12264 11.446,6.87941 15.456,8.29483 35.197,23.17207 40.785,30.73657 4.91,6.64636 14.065,15.21971 16.252,15.21971 0.582,0 3.316,1.49389 6.075,3.31976 l 5.017,3.31975 12.955,-4.63046 c 17.526,-6.26413 33.086,-10.54351 53.005,-14.57744 18.896,-3.82703 51.169,-12.43632 68.045,-18.15201 13.576,-4.59843 22.257,-6.18576 31.724,-5.80136 l 7.042,0.28591 5.602,-7.5657 c 16.918,-22.84604 30.331,-37.49322 89.596,-97.83981 66.36,-67.57114 83.416,-84.80333 101.467,-102.51348 9.924,-9.73592 20.485,-21.66934 25.388,-28.68561 10.513,-15.04497 15.206,-18.79912 20.982,-16.78556 2.266,0.78965 5.573,1.43572 7.351,1.43572 1.777,0 4.011,0.75049 4.963,1.66776 0.952,0.91728 4.853,4.30753 8.667,7.53391 14.807,12.52407 27.243,47.52569 36.79,103.53944 6.772,39.73663 26.738,120.00135 41.845,168.22405 17.04,54.38919 18.812,60.30563 23.353,77.97109 3.16,12.29072 5.906,24.56168 9.546,42.66226 0.959,4.76982 3.929,17.67834 6.599,28.68561 2.671,11.00727 7.537,31.12055 10.814,44.69618 3.277,13.57563 10.14,41.79427 15.252,62.70808 5.112,20.91384 11.936,48.83224 15.164,62.04094 3.229,13.2087 7.148,28.5189 8.711,34.0225 12.378,43.6098 16.837,73.5998 11.033,74.2157 -0.865,0.092 -2.473,0.2418 -3.573,0.3335 -1.269,0.1057 -2.002,1.5504 -2.002,3.9471 0,4.6125 -1.187,6.0078 -3.487,4.0985 -2.013,-1.6699 -4.518,-0.5194 -4.518,2.0748 0,2.0197 -8.397,7.3912 -11.554,7.3912 -1.134,0 -4.852,-1.4738 -8.262,-3.2751 -3.411,-1.8014 -9.053,-4.6096 -12.539,-6.2405 -3.485,-1.6309 -6.337,-3.4593 -6.337,-4.0631 0,-0.6037 -0.664,-1.0977 -1.474,-1.0977 -0.811,0 -4.144,-1.8012 -7.405,-4.0026 -3.262,-2.2015 -6.157,-4.0027 -6.434,-4.0027 -0.277,0 -4.9,-2.0175 -10.273,-4.4833 -5.374,-2.4659 -12.014,-5.2115 -14.756,-6.1013 -2.741,-0.8899 -5.328,-2.1746 -5.749,-2.8548 -0.42,-0.6803 -1.929,-1.2369 -3.354,-1.2369 -1.424,0 -2.589,-0.5043 -2.589,-1.1207 0,-0.6163 -2.402,-1.9132 -5.337,-2.882 -2.936,-0.9687 -5.337,-2.2384 -5.337,-2.8215 0,-0.5831 -2.252,-1.455 -5.004,-1.9375 -2.751,-0.4825 -6.218,-1.6355 -7.703,-2.5621 -1.486,-0.9266 -5.989,-3.0324 -10.007,-4.6795 -13.478,-5.5249 -15.441,-6.5414 -17.923,-9.2845 -1.36,-1.5019 -3.937,-2.7307 -5.727,-2.7307 -4.523,0 -25.99,-11.9296 -33.689,-18.7207 -2.568,-2.2656 -7.071,-5.3651 -10.007,-6.8878 -2.935,-1.5226 -5.637,-3.1808 -6.004,-3.6848 -0.367,-0.504 -6.07,-4.9153 -12.675,-9.8028 -6.604,-4.8875 -12.733,-9.4979 -13.619,-10.2452 -0.886,-0.7474 -1.986,-1.3589 -2.444,-1.3589 -0.458,0 -3.335,-2.021 -6.394,-4.4912 -3.059,-2.4702 -6.162,-4.7216 -6.895,-5.0033 -0.734,-0.2816 -5.74,-3.5141 -11.124,-7.1831 -5.385,-3.6691 -10.788,-7.2715 -12.008,-8.0053 -1.22,-0.7339 -4.62,-3.1806 -7.555,-5.4372 -7.209,-5.542 -20.903,-15.0272 -28.749,-19.9129 -3.535,-2.2015 -8.264,-5.65374 -10.509,-7.67174 -2.245,-2.018 -4.443,-3.66909 -4.885,-3.66909 -0.441,0 -6.3,-4.14707 -13.02,-9.2157 -13.613,-10.26878 -31.929,-27.75847 -30.193,-28.83107 0.617,-0.38189 0.841,-2.63463 0.495,-5.00609 -0.893,-6.13749 0.9,-8.3948 4.97,-6.25668 3.156,1.65773 3.159,1.65187 0.658,-1.16602 -2.295,-2.58508 -2.819,-2.66622 -6.004,-0.93015 -4.397,2.39634 -24.194,10.48231 -38.18,15.59418 -19.54,7.14233 -117.249,39.59385 -128.084,42.54024 -16.338,4.44252 -40.12,9.83072 -50.987,11.55192 -2.359,0.3737 -4.857,1.3667 -5.55,2.2067 -1.406,1.704 -4.634,10.4048 -16.901,45.5563 -4.609,13.2087 -10.294,29.1192 -12.633,35.3567 -2.338,6.2374 -5.757,15.8438 -7.598,21.3474 -1.84,5.5036 -4.874,14.2094 -6.742,19.3461 -1.868,5.1367 -5.129,14.0984 -7.246,19.9148 -2.116,5.8165 -4.646,12.4208 -5.622,14.6764 -4.738,10.9589 -18.141,50.3458 -18.141,53.3126 0,1.1358 -0.851,4.0368 -1.89,6.4466 -1.039,2.4098 -3.186,8.8844 -4.77,14.3881 -1.585,5.5036 -4.288,14.5095 -6.008,20.0132 -1.72,5.5036 -5.61,18.1119 -8.643,28.0185 -11.045,36.0642 -36.706,112.412 -40.503,120.5028 -1.096,2.3354 -3.499,8.7492 -5.34,14.2528 -7.854,23.4741 -32.461,89.0132 -34.314,91.3937 -0.572,0.7338 -2.528,5.2368 -4.347,10.0066 -1.819,4.7698 -4.136,10.2287 -5.149,12.1309 -1.773,3.3279 -2.033,3.3929 -6.866,1.7194 -4.781,-1.6551 -5.081,-1.5893 -6.203,1.3628 -1.909,5.0223 -7.388,6.1758 -13.697,2.8842 -3.454,-1.8019 -3.729,-1.7166 -5.347,1.6597 -0.938,1.9575 -2.902,3.706 -4.364,3.8855 -1.462,0.1795 -1.908,-0.013 -0.991,-0.4284 4.448,-2.0128 -1.464,-10.7599 -6.399,-9.4693 -2.105,0.5505 -2.256,0.1821 -1.134,-2.7695 1.346,-3.54 -0.353,-7.1961 -2.06,-4.4337 -1.329,2.1512 -1.716,21.8594 -0.696,35.4862 0.494,6.6043 0.636,12.3072 0.315,12.6729 -0.321,0.3658 -1.357,-0.3914 -2.301,-1.6826 -2.597,-3.5522 -4.811,0.011 -4.148,6.6773 0.484,4.8563 0.193,5.5306 -2.692,6.2546 -1.778,0.4464 -3.242,1.2504 -3.253,1.7868 -0.01,0.5364 -0.588,1.8729 -1.282,2.9701 -1.081,1.7103 -1.54,1.6152 -3.22,-0.6671 -1.957,-2.6593 -1.959,-2.6593 -2.877,0.01 -1.96,5.6988 -3.957,10.0066 -4.638,10.0066 -0.392,0 -2.038,-1.3263 -3.66,-2.9474 z m 27.252,-90.1141 c 1.058,-3.1013 5.469,-12.8288 12.977,-28.6244 3.385,-7.1211 6.155,-13.5583 6.155,-14.3048 0,-0.7465 1.551,-4.8267 3.446,-9.0671 3.299,-7.3817 10.484,-26.3546 14.793,-39.0638 1.119,-3.3022 2.577,-6.5743 3.239,-7.2715 0.662,-0.6971 1.204,-2.2054 1.204,-3.3517 0,-2.4286 6.057,-22.1516 8.006,-26.0677 1.578,-3.1723 11.568,-31.3523 13.48,-38.0251 1.249,-4.3629 5.399,-15.9455 7.886,-22.0145 0.601,-1.4677 2.979,-8.3353 5.283,-15.2615 2.304,-6.9262 5.956,-16.7455 8.115,-21.8207 2.16,-5.0752 3.931,-10.2155 3.935,-11.4228 0,-1.2074 0.782,-3.6962 1.728,-5.5307 1.766,-3.4265 5.501,-14.567 9.616,-28.6856 1.283,-4.4029 2.857,-8.5757 3.496,-9.2728 0.64,-0.6971 1.163,-2.4515 1.163,-3.8985 0,-2.6528 12.804,-40.7804 20.085,-59.8095 2.162,-5.6499 3.931,-11.4303 3.931,-12.8452 0,-1.4149 0.9,-3.32 2.001,-4.2335 1.101,-0.9135 2.001,-2.9915 2.001,-4.6178 0,-1.6263 2.931,-8.9495 6.512,-16.2737 3.582,-7.3242 6.953,-15.3764 7.492,-17.8936 1.234,-5.7705 9.054,-25.6921 14.894,-37.944 2.452,-5.1433 4.458,-10.3255 4.458,-11.5161 0,-2.2283 7.523,-24.9665 17.097,-51.6723 5.26,-14.67074 5.364,-15.28362 3.194,-18.67899 -1.235,-1.9308 -2.929,-4.22938 -3.764,-5.10795 -0.882,-0.92673 -1.632,-7.08859 -1.788,-14.67636 -0.148,-7.19342 -0.449,-16.08093 -0.669,-19.75002 -0.22,-3.66909 -0.848,-17.77841 -1.395,-31.35404 -0.547,-13.57563 -1.509,-26.03902 -2.137,-27.69643 -1.103,-2.91167 -1.239,-2.93421 -4.027,-0.66711 -5.354,4.35461 -31.118,30.28375 -41.677,41.94439 -10.766,11.88924 -12.014,12.47691 -17.149,8.07275 -1.447,-1.24159 -3.532,-1.64266 -5.704,-1.09747 -3.131,0.78581 -3.351,0.57145 -2.577,-2.5103 0.921,-3.67217 -1.628,-4.84915 -2.964,-1.36815 -0.423,1.10073 -1.905,2.00132 -3.294,2.00132 -1.389,0 -2.526,0.6004 -2.526,1.33421 0,0.73382 -0.6,1.33422 -1.334,1.33422 -0.734,0 -1.334,-1.3674 -1.334,-3.03867 0,-1.67126 -0.986,-4.44621 -2.191,-6.16654 -1.923,-2.74631 -2.338,-2.8639 -3.402,-0.96398 -0.666,1.19015 -1.799,2.1639 -2.519,2.1639 -0.719,0 -0.132,-1.65109 1.305,-3.66909 1.437,-2.018 3.327,-7.2599 4.201,-11.64867 1.477,-7.4203 2.245,-8.58924 10.956,-16.67768 5.152,-4.78395 10.235,-9.69776 11.296,-10.91956 4.609,-5.30912 17.506,-18.19882 22.715,-22.70163 3.119,-2.69582 5.671,-5.82755 5.671,-6.95943 0,-1.13187 -3.152,-4.12215 -7.005,-6.64508 -3.852,-2.52292 -8.806,-6.29998 -11.007,-8.39347 -4.161,-3.95653 -25.657,-15.08289 -34.338,-17.77261 -2.741,-0.84953 -5.286,-2.03313 -5.655,-2.63023 -0.369,-0.59709 -2.733,-1.47249 -5.254,-1.94532 -4.749,-0.89097 -12.792,-8.50621 -12.792,-12.11229 0,-1.04661 -1.291,-3.10625 -2.87,-4.57698 -2.073,-1.93192 -2.49,-3.14978 -1.502,-4.38817 0.752,-0.94276 1.77,-4.49685 2.262,-7.89798 0.855,-5.91764 5.089,-11.96284 7.023,-10.02869 0.491,0.49142 2.166,-0.30165 3.721,-1.76238 2.171,-2.03985 5.345,-2.82065 13.685,-3.36621 9.754,-0.63803 11.98,-0.30108 21.877,3.31079 6.06,2.21161 12.112,4.0211 13.449,4.0211 1.337,0 3.474,0.55134 4.748,1.2252 1.274,0.67385 5.019,2.41721 8.321,3.87414 3.302,1.45692 12.608,8.6875 20.68,16.06795 8.072,7.38046 15.427,13.44225 16.344,13.47065 1.248,0.0386 1.668,-4.12401 1.668,-16.51692 0,-17.1486 -0.549,-20.78214 -3.145,-20.79985 -2.66,-0.0182 -4.956,-6.65692 -3.344,-9.66912 1.014,-1.89371 1.012,-3.57588 0,-5.80731 -1.202,-2.63932 -0.904,-3.70966 1.865,-6.69713 5.04,-5.43907 4.207,-8.22584 -5.044,-16.86409 -8.586,-8.01749 -26.227,-19.65738 -29.792,-19.65738 -1.107,0 -3.587,-1.4604 -5.512,-3.24534 -1.925,-1.78493 -5.642,-4.33662 -8.26,-5.67041 -2.618,-1.33379 -5.583,-3.19532 -6.588,-4.13673 -1.005,-0.94142 -4.316,-2.97336 -7.358,-4.51543 -3.043,-1.54207 -5.832,-3.23259 -6.199,-3.75672 -0.367,-0.52413 -4.569,-2.88523 -9.339,-5.2469 -4.77,-2.36166 -10.174,-5.13358 -12.008,-6.15981 -5.812,-3.25114 -11.328,-5.9337 -33.356,-16.22071 -8.976,-4.19202 -16.781,-7.78295 -26.684,-12.27617 -1.834,-0.83241 -5.737,-2.87019 -8.672,-4.5284 -2.936,-1.65821 -9.24,-4.68552 -14.009,-6.72736 -4.77,-2.04184 -11.816,-5.78092 -15.657,-8.30908 -3.841,-2.52816 -7.744,-4.5982 -8.672,-4.60008 -0.929,-0.002 -4.991,-1.99182 -9.027,-4.42208 -4.036,-2.43025 -15.744,-7.56779 -26.017,-11.41674 -23.873,-8.94409 -26.757,-10.00303 -34.023,-12.49377 -10.583,-3.62819 -19.097,-7.10162 -29.352,-11.975 -5.504,-2.61543 -12.108,-5.72984 -14.677,-6.92091 -2.568,-1.19106 -6.471,-3.35265 -8.672,-4.80352 -2.201,-1.45088 -4.603,-2.88717 -5.337,-3.19176 -0.734,-0.30459 -2.235,-0.91568 -3.335,-1.35797 -1.101,-0.44229 -4.403,-2.26892 -7.339,-4.05917 -6.254,-3.81454 -19.022,-8.16921 -20.276,-6.91539 -0.478,0.47821 0.819,4.91755 2.881,9.8652 5.882,14.10626 8.802,21.8493 10.691,28.34182 0.961,3.30218 3.845,12.90853 6.409,21.34743 2.564,8.43891 5.987,20.14664 7.608,26.01718 1.62,5.87054 3.733,13.3755 4.694,16.67768 0.962,3.30218 3.068,11.40753 4.681,18.01189 1.612,6.60436 4.421,17.1113 6.242,23.34875 3.493,11.96441 11.902,45.29205 16.611,65.83559 2.994,13.06089 5.409,26.28559 11.002,60.24767 1.933,11.74109 4.666,27.0512 6.072,34.02247 6.696,33.18171 12.773,68.3214 17.421,100.73318 2.21,15.41017 4.893,34.02245 5.963,41.36065 1.069,7.3382 2.881,20.8471 4.026,30.0198 1.145,9.1727 2.707,20.8805 3.471,26.0172 0.764,5.1367 1.697,13.5423 2.074,18.679 0.584,7.9797 3.835,37.1185 13.246,118.7451 1.015,8.8058 2.428,20.2133 3.14,25.35 0.711,5.1368 1.664,12.9419 2.117,17.3448 3.283,31.908 14.292,96.8487 20.697,122.0806 1.397,5.5037 3.219,13.609 4.048,18.0119 1.68,8.9127 6.554,26.8493 11.402,41.9567 1.754,5.4645 3.574,12.9694 4.045,16.6776 0.47,3.7082 1.323,7.3426 1.894,8.0765 0.571,0.7338 1.759,5.2367 2.64,10.0066 2.23,12.0705 3.577,18.4743 5.19,24.6829 0.762,2.9353 1.401,7.4883 1.418,10.1178 0.02,2.6295 0.432,5.1812 0.922,5.6704 1.551,1.5519 3.17,0.966 3.994,-1.4454 z m 116.53,-562.62613 c 0,-1.14403 0.6,-2.08006 1.334,-2.08006 0.734,0 1.334,0.56496 1.334,1.25547 0,0.69051 -0.6,1.62654 -1.334,2.08007 -0.734,0.45352 -1.334,-0.11144 -1.334,-1.25548 z m -159.439,491.57923 c 0.453,-0.7338 0.189,-1.3342 -0.588,-1.3342 -0.778,0 -1.413,0.6004 -1.413,1.3342 0,0.7338 0.264,1.3342 0.588,1.3342 0.324,0 0.959,-0.6004 1.413,-1.3342 z m 817.206,-348.5635 c 0,-4.8296 -3.596,-20.706 -8.56,-37.8108 -2.536,-8.7402 -5.591,-20.3943 -6.789,-25.8979 -1.198,-5.5036 -6.017,-25.6169 -10.708,-44.69619 -8.501,-34.57362 -12.957,-53.2649 -18.13,-76.05022 -3.45,-15.19422 -14.095,-60.35983 -16.509,-70.04625 -1.006,-4.036 -2.826,-12.44155 -4.045,-18.67901 -3.713,-18.99724 -9.584,-40.97013 -18.894,-70.71336 -19.692,-62.91568 -22.726,-74.33345 -38.464,-144.76225 -4.1,-18.34545 -7.984,-36.35734 -8.632,-40.02643 -0.649,-3.66909 -2.119,-11.0632 -3.269,-16.43135 -1.149,-5.36816 -2.089,-11.39924 -2.089,-13.40242 0,-4.77175 -6.497,-29.71724 -8.309,-31.9037 -1.131,-1.364 -2.013,-1.30079 -4.489,0.32152 -5.628,3.68719 -38.578,36.21017 -79.93,78.89404 -17.612,18.17864 -33.052,33.99092 -34.311,35.13839 -1.26,1.14747 -10.926,10.79205 -21.48,21.43241 -20.973,21.14431 -27.198,27.9802 -47.344,51.99135 -4.623,5.50994 -9.306,10.5221 -10.407,11.13813 -1.101,0.61603 -3.694,3.45657 -5.762,6.31232 -3.382,4.66865 -3.658,5.8355 -2.737,11.57075 0.563,3.50817 2.07,13.43315 3.348,22.05551 1.279,8.62236 2.69,15.66783 3.137,15.65659 1.676,-0.0421 3.628,-2.18453 8.494,-9.31907 13.083,-19.18341 35.681,-40.38428 35.681,-33.47438 0,0.66836 2.748,2.54516 6.106,4.17068 5.009,2.42517 6.693,2.68738 9.384,1.46134 3.602,-1.64105 4.69,-0.46239 4.148,4.49361 -0.195,1.78799 0.455,2.61118 1.972,2.49493 6.777,-0.51928 2.632,16.84994 -7.054,29.56085 -9.566,12.55388 -14.331,19.95125 -15.276,23.7171 -0.733,2.91995 -0.198,3.89156 3.314,6.02773 2.303,1.40067 9.116,3.56899 15.14,4.81849 9.793,2.03139 19.412,5.23455 38.303,12.75486 3.303,1.31455 7.815,2.7725 10.029,3.2399 3.114,0.65749 4.73,2.27558 7.139,7.14969 1.713,3.46494 3.626,7.29613 4.25,8.51377 1.306,2.54613 0.353,10.76716 -1.87,16.13156 -1.124,2.7139 -2.452,3.66909 -5.102,3.66909 -1.97,0 -4.383,0.80145 -5.362,1.781 -2.058,2.0575 -15.739,0.94345 -30.431,-2.47796 -4.77,-1.11076 -14.076,-3.19283 -20.68,-4.62682 -16.896,-3.66848 -20.407,-4.63909 -28.402,-7.85204 -3.88,-1.55911 -7.332,-2.83475 -7.672,-2.83475 -1.354,0 -0.486,6.22407 1.363,9.76845 1.079,2.07048 4.13,11.67682 6.778,21.34743 2.648,9.67062 7.544,25.9804 10.88,36.24397 5.806,17.86191 5.974,18.81982 3.937,22.36916 -3.36,5.85464 -0.978,9.4104 4.156,6.2041 2.438,-1.52231 12.624,4.68981 41.648,25.39758 6.237,4.45033 14.643,10.27861 18.679,12.95173 4.036,2.67311 11.336,8.05745 16.222,11.9652 4.886,3.90774 10.668,8.17414 12.848,9.48088 6.217,3.72648 28.314,18.93709 35.229,24.24989 16.578,12.737 29.963,22.3949 37.043,26.728 4.283,2.6216 10.353,6.4897 13.489,8.5957 3.136,2.106 12.355,6.9278 20.485,10.715 8.131,3.7873 17.185,8.4305 20.12,10.3183 2.935,1.8877 8.639,4.944 12.675,6.7917 22.234,10.1789 25.781,11.7089 27.168,11.7201 1.768,0.014 28.268,10.7348 32.205,13.0283 4.372,2.5473 7.338,1.995 7.337,-1.3662 z m -506.595,-137.86828 c 17.821,-5.00563 123.293,-39.94417 139.332,-46.1548 7.509,-2.90808 14.017,-5.87454 14.46,-6.59214 0.444,-0.71761 0.177,-4.12812 -0.593,-7.57892 -0.769,-3.4508 -1.744,-9.15607 -2.165,-12.67836 -1.911,-15.96814 -8.312,-41.84949 -19.203,-77.65133 -2.232,-7.33818 -6.197,-22.34809 -8.81,-33.35536 -7.006,-29.50922 -7.685,-31.93141 -9.242,-32.96629 -1.756,-1.16725 -3.795,-0.6977 -25.46,5.86279 -28.967,8.77193 -30.48,9.20135 -36.691,10.41928 -3.302,0.64752 -9.006,2.08432 -12.675,3.19287 -3.669,1.10856 -8.398,2.32014 -10.509,2.69239 -2.11,0.37226 -8.114,1.85487 -13.342,3.29469 -5.227,1.43982 -16.409,4.40405 -24.848,6.58718 -16.65,4.30747 -30.303,8.96852 -33.152,11.31811 -1.464,1.20775 -1.645,8.05883 -0.974,36.90168 0.454,19.48023 1.098,40.52196 1.432,46.75941 0.334,6.23745 1.283,25.75034 2.109,43.36197 0.825,17.61163 1.904,34.42273 2.397,37.358 0.808,4.81512 1.317,5.37773 5.203,5.75494 2.368,0.22995 4.306,0.93756 4.306,1.57247 0,0.63491 0.944,2.09786 2.097,3.251 3.081,3.08108 12.222,2.61251 26.328,-1.34958 z m -388.396,-62.19714 c -1.245,-1.24527 -1.957,-1.24527 -3.202,0 -1.245,1.24527 -0.889,1.60106 1.601,1.60106 2.491,0 2.846,-0.35579 1.601,-1.60106 z"
       id="path24" />
  </g>
</svg>
