<?xml version="1.0" encoding="UTF-8" standalone="no"?>
<!-- Created with Inkscape (http://www.inkscape.org/) -->

<svg
   version="1.1"
   id="svg1"
   width="2003.4592"
   height="2133.8479"
   viewBox="0 0 2003.4592 2133.8481"
   sodipodi:docname="mountain.svg"
   inkscape:version="1.4.3 (0d15f75, 2025-12-25)"
   inkscape:export-batch-name="doodles"
   xmlns:inkscape="http://www.inkscape.org/namespaces/inkscape"
   xmlns:sodipodi="http://sodipodi.sourceforge.net/DTD/sodipodi-0.dtd"
   xmlns="http://www.w3.org/2000/svg"
   xmlns:svg="http://www.w3.org/2000/svg">
  <sodipodi:namedview
     id="namedview1"
     pagecolor="#505050"
     bordercolor="#eeeeee"
     borderopacity="1"
     inkscape:showpageshadow="0"
     inkscape:pageopacity="0"
     inkscape:pagecheckerboard="0"
     inkscape:deskcolor="#505050"
     inkscape:zoom="0.36251647"
     inkscape:cx="2884.0069"
     inkscape:cy="1148.9133"
     inkscape:window-width="1920"
     inkscape:window-height="1051"
     inkscape:window-x="-9"
     inkscape:window-y="-9"
     inkscape:window-maximized="1"
     inkscape:current-layer="g2" />
  <defs
     id="defs1" />
  <g
     id="g9"
     inkscape:groupmode="layer"
     inkscape:label="9"
     transform="translate(-14672.607,-415.07105)">
    <path
       style="fill:#000000"
       d="m 16064.557,2548.7903 c -0.889,-0.3055 -3.218,-3.9657 -5.177,-8.1337 -1.96,-4.1681 -4.397,-8.0655 -5.418,-8.661 -1.021,-0.5955 -1.547,-1.5818 -1.17,-2.1917 1.116,-1.8058 -4.927,-19.2788 -10.634,-30.7491 -0.913,-1.8346 -2.088,-5.7373 -2.612,-8.6726 -0.523,-2.9354 -1.73,-6.2376 -2.682,-7.3384 -2.083,-2.4101 -14.055,-40.8297 -14.055,-45.1041 0,-1.6581 -0.934,-5.247 -2.076,-7.9753 -2.098,-5.0119 -4.2,-15.2299 -10.632,-51.6594 -3.34,-18.9189 -6.991,-34.8006 -12.026,-52.3179 -4.201,-14.6172 -7.052,-25.076 -7.743,-28.4044 -0.763,-3.6718 -4.477,-15.1502 -6.261,-19.3467 -0.624,-1.4676 -1.519,-4.7699 -1.989,-7.3383 -0.47,-2.5685 -1.372,-6.4712 -2.006,-8.6727 -0.633,-2.2015 -2.157,-7.6052 -3.385,-12.0083 -1.229,-4.403 -3.405,-11.9082 -4.835,-16.6781 -5.986,-19.9638 -14.229,-49.7365 -15.092,-54.5069 -0.312,-1.726 -1.185,-3.8827 -1.94,-4.7927 -0.755,-0.9099 -1.04,-1.9877 -0.632,-2.3951 0.407,-0.4074 -0.72,-5.1555 -2.506,-10.5513 -3.786,-11.4435 -6.533,-20.7618 -7.187,-24.3802 -0.255,-1.4088 -1.985,-7.5502 -3.845,-13.6475 -1.86,-6.0974 -5.682,-19.3547 -8.495,-29.4607 -2.812,-10.106 -6.133,-21.977 -7.379,-26.38 -1.246,-4.4031 -4.942,-17.9124 -8.211,-30.0207 -3.27,-12.1084 -8.027,-28.9199 -10.571,-37.3591 -10.854,-36.0075 -12.712,-42.473 -14.57,-50.7016 -6.058,-26.8341 -19.471,-73.5593 -24.704,-86.0593 -1.602,-3.8284 -8.478,-26.2063 -8.987,-29.2488 -0.236,-1.4101 -0.92,-3.2113 -1.521,-4.0028 -0.601,-0.7914 -4.255,-10.4451 -8.12,-21.4527 -3.865,-11.0076 -8.548,-23.9165 -10.406,-28.6864 -4.946,-12.6951 -9.757,-25.7274 -10.343,-28.0193 -0.282,-1.1008 -2.071,-6.5045 -3.975,-12.0083 -1.904,-5.5038 -4.861,-14.2488 -6.572,-19.4333 -3.742,-11.3407 -5.729,-15.2573 -7.74,-15.2573 -0.83,0 -5.762,2.5662 -10.961,5.7026 -5.198,3.1364 -11.553,6.8437 -14.121,8.2386 -6.233,3.3846 -6.698,4.3493 -4.563,9.4598 1.002,2.3986 2.73,11.1735 3.838,19.5 5.82,43.6975 14.823,85.1156 24.173,111.2052 11.732,32.7332 19.571,57.9005 27.848,89.3969 4.187,15.9329 -4.352,28.3662 -28.888,42.0655 -10.711,5.98 -31.145,15.7872 -43.089,20.6803 -5.871,2.405 -15.661,6.5883 -21.756,9.2963 -10.982,4.8789 -11.162,4.9095 -19.914,3.3854 -4.858,-0.8459 -10.902,-2.4027 -13.431,-3.4596 -2.53,-1.0569 -5.893,-1.9217 -7.475,-1.9217 -4.526,0 -8.484,-3.5628 -11.541,-10.3867 -2.798,-6.2458 -2.803,-6.456 -0.672,-28.9737 1.18,-12.4753 3.075,-25.9846 4.21,-30.0207 3.26,-11.5962 3.711,-38.6377 1.289,-77.3866 -1.216,-19.4468 -2.444,-36.2583 -2.73,-37.3591 -0.285,-1.1007 -0.924,-7.7053 -1.419,-14.6768 -0.495,-6.9714 -1.082,-12.9823 -1.305,-13.3575 -0.223,-0.3752 -0.771,-6.9797 -1.219,-14.6768 -1.673,-28.7822 -2.36,-36.0187 -3.486,-36.7144 -2.172,-1.3422 -10.604,3.2277 -12.128,6.573 -1.468,3.2217 -8.115,6.7399 -9.713,5.1414 -0.717,-0.7167 -1.417,9.3565 -0.852,12.2657 0.134,0.6931 -0.353,2.4944 -1.083,4.0027 -3.913,8.0803 -4.765,15.4953 -1.769,15.3835 1.958,-0.073 5.851,-10.9406 5.289,-14.7662 -0.429,-2.9242 -0.113,-3.8122 1.179,-3.3162 1.107,0.4245 2.063,-0.6744 2.563,-2.9448 3.348,-15.21 2.057,2.0849 -1.573,21.0616 -1.895,9.9068 -4.175,22.0498 -5.067,26.9843 -0.893,4.9346 -1.915,9.2638 -2.271,9.6204 -1.5,1.4996 -6.536,-1.0628 -6.536,-3.3253 0,-3.7379 -2.351,-4.3434 -4.11,-1.0583 -1.882,3.5174 -5.151,17.0344 -5.92,24.4846 -0.304,2.9354 -1.172,9.5399 -1.93,14.6768 -2.401,16.267 -5.014,35.9276 -5.142,38.6933 -0.366,7.8614 -2.764,24.4693 -3.967,27.4708 -0.761,1.8998 -1.738,6.4029 -2.171,10.0069 -1.544,12.8436 -5.233,35.3595 -8.835,53.9186 -2.312,11.9099 -8.919,55.6635 -9.066,60.0414 -0.389,11.5179 -15.563,81.1271 -21.524,98.7347 -5.871,17.3439 -40.04,122.9125 -42.537,131.4238 -2.517,8.5799 -11.577,46.2289 -13.004,54.0372 -7.802,42.7075 -11.609,59.0389 -19.907,85.3922 -2.658,8.4391 -5.927,19.2466 -7.265,24.0165 -4.945,17.6306 -15.227,47.6437 -19.426,56.7058 -7.67,16.555 -20.051,24.6823 -28.809,18.9115 -1.914,-1.2617 -4.438,-1.9265 -5.608,-1.4775 -1.17,0.449 -3.49,-0.1378 -5.155,-1.304 -3.368,-2.3589 -8.641,-2.8247 -9.327,-0.8239 -0.484,1.411 -16.373,-3.2057 -26.931,-7.825 -9.909,-4.3355 -22.796,-6.3464 -38.225,-5.9645 -14.152,0.3502 -23.493,1.4531 -22.312,2.6342 0.354,0.3537 7.77,0.8582 16.481,1.1211 16.333,0.4929 27.181,1.7852 27.177,3.2377 0,0.4566 -8.972,0.9481 -19.936,1.0923 -10.963,0.1442 -27.541,1.243 -36.841,2.4417 -18.079,2.3306 -22.776,1.9401 -25.627,-2.1309 -1.186,-1.6928 -3.372,-2.5743 -6.383,-2.5743 -2.519,0 -7.739,-1.2006 -11.599,-2.6679 -3.861,-1.4673 -8.07,-2.6681 -9.354,-2.6685 -2.544,-7e-4 -3.196,-3.3141 -0.929,-4.7153 0.946,-0.5845 0.787,-1.8153 -0.483,-3.7549 -1.257,-1.9176 -1.519,-3.8905 -0.782,-5.8821 0.609,-1.6481 0.779,-3.8552 0.376,-4.9046 -0.712,-1.8561 8.073,-34.7262 12.862,-48.1235 3.656,-10.2268 7.639,-24.4886 9.317,-33.3563 1.743,-9.2125 2.494,-12.1868 7.942,-31.4461 2.194,-7.7555 5.58,-18.2627 7.524,-23.3495 7.679,-20.0892 26.195,-72.2226 27.217,-76.6283 0.595,-2.5684 5.369,-18.1792 10.609,-34.6905 14.261,-44.9423 32.73,-110.9796 37.501,-134.0924 5.707,-27.6459 17.695,-72.6547 30.917,-116.08 4.78,-15.6983 8.263,-29.7064 8.459,-34.0234 0.184,-4.0361 2.528,-13.9429 5.21,-22.0152 2.681,-8.0722 6.934,-23.0825 9.451,-33.3563 2.516,-10.2737 5.132,-20.4808 5.813,-22.6823 0.681,-2.2015 1.921,-7.6052 2.755,-12.0082 3.39,-17.8924 4.579,-22.9806 6.859,-29.3536 1.312,-3.6692 3.333,-12.6367 4.49,-19.9279 1.158,-7.2911 2.604,-13.8957 3.215,-14.6768 0.61,-0.781 1.516,-4.122 2.012,-7.4243 0.496,-3.3022 1.448,-7.8053 2.116,-10.0068 0.668,-2.2016 3.107,-10.3071 5.421,-18.0125 2.313,-7.7053 5.076,-16.3504 6.14,-19.2114 1.063,-2.8609 1.452,-5.6602 0.864,-6.2206 -1.24,-1.1821 -17.671,-7.9243 -19.312,-7.9243 -0.607,0 -1.104,1.6039 -1.104,3.5642 0,1.9602 -0.84,4.512 -1.866,5.6705 -2.639,2.9794 -7.515,11.9432 -9.493,17.4504 -0.922,2.5684 -4.37,10.3738 -7.663,17.3453 -9.552,20.2271 -13,27.8036 -13,28.5642 0,1.1968 -6.424,15.0859 -17.477,37.7855 -5.798,11.9088 -10.542,21.9479 -10.542,22.3092 0,0.3613 -1.432,3.8269 -3.182,7.7013 -1.749,3.8744 -5.064,11.3757 -7.365,16.6697 -15.362,35.3367 -35.528,68.1474 -42.009,68.3497 -1.387,0.043 -3.188,0.978 -4.003,2.0771 -1.552,2.0941 -2.934,2.2119 -16.483,1.4057 -11.087,-0.6599 -21.041,-6.3634 -37.983,-21.7643 l -12.957,-11.7786 -22.4,-7.595 c -17.739,-6.0141 -22.486,-8.127 -22.81,-10.1509 -0.226,-1.4057 -2.185,-3.291 -4.354,-4.1895 -3.907,-1.6186 -6.334,-6.4592 -4.624,-9.2256 0.479,-0.7755 0.408,-2.1602 -0.159,-3.0771 -2.549,-4.125 2.028,-15.8831 8.165,-20.977 3.833,-3.1809 11.57,-15.9725 17.374,-28.7247 5.215,-11.4572 23.778,-40.0436 38.99,-60.0413 3.907,-5.1369 7.995,-10.5127 9.083,-11.9461 1.089,-1.4335 1.979,-3.176 1.979,-3.8722 0,-0.6962 1.818,-3.7263 4.039,-6.7335 2.221,-3.0071 10.302,-15.0742 17.958,-26.8156 7.656,-11.7414 15.056,-22.8491 16.445,-24.6837 3.549,-4.6883 14.928,-23.6214 14.928,-24.8378 0,-0.5545 1.251,-2.3397 2.78,-3.9672 5.36,-5.7049 5.861,-19.0987 0.515,-13.7542 -1.176,1.176 -2.266,3.0026 -2.421,4.059 -0.355,2.4228 -17.109,23.868 -24.278,31.0767 -2.966,2.9822 -7.166,7.8238 -9.333,10.7592 -2.166,2.9353 -4.243,5.6372 -4.614,6.0041 -0.371,0.3669 -3.054,3.6692 -5.961,7.3384 -2.908,3.6692 -13.119,14.7768 -22.693,24.6837 -26.141,27.0521 -45.338,47.8254 -56.746,61.406 -3.302,3.9312 -7.24,8.3846 -8.751,9.8963 -6.178,6.1822 -19.268,21.8749 -19.268,23.099 0,0.7226 -2.552,4.0302 -5.671,7.3504 -3.119,3.3201 -8.797,9.8536 -12.618,14.5187 -42.348,51.7038 -39.946,49.1158 -81.78,88.1322 -16.511,15.3993 -33.528,31.697 -37.814,36.2171 -9.078,9.573 -26.125,31.5785 -29.456,38.0246 -1.267,2.4506 -3.911,6.2594 -5.876,8.464 -3.808,4.2715 -10.609,13.8171 -22.165,31.1109 -10.264,15.3604 -14.008,18.3693 -20.221,16.2509 -1.551,-0.5289 -4.805,-0.1432 -7.338,0.8695 -2.503,1.001 -7.853,1.9423 -11.89,2.0917 -4.036,0.1495 -8.38,0.5789 -9.654,0.9543 -1.664,0.4901 -2.943,-0.6314 -4.539,-3.9775 -1.222,-2.563 -3.532,-4.9887 -5.132,-5.3903 -1.983,-0.4978 -3.493,-2.5453 -4.741,-6.4316 -3.23,-10.0497 -28.566,-59.3843 -37.874,-73.7482 -5.745,-8.865 -18.091,-33.1358 -22.29,-43.8205 -1.487,-3.7846 -3.504,-8.6823 -4.481,-10.8838 -0.977,-2.2015 -3.081,-8.2057 -4.674,-13.3425 -1.594,-5.1369 -6.789,-17.2815 -11.546,-26.9881 -8.114,-16.5585 -8.631,-18.1652 -8.364,-26.018 0.342,-10.0397 3.245,-21.5203 6.027,-23.8289 1.109,-0.9202 3.524,-4.2453 5.366,-7.3891 1.842,-3.1438 4.66,-6.1124 6.261,-6.5969 1.601,-0.4845 5.913,-3.0755 9.582,-5.7577 9.7,-7.0906 17.756,-12.1629 19.318,-12.1629 0.75,0 1.363,-0.5917 1.363,-1.3148 0,-0.7232 2.01,-2.6745 4.467,-4.3363 21.997,-14.8769 29.056,-19.7327 30.52,-20.9921 2.766,-2.3787 38.763,-25.9101 42.4,-27.7165 1.834,-0.9112 6.968,-4.5137 11.407,-8.0055 4.44,-3.4919 10.101,-7.8498 12.58,-9.6844 2.479,-1.8346 6.344,-4.8367 8.588,-6.6713 2.244,-1.8346 5.233,-4.2362 6.643,-5.337 1.409,-1.1008 4.841,-3.9966 7.626,-6.4351 2.785,-2.4386 7.139,-6.0411 9.676,-8.0055 2.537,-1.9645 9.231,-7.3406 14.874,-11.947 5.643,-4.6063 16.355,-12.47 23.804,-17.4748 7.449,-5.0048 18.809,-13.085 25.245,-17.9559 6.435,-4.8709 13.64,-9.8464 16.011,-11.0566 2.37,-1.2103 6.762,-4.3716 9.759,-7.0253 2.997,-2.6537 9.602,-7.0866 14.677,-9.8509 5.075,-2.7644 12.328,-7.5677 16.118,-10.6741 3.79,-3.1063 12.028,-9.2504 18.307,-13.6534 14.168,-9.9351 22.007,-15.7452 39.662,-29.3986 7.623,-5.8954 17.763,-13.5578 22.533,-17.0274 11.966,-8.7037 25.052,-19.0366 31.034,-24.5046 3.862,-3.53 4.741,-5.1069 3.822,-6.8546 -0.656,-1.2485 -1.972,-5.783 -2.923,-10.0768 -0.951,-4.2938 -2.493,-8.1 -3.427,-8.4581 -0.933,-0.3582 -5.125,0.6315 -9.315,2.1993 -4.191,1.5677 -12.474,4.0018 -18.408,5.4091 -14.287,3.3883 -34.009,10.0001 -73.499,24.6409 -26.379,9.7797 -63.765,19.3769 -72.05,18.4954 -2.935,-0.3124 -6.813,-0.5985 -8.616,-0.636 -3.578,-0.074 -6.106,-2.5459 -8.208,-8.0257 -0.746,-1.9445 -2.519,-3.8397 -3.941,-4.2114 -1.954,-0.5111 -2.584,-1.8501 -2.584,-5.4928 0,-15.4841 -9.885,-60.0564 -15.463,-69.7215 -1.769,-3.0661 -3.217,-6.8887 -3.217,-8.4947 0,-2.3091 -0.586,-2.7669 -2.8,-2.1878 -2.383,0.6231 -2.663,0.2981 -1.877,-2.1793 0.508,-1.6014 1.236,-4.5628 1.618,-6.5809 0.381,-2.018 1.526,-3.6691 2.543,-3.6691 1.018,0 1.85,-1.1097 1.85,-2.4659 0,-2.7707 6.502,-6.0852 15.872,-8.0907 6.228,-1.3332 8.508,-3.4096 7.658,-6.9763 -0.404,-1.6959 1.621,-2.824 8.989,-5.0077 5.231,-1.5503 11.011,-2.859 12.846,-2.9083 1.834,-0.049 4.536,-0.5589 6.004,-1.1326 l 2.669,-1.043 -2.669,-0.7738 c -3.871,-1.1225 -38.722,-0.8422 -57.373,0.4614 -8.806,0.6155 -21.134,1.4401 -27.396,1.8325 -11.704,0.7334 -28.078,2.3609 -47.989,4.7701 -6.238,0.7547 -26.652,1.6445 -45.365,1.9773 -18.713,0.3327 -38.526,0.9972 -44.03,1.4766 -5.504,0.4793 -10.908,0.8394 -12.008,0.8001 -1.101,-0.039 -7.706,0.4708 -14.677,1.1334 -6.972,0.6627 -19.58,1.5383 -28.019,1.9457 -8.44,0.4074 -18.346,1.0088 -22.016,1.3363 -3.669,0.3276 -11.474,0.9592 -17.345,1.4036 -9.567,0.7242 -24.446,3.0396 -48.033,7.4746 -4.403,0.8279 -18.813,1.5682 -32.022,1.6452 -22.58,0.1317 -24.181,-0.024 -26.768,-2.6118 -1.514,-1.5136 -2.539,-3.3927 -2.278,-4.1758 0.261,-0.7831 -2.239,-3.0143 -5.556,-4.9582 l -6.031,-3.5345 0.813,-6.2994 c 0.447,-3.4648 2.205,-10.6368 3.905,-15.9378 1.701,-5.3011 3.47,-11.9056 3.932,-14.6768 0.462,-2.7712 2.071,-11.0426 3.575,-18.381 1.505,-7.3384 2.673,-15.3997 2.595,-17.914 -0.08,-2.5143 0.363,-5.2162 0.98,-6.0041 0.617,-0.788 1.487,-4.735 1.934,-8.7711 0.446,-4.0361 1.171,-9.74 1.611,-12.6754 0.439,-2.9353 0.965,-7.1989 1.168,-9.4745 0.204,-2.2756 0.719,-4.7025 1.146,-5.393 0.999,-1.6161 5.745,-37.7981 7.675,-58.5164 0.821,-8.806 2.048,-18.1821 2.727,-20.8357 0.678,-2.6536 1.234,-6.4061 1.234,-8.3391 0,-2.4556 0.703,-3.5159 2.335,-3.5193 1.284,0 4.3,-1.2036 6.703,-2.6686 2.403,-1.4649 5.855,-2.6635 7.672,-2.6635 2.414,0 3.303,-0.7185 3.303,-2.6685 0,-2.1568 0.89,-2.6685 4.64,-2.6685 3.5,0 5.186,-0.8352 6.868,-3.4026 1.473,-2.2484 2.955,-3.1159 4.367,-2.5573 1.176,0.4649 8.742,2.6107 16.815,4.7685 19.418,5.1906 25.193,6.0015 70.715,9.9296 5.137,0.4433 11.553,1.6405 14.259,2.6606 8.479,3.1969 20.162,4.184 33.107,2.7972 4.174,-0.4472 7.793,0.1422 11.876,1.9341 3.665,1.6089 9.839,2.755 16.431,3.0502 5.808,0.2601 11.241,1.1545 12.074,1.9875 1.87,1.8697 4.11,2.0051 2.982,0.1803 -1.192,-1.9295 0.975,-1.6416 5.814,0.772 3.209,1.6012 6.698,1.9361 14.548,1.3965 12.015,-0.8258 10.118,-0.8267 29.434,0.013 10.535,0.458 15.679,0.1794 17.005,-0.9209 3.722,-3.089 67.219,-1.108 109.093,3.4035 9.665,1.0413 24.177,2.5346 32.25,3.3184 8.072,0.7839 19.78,1.9911 26.017,2.6828 6.238,0.6918 16.91,1.6643 23.716,2.1612 11.122,0.8121 12.29,0.6828 11.538,-1.2772 -0.461,-1.1994 -3.327,-2.833 -6.371,-3.6302 -15.796,-4.1377 -22.524,-6.5105 -48.896,-17.2428 -15.778,-6.4208 -31.689,-12.6311 -35.358,-13.8007 -3.669,-1.1696 -14.421,-4.547 -23.893,-7.5053 -14.577,-4.5529 -18.631,-6.4504 -26.401,-12.3577 -9.836,-7.478 -11.311,-10.24 -9.644,-18.0637 0.585,-2.747 1.184,-5.8953 1.331,-6.996 0.148,-1.1008 1.549,-6.5045 3.115,-12.0083 4.043,-14.2149 6.842,-34.2573 6.472,-46.3473 -0.367,-11.9636 2.133,-18.9391 7.693,-21.4728 2.65,-1.2072 3.241,-1.2096 2.5,-0.01 -0.693,1.1212 -0.24,1.2536 1.583,0.4621 1.404,-0.61 3.938,-1.0736 5.631,-1.0303 3.049,0.078 9.598,-5.2181 9.598,-7.7616 0,-0.8503 0.919,-0.8287 2.581,0.061 1.419,0.7596 3.858,1.3812 5.419,1.3812 1.562,0 5.654,0.8354 9.094,1.8564 3.441,1.021 13.16,3.5174 21.599,5.5475 8.439,2.0301 17.616,4.8198 20.393,6.1994 5.514,2.7394 16.367,6.8365 46.987,17.7384 11.007,3.9191 23.451,8.3773 27.652,9.9072 4.202,1.5298 8.404,2.789 9.34,2.7983 0.936,0.01 5.238,1.8105 9.561,4.0028 4.323,2.1922 8.376,3.9858 9.006,3.9858 3.036,0 0.467,-7.307 -5.858,-16.6664 -3.853,-5.7006 -7.605,-11.3376 -8.339,-12.5267 -0.734,-1.189 -1.77,-2.4886 -2.303,-2.8879 -2.364,-1.7721 -21.055,-33.8771 -30.174,-51.8314 -5.886,-11.5877 -41.723,-75.22419 -42.912,-76.19787 -0.894,-0.73264 -9.764,-16.60842 -13.418,-24.01655 -1.267,-2.56843 -2.585,-6.79707 -2.93,-9.39697 -0.344,-2.5999 -1.261,-5.90217 -2.037,-7.33839 -3.902,-7.22179 -6.962,-14.23756 -6.962,-15.95921 0,-1.05853 -1.138,-4.49242 -2.529,-7.63087 -1.39,-3.13845 -5.677,-15.31288 -9.525,-27.0543 -3.848,-11.74143 -8.713,-24.65032 -10.811,-28.68643 -2.098,-4.03612 -3.816,-7.89652 -3.818,-8.57868 0,-1.69586 -15.508,-41.16827 -19.479,-49.59005 -1.763,-3.74 -3.206,-7.39364 -3.206,-8.11919 0,-0.72556 -3.602,-8.37251 -8.005,-16.99323 -4.403,-8.62072 -8.006,-16.70517 -8.006,-17.96544 0,-1.26027 -0.569,-2.86179 -1.264,-3.55894 -0.696,-0.69715 -5.712,-10.05732 -11.147,-20.80038 -5.436,-10.74305 -11.832,-22.42038 -14.214,-25.9496 -2.381,-3.52923 -4.883,-7.64835 -5.559,-9.1536 -0.676,-1.50525 -3.044,-5.13847 -5.263,-8.07383 -22.445,-29.69574 -44.213,-68.6019 -58.603,-104.73881 -6.067,-15.23756 -11.981,-31.45534 -12.756,-34.98324 -0.742,-3.38038 -0.05,-4.6338 5.417,-9.79732 3.448,-3.25657 7.125,-5.92104 8.172,-5.92104 1.047,0 2.246,-0.89199 2.664,-1.9822 0.673,-1.75344 1.087,-1.75344 3.591,0 4.02,2.81629 5.314,2.46282 4.395,-1.20076 -1.413,-5.63046 4.422,-7.81669 26.936,-10.09104 7.563,-0.76403 14.951,-2.03126 16.417,-2.81606 1.467,-0.7848 6.332,-2.01718 10.811,-2.73862 4.48,-0.72144 10.602,-2.41251 13.604,-3.75793 3.002,-1.34542 6.81,-2.85863 8.462,-3.36269 1.652,-0.50406 3.588,-2.00944 4.303,-3.3453 1.3,-2.42968 5.283,-2.57378 22.047,-0.79761 2.201,0.23326 5.353,0.49489 7.005,0.58139 1.675,0.0878 3.002,1.02098 3.002,2.11171 0,1.07493 1.24,2.6182 2.756,3.42948 3.254,1.74181 6.955,9.83978 9.129,19.97536 1.944,9.06634 6.643,17.21105 15.39,26.67657 8.194,8.86749 13.355,15.60626 19.415,25.35079 2.51,4.03612 6.39,9.53336 8.624,12.21609 2.233,2.68273 7.034,10.3843 10.669,17.11459 3.635,6.73029 9.504,15.54438 13.041,19.58687 3.538,4.04249 8.453,10.45064 10.922,14.24034 2.469,3.7897 8.586,11.09326 13.592,16.23013 8.778,9.00768 11.232,11.92832 18.495,22.01517 11.191,15.53983 14.346,20.15767 18.688,27.35217 6.033,9.9943 10.761,17.28491 16.583,25.57139 2.492,3.54787 5.58,8.25191 6.861,10.45343 17.149,29.46905 26.527,46.32389 31.924,57.37285 6.87,14.0638 31.391,67.02911 33.666,72.71676 1.235,3.08777 7.264,15.23209 12.254,24.68367 4.604,8.7202 12.694,27.00951 13.598,30.74135 0.526,2.17207 3.196,8.45232 5.933,13.95611 2.736,5.50379 5.4,11.96348 5.919,14.35486 0.518,2.39138 1.406,4.0614 1.973,3.71116 1.16,-0.7172 0.252,-7.0443 -5.276,-36.74555 -5.657,-30.3987 -8.066,-49.15117 -8.926,-69.49679 -0.878,-20.74439 0.04,-28.98127 2.962,-26.5571 2.219,1.84103 7.324,0.51878 7.324,-1.89679 0,-2.19005 3.829,-5.54916 7.653,-6.71432 1.641,-0.49992 4.698,-2.62369 6.794,-4.7195 4.561,-4.56106 11.493,-6.60351 27.582,-8.12657 6.604,-0.62524 16.062,-1.75754 21.016,-2.51623 12.942,-1.98179 35.98,1.47577 39.7,5.95829 0.909,1.09549 2.44,1.9918 3.402,1.9918 2.452,0 10.562,10.4071 12.477,16.01103 1.721,5.03549 4.722,21.50908 6.078,33.35631 0.462,4.03611 2.318,16.94501 4.124,28.68643 1.807,11.74142 4.777,31.55507 6.599,44.03033 4.66,31.89716 9.155,55.05197 11.056,56.95317 0.892,0.8913 1.626,1.3503 1.632,1.0201 0,-0.3302 0.921,-7.205 2.034,-15.2772 1.113,-8.07222 2.299,-18.87967 2.636,-24.01654 0.337,-5.13687 1.229,-17.74555 1.984,-28.0193 1.536,-20.92458 1.991,-30.4891 3.142,-66.04549 0.439,-13.57602 1.093,-32.48905 1.452,-42.02896 0.36,-9.5399 1.007,-51.26865 1.439,-92.73054 0.761,-73.10558 1.201,-92.29508 2.661,-116.07996 0.383,-6.23763 1.006,-16.44467 1.385,-22.6823 0.38,-6.23763 1.54,-20.34735 2.578,-31.35493 1.038,-11.00758 2.281,-24.81709 2.763,-30.6878 0.481,-5.87072 1.11,-12.47526 1.398,-14.67678 0.288,-2.20152 1.081,-9.10627 1.761,-15.3439 0.681,-6.23763 1.567,-12.24177 1.969,-13.34253 0.403,-1.10076 1.336,-7.70531 2.073,-14.67678 1.756,-16.59907 2.555,-22.49391 3.71,-27.35217 0.523,-2.20152 0.996,-4.60317 1.051,-5.33701 0.06,-0.73384 0.865,-2.7255 1.801,-4.42592 1.406,-2.55541 1.341,-4.14686 -0.372,-9.1753 -2.504,-7.34957 -0.71,-17.75371 3.062,-17.75371 1.208,0 4.433,-1.19884 7.167,-2.66409 11.343,-6.07973 53.556,-8.57342 79.715,-4.70905 14.207,2.09879 32.812,5.8628 47.366,9.58238 10.265,2.62366 22.807,8.93181 28.393,14.28048 10.571,10.12201 12.259,17.6028 8.964,39.72539 -1.242,8.34207 -2.483,16.96863 -2.757,19.17015 -0.97,7.78491 -3.033,20.08989 -4.362,26.01792 -0.741,3.30228 -1.695,8.28991 -2.121,11.08364 -0.426,2.79373 -2.235,13.60117 -4.02,24.01654 -4.028,23.49756 -4.344,25.96866 -6.699,52.29336 -4.644,51.89818 -7.891,146.52742 -7.006,204.14062 0.855,55.62995 0.946,91.90501 0.245,97.40043 -0.281,2.20152 -0.843,7.90545 -1.249,12.6754 -0.766,9.00806 -2.705,21.96612 -8.157,54.51234 -3.049,18.19741 -4.375,30.27521 -7.09,64.56971 -1.201,15.1822 -0.933,52.6937 0.387,54.0135 1.902,1.9019 9.269,-3.0896 11.135,-7.5445 2.708,-6.4648 2.523,-9.7322 -0.807,-14.2754 l -2.816,-3.8408 2.588,-12.6754 c 1.423,-6.9714 4.165,-18.3793 6.094,-25.3508 1.929,-6.9714 4.051,-14.7768 4.715,-17.3452 0.664,-2.5685 2.059,-7.672 3.1,-11.3412 4.735,-16.69586 7.43,-27.29272 8.825,-34.69054 1.835,-9.74014 4.649,-21.11999 8.081,-32.68919 3.12,-10.51394 7.109,-43.97492 6.124,-51.36872 -0.793,-5.9529 1.013,-23.69711 3.284,-32.27074 2.948,-11.12776 20.933,-20.63922 31.201,-16.50059 1.497,0.60322 3.378,0.50911 4.285,-0.21429 4.477,-3.57355 20.915,8.66582 50.467,37.57684 27.901,27.29579 30.594,42.18618 15.938,88.1283 -2.458,7.70531 -6.341,20.6142 -8.629,28.68643 -2.288,8.0722 -10.155,33.2896 -17.482,56.0386 -7.326,22.749 -13.878,43.4633 -14.56,46.0317 -0.682,2.5684 -1.594,5.9982 -2.027,7.6217 -0.547,2.0494 0.09,3.681 2.067,5.337 1.57,1.3119 4.097,3.4359 5.615,4.7202 1.518,1.2842 3.476,2.3349 4.351,2.3349 2.123,0 5.464,-3.9256 6.651,-7.8146 0.528,-1.7296 1.905,-4.2479 3.059,-5.5962 1.155,-1.3484 3.742,-6.838 5.75,-12.1992 2.007,-5.3612 7.983,-17.8533 13.28,-27.7601 5.296,-9.9068 14.13,-26.7184 19.631,-37.3591 5.501,-10.6406 11.083,-20.5475 12.406,-22.0151 1.323,-1.4677 2.803,-4.27549 3.291,-6.23954 0.487,-1.96405 2.033,-4.60886 3.434,-5.87736 1.402,-1.26851 2.549,-3.06018 2.549,-3.9815 0,-0.92132 2.497,-6.08188 5.549,-11.46792 8.16,-14.39966 14.451,-26.91291 14.458,-28.75945 0,-0.89177 1.687,-3.59363 3.741,-6.00414 2.055,-2.41051 5.442,-8.88585 7.528,-14.38964 2.086,-5.50379 4.517,-10.90752 5.402,-12.00827 0.885,-1.10076 2.032,-3.20221 2.548,-4.66989 1.881,-5.35027 5.69,-13.4226 16.284,-34.51276 5.948,-11.83921 11.238,-22.86427 11.756,-24.50013 1.063,-3.3539 15.508,-28.68316 16.948,-29.71795 0.513,-0.3686 1.362,-2.95919 1.887,-5.75685 0.525,-2.79767 2.584,-6.69898 4.576,-8.66958 3.964,-3.92186 13.799,-20.28703 15.384,-25.59809 0.547,-1.8346 1.76,-4.23625 2.695,-5.33701 3.21,-3.77976 16.664,-28.91695 16.664,-31.13634 0,-1.22098 0.921,-2.21997 2.048,-2.21997 1.127,0 3.215,-2.55176 4.639,-5.67057 1.425,-3.11882 4.669,-9.27306 7.21,-13.67609 2.541,-4.40303 6.467,-11.608 8.725,-16.01103 2.257,-4.40303 6.707,-12.88837 9.889,-18.85631 3.183,-5.96793 6.506,-13.77331 7.386,-17.34528 0.88,-3.57197 3.901,-10.99759 6.715,-16.50138 2.813,-5.50379 5.547,-11.50793 6.075,-13.34252 0.853,-2.96441 4.395,-11.35736 12.95,-30.68781 1.461,-3.30228 5.277,-11.40786 8.479,-18.01241 3.203,-6.60455 7.073,-15.243 8.602,-19.19656 1.529,-3.95356 3.656,-8.44015 4.728,-9.97021 1.072,-1.53006 1.948,-3.73248 1.948,-4.89427 0,-1.16179 2.173,-7.48264 4.827,-14.04633 2.655,-6.56369 5.674,-14.93606 6.709,-18.60525 5.911,-20.96299 6.88,-23.01196 9.145,-19.34666 0.454,0.73384 2.176,1.33425 3.827,1.33425 1.651,0 4.167,0.88153 5.592,1.95895 3.633,2.74778 5.925,2.50608 5.925,-0.6247 0,-3.22594 -0.837,-3.22977 8.462,0.0387 5.462,1.91976 11.211,5.70361 19.763,13.00896 11.742,10.03078 37.839,29.64842 39.439,29.64842 0.439,0 2.656,1.38405 4.927,3.07567 4.583,3.4138 25.27,15.60387 26.481,15.60387 0.974,0 21.184,13.5827 28.315,19.02974 8.241,6.29476 19.074,16.99135 24.138,23.83517 9.159,12.37692 6.167,23.09824 -15.407,55.20264 -5.918,8.80607 -11.127,16.91165 -11.577,18.01241 -0.45,1.10076 -2.754,5.00345 -5.119,8.67264 -2.365,3.66919 -6.899,11.17436 -10.075,16.67815 -3.176,5.5038 -8.344,14.20979 -11.484,19.34667 -3.141,5.13687 -7.624,12.64204 -9.963,16.67815 -2.338,4.03611 -7.185,11.54128 -10.771,16.67816 -10.667,15.28343 -32.885,49.69448 -41.782,64.71124 -7.817,13.19364 -10.498,18.01511 -23.74,42.69608 -7.84,14.61182 -19.096,32.69091 -26.997,43.3632 -3.803,5.13687 -8.645,12.04163 -10.76,15.34391 -5.722,8.93566 -17.679,25.26282 -23.109,31.55333 -7.327,8.48884 -40.387,59.12666 -52.137,79.85676 -3.743,6.6045 -7.941,13.9155 -9.329,16.2467 -4.555,7.6518 -11.89,20.9348 -17.226,31.1937 -2.884,5.5447 -6.196,10.8718 -7.36,11.838 -1.164,0.9663 -2.117,2.4584 -2.117,3.3159 0,2.7123 -13.136,22.4878 -19.112,28.7718 -6.017,6.3278 -13.733,17.592 -24.135,35.235 -9.612,16.3017 -9.292,16.1221 19.875,-11.1883 6.662,-6.2376 21.701,-19.7443 33.42,-30.0149 11.719,-10.2705 25.218,-22.2788 29.998,-26.685 4.78,-4.4062 10.372,-9.2121 12.426,-10.6798 12.869,-9.1933 17.96,-12.8573 20.912,-15.0519 1.835,-1.3637 9.64,-6.2429 17.345,-10.8426 7.706,-4.5997 16.511,-10.7871 19.567,-13.7498 6.334,-6.1386 17.566,-10.603 23.782,-9.4519 2.21,0.4092 7.121,2.7672 10.915,5.2399 3.793,2.4727 7.286,4.4958 7.761,4.4958 2.112,0 10.047,7.2399 13.265,12.1036 1.944,2.9365 4.668,6.6681 6.054,8.2924 19.399,22.7294 26.85,35.0739 29.367,48.6542 1.681,9.0701 1.316,9.9801 -13.987,34.8401 -15.853,25.7555 -41.884,52.7811 -69.371,72.0225 -15.77,11.0388 -29.697,20.978 -36.75,26.2265 -13.85,10.3072 -34.097,23.9001 -47.308,31.7614 -7.339,4.3665 -16.611,10.0994 -20.605,12.7398 -4.624,3.0561 -9.472,5.057 -13.343,5.5061 l -6.08,0.7055 0.278,5.9219 c 0.153,3.257 0.971,7.5929 1.816,9.6352 2.056,4.9615 5.31,3.2389 9.247,-4.8943 1.611,-3.3272 4.001,-6.6233 5.312,-7.3248 1.31,-0.7014 10.709,-2.8466 20.884,-4.7671 15.536,-2.932 22.673,-3.526 44.52,-3.7055 29.181,-0.2396 121.719,1.9552 157.441,3.7343 6.238,0.3106 22.149,0.9337 35.358,1.3847 13.209,0.4509 31.026,1.4139 39.593,2.14 8.567,0.726 17.873,1.2416 20.681,1.1456 4.938,-0.1687 40.81,2.0052 57.14,3.4629 4.403,0.393 11.909,1.0342 16.679,1.4249 4.769,0.3907 10.774,0.9375 13.342,1.2152 18.701,2.022 28.76,3.374 38.026,5.111 5.871,1.1005 16.979,2.3906 24.684,2.8669 7.705,0.4764 16.711,1.085 20.014,1.3526 3.302,0.2676 14.71,1.1416 25.35,1.9423 10.641,0.8006 26.552,2.3265 35.358,3.3908 8.806,1.0643 21.715,2.5907 28.687,3.3919 6.971,0.8012 15.828,1.9189 19.682,2.4838 3.854,0.5649 11.359,1.145 16.678,1.2892 5.319,0.1443 11.937,0.8625 14.706,1.5962 2.768,0.7337 5.47,1.0687 6.004,0.7446 1.691,-1.0274 32.199,2.9781 35.33,4.6385 6.68,3.5435 15.01,10.8895 17.682,15.5943 2.81,4.9471 6.374,21.6715 5.263,24.6966 -0.628,1.7087 -1.008,5.6844 -3.15,32.9271 -1.909,24.2694 -2.493,28.7148 -6.268,47.681 -7.329,36.8222 -8.551,52.5468 -5.718,73.5953 2.369,17.6032 -1.742,29.1925 -9.733,27.4374 -2.875,-0.6316 -3.75,-0.3321 -3.75,1.2837 0,2.5045 -2.187,2.8194 -3.053,0.4396 -0.465,-1.2778 -1.193,-1.3111 -3.113,-0.1425 -2.002,1.2184 -3.386,0.9908 -6.877,-1.1304 -5.6,-3.4032 -7.33,-2.6386 -11.096,4.9021 -1.692,3.3861 -3.707,6.6764 -4.478,7.3118 -3.16,2.6015 -16.152,4.8375 -22.085,3.8011 -3.302,-0.5769 -10.807,-1.5983 -16.678,-2.2699 -12.017,-1.3747 -29.595,-4.5632 -58.04,-10.5277 -10.64,-2.2313 -24.45,-5.0572 -30.688,-6.2798 -10.574,-2.0727 -28.977,-6.3113 -56.038,-12.9065 -6.238,-1.5202 -17.345,-4.5339 -24.684,-6.697 -7.338,-2.1632 -17.245,-5.0216 -22.015,-6.3521 -4.77,-1.3305 -17.679,-4.9593 -28.686,-8.0639 -22.283,-6.2845 -28.833,-7.7997 -52.036,-12.0358 -8.806,-1.6077 -21.715,-4.0374 -28.687,-5.3993 -26.22,-5.1222 -72.087,-11.1881 -106.073,-14.028 -3.669,-0.3066 -10.874,-1.1178 -16.011,-1.8026 -5.137,-0.6849 -10.24,-1.2043 -11.341,-1.1543 -1.101,0.05 -8.906,-0.6683 -17.345,-1.5962 -33.172,-3.6474 -51.447,-4.7144 -52.468,-3.0632 -0.448,0.726 2.918,4.3737 7.48,8.106 4.563,3.7323 15.501,14.0778 24.307,22.99 17.997,18.2145 35.643,33.0273 49.057,41.1823 4.967,3.0192 9.374,5.4895 9.795,5.4895 0.421,0 4.163,2.3166 8.316,5.1481 4.152,2.8315 10.252,6.6726 13.554,8.5357 6.516,3.6764 20.376,13.923 24.724,18.2788 1.49,1.4924 3.485,5.3422 4.433,8.5551 2.035,6.8905 1.575,9.0352 -9.192,42.873 -2.101,6.6046 -5.051,15.8775 -6.556,20.6065 -1.504,4.729 -2.735,10.0799 -2.735,11.891 0,1.811 -0.886,6.3477 -1.969,10.0814 -1.083,3.7336 -3.502,13.6932 -5.375,22.1324 -1.874,8.4391 -3.686,16.5447 -4.028,18.0124 -0.74,3.176 -17.274,15.9388 -19.148,14.7805 -0.716,-0.4426 -2.793,-0.1253 -4.616,0.705 -2.633,1.1998 -4.202,1.0662 -7.643,-0.6501 -2.381,-1.188 -6.105,-2.16 -8.276,-2.16 -2.67,0 -6.162,-1.8256 -10.802,-5.6471 -9.337,-7.6896 -15.353,-13.099 -18.714,-16.8254 -16.96,-18.8045 -23.24,-24.923 -34.39,-33.5092 -5.622,-4.3295 -12.094,-8.8395 -14.381,-10.0223 -3.748,-1.9381 -23.67,-18.938 -32.102,-27.3938 -5.628,-5.6436 -18.818,-16.5367 -29.774,-24.5905 -5.735,-4.2155 -10.738,-8.4748 -11.118,-9.4651 -0.38,-0.9903 -1.392,-1.5435 -2.248,-1.2292 -0.857,0.3142 -4.2,-1.8148 -7.429,-4.7312 -3.229,-2.9164 -7.582,-6.0599 -9.674,-6.9855 -2.091,-0.9256 -3.801,-2.1367 -3.801,-2.6914 0,-0.5547 -0.965,-1.0086 -2.143,-1.0086 -1.856,0 -4.469,-1.7316 -12.227,-8.1025 -3.548,-2.9142 -13.008,-6.4158 -14.176,-5.2475 -1.715,1.7153 12.134,48.9182 20.554,70.0558 11.902,29.8786 19.237,48.949 22.066,57.3728 1.726,5.1369 5.623,16.2445 8.662,24.6837 3.038,8.4391 5.822,16.8449 6.185,18.6795 0.364,1.8346 12.557,27.3522 27.095,56.7057 14.539,29.3536 27.361,56.072 28.495,59.3743 4.607,13.4147 13.885,33.8676 34.499,76.0524 8.069,16.5113 15.576,32.4223 16.682,35.3577 1.106,2.9353 3.715,9.5399 5.798,14.6767 2.082,5.1369 5.238,13.5427 7.012,18.6796 9.377,27.1558 16.529,45.657 23.209,60.0413 13.94,30.0146 15.295,33.0686 23.323,52.5538 16.883,40.9775 21.086,53.201 27.207,79.1302 2.546,10.7838 7.355,29.0964 10.687,40.6947 3.332,11.5984 8.471,30.6946 11.42,42.436 2.949,11.7414 6.846,25.8008 8.66,31.243 1.814,5.4422 4.184,14.1482 5.267,19.3466 1.083,5.1985 3.441,15.4559 5.241,22.7943 4.546,18.5416 6.13,29.8544 6.25,44.6551 0.09,10.8552 -0.416,13.9878 -3.447,21.3904 -1.952,4.7699 -5.484,10.8999 -7.847,13.6221 -2.364,2.7222 -5.406,6.5139 -6.76,8.4259 -1.355,1.912 -4.056,4.1835 -6.004,5.0478 -1.948,0.8643 -4.742,2.6765 -6.21,4.027 -1.468,1.3506 -6.836,4.9009 -11.93,7.8897 -5.094,2.9887 -11.699,7.6391 -14.677,10.3341 -2.978,2.695 -11.903,8.3052 -19.832,12.4672 -14.805,7.771 -18.551,9.1175 -15.654,5.6266 1.375,-1.6573 1.034,-1.7754 -2.336,-0.8088 -5.178,1.4851 -10.956,5.3225 -10.956,7.2763 0,0.8533 -1.201,2.5796 -2.669,3.8362 -1.468,1.2567 -2.668,1.6903 -2.668,0.9637 0,-2.2902 -6.169,-1.4338 -9.704,1.3473 -4.095,3.2207 -5.44,3.2985 -9.624,0.5569 -2.753,-1.8039 -3.913,-1.8621 -7.959,-0.3991 -5.152,1.8632 -5.352,2.3794 -3.469,8.9473 1.888,6.5826 -0.188,10.9087 -5.236,10.9087 -4.434,0 -5.048,0.9252 -2.119,3.1885 2.393,1.8484 4.32,11.4883 2.297,11.4883 -0.781,0 -2.422,-2.1112 -3.647,-4.6914 -2.518,-5.3077 -5.342,-7.85 -3.991,-3.5935 1.19,3.7515 -1.534,5.0389 -4.666,2.2046 -2.291,-2.0739 -3.14,-1.7899 -2.79,0.9337 0.06,0.4716 -1.103,1.1749 -2.587,1.5628 -2.27,0.5937 -2.434,0.3892 -1.038,-1.2928 1.335,-1.6085 1.284,-2.2314 -0.258,-3.1945 -1.48,-0.9245 -2.01,-0.295 -2.333,2.7702 -0.23,2.1816 -0.534,3.9666 -0.676,3.9666 -0.142,0 -2.055,0.508 -4.252,1.1289 -2.197,0.6209 -4.721,0.8789 -5.609,0.5735 z m 38.038,-40.7293 c 0.9,-3.4191 0.715,-4.4375 -0.874,-4.8149 -3.041,-0.722 -5.718,3.6358 -4.095,6.6671 1.965,3.6723 3.683,3.0318 4.969,-1.8522 z m -5.068,-10.3404 c 0,-0.7339 -0.265,-1.3343 -0.588,-1.3343 -0.324,0 -0.96,0.6004 -1.413,1.3343 -0.454,0.7338 -0.189,1.3342 0.588,1.3342 0.777,0 1.413,-0.6004 1.413,-1.3342 z m 0.799,-14.1203 c 2.034,-4.8661 8.521,-12.5648 10.588,-12.5648 0.799,0 2.696,-1.1587 4.216,-2.575 1.521,-1.4163 5.386,-3.2734 8.591,-4.1269 3.205,-0.8535 6.727,-2.3264 7.828,-3.2731 1.101,-0.9468 5.304,-3.2693 9.34,-5.1612 12.114,-5.6784 41.901,-25.7999 48.703,-32.9001 2.962,-3.0919 3.299,-4.6073 3.446,-15.5211 0.111,-8.277 -0.457,-13.3161 -1.799,-15.964 -1.078,-2.1282 -2.367,-6.271 -2.863,-9.2064 -0.786,-4.6438 -5.449,-21.2283 -8.817,-31.3549 -0.61,-1.8346 -1.836,-6.6379 -2.724,-10.674 -0.887,-4.0361 -2.434,-8.9597 -3.436,-10.9413 -1.002,-1.9817 -1.822,-5.1726 -1.822,-7.0911 0,-1.9184 -1.194,-6.3013 -2.652,-9.7396 -1.459,-3.4383 -3.515,-10.1541 -4.569,-14.9241 -2.95,-13.353 -5.842,-22.9361 -7.388,-24.4818 -0.771,-0.7715 -1.402,-2.7633 -1.402,-4.4262 0,-1.6629 -0.843,-4.9952 -1.874,-7.4051 -1.03,-2.4099 -2.602,-7.0835 -3.492,-10.3857 -0.891,-3.3023 -2.685,-8.706 -3.986,-12.0083 -1.302,-3.3023 -2.795,-8.1056 -3.318,-10.674 -3.35,-16.4477 -11.766,-42.5885 -16.811,-52.2175 -1.398,-2.6684 -2.541,-5.4785 -2.541,-6.2446 0,-0.7662 -1.802,-5.2847 -4.003,-10.0411 -2.202,-4.7564 -4.003,-9.2478 -4.003,-9.981 0,-0.7332 -2.101,-5.8205 -4.67,-11.305 -2.568,-5.4846 -4.67,-10.7116 -4.67,-11.6156 0,-0.9041 -3.548,-8.6286 -7.884,-17.1657 -10.107,-19.8953 -16.132,-33.0762 -16.132,-35.2886 0,-0.961 -1.25,-4.3346 -2.778,-7.4969 -1.528,-3.1623 -5.419,-13.9325 -8.647,-23.9336 -3.229,-10.0012 -6.703,-19.685 -7.722,-21.5195 -1.019,-1.8346 -2.877,-6.4808 -4.13,-10.3248 -1.253,-3.844 -2.833,-7.3318 -3.51,-7.7507 -0.678,-0.4189 -1.219,-1.7769 -1.202,-3.0178 0.02,-1.2409 -5.357,-13.0636 -11.941,-26.2727 -13.945,-27.9786 -26.684,-54.8355 -30.06,-63.377 -1.305,-3.3023 -3.503,-8.1873 -4.885,-10.8557 -1.382,-2.6683 -2.512,-5.5948 -2.512,-6.5033 0,-3.1061 -9.922,-24.4522 -37.825,-81.3757 -9.373,-19.1224 -15.095,-33.0903 -21.589,-52.703 -4.859,-14.6767 -8.959,-27.2854 -9.11,-28.0193 -0.552,-2.6871 -9.2,-29.5477 -11.598,-36.0248 -6.621,-17.882 -14.703,-42.5136 -17.289,-52.6928 -1.584,-6.232 -3.511,-11.7211 -4.283,-12.1979 -0.771,-0.4768 -4.857,3.4213 -9.079,8.6625 -7.286,9.0453 -18.243,20.0685 -27.559,27.7248 -5.163,4.2436 -5.529,5.8314 -2.724,11.8253 1.201,2.5684 3.959,10.3738 6.127,17.3453 6.624,21.2949 16.488,48.9819 27.573,77.3866 1.998,5.1211 7.431,19.5672 11.29,30.0207 1.354,3.6692 3.942,10.5739 5.751,15.3439 1.809,4.7699 4.047,11.0743 4.974,14.0096 0.927,2.9354 3.023,9.2397 4.657,14.0097 9.655,28.1697 11.671,34.4401 21.24,66.0455 3.411,11.264 9.716,35.065 20.68,78.0537 3.65,14.3099 8.712,33.8233 11.251,43.3633 2.538,9.5399 7.36,27.9499 10.715,40.9112 3.356,12.9612 6.748,25.2682 7.539,27.3488 0.791,2.0806 2.274,7.0866 3.296,11.1246 2.28,9.0092 6.97,25.4616 12.554,44.0337 5.988,19.914 9.489,32.8052 11.415,42.029 0.92,4.403 5.448,21.2146 10.063,37.359 4.615,16.1445 9.406,34.1569 10.646,40.0276 1.24,5.8707 3.272,13.9763 4.514,18.0124 5.54,17.9985 16.314,68.7023 20.27,95.3991 3.18,21.4608 6.37,37.425 10.797,54.0372 1.075,4.0361 2.766,10.6406 3.757,14.6768 2.826,11.5074 8.38,28.059 10.117,30.1523 2.035,2.4525 4.916,0.2691 7.361,-5.5793 z m -659.92,-12.7346 c 0,-1.3052 0.561,-3.7523 1.246,-5.438 0.686,-1.6856 3.181,-9.6694 5.546,-17.7416 2.364,-8.0722 5.072,-15.8776 6.017,-17.3453 0.945,-1.4677 3.203,-8.3724 5.018,-15.3439 1.816,-6.9714 4.796,-17.2367 6.624,-22.8116 1.828,-5.5749 4.033,-14.8813 4.899,-20.6809 1.864,-12.4855 9.158,-46.7673 14.734,-69.2518 7.587,-30.5918 27.038,-89.4118 37.213,-112.5344 2.986,-6.7858 5.43,-13.4199 5.43,-14.7424 0,-1.3225 1.109,-3.6836 2.465,-5.2468 1.356,-1.5633 3.807,-7.5092 5.447,-13.2132 5.027,-17.4854 8.367,-28.786 10.277,-34.7675 1.003,-3.1444 1.824,-7.3885 1.824,-9.4311 0,-2.0427 0.903,-6.7531 2.006,-10.4676 2.016,-6.7896 3.937,-15.3894 6.199,-27.7542 0.672,-3.6692 1.733,-9.3731 2.359,-12.6754 3.802,-20.0566 9.751,-54.8421 10.155,-59.3742 0.579,-6.5158 1.018,-8.7825 4.649,-24.0166 2.94,-12.3371 6.067,-21.2834 4.664,-13.3425 -0.389,2.2015 -1.24,7.3051 -1.891,11.3412 -0.651,4.0361 -1.612,9.5899 -2.135,12.3418 -0.543,2.8527 -0.423,5.0035 0.279,5.0035 1.287,0 4.766,-11.5971 5.203,-17.3453 0.14,-1.8346 1.169,-6.9381 2.288,-11.3412 1.12,-4.403 2.72,-11.608 3.557,-16.011 0.837,-4.403 2.086,-9.8494 2.775,-12.103 0.69,-2.2536 1.251,-7.3571 1.246,-11.3412 v -7.2436 l -2.042,3.915 c -1.123,2.1533 -1.746,4.6858 -1.384,5.6279 0.361,0.942 0.08,2.0676 -0.619,2.5014 -0.702,0.4337 -1.276,2.2542 -1.276,4.0455 0,2.0055 -0.769,3.2568 -2.001,3.2568 -1.101,0 -1.994,-0.1501 -1.984,-0.3335 0.17,-3.296 6.325,-18.9613 8.932,-22.7345 4.035,-5.8386 4.918,-12.3417 2.25,-16.579 -2.431,-3.8635 -2.41,-7.2216 0.03,-4.0105 1.711,2.2554 1.846,2.2572 2.699,0.035 0.55,-1.4334 0.09,-2.9261 -1.176,-3.8555 -3.087,-2.2573 -2.715,-6.2755 0.486,-5.2593 3.046,0.9666 3.762,-0.8725 4.36,-11.1915 0.284,-4.905 -0.117,-7.4027 -1.25,-7.7831 -1.095,-0.3678 -1.668,0.8532 -1.668,3.5537 0,2.2627 -0.656,4.1139 -1.459,4.1139 -0.998,0 -1.143,-2.2132 -0.458,-7.0048 0.551,-3.8526 1.106,-7.9054 1.233,-9.0062 0.127,-1.1008 0.593,-3.8026 1.035,-6.0041 0.442,-2.2016 1.164,-6.2155 1.605,-8.92 0.563,-3.4522 1.484,-4.9142 3.092,-4.9073 3.26,0.014 6.728,-0.8398 7.811,-1.9228 0.511,-0.5104 0.168,-0.9281 -0.762,-0.9281 -1.942,0 -1.504,-6.6775 1.247,-19.0449 0.943,-4.237 1.322,-8.0959 0.843,-8.5752 -1.445,-1.4445 -4.554,3.9017 -5.42,9.3201 -0.447,2.7957 -1.357,4.7465 -2.023,4.3352 -0.717,-0.4435 -0.677,-2.506 0.1,-5.0663 0.72,-2.3751 1.566,-5.5191 1.881,-6.9868 0.314,-1.4677 0.996,-4.4698 1.515,-6.6713 0.519,-2.2015 0.811,-4.5073 0.649,-5.124 -0.469,-1.7868 5.378,-18.2255 6.794,-19.1006 0.787,-0.4861 0.929,0.8206 0.367,3.3768 -0.503,2.2933 -0.417,4.1697 0.191,4.1696 1.988,0 8.445,-9.1277 8.445,-11.9369 0,-1.7736 0.869,-2.7398 2.462,-2.7398 1.354,0 3.549,-1.2008 4.877,-2.6685 2.626,-2.9024 8.59,-3.5511 10.95,-1.191 1.081,1.0805 1.899,0.6913 3.044,-1.4485 0.861,-1.6094 1.208,-3.2835 0.772,-3.7204 -0.437,-0.4368 -6.94,-0.1755 -14.452,0.5808 -15.502,1.5608 -53.297,0.3351 -71.033,-2.3035 -7.325,-1.0898 -11.89,-1.239 -12.713,-0.4157 -1.965,1.9651 -12.512,46.9057 -13.93,59.3551 -0.469,4.1215 -1.746,10.7261 -2.836,14.6768 -2.606,9.4391 -2.746,10.0747 -5.974,27.1969 -1.522,8.0723 -3.879,18.8797 -5.238,24.0166 -1.359,5.1368 -3.41,14.1431 -4.558,20.0138 -1.147,5.8707 -2.741,13.0756 -3.542,16.011 -0.8,2.9353 -2.861,11.7723 -4.579,19.6376 -1.719,7.8653 -5.29,21.0744 -7.937,29.3535 -4.31,13.481 -16.532,54.9346 -21.354,72.4259 -2.742,9.9487 -13.302,51.9383 -18.789,74.7181 -6.277,26.054 -11.988,46.2993 -19.255,68.2607 -2.224,6.7221 -4.046,13.0265 -4.047,14.0096 0,0.9832 -2.711,8.9926 -6.02,17.7986 -3.309,8.8061 -6.345,17.9541 -6.747,20.3289 -0.794,4.6873 -4.736,18.6151 -7.085,25.0357 -3.959,10.8161 -11.374,32.6903 -12.891,38.0262 -2.088,7.3437 -17.843,52.6087 -27.168,78.0538 -3.765,10.2737 -8.398,26.1847 -10.297,35.3577 -3.258,15.7471 -9.096,37.2908 -12.444,45.9282 -2.818,7.2672 -1.833,7.6728 16.933,6.9729 20.959,-0.7816 37.24,1.4619 54.847,7.558 l 12.876,4.4581 3.002,-2.6705 c 1.651,-1.4688 3.002,-3.7384 3.002,-5.0437 z m 136.094,-518.1085 c 0,-1.0575 0.538,-2.2548 1.194,-2.6608 1.374,-0.8489 3.03,2.5831 1.827,3.7859 -1.431,1.4316 -3.021,0.8397 -3.021,-1.1251 z m 14.255,-71.1277 c -0.318,-0.5504 -0.09,-2.2015 0.495,-3.6692 0.937,-2.3296 1.085,-2.2025 1.167,1.0007 0.09,3.6198 -0.531,4.6221 -1.662,2.6685 z m 6.512,-47.4235 c 0.501,-1.3159 1.247,-2.0564 1.658,-1.6456 0.41,0.4108 0,1.4874 -0.911,2.3925 -1.318,1.3079 -1.471,1.1547 -0.747,-0.7469 z m 2.175,-8.2815 c 0.03,-2.2015 0.327,-2.9406 0.665,-1.6425 0.338,1.2982 0.316,3.0995 -0.05,4.0028 -0.365,0.9033 -0.642,-0.1588 -0.615,-2.3603 z m -611.739,194.4673 c 1.477,-1.2843 5.198,-5.9375 8.269,-10.3405 6.913,-9.9107 21.222,-26.7812 36.153,-42.6264 6.238,-6.6195 12.542,-13.5032 14.01,-15.2971 1.467,-1.794 7.703,-8.1079 13.857,-14.0309 27.472,-26.4424 46.789,-46.4607 54.19,-56.1571 4.403,-5.7691 9.999,-12.325 12.436,-14.5686 2.437,-2.2436 5.713,-6.1826 7.279,-8.7534 1.566,-2.5707 6.477,-9.3816 10.913,-15.1354 4.436,-5.7537 8.958,-11.7579 10.05,-13.3425 5.499,-7.9793 28.098,-35.7399 34.871,-42.8349 4.242,-4.4437 8.995,-9.7425 10.563,-11.7752 1.568,-2.0327 4.563,-4.5812 6.656,-5.6633 2.092,-1.0821 7.112,-6.3237 11.154,-11.6481 4.042,-5.3243 18.789,-20.9843 32.769,-34.7999 13.981,-13.8156 25.42,-25.6975 25.42,-26.4043 0,-0.7067 3.942,-5.6142 8.759,-10.9055 4.817,-5.2913 9.506,-10.5211 10.419,-11.6219 7.509,-9.0475 11.51,-14.5015 11.51,-15.6906 0,-2.4838 12.489,-11.7551 18.346,-13.6194 3.119,-0.9927 5.671,-2.4797 5.671,-3.3045 0,-0.8248 -3.753,-6.0606 -8.34,-11.6352 -4.586,-5.5746 -10.602,-13.8249 -13.367,-18.334 -5.785,-9.4307 -5.835,-9.4292 -17.654,0.5118 -12.199,10.2608 -27.873,22.7545 -40.695,32.437 -6.971,5.2646 -17.621,13.3356 -23.666,17.9356 -13.5,10.2735 -16.736,12.5276 -75.068,52.2866 -35.789,24.3938 -48.374,33.8794 -106.022,79.9154 -12.764,10.1925 -24.706,18.5049 -59.426,41.3639 -4.036,2.6573 -8.839,6.0377 -10.674,7.512 -1.834,1.4744 -3.856,2.694 -4.493,2.7103 -0.637,0.016 -5.44,3.2352 -10.674,7.153 -5.234,3.9179 -12.518,9.1816 -16.188,11.6973 -11.159,7.6514 -21.25,15.3423 -23.18,17.6677 -1.58,1.9041 -1.065,4.3382 3.787,17.882 3.089,8.6229 8.247,23.1831 11.462,32.3561 3.215,9.173 6.427,17.879 7.138,19.3467 0.711,1.4676 1.681,4.0495 2.155,5.7375 0.474,1.688 6.539,12.7083 13.478,24.4898 6.938,11.7814 14.471,25.1104 16.739,29.6201 5.434,10.806 6.871,11.798 11.393,7.8659 z m 775.036,-64.996 c 6.733,-3.2755 12.599,-6.8875 13.037,-8.0268 0.437,-1.1394 -0.423,-9.1168 -1.911,-17.7277 -2.508,-14.5068 -4.506,-21.9503 -14.589,-54.3495 -2.056,-6.6045 -5.678,-18.3126 -8.05,-26.0179 -8.122,-26.3849 -9.097,-25.8138 -5.948,3.4849 3.953,36.7815 4.552,81.6279 1.374,102.8206 -1.131,7.5422 0.237,7.5266 16.087,-0.1836 z m -430.504,-46.6444 c 1.67,-1.7778 4.516,-6.4267 6.325,-10.3308 1.809,-3.9041 4.718,-8.972 6.465,-11.262 1.746,-2.29 3.58,-5.8969 4.074,-8.0152 0.494,-2.1184 1.65,-4.4619 2.568,-5.2078 0.919,-0.7459 3.058,-4.6486 4.755,-8.6726 1.696,-4.0241 4.693,-9.7181 6.66,-12.6535 1.967,-2.9353 7.069,-12.542 11.337,-21.348 4.268,-8.8061 9.215,-18.349 10.994,-21.2064 3.162,-5.0812 8.042,-17.5143 8.957,-22.824 0.655,-3.796 8.713,-26.4209 9.98,-28.0193 0.582,-0.7338 1.504,-3.4197 2.05,-5.9687 0.546,-2.549 2.378,-6.829 4.071,-9.5111 1.693,-2.682 3.957,-6.9776 5.03,-9.5458 1.073,-2.5681 2.612,-5.0782 3.421,-5.578 0.809,-0.4998 1.472,-1.9241 1.474,-3.165 0,-1.2409 1.802,-3.457 3.999,-4.9247 2.198,-1.4677 3.997,-3.2917 3.999,-4.0533 0,-1.5007 -16.235,-12.6248 -18.43,-12.6248 -0.736,0 -3.871,4.6532 -6.967,10.3404 -5.321,9.7756 -9.817,17.0684 -22.004,35.6913 -2.881,4.403 -5.91,9.2063 -6.73,10.674 -5.732,10.2556 -19.066,30.0815 -33.202,49.3673 -23.629,32.2377 -39.249,59.4382 -42.974,74.8368 -0.696,2.875 1.053,4.6751 12.716,13.0872 2.949,2.1263 7.619,6.1791 10.38,9.0062 2.76,2.8271 5.693,5.1402 6.517,5.1402 0.824,0 2.865,-1.4546 4.535,-3.2324 z m 267.584,-54.4741 c 0.782,-3.4161 0.324,-7.1558 -1.043,-8.5228 -0.51,-0.5105 -0.937,0.5229 -0.948,2.2963 -0.01,1.7735 -0.572,4.0964 -1.247,5.1621 -0.674,1.0658 -0.929,2.4167 -0.568,3.0021 1.245,2.0138 3.12,1.0592 3.806,-1.9377 z m 57.403,-28.7976 c 0,-2.4132 -2.611,-1.9726 -3.129,0.528 -0.288,1.3912 0.212,2.0011 1.334,1.6271 0.987,-0.3292 1.795,-1.2989 1.795,-2.1551 z m 2.502,-16.4002 c 0.459,-2.2932 0.813,-5.4454 0.787,-7.0048 -0.05,-2.6679 -0.16,-2.6383 -1.954,0.5004 -2.114,3.6972 -2.659,10.674 -0.834,10.674 0.642,0 1.542,-1.8763 2.001,-4.1696 z m 0.167,-47.8663 c 0.453,-0.7338 -0.112,-1.3342 -1.256,-1.3342 -1.144,0 -2.08,0.6004 -2.08,1.3342 0,0.7339 0.565,1.3343 1.256,1.3343 0.69,0 1.626,-0.6004 2.08,-1.3343 z m -3.862,-48.528 c 19.008,-3.2411 37.105,-7.9679 46.91,-12.253 2.395,-1.0468 6.761,-2.288 9.703,-2.7584 2.941,-0.4704 5.67,-1.3768 6.064,-2.0142 0.394,-0.6374 1.755,-1.159 3.025,-1.159 2.826,0 47.021,-21.7875 63.718,-31.4121 36.146,-20.8349 60.135,-41.7722 80.193,-69.9911 22.827,-32.1146 24.375,-34.6634 39.306,-64.7112 7.292,-14.6768 13.841,-27.7477 14.552,-29.0465 3.348,-6.115 12.231,-30.8348 14.734,-41.0018 6.122,-24.8595 7.108,-38.9143 4.544,-64.7112 -1.129,-11.3503 -6.36,-38.0677 -8.882,-45.3646 -0.761,-2.2015 -2.257,-7.305 -3.324,-11.3412 -5.218,-19.733 -10.562,-35.8399 -13.384,-40.3346 -1.719,-2.7373 -3.125,-5.5452 -3.125,-6.2397 0,-2.054 -12.732,-20.6657 -17.983,-26.2886 -2.666,-2.8549 -5.678,-6.6919 -6.692,-8.5265 -2.081,-3.7651 -11.422,-12.8357 -21.341,-20.7246 -3.66,-2.9113 -7.627,-6.1939 -8.815,-7.2947 -1.187,-1.1007 -6.033,-5.6038 -10.768,-10.0068 -4.735,-4.4031 -12.156,-11.0076 -16.493,-14.6768 -4.336,-3.6692 -11.506,-9.9015 -15.932,-13.8496 -4.427,-3.9481 -10.206,-8.5492 -12.842,-10.2246 -2.637,-1.6755 -8.264,-6.0834 -12.506,-9.7954 -4.242,-3.7119 -13.193,-9.4059 -19.891,-12.6532 -13.127,-6.3646 -40.559,-15.5219 -49.416,-16.4961 -5.138,-0.5651 -5.606,-0.3196 -8.002,4.1907 -1.4,2.635 -3.051,4.791 -3.67,4.791 -0.618,0 -1.124,0.857 -1.124,1.9045 0,1.0475 -1.526,3.1053 -3.392,4.573 -2.66,2.0921 -4.839,2.5483 -10.089,2.112 -5.812,-0.4829 -7.58,-1.3946 -13.391,-6.9079 -3.683,-3.4933 -7.699,-6.7145 -8.925,-7.1581 -2.939,-1.0636 -7.784,2.1961 -8.739,5.8802 -0.657,2.5342 -8.156,8.936 -10.467,8.936 -0.44,0 -1.216,-2.4592 -1.724,-5.4649 -1.024,-6.0579 -2.432,-5.5924 -4.424,1.4622 l -1.318,4.6698 -0.12,-5.0034 c -0.07,-2.7519 -0.721,-5.0034 -1.455,-5.0034 -0.734,0 -1.353,0.7505 -1.377,1.6678 -0.03,1.054 -0.668,0.845 -1.742,-0.568 -1.575,-2.0715 -1.818,-2.047 -3.304,0.3336 -1.718,2.7505 -4.251,3.4609 -4.251,1.1922 0,-0.7574 -0.906,-3.5469 -2.015,-6.1989 -1.876,-4.4917 -2.175,-4.6761 -4.366,-2.6931 -4.044,3.6596 -6.042,0.6946 -7.574,-11.2383 l -1.413,-11.0136 -6.659,-1.7561 c -10.727,-2.8287 -45.754,-4.2659 -59.085,-2.4244 -8.642,1.1936 -34.661,7.096 -37.31,8.4635 -1.28,0.6609 -4.729,1.6277 -7.665,2.1484 -2.935,0.5207 -10.74,2.6563 -17.345,4.7459 -6.605,2.0896 -14.11,4.2183 -16.678,4.7304 -7.697,1.5345 -19.931,8.2829 -41.139,22.6921 -3.18,2.1605 -8.595,5.7293 -12.034,7.9309 -9.131,5.8466 -36.736,29.0878 -47.726,40.1829 -17.904,18.0741 -35.314,48.5768 -44.463,77.8984 -3.328,10.6676 -3.328,10.674 -0.162,10.674 1.505,0 2.973,1.2505 3.524,3.0021 0.52,1.6511 2.295,4.9943 3.944,7.4293 3.318,4.8983 2.998,8.9343 -0.873,11.0059 -1.376,0.7364 -2.502,2.2701 -2.502,3.4081 0,1.2137 -2.718,3.2176 -6.574,4.8467 -3.934,1.6619 -6.935,3.8936 -7.473,5.5558 -1.659,5.1235 -2.167,81.0463 -0.672,100.1787 4.165,53.2805 5.748,67.5248 8.971,80.7223 3.77,15.4404 6.791,24.0166 8.461,24.0166 0.599,0 2.972,3.4523 5.273,7.6719 2.939,5.3914 3.999,8.8618 3.564,11.6747 -0.479,3.0948 1.318,7.574 7.921,19.746 16.906,31.1665 33.029,47.0901 86.217,85.152 43.846,31.3768 75.171,47.1167 88.713,44.5763 3.862,-0.7245 5.132,-0.3083 7.781,2.5501 2.19,2.363 4.551,3.416 7.661,3.416 2.473,0 7.155,0.8911 10.405,1.9802 7.731,2.5912 36.231,4.3292 64.615,3.9404 17.132,-0.2346 27.614,-1.1515 42.837,-3.747 z m 490.945,-42.3571 c 1.09,-2.1095 5.575,-13.7472 9.965,-25.8615 6.597,-18.2024 7.712,-22.4598 6.422,-24.5241 -0.858,-1.3739 -8.399,-6.51 -16.757,-11.4135 -8.359,-4.9035 -15.53,-9.7811 -15.936,-10.8393 -0.406,-1.0581 -1.88,-1.9238 -3.276,-1.9238 -1.396,0 -4.19,-1.4724 -6.21,-3.272 -2.019,-1.7997 -6.924,-5.5523 -10.898,-8.3391 -3.975,-2.7869 -8.171,-6.665 -9.325,-8.618 -1.155,-1.9531 -6.002,-6.6898 -10.772,-10.526 -4.77,-3.8362 -11.374,-9.7434 -14.677,-13.1271 -3.302,-3.3837 -7.579,-7.4332 -9.504,-8.9987 -1.925,-1.5656 -8.23,-6.6691 -14.01,-11.3412 -5.78,-4.672 -10.809,-8.8317 -11.176,-9.2438 -2.258,-2.5348 -26.621,-17.8383 -34.431,-21.6271 -11.011,-5.3414 -12.169,-6.4083 -15.547,-14.3157 -3.371,-7.8914 -4.549,-9.3397 -7.6,-9.3397 -1.401,0 -2.738,0.7505 -2.97,1.6678 -0.233,0.9173 -1.173,3.7692 -2.09,6.3377 -0.917,2.5684 -3.689,10.4731 -6.161,17.5659 -2.473,7.0928 -6.855,17.5622 -9.74,23.2653 l -5.245,10.3693 2.865,2.233 c 1.576,1.2282 6.468,4.1658 10.871,6.528 12.47,6.6906 21.603,12.5417 62.709,40.1758 14.855,9.9864 28.804,21.3672 43.364,35.3806 8.439,8.1224 23.519,20.8973 33.51,28.3886 9.992,7.4912 21.1,16.4895 24.684,19.9961 3.584,3.5065 7.29,6.1196 8.234,5.8067 0.945,-0.3129 2.61,-2.2948 3.701,-4.4042 z m 466.115,-138.6397 c -0.179,-0.3485 0.37,-1.9345 1.221,-3.5243 1.871,-3.4959 3.246,-28.0975 1.626,-29.0985 -0.632,-0.3905 -0.332,-4.2107 0.666,-8.4894 0.998,-4.2787 1.477,-9.0708 1.065,-10.6491 -0.413,-1.5784 -0.27,-3.9295 0.318,-5.2246 0.588,-1.2952 1.168,-4.7566 1.29,-7.6919 0.26,-6.2775 2.959,-24.4074 4.767,-32.0221 0.697,-2.9354 1.552,-6.5378 1.901,-8.0055 0.348,-1.4677 0.708,-5.5337 0.799,-9.0356 0.09,-3.5019 0.729,-6.7157 1.418,-7.1418 0.716,-0.4423 0.836,-3.1483 0.281,-6.3083 -0.535,-3.0435 -1.071,-6.4342 -1.192,-7.535 -0.715,-6.4883 -2.006,-7.6282 -9.73,-8.5929 -4.202,-0.5248 -10.342,-1.1333 -13.645,-1.3522 -5.614,-0.3722 -37.256,-4.0092 -69.381,-7.9748 -7.705,-0.9511 -15.21,-1.7522 -16.678,-1.7802 -11.451,-0.218 -29.483,-1.9805 -31.543,-3.0831 -1.6,-0.8562 -3.334,-0.8884 -4.763,-0.089 -1.236,0.6916 -3.479,0.8101 -4.985,0.2633 -1.507,-0.5469 -6.942,-1.0899 -12.079,-1.2068 -5.137,-0.1168 -12.895,-0.8554 -17.24,-1.6412 -4.345,-0.7858 -9.149,-1.4639 -10.674,-1.5067 -1.526,-0.043 -4.875,-0.5604 -7.444,-1.15 -2.568,-0.5896 -9.072,-1.4283 -14.454,-1.8636 -12.943,-1.0472 -21.959,-2.1281 -22.972,-2.754 -0.452,-0.2793 -5.275,-0.8275 -10.718,-1.218 -16.059,-1.1524 -51.092,-3.2545 -53.259,-3.1957 -1.101,0.03 -7.105,-0.3154 -13.342,-0.7672 -22.751,-1.6481 -29.009,-2.0275 -46.032,-2.7912 -9.54,-0.428 -22.149,-1.0277 -28.019,-1.3327 -13.904,-0.7224 -43.903,-1.7459 -78.054,-2.6629 -15.044,-0.404 -33.957,-1.1071 -42.029,-1.5625 -23.912,-1.3489 -25.621,-1.4028 -51.369,-1.6192 -13.576,-0.1141 -33.389,0.4112 -44.03,1.1675 -17.609,1.2515 -20.182,1.1431 -28.641,-1.2076 -5.112,-1.4205 -9.805,-2.2671 -10.429,-1.8813 -0.625,0.3858 -1.846,-0.2481 -2.714,-1.4086 -1.021,-1.364 -2.222,-1.7046 -3.396,-0.9633 -1.508,0.9516 -1.318,3.2758 1.12,13.6512 5.017,21.3577 6.771,33.2256 7.567,51.1977 0.423,9.5399 1.174,17.7882 1.67,18.3296 0.495,0.5414 9.583,1.2143 20.196,1.4954 10.613,0.2811 24.7,1.1918 31.305,2.024 6.605,0.8321 14.41,1.7849 17.345,2.1173 2.936,0.3324 10.741,1.3005 17.346,2.1512 6.604,0.8508 14.71,1.6882 18.012,1.861 3.302,0.1727 11.108,0.9751 17.345,1.783 6.238,0.8079 21.248,2.4126 33.357,3.5659 12.108,1.1534 26.033,2.6824 30.944,3.3979 4.912,0.7155 11.748,1.3009 15.193,1.3009 29.502,0 138.816,18.8216 180.018,30.9955 7.339,2.1682 20.248,5.7376 28.687,7.932 52.453,13.639 52.571,13.6675 82.561,19.8272 10.552,2.1671 25.262,5.4787 32.69,7.3591 25.025,6.3352 70.815,15.256 78.883,15.3678 4.403,0.061 10.107,0.9175 12.675,1.9035 4.473,1.7171 7.238,1.9872 6.546,0.6394 z m -1470.482,-7.2786 c 18.876,-5.3841 26.967,-8.0057 38.954,-12.6231 6.238,-2.4027 15.845,-6.0944 21.348,-8.2039 5.504,-2.1096 15.111,-5.0829 21.348,-6.6075 6.238,-1.5245 16.021,-3.934 21.74,-5.3544 9.489,-2.3566 10.82,-2.4065 15.215,-0.5699 2.649,1.1069 5.1,1.7291 5.447,1.3828 0.346,-0.3463 0.104,-6.5085 -0.539,-13.6936 l -1.168,-13.0639 -10.007,-0.9065 c -45.337,-4.1067 -47.009,-3.8254 -100.736,16.9434 -10.274,3.9714 -22.12,8.4811 -26.326,10.0215 -4.206,1.5405 -7.971,3.3257 -8.368,3.9673 -0.686,1.1112 2.022,16.3338 4.806,27.0136 1.587,6.0884 2.563,6.1788 18.286,1.6942 z m -382.67,-106.0583 c 16.701,-2.523 47.592,-5.3446 73.384,-6.7027 14.31,-0.7536 31.009,-1.9862 37.109,-2.7391 6.1,-0.753 13.605,-1.308 16.678,-1.2334 3.073,0.075 10.391,-0.1759 16.262,-0.5567 5.87,-0.3809 19.079,-1.0722 29.353,-1.5362 16.798,-0.7587 52.598,-3.5912 64.711,-5.12 23.327,-2.944 56.589,-4.7837 95.399,-5.2764 30.32,-0.385 104.097,0.7438 117.415,1.7963 7.338,0.58 21.898,1.4216 32.355,1.8701 l 19.013,0.8156 v -27.8563 c 0,-15.3209 0.604,-31.0375 1.341,-34.9256 0.737,-3.8881 1.059,-7.3514 0.714,-7.6962 -0.345,-0.3448 -10.104,-0.576 -21.688,-0.5139 -11.584,0.062 -23.763,-0.4436 -27.065,-1.124 -6.525,-1.3442 -55.351,-4.9754 -69.382,-5.1599 -4.769,-0.063 -14.076,-0.6814 -20.68,-1.3748 -56.075,-5.8875 -83.515,-8.0892 -110.076,-8.8321 -56.694,-1.5857 -105.293,-3.6663 -108.742,-4.6552 -2.201,-0.6314 -10.607,-1.49 -18.679,-1.9081 -8.073,-0.418 -17.979,-1.3604 -22.016,-2.0943 -4.036,-0.7338 -14.543,-2.1787 -23.349,-3.211 -8.806,-1.0322 -21.415,-2.7744 -28.019,-3.8715 -15.393,-2.5568 -37.973,-5.1162 -47.323,-5.3637 l -7.295,-0.1932 -2.198,17.3453 c -4.491,35.4266 -8.372,60.1287 -11.111,70.7154 -1.139,4.403 -2.727,12.2084 -3.529,17.3453 -1.919,12.3002 -1.98,12.6386 -3.135,17.6463 -1.414,6.1333 -0.08,7.4965 6.386,6.536 3.022,-0.4487 9.398,-1.4054 14.167,-2.126 z m 1218.84,-80.0963 c 0.454,-0.7338 -0.111,-1.3343 -1.255,-1.3343 -1.144,0 -2.08,0.6005 -2.08,1.3343 0,0.7338 0.564,1.3343 1.255,1.3343 0.691,0 1.627,-0.6005 2.08,-1.3343 z m -2.606,-8.7834 c 0.03,-1.7839 -0.711,-3.2249 -1.668,-3.2249 -1.937,0 -2.052,0.6644 -0.875,5.0564 0.988,3.6875 2.457,2.6293 2.543,-1.8315 z m -16.896,-77.1727 c 4.882,-3.2456 13.069,-8.1025 18.192,-10.7932 15.462,-8.1197 30.1,-17.8012 43.339,-28.6636 1.835,-1.5053 6.623,-4.6455 10.64,-6.9782 4.018,-2.3328 8.595,-5.3634 10.172,-6.7347 1.577,-1.3713 7.384,-5.6031 12.903,-9.404 23.124,-15.9249 50.939,-45.2077 59.738,-62.8901 2.905,-5.8382 5.282,-11.7221 5.282,-13.0752 0,-6.0436 -7.381,-14.3361 -12.761,-14.3361 -3.174,0 -25.469,13.4185 -34.691,20.8797 -4.356,3.5239 -21.136,18.4301 -37.29,33.1249 -16.154,14.6947 -31.765,28.7366 -34.691,31.2041 -2.926,2.4675 -17.028,16.0055 -31.338,30.0844 -14.31,14.0789 -27.068,26.0007 -28.353,26.4931 -3.081,1.1814 -2.945,2.8785 0.647,8.0377 4.711,6.7677 6.676,8.9522 8.053,8.9522 0.705,0 5.276,-2.6555 10.158,-5.901 z m -670.463,-10.8137 c 1.921,-4.0561 3.492,-8.166 3.492,-9.1329 0,-2.9511 -4.044,-5.6467 -19.346,-12.8953 -8.073,-3.8237 -18.58,-8.9226 -23.35,-11.3309 -20.661,-10.4313 -44.424,-19.7023 -61.375,-23.9452 -10.117,-2.5322 -34.527,-10.3173 -46.032,-14.681 -15.459,-5.8634 -22.748,-8.4869 -29.907,-10.7649 -6.925,-2.2033 -7.298,-2.1976 -9.006,0.1379 -0.98,1.3401 -1.808,5.1738 -1.84,8.5192 -0.03,3.3455 -0.58,8.7846 -1.218,12.0869 -1.355,7.0134 -0.371,8.73 5.66,9.8745 2.359,0.4476 5.79,1.5942 7.624,2.548 1.835,0.9537 6.338,2.5686 10.007,3.5885 3.669,1.0199 8.173,2.6343 10.007,3.5875 1.835,0.9532 4.351,1.7368 5.592,1.7413 1.241,0 2.572,0.5196 2.959,1.1445 0.386,0.625 3.573,2.2058 7.083,3.513 3.51,1.3071 9.684,3.8701 13.72,5.6955 7.656,3.4629 20.706,8.5566 30.285,11.8214 6.534,2.2273 31.441,7.7744 41.097,9.1531 3.669,0.5239 7.272,1.4131 8.006,1.976 0.734,0.563 7.038,2.0863 14.009,3.3852 6.972,1.2989 13.246,2.8836 13.943,3.5215 0.698,0.6379 2.284,1.1598 3.527,1.1598 1.242,0 2.61,0.9151 3.039,2.0335 0.669,1.7422 4.952,4.2792 7.688,4.5532 0.465,0.047 2.416,-3.2341 4.336,-7.2903 z m 44.854,-67.9009 c 3.302,-3.8565 7.933,-8.3724 10.29,-10.0354 2.357,-1.663 7.645,-5.964 11.752,-9.5578 4.107,-3.5938 8.228,-6.5342 9.158,-6.5342 0.93,0 3.044,-1.4398 4.697,-3.1995 3.54,-3.7677 3.633,-3.521 -9.455,-25.0937 -4.32,-7.1221 -9.408,-16.4285 -11.305,-20.6809 -1.897,-4.2524 -5.825,-12.8351 -8.73,-19.0728 -7.183,-15.423 -15.747,-35.615 -15.747,-37.1268 0,-0.681 -1.728,-5.665 -3.841,-11.0757 -2.112,-5.4106 -5.397,-14.6408 -7.3,-20.5115 -3.149,-9.7155 -13.684,-35.24317 -21.474,-52.03582 -5.345,-11.52091 -11.099,-25.04945 -14.187,-33.35631 -1.636,-4.40303 -7.293,-16.41131 -12.569,-26.68505 -5.277,-10.27374 -10.395,-21.38139 -11.373,-24.68367 -0.979,-3.30227 -2.477,-6.90476 -3.33,-8.00551 -0.852,-1.10076 -2.945,-5.60386 -4.651,-10.0069 -1.705,-4.40303 -3.516,-8.60593 -4.024,-9.33976 -0.509,-0.73384 -4.085,-7.33839 -7.947,-14.67678 -6.513,-12.3738 -11.932,-21.56909 -19.915,-33.78909 -1.761,-2.69733 -6.222,-10.60816 -9.911,-17.57963 -7.997,-15.11269 -22.664,-39.18977 -27.087,-44.46627 -1.739,-2.07436 -3.161,-4.62611 -3.161,-5.67057 0,-1.04445 -0.585,-1.89901 -1.3,-1.89901 -0.715,0 -2.298,-1.95134 -3.518,-4.33632 -1.219,-2.38497 -4.087,-6.54002 -6.372,-9.23344 -2.285,-2.69342 -6.504,-7.94704 -9.376,-11.67471 -2.872,-3.72767 -5.724,-6.77758 -6.338,-6.77758 -0.613,0 -1.116,-0.90062 -1.116,-2.00138 0,-1.10076 -0.544,-2.00138 -1.209,-2.00138 -0.665,0 -3.299,-2.85197 -5.853,-6.3377 -2.555,-3.48574 -5.615,-7.53853 -6.8,-9.0062 -6.074,-7.52249 -16.357,-21.82529 -18.226,-25.3508 -6.886,-12.98948 -11.205,-20.2566 -14.577,-24.52758 -2.096,-2.65429 -5.212,-7.30111 -6.925,-10.32628 -2.911,-5.14027 -9.136,-12.95214 -19.499,-24.47212 -2.406,-2.67493 -6.637,-8.7335 -9.401,-13.46347 l -5.026,-8.59995 -7.944,0.37489 c -6.771,0.31952 -19.434,2.69544 -35.954,6.74607 -5.144,1.26128 -5.621,4.18052 -1.952,11.96624 1.623,3.44498 3.701,8.36504 4.619,10.93348 2.924,8.1853 24.557,50.48916 30.797,60.22474 3.308,5.16079 10.992,16.08686 17.074,24.28016 6.083,8.1933 13.409,18.49939 16.281,22.90242 2.872,4.40303 5.87,8.69724 6.663,9.54268 1.809,1.92851 30.97,60.64255 41.648,83.85499 11.816,25.68712 23.499,54.2867 28.344,69.38113 8.858,27.60134 23.098,68.21666 25.488,72.697 1.364,2.55757 2.48,5.19377 2.48,5.85824 0,1.41449 31.683,62.12264 38.036,72.88244 12.7,21.5069 27.475,46.981 31.341,54.0372 2.413,4.403 6.103,10.0937 8.2,12.6458 2.097,2.5522 3.812,5.1755 3.812,5.8296 0,3.2577 23.473,39.7172 39.675,61.6251 0.561,0.7587 3.453,4.3612 6.426,8.0055 2.974,3.6442 6.775,8.8775 8.448,11.6294 1.673,2.7519 3.743,4.9545 4.601,4.8948 0.857,-0.06 4.261,-3.2639 7.563,-7.1203 z m 549.454,-11.1171 c 5.209,-7.8887 10.327,-15.2438 11.374,-16.3446 1.048,-1.1007 3.577,-5.3036 5.621,-9.3397 2.044,-4.0361 4.719,-8.5392 5.944,-10.0069 1.224,-1.4677 3.918,-5.6706 5.986,-9.3398 4.145,-7.3533 9.748,-16.2712 19.568,-31.1463 3.558,-5.389 6.469,-10.5926 6.469,-11.5635 0,-0.9709 0.526,-1.9654 1.168,-2.21 0.642,-0.2446 3.07,-4.2319 5.395,-8.8606 2.325,-4.6288 6.852,-12.5107 10.06,-17.5155 3.208,-5.0047 7.724,-12.6254 10.035,-16.9349 2.311,-4.3094 5.665,-10.237 7.452,-13.1724 1.788,-2.9353 4.134,-7.3205 5.214,-9.7448 1.079,-2.4243 3.78,-6.61387 6.003,-9.31019 2.222,-2.69632 4.041,-5.41796 4.041,-6.04809 0,-0.63013 1.705,-3.6455 3.789,-6.70082 2.083,-3.05532 9.727,-14.56134 16.985,-25.56892 7.258,-11.00758 16.417,-24.20274 20.355,-29.32256 3.937,-5.11983 8.25,-11.42417 9.583,-14.00965 1.334,-2.58548 3.529,-5.90792 4.877,-7.3832 5.645,-6.17802 12.948,-15.82081 15.61,-20.61156 6.568,-11.82004 11.615,-20.07952 16.748,-27.40783 2.998,-4.27936 5.45,-8.31872 5.45,-8.97634 0,-1.98574 6.743,-15.5939 8.161,-16.47041 0.727,-0.44907 3.356,-5.16178 5.842,-10.47268 2.487,-5.3109 5.457,-10.43271 6.601,-11.3818 1.143,-0.94908 2.079,-2.4706 2.079,-3.38116 0,-0.91055 3.494,-6.99127 7.766,-13.51271 4.271,-6.52144 10.054,-15.45965 12.851,-19.86268 2.797,-4.40304 5.924,-9.20635 6.949,-10.67402 1.026,-1.46768 4.113,-5.97078 6.861,-10.0069 2.749,-4.03611 6.951,-10.00382 9.34,-13.26158 2.388,-3.25776 4.69,-7.31055 5.116,-9.00621 0.425,-1.69565 1.245,-3.083 1.822,-3.083 0.576,0 4.515,-6.15424 8.753,-13.67609 4.237,-7.52185 9.021,-15.17712 10.632,-17.01172 1.61,-1.8346 4.598,-6.93811 6.639,-11.34115 2.041,-4.40303 5.125,-9.86342 6.854,-12.13421 1.729,-2.27078 3.143,-4.82254 3.143,-5.67057 0,-0.84803 0.56,-1.54188 1.245,-1.54188 0.684,0 1.645,-1.35093 2.134,-3.00206 0.963,-3.24634 2.214,-5.29229 15.946,-26.08241 8.569,-12.97193 8.975,-13.93035 7.261,-17.13321 -1.545,-2.88539 -10.355,-9.81791 -18.356,-14.44309 -1.224,-0.70759 -4.726,-2.95914 -7.781,-5.00344 -3.055,-2.0443 -5.831,-3.71691 -6.169,-3.71691 -0.337,0 -5.042,-2.72348 -10.455,-6.05216 -5.414,-3.32869 -11.033,-6.78107 -12.487,-7.67196 -8.365,-5.12293 -22.051,-14.95946 -26.44,-19.00299 -2.869,-2.64315 -15.294,-8.06408 -16.263,-7.09534 -1.153,1.15288 -14.025,34.00468 -14.035,35.81969 -0.04,7.39554 -29.925,80.03752 -40.344,98.06755 -0.848,1.46768 -5.228,9.57327 -9.734,18.01241 -12.769,23.91724 -19.365,36.12134 -23.437,43.36321 -6.609,11.7513 -9.557,17.50212 -43.428,84.72503 -18.303,36.32502 -39.189,78.65418 -46.414,94.06479 -20.47,43.66015 -39.181,80.39532 -50.968,100.06892 -1.759,2.9354 -4.713,8.6189 -6.564,12.6301 -1.851,4.0111 -3.816,7.6136 -4.366,8.0055 -1.569,1.1176 -13.568,19.8342 -13.568,21.1641 0,0.6551 -1.595,3.5265 -3.545,6.3808 -10.115,14.8105 -31.557,58.4979 -30.439,62.0202 0.438,1.3798 6.866,7.47 14.285,13.5338 7.419,6.0637 15.636,12.9601 18.261,15.3252 2.626,2.3652 5.737,4.3165 6.914,4.3364 1.264,0.021 6.017,-5.8362 11.611,-14.3072 z m -443.46,-62.916 c 1.135,-1.8359 15.113,-9.4672 17.341,-9.4672 3.625,0 8.757,-3.0787 8.697,-5.2176 -0.03,-1.1664 -0.87,-4.2222 -1.863,-6.7906 -15.193,-39.3069 -17.12,-47.1221 -27.302,-110.74298 -8.402,-52.49261 -10.891,-68.38293 -12.125,-77.38664 -2.432,-17.7592 -2.576,-17.90317 -17.358,-17.45282 -12.963,0.39491 -14.679,1.08389 -14.658,5.88412 0.03,6.49555 13.307,74.24846 19.395,98.96224 1.808,7.33838 3.283,14.32429 3.278,15.52424 0,1.19995 0.875,5.10264 1.955,8.67264 1.081,3.57 3.551,12.7953 5.488,20.5006 1.937,7.7053 4.88,19.4133 6.538,26.0179 3.962,15.7715 7.723,42.1083 6.634,46.4471 -1.215,4.8406 1.77,8.6261 3.98,5.049 z m 290.799,-10.4678 c 3.375,-8.8006 4.732,-14.9056 3.485,-15.676 -1.328,-0.8208 -5.166,8.6492 -6.586,16.2491 -1.421,7.606 0.07,7.3303 3.101,-0.5731 z m -114.6,-15.3439 c 0.32,-0.9173 0.871,-11.5747 1.224,-23.683 0.353,-12.1084 0.977,-23.5162 1.387,-25.3508 0.41,-1.8346 1.358,-9.0396 2.106,-16.0111 0.749,-6.9714 2.257,-18.52458 3.352,-25.67364 1.095,-7.14906 2.325,-15.83537 2.733,-19.30292 0.408,-3.46754 0.972,-6.67806 1.254,-7.13449 0.674,-1.09089 5.773,-40.84141 6.665,-51.96059 0.785,-9.77611 0.824,-36.55769 0.179,-123.41835 -0.541,-72.94408 1.198,-133.10946 5.129,-177.45558 1.054,-11.89889 7.457,-59.36468 9.268,-68.714 1.067,-5.50379 2.857,-16.91165 3.978,-25.3508 1.122,-8.43914 2.697,-19.847 3.501,-25.35079 1.651,-11.31115 1.707,-16.09182 0.207,-17.59195 -1.146,-1.14581 -18.275,-4.43575 -29.64,-5.69299 -21.566,-2.38555 -46.243,0.34058 -45.847,5.06476 0.102,1.21292 0.554,5.66287 1.004,9.88878 0.451,4.22591 -0.06,14.88412 -1.125,23.6849 -1.069,8.80079 -2.301,19.3037 -2.736,23.33982 -0.435,4.03611 -1.378,11.24107 -2.094,16.01103 -3.182,21.19368 -8.35,76.92322 -9.836,106.07307 -0.449,8.80606 -1.099,19.61351 -1.443,24.01654 -0.345,4.40303 -0.947,35.32433 -1.338,68.714 -0.391,33.38967 -0.972,69.11428 -1.292,79.38802 -0.319,10.27375 -1.207,42.09567 -1.973,70.71538 -0.765,28.61972 -1.67,53.83709 -2.009,56.0386 -0.34,2.20152 -0.968,10.90752 -1.395,19.34666 -0.427,8.43915 -1.33,20.44742 -2.006,26.68505 -0.676,6.23763 -1.581,15.54409 -2.01,20.68089 -0.43,5.1369 -1.283,14.4433 -1.894,20.6809 -0.612,6.2377 -1.204,17.7433 -1.315,25.5681 l -0.203,14.2269 11.737,-0.107 c 12.413,-0.1132 28.25,1.0166 40.424,2.8839 10.891,1.6704 13.365,1.6334 14.008,-0.2093 z m 121.992,-24.0382 c 1.461,0.9054 3.431,1.3449 4.377,0.9768 1.932,-0.7515 5.056,-6.7929 5.056,-9.7766 0,-2.2063 3.446,-14.4944 6.038,-21.5328 3.314,-8.9992 8.639,-26.61076 8.639,-28.57101 0,-1.08849 1.426,-6.66328 3.169,-12.38841 6.284,-20.63712 11.644,-41.30032 13.432,-51.77116 2.079,-12.17784 0.978,-16.83671 -5.26,-22.26961 -7.903,-6.88384 -10.696,-5.92401 -12.499,4.29593 -5.058,28.66776 -8.539,46.45805 -15.656,80.01642 -12.654,59.67034 -13.637,65.02904 -11.256,61.37564 1.068,-1.6391 1.785,-1.7034 3.96,-0.3552 z"
       id="path26" />
  </g>
</svg>
