<?xml version="1.0" encoding="UTF-8" standalone="no"?>
<!-- Created with Inkscape (http://www.inkscape.org/) -->

<svg
   version="1.1"
   id="svg1"
   width="1633.2618"
   height="1100.8738"
   viewBox="0 0 1633.2618 1100.8739"
   sodipodi:docname="mountain.svg"
   inkscape:version="1.4.3 (0d15f75, 2025-12-25)"
   inkscape:export-batch-name="doodles"
   xmlns:inkscape="http://www.inkscape.org/namespaces/inkscape"
   xmlns:sodipodi="http://sodipodi.sourceforge.net/DTD/sodipodi-0.dtd"
   xmlns="http://www.w3.org/2000/svg"
   xmlns:svg="http://www.w3.org/2000/svg">
  <sodipodi:namedview
     id="namedview1"
     pagecolor="#505050"
     bordercolor="#eeeeee"
     borderopacity="1"
     inkscape:showpageshadow="0"
     inkscape:pageopacity="0"
     inkscape:pagecheckerboard="0"
     inkscape:deskcolor="#505050"
     inkscape:zoom="0.36251647"
     inkscape:cx="2884.0069"
     inkscape:cy="1148.9133"
     inkscape:window-width="1920"
     inkscape:window-height="1051"
     inkscape:window-x="-9"
     inkscape:window-y="-9"
     inkscape:window-maximized="1"
     inkscape:current-layer="g2" />
  <defs
     id="defs1" />
  <g
     id="g2"
     inkscape:groupmode="layer"
     inkscape:label="2"
     transform="translate(-1574.6684,-294.95329)">
    <path
       style="fill:#000000"
       d="m 3156.9277,1394.7096 c -4.0362,-0.5191 -11.8417,-1.603 -17.3455,-2.4087 -8.414,-1.2316 -67.58,-4.1015 -90.0634,-4.3685 -3.6692,-0.044 -28.2865,0.3812 -54.7051,0.9439 -26.4186,0.5627 -55.8393,1.0104 -65.3793,0.9949 -32.1902,-0.052 -110.7636,-1.6264 -118.79,-2.3799 -4.3812,-0.4114 -18.7735,-1.0596 -31.9828,-1.4406 -72.0968,-2.0792 -111.8007,-3.481 -132.0929,-4.6637 -79.9714,-4.6607 -153.492,-5.5376 -222.1562,-2.6496 -22.4292,0.9433 -51.7012,1.2976 -68.0479,0.8235 -27.9884,-0.8117 -109.4324,-5.6103 -116.0816,-6.8394 -1.8347,-0.3391 -15.3442,-1.2304 -30.0212,-1.9806 -14.6769,-0.7502 -32.9124,-1.7201 -40.5232,-2.1553 -31.5027,-1.8014 -130.2847,-0.3568 -200.9799,2.9392 -9.5401,0.4448 -66.5802,0.9528 -126.7559,1.129 -60.1756,0.1762 -112.4124,0.6574 -116.0816,1.0694 -3.6693,0.4121 -12.9758,1.1251 -20.6812,1.5845 -38.8355,2.3154 -54.4605,2.8988 -73.385,2.74 -18.5402,-0.1555 -21.3028,-0.4829 -26.6854,-3.1626 -11.7926,-5.8706 -15.3178,-8.1986 -15.3309,-10.1241 -0.01,-1.0743 -2.0141,-3.4315 -4.4597,-5.2382 -2.4455,-1.8068 -5.953,-5.286 -7.7944,-7.7315 -3.1728,-4.2139 -3.3037,-5.0626 -2.5024,-16.2292 0.4651,-6.4806 1.3728,-12.785 2.0171,-14.0099 0.6444,-1.2249 2.479,-5.8296 4.0768,-10.2327 1.5979,-4.4031 3.415,-9.2065 4.038,-10.6742 0.623,-1.4677 2.4807,-5.9708 4.1283,-10.007 1.6475,-4.0362 4.2528,-9.44 5.7894,-12.0085 1.5366,-2.5684 3.5409,-6.3884 4.454,-8.4888 2.1689,-4.9892 21.3929,-32.4294 35.2996,-50.3865 6.0387,-7.7974 13.6812,-17.7044 16.9832,-22.0155 9.7435,-12.7208 28.5993,-34.9739 40.5589,-47.8664 34.3084,-36.9848 47.5389,-54.7346 68.6238,-92.0648 6.6319,-11.7416 13.5116,-23.75 15.2881,-26.6854 1.7766,-2.9354 5.653,-9.8403 8.6143,-15.3442 2.9613,-5.5038 9.1461,-16.61166 13.7441,-24.68401 9.2365,-16.21569 15.7991,-29.01406 27.709,-54.03802 4.3659,-9.17312 11.6124,-24.25752 16.1034,-33.52089 4.491,-9.26336 8.1654,-17.19866 8.1654,-17.63399 0,-0.43533 3.0689,-6.96614 6.8199,-14.51291 3.7509,-7.54678 7.5036,-15.16953 8.3392,-16.93945 0.8356,-1.76992 5.6579,-11.37668 10.7161,-21.34835 18.6719,-36.80917 22.7854,-45.74367 32.2168,-69.97405 11.6885,-30.02923 29.6854,-64.76639 35.3772,-68.28412 0.9151,-0.56558 5.927,-1.19897 11.1374,-1.40755 7.0994,-0.28419 10.9373,0.26807 15.3139,2.20368 3.2121,1.4206 6.7485,2.58291 7.8585,2.58291 1.1101,0 2.7208,0.96067 3.5793,2.13483 0.9381,1.28286 3.5074,2.13484 6.4381,2.13484 4.0602,0 6.3935,1.3364 13.9302,7.97826 4.9792,4.38804 11.1546,10.61775 13.7231,13.84378 2.5685,3.22604 9.2249,11.13391 14.7921,17.57305 14.1221,16.33414 28.049,35.4008 40.713,55.73851 10.7123,17.20333 12.7942,20.75489 24.246,41.36244 14.663,26.38629 30.6206,50.0493 43.1899,64.04507 16.754,18.65541 27.3556,32.26653 45.2073,58.04084 13.3765,19.31288 19.5707,27.55703 25.7108,34.21959 l 3.8693,4.19847 4.3204,-4.86561 c 4.1184,-4.63808 12.1778,-16.86381 36.6312,-55.56795 6.0275,-9.54004 19.9105,-30.85504 30.8511,-47.36666 23.3973,-35.31105 35.853,-55.84015 47.3584,-78.05492 2.2804,-4.4031 6.0653,-10.97519 8.4109,-14.60465 2.3456,-3.62946 4.2647,-7.09661 4.2647,-7.70477 0,-0.60816 2.343,-4.84367 5.2066,-9.41225 5.3158,-8.48098 25.5833,-44.31748 35.2592,-62.34452 2.9541,-5.50387 10.195,-18.11274 16.0908,-28.01971 5.8958,-9.90697 13.7453,-23.72164 17.4433,-30.69926 10.8877,-20.54373 26.5963,-45.33367 28.3375,-44.71987 0.9116,0.32132 1.3006,-0.2161 0.9042,-1.24905 -1.1327,-2.95186 5.2742,-13.71613 30.3579,-51.00439 6.5099,-9.67732 11.8362,-17.97789 11.8362,-18.44571 0,-0.46782 3.2641,-5.18767 7.2537,-10.48856 3.9896,-5.30088 15.7728,-23.11869 26.185,-39.59513 23.1492,-36.63166 33.4699,-52.15872 39.7877,-59.85903 2.6557,-3.23673 7.5304,-9.91415 10.8327,-14.8387 8.863,-13.21686 16.108,-22.64018 17.4066,-22.64018 0.6297,0 3.0045,-2.70263 5.2771,-6.00586 5.3278,-7.74364 9.921,-12.67395 11.8074,-12.67395 0.8224,0 2.8551,-2.04031 4.5169,-4.53403 6.2234,-9.3386 18.9902,-26.8696 20.5041,-28.15564 1.3842,-1.17582 10.3453,-12.7023 18.7485,-24.11582 10.1437,-13.77749 17.2184,-22.96315 19.5934,-25.43966 2.9842,-3.1118 1.6829,-3.3413 16.3179,2.87807 2.6188,1.11293 5.313,1.68272 5.9869,1.2662 0.674,-0.41652 2.5841,0.52004 4.2448,2.08125 1.6606,1.56121 6.0215,4.28236 9.6907,6.04699 3.9562,1.90263 8.0289,5.18619 10.007,8.06797 5.4682,7.96618 11.6138,18.07121 15.7394,25.87932 7.2651,13.75026 16.6276,28.0004 35.5036,54.03802 18.4,25.38095 27.0425,39.14782 51.514,82.05774 5.7235,10.03599 16.2151,27.88108 21.9975,37.41532 13.3062,21.94013 28.6868,48.85625 28.6868,50.20225 0,0.52315 6.2663,13.59614 13.9252,29.05108 7.6588,15.45493 15.1367,31.20466 16.6174,34.9994 1.4807,3.79473 8.3458,18.50508 15.2559,32.68966 11.7229,24.06419 26.2912,54.33711 33.6,69.82114 1.732,3.66925 6.7503,14.32675 11.1518,23.68333 7.1005,15.09424 8.3771,17.01197 11.3242,17.01197 2.0968,0 5.3443,2.00263 8.8072,5.43106 4.8711,4.82269 5.3918,5.93136 4.6477,9.89747 -0.7408,3.94865 -0.4794,4.51779 2.255,4.90956 4.3375,0.62145 6.2054,9.91739 3.4011,16.92613 -2.2557,5.63753 -2.107,6.2241 6.8818,27.14638 3.0579,7.11762 5.5599,13.26821 5.5599,13.66799 0,0.39978 2.7019,6.47071 6.0042,13.49096 3.3023,7.02026 6.0042,13.24836 6.0042,13.84024 0,1.48004 13.5556,35.63918 19.6299,49.46578 1.1283,2.56848 3.4173,8.5727 5.0865,13.34273 1.6692,4.77002 6.7425,19.18016 11.2741,32.02253 4.5315,12.84237 11.714,33.55691 15.9611,46.03241 4.2471,12.4754 10.4652,29.3641 13.818,37.5303 5.6682,13.8058 8.7988,20.7039 22.4427,49.4518 2.8527,6.0107 5.1868,11.2877 5.1868,11.7266 0,0.439 2.0811,5.4281 4.6246,11.0869 2.5436,5.6589 7.6772,18.6948 11.4081,28.9687 3.7308,10.2739 7.3099,19.8806 7.9533,21.3483 1.5832,3.6111 19.9849,50.6007 25.3421,64.7122 2.3681,6.2378 5.7475,15.0463 7.5098,19.5746 1.7624,4.5282 3.2043,8.6561 3.2043,9.173 0,0.5169 1.4702,4.3173 3.2671,8.4452 1.797,4.128 6.2976,15.7071 10.0015,25.7315 5.7779,15.6375 15.8213,38.9612 20.1685,46.8372 0.7142,1.2939 1.6563,5.7971 2.0935,10.0071 l 0.7949,7.6544 -5.4089,4.3364 c -2.9749,2.385 -6.0446,4.3364 -6.8215,4.3364 -0.7769,0 -1.4125,1.2008 -1.4125,2.6685 0,1.9203 -0.8895,2.6686 -3.1723,2.6686 -1.7448,0 -3.9964,0.9958 -5.0035,2.2128 -2.8182,3.4056 -11.9804,7.0872 -17.1754,6.9016 -2.5684,-0.092 -7.9722,-0.5916 -12.0084,-1.1107 z m -15.276,-60.7075 c 0.062,-3.6531 -3.1998,-13.9528 -8.2578,-26.0738 -1.0845,-2.599 -2.1451,-5.6011 -2.3567,-6.6713 -0.4772,-2.4124 -3.092,-9.2695 -4.5581,-11.953 -0.6014,-1.1008 -2.4433,-6.5046 -4.0931,-12.0084 -1.6499,-5.5039 -3.8152,-11.8083 -4.8118,-14.0099 -2.3386,-5.166 -5.07,-11.8229 -7.9381,-19.3469 -1.2589,-3.3024 -3.2139,-7.8055 -4.3445,-10.0071 -1.1307,-2.2015 -3.1812,-7.2398 -4.5567,-11.1961 -1.3756,-3.9563 -2.9949,-7.859 -3.5984,-8.6727 -0.6036,-0.8138 -2.1765,-5.0821 -3.4953,-9.4852 -1.3189,-4.4031 -3.5045,-10.4073 -4.8571,-13.3427 -7.4354,-16.1371 -10.4129,-23.3192 -12.0309,-29.0204 -0.9893,-3.4858 -2.193,-6.3378 -2.6749,-6.3378 -0.4819,0 -1.2638,-1.9514 -1.7376,-4.3364 -0.4738,-2.385 -4.4516,-11.6079 -8.8395,-20.4953 -4.388,-8.8874 -7.9782,-16.8285 -7.9782,-17.6468 0,-0.8184 -1.1986,-3.4539 -2.6635,-5.8566 -1.465,-2.4028 -2.6658,-5.4194 -2.6686,-6.7036 0,-1.2843 -0.4553,-2.3419 -1.0057,-2.3503 -1.024,-0.016 -2.9756,-3.9086 -9.0224,-17.9974 -1.8898,-4.4031 -4.2411,-9.5067 -5.2251,-11.3413 -0.9841,-1.8346 -2.2111,-5.4371 -2.7268,-8.0056 -0.5157,-2.5685 -1.9941,-7.0717 -3.2852,-10.0071 -1.2912,-2.9354 -3.4077,-8.9396 -4.7033,-13.3427 -1.2956,-4.4031 -2.8193,-8.606 -3.3861,-9.3399 -0.5667,-0.7338 -1.4763,-3.416 -2.0213,-5.9604 -0.545,-2.5444 -1.6087,-5.8467 -2.3638,-7.3385 -0.7551,-1.4918 -1.9702,-3.9 -2.7002,-5.3515 -0.7299,-1.4515 -3.3041,-8.6566 -5.7203,-16.01124 -5.6278,-17.13006 -13.3091,-38.40523 -15.0151,-41.58778 -0.729,-1.35994 -2.9402,-6.67559 -4.9139,-11.81253 -1.9737,-5.13695 -4.4579,-11.46636 -5.5205,-14.06536 -1.0625,-2.599 -2.064,-5.6258 -2.2255,-6.72622 -0.1615,-1.10042 -1.6278,-4.26199 -3.2585,-7.0257 -1.6306,-2.76371 -2.9647,-5.8558 -2.9647,-6.87132 0,-1.01552 -0.6005,-2.21748 -1.3343,-2.67102 -0.7339,-0.45355 -1.3343,-1.91671 -1.3343,-3.25148 0,-1.33477 -1.0142,-4.75177 -2.2539,-7.59332 -1.2396,-2.84156 -2.3187,-5.46668 -2.3979,-5.83361 -0.6198,-2.87125 -7.692,-14.67699 -8.7921,-14.67699 -0.7648,0 -1.052,-0.54779 -0.6382,-1.21732 0.4138,-0.66952 -1.084,-5.92322 -3.3283,-11.67488 -8.0361,-20.59396 -8.418,-21.01376 -18.2195,-20.02556 -4.2536,0.42887 -14.6388,1.03058 -23.078,1.33714 -19.3504,0.7029 -26.5558,1.58191 -32.2049,3.92875 -7.0137,2.91372 -23.8736,1.83028 -36.2689,-2.33069 -10.3026,-3.45849 -12.2108,-4.73678 -25.4503,-17.0489 -3.7474,-3.48489 -7.7141,-6.65659 -8.8149,-7.04823 -2.1661,-0.77065 -4.8041,-4.3697 -13.4172,-18.30457 -3.0617,-4.95349 -6.0787,-9.00634 -6.7044,-9.00634 -0.6258,0 -3.1846,-2.04684 -5.6863,-4.54853 -3.4883,-3.48833 -5.5274,-4.48075 -8.7482,-4.25777 -7.6126,0.52703 -9.6632,5.17741 -7.5882,17.20924 1.3194,7.65057 -1.0256,21.31246 -4.5076,26.26117 -1.3013,1.84945 -2.8191,4.8637 -3.3729,6.69833 -1.5364,5.0896 -13.4035,20.54654 -21.0593,27.42981 -12.0253,10.81173 -17.2077,12.51177 -32.9891,10.82168 -4.0361,-0.43226 -9.4399,-0.81106 -12.0084,-0.84179 -5.2449,-0.0627 -13.023,-6.22495 -30.378,-24.06698 -9.3051,-9.56619 -30.9736,-39.64855 -31.0213,-43.06682 -0.036,-2.554 -7.1617,-13.73258 -8.65,-13.56915 -2.5103,0.27564 -14.6713,6.60478 -21.2811,11.07571 -11.4173,7.72267 -23.7911,12.21459 -34.7583,12.61787 -6.2941,0.23145 -13.0527,-0.48202 -12.2424,-1.29236 1.1877,-1.18771 -1.772,-4.61382 -3.2152,-3.72187 -1.3543,0.83702 -7.4328,-2.74377 -11.2847,-6.64777 -3.381,-3.42668 -11.2818,-14.86338 -11.2919,-16.3454 -0.027,-3.96569 -3.0927,-11.10091 -4.7696,-11.10091 -2.6918,0 -14.2805,5.96913 -22.3043,11.48857 -3.6162,2.48748 -7.258,4.53605 -8.093,4.55236 -0.835,0.0163 -3.0192,1.20382 -4.8538,2.63888 -1.8346,1.43506 -5.0263,2.62256 -7.0927,2.63888 -2.0663,0.0163 -5.0211,0.70622 -6.5661,1.53311 -3.2795,1.75514 -15.3579,1.75538 -17.5356,3.5e-4 -0.8224,-0.66275 -4.7976,-1.62958 -8.8338,-2.14851 -7.4554,-0.95855 -11.4635,-2.81323 -16.1004,-7.45013 -5.9096,-5.9096 -8.6514,-3.32986 -19.9482,18.76902 -3.1887,6.23772 -6.8135,12.84237 -8.0551,14.677 -1.2416,1.83462 -8.1159,14.7437 -15.2762,28.68685 -14.8305,28.87912 -25.556,47.05831 -48.1703,81.64608 -8.7285,13.3498 -20.3731,31.52015 -25.8769,40.37855 -5.5039,8.85839 -16.2689,25.85547 -23.9222,37.7713 -13.9031,21.6462 -28.8596,48.3153 -30.3201,54.064 -0.8085,3.1819 -12.0445,11.8299 -14.6283,11.2589 -0.8194,-0.181 -2.2006,0.5272 -3.0693,1.574 -2.0314,2.4476 -18.0242,1.3642 -22.4249,-1.5191 -1.6597,-1.0875 -4.373,-1.6462 -6.0295,-1.2416 -1.6652,0.4069 -4.1887,-0.1377 -5.644,-1.218 -14.056,-10.4334 -43.9604,-40.2413 -56.0758,-55.895 -11.4027,-14.7328 -18.7405,-24.60312 -23.4919,-31.59993 -3.1451,-4.63125 -6.4689,-7.99499 -8.2361,-8.33487 -1.6297,-0.31343 -10.7685,-1.5229 -20.3086,-2.68773 -9.54,-1.16482 -20.3465,-2.64409 -24.0143,-3.28726 -9.2754,-1.62647 -18.2225,0.89011 -24.4581,6.87944 -2.6941,2.58776 -8.2008,6.08961 -12.2369,7.78189 -4.0362,1.69229 -7.488,3.40336 -7.6707,3.80239 -0.7144,1.56069 -27.8188,-0.1564 -31.892,-2.02039 -2.3125,-1.05823 -4.6456,-1.92405 -5.1848,-1.92405 -0.5391,0 -6.1524,-3.72947 -12.4739,-8.28772 -12.7173,-9.17008 -18.2811,-10.68536 -22.422,-6.10651 -3.013,3.33177 -11.4698,7.72287 -14.8734,7.72287 -1.4071,0 -3.3042,0.89871 -4.2158,1.99714 -1.6008,1.92881 -3.0935,2.06493 -25.0367,2.28317 -7.6971,0.0765 -15.5931,-5.06296 -16.0308,-10.43439 -0.5286,-6.48864 -5.7939,-20.67587 -7.9855,-21.51686 -2.7169,-1.04259 -6.5622,3.78184 -8.3724,10.50418 -0.7795,2.89478 -3.189,8.26817 -5.3545,11.94086 -2.1655,3.67268 -3.9372,7.51638 -3.9372,8.54155 0,1.02517 -0.5114,2.17999 -1.1364,2.56626 -0.625,0.38627 -2.218,3.57392 -3.54,7.08367 -1.322,3.50975 -4.8137,10.58429 -7.7592,15.72129 -8.3192,14.5086 -13.7821,25.0363 -14.8855,28.6868 -0.5546,1.8347 -2.3353,5.137 -3.9571,7.3385 -1.6218,2.2016 -5.5238,8.8062 -8.6711,14.677 -3.1472,5.8708 -6.1881,11.2746 -6.7575,12.0085 -0.5693,0.7338 -5.6727,9.44 -11.341,19.3469 -5.6682,9.907 -12.4844,21.0148 -15.1472,24.6841 -13.9406,19.21 -33.7434,44.078 -43.6557,54.822 -6.1526,6.6689 -12.9281,14.3167 -15.0565,16.9949 -2.1284,2.6783 -5.5928,6.5586 -7.6985,8.623 -4.1971,4.1146 -6.057,6.3471 -15.3036,18.3702 -3.4176,4.4438 -8.088,10.1315 -10.3786,12.6393 -2.2905,2.5079 -4.1647,4.9374 -4.1647,5.3988 0,0.4615 -1.6511,2.6007 -3.6692,4.7537 -12.4451,13.2776 -34.3771,44.1473 -41.1061,57.8577 -8.7406,17.809 -8.6462,17.5772 -8.9703,22.0155 l -0.2924,4.0028 8.0057,-0.1266 c 4.4031,-0.07 13.4094,-0.4913 20.014,-0.937 6.6047,-0.4458 17.4123,-1.1783 24.0169,-1.6279 6.6047,-0.4495 12.8334,-1.0883 13.8416,-1.4194 1.0083,-0.3312 35.8328,-0.4573 77.3878,-0.2802 116.1538,0.495 122.3259,0.4664 162.9494,-0.7556 67.5696,-2.0324 188.5237,-2.9345 208.8136,-1.5572 73.4388,4.9849 105.4349,7.2674 126.0886,8.9948 19.1102,1.5983 38.6505,1.7085 184.7967,1.0418 64.0944,-0.2924 81.662,0.1009 138.7642,3.1059 63.5228,3.343 81.7852,4.0999 134.7615,5.5856 13.9431,0.391 35.5583,1.2945 48.0338,2.0077 28.0214,1.6019 151.0491,2.3447 212.1492,1.2808 31.5145,-0.5487 52.4943,-0.261 68.715,0.9422 47.0401,3.4893 55.4252,4.0539 58.0408,3.908 2.0259,-0.113 2.685,-1.1129 2.7367,-4.1517 z M 2014.8812,932.27759 c 4.4636,-5.37837 17.31,-11.13332 29.3072,-13.12918 2.5924,-0.43126 10.548,-0.83091 17.6791,-0.88811 7.234,-0.058 12.9658,-0.6648 12.9658,-1.37259 0,-1.98273 -6.4595,-14.23417 -8.0102,-15.19253 -0.7642,-0.47232 -3.2615,-4.56766 -5.5495,-9.10076 -2.2881,-4.5331 -5.504,-10.04327 -7.1465,-12.24482 -2.4615,-3.29929 -14.4711,-23.73253 -23.3096,-39.65915 -9.9567,-17.94154 -20.257,-33.17783 -35.4281,-52.40563 -4.0531,-5.13695 -9.2804,-11.91087 -11.6163,-15.05315 -2.3358,-3.14229 -5.1225,-5.54398 -6.1927,-5.33709 -1.8286,0.35348 -13.461,26.66732 -18.4512,41.73859 -1.2149,3.66925 -3.8983,9.54979 -5.9632,13.06787 -2.0649,3.51808 -3.7543,7.00102 -3.7543,7.73986 0,0.73885 -2.3383,5.96612 -5.1962,11.61617 -2.858,5.65005 -7.1361,14.47577 -9.507,19.61272 -2.3709,5.13695 -7.2377,15.40983 -10.815,22.82862 -3.5774,7.4188 -6.5043,14.83741 -6.5043,16.4858 0,1.64839 1.4853,4.76221 3.3006,6.91959 1.8153,2.15739 3.9255,6.24336 4.6893,9.07992 1.3162,4.88793 1.6491,5.14474 6.3729,4.91531 2.7413,-0.13315 6.1897,-0.92352 7.6631,-1.7564 6.868,-3.88215 17.7594,-5.50004 28.7489,-4.27055 12.435,1.39122 13.2693,1.7459 22.3601,9.50571 3.6909,3.15046 9.2711,7.02843 12.4006,8.61773 5.9447,3.01903 8.3068,2.67964 11.9565,-1.71793 z m 694.5139,-120.03554 c 3.9726,-4.06899 7.2229,-8.00541 7.2229,-8.7476 0,-0.7422 1.8013,-4.97992 4.0028,-9.41717 3.2136,-6.47709 4.0107,-9.81642 4.043,-16.93713 0.032,-7.06014 0.9235,-10.85338 4.3707,-18.59522 6.2548,-14.04747 12.9377,-20.51046 24.4337,-23.62989 20.8519,-5.65811 31.8922,-2.54591 49.1588,13.85748 5.1086,4.85322 11.347,11.4912 13.8632,14.75106 2.5161,3.25986 5.0642,6.56219 5.6624,7.3385 0.5982,0.77631 3.9665,4.6268 7.4852,8.55665 14.4192,16.10431 22.5621,18.33939 49.0942,13.47558 16.6449,-3.0513 20.1221,-3.44468 33.1978,-3.75571 l 7.8467,-0.18664 -0.7522,-4.635 c -0.4137,-2.54925 -1.543,-6.05337 -2.5095,-7.78692 -4.6614,-8.36021 -13.0987,-26.50573 -13.0987,-28.17032 0,-1.63144 -13.0822,-29.22736 -17.8664,-37.68778 -1.7299,-3.05919 -3.8128,-7.26215 -4.6287,-9.3399 -0.8158,-2.07775 -2.0794,-4.67836 -2.808,-5.77914 -2.2148,-3.34635 -9.388,-19.50197 -9.388,-21.144 0,-0.84624 -0.5773,-1.53862 -1.2829,-1.53862 -0.7055,0 -1.9288,-2.5518 -2.7183,-5.67066 -0.7895,-3.11886 -2.6047,-7.77214 -4.0337,-10.34061 -2.6197,-4.70866 -6.9855,-13.44196 -7.337,-14.67699 -0.1044,-0.36693 -0.693,-2.46451 -1.3079,-4.66129 -0.615,-2.19679 -2.6947,-6.69996 -4.6216,-10.00705 -1.927,-3.30708 -4.6258,-9.01499 -5.9973,-12.68424 -1.3716,-3.66925 -4.1694,-9.67348 -6.2173,-13.34272 -2.048,-3.66925 -6.6402,-12.37538 -10.2049,-19.34695 -8.4896,-16.6031 -14.7046,-27.84858 -17.8117,-32.2285 -1.3819,-1.94791 -2.5125,-3.99683 -2.5125,-4.55315 0,-0.55631 -1.9513,-4.04216 -4.3363,-7.74632 -2.3851,-3.70417 -4.9369,-7.75987 -5.6707,-9.01268 -2.4513,-4.18476 -9.4603,-16.36674 -17.9429,-31.18563 -4.6208,-8.07235 -10.8798,-18.87995 -13.9091,-24.0169 -3.0292,-5.13695 -6.4082,-11.16416 -7.509,-13.39381 -1.1008,-2.22964 -3.3524,-5.92486 -5.0035,-8.2116 -1.6512,-2.28674 -3.0021,-4.57048 -3.0021,-5.07498 0,-0.5045 -1.2269,-2.51329 -2.7264,-4.46398 -1.4995,-1.95069 -4.8557,-6.76269 -7.4581,-10.69334 -2.6025,-3.93065 -7.68,-10.80543 -11.2835,-15.27729 -3.6035,-4.47186 -6.5532,-8.76116 -6.5549,-9.53177 0,-0.77061 -1.7528,-3.4483 -3.8913,-5.95041 -2.1385,-2.50212 -4.6889,-6.10465 -5.6675,-8.00564 -0.9787,-1.90098 -2.7834,-4.57014 -4.0105,-5.93146 -1.2272,-1.36132 -2.9295,-4.16109 -3.7831,-6.22171 -0.9385,-2.26572 -2.9572,-4.10455 -5.1073,-4.65227 -2.9733,-0.75741 -4.1016,-0.19271 -6.8911,3.44914 -1.8347,2.39516 -6.074,7.40376 -9.4207,11.13022 -3.3468,3.72646 -12.028,14.28067 -19.2916,23.45379 -7.2636,9.17312 -18.1713,22.60025 -24.2394,29.83806 -6.0681,7.23781 -14.1987,18.20863 -18.068,24.37959 -3.8694,6.17096 -13.9428,21.2639 -22.3853,33.53987 -15.2163,22.12536 -23.6812,35.08106 -36.3776,55.67673 -3.6191,5.8708 -12.1309,18.47967 -18.9152,28.01972 -9.7872,13.76286 -29.4616,44.10791 -36.7661,56.70657 -22.5491,38.89216 -32.2174,57.87675 -28.8088,56.56877 2.3507,-0.90206 3.7458,4.38776 4.1262,15.64578 0.1642,4.86015 0.6733,9.44298 1.1313,10.18407 0.458,0.74109 -0.3277,4.7202 -1.7459,8.84247 -1.6627,4.83277 -2.0526,7.49505 -1.0976,7.49505 0.8146,0 6.828,-2.74124 13.3633,-6.09163 16.9197,-8.67424 35.2479,-15.48229 41.6225,-15.46076 8.5553,0.0289 21.1165,6.44765 24.7791,12.66207 1.3681,2.3212 4.0992,5.79377 6.0691,7.71682 2.4626,2.4039 3.7826,5.32238 4.2244,9.3399 0.7936,7.21611 2.2509,8.98589 5.6507,6.86264 1.3937,-0.87039 6.032,-3.04507 10.3073,-4.83261 38.0142,-15.89411 38.6724,-16.04991 50.2592,-11.89672 6.1644,2.20959 8.4829,4.31352 18.3826,16.68117 3.6178,4.51977 12.0635,20.56964 13.8552,26.32996 0.5618,1.80624 3.4925,7.41979 6.5127,12.47455 5.8758,9.83404 21.9577,24.93667 26.5537,24.93667 1.3851,0 5.7688,-3.32918 9.7414,-7.39817 z"
       id="path19" />
  </g>
</svg>
