<?xml version="1.0" encoding="UTF-8" standalone="no"?>
<!-- Created with Inkscape (http://www.inkscape.org/) -->

<svg
   version="1.1"
   id="svg1"
   width="1541.4319"
   height="1632.6232"
   viewBox="0 0 1541.4319 1632.6233"
   sodipodi:docname="mountain.svg"
   inkscape:version="1.4.3 (0d15f75, 2025-12-25)"
   inkscape:export-batch-name="doodles"
   inkscape:export-batch-path="C:\Users\Kjmut\Downloads\doodles"
   xmlns:inkscape="http://www.inkscape.org/namespaces/inkscape"
   xmlns:sodipodi="http://sodipodi.sourceforge.net/DTD/sodipodi-0.dtd"
   xmlns="http://www.w3.org/2000/svg"
   xmlns:svg="http://www.w3.org/2000/svg">
  <sodipodi:namedview
     id="namedview1"
     pagecolor="#505050"
     bordercolor="#eeeeee"
     borderopacity="1"
     inkscape:showpageshadow="0"
     inkscape:pageopacity="0"
     inkscape:pagecheckerboard="0"
     inkscape:deskcolor="#505050"
     inkscape:zoom="0.36251647"
     inkscape:cx="2884.0069"
     inkscape:cy="1148.9133"
     inkscape:window-width="1920"
     inkscape:window-height="1051"
     inkscape:window-x="-9"
     inkscape:window-y="-9"
     inkscape:window-maximized="1"
     inkscape:current-layer="g2" />
  <defs
     id="defs1" />
  <g
     id="g12"
     inkscape:groupmode="layer"
     inkscape:label="12"
     transform="translate(-22440.303,-339.14499)">
    <path
       style="fill:#000000"
       d="m 23138.68,1969.1295 c -67.612,-4.6885 -95.946,-7.164 -98.243,-8.5833 -0.738,-0.456 -6.175,-0.7974 -12.084,-0.7587 -6.973,0.046 -17.145,-1.2786 -28.99,-3.7744 -10.035,-2.1146 -24.818,-4.7724 -32.85,-5.9061 -8.032,-1.1337 -16.696,-2.6732 -19.254,-3.421 -2.558,-0.7479 -11.543,-2.6123 -19.966,-4.1431 -21.486,-3.9049 -48.361,-14.1606 -94.423,-36.0333 -6.039,-2.8674 -11.64,-5.2135 -12.446,-5.2135 -3.695,0 -19.925,-7.6037 -25.996,-12.1785 -3.701,-2.7897 -8.913,-5.9843 -11.582,-7.0992 -2.668,-1.1149 -5.249,-2.6712 -5.736,-3.4585 -0.486,-0.7873 -4.279,-3.0051 -8.429,-4.9285 -4.149,-1.9234 -9.326,-4.7239 -11.503,-6.2232 -2.177,-1.4994 -7.28,-4.3118 -11.339,-6.2499 -4.06,-1.9381 -10.67,-5.7066 -14.689,-8.3745 -4.019,-2.6679 -7.762,-4.8508 -8.318,-4.8508 -2.101,0 -15.272,-8.6368 -20.395,-13.3741 -34.543,-31.9453 -94.253,-95.4725 -99.778,-106.1555 -1.102,-2.131 -5.055,-7.176 -8.784,-11.211 -8.316,-8.9971 -22.144,-27.7074 -23.398,-31.6602 -0.508,-1.5991 -2.624,-4.3386 -4.702,-6.0876 -3.555,-2.9909 -7.853,-8.7735 -14.133,-19.014 -1.493,-2.4331 -3.696,-5.5151 -4.898,-6.8489 -1.201,-1.3338 -3.749,-5.4267 -5.662,-9.0954 -1.913,-3.6687 -5.935,-10.5726 -8.938,-15.3419 -7.818,-12.4166 -12.528,-20.6957 -17.837,-31.3508 -2.559,-5.1362 -6.565,-12.293 -8.904,-15.9039 -4.82,-7.4439 -18.498,-37.9338 -27.278,-60.8055 -7.537,-19.633 -14.189,-42.5901 -17.008,-58.6994 -1.22,-6.9706 -2.765,-15.3753 -3.433,-18.6771 -0.668,-3.3019 -1.576,-9.005 -2.016,-12.6737 -0.441,-3.6688 -1.658,-10.8728 -2.704,-16.009 -1.047,-5.1362 -2.593,-14.4414 -3.436,-20.6782 -0.843,-6.2368 -2.084,-14.9416 -2.76,-19.3441 -0.675,-4.4024 -1.53,-12.8071 -1.901,-18.6771 -0.37,-5.8699 -0.898,-13.6742 -1.173,-17.343 -0.508,-6.7765 -0.766,-29.255 -0.817,-71.3731 -0.02,-12.8405 -0.07,-24.8472 -0.113,-26.6815 -0.05,-1.8344 0.129,-9.4822 0.389,-16.9951 0.349,-10.0579 0.03,-13.8285 -1.194,-14.2995 -2.096,-0.8036 -2.222,-15.6227 -0.267,-31.407 0.772,-6.2369 1.963,-15.8422 2.647,-21.3453 1.698,-13.6725 11.954,-68.1898 13.335,-70.8783 0.613,-1.1954 2.12,-8.0993 3.348,-15.3419 1.228,-7.2427 2.52,-13.6451 2.872,-14.2275 0.352,-0.5825 -0.06,-1.9084 -0.926,-2.9465 -3.649,-4.396 6.852,-72.70144 15.278,-99.38548 1.042,-3.30184 2.837,-9.23069 3.987,-13.17523 3.311,-11.35093 15.012,-43.46877 18.899,-51.87449 1.947,-4.21161 5.304,-11.43022 7.46,-16.04136 4.745,-10.1512 28.505,-49.70461 37.48,-62.39338 2.048,-2.89582 10.453,-15.59934 18.677,-28.23005 12.081,-18.55462 33.143,-50.79611 44.97,-68.84212 1.1,-1.67932 4.402,-6.79619 7.337,-11.37082 2.935,-4.57463 11.34,-17.38399 18.677,-28.46526 7.338,-11.08126 13.941,-21.11438 14.675,-22.29582 0.734,-1.18144 1.697,-2.44823 2.139,-2.8151 0.443,-0.36688 4.045,-5.18047 8.005,-10.69688 3.959,-5.51641 11.816,-16.02227 17.46,-23.34635 5.643,-7.32408 15.819,-20.82069 22.613,-29.99247 15.441,-20.84645 41.144,-46.14469 71.184,-70.06409 3.669,-2.92119 6.971,-5.63063 7.338,-6.02096 3.993,-4.24907 94.419,-65.12673 122.735,-82.62903 5.503,-3.40156 15.108,-9.53846 21.345,-13.63755 19.817,-13.02471 94.871,-49.7431 123.814,-60.57318 35.073,-13.12387 39.17,-13.80915 68.162,-11.40294 l 11.208,0.93026 7.258,7.96868 c 8.976,9.8564 10.72,13.8763 9.646,22.24266 -0.694,5.41131 -0.219,7.66618 2.968,14.096 3.591,7.24492 3.711,8.04651 2.25,14.98959 -0.848,4.03445 -1.534,8.5361 -1.524,10.00367 0.01,1.69376 -1.959,3.88636 -5.397,6.00334 -2.979,1.83427 -23.259,21.04491 -45.065,42.69031 -40.343,40.04406 -49.681,51.02173 -69.506,81.71304 -7.415,11.4795 -25.998,48.22494 -31.541,62.36728 -2.156,5.50307 -5.712,14.50809 -7.901,20.01115 -9.808,24.65655 -24.846,68.85822 -32.453,95.38651 -10.286,35.8724 -24.075,107.89307 -28.608,149.41662 -4.097,37.52756 -3.781,104.68657 0.62,132.07365 5.048,31.4087 7.197,40.1587 17.529,71.3731 14.72,44.4712 21.118,60.0932 38.247,93.3854 6.984,13.5742 13.612,26.4814 14.728,28.6826 2.585,5.0977 10.649,17.6416 14.212,22.108 1.505,1.887 4.238,5.4318 6.072,7.8772 1.835,2.4454 4.966,6.6047 6.959,9.2428 1.993,2.6381 5.595,7.4213 8.005,10.6292 4.352,5.7951 8.22,10.5197 19.722,24.0924 3.302,3.8962 6.604,8.1709 7.338,9.4993 5.819,10.5356 68.858,77.0401 82.78,87.331 2.898,2.1419 7.436,5.7156 10.085,7.9415 9.679,8.1318 20.906,16.7209 21.857,16.7209 0.537,0 2.86,1.552 5.161,3.4489 11.156,9.1927 20.658,15.0178 41.104,25.197 22.616,11.2601 31.778,14.9278 48.463,19.4017 46.777,12.5429 68.36,18.7711 80.711,23.2909 10.883,3.9824 45.862,12.9732 54.757,14.0745 8.543,1.0577 21.944,3.627 37.962,7.2785 25.884,5.9007 31.871,6.5378 61.367,6.5308 125.697,-0.03 140.763,-0.5278 198.111,-6.5476 46.869,-4.9199 63.576,-7.2702 75.375,-10.603 5.87,-1.6581 12.006,-3.3321 13.635,-3.7199 1.63,-0.3878 8.834,0.1866 16.009,1.2766 10.811,1.642 15.79,1.7158 29.055,0.4306 8.805,-0.853 19.961,-2.3766 24.791,-3.3856 4.831,-1.0091 14.071,-2.4918 20.534,-3.2949 14.076,-1.7492 17.635,-3.1366 30.891,-12.0414 9.829,-6.6029 18.801,-9.6488 28.509,-9.6781 8.216,-0.025 19.534,5.8444 29.132,15.1062 5.209,5.0261 9.751,10.5203 10.094,12.2095 1.932,9.5169 1.857,13.7675 -0.346,19.5582 -4.438,11.6654 -21.377,38.0823 -36.1,56.2995 -2.111,2.6117 -8.379,12.2171 -13.93,21.3452 -5.55,9.1281 -11.323,18.0974 -12.829,19.9317 -1.506,1.8344 -4.473,5.7366 -6.594,8.6715 -16.158,22.3595 -66.123,81.3616 -84.166,99.3888 -5.507,5.5031 -18.984,18.4102 -29.947,28.6826 -10.963,10.2724 -23.567,22.0896 -28.007,26.2604 -4.441,4.1708 -10.279,9.2736 -12.973,11.3396 -2.694,2.0661 -8.398,6.433 -12.674,9.7043 -4.276,3.2714 -11.161,8.9746 -15.3,12.6738 -7.311,6.534 -9.719,8.4067 -25.159,19.571 -4.036,2.918 -12.741,9.4542 -19.345,14.525 -43.498,33.4014 -74.03,51.8011 -116.064,69.9451 -2.935,1.2668 -11.94,5.5223 -20.011,9.4566 -13.609,6.6335 -34.195,15.14 -42.024,17.3646 -1.834,0.5213 -5.736,2.0514 -8.671,3.4004 -2.935,1.3489 -14.041,5.3942 -24.681,8.9894 -10.639,3.5952 -25.647,8.7618 -33.352,11.4815 -26.833,9.4722 -44.761,15.0985 -55.364,17.3745 -5.87,1.2601 -12.473,2.7879 -14.675,3.3951 -14.562,4.0174 -58.584,9.7432 -102.724,13.3612 -23.534,1.929 -87.7,1.1313 -126.737,-1.5757 z m 134.075,-64.3378 c 12.84,-0.9962 25.896,-1.9045 29.013,-2.0184 3.117,-0.114 7.209,-0.7931 9.092,-1.5092 1.884,-0.7162 6.676,-1.3021 10.649,-1.3021 3.972,0 9.516,-0.9174 12.318,-2.0387 2.803,-1.1213 10.169,-2.5844 16.37,-3.2513 16.06,-1.7274 27.57,-4.4988 35.481,-8.5436 3.775,-1.9302 7.678,-3.52 8.672,-3.5329 1.532,-0.02 14.134,-3.8726 29.823,-9.1168 2.201,-0.7358 8.504,-2.3672 14.007,-3.6252 5.503,-1.258 13.008,-3.5921 16.676,-5.1868 3.669,-1.5947 11.173,-4.3121 16.676,-6.0387 11.606,-3.6413 21.426,-7.724 50.028,-20.8006 17.48,-7.9917 24.971,-11.3607 36.667,-16.4907 17.484,-7.6689 54.605,-29.0677 72.35,-41.7064 8.123,-5.7854 16.033,-11.181 17.578,-11.9902 1.546,-0.8091 4.912,-3.2141 7.48,-5.3444 19.212,-15.9365 24.295,-19.9382 31.404,-24.7233 4.432,-2.983 8.935,-6.4795 10.006,-7.7701 1.071,-1.2906 6.75,-5.8771 12.62,-10.1922 24.103,-17.7182 86.199,-79.6601 122.735,-122.4287 9.765,-11.4309 22.243,-25.9835 25.212,-29.4046 0.956,-1.1006 3.829,-5.3029 6.385,-9.3385 2.557,-4.0356 5.688,-8.1942 6.958,-9.2414 1.271,-1.0471 3.173,-3.5729 4.228,-5.6128 1.055,-2.0399 5.814,-9.2876 10.575,-16.1061 4.761,-6.8185 8.661,-13.6997 8.667,-15.2915 0,-2.7678 -0.209,-2.8176 -4.993,-1.1386 -11.296,3.9646 -35.968,7.3631 -57.032,7.856 -16.917,0.3958 -23.006,1.0585 -29.35,3.1941 -4.402,1.482 -11.006,3.3272 -14.675,4.1003 -6.266,1.3206 -11.746,2.1198 -52.028,7.5875 -8.805,1.1951 -22.013,2.6852 -29.35,3.3112 -7.338,0.6261 -23.547,2.121 -36.02,3.3221 -26.389,2.541 -169.969,4.7096 -185.986,2.8091 -3.367,-0.3995 -12.425,-1.1048 -20.129,-1.5674 -7.704,-0.4625 -14.908,-1.3172 -16.009,-1.8993 -1.101,-0.5821 -7.404,-2.0366 -14.008,-3.2323 -6.603,-1.1958 -14.708,-2.7391 -18.01,-3.4296 -3.302,-0.6906 -11.406,-2.2148 -18.01,-3.3871 -6.604,-1.1724 -16.427,-3.5934 -21.83,-5.38 -5.404,-1.7866 -10.506,-3.2465 -11.34,-3.2442 -2.535,0.01 -37.259,-9.4561 -41.538,-11.3201 -2.201,-0.9589 -6.084,-2.1832 -8.628,-2.7208 -2.544,-0.5375 -5.546,-1.4764 -6.67,-2.0863 -1.125,-0.6099 -6.548,-2.043 -12.051,-3.1848 -9.621,-1.9961 -29.214,-7.51 -46.025,-12.9522 -4.403,-1.4251 -10.106,-3.0902 -12.674,-3.7 -9.731,-2.3109 -60.178,-24.4904 -65.37,-28.7406 -1.1,-0.9009 -4.974,-2.7488 -8.609,-4.1064 -3.634,-1.3575 -9.192,-4.4414 -12.351,-6.8529 -3.16,-2.4116 -6.094,-4.3847 -6.521,-4.3847 -0.427,0 -3.873,-2.5905 -7.659,-5.7567 -3.786,-3.1662 -11.611,-8.6586 -17.389,-12.2054 -5.778,-3.5468 -12.031,-8.1603 -13.895,-10.2522 -1.864,-2.0919 -4.128,-3.8035 -5.031,-3.8035 -0.904,0 -3.418,-2.0224 -5.589,-4.4941 -2.17,-2.4718 -4.906,-5.0314 -6.079,-5.6882 -3.579,-2.003 -25.036,-21.9365 -34.256,-31.8234 -4.78,-5.1264 -13.494,-14.1994 -19.364,-20.1621 -5.87,-5.9627 -13.974,-14.8777 -18.01,-19.8111 -14.802,-18.0952 -16.758,-20.472 -21.011,-25.5257 -2.385,-2.8335 -4.336,-5.7861 -4.336,-6.5614 0,-0.7752 -2.002,-3.4931 -4.449,-6.0398 -2.447,-2.5468 -4.999,-5.6213 -5.67,-6.8324 -0.672,-1.2111 -3.489,-4.8131 -6.26,-8.0045 -7.877,-9.0684 -16.029,-19.6271 -19.239,-24.9174 -1.613,-2.6582 -3.897,-5.5384 -5.075,-6.4002 -1.179,-0.8619 -2.238,-2.8277 -2.354,-4.3684 -0.117,-1.5407 -0.672,-2.8013 -1.235,-2.8013 -0.562,0 -2.18,-2.2513 -3.594,-5.0028 -1.414,-2.7516 -6.079,-8.6955 -10.366,-13.2087 -12.29,-12.938 -14.505,-16.244 -25.923,-38.6911 -15.965,-31.3857 -29.338,-64.703 -40.347,-100.5185 -16.643,-54.1444 -20.945,-79.68406 -21.237,-126.07029 -0.308,-48.84731 0.769,-70.9596 4.493,-92.27411 0.791,-4.52498 1.581,-10.8285 1.757,-14.0078 1.381,-25.05442 13.601,-93.50034 21.517,-120.51119 1.935,-6.60368 4.413,-15.6087 5.508,-20.01115 2.509,-10.09546 16.779,-54.48792 19.759,-61.46774 1.229,-2.87986 3.033,-7.93762 4.008,-11.23946 3.951,-13.38259 11.41,-32.24963 21.36,-54.03012 2.346,-5.13619 4.73,-10.83937 5.298,-12.67373 2.864,-9.26335 21.762,-43.20935 33.42,-60.03346 14.67,-21.17128 25.144,-33.77888 45.078,-54.26446 13.373,-13.74312 19.076,-20.44172 17.398,-20.43734 -4.811,0.0126 -39.29,18.58164 -60.149,32.39399 -11.582,7.66954 -33.065,21.81807 -47.739,31.44117 -14.675,9.6231 -33.286,22.33843 -41.357,28.2563 -8.071,5.91787 -18.943,13.88141 -24.16,17.69676 -9.437,6.90218 -30.671,24.33111 -35.999,29.54868 -1.536,1.50468 -6.585,6.03763 -11.218,10.07321 -11.091,9.65946 -20.959,19.79416 -23.705,24.3469 -1.218,2.0178 -2.632,3.66872 -3.144,3.66872 -0.512,0 -5.718,7.05393 -11.569,15.6754 -5.851,8.62147 -12.483,17.77658 -14.739,20.34467 -2.255,2.5681 -4.858,6.17011 -5.783,8.00447 -0.926,1.83435 -5.002,7.63971 -9.057,12.90079 -10.683,13.85781 -18.505,25.01206 -19.581,27.92106 -0.516,1.39461 -2.933,4.89496 -5.371,7.77857 -2.439,2.88361 -4.435,5.80455 -4.435,6.49097 0,0.68643 -2.701,5.3117 -6.003,10.27838 -3.302,4.96668 -6.003,9.46095 -6.003,9.98727 0,0.52631 -6.004,10.13991 -13.341,21.36354 -7.337,11.22363 -13.341,20.86129 -13.341,21.41703 0,0.55574 -1.501,2.97813 -3.335,5.38309 -1.834,2.40497 -3.335,4.76483 -3.335,5.24414 0,0.47932 -1.695,3.37096 -3.767,6.42588 -2.072,3.05492 -5.868,8.85624 -8.435,12.89183 -2.568,4.03558 -7.026,11.03844 -9.908,15.56191 -2.881,4.52346 -7.34,11.6942 -9.908,15.93496 -2.568,4.24076 -7.221,11.57534 -10.339,16.29907 -3.118,4.72373 -5.67,8.86805 -5.67,9.2096 0,0.34155 -3.206,5.81515 -7.125,12.16356 -16.054,26.00855 -24.056,43.52835 -33.604,73.57714 -1.982,6.23681 -4.116,12.352 -4.742,13.58931 -0.626,1.23731 -2.695,9.00871 -4.597,17.26978 -1.903,8.26106 -3.806,15.58075 -4.229,16.26596 -0.424,0.68522 -1.33,6.12118 -2.014,12.07994 -1.868,16.2772 -3.341,28.3328 -4.91,40.1837 -1.323,9.9942 -2.597,21.72 -5.51,50.695 -0.664,6.6037 -1.86,15.9088 -2.659,20.6782 -0.799,4.7693 -2.056,12.5736 -2.795,17.343 -0.738,4.7693 -2.546,14.9102 -4.016,22.5353 -2.149,11.1407 -2.786,21.0982 -3.245,50.6949 -0.668,43.1217 -0.697,131.8464 -0.05,139.555 0.963,11.3858 8.192,66.2095 10.115,76.7095 0.739,4.0356 2.563,14.2412 4.052,22.6793 1.489,8.438 3.57,18.6437 4.624,22.6793 1.054,4.0356 3.139,12.8262 4.633,19.5346 2.491,11.1855 6.853,24.4062 11.381,34.4955 3.035,6.7615 8.121,18.3721 10.793,24.638 1.398,3.2785 4.171,8.9816 6.161,12.6737 1.99,3.6921 4.611,8.814 5.825,11.3821 2.866,6.068 24.576,42.0687 32.459,53.8262 3.368,5.024 7.325,11.0705 8.792,13.4365 1.468,2.3661 4.619,6.7466 7.004,9.7345 2.385,2.9879 4.336,5.8817 4.336,6.4308 0,0.549 2.566,4.0646 5.703,7.8125 3.137,3.7478 7.342,9.2155 9.344,12.1505 2.003,2.935 5.589,7.8372 7.971,10.8939 2.382,3.0567 8.764,11.4614 14.183,18.6771 5.419,7.2157 11.722,14.9544 14.008,17.1972 2.285,2.2427 11.659,12.1277 20.831,21.9666 21.203,22.7451 41.388,43.1781 44.221,44.765 1.209,0.6769 5.652,4.2325 9.874,7.9012 7.387,6.4186 13.895,10.6716 25.283,16.5224 2.935,1.508 14.341,7.5909 25.347,13.5176 11.006,5.9267 24.514,12.8922 30.017,15.4789 5.503,2.5866 14.808,7.0143 20.678,9.8392 56.11,27.0027 76.994,35.0451 98.691,38.0042 26.882,3.6664 35.326,4.8725 46.723,6.6743 22.378,3.5377 43.572,6.2744 52.696,6.8044 4.77,0.2771 20.378,1.4155 34.686,2.5299 14.308,1.1144 40.123,2.4061 57.366,2.8703 17.243,0.4642 31.579,1.0427 31.859,1.2855 1.073,0.9326 55.288,-0.9119 77.535,-2.6379 z"
       id="path29" />
  </g>
</svg>
