<?xml version="1.0" encoding="UTF-8" standalone="no"?>
<!-- Created with Inkscape (http://www.inkscape.org/) -->

<svg
   version="1.1"
   id="svg1"
   width="373.00604"
   height="494.18384"
   viewBox="0 0 373.00604 494.18389"
   sodipodi:docname="mountain.svg"
   inkscape:version="1.4.3 (0d15f75, 2025-12-25)"
   inkscape:export-batch-name="doodles"
   xmlns:inkscape="http://www.inkscape.org/namespaces/inkscape"
   xmlns:sodipodi="http://sodipodi.sourceforge.net/DTD/sodipodi-0.dtd"
   xmlns="http://www.w3.org/2000/svg"
   xmlns:svg="http://www.w3.org/2000/svg">
  <sodipodi:namedview
     id="namedview1"
     pagecolor="#505050"
     bordercolor="#eeeeee"
     borderopacity="1"
     inkscape:showpageshadow="0"
     inkscape:pageopacity="0"
     inkscape:pagecheckerboard="0"
     inkscape:deskcolor="#505050"
     inkscape:zoom="0.36251647"
     inkscape:cx="2884.0069"
     inkscape:cy="1148.9133"
     inkscape:window-width="1920"
     inkscape:window-height="1051"
     inkscape:window-x="-9"
     inkscape:window-y="-9"
     inkscape:window-maximized="1"
     inkscape:current-layer="g2" />
  <defs
     id="defs1" />
  <g
     id="g3"
     inkscape:groupmode="layer"
     inkscape:label="3"
     transform="translate(-3749.9571,-343.38319)">
    <path
       style="fill:#000000"
       d="m 3799.7895,835.69728 c -2.9389,-1.05879 -8.3492,-1.98031 -12.0229,-2.04784 -3.6736,-0.0675 -8.7833,-0.82801 -11.3549,-1.68996 -7.0001,-2.34632 -16.0085,-8.00185 -16.0202,-10.05752 -0.01,-0.99603 -1.4685,-3.54391 -3.2507,-5.66195 -4.3158,-5.12906 -7.8159,-17.5634 -7.0872,-25.17783 0.6526,-6.8185 4.4793,-21.21187 6.2158,-23.37943 0.6223,-0.77683 1.5788,-3.50049 2.1255,-6.05258 0.5466,-2.55209 2.3114,-6.76009 3.9217,-9.35112 1.6103,-2.59103 4.2309,-7.41611 5.8235,-10.7224 9.2436,-19.18953 30.5658,-36.36098 52.3555,-42.16365 5.7473,-1.53053 14.5548,-2.39811 26.0495,-2.56599 l 17.3664,-0.25362 0.189,-53.98718 c 0.1039,-29.69295 0.2563,-66.51492 0.3386,-81.8266 0.082,-15.31168 -0.081,-28.23626 -0.3617,-28.7213 -0.2813,-0.48504 -0.933,-8.69675 -1.4483,-18.24825 -0.5154,-9.5515 -1.1468,-20.07152 -1.4033,-23.3778 -0.2565,-3.30629 -0.8307,-12.02287 -1.276,-19.37018 -2.2955,-37.87447 -4.8587,-63.10558 -6.7164,-66.11131 -0.7952,-1.28669 -4.6821,-20.33754 -4.6834,-22.95471 0,-3.61655 7.4904,-5.13265 28.1603,-5.69848 10.5942,-0.29001 24.6725,-1.49208 31.285,-2.67128 36.8043,-6.56316 40.0177,-7.23871 86.8319,-18.25477 26.0897,-6.13928 56.8468,-12.06468 62.1181,-11.96715 8.9708,0.16598 14.8305,1.67128 16.4212,4.21844 0.8733,1.39844 2.9032,2.54262 4.5108,2.54262 4.2786,0 6.871,3.28722 7.6506,9.70105 1.2141,9.98891 2.1279,51.04495 2.2816,102.5124 0.2095,70.12755 2.1464,88.82412 17.2986,166.98431 4.2838,22.0971 11.5198,48.54273 14.8062,54.11282 3.3478,5.67408 3.7904,12.43453 2.0498,31.30419 -3.1814,34.48763 -24.2036,63.66253 -55.2934,76.73715 -14.8892,6.26154 -30.0213,4.31876 -46.158,-5.92616 -5.8331,-3.70337 -12.3669,-7.08563 -14.5194,-7.51614 -2.1525,-0.43051 -4.4929,-1.86491 -5.2007,-3.18755 -0.7079,-1.32264 -2.4965,-2.78869 -3.9748,-3.25788 -3.4717,-1.10188 -6.0318,-6.16448 -8.4832,-16.77566 -1.2734,-5.51186 -1.535,-9.33444 -0.7405,-10.81905 0.6758,-1.26265 2.0912,-6.08945 3.1454,-10.72621 3.6979,-16.26453 4.9247,-20.43105 6.6063,-22.43743 0.9328,-1.11296 2.3817,-4.43394 3.2198,-7.37997 3.2268,-11.34289 14.3245,-22.10976 27.3449,-26.52963 3.5012,-1.18851 9.9652,-3.97787 14.3644,-6.19856 4.3991,-2.22069 12.782,-5.18014 18.6285,-6.57655 5.8466,-1.39641 11.2552,-2.92525 12.0192,-3.39743 1.9917,-1.23091 1.7172,-5.26163 -1.1847,-17.39926 -1.4053,-5.87785 -2.9219,-13.39214 -3.3702,-16.69843 -0.4482,-3.30629 -1.3675,-8.71658 -2.0427,-12.02287 -3.5379,-17.32251 -5.4372,-28.50135 -6.582,-38.74036 -0.6983,-6.24521 -1.8352,-12.85779 -2.5264,-14.69462 -2.5551,-6.79023 -4.3798,-49.17996 -4.8303,-112.21345 -0.2546,-35.63445 -1.0258,-66.59334 -1.7137,-68.79754 -1.0186,-3.26381 -2.0867,-4.08879 -5.7552,-4.44494 -2.4774,-0.24053 -6.9464,0.17959 -9.931,0.93359 -2.9845,0.75401 -9.6345,2.07597 -14.7776,2.93769 -5.1431,0.86172 -12.0563,2.36565 -15.3626,3.34207 -5.385,1.59029 -21.7155,5.27282 -28.7213,6.47665 -1.4694,0.2525 -8.6832,1.75742 -16.0305,3.34426 -17.702,3.82322 -39.5338,7.75888 -56.7746,10.23487 -22.3752,3.21334 -20.3607,2.02026 -19.6335,11.62805 0.3454,4.56266 1,13.51808 1.4547,19.90094 0.4547,6.38286 1.2744,15.09944 1.8215,19.37018 0.8483,6.62236 0.12,23.7773 -0.9252,21.79167 -0.1934,-0.36737 -0.5237,-6.07823 -0.734,-12.69081 -0.5547,-17.43992 -2.0503,-35.70239 -3.0573,-37.33052 -0.4795,-0.77541 -0.9952,-3.51384 -1.146,-6.0854 -0.5322,-9.07671 -1.1666,-11.35493 -3.1618,-11.35493 -1.435,0 -2.0364,1.54715 -2.1186,5.45028 -0.1347,6.40108 -1.2746,8.72832 -3.8005,7.75905 -1.0043,-0.38537 -2.2254,-0.0543 -2.7137,0.73571 -1.3112,2.12154 2.666,3.18095 5.7485,1.53123 2.5071,-1.34174 2.6434,-1.06151 2.2586,4.64492 -0.5203,7.71825 -1.64,8.82791 -3.5061,3.47482 -2.6748,-7.67298 -4.3135,-3.27114 -3.3475,8.99199 0.498,6.32272 1.2168,15.40329 1.5972,20.17904 0.3805,4.77575 0.7091,9.88547 0.7303,11.35493 0.079,5.47889 1.4114,12.69081 2.3449,12.69081 0.5312,0 1.8043,-3.15601 2.829,-7.01334 l 1.8631,-7.01334 0.8439,5.87994 c 1.5285,10.64953 0.4397,21.12002 -2.5977,24.98155 -2.332,2.96457 -2.6676,4.76822 -2.0568,11.05422 1.619,16.66217 1.5014,16.39486 7.0097,15.93704 l 4.9347,-0.41015 0.2625,-8.64855 c 0.1443,-4.75671 -0.335,-9.01777 -1.0652,-9.46904 -0.8137,-0.50289 -0.6136,-1.41301 0.5168,-2.35121 2.1297,-1.76749 1.9854,-2.31549 2.9285,11.11768 0.7996,11.38833 2.0964,25.31223 2.8616,30.72511 0.3116,2.20419 0.8366,12.7242 1.1667,23.3778 0.3301,10.6536 1.1739,24.4799 1.875,30.72511 1.2187,10.85409 1.0462,34.98694 -0.4869,68.1296 -0.3909,8.44941 -0.7377,15.9637 -0.7708,16.69843 -0.033,0.73473 0.202,6.4456 0.5224,12.69081 0.3205,6.24521 -0.055,13.6323 -0.8351,16.41575 -1.1895,4.24618 -0.9117,6.60436 1.726,14.64982 l 3.1436,9.58901 -2.2998,13.59297 c -3.6394,21.51122 -9.6989,31.36297 -33.8009,54.95541 -13.7214,13.43116 -26.2919,20.77519 -42.7309,24.9645 -9.9891,2.54559 -14.225,2.55547 -21.1812,0.0494 z m 88.6571,-262.32218 c 1.3109,-0.83047 1.4542,-1.81933 0.5086,-3.50897 -0.7241,-1.29395 -0.9999,-3.56354 -0.6129,-5.04354 0.4752,-1.81696 0.2015,-2.38052 -0.8426,-1.73523 -0.8505,0.52562 -1.5463,2.12248 -1.5463,3.54858 0,1.4261 -0.8281,2.59291 -1.8402,2.59291 -2.2657,0 -5.141,3.26053 -3.937,4.4645 1.2418,1.24178 6.1032,1.0547 8.2704,-0.31825 z m 2.0803,-17.87929 c -0.4337,-3.10043 -1.0202,-6.38857 -1.3033,-7.30698 -0.592,-1.92094 -4.6061,-2.29514 -4.6061,-0.42939 0,0.68225 -0.9428,2.18326 -2.0951,3.33559 -1.4299,1.42992 -1.77,3.05076 -1.0712,5.10494 0.5632,1.6554 0.9369,3.36448 0.8305,3.79795 -0.1064,0.43348 1.8827,0.86619 4.4202,0.96158 l 4.6137,0.17344 z m -3.9663,-15.04851 c -0.086,-2.6047 0.3526,-5.05081 0.9755,-5.43581 1.36,-0.84051 0.121,-3.18713 -1.6828,-3.18713 -0.703,0 -1.1509,1.67035 -0.9954,3.71189 0.1556,2.04153 -0.1709,4.44611 -0.7255,5.3435 -0.5546,0.89738 -0.6369,2.23275 -0.1828,2.96748 1.6532,2.67498 2.7646,1.22783 2.611,-3.39993 z m -7.7234,-16.18439 c -0.4851,-0.48515 0.3671,-1.75701 1.8938,-2.82635 2.9767,-2.08499 6.306,-0.46142 4.6264,2.25616 -0.9883,1.59906 -5.1292,1.96118 -6.5202,0.57019 z m 0.7293,-15.02131 c 0.4315,-6.28191 2.3793,-7.4796 2.3793,-1.46298 0,2.2042 0.045,4.44346 0.1002,4.97614 0.055,0.53268 -0.5647,1.19014 -1.3774,1.46102 -0.957,0.31899 -1.3452,-1.43351 -1.1021,-4.97418 z m 7.795,-20.83316 c -1.2335,-8.7448 -1.2186,-10.36395 0.083,-9.06194 0.7494,0.7494 1.122,3.69606 0.828,6.54812 -0.294,2.85207 -0.7041,3.98329 -0.9114,2.51382 z m -9.4187,-28.7213 c -0.1901,-1.83682 -0.5546,-4.54197 -0.8101,-6.01143 -0.2554,-1.46946 -0.7311,-5.52179 -1.0572,-9.00517 -0.6515,-6.96177 1.2987,-10.01428 2.603,-4.07424 0.4503,2.05056 1.0027,4.35588 1.2275,5.12293 0.2249,0.76706 -0.047,4.97506 -0.6043,9.35112 -0.5573,4.37606 -1.1688,6.45362 -1.3589,4.61679 z"
       id="path20" />
  </g>
</svg>
