<?xml version="1.0" encoding="UTF-8" standalone="no"?>
<!-- Created with Inkscape (http://www.inkscape.org/) -->

<svg
   version="1.1"
   id="svg1"
   width="1705.8678"
   height="1572.8899"
   viewBox="0 0 1705.8678 1572.8901"
   sodipodi:docname="mountain.svg"
   inkscape:version="1.4.3 (0d15f75, 2025-12-25)"
   inkscape:export-batch-name="doodles"
   inkscape:export-batch-path="C:\Users\Kjmut\Downloads\doodles"
   xmlns:inkscape="http://www.inkscape.org/namespaces/inkscape"
   xmlns:sodipodi="http://sodipodi.sourceforge.net/DTD/sodipodi-0.dtd"
   xmlns="http://www.w3.org/2000/svg"
   xmlns:svg="http://www.w3.org/2000/svg">
  <sodipodi:namedview
     id="namedview1"
     pagecolor="#505050"
     bordercolor="#eeeeee"
     borderopacity="1"
     inkscape:showpageshadow="0"
     inkscape:pageopacity="0"
     inkscape:pagecheckerboard="0"
     inkscape:deskcolor="#505050"
     inkscape:zoom="0.36251647"
     inkscape:cx="2884.0069"
     inkscape:cy="1148.9133"
     inkscape:window-width="1920"
     inkscape:window-height="1051"
     inkscape:window-x="-9"
     inkscape:window-y="-9"
     inkscape:window-maximized="1"
     inkscape:current-layer="g2" />
  <defs
     id="defs1" />
  <g
     id="g13"
     inkscape:groupmode="layer"
     inkscape:label="13"
     transform="translate(-24690.361,-276.0275)">
    <path
       style="fill:#000000"
       d="m 25872.488,1846.9462 c -10.643,-2.0132 -14.116,-2.2131 -17.159,-0.9876 -2.099,0.8451 -7.145,1.4018 -11.214,1.2372 -7.788,-0.315 -11.514,-2.2786 -26.169,-13.791 -10.229,-8.0349 -34.305,-29.1486 -40.359,-35.3927 -3.024,-3.1191 -6.027,-5.687 -6.672,-5.7066 -1.697,-0.051 -16.499,-20.3508 -19.074,-26.1581 -0.693,-1.5632 -4.004,-7.1237 -7.358,-12.3566 -3.355,-5.2329 -6.099,-10.6738 -6.099,-12.0908 0,-1.417 -0.563,-2.924 -1.25,-3.3489 -1.718,-1.062 -8.091,-14.7376 -8.091,-17.3633 0,-1.1721 -0.909,-3.5183 -2.019,-5.2138 -1.846,-2.8164 -4.947,-10.0145 -11.278,-26.1796 -3.052,-7.7926 -17.789,-48.1275 -22.914,-62.7154 -2.192,-6.2382 -4.797,-13.4438 -5.79,-16.0125 -1.657,-4.2877 -6.486,-17.9468 -14.151,-40.0311 -1.656,-4.7704 -3.42,-9.2739 -3.92,-10.0078 -0.826,-1.2124 -13.112,-38.9055 -24.791,-76.0592 -2.538,-8.0729 -5.234,-16.4795 -5.991,-18.6812 -1.5,-4.3627 -5.193,-16.4003 -9.209,-30.0233 -1.407,-4.7704 -2.951,-10.7751 -3.432,-13.3437 -0.48,-2.5687 -2.099,-6.6868 -3.596,-9.1514 -1.498,-2.4646 -3.1,-6.3228 -3.56,-8.5737 -1.212,-5.923 -3.571,-5.908 -3.559,0.023 0.01,5.2548 -2.446,24.7449 -4.419,35.0492 -5.544,28.9613 -8.703,43.2266 -14.33,64.717 -3.277,12.5103 -13.826,43.894 -15.228,45.3019 -0.694,0.6972 -1.262,3.1682 -1.262,5.4911 0,2.3229 -1.201,5.7502 -2.669,7.6163 -1.468,1.866 -2.669,4.3134 -2.669,5.4386 0,1.1253 -0.6,2.4171 -1.334,2.8707 -0.734,0.4535 -1.334,2.2094 -1.334,3.9019 0,1.6925 -1.201,4.6039 -2.669,6.47 -1.468,1.866 -2.669,4.6313 -2.669,6.145 0,1.5138 -1.431,5.9226 -3.179,9.7974 -1.749,3.8747 -3.62,8.5461 -4.159,10.3809 -0.539,1.8347 -2.963,6.6385 -5.386,10.675 -2.424,4.0364 -4.857,9.1404 -5.406,11.3421 -0.55,2.2017 -3.2,7.6059 -5.89,12.0094 -2.69,4.4034 -7.527,13.4055 -10.748,20.0046 -13.759,28.1796 -55.2,72.5861 -88.52,94.852 -7.335,4.9016 -11.133,6.7836 -40.172,19.9073 -9.42,4.2571 -25.903,9.1898 -38.405,11.4935 -10.426,1.9211 -16.893,0.4139 -24.64,-5.743 -2.626,-2.0866 -6.36,-3.7414 -8.443,-3.7414 -3.239,0 -3.791,-0.5764 -4.153,-4.3367 -0.388,-4.0161 -0.813,-4.368 -5.756,-4.7603 -7.216,-0.5726 -13.167,-6.0792 -12.142,-11.2345 0.499,-2.5079 -0.04,-4.389 -1.714,-6.0047 -1.342,-1.294 -2.799,-4.246 -3.239,-6.56 -0.673,-3.5389 -0.121,-4.855 3.477,-8.2847 5.507,-5.25 21.43,-13.4353 26.803,-13.7782 2.289,-0.1461 10.467,-2.7681 18.173,-5.8265 7.706,-3.0585 15.754,-5.9794 17.885,-6.4909 2.131,-0.5116 6.334,-2.5878 9.341,-4.6139 3.006,-2.0261 10.07,-5.8414 15.697,-8.4785 5.669,-2.6566 10.924,-6.0884 11.784,-7.6958 0.854,-1.5956 1.354,-3.0932 1.111,-3.3279 -0.243,-0.2348 -4.045,-3.0773 -8.448,-6.3166 -4.404,-3.2394 -17.012,-15.4556 -28.018,-27.1471 -11.007,-11.6916 -23.791,-25.1345 -28.409,-29.8733 -5.012,-5.1424 -10.655,-12.8534 -13.998,-19.1263 -3.08,-5.7806 -7.109,-11.4054 -8.953,-12.4996 -3.089,-1.8326 -9.556,-13.2204 -11.358,-20.0014 -0.532,-2.0004 -1.517,-2.6678 -3.263,-2.211 -2.667,0.6973 -3.306,-1.4649 -6.591,-22.2783 -2.78,-17.6167 -3.86,-48.7105 -2.202,-63.3827 3.386,-29.9556 4.158,-35.4074 9.348,-65.9976 4.075,-24.0221 18.903,-78.4791 26.029,-95.5968 2.218,-5.3277 4.032,-10.3194 4.032,-11.0925 0,-0.7731 4.87,-12.6741 10.821,-26.4466 5.952,-13.7725 12.679,-29.5444 14.95,-35.0487 2.271,-5.5042 8.81,-19.1898 14.532,-30.4124 5.722,-11.2226 10.403,-20.6799 10.403,-21.0164 0,-2.4695 -3.184,0.7362 -8.339,8.3954 -8.818,13.101 -22.577,30.2197 -36.923,45.9395 -13.114,14.3705 -49.407,49.4614 -57.484,55.5811 -2.569,1.9461 -9.219,7.4465 -14.777,12.2231 -20.658,17.7512 -33.773,27.3883 -75.293,55.3268 -18.213,12.2553 -50.8,31.4188 -53.427,31.4188 -0.59,0 -2.02,0.8163 -3.179,1.814 -2.139,1.8423 -29.171,11.31 -40.136,14.0577 -3.303,0.8275 -17.714,4.4604 -32.025,8.0729 -42.063,10.6179 -48.874,11.8912 -72.723,13.5951 -28.74,2.0534 -44.835,1.8728 -67.421,-0.7563 -42.641,-4.9638 -61.62,-9.5116 -64.721,-15.5086 -1.437,-2.7793 -3.509,-4.0328 -8.74,-5.2876 -3.771,-0.9046 -8.742,-3.2896 -11.048,-5.3 -2.305,-2.0104 -5.693,-4.105 -7.528,-4.6547 -7.29,-2.1839 -12.009,-6.1081 -12.009,-9.9861 0,-2.432 -1.468,-5.1716 -4.207,-7.8489 -3.659,-3.5774 -3.97,-4.3979 -2.39,-6.302 2.547,-3.0694 7.31,-4.8105 16.605,-6.0708 18.802,-2.5493 23.226,-4.5621 25.301,-11.5108 0.714,-2.3944 0.462,-2.8282 -1.263,-2.1663 -1.797,0.6895 -1.997,0.1874 -1.196,-3.0108 1.561,-6.238 5.915,-15.2902 7.679,-15.9673 0.9,-0.3455 1.637,-2.6028 1.637,-5.0162 0,-4.8769 0.375,-5.7482 15.86,-36.8968 11.648,-23.4301 29.51,-54.7425 41.865,-73.3904 11.055,-16.6839 15.674,-26.754 9.642,-21.0164 -4.017,3.8208 3.565,-8.4188 15.001,-24.2136 15.168,-20.951 24.415,-31.8229 52.27,-61.4553 6.605,-7.0265 16.037,-17.2712 20.96,-22.766 9.464,-10.5635 34.429,-32.5939 40.88,-36.0735 2.105,-1.1354 7.967,-6.1755 13.026,-11.2002 5.06,-5.0248 11.209,-9.9828 13.666,-11.0179 2.456,-1.035 8.521,-5.6909 13.478,-10.3463 4.957,-4.6554 11.054,-9.4966 13.548,-10.7583 2.495,-1.2616 7.538,-4.5044 11.207,-7.2061 3.67,-2.7018 9.606,-6.6851 13.191,-8.8517 3.586,-2.1667 7.845,-4.8401 9.466,-5.941 9.829,-6.67603 14.439,-9.58232 23.515,-14.82422 5.578,-3.2222 13.809,-7.65994 18.291,-9.86165 4.481,-2.20172 8.173,-4.64775 8.204,-5.43564 0.03,-0.83772 -6.144,-2.16991 -14.877,-3.20848 -8.214,-0.97678 -20.974,-3.45522 -28.356,-5.50765 -7.381,-2.05242 -16.123,-4.42101 -19.426,-5.26351 -3.302,-0.84251 -7.506,-2.35458 -9.34,-3.36016 -1.835,-1.00558 -4.838,-2.5009 -6.672,-3.32292 -1.835,-0.82203 -6.127,-2.94214 -9.538,-4.71136 -3.41,-1.76921 -6.842,-3.21675 -7.626,-3.21675 -1.544,0 -19.221,-8.56551 -34.21,-16.57635 -12.514,-6.68875 -42.651,-25.65493 -44.713,-28.13991 -0.907,-1.09271 -2.247,-1.98674 -2.979,-1.98674 -0.731,0 -6.042,-3.30257 -11.803,-7.33905 -5.76,-4.03647 -11.184,-7.33904 -12.052,-7.33904 -0.869,0 -12.044,-7.95619 -24.834,-17.68042 -34.137,-25.95303 -37.733,-28.59594 -45.062,-33.11618 -11.048,-6.81426 -20.937,-14.29206 -28.689,-21.69388 -4.036,-3.85436 -9.741,-8.45484 -12.676,-10.22329 -12.262,-7.38631 -79.179,-67.46806 -90.665,-81.40384 -1.508,-1.82923 -9.495,-10.73319 -17.749,-19.78658 -8.255,-9.0534 -17.231,-19.26587 -19.948,-22.69438 -2.716,-3.42852 -5.57,-6.83414 -6.342,-7.56804 -0.771,-0.73391 -3.794,-4.33671 -6.718,-8.00623 -2.923,-3.66952 -7.388,-8.93932 -9.921,-11.71066 -5.533,-6.05397 -10.219,-14.03695 -11.402,-19.42644 -0.477,-2.17086 -2.034,-5.00304 -3.46,-6.29375 -1.426,-1.2907 -2.593,-3.63474 -2.593,-5.20897 0,-1.57424 -0.664,-3.52567 -1.475,-4.33653 -1.076,-1.07614 1.267,-1.7311 8.674,-2.42521 7.289,-0.68301 10.147,-1.47065 10.147,-2.7957 0,-1.01463 -1.05,-1.89059 -2.335,-1.94658 -1.284,-0.056 -6.838,-0.24778 -12.343,-0.42619 -12.987,-0.42097 -25.353,-2.20697 -25.353,-3.66181 0,-0.63123 0.635,-1.14769 1.41,-1.14769 0.814,0 0.452,-1.83208 -0.858,-4.33671 -4.625,-8.84653 -4.619,-8.81096 -1.963,-10.6712 1.398,-0.97927 2.438,-2.93152 2.31,-4.33833 -0.163,-1.80295 1.463,-3.37189 5.509,-5.31618 3.157,-1.51709 6.159,-3.40748 6.672,-4.20087 0.812,-1.25797 6.931,-2.56474 25.617,-5.47106 2.569,-0.39951 5.399,-1.76442 6.289,-3.03314 0.991,-1.41289 4.323,-2.66545 8.597,-3.23243 3.838,-0.50912 7.613,-1.34001 8.389,-1.84641 0.776,-0.50641 3.212,-1.01789 5.414,-1.13664 2.202,-0.11874 6.705,-0.83045 10.008,-1.58156 3.302,-0.75112 9.307,-1.04435 13.344,-0.65164 4.036,0.39272 14.544,-0.21477 23.351,-1.34996 26.254,-3.38413 42.717,-3.98673 59.38,-2.17344 8.439,0.91849 18.047,1.80802 21.349,1.97673 35.133,1.79476 72.17,4.73043 75.392,5.97585 4.581,1.77045 39.84,6.62522 48.414,6.6661 3.143,0.015 7.878,0.93129 10.522,2.03624 2.645,1.10495 9.981,2.59559 16.304,3.31252 6.322,0.71694 14.197,1.85377 17.499,2.52629 13.768,2.80351 27.773,5.33588 34.027,6.1523 3.669,0.47908 11.475,2.28296 17.347,4.00863 5.871,1.72568 12.776,3.56204 15.345,4.08082 9.817,1.9826 46.003,15.17004 82.367,30.01664 5.304,2.16557 10.258,3.93739 11.008,3.93739 2.243,0 1.563,-5.04333 -1.857,-13.78331 -1.772,-4.5286 -3.626,-10.33545 -4.12,-12.90411 -0.494,-2.56867 -2.311,-9.36705 -4.038,-15.10752 -1.727,-5.74047 -2.829,-11.24787 -2.449,-12.23867 0.38,-0.9908 0.04,-3.0196 -0.758,-4.50846 -0.797,-1.48886 -1.778,-12.79454 -2.181,-25.12373 -0.403,-12.3292 -1.277,-29.60056 -1.941,-38.3808 -0.848,-11.19885 -0.778,-16.22963 0.231,-16.85374 0.971,-0.59982 1.137,-4.74561 0.511,-12.72491 -0.673,-8.57462 -0.328,-15.28047 1.25,-24.34053 2.953,-16.95777 7.797,-34.54309 11.074,-40.20239 1.487,-2.56866 3.721,-8.25503 4.963,-12.63636 1.243,-4.38134 3.528,-10.38601 5.077,-13.34372 1.55,-2.9577 3.892,-8.34306 5.204,-11.96745 1.313,-3.6244 3.893,-8.86561 5.734,-11.64714 1.84,-2.78154 3.346,-5.92733 3.346,-6.99065 0,-1.06333 1.397,-3.03218 3.105,-4.37524 1.707,-1.34306 3.504,-4.43951 3.992,-6.881 0.488,-2.4415 2.094,-6.13253 3.567,-8.2023 1.474,-2.06977 2.68,-4.43611 2.68,-5.25855 0,-0.82243 1.853,-1.86593 4.118,-2.31889 2.265,-0.45296 4.483,-1.789 4.929,-2.96898 0.446,-1.17998 1.596,-2.93889 2.554,-3.90869 0.959,-0.9698 1.743,-2.86932 1.743,-4.22116 0,-2.70306 11.679,-14.65726 14.344,-14.68252 0.918,-0.009 1.668,1.18513 1.668,2.65294 0,2.07057 0.89,2.66874 3.969,2.66874 3.046,0 4.443,-0.91601 6.005,-3.93685 1.119,-2.16526 2.036,-4.89146 2.036,-6.05821 0,-3.94037 10.895,-12.57246 18.681,-14.80053 4.036,-1.15513 9.197,-2.65893 11.468,-3.34178 6.025,-1.81136 35.235,3.80411 35.235,6.77363 0,0.61248 2.552,1.53554 5.671,2.05125 16.528,2.73276 44.158,23.51199 65.6,49.33585 3.657,4.40343 7.038,8.30646 7.516,8.67342 2.198,1.69069 21.66,30.17363 24.654,36.0816 1.847,3.64546 7.143,12.78069 11.769,20.3005 4.627,7.51982 8.823,14.5731 9.325,15.67395 0.503,1.10086 2.401,4.40343 4.219,7.33904 1.819,2.93562 5.831,9.84099 8.916,15.34528 3.085,5.50428 8.055,13.91082 11.043,18.6812 2.989,4.77037 7.206,12.57645 9.372,17.34682 2.166,4.77038 4.562,9.47955 5.324,10.46482 0.762,0.98527 7.09,12.92138 14.062,26.52468 6.972,13.6033 13.277,24.80651 14.011,24.89603 0.734,0.0895 4.337,-5.90416 8.006,-13.31927 3.67,-7.4151 7.723,-15.04993 9.007,-16.96629 1.285,-1.91635 2.335,-4.4061 2.335,-5.53278 0,-1.12667 0.543,-2.0485 1.206,-2.0485 0.664,0 4.246,-4.73881 7.961,-10.53068 3.716,-5.79188 10.529,-15.1622 15.141,-20.82295 4.611,-5.66074 10.195,-12.52865 12.408,-15.26203 10.63,-13.13143 24.274,-27.10182 30.156,-30.87633 3.586,-2.30058 6.519,-4.75138 6.519,-5.44623 0,-0.69485 2.03,-2.11145 4.51,-3.14801 2.481,-1.03656 6.002,-3.65614 7.824,-5.82129 1.821,-2.16515 6.425,-5.5141 10.23,-7.44211 3.804,-1.92801 7.245,-4.3589 7.645,-5.40198 0.4,-1.04308 1.95,-2.28452 3.445,-2.75875 1.494,-0.47424 8.369,-4.25001 15.278,-8.39062 6.909,-4.14061 15.089,-8.92935 18.177,-10.64164 3.088,-1.7123 6.515,-3.89303 7.616,-4.84607 1.101,-0.95303 3.502,-2.18283 5.337,-2.73287 1.835,-0.55005 4.837,-2.03572 6.672,-3.3015 7.978,-5.5042 60.234,-28.96586 74.33,-33.37276 9.422,-2.94563 16.745,-2.85357 12.367,0.15547 -1.555,1.0684 -1.408,1.20119 0.704,0.63662 1.468,-0.39236 4.882,-0.85203 7.586,-1.02149 4.827,-0.30244 4.947,-0.4443 6.493,-7.71385 0.866,-4.07316 1.656,-9.98851 1.754,-13.14521 0.16,-5.09644 0.479,-5.64499 2.849,-4.89617 6.124,1.93528 8.673,2.19423 8.673,0.88114 0,-0.76571 1.652,-2.21638 3.671,-3.22373 4.72,-2.35449 25.449,-0.15591 29.221,3.09926 1.358,1.1717 5.31,4.04551 8.784,6.38623 10.32,6.95536 29.67,34.48483 33.875,48.19418 7.251,23.64154 13.89,57.65274 16.656,85.32419 1.755,17.56558 0.821,86.31779 -1.461,107.49248 -0.792,7.33904 -1.702,16.48374 -2.025,20.32156 -1.253,14.92686 -5.28,34.34116 -12.657,61.02344 -4.972,17.9842 -6.974,23.86828 -11.595,34.07813 -5.102,11.27612 -12.429,29.77687 -12.429,31.38608 0,0.84675 8.388,0.23475 16.013,-1.16832 1.835,-0.33763 5.871,-0.99046 8.969,-1.45073 3.098,-0.46027 7.902,-1.62934 10.675,-2.59792 2.773,-0.96858 8.945,-2.44209 13.715,-3.27446 4.771,-0.83237 13.778,-2.42719 20.016,-3.54404 13.673,-2.44809 50.981,-2.82023 74.057,-0.73872 8.807,0.7944 24.72,2.90124 35.361,4.68188 10.642,1.78063 24.152,3.91109 30.024,4.73436 21.329,2.99087 76.162,16.40947 103.77,25.39437 46.649,15.1822 41.955,13.43476 59.017,21.96948 13.96,6.98304 17.381,10.78199 10.426,11.57947 -5.043,0.5783 -4.721,2.92848 0.922,6.72216 5.454,3.66678 6.239,6.91492 4.044,16.72562 -1.133,5.06479 -2.191,7.00545 -3.819,7.00545 -1.238,0 -2.944,1.10778 -3.789,2.46174 -1.359,2.17653 -2.363,2.31382 -8.661,1.18504 -10.232,-1.83393 -13.217,-3.19571 -12.292,-5.60774 0.431,-1.12319 0.169,-2.04215 -0.582,-2.04215 -0.751,0 -1.609,0.72855 -1.906,1.61899 -0.367,1.1021 -1.738,0.67607 -4.294,-1.33437 -2.065,-1.62435 -5.139,-2.95337 -6.832,-2.95337 -1.692,0 -3.448,-0.60046 -3.902,-1.33437 -0.453,-0.7339 -2.757,-1.33437 -5.119,-1.33437 -2.362,0 -5.507,-0.849 -6.988,-1.88667 -1.482,-1.03767 -4.468,-2.08849 -6.635,-2.33515 -2.498,-0.28413 -3.799,-1.12218 -3.552,-2.28693 0.275,-1.29533 -0.484,-1.60958 -2.572,-1.06372 -1.629,0.4261 -7.509,-0.66124 -13.067,-2.41632 -20.51,-6.47724 -28.651,-8.69289 -32.012,-8.7125 -3.558,-0.0208 -11.375,-2.43666 -14.651,-4.52814 -1.026,-0.65489 -7.184,-1.68148 -13.685,-2.28132 -6.5,-0.59984 -13.035,-1.74127 -14.521,-2.53651 -1.486,-0.79523 -4.334,-1.69586 -6.331,-2.00139 -1.996,-0.30554 -7.832,-1.19262 -12.969,-1.9713 -5.138,-0.77869 -11.142,-1.98241 -13.344,-2.67494 -5.635,-1.77249 -22.765,-5.04221 -30.691,-5.85835 -3.669,-0.37785 -13.258,-1.38287 -21.309,-2.23336 -13.807,-1.45868 -42.623,-1.03813 -54.75,0.79903 -10.057,1.5236 -29.355,6.21426 -34.65,8.42223 -2.912,1.21419 -5.462,2.06169 -5.668,1.88333 -0.205,-0.17835 -2.626,0.55358 -5.38,1.62652 -2.755,1.07294 -10.188,3.42962 -16.519,5.23705 -6.33,1.80744 -13.836,4.53978 -16.679,6.07187 -2.843,1.5321 -7.571,3.43334 -10.507,4.22498 -8.963,2.41721 -36.418,15.48833 -54.042,25.72919 -8.892,5.16731 -16.097,11.25149 -33.359,28.16986 -29.723,29.132 -33.152,32.21126 -69.593,62.50996 -4.884,4.06039 -11.928,9.02893 -15.654,11.0412 -3.726,2.01226 -8.613,5.33847 -10.861,7.39157 -3.482,3.18056 -3.868,4.14217 -2.607,6.49875 2.106,3.93536 5.002,4.64112 7.981,1.94524 1.853,-1.67762 3.61,-2.05996 6.288,-1.36875 2.044,0.52753 6.719,1.2611 10.388,1.63016 3.67,0.36906 7.573,1.41375 8.674,2.32152 1.101,0.90778 4.103,2.43512 6.672,3.3941 2.568,0.95897 6.772,3.07902 9.34,4.71121 2.569,1.63219 9.774,6.2464 16.013,10.25381 6.238,4.00741 15.199,9.64222 19.913,12.52179 l 8.572,5.2356 27.456,0.90491 c 30.123,0.99278 45.861,2.44369 70.147,6.46684 30.945,5.12629 74.557,15.74901 98.753,24.05369 30.915,10.61094 26.709,10.00108 50.706,7.35207 19.002,-2.0976 27.771,-3.50276 46.703,-7.48393 2.936,-0.61731 8.674,-2.28409 12.751,-3.70394 4.077,-1.41985 9.933,-3.00726 13.013,-3.52757 5.699,-0.96291 25.072,-7.97492 27.571,-9.97974 0.756,-0.60621 6.081,-2.97494 11.834,-5.26385 5.752,-2.28891 11.74,-5.05932 13.307,-6.15648 1.566,-1.09715 4.003,-1.99482 5.416,-1.99482 1.412,0 5.132,-2.10163 8.267,-4.6703 3.135,-2.56866 6.229,-4.6703 6.875,-4.6703 2.44,0 35.29,-22.76462 45.65,-31.6355 14.199,-12.1569 20.149,-18.73634 36.378,-40.22563 11.729,-15.53009 16.822,-25.82186 21.886,-44.22918 1.312,-4.77038 4.028,-12.27622 6.036,-16.67965 2.008,-4.40342 4.265,-11.30879 5.016,-15.34527 3.537,-19.00837 4.362,-21.34994 7.519,-21.34994 1.648,0 3.753,-0.91231 4.679,-2.02735 1.84,-2.21783 9.776,-1.52379 13.131,1.14846 2.093,1.66741 4.406,3.0633 11.917,7.19228 4.668,2.56585 5.718,4.01188 7.592,10.46012 2.47,8.49478 1.834,27.67609 -1.346,40.60446 -7.755,31.53355 -10.041,37.78656 -18.948,51.83052 -6.592,10.39433 -34.554,45.48818 -38.868,48.7818 -1.938,1.47921 -7.649,6.46759 -12.693,11.08529 -7.869,7.20505 -11.513,9.72699 -11.513,7.96735 0,-0.23565 2.702,-3.24853 6.005,-6.69528 3.302,-3.44676 5.984,-7.00687 5.96,-7.91136 -0.02,-0.90449 -1.245,-0.14337 -2.712,1.6914 -5.19,6.4896 -8.668,9.81237 -15.925,15.21633 -4.036,3.00573 -8.082,6.457 -8.99,7.6695 -2.298,3.06716 -18.401,13.50123 -26.027,16.86436 -7.741,3.41396 -13.626,9.28479 -11.67,11.64187 0.931,1.12165 0.827,2.03476 -0.333,2.93298 -2.732,2.1156 -6.355,3.07138 -6.355,1.67668 0,-2.42141 -4.656,-1.2913 -13.934,3.38191 -9.798,4.93517 -12.174,5.63431 -10.624,3.12565 0.608,-0.98443 0.364,-1.17704 -0.677,-0.53357 -0.896,0.55384 -1.288,1.34843 -0.871,1.76576 1.171,1.17073 -10.156,7.17592 -12.116,6.42373 -0.952,-0.36547 -2.624,0.22795 -3.715,1.31873 -1.631,1.63134 -17.942,8.57838 -20.141,8.57838 -0.351,0 -0.637,-0.8819 -0.637,-1.9597 0,-1.2083 -0.781,-1.6602 -2.036,-1.1785 -1.411,0.5417 -1.628,1.2715 -0.707,2.3812 0.983,1.1853 -2.49,3.1607 -13.403,7.622 -8.102,3.3121 -14.839,6.5751 -14.972,7.2511 -0.132,0.676 4.864,3.8294 11.102,7.0074 56.507,28.7871 96.917,58.885 125.729,93.6432 18.524,22.3457 30.101,36.8785 32.439,40.7195 1.493,2.4516 3.843,5.7047 5.222,7.2292 1.38,1.5245 6.164,8.7176 10.63,15.9846 9.536,15.5137 30.062,46.2329 36.625,54.815 2.526,3.3025 5.956,9.0666 7.621,12.809 4.063,9.1286 6.402,11.2097 12.597,11.2097 2.84,0 5.55,0.6248 6.022,1.3886 0.472,0.7638 1.939,1.0455 3.261,0.626 3.564,-1.1312 13.669,1.4933 15.016,3.8999 0.644,1.1504 2.363,2.0917 3.82,2.0917 5.09,0 9.227,3.9555 9.227,8.823 0,7.1145 -9.088,24.3993 -14.961,28.4549 -5.054,3.4901 -6.576,6.7563 -3.148,6.7563 1.048,0 2.855,-0.9489 4.015,-2.1087 4.437,-4.4375 4.478,-0.9532 0.05,4.6317 -2.553,3.2224 -4.641,7.013 -4.641,8.4237 0,1.8939 -0.786,2.4556 -3.003,2.1473 -2.651,-0.3686 -2.953,0.09 -2.583,3.9193 0.367,3.7934 0.02,4.3367 -2.751,4.3367 -1.976,0 -4.286,1.5089 -6.13,4.0031 -1.628,2.2017 -3.784,4.0031 -4.791,4.0031 -1.007,0 -2.459,1.8014 -3.227,4.0031 -1.368,3.9267 -4.574,5.3057 -6.204,2.6688 -0.454,-0.7339 -2.891,-1.3344 -5.416,-1.3344 -2.526,0 -4.592,-0.5773 -4.592,-1.2829 0,-2.1372 -10.315,-4.3411 -13.169,-2.8137 -4.427,2.3695 -15.217,4.3312 -26.862,4.8838 -13.789,0.6542 -16.281,0.9439 -30.691,3.5676 -13.766,2.5065 -85.682,2.3298 -111.42,-0.2737 -8.806,-0.8909 -22.017,-1.8047 -29.356,-2.0307 -11.731,-0.3613 -33.54,-3.8521 -45.368,-7.2618 -2.202,-0.6346 -7.606,-1.919 -12.01,-2.8541 -4.403,-0.9351 -11.157,-3.3848 -15.008,-5.4438 -9.463,-5.0592 -30.043,-11.834 -36.107,-11.8862 -2.711,-0.023 -6.094,-0.924 -7.519,-2.0016 -1.424,-1.0775 -3.341,-1.9591 -4.258,-1.9591 -1.645,0 -28.734,-12.3786 -37.881,-17.3101 -4.868,-2.6241 -19.357,-12.1566 -26.97,-17.7432 -19.586,-14.3727 -46.382,-32.8167 -48.787,-33.58 -3.967,-1.2589 -3.761,-0.3637 2.098,9.1096 4.887,7.902 11.852,21.6461 20.023,39.5082 5.235,11.4427 18.971,46.3242 18.971,48.1746 0,0.7989 0.827,3.0463 1.838,4.9943 4.032,7.7646 12.528,42.5706 14.872,60.9198 0.469,3.6695 1.376,8.4733 2.017,10.675 1.476,5.0764 5.109,37.608 5.96,53.3748 2.674,49.5013 3.264,89.5764 1.72,116.7575 -3.159,55.6103 -3.835,63.2014 -7.604,85.3998 -3.639,21.4302 -5.668,33.1784 -6.799,39.364 -0.672,3.6695 -2.191,12.6765 -3.376,20.0155 -1.185,7.3391 -3.072,17.2468 -4.192,22.0172 -1.12,4.7703 -3.133,14.9783 -4.473,22.6843 -2.62,15.0695 -5.569,24.4774 -8.633,27.5416 -1.237,1.2364 -1.64,3.3063 -1.136,5.8256 0.429,2.1493 0.377,6.6002 -0.116,9.8909 -0.801,5.3403 -1.789,6.6837 -9.194,12.5029 -7.995,6.2831 -8.683,6.5474 -18.942,7.2799 -7.606,0.543 -14.458,0.039 -23.991,-1.7639 z m -7.407,-55.8694 c 1.331,-0.8418 2.195,-4.8931 2.771,-12.9897 0.461,-6.4715 1.234,-12.667 1.719,-13.7679 0.824,-1.8715 3.155,-18.1032 4.293,-29.8979 0.276,-2.8667 1.493,-7.6704 2.702,-10.675 1.21,-3.0046 2.391,-6.6638 2.625,-8.1316 0.905,-5.6828 3.222,-21.857 4.684,-32.6921 0.842,-6.2382 2.696,-18.4246 4.121,-27.0808 1.424,-8.6562 2.308,-16.1944 1.964,-16.7515 -0.344,-0.557 -0.06,-3.55 0.641,-6.651 0.697,-3.101 1.508,-12.9764 1.804,-21.9453 0.295,-8.9689 1.117,-22.3118 1.826,-29.6508 2.31,-23.9127 0.514,-78.8149 -3.995,-122.095 -0.88,-8.4399 -1.667,-15.6455 -1.749,-16.0125 -0.08,-0.3669 -0.607,-5.1707 -1.165,-10.6749 -2.676,-26.3792 -17.094,-83.5117 -24.99,-99.024 -1.386,-2.7229 -2.52,-5.6585 -2.52,-6.5237 0,-2.5541 -33.61,-69.3482 -36.807,-73.1476 -1.611,-1.9139 -4.879,-7.6078 -7.262,-12.6532 -2.384,-5.0453 -5.603,-10.4377 -7.154,-11.983 -1.551,-1.5453 -6.743,-9.1217 -11.538,-16.8363 -9.523,-15.3205 -20.55,-30.6327 -35.557,-49.3753 -2.644,-3.3025 -7.056,-9.007 -9.803,-12.6765 -7.637,-10.2004 -28.816,-32.9007 -39.994,-42.8661 -5.505,-4.9072 -10.778,-10.33 -11.719,-12.0506 -1.92,-3.5125 -3.76,-3.8277 -9.211,-1.5786 -2.066,0.8524 -4.18,1.4618 -4.698,1.3541 -1.876,-0.3899 -34.419,15.9247 -34.419,17.2551 0,0.7515 0.652,2.5844 1.449,4.0732 1.176,2.1976 0.893,3.2979 -1.502,5.847 -1.65,1.7562 -2.922,4.7879 -2.888,6.8795 0.03,2.0568 -0.57,6.1414 -1.342,9.0771 -0.778,2.9555 -1.565,22.3087 -1.765,43.367 -0.298,31.5299 0.07,41.1084 2.171,56.0436 3.074,21.8901 7.918,46.6498 13.835,70.7217 2.435,9.9077 6.01,24.9194 7.943,33.3593 5.863,25.5911 15.002,60.3064 22.13,84.0654 2.092,6.9721 4.474,15.3786 5.293,18.6812 0.82,3.3026 2.027,7.2056 2.684,8.6734 0.657,1.4678 4.003,11.976 7.436,23.3515 5.314,17.6122 28.895,87.7712 35.878,106.7497 1.215,3.3026 3.024,8.7068 4.02,12.0094 0.996,3.3025 4.214,12.0093 7.15,19.3484 2.937,7.339 6.334,16.5731 7.55,20.5201 7.082,22.9864 30.033,74.728 41.802,94.2358 6.435,10.6668 21.769,31.1775 26.503,35.4498 2.087,1.8837 5.49,5.6598 7.562,8.3913 4.749,6.2606 20.754,19.5483 23.513,19.5211 1.142,-0.011 2.946,-0.571 4.009,-1.2438 z m -415.006,-136.5096 c 16.186,-19.9253 21.435,-26.8543 21.435,-28.2983 0,-0.395 2.043,-3.5717 4.54,-7.0595 5.662,-7.9089 17.493,-29.4893 21.032,-38.3662 1.463,-3.6696 3.515,-7.621 4.559,-8.7811 1.044,-1.1601 3.355,-6.264 5.136,-11.3422 3.048,-8.6882 10.015,-25.9968 12.849,-31.9172 6.633,-13.8597 29.965,-108.4052 35.893,-145.4465 0.822,-5.1373 2.046,-12.6432 2.719,-16.6796 2.238,-13.4136 3.001,-19.2803 3.468,-26.6875 0.254,-4.0364 0.891,-10.6416 1.415,-14.6781 0.524,-4.0364 1.104,-8.5399 1.288,-10.0077 0.427,-3.4139 1.532,-29.6753 2.471,-58.7124 0.929,-28.762 0.914,-74.7646 -0.03,-80.253 -0.396,-2.3066 -0.843,-14.914 -0.995,-28.0163 l -0.276,-23.8224 -5.338,-0.9231 c -2.935,-0.5078 -10.441,-1.5459 -16.679,-2.307 l -11.342,-1.3838 -6.49,6.9717 c -3.569,3.8345 -9.274,10.6508 -12.677,15.1475 -3.402,4.4967 -10.99,14.0271 -16.861,21.1789 -5.872,7.1517 -11.576,14.2852 -12.677,15.8522 -1.101,1.567 -5.604,7.9138 -10.008,14.104 -4.403,6.1903 -9.309,13.3917 -10.901,16.0032 -11.049,18.1238 -30.679,55.9461 -36.744,70.7996 -2.247,5.5043 -5.732,13.6106 -7.743,18.014 -2.012,4.4035 -4.69,11.0086 -5.951,14.6781 -1.262,3.6695 -3.138,8.2657 -4.17,10.2137 -1.032,1.948 -1.876,4.1642 -1.876,4.925 0,0.7607 -2.338,6.3725 -5.196,12.4706 -6.108,13.0357 -12.44,32.0266 -20.825,62.4608 -12.158,44.1277 -19.629,96.2136 -19.484,135.841 0.08,21.2415 0.987,26.0972 7.416,39.6288 5.481,11.5377 19.091,25.0417 27.804,27.5881 3.088,0.9024 6.868,3.0595 8.4,4.7935 1.532,1.7341 4.967,4.4694 7.633,6.0783 6.138,3.7043 12.933,14.2383 12.933,20.0492 0,4.74 2.753,7.9455 13.21,15.3783 6.262,4.4511 9.869,5.2005 12.058,2.5054 z m -482.29,-269.8 c 7.339,-0.9994 15.145,-1.8763 17.346,-1.9486 4.496,-0.1476 27.213,-4.678 33.36,-6.6529 2.201,-0.7074 13.911,-4.3792 26.02,-8.1596 12.109,-3.7804 27.721,-8.6939 34.694,-10.919 13.462,-4.2964 41.641,-17.7666 56.043,-26.7906 23.614,-14.7949 47.06,-30.9777 48.858,-33.7212 1.106,-1.6872 6.481,-6.1587 11.946,-9.9365 5.465,-3.7778 14.97,-11.1834 21.123,-16.4568 6.153,-5.2734 15.089,-12.7633 19.858,-16.6444 17.192,-13.9916 28.283,-24.3584 31.16,-29.1253 1.612,-2.6715 7.637,-9.759 13.388,-15.7502 35.773,-37.2677 55.626,-62.3597 75.938,-95.9744 2.148,-3.5546 5.26,-8.6585 6.915,-11.3421 1.655,-2.6836 4.242,-6.9809 5.749,-9.5496 1.506,-2.5686 4.355,-7.4271 6.331,-10.7966 1.975,-3.3694 7.619,-12.7213 12.542,-20.7818 4.923,-8.0606 9.599,-16.1122 10.392,-17.8924 2.169,-4.8756 7.056,-12.5263 9.627,-15.0722 2.152,-2.1312 2.014,-2.8479 -2.417,-12.5592 -6.208,-13.605 -15.805,-42.19053 -18.884,-56.2465 -1.356,-6.18916 -3.186,-11.49312 -4.066,-11.78658 -0.881,-0.29346 -1.601,0.0491 -1.601,0.76121 0,3.14117 -8.979,14.86258 -12.339,16.10842 -2.017,0.74747 -5.619,2.77441 -8.007,4.50429 -2.387,1.72989 -7.943,4.5638 -12.346,6.29759 -32.741,12.89131 -85.057,38.58807 -131.675,64.67707 -21.797,12.1978 -68.928,44.4178 -87.162,59.5853 -4.404,3.6629 -14.011,11.4629 -21.35,17.3334 -15.955,12.7619 -23.819,19.4405 -34.423,29.2316 -4.365,4.0303 -9.131,8.1646 -10.591,9.1873 -3.936,2.7567 -37.342,38.274 -45.965,48.8692 -7.56,9.2888 -34.545,45.5884 -41.791,56.216 -3.303,4.8436 -7.527,10.6893 -9.387,12.9905 -1.861,2.3011 -4.807,7.0361 -6.548,10.5221 -1.741,3.4861 -3.523,6.3383 -3.959,6.3383 -0.695,0 -4.5,7.0092 -8.372,15.4184 -0.694,1.508 -2.9,4.5104 -4.901,6.6719 -2.001,2.1615 -4.461,6.0316 -5.467,8.6003 -1.006,2.5686 -2.836,5.8712 -4.066,7.339 -4.026,4.8016 -10.395,15.0279 -11.351,18.2224 -0.514,1.7201 -2.374,5.6363 -4.133,8.7026 -1.758,3.0663 -3.197,6.1887 -3.197,6.9387 0,0.7499 -2.1,4.8462 -4.667,9.1029 -2.567,4.2568 -4.668,9.3711 -4.67,11.3653 v 3.6258 l 15.012,0.3773 c 8.256,0.2076 19.215,0.5032 24.352,0.657 5.138,0.1538 15.346,-0.538 22.685,-1.5374 z m 1155.871,-33.5749 c -0.444,-0.4434 -1.594,-0.4908 -2.558,-0.1054 -1.064,0.426 -0.748,0.7422 0.807,0.8062 1.406,0.058 2.194,-0.2574 1.751,-0.7008 z m 110.447,-43.6903 c 14.169,-1.2601 23.11,-2.9359 44.034,-8.2533 30.875,-7.8459 28.143,-6.1439 25.631,-15.9704 -0.187,-0.7339 -2.481,-4.9371 -5.098,-9.3406 -2.616,-4.4034 -6.455,-11.0085 -8.531,-14.678 -2.075,-3.6696 -6.282,-10.5749 -9.349,-15.3453 -3.066,-4.7704 -9.121,-14.3779 -13.454,-21.35 -4.334,-6.9721 -8.398,-12.8993 -9.032,-13.1716 -0.633,-0.2723 -0.333,-1.0137 0.667,-1.6475 1.491,-0.9445 1.458,-1.1623 -0.182,-1.2073 -1.101,-0.03 -4.103,-3.1918 -6.672,-7.0259 -5.95,-8.8816 -5.869,-8.7694 -10.39,-14.3101 -2.096,-2.5686 -4.669,-5.9382 -5.717,-7.4879 -3.015,-4.4549 -14.935,-18.1467 -18.409,-21.1444 -1.737,-1.499 -7.473,-6.9287 -12.745,-12.066 -17.269,-16.8251 -38.201,-34.6222 -45.169,-38.4042 -3.76,-2.0408 -8.971,-5.3398 -11.579,-7.3311 -6.225,-4.7528 -23.937,-15.376 -31.84,-19.0978 -3.444,-1.6217 -14.817,-7.0627 -25.273,-12.0912 -10.457,-5.0285 -19.53,-9.1426 -20.163,-9.1426 -0.633,0 -6.189,-2.3108 -12.346,-5.135 -6.157,-2.8242 -14.197,-6.1999 -17.867,-7.5015 -3.669,-1.3017 -8.501,-3.1642 -10.736,-4.139 -2.235,-0.9747 -6.889,-2.4055 -10.343,-3.1793 -3.453,-0.7739 -9.43,-2.6895 -13.282,-4.2568 -6.148,-2.501 -10.188,-2.9058 -33.025,-3.309 -26.764,-0.4726 -73.298,-2.9283 -78.052,-4.1191 -1.472,-0.3689 -8.382,-1.764 -15.354,-3.1004 -6.972,-1.3363 -17.48,-3.893 -23.351,-5.6816 -5.871,-1.7886 -14.457,-4.3376 -19.079,-5.6644 -4.622,-1.3269 -8.71,-2.9092 -9.085,-3.5163 -0.376,-0.607 -1.554,-1.1038 -2.62,-1.1038 -1.066,0 -4.483,-1.1187 -7.594,-2.486 -17.323,-7.61353 -15.923,-7.36227 -40.795,-7.32153 -17.417,0.0285 -25.639,0.60013 -31.48,2.18873 -4.348,1.1825 -8.322,1.8932 -8.83,1.5793 -1.147,-0.7093 -2.612,9.5509 -2.612,18.2991 0,5.4725 0.603,7.0808 3.669,9.7794 2.019,1.7764 4.39,3.2487 5.271,3.2719 4.644,0.1223 26.717,19.4574 41.287,36.1658 3.566,4.089 14.824,16.6988 25.019,28.0218 58.716,65.2175 68.681,74.5229 125.577,117.2717 59.012,44.3384 86.982,59.8104 131.824,72.9188 25.031,7.3171 32.562,9.1243 52.319,12.5551 8.807,1.5293 18.715,3.6383 22.017,4.6868 10.121,3.2129 26.028,4.2602 57.378,3.7775 16.513,-0.2543 32.425,-0.6759 35.361,-0.937 z m -813.189,-160.6631 c 3.864,-4.9539 7.821,-9.4872 8.795,-10.0741 0.973,-0.5869 1.77,-1.6303 1.77,-2.3187 0,-0.6884 7.505,-10.6092 16.679,-22.0462 9.174,-11.437 16.68,-21.232 16.68,-21.7667 0,-1.7529 -3.156,-4.1746 -5.441,-4.1746 -1.231,0 -2.986,-0.9007 -3.9,-2.0016 -2.713,-3.2693 -4.645,-2.3316 -7.561,3.6695 -1.515,3.1191 -2.868,6.1044 -3.007,6.6341 -0.468,1.7937 -12.394,24.345 -16.779,31.7291 -8.445,14.2223 -16.057,29.3562 -14.765,29.3562 0.277,0 3.665,-4.0532 7.529,-9.007 z m 165.352,-72.5953 c 14.488,-2.347 44.026,-11.8205 56.043,-17.9749 16.043,-8.2156 26.56,-18.0257 32.745,-30.5433 2.789,-5.6449 5.21,-12.7742 5.548,-16.3397 0.329,-3.4789 1.24,-7.6451 2.024,-9.2582 2.997,-6.16712 -2.132,-35.03095 -9.319,-52.44357 -8.132,-19.70429 -23.103,-42.13271 -30.889,-46.27663 -2.509,-1.33536 -5.662,-3.02067 -7.006,-3.74512 -1.344,-0.72446 -2.443,-2.58638 -2.443,-4.13759 0,-6.34031 -3.173,-11.29713 -11.866,-18.53834 -4.95,-4.1232 -10.47,-8.2596 -12.267,-9.19201 -5.034,-2.61152 -20.499,-6.28937 -35.247,-8.38213 -28.63,-4.06278 -28.371,-3.9983 -34.31,-8.55608 -3.147,-2.41456 -7.267,-5.79666 -9.157,-7.51579 -2.16,-1.96572 -6.617,-3.73281 -12.009,-4.76165 -7.793,-1.48694 -8.118,-1.67429 -3.57,-2.05665 6.396,-0.5377 6.34,-2.94893 -0.138,-5.93066 -8.197,-3.77313 -12.125,-2.93774 -26.883,5.71636 -8.715,5.11093 -19.224,16.47307 -27.416,29.6421 -2.168,3.48473 -4.392,6.33695 -4.942,6.33826 -0.551,10e-4 -1.001,0.58644 -1.001,1.30028 0,0.71384 -1.465,4.46676 -3.255,8.33982 -10.292,22.2627 -11.072,43.84902 -2.713,75.09487 4.468,16.70013 8.264,28.09907 12.222,36.69521 1.859,4.03648 4.333,9.44072 5.498,12.00932 1.166,2.5687 2.513,4.9706 2.993,5.3375 0.48,0.367 3.479,5.0552 6.663,10.4183 6.953,11.7096 24.331,30.6753 31.45,34.3239 2.82,1.4454 8.143,4.4604 11.829,6.7 10.458,6.3544 24.326,11.6522 36.72,14.0278 11.576,2.2186 15.427,2.1821 30.696,-0.2914 z m 700.287,-153.9496 c -0.411,-0.41083 -1.157,0.32974 -1.658,1.64573 -0.724,1.90174 -0.571,2.05501 0.747,0.74697 0.912,-0.90515 1.322,-1.98186 0.911,-2.3927 z m -1041.469,-1.17093 c 9.513,-0.79647 29.502,-5.5516 40.281,-9.58235 4.403,-1.64669 11.309,-3.99521 15.345,-5.21893 4.037,-1.22371 14.545,-4.82944 23.352,-8.01272 18.827,-6.8053 22.848,-7.75417 40.433,-9.54198 7.683,-0.78107 14.142,0.26252 13.005,2.10127 -0.828,1.3404 5.498,3.20336 7.234,2.1303 0.644,-0.39782 1.544,-2.42259 2,-4.49949 0.456,-2.0769 2.604,-8.1369 4.773,-13.46667 2.169,-5.32977 3.944,-10.2173 3.944,-10.86118 0,-0.64388 -1.626,-1.57872 -3.613,-2.07743 -6.79,-1.70407 -28.404,-18.25384 -46.806,-35.83932 -16.071,-15.35765 -40.467,-46.16713 -63.8,-80.57161 -6.527,-9.62412 -22.21,-34.24535 -25.599,-40.189 -2.78,-4.87507 -6.683,-9.12911 -11.626,-12.67083 -14.034,-10.05478 -37.38,-23.7421 -54.05,-31.68879 -9.173,-4.37328 -20.883,-9.95212 -26.02,-12.39743 -5.137,-2.44531 -12.343,-5.33653 -16.012,-6.42493 -3.67,-1.08841 -10.875,-3.57295 -16.013,-5.5212 -20.711,-7.85456 -67.654,-18.08021 -104.081,-22.67211 -9.54,-1.2027 -22.15,-3.01225 -28.022,-4.02122 -9.584,-1.64703 -40.848,-5.54411 -54.709,-6.81953 -2.935,-0.27012 -9.24,-1.10055 -14.011,-1.8454 -9.012,-1.40717 -14.467,-1.78248 -56.71,-3.90185 -24.939,-1.25116 -66.282,-0.90995 -78.061,0.64424 -3.303,0.43576 -8.707,1.00473 -12.009,1.26437 -7.739,0.60838 -22.495,2.87208 -26.354,4.04293 -6.092,1.84793 -2.205,6.09597 7.276,7.95307 5.212,1.0209 19.457,13.89494 30.551,27.61083 10.806,13.36079 41.936,47.91571 52.537,58.31719 11.102,10.89322 47.805,44.31077 57.417,52.27785 14.867,12.32213 35.833,29.03177 53.375,42.53977 31.795,24.48282 39.102,29.98277 52.708,39.67263 56.096,39.94978 68.414,48.05047 92.071,60.54549 21.338,11.26991 63.756,24.89992 90.738,29.15619 7.598,1.19858 33.643,0.97551 50.456,-0.43216 z m 433.956,-76.04238 c 25.1,-20.11969 42.392,-35.58131 51.648,-46.18073 10.788,-12.35248 26.104,-26.48123 39.721,-36.63962 4.77,-3.55888 10.775,-8.89732 13.344,-11.8632 11.807,-13.63278 29.44,-36.38186 31.397,-40.50527 1.19,-2.50662 4.762,-8.27631 7.94,-12.82153 5.157,-7.37804 13.912,-23.61759 19.999,-37.0984 1.198,-2.65303 3.199,-5.9556 4.446,-7.33905 2.439,-2.70405 3.405,-5.04055 10.144,-24.53247 7.398,-21.39573 10.025,-30.77145 12.9,-46.03582 3.781,-20.07758 6.766,-37.89406 7.155,-42.69988 0.178,-2.20172 0.691,-5.20405 1.14,-6.67186 0.989,-3.23419 2.657,-21.96718 2.613,-29.35617 -0.02,-2.93562 -0.1,-11.04193 -0.176,-18.01402 -0.08,-6.97209 -0.138,-14.77816 -0.129,-17.34682 0.04,-12.73737 -0.287,-17.91389 -2.091,-32.6921 -1.076,-8.80686 -2.274,-18.71456 -2.663,-22.01713 -0.389,-3.30257 -1.526,-8.40654 -2.525,-11.34216 -3.89,-11.41898 -6.085,-19.80582 -6.085,-23.24969 0,-1.97717 -0.891,-4.76043 -1.98,-6.18504 -1.089,-1.4246 -2.599,-4.69182 -3.356,-7.26048 -2.376,-8.062 -13.596,-18.57265 -16.9,-15.8309 -1.019,0.84565 -1.491,2.63819 -1.056,4.00891 0.587,1.85018 -0.16,2.83936 -2.945,3.8982 -2.053,0.78039 -4.044,1.83167 -4.426,2.33619 -1.75,2.31115 -34.488,18.93131 -37.291,18.93131 -0.788,0 -1.433,0.60047 -1.433,1.33437 0,0.73391 -1.196,1.33437 -2.658,1.33437 -1.461,0 -3.407,1.20094 -4.324,2.66875 -0.916,1.4678 -2.18,2.66874 -2.807,2.66874 -0.628,0 -2.772,1.16101 -4.765,2.58002 -1.993,1.41901 -5.388,2.9933 -7.545,3.49841 -2.157,0.50512 -6.624,2.60826 -9.926,4.67366 -3.303,2.06539 -7.684,4.38992 -9.737,5.16562 -2.052,0.7757 -9.47,5.01738 -16.485,9.42597 -7.014,4.40858 -13.042,8.0156 -13.395,8.0156 -0.353,0 -6.145,3.70083 -12.871,8.22405 -19.624,13.19691 -37.28,28.20824 -50.834,43.21837 -12.559,13.90926 -32.342,39.17671 -33.818,43.19415 -0.425,1.15795 -1.17,2.4056 -1.655,2.77255 -2.504,1.89266 -11.554,16.66689 -16.135,26.33941 -7.197,15.19616 -10.884,25.34684 -17.191,47.32722 -10.69,37.25916 -12.986,59.13239 -12.58,119.81722 0.186,27.80648 0.754,37.19745 3.104,51.3733 6.254,37.72734 10.366,52.70767 14.468,52.70767 1.179,0 3.988,0.55978 6.242,1.24396 2.254,0.68417 6.8,1.9871 10.103,2.89539 3.302,0.90829 6.605,2.31814 7.339,3.133 0.734,0.81485 5.237,3.20141 10.008,5.30345 9.724,4.28508 22.787,12.86504 21.863,14.36022 -0.958,1.55006 8.899,11.76076 11.353,11.76076 1.219,0 7.003,-3.83783 12.855,-8.5285 z m -239.989,-38.98989 c 6.435,-5.22705 14.246,-8.45142 26.077,-10.76576 2.409,-0.47121 5.581,-1.60404 7.049,-2.51742 1.468,-0.91337 8.273,-3.56345 15.124,-5.88907 9.827,-3.33631 15.563,-4.39236 27.187,-5.00559 l 14.733,-0.7772 -0.75,-7.46395 c -0.412,-4.10517 -1.751,-14.36932 -2.975,-22.80922 -1.594,-10.97997 -2.35,-27.11263 -2.658,-56.71079 -0.448,-43.04871 -1.613,-57.64685 -6.12,-76.72636 -1.474,-6.23818 -3.832,-16.61547 -5.239,-23.06064 -1.407,-6.44517 -3.212,-12.93916 -4.01,-14.43109 -0.799,-1.49193 -1.699,-3.99199 -2,-5.55568 -1.948,-10.11638 -20.499,-48.66833 -33.525,-69.67246 -3.175,-5.11835 -5.772,-9.85155 -5.772,-10.51823 0,-1.08564 -4.477,-8.8923 -24.157,-42.12118 -9.527,-16.08706 -9.801,-16.53883 -13.583,-22.42698 -1.994,-3.10451 -3.625,-6.05956 -3.625,-6.56678 0,-0.50723 -0.859,-1.87155 -1.909,-3.03183 -1.05,-1.16028 -2.708,-3.60943 -3.683,-5.44256 -5.344,-10.04361 -30.507,-46.76487 -39.193,-57.19537 -3.168,-3.8043 -19.542,-20.30018 -22.184,-22.34878 -1.055,-0.81752 -3.982,-2.43481 -6.505,-3.59397 -7.75,-3.56093 -11.183,-3.40614 -17.411,0.78514 -6.236,4.19658 -15.007,6.57869 -20.458,5.55608 -3.344,-0.62737 -5.47,-0.19685 -7.95,1.61015 -1.862,1.35657 -3.404,3.03587 -3.427,3.73178 -0.02,0.69591 -4.425,9.40268 -9.781,19.34839 -5.357,9.9457 -10.822,20.78519 -12.146,24.08776 -1.323,3.30257 -3.842,9.30724 -5.597,13.34371 -4.086,9.39722 -13.214,40.77312 -15.14,52.04049 -9.081,53.12745 -8.741,90.32199 1.185,129.76555 8.224,32.67661 13.782,47.48761 28.736,76.56612 12.585,24.4722 13.401,25.56673 26.483,35.51438 5.997,4.55997 16.993,14.00829 24.436,20.99626 7.443,6.98796 14.348,13.38233 15.345,14.2097 0.997,0.82737 2.765,2.62878 3.928,4.00312 1.163,1.37434 8.015,7.903 15.227,14.50814 7.211,6.60514 15.266,14.29411 17.9,17.08661 2.634,2.7925 8.616,9.05466 13.293,13.91592 10.718,11.13881 16.182,18.64696 16.184,22.23894 0,1.54117 1.502,4.54681 3.336,6.6792 1.833,2.13238 3.334,4.41957 3.334,5.08264 0,1.55139 1.787,0.4276 10.241,-6.43917 z m 91.695,-13.63113 c 0.375,-0.60654 0.34,-2.40794 -0.08,-4.00312 -0.642,-2.45522 -1.707,-2.89717 -6.941,-2.87987 -8.02,0.0265 -11.669,2.06972 -6.113,3.42289 2.164,0.52687 5.118,1.76906 6.566,2.76043 2.988,2.0461 5.563,2.3206 6.565,0.69967 z m -827.834,-193.09012 c 0,-2.47434 -2.725,-3.67038 -6.909,-3.03274 -3.004,0.4579 -2.976,0.54115 0.904,2.72084 5.02,2.81969 6.005,2.87083 6.005,0.3119 z m 1108.862,-268.83396 c 0,-0.7339 -0.264,-1.33437 -0.588,-1.33437 -0.324,0 -0.96,0.60047 -1.413,1.33437 -0.454,0.7339 -0.189,1.33437 0.588,1.33437 0.778,0 1.413,-0.60047 1.413,-1.33437 z m -525.982,-13.72104 c 0.781,-0.94143 2.047,-3.35983 2.813,-5.37423 1.291,-3.39629 1.202,-3.56065 -1.227,-2.26084 -3.988,2.1342 -7.212,9.34677 -4.178,9.34677 0.644,0 1.81,-0.77027 2.592,-1.7117 z m 886.461,1046.31655 c -14.154,-1.6606 -12.188,-1.926 11.303,-1.5257 12.389,0.2111 24.877,0.3873 27.751,0.3916 2.875,0 4.777,0.4576 4.227,1.0075 -1.31,1.3102 -32.418,1.4011 -43.281,0.1266 z m -1.533,-359.2624 c 0,-0.2884 0.932,-0.882 2.071,-1.3191 1.188,-0.4556 1.723,-0.2319 1.256,0.5245 -0.784,1.2679 -3.327,1.8754 -3.327,0.7946 z m 93.406,-56.85351 c 0,-0.73391 0.636,-1.33438 1.413,-1.33438 0.778,0 1.042,0.60047 0.589,1.33438 -0.454,0.7339 -1.09,1.33437 -1.413,1.33437 -0.324,0 -0.589,-0.60047 -0.589,-1.33437 z"
       id="path30" />
  </g>
</svg>
