<?xml version="1.0" encoding="UTF-8" standalone="no"?>
<!-- Created with Inkscape (http://www.inkscape.org/) -->

<svg
   version="1.1"
   id="svg1"
   width="1820.6141"
   height="1017.9668"
   viewBox="0 0 1820.6141 1017.9669"
   sodipodi:docname="mountain.svg"
   inkscape:version="1.4.3 (0d15f75, 2025-12-25)"
   inkscape:export-batch-name="doodles"
   inkscape:export-batch-path="C:\Users\Kjmut\Downloads\doodles"
   xmlns:inkscape="http://www.inkscape.org/namespaces/inkscape"
   xmlns:sodipodi="http://sodipodi.sourceforge.net/DTD/sodipodi-0.dtd"
   xmlns="http://www.w3.org/2000/svg"
   xmlns:svg="http://www.w3.org/2000/svg">
  <sodipodi:namedview
     id="namedview1"
     pagecolor="#505050"
     bordercolor="#eeeeee"
     borderopacity="1"
     inkscape:showpageshadow="0"
     inkscape:pageopacity="0"
     inkscape:pagecheckerboard="0"
     inkscape:deskcolor="#505050"
     inkscape:zoom="0.36251647"
     inkscape:cx="2884.0069"
     inkscape:cy="1148.9133"
     inkscape:window-width="1920"
     inkscape:window-height="1051"
     inkscape:window-x="-9"
     inkscape:window-y="-9"
     inkscape:window-maximized="1"
     inkscape:current-layer="g2" />
  <defs
     id="defs1" />
  <g
     id="g11"
     inkscape:groupmode="layer"
     inkscape:label="11"
     transform="translate(-19545.756,-506.77743)">
    <path
       style="fill:#000000"
       d="m 20555.34,1523.7795 c -4.544,-0.8715 -25.407,-1.9136 -68.049,-3.3989 -30.717,-1.07 -48.72,-3.7398 -86.729,-12.8616 -23.094,-5.5423 -31.038,-7.9321 -54.706,-16.4572 -7.339,-2.6434 -16.222,-5.7053 -19.741,-6.8044 -3.519,-1.0991 -9.163,-3.4681 -12.541,-5.2645 -3.379,-1.7963 -6.901,-3.2661 -7.827,-3.2661 -5.819,0 -48.012,-20.5288 -69.303,-33.7188 -5.871,-3.6371 -11.875,-7.1335 -13.343,-7.7698 -1.468,-0.6362 -6.713,-3.7203 -11.657,-6.8535 -30.345,-19.2338 -61.593,-38.6442 -69.068,-42.9033 -8.498,-4.8424 -23.362,-15.3622 -42.901,-30.362 -15.565,-11.9487 -50.722,-49.0589 -70.549,-74.4684 -5.01,-6.4208 -5.772,-7.5911 -10.293,-15.818 -1.644,-2.9922 -4.355,-7.4521 -6.023,-9.9109 -1.669,-2.4589 -6.272,-11.05 -10.229,-19.0914 -3.958,-8.0414 -7.792,-15.3921 -8.522,-16.3347 -1.975,-2.5511 -10.306,-22.9342 -11.571,-28.3077 -1.379,-5.8589 -3.648,-12.3748 -6.866,-19.7165 -1.375,-3.1385 -2.501,-7.2107 -2.501,-9.0493 0,-1.8386 -0.9,-5.4984 -2.001,-8.133 -1.101,-2.6346 -2.002,-6.1283 -2.002,-7.7638 0,-5.9471 -2.712,-11.0749 -6.212,-11.744 -3.393,-0.6485 -21.854,4.3583 -28.921,7.8434 -2.077,1.0247 -6.01,1.863 -8.74,1.863 -2.729,0 -5.568,0.6065 -6.309,1.3477 -0.742,0.7413 -7.617,1.6672 -15.278,2.0576 -7.662,0.3903 -21.397,1.2541 -30.522,1.9195 -10.741,0.7832 -20.388,0.7283 -27.353,-0.1555 -6.052,-0.7678 -16.016,-0.9446 -22.77,-0.404 -52.269,4.184 -134.139,3.5375 -142.751,-1.1273 -1.753,-0.9492 -13.816,-1.3977 -34.709,-1.2904 -34.314,0.1762 -52.732,-2 -65.884,-7.7845 -3.212,-1.4129 -6.93,-2.5688 -8.263,-2.5688 -4.212,0 -11.108,-4.998 -16.313,-11.8232 -2.766,-3.6273 -4.915,-7.1043 -4.774,-7.7267 0.14,-0.6224 -0.135,-2.0323 -0.612,-3.1331 -3.264,-7.5311 -4.401,-14.7001 -3.399,-21.4292 0.594,-3.9919 1.459,-10.2602 1.921,-13.9295 0.462,-3.6693 1.684,-8.5635 2.715,-10.876 1.031,-2.3125 1.875,-5.5067 1.875,-7.0982 0,-4.9123 7.598,-14.2589 17.882,-21.9994 5.404,-4.0666 10.376,-7.3938 11.049,-7.3938 0.674,0 6.303,-4.6533 12.509,-10.3407 19.221,-17.6143 25.07,-21.39992 57.965,-37.51412 26.126,-12.7983 45.483,-21.45569 66.715,-29.83897 33.259,-13.13207 43.943,-16.9416 68.522,-24.43306 12.949,-3.94678 34.352,-10.86477 47.561,-15.3733 33.504,-11.43532 45.748,-13.00181 99.216,-12.69374 27.342,0.15755 40.631,-0.22184 40.891,-1.16737 0.212,-0.77042 2.549,-9.05347 5.193,-18.40678 2.644,-9.35331 4.808,-17.89339 4.808,-18.97796 0,-1.08458 1.151,-4.53985 2.558,-7.67839 1.408,-3.13854 3.309,-9.30902 4.226,-13.71218 0.917,-4.40317 2.459,-9.61024 3.426,-11.57127 0.968,-1.96104 2.72,-6.46427 3.894,-10.00719 2.332,-7.0409 3.534,-9.1857 30.888,-55.14333 25.172,-42.28963 49.426,-77.12978 69.274,-99.51007 4.505,-5.07909 12.964,-14.63859 18.799,-21.24334 5.834,-6.60474 15.924,-16.81208 22.421,-22.68296 6.497,-5.87088 17.252,-15.64347 23.899,-21.71685 12.473,-11.39627 24.614,-20.224 36.145,-26.28181 3.646,-1.91551 13.234,-7.64346 21.307,-12.72877 33.942,-21.38247 55.06,-29.39047 107.41,-40.73115 8.44,-1.82824 17.665,-4.23835 20.502,-5.35581 14.066,-5.54148 22.414,-6.24948 72.899,-6.18272 37.053,0.049 51.414,0.54187 60.043,2.06067 6.238,1.09795 22.449,2.72255 36.026,3.61024 15.711,1.02727 26.258,2.3297 29.015,3.58291 2.742,1.24662 6.01,1.65408 8.906,1.11068 2.517,-0.47206 8.373,-0.25351 13.015,0.48565 4.642,0.73916 16.846,1.61396 27.12,1.94401 12.412,0.39873 15.874,0.25308 10.319,-0.43407 -13.204,-1.63328 -11.618,-3.23077 2.27,-2.28639 11.923,0.81073 19.052,2.28861 24.528,5.08497 1.335,0.6813 10.87,1.80648 21.19,2.5004 10.938,0.73545 22.448,2.33768 27.596,3.84147 4.857,1.41888 15.897,4.1426 24.533,6.05272 8.635,1.91011 21.402,4.9542 28.37,6.76464 6.968,1.81045 13.768,3.29172 15.112,3.29172 2.256,0 20.012,5.54748 37.567,11.73746 4.045,1.42601 12.889,5.37276 19.654,8.77056 6.766,3.3978 13.576,6.17782 15.133,6.17782 1.558,0 8.209,-1.8013 14.78,-4.00288 14.17,-4.74736 13.964,-4.72881 14.851,-1.33429 0.384,1.46772 1.643,2.66858 2.799,2.66858 1.208,0 2.441,1.55915 2.902,3.66931 0.44,2.01811 1.49,5.47059 2.331,7.67217 0.842,2.20158 1.559,4.60331 1.595,5.33717 0.157,3.23358 6.631,11.50768 11.108,14.19618 6.631,3.98179 20.549,12.90051 30.067,19.26578 4.303,2.87788 10.985,7.33401 14.85,9.90253 15.004,9.97097 38.975,30.38588 53.458,45.52768 9.414,9.84212 36.961,42.46841 46.764,55.38652 2.858,3.76565 8.578,10.97082 12.711,16.0115 4.133,5.04068 11.707,15.47817 16.831,23.19442 12.087,18.2034 11.957,18.10265 19.971,15.49456 6.141,-1.99862 28.791,-5.97513 49.751,-8.73441 9.829,-1.29406 16.798,-0.58878 22.072,2.23377 1.602,0.85731 13.176,1.48193 29.052,1.56791 25.601,0.13865 62.822,2.94163 70.963,5.34403 2.202,0.64968 7.606,1.55463 12.009,2.01101 8.724,0.90416 10.785,1.42928 26.686,6.7988 5.871,1.9825 12.175,3.92531 14.01,4.31737 3.406,0.72789 33.991,19.80408 40.029,24.96647 1.834,1.56867 4.906,3.51607 6.825,4.32754 1.919,0.81147 5.822,4.37466 8.673,7.9182 2.851,3.54353 6.495,7.50916 8.099,8.8125 1.604,1.30333 3.863,5.62846 5.021,9.61139 1.158,3.98294 2.723,7.62334 3.478,8.0898 0.87,0.53789 1.269,9.01665 1.091,23.18108 -0.154,12.28314 0.06,22.88993 0.48,23.57064 0.732,1.18934 -1.566,15.73457 -4.16,26.33997 -3.582,14.64703 -28.457,38.86483 -48.955,47.66349 -15.6,6.69586 -57.723,21.30179 -61.434,21.30179 -1.308,0 -7.211,1.7328 -13.119,3.8506 -5.908,2.1178 -15.845,5.2249 -22.083,6.9045 -6.238,1.6796 -17.346,4.9892 -24.684,7.3546 -7.339,2.3654 -19.347,5.3102 -26.686,6.5441 -16.428,2.7622 -28.262,5.8872 -29.811,7.8722 -0.643,0.8241 -2.18,10.8247 -3.416,22.2235 -2.485,22.9189 -5.191,39.6973 -8.053,49.9318 -1.036,3.7026 -3.224,11.5355 -4.862,17.4064 -8.391,30.0681 -21.223,61.6382 -31.969,78.6531 -2.905,4.6003 -5.282,8.8334 -5.282,9.4068 0,0.5734 -1.889,4.1111 -4.198,7.8615 -2.309,3.7505 -5.969,10.1214 -8.133,14.1577 -15.919,29.6837 -38.374,61.9357 -55.287,79.4074 -6.475,6.6889 -13.925,14.5252 -16.555,17.4138 -2.631,2.8887 -6.616,7.0534 -8.855,9.255 -2.24,2.2015 -12.697,12.89 -23.238,23.752 -10.541,10.8621 -22.167,21.651 -25.836,23.9754 -3.67,2.3243 -12.376,9.1284 -19.348,15.1201 -25.102,21.5735 -45.616,36.5506 -53.013,38.7035 -3.839,1.1174 -7.286,2.5261 -7.66,3.1306 -0.373,0.6044 -2.273,1.4991 -4.222,1.9882 -3.27,0.8207 -44.025,19.1986 -53.189,23.9851 -2.202,1.1499 -4.503,2.0944 -5.114,2.0989 -0.611,0 -5.414,1.8751 -10.674,4.1569 -5.26,2.2818 -11.365,4.9142 -13.567,5.8498 -5.146,2.1871 -17.354,5.76 -23.35,6.834 -2.568,0.4601 -7.072,2.1921 -10.007,3.849 -8.717,4.92 -47.762,14.2735 -58.042,13.904 -3.302,-0.1187 -8.295,0.782 -11.096,2.0014 -2.801,1.2195 -8.505,2.484 -12.676,2.8099 -4.171,0.326 -12.988,1.2045 -19.592,1.9522 -6.605,0.7478 -18.914,1.8978 -27.353,2.5556 -8.44,0.6578 -18.047,1.8211 -21.349,2.5852 -17.776,4.1128 -24.64,4.6973 -34.024,2.8972 z m 16.011,-59.9671 c 26.247,-1.5481 74.795,-8.9673 93.22,-14.246 3.57,-1.0229 7.617,-1.8597 8.992,-1.8597 1.375,0 6.86,-1.1393 12.189,-2.5316 5.328,-1.3924 14.192,-3.5548 19.695,-4.8052 5.504,-1.2505 11.809,-3.0784 14.011,-4.0619 2.201,-0.9836 9.106,-3.6662 15.344,-5.9615 6.238,-2.2953 15.845,-6.3063 21.349,-8.9132 5.504,-2.607 17.512,-7.5838 26.685,-11.0595 9.174,-3.4757 19.681,-7.8406 23.351,-9.6996 22.357,-11.3275 31.142,-16.2953 34.691,-19.6178 2.202,-2.0608 5.429,-4.4808 7.172,-5.3778 4.196,-2.1587 13.943,-9.388 22.095,-16.3869 21.198,-18.1993 55.421,-50.0441 64.267,-59.7998 2.274,-2.5089 7.078,-7.3327 10.674,-10.7195 23.283,-21.9279 30.369,-30.9572 64.071,-81.6461 5.363,-8.0661 10.855,-18.0282 25.389,-46.0502 3.927,-7.5723 9.022,-16.503 11.322,-19.846 4.071,-5.9158 4.736,-7.7371 8.433,-23.0935 1.831,-7.6047 5.569,-20.0362 7.423,-24.6844 3.824,-9.5886 10.329,-49.484 8.742,-53.6179 -0.666,-1.7366 -4.302,-1.9047 -26.477,-1.2242 -14.137,0.4338 -33.482,0.1951 -42.989,-0.5305 -15.541,-1.1862 -63.076,-1.5796 -94.742,-0.7841 -45.89,1.1529 -79.319,2.2982 -82.775,2.8359 -2.228,0.3467 -17.239,0.9262 -33.357,1.2877 -16.118,0.3615 -35.61,0.9753 -43.315,1.3641 -44.425,2.2413 -86.256,4.8105 -96.737,5.9413 -16.896,1.8229 -29.023,2.4756 -63.378,3.4113 -16.512,0.4497 -30.923,1.1775 -32.023,1.6173 -1.101,0.4398 -5.304,0.915 -9.341,1.0559 -4.036,0.1408 -12.742,0.9191 -19.347,1.7294 -6.605,0.8103 -14.71,1.374 -18.013,1.2527 -19.367,-0.7114 -101.168,3.2491 -141.39,6.8457 -8.415,0.7524 -16.615,1.0382 -18.221,0.635 -1.607,-0.4032 -4.328,0.1708 -6.049,1.2756 -1.972,1.2665 -9.783,2.5876 -21.141,3.5755 -9.907,0.8618 -18.613,2.027 -19.347,2.5893 -1.208,0.9258 -6.153,2.0024 -15.344,3.3411 -1.835,0.2672 -8.44,1.4675 -14.677,2.6674 -6.238,1.2 -18.247,2.7439 -26.686,3.4311 -15.738,1.2813 -60.794,7.0897 -72.719,9.3743 -3.669,0.703 -21.382,2.4757 -39.362,3.9394 -17.979,1.4638 -36.292,3.2309 -40.696,3.927 -4.403,0.6961 -11.908,1.8836 -16.678,2.6388 -4.77,0.7552 -11.675,1.7628 -15.345,2.2391 -3.669,0.4763 -7.872,1.113 -9.34,1.4149 -1.467,0.3019 -6.705,1.0088 -11.638,1.5711 -4.934,0.5622 -9.351,1.4035 -9.817,1.8695 -0.466,0.466 -0.209,3.7347 0.572,7.2639 9.803,44.3159 18.755,74.3266 26.291,88.1422 2.502,4.5866 4.319,8.3393 4.037,8.3393 -0.282,0 1.981,3.8697 5.029,8.5994 3.047,4.7296 8.507,13.2858 12.133,19.0136 16.147,25.5081 50.83,63.7128 74.8,82.3941 11.524,8.9822 32.876,22.7782 43.872,28.3478 3.757,1.9029 10.57,5.9262 15.14,8.9407 4.57,3.0144 17.683,11.4851 29.141,18.8237 11.457,7.3386 25.651,16.5165 31.542,20.3953 5.89,3.8788 12.591,7.8989 14.89,8.9337 2.3,1.0347 5.682,2.753 7.517,3.8184 5.148,2.9896 35.944,16.8886 37.42,16.8886 0.721,0 2.353,0.5684 3.627,1.2631 1.274,0.6947 5.92,2.4692 10.323,3.9433 4.403,1.474 14.01,4.857 21.349,7.5176 7.338,2.6606 17.51,6.0237 22.604,7.4737 5.094,1.4499 10.799,3.4729 12.676,4.4956 7.3,3.976 34.702,8.5595 70.796,11.8418 9.124,0.8298 73.947,-0.3265 98.07,-1.7493 z m -103.639,-10.3157 c -1.962,-0.3357 -4.526,-2.073 -5.697,-3.8604 -1.171,-1.7875 -4.25,-4.1359 -6.841,-5.2186 -3.245,-1.3556 -4.587,-2.7044 -4.31,-4.3318 0.281,-1.6553 -1.513,-3.3659 -5.989,-5.7106 -5.227,-2.7386 -6.232,-3.8325 -5.528,-6.0159 0.474,-1.4677 1.315,-6.7852 1.87,-11.8166 1.075,-9.7544 2.311,-11.4945 7.466,-10.5093 2.204,0.4214 3.249,0.014 3.249,-1.2658 0,-1.4688 2.292,-1.875 10.341,-1.8329 10.938,0.057 47.132,-1.5514 58.375,-2.5945 7.285,-0.6758 33.658,-2.0701 50.953,-2.6938 14.231,-0.5132 19.498,-1.6778 18.566,-4.1053 -0.532,-1.3881 0.482,-1.8748 3.909,-1.8748 2.545,0 4.628,0.671 4.628,1.4911 0,1.8142 13.582,0.7648 36.228,-2.7991 12.688,-1.9967 17.595,-2.2033 26.686,-1.1235 6.127,0.7278 11.657,1.8205 12.291,2.4283 1.558,1.4953 -0.152,4.0061 -2.728,4.0061 -1.703,0 -1.781,0.3675 -0.425,2.0014 1.095,1.3201 4.217,2.0334 9.17,2.0952 4.13,0.052 8.677,0.5512 10.106,1.1102 2.451,0.9591 2.425,1.0612 -0.45,1.8131 -3.775,0.9872 -3.354,5.4782 0.567,6.0427 2.339,0.3368 2.674,1.3478 2.587,7.8145 -0.1,7.0626 -0.311,7.5162 -4.389,9.2309 -2.359,0.9919 -4.652,2.75 -5.096,3.9071 -0.806,2.0997 -10.257,7.3479 -13.233,7.3479 -0.864,0 -3.11,1.2111 -4.992,2.6913 -3.36,2.6429 -8.997,4.1978 -23.656,6.525 -4.054,0.6435 -9.466,2.0456 -12.027,3.1157 -7.086,2.9606 -22.366,3.7924 -63.329,3.4475 -40.459,-0.3406 -68.949,-0.085 -84.728,0.7596 -5.504,0.2947 -11.612,0.2611 -13.574,-0.075 z m 68.283,-58.161 c 0,-1.3032 10.557,-1.1218 14.007,0.2405 1.699,0.6707 -0.362,1.0004 -5.667,0.907 -4.585,-0.081 -8.338,-0.5971 -8.34,-1.1475 z m 21.096,-1.9122 c 0.963,-0.3854 2.114,-0.338 2.557,0.1054 0.444,0.4433 -0.344,0.7587 -1.751,0.7008 -1.554,-0.064 -1.871,-0.3802 -0.806,-0.8062 z m 6.079,-0.025 c 0.984,-0.9843 10.312,-0.7129 11.355,0.3304 0.334,0.3335 -2.295,0.6063 -5.842,0.6063 -3.547,0 -6.028,-0.4215 -5.513,-0.9367 z m 14.544,0.012 c 1.299,-0.3383 3.1,-0.316 4.003,0.05 0.904,0.3655 -0.159,0.6423 -2.36,0.6151 -2.202,-0.027 -2.941,-0.3263 -1.643,-0.6646 z m 23.659,-1.7439 c 0,-0.7339 0.6,-1.3343 1.334,-1.3343 0.734,0 1.334,0.6004 1.334,1.3343 0,0.7339 -0.6,1.3343 -1.334,1.3343 -0.734,0 -1.334,-0.6004 -1.334,-1.3343 z m -327.731,-5.8017 c -3.024,-0.8453 -6.471,-2.3562 -7.659,-3.3576 -1.189,-1.0015 -4.418,-2.5994 -7.177,-3.551 -3.636,-1.2541 -5.026,-2.5029 -5.053,-4.5377 -0.03,-1.9243 -1.704,-3.6328 -5.337,-5.4313 -7.009,-3.4697 -9.235,-6.9803 -6.98,-11.0116 0.924,-1.6511 2.218,-3.3923 2.876,-3.8692 0.675,-0.4886 0.301,-3.1091 -0.857,-6.0043 l -2.053,-5.1372 10.197,-2.4811 c 5.608,-1.3646 18.602,-2.9455 28.877,-3.513 26.85,-1.4831 64.367,-3.0473 81.391,-3.3934 8.073,-0.1642 17.961,-0.9022 21.973,-1.64 4.013,-0.7379 8.005,-1.0695 8.872,-0.7369 0.866,0.3327 1.972,-0.037 2.456,-0.8205 0.485,-0.7838 3.628,-1.4252 6.986,-1.4252 6.281,0 14.741,-1.8538 20.175,-4.4206 2.054,-0.9705 2.874,-2.2733 2.45,-3.8949 -0.551,-2.1067 -0.04,-2.3248 3.765,-1.6108 2.62,0.4914 4.766,0.237 5.301,-0.6282 0.494,-0.7998 3.119,-1.4541 5.832,-1.4541 2.714,0 7.032,-0.6667 9.595,-1.4815 2.618,-0.8321 13.434,-1.4434 24.676,-1.3947 20.089,0.087 34.502,-1.0165 49.334,-3.7769 5.932,-1.1039 8.702,-1.0927 10.826,0.044 4.327,2.3158 15.695,0.8045 19.029,-2.5298 1.541,-1.541 4.168,-3.0558 5.838,-3.3662 12.409,-2.3065 23.164,-3.9315 31.723,-4.7928 5.504,-0.5539 11.509,-1.3946 13.343,-1.8683 6.038,-1.5589 25.882,-3.7851 33.264,-3.7318 3.984,0.029 8.377,-0.5536 9.76,-1.2942 3.366,-1.8012 34.683,-3.8042 36.3,-2.3217 0.697,0.6393 2.575,1.1623 4.173,1.1623 4.016,0 7.117,3.7503 4.481,5.4185 -1.054,0.6666 -2.967,1.2213 -4.251,1.2325 -1.284,0.011 -2.335,0.5373 -2.335,1.1689 0,1.9062 13.329,2.869 19.761,1.4275 3.813,-0.8546 6.483,-0.8829 7.289,-0.077 1.9,1.9 0.188,3.7288 -4.339,4.6341 -6.708,1.3416 -4.551,3.2651 4.976,4.4359 9.71,1.1935 65.116,0.9666 67.125,-0.2748 0.67,-0.414 9.353,-1.0819 19.295,-1.4842 14.908,-0.6031 18.868,-0.3563 22.584,1.407 3.455,1.6397 7.48,2.0161 17.258,1.6142 11.564,-0.4754 12.827,-0.2906 13.548,1.9833 0.438,1.3792 0.506,2.9774 0.151,3.5517 -0.355,0.5743 3.841,1.0835 9.325,1.1317 7.139,0.063 10.559,0.6755 12.041,2.1578 1.456,1.4563 3.611,1.8635 7.267,1.3731 6.364,-0.8535 7.149,1.8182 1.194,4.0656 -2.201,0.8311 -4.003,2.262 -4.003,3.1799 0,0.918 -1.801,3.0007 -4.002,4.6284 -4.745,3.5078 -4.992,4.8466 -1.156,6.2657 2.812,1.0399 2.803,1.0894 -0.706,3.8492 -1.955,1.5377 -6.088,3.1878 -9.186,3.6669 -9.905,1.532 -14.584,3.4099 -13.062,5.2428 1.486,1.7905 -9.42,3.9731 -29.985,6.0007 -5.901,0.5819 -12.003,1.7397 -13.56,2.5729 -1.557,0.8332 -5.735,1.5792 -9.285,1.6576 -8.793,0.1944 -12.06,1.1246 -9.632,2.7427 1.19,0.7934 0.425,0.8829 -2.159,0.2525 -6.59,-1.6074 -10.718,-1.3101 -10.281,0.7405 0.302,1.4195 -0.624,1.6318 -4.003,0.9179 -9.734,-2.0562 -18.49,-2.228 -33.75,-0.6624 -8.807,0.9036 -29.221,1.883 -45.366,2.1767 -16.145,0.2936 -31.756,0.5933 -34.692,0.6659 -2.935,0.073 -12.242,-0.3266 -20.681,-0.8872 -8.44,-0.5606 -17.146,-0.979 -19.348,-0.9296 -5.593,0.1253 -41.202,2.7505 -49.852,3.6752 -5.284,0.565 -6.902,0.3561 -6.188,-0.7991 0.723,-1.1701 -1.45,-1.3424 -8.631,-0.6842 -7.786,0.7136 -29.23,0.9652 -43.406,0.5093 -1.468,-0.047 -8.673,0.2946 -16.012,0.7596 -7.338,0.4649 -17.846,1.1305 -23.35,1.4791 -5.504,0.3485 -13.607,1.2591 -18.007,2.0236 -4.4,0.7645 -9.079,1.1076 -10.399,0.7626 -1.319,-0.345 -4.324,-0.014 -6.677,0.7347 -4.314,1.3735 -12.4,2.0502 -35.634,2.9825 -6.972,0.2798 -22.583,1.4664 -34.692,2.637 -12.109,1.1705 -26.033,2.1307 -30.943,2.1336 -4.911,0 -9.299,0.6059 -9.753,1.3398 -0.975,1.5777 -10.645,1.6176 -20.007,0.082 -4.642,-0.7612 -8.488,-0.539 -12.676,0.7323 -7.046,2.139 -10.686,2.15 -18.182,0.055 z m 269.022,-78.2587 c 0,-0.7338 0.901,-1.3343 2.001,-1.3343 1.101,0 2.002,0.6005 2.002,1.3343 0,0.7339 -0.901,1.3343 -2.002,1.3343 -1.1,0 -2.001,-0.6004 -2.001,-1.3343 z m -84.174,-17.9038 c -0.42,-0.4199 -7.321,-1.0534 -15.336,-1.4078 -8.014,-0.3544 -19.976,-1.2172 -26.581,-1.9174 -34.009,-3.6054 -39.131,-4.2381 -44.352,-5.4786 -3.111,-0.7394 -10.317,-1.6981 -16.011,-2.1306 -21.08,-1.6006 -55.34,-8.6619 -73.669,-15.1836 -6.202,-2.207 -12.097,-4.0127 -13.098,-4.0127 -1.002,0 -7.336,-2.687 -14.075,-5.9712 -14.084,-6.864 -33.24,-22.0647 -38.148,-30.2722 -3.498,-5.8509 -4.636,-16.8314 -1.981,-19.1297 2.347,-2.0321 3.538,-12.2582 1.517,-13.0295 -0.913,-0.3488 -13.591,-0.7211 -28.173,-0.8273 -14.581,-0.1063 -27.019,-0.5067 -27.639,-0.8897 -0.62,-0.3831 -10.605,-0.9845 -22.189,-1.3365 -11.962,-0.3636 -25.342,-1.5753 -30.966,-2.8043 -8.754,-1.9131 -10.6,-2.8782 -15.904,-8.3171 -3.301,-3.3841 -6.5,-6.0028 -7.109,-5.8193 -0.61,0.1834 -1.109,-0.2669 -1.109,-1.0007 0,-0.7339 -0.841,-1.3343 -1.869,-1.3343 -1.717,0 -5.269,-4.6835 -10.011,-13.2004 -2.37,-4.2564 -2.7,-12.1531 -0.509,-12.152 2.539,0 4.538,-4.9248 3.567,-8.7923 -0.776,-3.0929 -0.555,-3.4073 1.857,-2.6417 1.506,0.478 3.117,0.2555 3.581,-0.4943 0.463,-0.7499 3.565,-1.1082 6.893,-0.7962 3.328,0.312 7.353,0.079 8.943,-0.5178 1.591,-0.5968 12.8,-0.5775 24.909,0.043 39.203,2.0082 63.576,3.6009 70.717,4.6209 7.076,1.0107 99.232,3.064 100.589,2.2413 0.652,-0.3948 13.261,-0.9153 28.02,-1.1568 40.647,-0.6649 56.272,-1.4377 59.042,-2.9201 1.383,-0.7401 4.117,-1.0392 6.076,-0.6647 1.959,0.3745 13.361,-0.291 25.338,-1.4788 11.976,-1.1879 25.678,-2.393 30.448,-2.6781 18.477,-1.1043 28.804,-2.4972 31.642,-4.2681 3.587,-2.2381 7.595,-2.3607 10.844,-0.3317 1.832,1.144 6.946,0.9718 20.997,-0.7066 29.45,-3.518 64.23,-7.4792 77.284,-8.8023 6.605,-0.6694 19.815,-2.1659 29.355,-3.3257 46.833,-5.6932 62.972,-6.9788 69.869,-5.5658 6.238,1.2777 7.186,1.1322 11,-1.6879 2.688,-1.9871 4.488,-2.5787 5.055,-1.6612 1.069,1.73 27.862,1.7812 28.929,0.055 0.399,-0.6471 2.191,-0.809 3.981,-0.3597 1.79,0.4492 5.506,-0.081 8.258,-1.179 3.487,-1.3913 6.619,-1.6837 10.34,-0.9653 4.721,0.9115 4.875,1.0498 1.334,1.1983 -2.201,0.092 -7.005,1.0849 -10.674,2.2057 -3.669,1.1209 -9.974,2.6031 -14.01,3.294 -22.732,3.8906 -26.009,4.7863 -26.481,7.236 -0.397,2.0597 0.125,2.303 3.332,1.553 2.091,-0.4891 8.905,-1.4613 15.143,-2.1603 6.238,-0.6991 12.631,-1.5772 14.208,-1.9515 12.799,-3.0386 40.156,-7.2841 45.989,-7.1368 3.952,0.1 11.848,-0.3915 17.547,-1.0916 5.7,-0.7001 10.929,-0.9233 11.62,-0.4961 2.162,1.3364 -7.588,8.0266 -11.699,8.0266 -2.128,0 -5.642,0.8848 -7.81,1.9662 -2.168,1.0814 -10.216,2.871 -17.885,3.9768 -18.575,2.6786 -21.719,3.3301 -23.216,4.8112 -2.107,2.0857 13.043,1.4542 19.446,-0.8106 3.212,-1.1357 6.987,-1.767 8.39,-1.4028 1.403,0.3643 3.539,0.1332 4.747,-0.5134 4.654,-2.4908 42.738,-5.1139 42.738,-2.9436 0,1.9969 -6.282,4.084 -20.638,6.857 -7.854,1.5169 -13.908,3.4012 -14.786,4.6016 -1.523,2.0828 -7.535,4.8436 -10.362,4.759 -0.87,-0.026 -0.08,-0.9054 1.754,-1.9541 1.835,-1.0488 2.614,-1.9282 1.731,-1.9542 -2.156,-0.063 -8.667,2.8746 -10.736,4.8446 -0.917,0.8731 -5.12,1.9877 -9.34,2.477 -4.221,0.4893 -10.168,2.0594 -13.217,3.4892 -3.5,1.6412 -6.794,2.2857 -8.935,1.7482 -1.866,-0.4683 -5.676,-0.071 -8.467,0.8833 -2.791,0.9541 -5.67,1.5633 -6.397,1.3538 -1.419,-0.4085 -10.7,2.0951 -14.058,3.7925 -1.121,0.5664 -6.525,1.7768 -12.009,2.6897 -5.484,0.9129 -11.792,2.459 -14.019,3.4358 -2.226,0.9767 -9.431,1.8999 -16.011,2.0514 -6.58,0.1516 -13.165,0.9064 -14.632,1.6774 -1.468,0.771 -4.77,1.5286 -7.339,1.6837 -2.568,0.155 -9.173,0.9519 -14.677,1.7708 -27.28,4.059 -37.947,5.4444 -52.038,6.7586 -8.439,0.7872 -21.048,2.2537 -28.02,3.2589 -6.971,1.0053 -19.58,2.5094 -28.02,3.3425 -8.439,0.8332 -18.046,2.0784 -21.348,2.7672 -3.303,0.6889 -9.007,1.3606 -12.676,1.4929 -3.67,0.1322 -13.233,1.2831 -21.253,2.5575 -8.02,1.2745 -15.347,2.0237 -16.282,1.6651 -0.934,-0.3587 -2.455,-0.1852 -3.378,0.3855 -0.923,0.5707 -7.208,0.8767 -13.965,0.68 -7.969,-0.2319 -13.379,0.2317 -15.397,1.3196 -1.806,0.9738 -9.267,1.8348 -17.788,2.0531 -8.073,0.2067 -24.585,0.9869 -36.694,1.7339 -12.108,0.747 -22.916,1.2443 -24.017,1.1051 -1.101,-0.1392 -5.904,0.1657 -10.674,0.6776 -9.596,1.0296 -49.512,2.1974 -77.322,2.2621 -10.083,0.023 -17.391,0.5434 -16.679,1.1866 1.613,1.457 23.181,9.9921 31.956,12.6461 22.192,6.7117 86.228,18.232 101.344,18.232 3.975,0 8.903,0.6371 10.951,1.4157 7.815,2.9713 79.687,4.0398 119.205,1.7722 34.548,-1.9824 68.745,-5.0822 86.062,-7.8012 6.605,-1.037 21.615,-2.847 33.357,-4.0223 11.742,-1.1752 26.152,-2.9978 32.023,-4.0503 22.246,-3.9883 37.716,-6.1324 48.035,-6.6576 26.965,-1.3726 36.82,-2.345 47.367,-4.6738 9.882,-2.1819 24.779,-3.9455 38.027,-4.5018 2.202,-0.092 4.663,-0.5979 5.47,-1.1232 0.806,-0.5252 6.231,-0.8604 12.055,-0.7447 5.824,0.1157 11.168,-0.144 11.876,-0.577 0.709,-0.4331 5.436,-1.2288 10.506,-1.7684 8.38,-0.8919 9.137,-0.7732 8.339,1.3077 -0.483,1.2587 -0.878,2.8173 -0.878,3.4635 0,0.6463 -3.888,0.812 -8.639,0.3684 -8.89,-0.8302 -23.807,1.4044 -27.221,4.0779 -1.476,1.155 -1.099,1.7383 1.916,2.9708 3.036,1.2409 5.424,1.0512 12.51,-0.9938 4.817,-1.39 13.111,-2.9048 18.431,-3.3663 9.289,-0.8055 12.273,-2.241 7.339,-3.5304 -1.456,-0.3805 -0.971,-0.6685 1.287,-0.765 2.016,-0.086 4.199,-1.2314 4.922,-2.5817 1.603,-2.9956 15.296,-6.9814 23.125,-6.7314 3.13,0.1 4.469,0.425 2.975,0.7224 -1.494,0.2974 -4.496,2.0567 -6.671,3.9096 l -3.956,3.3687 7.339,-0.8032 c 12.172,-1.3323 21.553,-2.987 30.689,-5.4134 7.494,-1.9906 23.245,-3.5605 33.023,-3.2917 14.375,0.3952 22.468,-0.3192 28.202,-2.4894 3.623,-1.3715 16.081,-4.3363 17.831,-4.2435 0.551,0.029 0.962,0.5033 0.914,1.0537 -0.05,0.5504 -0.949,0.8243 -2.002,0.6087 -1.052,-0.2156 -1.914,0.5498 -1.914,1.7009 0,1.1511 -1.501,2.6636 -3.335,3.3612 -1.835,0.6975 -3.336,1.8835 -3.336,2.6355 0,1.6683 6.226,1.8337 7.24,0.1924 0.944,-1.5271 7.437,-2.7732 7.437,-1.4272 0,0.5668 -1.801,2.5463 -4.003,4.3988 -2.201,1.8526 -4.003,4.2904 -4.003,5.4174 0,1.3969 -3.079,2.9401 -9.673,4.8481 -13.976,4.0436 -16.055,5.0454 -15.184,7.3161 0.486,1.267 -0.06,1.9696 -1.537,1.9681 -3.455,0 -32.534,8.9502 -47.659,14.6744 -15.069,5.7032 -28.563,9.8151 -39.362,11.9947 -6.999,1.4127 -11.382,2.2717 -37.36,7.3214 -6.238,1.2126 -20.348,3.6527 -31.356,5.4224 -11.007,1.7697 -24.34,4.0986 -29.627,5.1753 -5.287,1.0767 -10.691,1.969 -12.008,1.9828 -3.238,0.034 -26.885,3.7512 -38.422,6.0397 -5.137,1.0191 -13.843,2.5622 -19.347,3.4292 -5.504,0.8671 -13.01,2.1707 -16.679,2.8969 -3.669,0.7263 -9.073,1.6024 -12.009,1.9469 -2.935,0.3445 -7.438,1.2216 -10.007,1.949 -2.568,0.7275 -9.173,1.6658 -14.677,2.0853 -5.504,0.4194 -11.014,1.2935 -12.244,1.9425 -1.231,0.649 -9.037,2.096 -17.346,3.2156 -8.31,1.1196 -19.912,2.6937 -25.783,3.4981 -5.871,0.8044 -14.577,1.621 -19.347,1.8146 -15.503,0.6293 -35.111,1.9762 -46.701,3.208 -6.237,0.663 -18.546,1.2674 -27.353,1.3431 -8.806,0.076 -18.417,0.4801 -21.357,0.8987 -2.94,0.4186 -5.689,0.4174 -6.109,0 z m 331.018,-86.0922 c 0,-0.6905 -0.61,-1.6327 -1.356,-2.0936 -0.746,-0.461 -0.931,-1.5472 -0.411,-2.4138 0.538,-0.8976 -0.03,-0.7876 -1.313,0.2556 -3.072,2.4918 -2.847,5.5074 0.411,5.5074 1.468,0 2.669,-0.565 2.669,-1.2556 z m 57.374,-8.0845 c 0,-0.7339 -0.9,-1.3343 -2.001,-1.3343 -1.101,0 -2.001,0.6004 -2.001,1.3343 0,0.7339 0.9,1.3343 2.001,1.3343 1.101,0 2.001,-0.6004 2.001,-1.3343 z m -158.331,-79.6629 c -4.241,-2.1134 -8.455,-1.6659 -8.455,0.8978 0,0.7642 2.818,1.3382 6.338,1.2908 l 6.338,-0.085 z m 211.036,60.9828 c 0.453,-0.7338 2.025,-1.3343 3.493,-1.3343 1.468,0 2.298,0.6005 1.844,1.3343 -0.453,0.7339 -2.025,1.3343 -3.493,1.3343 -1.468,0 -2.298,-0.6004 -1.844,-1.3343 z m -387.022,-58.5836 c 0.411,-0.6649 1.947,-0.8951 3.414,-0.5115 3.672,0.9601 3.341,1.7206 -0.747,1.7206 -1.878,0 -3.078,-0.5441 -2.667,-1.2091 z m 312.799,-5.8797 c 1.982,-2.4377 6.841,-3.0889 6.841,-0.917 0,0.7339 -0.851,1.3343 -1.892,1.3343 -1.041,0 -2.992,0.4126 -4.337,0.917 -2.151,0.8072 -2.224,0.6474 -0.612,-1.3343 z m -1035.241,-13.7134 c 8.44,-0.3886 22.25,-1.2649 30.689,-1.9471 8.439,-0.6822 16.996,-1.2466 19.014,-1.2542 5.084,-0.019 4.724,-3.3876 -0.667,-6.2516 -2.386,-1.2669 -7.639,-2.7106 -11.676,-3.2082 -4.036,-0.4976 -14.543,-1.8908 -23.35,-3.0961 -48.738,-6.6703 -52.077,-6.8654 -50.577,-2.9551 1.368,3.5643 -4.402,5.038 -18.574,4.7437 -7.466,-0.155 -15.676,0.1359 -18.245,0.6464 -2.568,0.5106 -17.279,1.0422 -32.69,1.1813 l -28.02,0.2529 -0.399,3.4255 c -0.446,3.8335 3.699,6.5446 10.135,6.629 1.984,0.026 5.108,0.9526 6.943,2.0592 2.876,1.7349 10.134,1.9065 52.704,1.2465 27.153,-0.421 56.274,-1.0835 64.713,-1.4722 z m 139.733,-24.7719 c 5.706,-2.316 13.978,-4.901 18.381,-5.7444 l 8.006,-1.5334 -0.327,-9.2664 c -0.894,-25.3866 -0.107,-59.23138 1.763,-75.81985 1.355,-12.01354 1.632,-18.97543 0.789,-19.81831 -0.715,-0.71462 -4.21,-1.02626 -7.767,-0.69255 -12.525,1.1751 -39.938,5.21263 -49.831,7.3394 -5.504,1.18318 -10.962,2.22442 -12.128,2.31385 -1.167,0.0894 -8.071,2.06968 -15.345,4.40055 -7.273,2.33086 -29.135,9.33655 -48.582,15.56821 -19.447,6.23165 -45.548,14.5953 -58.001,18.5858 -12.453,3.9906 -22.861,7.9111 -23.128,8.7124 -0.713,2.1414 2.823,1.7806 18.417,-1.8788 7.706,-1.8083 16.313,-3.2986 19.128,-3.3118 4.971,-0.023 9.137,-0.8817 32.91,-6.7811 19.306,-4.791 27.479,-7.33356 66.004,-20.53197 34.542,-11.83368 51.387,-16.17565 51.431,-13.25694 0.01,0.65143 0.361,2.45986 0.779,4.01874 0.619,2.30589 0.06,2.97101 -3.02,3.5675 -2.08,0.40326 -12.187,3.81777 -22.461,7.5878 -10.274,3.77004 -28.287,10.05051 -40.029,13.95657 -11.742,3.9061 -23.733,8.1363 -26.648,9.4003 -2.915,1.2641 -9.22,3.3497 -14.01,4.6348 -4.791,1.285 -12.075,3.9003 -16.186,5.8117 -4.111,1.9114 -10.116,4.1863 -13.343,5.0553 -7.781,2.0954 -27.956,3.1108 -25.215,1.2692 1.41,-0.9474 -0.167,-1.1349 -5.337,-0.6344 -11.746,1.1372 -18.775,3.4068 -22.832,7.3729 -2.081,2.0343 -6.952,4.6292 -10.824,5.7665 -37.747,11.0872 -50.128,15.0313 -53.073,16.9075 -1.101,0.7013 -3.196,1.6654 -4.655,2.1424 -1.46,0.4771 -5.874,2.5612 -9.809,4.6313 -3.936,2.0701 -9.161,3.7639 -11.611,3.7639 -6.61,0 -6.812,2.2853 -0.27,3.0625 4.268,0.507 10.015,-0.6919 23.319,-4.8641 15.576,-4.8847 17.562,-5.8356 16.859,-8.0712 -0.739,-2.3528 -0.208,-2.4809 7.421,-1.7891 6.44,0.584 10.44,0.054 18.499,-2.4494 14.297,-4.4415 16.789,-4.2972 10.9,0.6312 l -4.62,3.8656 6.004,0.6961 c 3.303,0.3829 18.013,1.9988 32.691,3.591 14.677,1.5921 33.167,4.1158 41.089,5.6081 7.921,1.4924 14.762,2.3545 15.201,1.9158 0.438,-0.4388 0,-1.7678 -0.992,-2.9534 -0.984,-1.1855 -1.876,-4.7357 -1.982,-7.8892 l -0.194,-5.7337 7.592,-0.8589 c 6.005,-0.6794 9.795,-0.1818 18.137,2.3812 11.337,3.483 26.572,5.6999 25.327,3.6852 -0.818,-1.3242 15.62,3.6324 24.01,7.2398 2.883,1.2391 8.843,3.803 13.247,5.6974 4.403,1.8944 8.884,4.224 9.959,5.1769 2.612,2.3165 2.49,2.3376 14.357,-2.4785 z m -156.799,-27.9649 c 0.343,-1.0167 1.771,-1.8809 3.174,-1.9205 6.148,-0.1736 12.91,-2.5009 17.221,-5.9264 3.198,-2.5415 6.947,-3.9849 11.986,-4.6145 4.032,-0.5038 15.146,-3.5758 24.698,-6.8267 9.551,-3.2508 19.073,-5.9105 21.161,-5.9105 4.272,0 22.252,-6.2125 29.946,-10.3468 2.782,-1.4949 6.084,-2.4536 7.339,-2.1305 1.254,0.3231 6.483,-0.9911 11.62,-2.9205 14.23,-5.34463 23.005,-7.29574 21.443,-4.7679 -0.403,0.6507 -2.979,1.6047 -5.726,2.1201 -2.747,0.5153 -7.283,2.0424 -10.079,3.3935 -2.797,1.3511 -7.011,2.8508 -9.364,3.3326 -8.547,1.7497 -36.588,11.801 -48.311,17.3166 -15.121,7.1145 -24.739,10.208 -47.367,15.2348 -26.433,5.8719 -28.481,6.1647 -27.741,3.9667 z m -80.725,24.8067 c 6.718,-2.8069 4.178,-4.9581 -3.622,-3.0682 -3.299,0.7991 -6.876,2.2735 -7.951,3.2766 -1.681,1.5687 -1.348,1.8237 2.378,1.8237 2.382,0 6.52,-0.9145 9.195,-2.0321 z m 345.302,-27.7863 c 8.354,-3.4792 28.417,-6.6663 51.371,-8.1604 22.922,-1.492 53.159,-6.9282 84.727,-15.2324 54.367,-14.3017 57.793,-15.011 80.86,-16.7424 2.642,-0.1984 5.415,-0.7381 6.162,-1.1994 5.374,-3.32189 64.854,-11.17615 102.448,-13.52839 17.612,-1.10202 36.826,-2.33801 42.697,-2.74666 19.657,-1.36823 42.334,-4.79672 48.934,-7.39822 3.596,-1.41739 9.109,-2.57708 12.251,-2.57708 8.79,0 19.54,-3.5997 19.54,-6.54321 0,-3.89215 4.833,-8.97679 10.802,-11.36548 3.782,-1.51303 9.139,-2.1613 17.038,-2.06181 13.214,0.16645 30.89,-2.69527 45.948,-7.43893 5.725,-1.80361 12.527,-3.27928 15.115,-3.27928 2.588,0 11.413,-1.16444 19.612,-2.58763 8.199,-1.4232 16.408,-2.52163 18.242,-2.44097 1.835,0.0807 9.941,-0.40609 18.013,-1.08167 8.073,-0.67559 22.783,-1.08166 32.69,-0.9024 16.685,0.3019 26.678,-0.27831 64.046,-3.71856 7.706,-0.7094 17.013,-1.56579 20.682,-1.90309 3.669,-0.3373 8.173,-0.87181 10.007,-1.1878 1.835,-0.31599 8.139,-1.27782 14.01,-2.13741 5.871,-0.85959 13.133,-2.10869 16.138,-2.77577 3.004,-0.66708 15.913,-0.84294 28.687,-0.3908 42.068,1.48908 235.198,1.19863 239.26,-0.35983 2.098,-0.80521 1.9,-10.97377 -0.351,-18.02274 -0.794,-2.48684 -2.757,-9.92541 -4.361,-16.53015 -1.605,-6.60475 -4.398,-15.91143 -6.207,-20.68153 -1.809,-4.77009 -3.399,-9.57354 -3.533,-10.67433 -0.134,-1.10079 -1.793,-5.30381 -3.687,-9.34004 -1.894,-4.03624 -3.894,-8.83969 -4.444,-10.67434 -0.932,-3.10942 -8.942,-19.09325 -15.714,-31.35586 -1.62,-2.93544 -3.991,-6.49377 -5.266,-7.90739 -1.276,-1.41363 -2.713,-3.81535 -3.194,-5.33717 -0.481,-1.52182 -1.989,-3.55153 -3.351,-4.51047 -1.362,-0.95893 -2.477,-2.3099 -2.477,-3.00215 0,-0.69225 -0.947,-2.30939 -2.105,-3.59364 -1.157,-1.28426 -5.489,-6.83825 -9.625,-12.3422 -4.136,-5.50396 -7.843,-10.30741 -8.236,-10.67434 -0.394,-0.36693 -1.316,-1.62808 -2.05,-2.80256 -3.842,-6.14899 -8.699,-12.86941 -11.173,-15.46125 -4.148,-4.34537 -13.853,-16.54122 -16.726,-21.01919 -1.385,-2.15835 -5.131,-6.6511 -8.325,-9.98388 -3.193,-3.33278 -5.806,-6.52042 -5.806,-7.08364 0,-0.56321 -0.751,-1.03161 -1.668,-1.04087 -0.917,-0.009 -4.58,-3.33689 -8.139,-7.39474 -6.354,-7.24465 -15.658,-14.82876 -27.553,-22.45842 -3.303,-2.11821 -9.007,-6.39667 -12.676,-9.50767 -3.669,-3.11101 -9.223,-6.94411 -12.342,-8.51802 -3.119,-1.5739 -5.671,-3.44986 -5.671,-4.16881 0,-0.71895 -0.784,-1.30717 -1.742,-1.30717 -0.959,0 -6.513,-3.10482 -12.343,-6.89961 -5.83,-3.79478 -14.802,-8.96756 -19.939,-11.49506 -5.138,-2.5275 -10.166,-5.2627 -11.175,-6.07821 -3.185,-2.57323 -13.581,-2.40378 -22.083,0.35993 -4.458,1.44912 -10.507,3.01322 -13.443,3.47578 -2.935,0.46256 -8.476,1.70543 -12.312,2.76193 -6.033,1.66134 -23.614,4.69711 -39.058,6.74417 -5.859,0.77661 -20.757,4.30083 -25,5.91379 -1.759,0.66894 -8.112,1.57831 -14.117,2.02082 -13.353,0.98393 -27.856,3.85831 -32.678,6.47669 l -3.592,1.95009 5.337,0.2913 c 6.062,0.33088 6.154,0.32665 23.35,-1.07463 21.594,-1.75964 29.842,-0.91197 26.8,2.75402 -0.904,1.08956 -5.698,2.1944 -11.825,2.72566 -13.845,1.20031 -25.649,3.4911 -25.649,4.97761 0,1.27142 15.589,0.53758 30.688,-1.44466 9.134,-1.19911 17.346,-1.24838 17.346,-0.10409 0,1.77929 -6.025,4.0489 -14.226,5.35901 -4.976,0.79494 -9.275,1.67287 -9.553,1.95096 -1.608,1.60792 2.041,3.35175 7.012,3.35175 6.751,0 14.098,1.30839 14.098,2.51046 0,0.46342 -5.984,2.57085 -13.299,4.68317 -7.314,2.11232 -14.267,4.91074 -15.451,6.21871 -1.245,1.37558 -5.06,2.75003 -9.05,3.26032 -7.759,0.99226 -23.288,5.79712 -24.364,7.53855 -0.388,0.62719 -2.097,1.14033 -3.799,1.14033 -1.702,0 -5.172,0.86822 -7.711,1.92937 -4.485,1.87373 -16.19,3.56322 -27.065,3.90648 -2.935,0.0927 -5.637,0.46868 -6.004,0.83561 -1.714,1.71377 -14.906,5.33717 -19.431,5.33717 -2.785,0 -6.908,0.56894 -9.161,1.26431 -4.905,1.51341 -27.593,4.83 -29.357,4.29141 -0.683,-0.20856 -5.486,0.51422 -10.674,1.60618 -5.188,1.09196 -13.936,2.33884 -19.44,2.77084 -5.504,0.432 -15.411,1.71127 -22.016,2.84282 -22.073,3.78162 -26.634,4.47363 -35.359,5.36436 -4.77,0.487 -10.105,1.42436 -11.856,2.08303 -1.751,0.65867 -11.058,1.79691 -20.682,2.52943 -9.624,0.73252 -23.502,2.28305 -30.841,3.44562 -12.022,1.90457 -18.645,2.78174 -38.027,5.03623 -3.302,0.38414 -9.607,1.29855 -14.01,2.03203 -31.101,5.18091 -64.369,7.44513 -105.409,7.17417 -42.726,-0.28209 -73.895,-2.19433 -83.969,-5.1515 -3.619,-1.0624 -8.916,-1.93163 -11.77,-1.93163 -2.855,0 -6.09,-0.89975 -7.19,-1.99944 -1.1,-1.09969 -3.609,-2.33631 -5.576,-2.74805 -1.966,-0.41174 -4.476,-1.30434 -5.577,-1.98354 -5.299,-3.26943 -11.67,-5.36275 -15.235,-5.00545 -3.419,0.34269 -5.49,2.69216 -15.634,17.74079 -6.431,9.54019 -13.253,20.34795 -15.16,24.01725 -1.906,3.66931 -6.327,11.47928 -9.823,17.35549 -5.299,8.90827 -10.764,18.96757 -22.464,41.35336 -3.349,6.40866 -7.079,15.57542 -7.079,17.39959 0,1.09112 -0.548,3.02646 -1.218,4.30075 -2.325,4.41825 -6.787,20.40543 -6.787,24.3138 0,4.25929 1.941,5.79743 9.006,7.13624 2.571,0.48722 4.337,0.27343 4.337,-0.52517 0,-0.84002 2.446,-1.02237 6.5,-0.48457 10.719,1.42197 10.296,-3.29564 -0.496,-5.53058 -5.019,-1.0393 -5.107,-1.13572 -1.474,-1.61559 2.124,-0.28068 6.327,0.40467 9.34,1.52299 3.012,1.11832 10.881,2.93154 17.485,4.02936 6.605,1.09783 15.912,2.68532 20.682,3.52777 4.77,0.84245 11.075,1.3802 14.01,1.195 2.935,-0.18519 7.739,-0.35748 10.674,-0.38285 7.762,-0.0671 53.245,2.07773 54.08,2.5502 1.838,1.03974 64.833,0.10238 96.695,-1.43881 13.815,-0.66821 17.454,-1.13492 24.453,-3.13547 3.888,-1.11154 6.298,-1.21368 7.384,-0.31294 1.076,0.8936 4.252,0.88989 9.572,-0.0112 4.378,-0.74159 10.362,-1.52405 13.297,-1.73879 10.154,-0.74276 42.726,-4.84256 50.011,-6.29474 4.023,-0.80184 11.228,-1.65675 16.012,-1.89981 4.784,-0.24305 18.605,-1.44884 30.713,-2.67951 12.109,-1.23068 24.118,-2.37436 26.686,-2.54152 2.569,-0.16716 4.97,-0.45766 5.337,-0.64555 0.367,-0.18789 4.187,-0.55078 8.489,-0.80641 4.301,-0.25564 10.005,-1.19888 12.675,-2.09609 2.67,-0.89721 8.458,-1.84793 12.861,-2.11272 16.917,-1.01733 18.764,-1.25519 21.573,-2.77855 1.591,-0.86287 4.61,-1.22541 6.709,-0.80565 2.099,0.41976 8.602,-0.11476 14.453,-1.18783 5.85,-1.07308 11.537,-1.96274 12.638,-1.97702 1.805,-0.0234 18.066,-3.11767 37.198,-7.07833 5.569,-1.15284 7.406,-1.11658 8.196,0.1618 0.797,1.29074 2.999,1.1811 10.168,-0.50632 5.033,-1.18462 12.754,-2.43425 17.157,-2.77697 12.279,-0.95572 17.185,-2.48226 18.663,-5.80715 1.277,-2.87383 6.021,-4.22792 6.021,-1.7187 0,1.62105 5.264,3.37525 8.673,2.89019 1.468,-0.20885 3.633,-1.23905 4.811,-2.28932 1.178,-1.05027 3.105,-1.53987 4.283,-1.088 1.177,0.45188 5.77,-0.43429 10.205,-1.96926 4.436,-1.53498 10.614,-2.80996 13.73,-2.8333 3.116,-0.0233 6.775,-0.88275 8.13,-1.90979 1.356,-1.02705 3.229,-1.57407 4.163,-1.21561 2.257,0.86577 31.115,-3.13924 35.552,-4.93405 1.917,-0.77526 6.12,-1.21265 9.341,-0.97197 l 5.854,0.4376 -7.338,2.38345 c -4.037,1.3109 -9.355,2.65824 -11.82,2.9941 -2.464,0.33586 -4.866,0.84941 -5.338,1.14122 -0.473,0.29182 -5.662,0.95493 -11.531,1.47359 -5.87,0.51865 -11.476,1.59278 -12.456,2.38696 -0.981,0.79417 -4.235,1.77762 -7.23,2.18545 -2.996,0.40783 -5.686,1.46157 -5.978,2.34164 -0.396,1.19437 0.589,1.27896 3.886,0.33358 6.102,-1.75004 7.769,-1.59231 7.769,0.73487 0,2.31108 2.297,2.42362 10.675,0.52303 3.302,-0.7492 10.207,-2.18858 15.344,-3.19863 5.137,-1.01004 13.243,-2.6898 18.013,-3.73279 22.442,-4.90711 28.011,-5.51415 30.229,-3.2955 1.896,1.89508 1.707,2.17241 -2.039,2.99515 -2.271,0.49869 -4.445,0.84902 -4.832,0.77853 -0.387,-0.0705 -2.535,0.81937 -4.775,1.97747 -5.147,2.66166 -4.838,6.73965 0.483,6.37012 4.214,-0.29268 4.595,0.86887 1.187,3.62397 -2.583,2.08833 -2.738,2.13928 -12.154,3.99063 -3.354,0.65936 -12.402,3.98673 -20.108,7.39416 -7.705,3.40743 -16.111,6.47649 -18.68,6.82012 -2.568,0.34363 -6.771,1.22785 -9.34,1.96493 -2.568,0.73708 -8.273,1.86376 -12.676,2.50373 -11.901,1.72981 -21.696,3.87497 -30.953,6.77913 -4.548,1.42702 -11.19,2.79916 -14.759,3.04921 -3.568,0.25005 -7.722,1.11512 -9.23,1.92236 -3.419,1.82967 -19.623,5.09236 -31.119,6.26596 -4.771,0.48695 -10.593,1.99082 -12.938,3.34195 -2.346,1.35112 -5.949,2.42031 -8.006,2.37597 -2.058,-0.0443 -8.034,1.23593 -13.281,2.84505 -5.246,1.60912 -10.35,2.77222 -11.341,2.58466 -2.664,-0.50418 -10.573,1.52471 -15.145,3.88489 -2.201,1.13669 -6.372,1.93376 -9.267,1.77127 -2.896,-0.16249 -7.099,0.58226 -9.34,1.65498 -2.242,1.07273 -8.879,2.64451 -14.75,3.49284 -5.871,0.84833 -14.277,2.15074 -18.68,2.89425 -4.403,0.74351 -11.008,1.56535 -14.677,1.82632 -3.67,0.26097 -10.274,1.20109 -14.678,2.08914 -4.403,0.88805 -10.107,1.5496 -12.675,1.4701 -2.569,-0.0795 -8.273,0.46349 -12.676,1.20665 -4.403,0.74315 -12.64,1.53271 -18.304,1.75457 -5.664,0.22187 -11.19,1.14277 -12.278,2.04644 -1.089,0.90368 -3.141,1.27467 -4.559,0.82442 -1.419,-0.45025 -4,-0.20489 -5.735,0.54524 -1.736,0.75014 -8.86,1.9948 -15.832,2.76591 -6.971,0.77112 -13.576,1.57714 -14.677,1.79116 -1.101,0.21402 -5.003,0.77236 -8.673,1.24077 -3.669,0.4684 -14.35,1.83314 -23.735,3.03275 -9.384,1.19961 -18.305,1.85626 -19.824,1.45921 -1.518,-0.39704 -4.097,-0.21379 -5.73,0.40723 -2.725,1.03589 -41.875,3.39474 -52.784,3.18032 -2.568,-0.0505 -14.877,-0.24625 -27.353,-0.43505 -44.072,-0.66695 -95.581,-6.2172 -108.745,-11.71763 -1.834,-0.76661 -6.037,-2.15462 -9.34,-3.08445 -3.302,-0.92983 -8.805,-3.04344 -12.228,-4.6969 -3.424,-1.65346 -10.822,-4.26765 -16.442,-5.8093 -5.619,-1.54165 -12.348,-3.69359 -14.954,-4.78209 -2.605,-1.0885 -5.843,-1.97909 -7.196,-1.97909 -1.353,0 -4.243,-1.74396 -6.424,-3.87545 -4.135,-4.04213 -17.689,-9.87902 -21.318,-9.18018 -1.438,0.27698 -3.19,4.58931 -5.58,13.73472 -1.916,7.33203 -3.938,14.36192 -4.495,15.62196 -0.557,1.26005 -0.752,3.06134 -0.434,4.00288 0.318,0.94153 -0.178,3.52861 -1.101,5.74905 -2.068,4.97206 -6.304,27.75451 -9.296,50.00165 -2.825,21.00853 -3.174,58.94793 -0.57,62.08523 1.969,2.3719 2.487,2.2788 13.976,-2.506 z m 339.578,-187.85428 c -5.504,-0.59622 -16.312,-1.84969 -24.018,-2.7855 -7.705,-0.9358 -15.21,-1.62877 -16.678,-1.53994 -1.468,0.0888 -8.973,0.59329 -16.679,1.121 -7.705,0.52771 -23.917,1.17151 -36.026,1.43067 -65.335,1.39834 -88.279,-0.20233 -128.759,-8.98246 -4.403,-0.95507 -12.079,-3.9881 -17.058,-6.74007 -4.979,-2.75198 -9.437,-5.0036 -9.908,-5.0036 -0.47,0 -5.253,-2.17305 -10.628,-4.829 -7.024,-3.47059 -9.773,-5.54301 -9.773,-7.36721 0,-1.4126 -1.48,-3.21222 -3.336,-4.05807 -1.835,-0.83592 -3.336,-2.27806 -3.336,-3.20475 0,-0.92669 -1.631,-3.62349 -3.625,-5.99289 l -3.625,-4.308 5.293,0.90025 5.293,0.90025 -3.336,-2.87661 c -3.146,-2.71337 -3.169,-2.82479 -0.402,-1.96354 2.032,0.63239 3.74,0.10736 5.555,-1.70795 2.286,-2.28545 3.362,-2.44944 8.408,-1.28081 8.156,1.88907 25.917,4.96644 33.769,5.85126 3.649,0.41113 7.255,1.26257 8.013,1.89209 0.759,0.62952 6.48,1.43276 12.714,1.78498 6.233,0.35223 17.938,1.61841 26.011,2.81373 8.072,1.19533 23.684,2.71118 34.691,3.36856 21.366,1.27589 98.023,3.31159 126.758,3.36614 21.601,0.041 66.138,-1.86689 67.818,-2.9052 0.687,-0.42482 7.025,-1.59207 14.083,-2.59389 7.059,-1.00182 15.836,-2.38278 19.505,-3.0688 3.67,-0.68601 9.802,-1.28309 13.628,-1.32684 3.826,-0.0437 11.932,-1.24268 18.013,-2.66429 6.081,-1.42162 16.761,-3.52187 23.732,-4.66723 6.972,-1.14536 16.279,-2.67954 20.682,-3.40928 4.403,-0.72975 11.308,-2.25281 15.344,-3.38459 4.037,-1.13178 9.741,-2.37228 12.676,-2.75666 12.11,-1.58578 44.584,-4.78118 52.037,-5.12052 4.404,-0.20046 10.408,-0.74517 13.343,-1.21047 5.711,-0.90521 19.402,-2.17757 31.356,-2.91404 4.037,-0.24866 12.142,-1.15495 18.013,-2.01398 13.139,-1.92243 39.575,-3.60682 38.297,-2.44002 -0.515,0.46988 -6.927,1.85698 -14.249,3.08244 -7.321,1.22546 -13.576,2.49221 -13.899,2.81498 -1.187,1.18707 18.039,0.54366 22.55,-0.75465 2.564,-0.73783 10.365,-1.64788 17.337,-2.02234 6.972,-0.37445 15.228,-1.00842 18.347,-1.40882 6.602,-0.84764 7.852,1.47566 1.334,2.48105 -13.136,2.02624 -21.823,3.92018 -22.906,4.99386 -2.446,2.4246 3.329,2.86881 14.866,1.14344 6.44,-0.96308 15.012,-1.63439 19.048,-1.4918 4.036,0.1426 11.391,0.23387 16.345,0.20284 4.953,-0.031 9.006,0.50378 9.006,1.18848 0,1.16372 -4.783,2.11664 -18.281,3.64179 -9.436,1.06619 -15.524,2.62906 -16.018,4.11222 -0.324,0.97092 5.749,1.21972 19.401,0.79484 13.888,-0.43223 20.152,-0.16652 20.8,0.88235 0.627,1.0144 -0.774,1.50082 -4.321,1.50082 -2.886,0 -7.875,0.93833 -11.086,2.08519 -3.212,1.14685 -9.141,2.6746 -13.178,3.395 -6.99,1.24763 -19.276,5.28252 -24.405,8.01456 -1.314,0.70008 -2.916,0.94717 -3.56,0.5491 -0.644,-0.39807 -4.651,0.18253 -8.903,1.29023 -4.253,1.1077 -10.457,2.35146 -13.786,2.76392 -3.329,0.41245 -7.854,1.27126 -10.056,1.90847 -2.201,0.6372 -9.407,2.11793 -16.011,3.29051 -6.605,1.17257 -13.81,2.69563 -16.012,3.38456 -2.201,0.68893 -9.707,1.86674 -16.678,2.61734 -6.972,0.75061 -15.078,1.94179 -18.013,2.64708 -2.936,0.70528 -8.19,1.64837 -11.675,2.09574 -3.486,0.44737 -6.338,1.40852 -6.338,2.13588 0,0.75319 -3.317,1.20279 -7.705,1.04444 -4.238,-0.15292 -8.985,0.40715 -10.55,1.24459 -1.564,0.83744 -8.739,2.17986 -15.943,2.98314 -7.204,0.80329 -15.139,2.31326 -17.633,3.3555 -2.495,1.04223 -7.018,1.89497 -10.052,1.89497 -3.034,0 -7.614,0.62783 -10.178,1.39519 -6.543,1.95856 -28.704,5.27627 -35.242,5.27627 -3.005,0 -7.56,0.63033 -10.124,1.40073 -2.564,0.77041 -14.938,1.58597 -27.499,1.81237 -12.561,0.2264 -23.471,0.80283 -24.245,1.28096 -2.179,1.34665 -57.098,1.87713 -68.333,0.66004 z m 254.599,-10.06845 c 0.963,-0.38544 2.114,-0.33804 2.558,0.10533 0.443,0.44338 -0.345,0.75874 -1.752,0.7008 -1.554,-0.064 -1.87,-0.38019 -0.806,-0.80613 z m 134.764,-20.01438 c 0.963,-0.38544 2.114,-0.33804 2.557,0.10534 0.443,0.44337 -0.345,0.75873 -1.751,0.70079 -1.555,-0.064 -1.871,-0.38019 -0.806,-0.80613 z m -12.009,-48.03451 c 0.963,-0.38544 2.114,-0.33803 2.557,0.10534 0.444,0.44337 -0.344,0.75873 -1.751,0.7008 -1.554,-0.064 -1.87,-0.3802 -0.806,-0.80614 z M 20135.74,1043.337 c 6.218,-0.7775 17.47,-2.926 25.003,-4.7744 7.534,-1.8485 14.439,-3.0611 15.345,-2.6947 0.96,0.3882 0.673,0.7102 -0.688,0.7715 -2.626,0.1185 -3.268,2.7792 -0.667,2.7645 0.917,-0.01 7.372,-0.9392 14.344,-2.0757 6.971,-1.1364 14.176,-2.2636 16.011,-2.5048 19.29,-2.536 77.584,-13.2293 80.499,-14.7666 2.105,-1.1102 7.239,-1.9921 11.597,-1.9921 11.29,0 11.038,-2.2987 -0.355,-3.2356 -8.51,-0.6998 -23.654,1.0933 -16.353,1.9363 1.467,0.1695 -4.237,1.0578 -12.676,1.9739 -15.15,1.6446 -33.041,4.4662 -46.033,7.26 -3.67,0.789 -8.773,1.7695 -11.342,2.1788 -2.568,0.4094 -9.673,1.9787 -15.789,3.4873 -9.282,2.2899 -11.638,2.465 -14.263,1.0599 -1.934,-1.0347 -4.847,-1.3307 -7.562,-0.7683 -2.429,0.5032 -12.222,2.3758 -21.762,4.1613 -21.672,4.0564 -28.839,5.9726 -27.917,7.4646 0.397,0.6422 0.852,1.1676 1.012,1.1676 0.159,0 5.377,-0.6361 11.596,-1.4135 z m 294.176,-37.8476 c 2.202,-0.2714 7.132,-0.6496 10.957,-0.8404 3.825,-0.1908 6.641,-0.854 6.258,-1.4738 -0.383,-0.6199 0.924,-1.7431 2.904,-2.4961 1.981,-0.75305 3.368,-1.56077 3.083,-1.79497 -0.285,-0.23419 -8.482,0.36615 -18.216,1.33407 -17.511,1.7415 -23.824,3.4227 -22.274,5.9316 0.719,1.1623 3.306,1.0634 17.288,-0.6604 z m -46.033,-4.5675 c 0,-1.55497 -7.775,-1.65576 -8.728,-0.1131 -0.423,0.6844 1.368,1.2444 3.979,1.2444 2.612,0 4.749,-0.5091 4.749,-1.1313 z m 220.158,-3.41427 c 17.98,-1.18231 44.099,-3.02775 58.042,-4.10098 13.943,-1.07323 28.954,-1.94732 33.357,-1.94244 4.403,0.005 18.814,-0.59533 32.023,-1.33382 62.263,-3.48084 184.266,-5.18779 289.542,-4.05099 25.685,0.27735 48.051,0.0417 49.702,-0.52378 2.294,-0.78542 3.002,-2.06022 3.002,-5.40136 0,-7.19441 -2.695,-8.41248 -20.681,-9.34722 -21.502,-1.11742 -25.136,-1.54459 -28.512,-3.35165 -2.116,-1.13202 -11.837,-1.26085 -36.554,-0.48441 -43.144,1.3553 -74.872,1.04129 -95.049,-0.94067 -24.043,-2.36166 -94.799,-1.12462 -104.225,1.82218 -2.622,0.8198 -37.11,4.64042 -49.886,5.52654 -4.036,0.27994 -14.244,1.15594 -22.683,1.94668 -8.439,0.79073 -28.554,2.30969 -44.699,3.37546 -16.145,1.06578 -31.156,2.24071 -33.357,2.61097 -7.85,1.32018 -29.084,3.45494 -41.791,4.20144 -10.603,0.62286 -14.24,1.43468 -20.317,4.53413 -4.071,2.07648 -10.911,4.69184 -15.201,5.81189 -4.289,1.12006 -8.463,2.71729 -9.276,3.54939 -1.686,1.72501 4.66,1.51171 56.563,-1.90136 z m 537.862,-20.65306 c 2.664,-2.15668 2.852,-2.82307 1.319,-4.67002 -0.983,-1.1849 -3.366,-2.16356 -5.294,-2.1748 -1.928,-0.0112 -4.386,-0.57732 -5.462,-1.25797 -4.192,-2.651 -7.518,5.28085 -3.781,9.0173 2.423,2.42312 9.72,1.91828 13.218,-0.91451 z m 59.234,-50.69551 c 11.008,-3.57025 25.118,-7.49385 31.356,-8.71911 16.088,-3.16012 27.458,-7.44383 32.866,-12.38227 4.922,-4.49498 4.912,-5.18639 -0.166,-11.68728 -2.386,-3.05532 -17.714,-5.33013 -30.699,-4.55604 -21.863,1.30338 -71.474,-0.0444 -73.935,-2.00856 -1.214,-0.9682 -8.505,-1.45638 -20.49,-1.37174 -17.833,0.12596 -18.736,10e-4 -21.739,-3.00215 -3.33,-3.32962 -12.943,-4.47395 -14.632,-1.74166 -0.473,0.76555 0.728,5.74603 2.669,11.06774 1.941,5.32171 4.861,14.75257 6.489,20.95748 l 2.961,11.28164 21.311,0.86615 c 24.082,0.97876 29.242,1.77862 33.987,5.2688 4.885,3.59278 7.942,3.18821 30.022,-3.973 z m 94.735,-0.16051 c 0.453,-0.73386 0.224,-1.33429 -0.51,-1.33429 -0.734,0 -1.705,0.60043 -2.159,1.33429 -0.454,0.73386 -0.224,1.33429 0.51,1.33429 0.734,0 1.705,-0.60043 2.159,-1.33429 z m 20.161,-12.03829 c 0.653,-0.0163 2.569,-1.0932 4.259,-2.39307 2.464,-1.89633 3.103,-3.74313 3.23,-9.3448 0.142,-6.22305 -0.329,-7.48492 -4.334,-11.61699 -2.471,-2.54958 -5.535,-4.6356 -6.81,-4.6356 -2.286,0 -4.599,4.34875 -3.37,6.33749 0.348,0.56332 0.116,3.72095 -0.517,7.01697 -0.713,3.71988 -0.629,7.76397 0.222,10.66279 2.688,9.15458 2.518,8.91073 4.413,6.33789 0.946,-1.28426 2.254,-2.34837 2.907,-2.36468 z m -740.768,-53.45563 c 2.469,-2.33155 -0.511,-2.7614 -7.813,-1.1272 -4.093,0.91601 -7.442,2.2267 -7.442,2.91264 0,1.50098 13.441,-0.0722 15.255,-1.78544 z m 652.672,-5.85288 c -3.574,-3.28157 -9.265,-6.98755 -12.646,-8.23551 -3.382,-1.24795 -6.749,-2.68982 -7.483,-3.20414 -0.734,-0.51432 -5.385,-0.98925 -10.336,-1.0554 -4.952,-0.0661 -10.195,-0.75839 -11.652,-1.53832 -2.724,-1.45777 -39.915,-1.08368 -42.358,0.42606 -0.694,0.42887 -6.014,1.73599 -11.822,2.90472 -5.808,1.16873 -12.662,2.79705 -15.231,3.61849 l -4.67,1.49353 3.669,0.99291 c 2.018,0.5461 5.32,0.49319 7.338,-0.11758 13.079,-3.95715 31.024,-6.91879 31.024,-5.12006 0,0.55961 -2.402,1.73704 -5.338,2.61652 -5.956,1.78458 -6.861,3.48871 -2.335,4.39646 13.256,2.65834 34.965,4.74762 47.883,4.60833 8.54,-0.0921 16.319,0.32251 17.288,0.9213 1.473,0.91017 6.91,1.69772 21.196,3.06975 1.084,0.10419 -0.952,-2.49548 -4.527,-5.77706 z m -59.131,-12.30395 c 1.298,-0.3383 3.099,-0.31605 4.003,0.0494 0.903,0.3655 -0.159,0.64229 -2.361,0.6151 -2.201,-0.0272 -2.941,-0.32624 -1.642,-0.66454 z m -529.1,16.13002 c -0.444,-0.44337 -1.594,-0.49077 -2.558,-0.10534 -1.064,0.42595 -0.748,0.74211 0.807,0.80614 1.406,0.0579 2.194,-0.25742 1.751,-0.7008 z m 28.013,-10.76392 c 0.331,-0.99419 -0.478,-1.3017 -2.224,-0.8451 -1.51,0.39477 -2.745,1.2922 -2.745,1.99428 0,1.7714 4.33,0.76998 4.969,-1.14918 z m 12.935,0.0858 c 1.161,-0.44544 2.111,-1.30834 2.111,-1.91755 0,-1.36174 -9.522,-0.0385 -11.275,1.56694 -1.449,1.32641 5.889,1.60717 9.164,0.35061 z m 19.456,-0.52439 c 0,-0.73386 -0.636,-1.33429 -1.413,-1.33429 -0.777,0 -1.042,0.60043 -0.588,1.33429 0.453,0.73386 1.089,1.33429 1.413,1.33429 0.324,0 0.588,-0.60043 0.588,-1.33429 z m -1.334,-4.00287 c 0,-0.73386 -1.165,-1.3343 -2.59,-1.3343 -1.424,0 -2.961,0.60044 -3.414,1.3343 -0.468,0.75675 0.653,1.33429 2.59,1.33429 1.878,0 3.414,-0.60043 3.414,-1.33429 z m -485.015,-138.86779 c 16.233,0.21491 60.242,-1.83597 83.393,-3.88625 6.972,-0.61742 20.482,-1.8236 30.022,-2.68042 9.54,-0.85681 20.948,-1.67891 25.351,-1.82688 4.403,-0.14797 8.817,-0.77139 9.807,-1.38537 0.991,-0.61398 5.194,-1.61684 9.34,-2.22856 4.147,-0.61173 11.142,-1.69338 15.545,-2.40366 4.403,-0.71029 13.41,-1.94729 20.014,-2.74888 35.604,-4.32109 53.876,-7.13152 58.166,-8.94652 3.737,-1.58122 5.942,-1.72643 10.007,-0.65904 3.088,0.81084 8.603,0.95594 13.527,0.35587 8.159,-0.99425 10.921,-2.06596 9.358,-3.62978 -0.433,-0.43257 -14.493,-0.7322 -31.245,-0.66583 -21.43,0.0849 -34.414,-0.49256 -43.801,-1.94805 -7.339,-1.1378 -19.047,-2.59952 -26.019,-3.24827 -24.463,-2.27637 -56.751,-7.68154 -74.053,-12.39657 -2.936,-0.79997 -5.861,-1.32079 -6.501,-1.15738 -1.963,0.50092 -18.788,-5.45067 -19.831,-7.0149 -0.539,-0.80838 -0.989,-1.00725 -1.001,-0.44194 -0.03,1.28668 -9.608,-3.52791 -16.733,-8.407 -9.92,-6.79366 -19.411,-11.96807 -21.95,-11.96807 -1.386,0 -2.891,-1.16688 -3.343,-2.59307 -0.548,-1.72406 -3.218,-3.28913 -7.968,-4.67002 -10.092,-2.93375 -11.478,-2.71539 -20.343,3.2046 -9.904,6.61344 -57.748,51.57644 -61.72,58.00283 -1.619,2.62048 -3.439,4.76451 -4.045,4.76451 -0.605,0 -3.336,3.11187 -6.068,6.91528 -7.061,9.82854 -5.898,11.04946 10.159,10.65921 6.914,-0.16806 14.373,0.26802 16.575,0.96908 2.201,0.70106 7.005,0.94805 10.674,0.54888 3.669,-0.39918 13.877,-0.63039 22.683,-0.5138 z m 311.557,-30.58728 c 0,-0.73386 -1.051,-1.3251 -2.335,-1.31386 -1.995,0.0175 -2.044,0.2085 -0.334,1.31386 2.519,1.62732 2.669,1.62732 2.669,0 z m 27.353,-5.33717 c 0.975,-1.57818 -0.33,-1.57818 -4.003,0 -2.573,1.10558 -2.563,1.1501 0.255,1.24051 1.608,0.0516 3.295,-0.50665 3.748,-1.24051 z m 68.125,-8.16415 c 8.67,-2.18315 7.434,-4.27415 -2.118,-3.58321 -5.128,0.37095 -8.861,1.39683 -10.293,2.82896 -2.106,2.1064 -1.974,2.24694 2.118,2.24694 2.401,0 7.033,-0.67171 10.293,-1.49269 z m 19.938,-2.68504 c 4.579,-1.28199 4.948,-1.64018 2.597,-2.52133 -1.509,-0.56553 -5.678,-0.28112 -9.278,0.63288 -3.743,0.9505 -5.709,1.98624 -4.598,2.42343 3.034,1.19443 5.524,1.07632 11.279,-0.53498 z m 21.458,-1.15943 c 1.041,0 1.892,-0.60044 1.892,-1.3343 0,-1.628 -7.565,-1.79251 -8.557,-0.1861 -1.034,1.67186 0.779,3.05282 2.926,2.22904 1.016,-0.38976 2.698,-0.70864 3.739,-0.70864 z m -147.548,-25.92954 c 20.629,-0.66931 57.402,-3.8979 70.05,-6.15023 3.669,-0.65342 12.676,-1.89387 20.014,-2.75657 7.339,-0.8627 14.844,-2.13143 16.679,-2.81941 1.835,-0.68798 7.239,-1.7457 12.009,-2.3505 4.77,-0.60479 14.677,-2.42881 22.016,-4.05337 7.338,-1.62455 15.744,-3.102 18.68,-3.28322 2.935,-0.18121 8.039,-0.97728 11.341,-1.76904 3.302,-0.79176 9.307,-2.1224 13.343,-2.95699 4.036,-0.83458 11.842,-2.8992 17.346,-4.58803 5.504,-1.68883 12.559,-3.76616 15.678,-4.61627 6.515,-1.77578 7.03,-3.1548 2.33,-6.23465 -3.936,-2.5787 -23.044,-8.43244 -30.684,-9.40004 -2.935,-0.37176 -7.138,-1.51338 -9.34,-2.53694 -2.202,-1.02356 -10.608,-2.81821 -18.68,-3.98811 -8.073,-1.16989 -17.679,-2.95195 -21.349,-3.96013 -3.669,-1.00817 -12.473,-2.18471 -19.563,-2.61452 -7.091,-0.42982 -14.597,-1.34076 -16.679,-2.02431 -3.982,-1.30691 -26.035,-2.92718 -36.797,-2.70354 -3.479,0.0723 -11.006,-0.50949 -16.728,-1.29283 -5.721,-0.78335 -19.687,-1.71187 -31.035,-2.06337 -11.348,-0.35151 -25.736,-1.2436 -31.974,-1.98243 -6.238,-0.73882 -17.165,-1.72663 -24.282,-2.19511 -12.311,-0.81034 -13.31,-0.67136 -20.518,2.85524 l -7.577,3.70703 -21.512,-2.04999 c -11.832,-1.12749 -27.818,-1.90782 -35.523,-1.73407 -13.974,0.3151 -17.112,0.89768 -36.026,6.68787 -10.907,3.33909 -18.034,5.20945 -33.357,8.75367 -9.634,2.2283 -28.976,8.68602 -38.695,12.91897 -8.03,3.49771 -19.58,11.96637 -18.2,13.3458 0.143,0.14369 5.51,0.91357 11.926,1.71083 6.416,0.79727 13.004,1.97134 14.641,2.60906 1.636,0.63772 7.478,2.13207 12.982,3.32076 5.504,1.1887 17.663,3.97357 27.021,6.1886 9.357,2.21503 21.966,4.68499 28.02,5.48879 6.053,0.80381 12.808,2.21851 15.009,3.14377 3.382,1.42136 18.085,3.55907 36.457,5.30058 2.438,0.23113 9.343,1.11907 15.344,1.97317 11.138,1.58522 53.839,3.72715 62.281,3.12412 2.569,-0.18346 13.977,-0.63553 25.352,-1.00459 z m 73.024,-4.23102 c -0.443,-0.44337 -1.594,-0.49078 -2.557,-0.10534 -1.064,0.42594 -0.748,0.74211 0.806,0.80614 1.407,0.0579 2.195,-0.25743 1.751,-0.7008 z"
       id="path28" />
  </g>
</svg>
