<?xml version="1.0" encoding="UTF-8" standalone="no"?>
<!-- Created with Inkscape (http://www.inkscape.org/) -->

<svg
   version="1.1"
   id="svg1"
   width="779.18121"
   height="1725.8827"
   viewBox="0 0 779.18121 1725.8829"
   sodipodi:docname="mountain.svg"
   inkscape:version="1.4.3 (0d15f75, 2025-12-25)"
   inkscape:export-batch-name="doodles"
   inkscape:export-batch-path="C:\Users\Kjmut\Downloads\doodles"
   xmlns:inkscape="http://www.inkscape.org/namespaces/inkscape"
   xmlns:sodipodi="http://sodipodi.sourceforge.net/DTD/sodipodi-0.dtd"
   xmlns="http://www.w3.org/2000/svg"
   xmlns:svg="http://www.w3.org/2000/svg">
  <sodipodi:namedview
     id="namedview1"
     pagecolor="#505050"
     bordercolor="#eeeeee"
     borderopacity="1"
     inkscape:showpageshadow="0"
     inkscape:pageopacity="0"
     inkscape:pagecheckerboard="0"
     inkscape:deskcolor="#505050"
     inkscape:zoom="0.36251647"
     inkscape:cx="2884.0069"
     inkscape:cy="1148.9133"
     inkscape:window-width="1920"
     inkscape:window-height="1051"
     inkscape:window-x="-9"
     inkscape:window-y="-9"
     inkscape:window-maximized="1"
     inkscape:current-layer="g2" />
  <defs
     id="defs1" />
  <g
     id="g1"
     inkscape:groupmode="layer"
     inkscape:label="1"
     transform="translate(-252.18622,-371.7321)">
    <path
       style="fill:#000000"
       d="m 714.53394,2096.1847 c 0,-0.9721 -1.60896,-1.1811 -4.67038,-0.6068 -4.50015,0.8443 -6.38713,-0.695 -3.23798,-2.6413 2.39303,-1.4789 -3.76769,-4.8955 -6.98584,-3.8741 -2.31807,0.7358 -2.69172,0.4769 -1.98189,-1.3729 0.48111,-1.2537 1.23922,-3.7317 1.68469,-5.5066 0.68476,-2.7283 0.42606,-3.0867 -1.67368,-2.3186 -2.31067,0.8453 -2.33513,0.7302 -0.35127,-1.6529 3.6958,-4.4395 4.16899,-7.4041 1.30146,-8.154 -1.54895,-0.405 -2.29224,-1.4302 -1.85781,-2.5623 0.39828,-1.0379 0.0617,-2.6853 -0.74795,-3.6608 -0.80966,-0.9756 -1.077,-2.1689 -0.59409,-2.6518 0.48291,-0.4829 -0.12277,-0.8781 -1.34597,-0.8781 -1.22319,0 -2.22399,-0.6004 -2.22399,-1.3344 0,-0.7339 0.61019,-1.3343 1.35598,-1.3343 0.74579,0 2.35912,-2.1036 3.58518,-4.6747 2.65845,-5.5748 2.70163,-5.5273 -12.94752,-14.2411 -5.50438,-3.0649 -16.01273,-8.9759 -23.3519,-13.1354 -29.12739,-16.5085 -68.52494,-34.4317 -83.22135,-37.8601 -4.2474,-0.9908 -9.77806,-2.7452 -12.29037,-3.8985 -2.5123,-1.1533 -10.57259,-4.774 -17.91176,-8.046 -24.60744,-10.9706 -85.8018,-40.9835 -107.41871,-52.6836 -5.50437,-2.9793 -13.01034,-6.9827 -16.67992,-8.8965 -3.66958,-1.9139 -8.4734,-4.5009 -10.67515,-5.749 -2.20175,-1.248 -7.45593,-3.7594 -11.67595,-5.5808 -6.50357,-2.807 -7.67276,-3.8365 -7.67276,-6.7558 0,-2.0906 -1.58496,-4.9626 -4.03297,-7.3079 -2.21813,-2.1251 -4.71509,-6.1406 -5.54879,-8.9233 -1.04148,-3.4761 -2.28488,-5.0593 -3.9734,-5.0593 -1.35167,0 -2.45757,0.9007 -2.45757,2.0016 0,1.1008 -1.12743,2.0015 -2.5054,2.0015 -1.37797,0 -3.25293,0.9008 -4.16657,2.0016 -2.16213,2.6052 -5.20834,2.5567 -6.22751,-0.099 -1.02045,-2.6593 -6.59517,-1.4789 -10.58175,2.2405 -2.79766,2.6101 -2.79871,2.6096 -6.3573,-2.7678 -1.95755,-2.958 -4.20118,-5.3782 -4.98585,-5.3782 -0.78466,0 -1.17036,-0.7506 -0.85712,-1.668 0.31325,-0.9174 -0.44476,-2.5687 -1.68447,-3.6696 -5.81327,-5.1623 -9.55431,-30.5474 -8.45601,-57.379 1.40312,-34.2782 1.65137,-45.6536 2.31512,-106.0843 0.38693,-35.228 1.04229,-66.3548 1.45635,-69.1706 0.41406,-2.8158 0.1329,-12.7237 -0.62479,-22.0175 -0.7577,-9.2938 -2.03161,-25.905 -2.83091,-36.9137 -0.7993,-11.0088 -1.66549,-22.1176 -1.92487,-24.6863 -0.25938,-2.5687 -0.53812,-11.1764 -0.61942,-19.1281 -0.0813,-7.9517 -0.66011,-15.7579 -1.28625,-17.3471 -0.62615,-1.5892 -1.82083,-8.2938 -2.65486,-14.899 -0.83403,-6.6053 -2.53257,-17.1136 -3.77454,-23.3519 -2.30363,-11.5709 -2.5916,-27.508 -0.9343,-51.7078 l 0.84531,-12.3431 h 4.09497 c 4.77268,0 7.62205,-3.0931 7.68273,-8.34 0.0254,-2.2006 0.77578,-3.6696 1.8744,-3.6696 2.70405,0 13.21619,-4.8619 17.07509,-7.8973 2.37243,-1.8662 7.02805,-3.0528 15.90893,-4.0549 6.90525,-0.7791 15.85763,-2.017 19.89417,-2.7509 12.78121,-2.3236 25.86091,-4.3549 30.69106,-4.7663 4.73543,-0.4034 77.12626,-3.1574 78.59691,-2.9902 0.43974,0.05 14.16015,0.02 30.48979,-0.067 29.86956,-0.159 31.96914,-0.522 28.02227,-4.844 -0.91739,-1.0047 -3.16918,-3.9917 -5.00397,-6.6379 -1.83479,-2.6462 -6.18825,-8.4632 -9.67436,-12.9266 -3.4861,-4.4633 -6.33837,-8.6629 -6.33837,-9.3323 0,-0.6695 -2.25179,-3.612 -5.00398,-6.5389 -7.66443,-8.1511 -13.15502,-14.5146 -19.84211,-22.9968 -3.35656,-4.2575 -7.53011,-9.3616 -9.27457,-11.3423 -1.74445,-1.9807 -5.55803,-6.3035 -8.47462,-9.6061 -4.91881,-5.5699 -26.45024,-28.3809 -34.00752,-36.0286 -1.8131,-1.8348 -7.32133,-6.9389 -12.24051,-11.3424 -4.91918,-4.4035 -9.91008,-9.0985 -11.09089,-10.4334 -1.18082,-1.3348 -6.35027,-6.8666 -11.48769,-12.2927 -18.49416,-19.5336 -26.14367,-28.0683 -29.72103,-33.1607 -2.00135,-2.8489 -5.48145,-7.086 -7.73354,-9.4157 -2.2521,-2.3298 -6.01824,-6.9043 -8.3692,-10.1657 -4.51929,-6.2695 -11.4702,-15.7015 -13.22031,-17.9394 -1.03183,-1.3194 -9.18161,-12.4785 -14.34759,-19.6455 -1.46783,-2.0364 -5.61381,-7.9376 -9.2133,-13.1139 -3.59948,-5.1763 -7.5574,-10.1311 -8.79539,-11.0107 -1.23798,-0.8796 -3.04531,-3.1005 -4.01629,-4.9353 -3.7572,-7.0997 -27.10864,-32.8924 -30.85597,-34.0817 -1.43725,-0.4562 -3.39643,0.097 -4.59739,1.2979 -1.15105,1.151 -3.05812,2.0928 -4.23795,2.0928 -3.5998,0 -11.52087,-3.1943 -14.34416,-5.7844 -1.46783,-1.3467 -4.2493,-3.277 -6.18103,-4.2897 -2.38584,-1.2508 -3.79461,-3.3464 -4.3927,-6.5345 -0.48425,-2.5813 -2.71013,-8.381 -4.94641,-12.8882 -5.06779,-10.2142 -5.78517,-15.8811 -5.81016,-45.8965 -0.0237,-28.44245 1.81676,-103.69582 2.67606,-109.42032 0.6472,-4.31158 0.86877,-59.0017 0.79471,-196.15593 -0.0477,-88.2311 0.92599,-119.81767 4.08538,-132.53738 1.51167,-6.08603 2.29059,-7.20971 5.43419,-7.83957 2.01827,-0.40438 3.68868,-1.41077 3.71202,-2.23643 0.0233,-0.82565 0.92889,-2.6734 2.01233,-4.10611 1.67312,-2.21248 3.81625,-2.64406 14.22565,-2.86479 9.15194,-0.19405 13.05288,0.26243 15.4033,1.80249 2.36993,1.55284 3.52623,1.68368 4.68031,0.5296 2.21619,-2.21619 8.94977,-1.89592 9.85721,0.46883 0.42244,1.10088 1.92408,2.00159 3.33696,2.00159 1.41289,0 4.80139,0.98433 7.53,2.18739 7.18328,3.16715 11.88075,2.31153 17.90365,-3.26106 2.87488,-2.65994 7.64235,-6.43525 10.59439,-8.38958 2.95203,-1.95433 9.78545,-7.55468 15.18536,-12.44523 5.39991,-4.89055 13.98507,-12.01982 19.07812,-15.84282 5.09306,-3.82299 16.34131,-12.95567 24.99612,-20.29484 23.55585,-19.97507 47.38064,-38.56968 56.42087,-44.03501 1.21398,-0.73391 5.69896,-4.4869 9.96662,-8.33996 4.26767,-3.85306 8.2706,-7.00557 8.89542,-7.00557 0.62481,0 6.12694,-3.96428 12.22696,-8.80952 6.10001,-4.84523 14.93826,-11.6006 19.64055,-15.01193 8.64099,-6.2687 29.518,-22.85543 33.9894,-27.00448 1.33483,-1.23859 3.5651,-1.95436 4.95617,-1.59059 1.39106,0.36377 3.53426,-0.34366 4.76267,-1.57206 1.48195,-1.48195 3.95065,-2.10949 7.33683,-1.865 3.63233,0.26226 5.98323,-0.41808 8.15589,-2.36029 2.31939,-2.07337 4.49478,-2.62983 9.05732,-2.31688 3.30263,0.22654 6.90549,0.42384 8.00636,0.43845 1.10088,0.0146 4.29982,0.0577 7.10876,0.0957 2.80894,0.038 8.08535,1.24303 11.72535,2.67779 3.64,1.43475 7.64678,2.60968 8.90397,2.61095 2.08917,0.002 15.39009,5.19525 55.66154,21.73215 16.51862,6.78314 38.27343,17.30767 60.04773,29.04984 23.65059,12.754 53.75893,27.59229 61.87109,30.49193 57.34377,20.49712 75.03889,28.00086 83.11252,35.24446 1.2119,1.08731 3.47454,2.38035 5.0281,2.87343 4.23218,1.34324 18.66081,16.05653 18.53892,18.90466 -0.0584,1.36389 0.30825,3.45172 0.8147,4.63962 0.62224,1.45948 0.13776,2.3646 -1.4941,2.79134 -2.23215,0.58372 -2.31983,1.60888 -1.15833,13.54377 l 1.2566,12.91224 4.9889,0.79776 c 2.74389,0.43876 7.96881,2.67955 11.61093,4.97952 6.97433,4.40425 21.07509,15.52412 19.68564,15.52412 -0.44777,0 0.32989,2.25179 1.72815,5.00398 5.91832,11.64898 7.88194,24.8095 11.49796,77.06126 1.11738,16.14617 2.61819,35.66168 3.33513,43.36781 0.71695,7.70612 1.94378,25.11997 2.7263,38.69743 0.78253,13.57746 1.73604,28.28915 2.11892,32.69265 0.38288,4.40351 0.92173,42.53382 1.19743,84.73403 0.59945,91.75382 1.82906,136.79002 4.05934,148.67846 0.65588,3.4961 0.34569,5.5319 -1.09181,7.1654 -1.10439,1.255 -3.65825,5.5735 -5.67524,9.5966 -2.01699,4.0231 -6.4389,9.9198 -9.82648,13.1038 -6.42698,6.0408 -22.60505,14.6672 -30.76897,16.4067 -2.6108,0.5562 -11.05193,2.5882 -18.75805,4.5155 -17.80413,4.4528 -34.4209,6.9666 -44.91954,6.7954 -4.52304,-0.074 -8.03605,0.1743 -7.80669,0.5512 0.22935,0.3769 -5.37738,0.96 -12.4594,1.2957 -11.90116,0.5643 -25.88113,0.5664 -81.80509,0.012 -22.75606,-0.2254 -40.77499,1.0126 -41.92963,2.8809 -0.64945,1.0508 7.05975,12.508 20.53824,30.5234 8.38365,11.2056 39.89212,44.5883 71.16868,75.402 29.68746,29.2481 64.46865,60.5989 99.02978,89.2627 8.70512,7.2198 19.81395,16.7525 24.68629,21.1838 11.66539,10.6096 19.0053,15.8774 21.03668,15.0979 2.52852,-0.9703 11.51626,3.862 16.36944,8.8011 2.39019,2.4325 6.30512,8.6261 8.69984,13.7635 2.39473,5.1374 5.95249,11.6764 7.90613,14.531 2.75612,4.0271 3.55208,6.7884 3.55208,12.3225 0,3.9228 1.77295,15.9987 3.93988,26.8353 9.20764,46.0467 13.36764,75.0618 18.70394,130.4576 1.4846,15.4123 3.0156,31.0247 3.402,34.6942 0.3865,3.6696 0.9814,11.7761 1.3221,18.0144 0.8216,15.0451 2.9781,53.783 4.6075,82.7668 0.723,12.8625 1.8909,25.1723 2.5953,27.3551 0.7043,2.1828 2.3014,9.9735 3.549,17.3127 1.2476,7.3392 2.8289,14.0545 3.5141,14.9229 1.7098,2.1671 -3.9606,22.7971 -7.1398,25.9763 -1.3577,1.3578 -3.8767,2.4686 -5.5977,2.4686 -4.0157,0 -7.5995,3.9752 -7.9823,8.854 -0.2516,3.2067 -0.832,3.7663 -3.6014,3.4723 -3.0383,-0.3225 -4.1525,1.4281 -13.97663,21.9585 -8.59583,17.9636 -24.78295,48.3878 -29.73876,55.895 -0.52377,0.7934 -3.26174,4.9967 -6.08438,9.3407 -2.82265,4.3441 -6.25868,9.3994 -7.63563,11.2342 -1.37695,1.8348 -7.38371,10.5417 -13.34837,19.3487 -5.96465,8.807 -12.23103,17.514 -13.92529,19.3488 -1.69426,1.8348 -4.18665,5.2391 -5.53864,7.5652 -2.10993,3.6301 -15.07576,21.2214 -25.40507,34.4682 -1.71685,2.2017 -6.11314,7.8456 -9.76953,12.542 -6.50973,8.3612 -16.64608,20.1136 -30.02467,34.8113 -6.67891,7.3374 -18.07016,20.3712 -31.50372,36.0463 -8.19596,9.5635 -10.65356,14.2465 -11.25122,21.439 -0.40701,4.8981 0.0348,8.0026 1.4451,10.1551 1.11723,1.7051 1.56713,3.1094 0.99977,3.1206 -3.18787,0.063 -4.59986,2.3897 -3.12397,5.1474 1.23049,2.2992 1.14487,2.8385 -0.45067,2.8385 -1.08339,0 -2.34091,-0.6005 -2.79449,-1.3344 -1.24224,-2.01 -4.67038,-1.6018 -4.67038,0.556 0,1.0397 0.55851,2.0906 1.24114,2.3352 0.68263,0.2447 1.43323,2.2462 1.668,4.448 0.37464,3.5136 0.0417,3.9611 -2.72225,3.6593 -2.33192,-0.2546 -2.94875,0.1782 -2.37706,1.668 0.52687,1.373 -0.0621,2.0119 -1.85489,2.0119 -1.44544,0 -2.62691,-0.9003 -2.62691,-2.0016 0,-1.112 -1.18613,-2.0016 -2.66879,-2.0016 -3.13933,0 -3.56846,2.4073 -0.63013,3.5348 2.27389,0.8726 5.23164,5.6524 4.16052,6.7235 -0.37896,0.379 -1.98824,-0.221 -3.57617,-1.3332 -2.22167,-1.5561 -3.77944,-1.7112 -6.75826,-0.6728 -4.48968,1.5651 -5.03586,3.7025 -1.20232,4.705 3.0566,0.7993 3.65366,4.3898 0.72998,4.3898 -1.06634,0 -3.52587,-0.7231 -5.46561,-1.6069 -2.99844,-1.3662 -3.71748,-1.2662 -4.79947,0.6672 -0.69997,1.2507 -2.67978,2.2741 -4.39958,2.2741 -1.7198,0 -3.4435,0.825 -3.83043,1.8333 -0.71097,1.8528 -19.00383,11.5106 -21.80217,11.5106 -0.83237,0 -1.85503,0.8903 -2.27258,1.9784 -0.53859,1.4036 -1.90537,1.7492 -4.70392,1.1895 -3.3822,-0.6765 -4.23148,-0.2345 -5.95548,3.0994 -1.10591,2.1386 -3.58523,4.6057 -5.50959,5.4825 -4.39932,2.0045 -10.04524,2.067 -10.04524,0.1113 z m -4.00318,-16.6426 c 0,-2.3565 -2.87263,-1.9461 -3.69739,0.5282 -0.29051,0.8715 0.42256,1.5846 1.5846,1.5846 1.16203,0 2.11279,-0.9508 2.11279,-2.1128 z m 73.39166,-27.499 c 0,-1.5724 -3.69558,-1.3222 -4.70987,0.319 -0.47531,0.769 -0.46786,2.4204 0.0166,3.6696 0.80622,2.0791 1.04204,2.0521 2.78703,-0.319 1.04846,-1.4246 1.90629,-3.0759 1.90629,-3.6696 z m -21.31355,-85.4355 c 20.15854,-22.9006 46.87735,-54.1531 54.0062,-63.1701 16.3369,-20.664 21.10948,-26.8219 27.47133,-35.4452 32.34453,-43.8422 63.72894,-92.1697 82.22058,-126.608 9.24535,-17.2182 19.48861,-41.763 20.11689,-48.2039 0.33953,-3.4807 -0.59329,-11.9151 -2.13991,-19.3487 -1.508,-7.248 -3.39807,-22.1854 -4.20016,-33.1941 -0.80209,-11.0088 -1.72204,-22.1176 -2.04433,-24.6863 -0.32229,-2.5687 -1.79619,-19.0818 -3.27533,-36.6958 -4.67981,-55.7286 -7.99396,-86.5246 -10.05221,-93.4076 -1.09731,-3.6696 -2.90698,-15.0787 -4.02148,-25.3535 -3.4023,-31.3666 -7.7171,-59.2458 -11.3949,-73.6259 -1.43489,-5.6104 -2.60889,-11.0827 -2.60889,-12.1607 0,-3.994 -26.49983,-29.5892 -34.02704,-32.8654 -2.20175,-0.9583 -5.14709,-3.0262 -6.54519,-4.5953 -1.3981,-1.5691 -3.19953,-2.8692 -4.00318,-2.8891 -2.27419,-0.056 -11.12694,-8.7931 -12.13824,-11.9794 -0.78802,-2.4829 -1.57257,-2.7441 -5.99647,-1.9967 -4.83759,0.8173 -5.13358,0.6607 -5.97264,-3.1595 -0.84594,-3.8515 -7.83401,-9.4985 -11.79075,-9.528 -1.37851,-0.01 -8.30396,-5.4762 -21.04287,-16.6081 -1.89113,-1.6525 -4.58873,-3.6484 -5.99466,-4.4352 -1.40593,-0.7868 -2.56079,-2.4864 -2.56635,-3.7768 -0.006,-1.4767 -1.49389,-2.741 -4.01329,-3.4112 -3.99605,-1.063 -9.14655,-5.2684 -15.41559,-12.5871 -1.82415,-2.1296 -8.56309,-8.2586 -14.97542,-13.6201 -9.50678,-7.9488 -21.06795,-19.0845 -41.86642,-40.3257 -0.844,-0.862 -2.50855,-2.558 -3.69899,-3.769 -22.55234,-22.9411 -42.13744,-43.6088 -42.13744,-44.4668 0,-0.6023 -2.008,-3.3485 -4.46223,-6.1028 -2.45423,-2.7544 -5.00626,-5.9712 -5.67118,-7.1487 -0.66491,-1.1774 -3.16034,-4.48 -5.5454,-7.3391 -2.38505,-2.8591 -6.28815,-8.0574 -8.67356,-11.5517 -2.3854,-3.4943 -9.44115,-13.4188 -15.67945,-22.0545 -6.23829,-8.6356 -11.94282,-16.6458 -12.67674,-17.8003 -3.1913,-5.0202 -10.58084,-14.2102 -16.79457,-20.8864 -4.32237,-4.6442 -6.61656,-8.2405 -6.43797,-10.0922 0.1526,-1.5823 -0.16835,-4.0779 -0.71322,-5.5457 -0.54488,-1.4679 -1.6509,-4.4703 -2.45784,-6.672 -0.80693,-2.2018 -1.86043,-4.3034 -2.3411,-4.6704 -1.4998,-1.145 -2.62744,-22.5186 -1.2335,-23.3801 0.7088,-0.4381 1.28873,-2.6199 1.28873,-4.8485 0,-5.9805 4.13143,-10.756 12.53635,-14.4907 7.04769,-3.13162 7.46109,-3.5787 7.38608,-7.98767 -0.0437,-2.56871 -0.007,-41.2995 0.0813,-86.06842 0.15921,-80.61289 -1.07536,-125.88275 -3.78464,-138.77699 -0.77103,-3.66959 -2.02583,-21.98414 -2.78843,-40.69902 -0.7626,-18.71488 -2.14493,-46.33684 -3.07183,-61.38213 -2.98185,-48.40082 -1.27006,-78.72926 4.44361,-78.72926 1.30066,0 2.74025,-1.05083 3.1991,-2.33519 1.10073,-3.08106 12.06077,-11.00875 15.2196,-11.00875 1.36439,0 3.20708,0.87523 4.09488,1.94496 2.89474,3.48795 12.9879,0.0378 11.54542,-3.94655 -0.27297,-0.75397 2.42737,-1.46039 6.20809,-1.62406 6.09471,-0.26385 12.00833,2.10106 15.65334,6.25991 0.36696,0.41869 4.04367,3.60791 8.17046,7.08715 15.6898,13.22784 18.45214,21.34983 22.33542,65.67186 3.94155,44.98697 4.40253,51.55346 5.01176,71.39009 0.30429,9.90787 0.78925,21.0167 1.07769,24.68629 1.98534,25.25797 3.51836,87.66697 3.82511,155.71956 0.19748,43.8125 0.70521,80.00524 1.12829,80.42832 0.8218,0.8218 46.05686,-2.85158 47.71203,-3.87453 0.54117,-0.33447 13.55503,-0.0471 28.91966,0.63862 44.87682,2.00281 99.00027,1.87113 101.55255,-0.24707 1.86546,-1.54819 2.03286,-4.84724 1.34356,-26.47792 -0.43307,-13.59016 -1.38393,-35.51797 -2.11301,-48.72847 -0.72909,-13.21051 -1.65345,-42.6339 -2.05414,-65.38532 -0.949,-53.88499 -4.99755,-134.4961 -8.7458,-174.13843 -4.04859,-42.81887 -4.6211,-86.70476 -1.159,-88.84445 3.30276,-2.04122 -1.98112,-15.81595 -5.5111,-14.36707 -1.10087,0.45186 -4.52743,1.24223 -7.61457,1.75638 -4.24334,0.70671 -5.78876,0.47672 -6.33338,-0.94254 -0.43989,-1.14632 -2.14131,-1.71002 -4.36933,-1.44761 -2.8692,0.33791 -4.02119,-0.34356 -5.39107,-3.18913 -1.552,-3.22388 -2.09668,-3.45734 -4.99034,-2.1389 -2.53678,1.15583 -4.50867,0.9986 -9.00327,-0.71791 -3.16528,-1.20883 -6.53568,-2.19788 -7.48975,-2.19788 -0.95408,0 -6.3383,-1.87044 -11.96494,-4.15653 -5.62663,-2.28609 -12.93239,-4.94463 -16.23501,-5.90787 -11.05546,-3.22442 -25.24444,-8.48415 -28.31648,-10.49666 -1.67298,-1.09598 -7.24512,-3.57139 -12.38254,-5.50092 -5.13742,-1.92952 -10.24147,-4.3011 -11.34235,-5.27016 -1.10087,-0.96907 -4.10326,-2.6897 -6.67197,-3.82362 -2.56871,-1.13393 -6.17157,-2.93178 -8.00636,-3.99523 -1.83479,-1.06344 -9.01991,-4.75736 -15.96694,-8.20869 -6.94702,-3.45134 -14.08361,-7.41782 -15.85908,-8.81441 -1.77547,-1.39659 -3.72913,-2.53925 -4.34147,-2.53925 -0.61233,0 -10.4774,-4.50358 -21.92236,-10.00796 -11.44496,-5.50437 -21.02131,-10.00795 -21.28077,-10.00795 -0.25947,0 -3.37381,-1.28693 -6.92076,-2.85985 -3.54695,-1.57291 -7.34971,-3.01251 -8.45059,-3.19911 -1.10087,-0.1866 -6.80541,-2.4952 -12.67674,-5.13023 -5.87133,-2.63503 -11.83664,-4.79829 -13.25624,-4.80725 -4.11972,-0.026 -12.85108,4.74573 -21.63405,11.82313 -4.47231,3.60383 -9.37957,6.94855 -10.90502,7.43271 -1.52546,0.48416 -3.1489,2.06291 -3.60766,3.50834 -0.45876,1.44542 -3.85996,4.16135 -7.55821,6.0354 -3.69826,1.87405 -7.02652,4.56382 -7.39615,5.97726 -0.36962,1.41345 -1.22978,2.5699 -1.91146,2.5699 -0.68167,0 -2.86343,1.64222 -4.84834,3.64937 -3.6557,3.69666 -4.01288,3.89242 -7.64514,4.1902 -1.11904,0.0917 -2.55652,1.51787 -3.19441,3.16919 -1.89095,4.89518 -11.54986,12.07848 -15.06773,11.20581 -0.9464,-0.23477 -1.33961,-0.19807 -0.87379,0.0815 0.46582,0.27963 -3.10362,4.23444 -7.93209,8.78846 -4.82846,4.55403 -10.91412,10.37936 -13.52368,12.94518 -2.60957,2.56581 -6.06129,5.26796 -7.67049,6.00477 -1.60921,0.73681 -5.26511,3.52581 -8.12422,6.19779 -2.8591,2.67198 -7.1393,5.86183 -9.51154,7.08857 -2.37224,1.22673 -7.9525,5.04534 -12.40058,8.4858 -4.44808,3.44045 -12.362,9.3203 -17.58649,13.06632 -5.22449,3.74602 -11.00026,8.30839 -12.83505,10.13859 -1.8348,1.83021 -5.25519,4.31839 -7.60088,5.52929 -2.34569,1.21091 -5.88612,3.70415 -7.86762,5.54054 -1.9815,1.83639 -4.03152,3.33889 -4.55561,3.33889 -0.52409,0 -3.13009,2.05337 -5.79112,4.56304 -2.66102,2.50967 -7.99919,6.15821 -11.8626,8.10786 -3.8634,1.94965 -10.81195,5.91512 -15.4412,8.81215 -4.62926,2.89703 -8.96576,4.92807 -9.63667,4.51342 -0.67091,-0.41464 -2.6358,0.17388 -4.36643,1.30784 -1.73063,1.13395 -3.54902,1.6593 -4.04087,1.16745 -0.49185,-0.49185 -0.89428,-0.26657 -0.89428,0.50063 0,0.76719 -1.80146,2.14109 -4.00326,3.0531 l -4.00325,1.65821 0.74765,62.8882 c 0.41121,34.58851 0.989,65.29011 1.28397,68.22578 0.51208,5.09638 0.90097,120.24161 0.42252,125.09945 -0.1265,1.28435 -0.71554,2.33519 -1.30897,2.33519 -0.59343,0 -0.48268,1.56833 0.2461,3.48519 0.7588,1.99578 0.97326,8.41119 0.50185,15.01193 -1.1713,16.4004 -1.18702,85.66587 -0.0203,89.25527 0.53676,1.6513 1.73151,3.0024 2.655,3.0024 0.92348,0 3.00609,1.4125 4.62802,3.139 1.62192,1.7264 5.29257,3.8412 8.15699,4.6994 7.71371,2.3111 19.29834,12.7244 32.06678,28.8245 6.23449,7.8613 14.63806,18.3831 18.6746,23.3818 6.78901,8.4073 10.73636,13.7251 27.76339,37.4026 6.43341,8.9462 10.21424,13.7452 22.94567,29.1252 4.0377,4.8777 9.51488,11.5706 12.17152,14.8733 6.04304,7.5124 24.38938,26.8965 54.54608,57.6313 25.367,25.8532 41.23443,43.767 56.04455,63.2722 17.81825,23.467 22.33641,29.5336 25.28139,33.9456 15.65234,23.4495 34.95896,47.9209 43.35622,54.9547 3.90577,3.2715 5.74381,2.9681 14.6874,-2.4247 6.20597,-3.7421 8.96415,-4.6574 12.67674,-4.2067 2.60974,0.3168 6.10119,-0.03 7.75878,-0.7708 2.14776,-0.9599 3.91769,-0.8631 6.15941,0.3366 2.74587,1.4695 3.83957,1.2454 8.60624,-1.7637 4.9931,-3.152 5.56948,-3.2526 6.73214,-1.175 1.05604,1.887 1.80046,2.0101 4.3927,0.7263 7.14263,-3.5373 11.65943,-3.4555 16.5837,0.3004 2.57531,1.9643 5.53448,3.2445 6.57594,2.8448 2.23021,-0.8558 3.67812,1.1101 4.1623,5.6514 0.19183,1.7993 1.05696,3.7091 1.9225,4.244 0.86555,0.535 1.18676,1.5987 0.7138,2.364 -0.47296,0.7653 -0.26932,1.7564 0.45253,2.2025 0.72185,0.4462 0.95683,2.5893 0.52217,4.7626 -0.67745,3.3873 -0.38543,3.9515 2.0453,3.9515 1.55957,0 2.83558,0.3397 2.83558,0.7549 0,1.4791 -3.04302,6.629 -5.54205,9.3792 -2.49387,2.7444 -2.21614,7.213 0.4483,7.213 0.71098,0 -2.05541,4.0336 -6.14753,8.9637 -4.09213,4.93 -7.43941,9.8839 -7.43841,11.0087 10e-4,1.1248 0.83638,6.8489 1.85638,12.7202 1.02,5.8714 2.2351,15.1788 2.70021,20.6831 0.46512,5.5044 1.42966,14.5116 2.14342,20.016 2.16597,16.7034 6.63271,62.2735 7.38999,75.3932 2.73112,47.3166 3.33327,64.1955 3.83209,107.4188 0.73336,63.5453 3.20423,97.4808 8.23318,113.0764 1.46738,4.5506 1.51565,7.0313 0.24665,12.6768 -0.86776,3.8604 -2.34091,7.4886 -3.27366,8.0626 -1.08923,0.6703 -1.4075,2.4857 -0.88969,5.0748 0.75787,3.7894 0.60127,3.9798 -2.61055,3.1737 -2.98436,-0.7491 -3.47168,-0.3951 -3.85055,2.7969 -0.40793,3.4369 -1.63901,4.6774 -6.43853,6.4877 -1.10088,0.4153 -2.90231,1.3235 -4.00319,2.0184 -1.10087,0.6949 -3.60662,1.5992 -5.56833,2.0097 -1.9617,0.4105 -5.35101,2.2477 -7.53179,4.0827 -3.18657,2.6813 -5.41822,3.3363 -11.36644,3.3363 -4.07076,0 -7.7725,0.6005 -8.22609,1.3344 -0.45358,0.7339 -2.34788,1.3344 -4.20954,1.3344 -1.86166,0 -5.15016,1.257 -7.30778,2.7934 -4.25193,3.0276 -7.37873,2.6376 -8.77976,-1.0951 -0.4883,-1.301 -1.68373,-2.966 -2.6565,-3.6999 -0.97277,-0.7339 -2.34634,-4.8901 -3.05238,-9.236 -1.16532,-7.173 -3.72663,-15.0442 -8.84162,-27.1715 -1.01654,-2.4101 -1.85699,-5.7127 -1.86767,-7.3391 -0.0107,-1.6265 -0.84922,-5.3591 -1.86343,-8.2947 -3.60561,-10.4367 -5.69475,-50.0039 -6.86941,-130.1035 -0.92141,-62.83 -1.05763,-65.3208 -5.98443,-109.4203 -0.69694,-6.2383 -1.90224,-19.1485 -2.67845,-28.6895 -0.77621,-9.5409 -1.97237,-19.749 -2.65814,-22.6847 -0.68577,-2.9356 -1.51654,-8.0397 -1.84615,-11.3423 -0.32961,-3.3026 -0.63664,-6.2077 -0.68228,-6.4557 -0.16145,-0.8772 -10.90036,1.3919 -14.47323,3.0582 -1.99324,0.9296 -16.2341,2.9871 -31.64635,4.5724 -15.41225,1.5852 -32.82609,3.4695 -38.69742,4.1873 -13.30922,1.6271 -33.14491,2.4105 -83.39962,3.2938 -41.70551,0.7331 -61.44566,1.7434 -63.91792,3.2713 -1.10078,0.6804 -1.14152,3.6095 -0.15086,10.8487 0.74638,5.4541 1.97218,16.2217 2.724,23.9278 0.75181,7.7061 1.59072,15.8126 1.86424,18.0143 2.70661,21.7877 7.35927,95.8726 6.78798,108.0859 -0.13732,2.9357 -0.68058,24.5529 -1.20724,48.0382 -0.52666,23.4854 -1.20204,46.6037 -1.50085,51.3742 -1.06044,16.9301 -2.64548,60.9028 -2.64548,73.3917 v 12.6767 l 8.00636,0.3513 c 14.79241,0.6491 38.80952,10.1934 58.71333,23.3324 7.65648,5.0542 7.3856,4.9123 47.37099,24.8201 16.51312,8.2215 30.92457,15.5113 32.02545,16.1996 3.47372,2.1718 26.99117,13.4934 36.02864,17.3447 4.77045,2.0328 13.17714,5.8 18.68151,8.3714 5.50438,2.5715 18.92672,8.6704 29.82743,13.5533 21.59181,9.6717 39.28363,18.8002 56.8876,29.3522 6.22698,3.7325 12.34348,7.3869 13.59222,8.1208 10.9561,6.4391 17.15473,10.3049 21.1226,13.1731 2.5687,1.8568 5.28739,3.4054 6.04152,3.4414 0.75413,0.036 4.65723,-3.6677 8.67356,-8.2303 z m -184.18311,3.7041 c 0,-0.3237 -0.60048,-0.9596 -1.33439,-1.4132 -0.73392,-0.4535 -1.3344,-0.1887 -1.3344,0.5885 0,0.7772 0.60048,1.4131 1.3344,1.4131 0.73391,0 1.33439,-0.2648 1.33439,-0.5884 z m 116.09227,-156.8701 c 0,-5.208 -1.91708,-5.2058 -2.28147,0 -0.15394,2.2003 0.29642,4.0005 1.00079,4.0005 0.70438,0 1.28068,-1.8014 1.28068,-4.0032 z m 8.85414,-6.0735 c 3.47732,-3.7521 3.81351,-4.6016 1.82101,-4.6016 -1.73062,0 -6.67197,4.9413 -6.67197,6.6719 0,2.183 1.50407,1.5411 4.85096,-2.0703 z m 13.22313,-0.3777 c -2.82437,-0.5687 -6.06454,0.6549 -6.06454,2.2903 0,0.7282 1.74835,0.605 4.14089,-0.2918 2.79,-1.0457 3.41755,-1.6977 1.92365,-1.9985 z m -19.27113,-6.6245 c -1.75449,-0.5849 -5.47493,2.0852 -5.47493,3.9291 0,0.661 1.58319,0.1644 3.5182,-1.1034 1.93501,-1.2679 2.81554,-2.5395 1.95673,-2.8257 z m -5.47493,-23.0298 c 0,-1.8311 -2.04159,-2.5061 -5.13412,-1.6973 -2.19267,0.5733 -2.57381,1.1931 -1.51691,2.4666 1.46435,1.7644 6.65103,1.1645 6.65103,-0.7693 z m 314.17126,-100.6274 c -3.3889,-2.5632 -5.3709,-2.589 -3.2575,-0.043 0.9137,1.1009 2.6032,2.0016 3.7544,2.0016 1.6758,0 1.5766,-0.3907 -0.4969,-1.9591 z m -1.9231,-180.8529 c 0,-0.7339 -0.565,-1.3344 -1.2556,-1.3344 -0.6906,0 -1.6268,0.6005 -2.0804,1.3344 -0.4536,0.7339 0.1115,1.3344 1.2557,1.3344 1.1442,0 2.0803,-0.6005 2.0803,-1.3344 z M 938.71212,884.03611 c 0,-1.10087 -0.60048,-2.00159 -1.3344,-2.00159 -0.73391,0 -1.33439,0.90072 -1.33439,2.00159 0,1.10088 0.60048,2.0016 1.33439,2.0016 0.73392,0 1.3344,-0.90072 1.3344,-2.0016 z M 904.01787,550.58035 c 0,-1.02236 -0.97682,-2.23367 -2.17072,-2.69181 -2.4455,-0.93843 -6.19752,1.55116 -5.075,3.36743 1.19687,1.93657 7.24572,1.37255 7.24572,-0.67562 z"
       id="path18" />
  </g>
</svg>
