<?xml version="1.0" encoding="UTF-8" standalone="no"?>
<!-- Created with Inkscape (http://www.inkscape.org/) -->

<svg
   version="1.1"
   id="svg1"
   width="523.06329"
   height="1777.755"
   viewBox="0 0 523.06329 1777.7552"
   sodipodi:docname="mountain.svg"
   inkscape:version="1.4.3 (0d15f75, 2025-12-25)"
   inkscape:export-batch-name="doodles"
   xmlns:inkscape="http://www.inkscape.org/namespaces/inkscape"
   xmlns:sodipodi="http://sodipodi.sourceforge.net/DTD/sodipodi-0.dtd"
   xmlns="http://www.w3.org/2000/svg"
   xmlns:svg="http://www.w3.org/2000/svg">
  <sodipodi:namedview
     id="namedview1"
     pagecolor="#505050"
     bordercolor="#eeeeee"
     borderopacity="1"
     inkscape:showpageshadow="0"
     inkscape:pageopacity="0"
     inkscape:pagecheckerboard="0"
     inkscape:deskcolor="#505050"
     inkscape:zoom="0.36251647"
     inkscape:cx="2884.0069"
     inkscape:cy="1148.9133"
     inkscape:window-width="1920"
     inkscape:window-height="1051"
     inkscape:window-x="-9"
     inkscape:window-y="-9"
     inkscape:window-maximized="1"
     inkscape:current-layer="g2" />
  <defs
     id="defs1" />
  <g
     id="g8"
     inkscape:groupmode="layer"
     inkscape:label="8"
     transform="translate(-13425.098,-141.49006)">
    <path
       style="fill:#000000"
       d="m 13859.057,1918.4295 c 0,-0.6888 -2.703,-2.961 -6.007,-5.0492 -3.303,-2.0882 -6.006,-4.578 -6.006,-5.5328 0,-2.4621 -1.775,-2.1568 -5.781,0.9944 -3.28,2.5799 -3.657,2.6087 -6.842,0.5219 -3.14,-2.0572 -4.455,-5.1975 -6.673,-15.9331 -0.455,-2.2024 -1.921,-5.4389 -3.258,-7.1923 -2.02,-2.6498 -2.208,-4.0643 -1.112,-8.381 1.043,-4.1113 0.901,-5.6717 -0.685,-7.4906 -1.102,-1.2636 -2.045,-4.3965 -2.095,-6.962 -0.05,-2.5655 -0.694,-8.2719 -1.431,-12.6808 -5.023,-30.0486 -7.132,-42.0823 -8.23,-46.9568 -0.69,-3.0636 -2.469,-15.0769 -3.953,-26.6962 -1.484,-11.6192 -3.25,-22.9279 -3.925,-25.1303 -0.674,-2.2025 -1.581,-9.253 -2.016,-15.6679 -0.434,-6.4149 -1.058,-12.4215 -1.386,-13.3481 -0.328,-0.9266 -1.159,-6.1897 -1.845,-11.6958 -2.896,-23.2241 -6.967,-50.6929 -8.802,-59.3991 -1.083,-5.1391 -2.626,-13.5484 -3.428,-18.6874 -3.081,-19.743 -9.433,-55.2461 -11.94,-66.7406 -1.441,-6.6073 -4.741,-24.3269 -7.332,-39.377 -2.591,-15.05 -5.974,-33.9709 -7.517,-42.0465 -1.544,-8.0756 -3.911,-20.6896 -5.261,-28.0311 -1.35,-7.3414 -3.428,-18.4538 -4.619,-24.694 -1.19,-6.2402 -3.004,-16.1512 -4.03,-22.0244 -1.027,-5.8732 -2.747,-13.8868 -3.824,-17.8081 -1.077,-3.9213 -1.633,-7.9771 -1.235,-9.0127 0.397,-1.0357 -0.231,-4.2653 -1.396,-7.177 -1.165,-2.9117 -3.376,-12.6713 -4.913,-21.688 -1.538,-9.0167 -3.605,-18.8292 -4.595,-21.8055 -0.99,-2.9763 -3.329,-12.587 -5.198,-21.357 -1.868,-8.77 -4.946,-23.1535 -6.84,-31.9633 -8.562,-39.8366 -11.329,-54.0615 -11.329,-58.2497 0,-2.4772 -0.606,-6.6024 -1.348,-9.1671 -0.742,-2.5646 -1.913,-7.9667 -2.602,-12.0045 -5.555,-32.5399 -8.006,-48.8159 -8.645,-57.3969 -0.731,-9.8299 -1.088,-12.4948 -5.275,-39.3769 -4.124,-26.4831 -6.156,-41.8305 -6.156,-46.4878 0,-2.6097 -0.611,-5.1222 -1.357,-5.5834 -0.746,-0.4611 -0.984,-1.4409 -0.529,-2.1774 0.455,-0.7364 0.149,-7.4524 -0.68,-14.9244 -2.979,-26.8423 -6.861,-64.81272 -7.599,-74.31932 -0.256,-3.30366 -1.708,-12.52618 -3.226,-20.49448 -1.518,-7.9683 -2.599,-16.07728 -2.402,-18.01996 0.459,-4.51535 -2.39,-20.32391 -5.44,-30.17986 -2.21,-7.14209 -2.505,-7.48818 -4.6,-5.39318 -1.231,1.23125 -7.32,9.84515 -13.53,19.14199 -6.21,9.29684 -12.724,19.00568 -14.476,21.57519 -1.752,2.56951 -4.814,7.55652 -6.806,11.08223 -1.991,3.52572 -5.031,6.94658 -6.755,7.60191 -2.114,0.80395 -2.935,1.97513 -2.524,3.6007 0.633,2.50297 -1.722,6.36483 -17.924,29.39263 -5.276,7.49944 -9.593,14.11565 -9.593,14.7027 0,1.98122 -5.663,11.65105 -9.977,17.03625 -2.357,2.9417 -6.157,8.6817 -8.444,12.7555 -2.288,4.0738 -5.445,8.8791 -7.016,10.6785 -3.628,4.1569 -7.934,12.5085 -7.934,15.3881 0,1.2165 -2.062,4.3939 -4.583,7.0609 -2.52,2.6671 -6.875,7.2626 -9.677,10.2124 -19.3,20.3179 -33.43,28.904 -54.871,33.3409 -4.203,0.8697 -4.356,0.7601 -3.531,-2.526 0.729,-2.9046 0.279,-3.6565 -2.909,-4.8687 -3.727,-1.417 -6.031,-0.071 -7.519,4.3905 -0.245,0.736 -2.589,0.3804 -5.494,-0.8334 -3.416,-1.4272 -5.562,-3.4292 -6.587,-6.1447 -1.243,-3.2919 -2.279,-4.0278 -5.674,-4.0278 -4.647,0 -6.166,-2.0973 -8.692,-12.0011 -0.84,-3.2969 -2.687,-7.6221 -4.104,-9.6116 -1.416,-1.9894 -3.476,-6.4999 -4.577,-10.0233 -3.927,-12.5664 -4.29,-22.7959 -6.769,-190.61019 -0.904,-61.18223 -0.818,-169.32275 0.149,-187.79594 0.333,-6.38042 0.7,-23.19905 0.813,-37.37473 0.114,-14.17568 0.706,-32.68162 1.317,-41.12431 2.067,-28.59802 2.862,-57.88986 3.209,-118.13085 0.446,-77.66541 0.229,-72.41701 3.037,-73.31097 1.285,-0.409 3.557,-3.28205 5.049,-6.38457 2.116,-4.39717 3.653,-5.83309 6.975,-6.51237 7.128,-1.4578 10.786,-4.86413 15.528,-14.45928 2.494,-5.04736 7.22,-13.59923 10.501,-19.00416 3.281,-5.40494 7.825,-13.51219 10.099,-18.01612 4.822,-9.55295 29.369,-47.57171 42.518,-65.85287 5.009,-6.96423 11.285,-16.02991 13.948,-20.14595 2.662,-4.11604 8.118,-11.93301 12.124,-17.37103 4.007,-5.43803 15.795,-22.5013 26.198,-37.91838 23.85,-35.34802 23.506,-34.94755 30.689,-35.74209 3.178,-0.35145 6.238,-1.1629 6.8,-1.80323 0.563,-0.64032 4.446,-5.51905 8.63,-10.84161 4.183,-5.32256 8.344,-9.67739 9.247,-9.67739 0.903,0 2.721,2.00222 4.038,4.44938 1.808,3.35685 3.358,4.504 6.311,4.67184 7.053,0.40092 7.918,0.64853 7.918,2.26714 0,0.87986 1.261,3.20301 2.803,5.16257 4.447,5.65413 6.776,16.38939 4.948,22.81548 -2.58,9.07541 -2.455,20.96817 0.253,24.03716 1.296,1.46829 3.353,7.77528 4.573,14.01553 1.219,6.24024 2.455,12.54723 2.746,14.01552 0.64,3.22042 3.285,22.1827 4.004,28.69846 0.283,2.56951 0.882,12.78082 1.331,22.6918 0.449,9.91098 1.386,21.02329 2.081,24.69402 1.979,10.43689 2.798,18.84843 3.371,34.61058 0.292,8.02363 1.144,15.20158 1.893,15.95101 0.75,0.74943 1.363,3.02408 1.363,5.05478 0,2.03071 0.886,5.66473 1.968,8.07562 2.496,5.56022 6.161,36.564 10.065,85.13954 0.856,10.64513 2.121,24.46043 2.812,30.70068 0.691,6.24024 1.627,15.42083 2.08,20.40131 0.513,5.64666 1.376,8.89085 2.293,8.61823 1.215,-0.36102 17.594,-24.08453 42.714,-61.86753 2.494,-3.75053 6.248,-8.04623 8.342,-9.54599 2.094,-1.49977 5.61,-5.23752 7.813,-8.30611 2.202,-3.06859 5.221,-6.88188 6.709,-8.47396 1.488,-1.59209 4.01,-4.99704 5.603,-7.56655 1.593,-2.56951 5.741,-7.0745 9.216,-10.01109 9.792,-8.27417 13.326,-11.77842 14.898,-14.7722 0.796,-1.51739 5.991,-5.00403 11.543,-7.74808 5.552,-2.74406 10.095,-5.78451 10.095,-6.75656 0,-4.34016 13.702,-5.9401 23.359,-2.72752 2.043,0.67954 2.221,0.56989 0.76,-0.46685 -1.479,-1.04912 -0.784,-1.56619 3.078,-2.29069 3.977,-0.7461 5.581,-0.39678 7.916,1.72372 1.611,1.46269 4.488,3.488 6.393,4.50069 6.463,3.43592 15.016,9.83149 20.071,15.00995 6.048,6.19431 7.027,10.17662 9.887,40.22378 3.661,38.46029 7.853,63.92585 13.953,84.76056 1.398,4.77195 3.51,15.58393 4.696,24.02661 1.185,8.44269 3.273,21.05666 4.64,28.03105 1.368,6.97439 3.166,20.7897 3.996,30.70068 0.831,9.91098 2.07,21.32362 2.754,25.36142 0.684,4.03781 1.865,14.54945 2.625,23.35921 0.76,8.80976 1.913,21.1234 2.562,27.36365 0.65,6.24024 1.203,12.2469 1.23,13.34812 0.119,4.89633 2.878,27.03504 4.658,37.37473 1.075,6.24025 2.367,18.85422 2.873,28.03105 0.505,9.17683 1.115,19.08781 1.355,22.0244 0.711,8.69988 3.224,36.89608 3.868,43.38139 0.327,3.30365 0.999,15.01663 1.491,26.02883 0.493,11.0122 1.116,20.37948 1.385,20.81618 0.269,0.43671 0.809,7.64469 1.2,16.01775 0.391,8.37305 1.049,21.83105 1.463,29.90666 4.42,86.29419 4.643,230.37269 0.373,241.26849 -1.007,2.5706 -1.018,4.1791 -0.03,5.3629 0.859,1.0349 1.497,12.0385 1.645,28.3635 0.328,36.2343 1.206,77.6614 1.938,91.411 1.9,35.6938 2.216,67.7351 0.804,81.6294 -0.846,8.3294 -2.098,23.5538 -2.781,33.8318 -0.684,10.2781 -1.83,25.595 -2.547,34.0377 -0.716,8.4427 -1.668,24.961 -2.114,36.7074 -0.446,11.7463 -1.667,27.9643 -2.713,36.0399 -2.814,21.7219 -6.724,70.0774 -7.987,98.7761 -0.42,9.5439 -1.639,25.4615 -2.709,35.3725 -1.831,16.9527 -4.563,52.3888 -7.565,98.1087 -1.336,20.3427 -1.693,85.3528 -0.479,87.3161 1.447,2.3416 -2.058,39.2192 -3.99,41.9773 -1.071,1.5287 -1.947,3.5498 -1.947,4.4913 0,0.9415 -1.501,4.8246 -3.337,8.6291 -1.835,3.8045 -3.34,8.1564 -3.344,9.6708 0,1.5145 -0.634,5.0101 -1.4,7.7681 -1.176,4.2329 -1.851,4.9047 -4.331,4.3093 -2.285,-0.5487 -3.608,0.3389 -5.954,3.9954 -3.674,5.7271 -6.149,5.9618 -8.293,0.786 -1.711,-4.1315 -3.849,-4.2357 -8.315,-0.4053 -2.033,1.7434 -2.62,1.5466 -5.581,-1.8715 -4.106,-4.7413 -6.206,-3.247 -8.165,5.8114 -0.734,3.3937 -2.086,6.4193 -3.004,6.7235 -0.917,0.3042 -1.668,-0.01 -1.668,-0.6994 z m -8.009,-422.8977 c 0,-1.1699 1.205,-2.4423 2.678,-2.8276 1.877,-0.4908 3.24,-2.7495 4.555,-7.5502 1.032,-3.7674 1.84,-7.7508 1.795,-8.852 -0.163,-3.9753 3.074,-35.6507 4.888,-47.8394 1.693,-11.3697 2.825,-50.771 2.145,-74.6423 -0.07,-2.393 0.518,-5.55 1.303,-7.0157 1.022,-1.9103 0.991,-4.1169 -0.111,-7.7933 -1.288,-4.2985 -1.186,-21.2957 0.234,-38.9045 0.507,-6.2987 -0.518,-24.0955 -1.639,-28.4434 -1.914,-7.424 -1.414,-40.581 0.712,-47.2567 0.517,-1.6241 0.32,-4.1117 -0.438,-5.528 -0.952,-1.7785 -0.927,-6.2323 0.08,-14.3996 1.049,-8.5092 1.052,-13.5088 0.01,-17.8313 -1.092,-4.532 -1.031,-7.5705 0.25,-12.3765 1.246,-4.6794 1.353,-8.6676 0.403,-15.0278 -0.878,-5.8739 -0.835,-10.6623 0.132,-14.8909 0.785,-3.4281 0.993,-7.4051 0.463,-8.8378 -0.53,-1.4327 -0.131,-5.6807 0.886,-9.44 1.162,-4.2932 1.581,-10.0616 1.127,-15.5113 -0.433,-5.1862 0,-11.7482 1.062,-16.3131 0.983,-4.2003 1.443,-7.9804 1.023,-8.4004 -1.041,-1.041 -0.26,-19.9388 1.13,-27.3441 0.882,-4.699 0.682,-6.5012 -0.919,-8.2782 -1.7,-1.8873 -1.8,-3.3548 -0.59,-8.6763 0.8,-3.5226 1.427,-13.6127 1.392,-22.4225 -0.03,-8.8097 0.256,-19.87729 0.647,-24.59453 0.477,-5.77176 0.112,-9.91898 -1.119,-12.68071 -2.512,-5.63861 -2.665,-9.20999 -2.177,-50.82234 0.138,-11.74634 -0.138,-32.16897 -0.612,-45.3836 -0.474,-13.21464 -0.875,-25.22795 -0.89,-26.69624 -0.01,-1.4683 -0.535,-7.47495 -1.157,-13.34812 -0.622,-5.87317 -1.472,-18.78748 -1.89,-28.69846 -0.418,-9.91098 -1.06,-20.72295 -1.427,-24.02661 -0.367,-3.30366 -0.926,-11.71298 -1.242,-18.68737 -0.316,-6.97439 -0.895,-15.68404 -1.286,-19.35477 -0.392,-3.67074 -0.997,-11.47939 -1.346,-17.35256 -0.348,-5.87317 -1.249,-15.40104 -2.003,-21.17304 -0.753,-5.772 -1.127,-10.88743 -0.83,-11.36761 0.297,-0.48019 0.04,-3.56629 -0.561,-6.85801 -0.606,-3.29172 -1.48,-13.19293 -1.942,-22.00269 -0.463,-8.80976 -1.437,-20.60578 -2.166,-26.21339 -0.728,-5.60761 -1.251,-12.51526 -1.163,-15.35034 0.185,-5.90784 -0.542,-12.53878 -3.639,-33.18574 -1.211,-8.07561 -2.402,-16.48492 -2.648,-18.68736 -0.87,-7.78866 -2.741,-18.76269 -4.212,-24.69402 -0.818,-3.30366 -2.428,-11.41264 -3.576,-18.01996 -3.24,-18.65239 -5.921,-32.54649 -8.171,-42.35731 -1.907,-8.31622 -3.423,-25.48118 -3.302,-37.39771 0.03,-3.24713 -0.559,-5.00554 -1.687,-5.00554 -2.979,0 -22.114,19.88787 -25.454,26.45598 -2.945,5.7918 -6.652,11.29432 -17.797,26.41341 -2.386,3.23699 -4.338,6.46872 -4.338,7.18162 0,0.7129 -2.303,4.33873 -5.117,8.0574 -2.815,3.71866 -8.246,12.97778 -12.069,20.5758 -3.824,7.59802 -11.185,20.63355 -16.36,28.96784 -5.174,8.33428 -10.252,17.17466 -11.284,19.64527 -1.032,2.47062 -5.063,8.77951 -8.957,14.01977 -3.893,5.24026 -10.033,13.7324 -13.643,18.87143 -8.287,11.79573 -13.905,18.01996 -16.264,18.01996 -1.013,0 -3.505,1.22958 -5.538,2.7324 -3,2.21837 -5.137,2.62417 -11.359,2.1571 -4.215,-0.3164 -8.034,-0.94532 -8.486,-1.39758 -0.452,-0.45226 -1.677,-0.8223 -2.722,-0.8223 -1.044,0 -2.978,-1.33201 -4.296,-2.96003 -2.048,-2.52924 -2.71,-2.70052 -4.546,-1.17692 -1.806,1.49927 -2.673,1.43926 -5.445,-0.37699 -1.813,-1.18806 -4.249,-2.16012 -5.412,-2.16012 -1.164,0 -3.844,-0.89359 -5.956,-1.98576 -3.358,-1.73666 -3.946,-2.95062 -4.685,-9.67739 -0.464,-4.23039 -1.685,-12.49694 -2.712,-18.37011 -1.027,-5.87318 -2.221,-14.53569 -2.653,-19.25003 -0.432,-4.71435 -0.999,-8.91901 -1.261,-9.34369 -0.868,-1.40841 -2.004,-23.08448 -2.769,-52.82981 -0.416,-16.15123 -1.08,-31.46819 -1.477,-34.03771 -0.745,-4.81991 -0.849,-6.5482 -2.495,-41.37917 -0.538,-11.37927 -1.182,-21.03908 -1.43,-21.46625 -0.248,-0.42717 -0.797,-6.13349 -1.219,-12.68071 -0.422,-6.54723 -1.316,-16.40904 -1.986,-21.91514 -1.557,-12.7882 -2.438,-23.5443 -4.097,-50.05544 -0.735,-11.74635 -1.615,-24.66065 -1.954,-28.69846 -0.34,-4.03781 -0.926,-13.91742 -1.303,-21.9547 -0.691,-14.73288 -1.612,-17.7113 -5.071,-16.38426 -1.039,0.39878 -11.391,15.04468 -23.005,32.54643 -23.608,35.57598 -34.045,50.18596 -44.385,62.13034 -7.723,8.9224 -27.966,38.83741 -31.669,46.80078 -2.4,5.16184 -2.384,8.63886 0.214,47.02775 0.347,5.13903 0.75,33.50071 0.895,63.02597 0.187,38.30493 0.701,54.12121 1.795,55.21456 1.153,1.15316 1.064,2.85933 -0.36,6.89584 -1.452,4.11401 -1.566,6.57737 -0.49,10.57369 0.909,3.37421 1.134,17.30459 0.639,39.53277 -0.42,18.87746 -0.704,49.33928 -0.631,67.69294 0.07,18.35367 0.07,34.12113 0,35.03882 -0.07,0.91768 -0.205,2.71968 -0.294,4.00443 -0.205,2.94134 1.481,71.26406 2.33,94.43795 0.35,9.5439 0.947,32.36919 1.327,50.72285 0.723,34.85377 1.266,42.04658 3.178,42.04658 1.563,0 9.799,-10.89027 27.749,-36.6894 17.525,-25.18846 33.409,-47.3327 39.747,-55.41263 3.743,-4.77195 10.929,-14.68293 15.967,-22.02439 12.621,-18.38996 17.84,-24.69052 20.472,-24.71446 1.794,-0.0163 1.877,-0.25502 0.41,-1.18376 -1.476,-0.93488 -1.06,-2.30689 2.118,-6.98732 2.175,-3.20321 5.704,-9.12767 7.843,-13.16548 4.262,-8.04563 7.004,-10.91695 9.562,-10.01539 0.918,0.32336 1.669,-0.2788 1.669,-1.33812 0,-2.67109 7.279,-6.12258 17.088,-8.10211 0.956,-0.19293 3.328,-1.39245 5.271,-2.6656 2.423,-1.58775 3.694,-1.83126 4.046,-0.77529 0.282,0.84674 1.591,1.53952 2.908,1.53952 1.318,0 3.143,0.901 4.057,2.00222 0.914,1.10122 3.275,2.00222 5.248,2.00222 1.972,0 4.704,0.8179 6.071,1.81755 1.367,0.99965 3.594,1.5278 4.948,1.17367 1.505,-0.39368 3.821,0.71542 5.96,2.85429 1.924,1.924 4.258,3.49817 5.187,3.49817 0.928,0 2.93,1.95216 4.448,4.33814 1.518,2.38598 3.98,5.8398 5.472,7.67517 4.871,5.99337 13.219,30.70803 19.842,58.74158 7.604,32.18696 8.252,35.30469 8.241,39.62202 0,2.34265 0.555,4.60915 1.246,5.03666 0.692,0.42751 1.638,3.61646 2.102,7.08654 0.465,3.47008 1.204,7.21024 1.643,8.31146 0.439,1.10122 1.007,4.10455 1.261,6.67406 0.255,2.56951 1.356,7.78005 2.447,11.57896 1.091,3.79892 2.262,10.40624 2.602,14.68293 0.339,4.2767 1.305,11.07947 2.146,15.11728 0.841,4.03781 1.737,9.74413 1.991,12.68071 0.255,2.93659 0.761,7.14125 1.127,9.34369 0.877,5.28698 3.023,23.17662 4.083,34.03773 0.466,4.7719 1.463,12.8809 2.216,18.0199 1.472,10.0481 1.699,12.0588 3.08,27.3637 0.497,5.5061 1.573,14.2157 2.391,19.3548 0.818,5.139 1.616,13.5483 1.774,18.6873 0.159,5.139 0.445,9.9444 0.638,10.6785 0.192,0.7342 0.457,1.9355 0.588,2.6696 0.132,0.7342 1.275,4.7561 2.54,8.9376 1.266,4.1816 2.543,10.7889 2.84,14.683 1.437,18.9012 2.138,24.9507 3.606,31.1067 0.875,3.6708 1.434,7.2291 1.241,7.9074 -0.192,0.6784 0.324,4.0389 1.147,7.4678 0.822,3.4289 1.509,8.2799 1.525,10.78 0.02,2.5 0.852,7.2485 1.856,10.5522 1.769,5.8237 7.201,30.3638 10.635,48.0532 0.926,4.7719 3.561,17.3859 5.855,28.031 4.903,22.7534 15.774,75.0876 24.815,119.4657 1.795,8.8098 4.229,20.2224 5.41,25.3614 1.18,5.1391 2.963,14.5339 3.962,20.8774 0.999,6.3436 2.435,13.8519 3.19,16.6852 0.756,2.8333 2.039,9.6564 2.852,15.1625 0.813,5.5061 2.304,13.3147 3.314,17.3526 1.011,4.0378 2.182,8.9933 2.604,11.0122 0.82,3.9221 3.386,5.092 3.386,1.5435 z m -42.714,-1112.98663 c 0,-0.25414 0.901,-1.20984 2.002,-2.12377 1.154,-0.95779 2.002,-1.08752 2.002,-0.30625 0,0.74549 -0.901,1.70119 -2.002,2.12377 -1.101,0.42257 -2.002,0.56039 -2.002,0.30625 z"
       id="path25" />
  </g>
</svg>
