<?xml version="1.0" encoding="UTF-8" standalone="no"?>
<!-- Created with Inkscape (http://www.inkscape.org/) -->

<svg
   version="1.1"
   id="svg1"
   width="1857.6317"
   height="1346.1859"
   viewBox="0 0 1857.6317 1346.1861"
   sodipodi:docname="doodles_cloud.svg"
   inkscape:version="1.4.3 (0d15f75, 2025-12-25)"
   inkscape:export-batch-name="doodles"
   inkscape:export-batch-path="C:\Users\Kjmut\Downloads\doodles"
   xmlns:inkscape="http://www.inkscape.org/namespaces/inkscape"
   xmlns:sodipodi="http://sodipodi.sourceforge.net/DTD/sodipodi-0.dtd"
   xmlns="http://www.w3.org/2000/svg"
   xmlns:svg="http://www.w3.org/2000/svg">
  <sodipodi:namedview
     id="namedview1"
     pagecolor="#505050"
     bordercolor="#eeeeee"
     borderopacity="1"
     inkscape:showpageshadow="0"
     inkscape:pageopacity="0"
     inkscape:pagecheckerboard="0"
     inkscape:deskcolor="#505050"
     inkscape:zoom="0.36251647"
     inkscape:cx="1267.5286"
     inkscape:cy="1148.9133"
     inkscape:window-width="1920"
     inkscape:window-height="1051"
     inkscape:window-x="-9"
     inkscape:window-y="-9"
     inkscape:window-maximized="1"
     inkscape:current-layer="g10"
     showguides="false">
    <inkscape:page
       x="0"
       y="0"
       width="1857.6317"
       height="1346.1862"
       id="page1"
       margin="0"
       bleed="0" />
  </sodipodi:namedview>
  <defs
     id="defs1" />
  <g
     id="g10"
     inkscape:groupmode="layer"
     inkscape:label="10"
     transform="translate(-17353.058,-0.476496)">
    <path
       style="fill:#000000"
       d="m 17645.492,1135.7261 c -2.202,-0.5636 -12.109,-1.9411 -22.017,-3.0611 -17.056,-1.9282 -32.639,-5.0852 -37.268,-7.5504 -1.152,-0.6136 -6.341,-2.3374 -11.532,-3.8307 -5.19,-1.4932 -10.537,-3.931 -11.882,-5.4173 -1.345,-1.4863 -3.72,-2.7023 -5.278,-2.7023 -3.148,0 -6.464,-2.034 -15.627,-9.5833 -3.408,-2.8082 -7.763,-5.9186 -9.678,-6.9121 -4.379,-2.2722 -16.891,-14.0461 -21.783,-20.4988 -2.039,-2.6888 -5.361,-6.7106 -7.383,-8.9374 -2.022,-2.2269 -4.051,-5.2297 -4.509,-6.673 -0.458,-1.4433 -3.938,-7.1605 -7.733,-12.705 -3.796,-5.5444 -7.731,-12.1824 -8.745,-14.751 -1.014,-2.5686 -2.935,-6.1022 -4.269,-7.8524 -1.334,-1.7502 -2.425,-3.7346 -2.425,-4.4098 0,-0.6752 -1.198,-3.8589 -2.664,-7.0749 -1.465,-3.216 -3.55,-9.0375 -4.633,-12.9367 -1.083,-3.89915 -3.2,-11.29255 -4.705,-16.42975 -2.448,-8.3572 -6.253,-27.9281 -7.523,-38.6959 -0.259,-2.2017 -0.574,-17.213 -0.699,-33.3586 -0.231,-29.6932 1.942,-56.2263 6.321,-77.1755 1.049,-5.0182 1.649,-9.5415 1.333,-10.0518 -1.361,-2.2032 2.457,-14.5741 5.819,-18.8529 8.496,-10.8115 8.838,-12.5087 7.11,-35.36007 -1.992,-26.3499 -0.978,-45.0551 5.1,-94.07114 1.524,-12.29429 3.573,-23.3217 4.64,-24.97198 1.051,-1.62543 1.91,-4.44215 1.91,-6.25938 0,-1.81723 0.601,-3.67515 1.335,-4.12872 0.734,-0.45357 1.334,-2.37082 1.334,-4.26055 0,-4.80616 2.765,-13.98866 5.013,-16.65178 1.037,-1.22734 2.222,-4.83006 2.634,-8.00605 0.411,-3.17599 2.162,-9.00162 3.89,-12.94585 1.727,-3.94424 3.141,-7.69079 3.141,-8.32567 0,-1.76226 17.787,-37.89159 24.279,-49.31779 7.406,-13.03173 24.569,-37.10231 29.9,-41.93261 0.81,-0.73389 2.371,-2.68972 3.468,-4.3463 2.449,-3.69564 34.743,-36.2858 43.445,-43.84319 11.079,-9.62129 32.461,-25.87123 37.49,-28.49126 2.673,-1.39252 6.361,-3.92355 8.196,-5.62451 1.834,-1.70096 4.809,-3.30133 6.611,-3.55638 1.801,-0.25505 6.305,-3.01751 10.007,-6.13881 7.183,-6.05442 17.37,-11.72133 31.418,-17.47674 4.77,-1.95435 9.323,-4.08093 10.117,-4.72571 2.629,-2.1353 37.918,-15.82983 49.694,-19.28504 34.178,-10.02816 88.053,-5.57896 126.037,10.40869 5.983,2.51835 10.528,2.26758 6.297,-0.34743 -1.058,-0.65408 -1.564,-1.54943 -1.123,-1.98967 1.057,-1.05759 27.816,15.2454 39.31,23.95023 2.415,1.82938 6.077,-1.90593 11.092,-11.315 2.312,-4.33743 4.816,-8.26518 5.566,-8.72834 0.749,-0.46316 1.867,-2.17052 2.485,-3.79412 2.207,-5.80686 17.758,-24.95187 31.798,-39.14904 22.718,-22.97232 56.838,-49.47458 68.108,-52.90126 3.422,-1.04052 11.943,-4.5698 18.937,-7.84283 6.993,-3.27304 16.901,-7.31136 22.016,-8.97404 5.116,-1.66268 11.704,-4.09576 14.639,-5.40683 2.936,-1.31107 8.64,-3.42754 12.676,-4.70327 4.037,-1.27572 10.642,-3.66129 14.678,-5.30127 11.462,-4.65692 17.16,-6.2175 18.861,-5.16599 0.862,0.53251 1.222,0.41063 0.801,-0.27085 -0.421,-0.68148 1.738,-1.32572 4.797,-1.43166 14.511,-0.50234 22.952,-1.99998 24.912,-4.41992 1.704,-2.10369 4.878,-2.61999 21.349,-3.47226 10.642,-0.55063 21.15,-0.93206 23.351,-0.84764 2.202,0.0844 13.911,0.4171 26.02,0.73928 19.427,0.5169 37.202,2.01537 52.039,4.38722 5.592,0.89389 39.82,11.89913 47.37,15.23052 2.935,1.29543 7.488,3.03537 10.116,3.86654 2.629,0.83116 7.109,2.69889 9.956,4.15049 2.848,1.45161 6.439,2.63929 7.981,2.63929 1.543,0 4.502,1.77219 6.577,3.9382 2.076,2.166 5.34,4.29069 7.255,4.72153 1.915,0.43084 8.238,4.32934 14.051,8.66333 8.025,5.98335 11.105,7.59263 12.799,6.6861 1.227,-0.65664 6.379,-6.15826 11.448,-12.22581 23.065,-27.60519 41.124,-40.75697 71.932,-52.38617 5.137,-1.93915 11.398,-4.44583 13.912,-5.57039 2.515,-1.12457 7.619,-2.37235 11.342,-2.77284 3.724,-0.4005 11.98,-2.1579 18.349,-3.90533 6.368,-1.74743 12.973,-3.22067 14.677,-3.27385 50.01,-1.56042 82.889,-0.51543 107.846,3.42758 16.198,2.55924 43.007,9.9618 50.405,13.91774 1.266,0.67678 7.453,3.67614 13.75,6.66524 6.297,2.98911 20.03,11.1375 30.518,18.10753 10.489,6.97004 19.27,12.6728 19.516,12.6728 0.245,0 2.679,1.51596 5.41,3.3688 5.908,4.00957 7.582,3.72114 8.572,-1.47737 0.744,-3.9087 1.328,-4.17605 5.542,-2.53562 2.998,1.16724 7.715,-6.38629 7.722,-12.36565 0,-3.73749 -0.456,-4.33661 -3.331,-4.33661 -2.076,0 -3.336,-0.75613 -3.336,-2.00152 0,-1.6284 2.177,-1.99717 11.676,-1.97822 11.414,0.0228 18.472,0.96055 49.704,6.60415 47.21,8.53095 44.376,7.89766 74.723,16.69933 3.303,0.95784 11.709,3.90278 18.681,6.5443 6.972,2.64152 13.348,4.80706 14.168,4.8123 0.821,0.005 5.612,2.26123 10.646,5.01332 13.51,7.38488 38.221,32.57002 51.577,52.56519 5.688,8.51504 10.341,15.8044 10.341,16.19858 0,0.39417 2.313,4.82351 5.141,9.84296 2.827,5.01946 7.356,14.23014 10.064,20.46819 2.708,6.23805 5.752,13.14328 6.764,15.34494 5.076,11.04246 14.78,46.27769 16.171,58.71107 0.328,2.93555 1.167,8.03941 1.864,11.34191 4.868,23.07459 5.598,95.62228 1.313,130.39737 -3.807,30.88617 -17.785,56.57013 -40.026,73.54345 -4.06,3.09866 -9.764,7.69785 -12.676,10.22043 -8.414,7.28993 -9.207,7.78219 -25.976,16.13501 -6.238,3.10717 -15.545,6.6839 -20.683,7.94829 -17.389,4.27996 -17.077,4.05311 -16.259,11.83375 0.393,3.73044 1.402,10.9858 2.243,16.12302 2.07,12.65056 0.643,31.92006 -2.803,37.83889 -1.434,2.46417 -6.411,9.3694 -11.059,15.34493 -4.648,5.97554 -13.019,17.76984 -18.603,26.20954 -5.583,8.4397 -16.023,22.0932 -23.2,30.341 -7.176,8.2478 -18.452,21.1897 -25.057,28.7597 -6.605,7.5701 -15.27,16.4337 -19.256,19.6969 -3.986,3.2632 -8.49,7.1642 -10.008,8.6689 -4.428,4.3891 -20.49,15.1264 -32.772,21.9093 -39.018,21.5465 -100.743,36.2003 -139.45,33.106 -17.153,-1.3712 -33.388,-4.4454 -39.106,-7.4051 -2.71,-1.4026 -6.723,-2.994 -8.917,-3.5364 -2.194,-0.5425 -4.296,-1.4395 -4.67,-1.9933 -0.374,-0.5539 -5.184,-3.2086 -10.688,-5.8994 -5.504,-2.6908 -13.31,-6.9712 -17.347,-9.5119 -14.829,-9.3345 -18.096,-11.0829 -22.016,-11.7822 -3.544,-0.6321 -4.539,-0.01 -8.674,5.4627 -5.236,6.9257 -13.58,15.4898 -36.027,36.9752 -18.734,17.9324 -25.379,23.7093 -34.026,29.5809 -3.669,2.4918 -8.661,5.9752 -11.094,7.741 -2.433,1.7657 -5.285,2.8797 -6.338,2.4755 -1.099,-0.4217 -1.916,0.057 -1.916,1.1215 0,2.08215 -7.183,6.81335 -8.438,5.55805 -0.986,-0.9859 -8.052,2.2464 -19.583,8.9573 -4.77,2.7765 -11.375,6.6196 -14.677,8.5402 -5.408,3.1448 -33.769,17.2161 -53.708,26.6465 -4.22,1.9958 -7.672,4.4272 -7.672,5.4029 0,0.9757 -1.652,2.3705 -3.67,3.0994 -2.018,0.7289 -13.877,5.0352 -26.353,9.5696 -29.635,10.7708 -52.765,18.4264 -62.714,20.7576 -4.403,1.0317 -11.505,3.0809 -15.782,4.5537 -9.513,3.2764 -21.015,5.9899 -34.256,8.0813 -5.504,0.8694 -13.01,2.1644 -16.679,2.8778 -23.501,4.5687 -70.14,8.6831 -111.06,9.7975 -16.176,0.4405 -64.321,-3.1348 -79.751,-5.9224 -28.52,-5.1524 -55.376,-11.706 -55.376,-13.5133 0,-0.5824 -1.351,-1.4827 -3.002,-2.0006 -6.374,-1.9991 -40.701,-19.9022 -51.706,-26.9667 -4.036,-2.5912 -11.542,-7.8604 -16.679,-11.7093 -6.366,-4.7693 -11.161,-7.2927 -15.057,-7.9233 l -5.717,-0.9252 -12.964,12.9072 c -7.312,7.2799 -16.903,15.2616 -21.999,18.3074 -4.969,2.9701 -9.473,6.1113 -10.008,6.9805 -1.608,2.614 -23.023,16.1109 -32.663,20.587 -22.584,10.4859 -26.246,12.1515 -35.026,15.9273 -27.776,11.9454 -69.762,19.2455 -107.872,18.7557 -10.39,-0.1335 -20.692,-0.7039 -22.894,-1.2675 z m 46.702,-60.5385 c 2.202,-0.3003 7.606,-0.9455 12.009,-1.4337 11.091,-1.2297 33.345,-7.8837 50.038,-14.9617 7.706,-3.2673 14.611,-6.4206 15.345,-7.0072 0.734,-0.5867 8.293,-4.6204 16.798,-8.9638 17.512,-8.9425 28.23,-16.6131 42.317,-30.2838 8.52,-8.2686 22.947,-26.00145 22.947,-28.20585 0,-1.5911 7.457,-10.7729 12.645,-15.5698 6.767,-6.2565 9.564,-6.8439 24.033,-5.0459 13.363,1.6605 15.887,2.7641 29.903,13.0732 10.546,7.7576 14.152,10.6776 34.162,27.66395 13.606,11.5503 30.575,23.1277 40.197,27.4263 3.578,1.5982 7.586,3.4519 8.906,4.1193 1.321,0.6674 9.427,2.992 18.014,5.1657 14.333,3.6283 30.975,5.85 68.319,9.1205 13.928,1.2198 79.989,0.9774 92.737,-0.3403 3.669,-0.3793 10.574,-1.0753 15.345,-1.5467 12.603,-1.2454 33.938,-4.3676 44.7,-6.5416 5.137,-1.0377 13.243,-2.6075 18.014,-3.4884 18.009,-3.3258 77.004,-21.9058 84.891,-26.7359 2.289,-1.4023 7.362,-3.1563 11.271,-3.8978 3.91,-0.7414 14.646,-5.0095 23.859,-9.48455 9.212,-4.475 19.751,-9.0287 23.421,-10.1192 7.824,-2.3253 40.356,-18.8149 46.768,-23.7053 2.434,-1.8567 4.81,-3.3759 5.281,-3.3759 1.019,0 17.963,-11.6678 31.749,-21.8636 14.08,-10.4124 38.808,-36.1204 53.43,-55.5465 6.897,-9.1636 13.969,-17.9537 15.715,-19.5337 1.746,-1.58 4.594,-4.438 6.33,-6.351 1.735,-1.913 4.469,-3.8083 6.077,-4.2117 1.607,-0.4034 3.866,-2.2894 5.02,-4.191 1.817,-2.9949 3.146,-3.5107 9.935,-3.8554 9.639,-0.4895 13.51,1.1594 28.626,12.1938 30.128,21.9915 48.267,32.0451 66.611,36.9191 9.581,2.5456 14.449,2.9868 31.357,2.8417 21.224,-0.1821 18.381,0.3405 60.045,-11.0359 11.571,-3.1592 39.58,-16.1756 51.372,-23.8729 20.772,-13.5592 37.49,-28.93 56.853,-52.2736 5.784,-6.9719 11.57,-13.8402 12.859,-15.2629 1.288,-1.4227 2.343,-3.0884 2.343,-3.7016 0,-2.25541 25.119,-37.07785 26.746,-37.07785 1.144,0 3.216,-13.27713 2.857,-18.30816 -0.116,-1.62977 0.347,-4.43082 1.029,-6.22456 0.747,-1.96431 0.762,-5.03119 0.04,-7.71152 -0.661,-2.4476 -1.491,-12.60677 -1.845,-22.57593 -0.354,-9.96916 -1.041,-19.70955 -1.527,-21.64531 -0.631,-2.51426 0.108,-5.29346 2.587,-9.72992 1.909,-3.4157 3.471,-7.89355 3.471,-9.95079 0,-2.96434 1.296,-4.61463 6.243,-7.95374 5.338,-3.60211 7.034,-4.09481 11.691,-3.39636 2.997,0.44933 9.025,1.14731 13.396,1.55107 4.371,0.40376 8.373,0.99652 8.892,1.31726 0.518,0.32073 2.339,0.0122 4.045,-0.68569 1.707,-0.69786 7.698,-2.23465 13.315,-3.41507 8.847,-1.85955 11.84,-3.31905 22.402,-10.9265 7.381,-5.31587 13.849,-11.21427 16.393,-14.94909 2.312,-3.39285 5.826,-8.27041 7.81,-10.83902 1.983,-2.56861 4.395,-7.9727 5.359,-12.00908 0.964,-4.03639 2.596,-8.68527 3.627,-10.33085 1.031,-1.64559 1.494,-3.98413 1.028,-5.19676 -0.465,-1.21263 -0.03,-3.16874 0.964,-4.34691 2.94,-3.48048 6.599,-21.28266 6.916,-33.64904 0.162,-6.32047 0.604,-12.02478 0.982,-12.67625 0.378,-0.65147 0.811,-8.69016 0.963,-17.86377 0.151,-9.1736 0.311,-18.18041 0.355,-20.01513 0.04,-1.83472 -0.269,-4.68688 -0.695,-6.33813 -0.536,-2.08333 -0.184,-3.00227 1.152,-3.00227 1.059,0 1.925,-0.60045 1.925,-1.33434 0,-0.73389 -0.671,-1.18423 -1.491,-1.00076 -0.82,0.18347 -1.632,-1.46778 -1.806,-3.66944 -0.505,-6.41997 -3.143,-21.50733 -5.599,-32.02422 -0.514,-2.20166 -1.006,-4.60348 -1.094,-5.33737 -0.424,-3.54333 -2.548,-9.54914 -4.011,-11.34191 -0.898,-1.10083 -3.311,-6.50492 -5.363,-12.00908 -2.052,-5.50417 -5.183,-13.2144 -6.957,-17.13386 -1.775,-3.91946 -2.919,-7.92863 -2.543,-8.90926 0.376,-0.98063 -0.181,-2.50084 -1.238,-3.37824 -1.057,-0.87741 -1.922,-2.37241 -1.922,-3.32222 0,-0.94982 -0.695,-1.95867 -1.545,-2.2419 -0.85,-0.28323 -1.492,-2.37559 -1.427,-4.64968 0.09,-3.10928 -0.425,-4.05514 -2.069,-3.81386 -1.202,0.17647 -3.412,-1.329 -4.911,-3.34549 -9.9,-13.32249 -15.879,-20.57844 -20.549,-24.93779 -4.3,-4.01545 -5.089,-5.45141 -4.03,-7.33806 1.747,-3.11312 0.285,-5.37615 -2.476,-3.83112 -1.274,0.7133 -2.718,0.69354 -3.58,-0.049 -4.227,-3.63995 -19.981,-14.4565 -21.055,-14.4565 -0.688,0 -3.162,-1.43144 -5.498,-3.18099 -2.336,-1.74954 -5.599,-3.59136 -7.25,-4.09294 -1.651,-0.50158 -3.002,-1.5097 -3.002,-2.24026 0,-0.73057 -1.051,-1.15093 -2.335,-0.93414 -1.285,0.21678 -5.037,-0.58915 -8.34,-1.79097 -9.007,-3.27787 -15.7,-4.76488 -25.352,-5.63242 -3.04,-0.27325 -4.821,-1.18466 -5.101,-2.61103 -0.348,-1.76979 -0.952,-1.91195 -3.144,-0.73908 -1.91,1.02213 -4.351,1.0452 -8.243,0.0779 -3.041,-0.75586 -9.732,-1.74236 -14.869,-2.19222 -5.138,-0.44986 -15.946,-1.68124 -24.019,-2.7364 -8.072,-1.05515 -16.179,-1.8509 -18.013,-1.76832 -4.02,0.18095 -12.009,2.42579 -12.009,3.37447 0,0.37353 1.879,3.2956 4.175,6.49349 2.755,3.83546 4.279,7.64493 4.479,11.19297 0.167,2.95825 1.061,6.29138 1.987,7.40696 1.372,1.65341 1.263,2.66936 -0.589,5.49653 -1.435,2.18996 -1.966,4.69061 -1.44,6.78486 0.723,2.87991 0.474,3.20293 -1.888,2.45309 -1.579,-0.5009 -2.721,-0.26543 -2.721,0.5607 0,0.78334 0.642,1.42426 1.427,1.42426 0.785,0 1.235,1.35053 1.001,3.00117 -0.847,5.96021 -16.938,7.15505 -29.369,2.18078 -1.974,-0.78998 -6.576,-1.41319 -10.228,-1.38491 -4.588,0.0355 -6.867,-0.54294 -7.377,-1.87281 -0.423,-1.10169 -2.501,-1.92423 -4.862,-1.92423 -2.329,0 -3.775,-0.56419 -3.322,-1.29665 1.537,-2.48648 -11.254,-21.1602 -17.391,-25.3902 -2.662,-1.83472 -6.738,-4.88016 -9.058,-6.76765 -2.32,-1.88749 -9.021,-6.34761 -14.893,-9.91138 -5.871,-3.56377 -11.622,-7.27344 -12.781,-8.2437 -1.158,-0.97027 -3.092,-1.76412 -4.296,-1.76412 -1.204,0 -4.227,-1.14444 -6.717,-2.54321 -2.491,-1.39876 -5.661,-3.16809 -7.046,-3.93183 -6.782,-3.74015 -31.846,-9.53707 -41.236,-9.53707 -3.218,0 -8.733,-0.60918 -12.255,-1.35373 -3.522,-0.74456 -11.208,-1.56779 -17.079,-1.82941 -5.871,-0.26162 -12.36,-1.15176 -14.42,-1.97809 -2.06,-0.82633 -3.428,-0.98899 -3.041,-0.36148 0.594,0.96127 -12.683,3.06928 -19.233,3.05363 -2.082,-0.005 -28.711,3.57553 -33.614,4.5197 -2.808,0.5408 -19.176,5.7168 -30.435,9.62447 -3.302,1.1462 -7.436,3.19138 -9.186,4.54485 -1.751,1.35347 -3.852,2.48203 -4.671,2.50791 -0.818,0.0259 -6.447,4.07895 -12.509,9.00682 -12.27,9.97539 -28.254,28.45673 -32.561,37.64811 -1.548,3.3025 -4.592,9.9075 -6.765,14.67777 -2.174,4.77027 -4.512,9.57391 -5.196,10.67474 -0.684,1.10083 -1.59,3.02664 -2.013,4.27957 -0.423,1.25293 -2.957,3.03579 -5.632,3.96191 -5.96,2.06379 -22.814,2.0242 -24.1,-0.0566 -0.511,-0.82525 -4.027,-1.65343 -7.816,-1.84039 -6.22,-0.30696 -7.111,-0.75189 -9.187,-4.58792 -1.265,-2.33639 -3.686,-4.98978 -5.38,-5.89643 -1.694,-0.90664 -3.081,-2.05147 -3.081,-2.54406 0,-1.94687 -22.466,-23.83328 -28.066,-27.34276 -3.278,-2.05361 -6.259,-4.13404 -6.626,-4.62318 -1.712,-2.28205 -13.1,-9.08597 -16.666,-9.95742 -2.195,-0.53623 -4.296,-1.38175 -4.671,-1.87895 -0.907,-1.20582 -17.063,-7.0791 -21.696,-7.88744 -2.018,-0.35215 -3.669,-1.10442 -3.669,-1.67172 0,-1.09976 -2.522,-1.71274 -19.348,-4.70314 -19.44,-3.45481 -30.161,-4.60693 -41.833,-4.49515 -6.347,0.0608 -15.144,0.11251 -19.547,0.11491 -6.978,0.004 -16.254,0.76085 -37.362,3.04924 -5.586,0.60559 -20.244,3.62861 -29.355,6.05425 -2.936,0.78148 -7.139,1.73147 -9.341,2.11109 -2.201,0.37963 -7.906,2.09168 -12.676,3.80456 -4.77,1.71288 -12.876,4.46476 -18.014,6.1153 -5.137,1.65054 -12.042,4.35971 -15.345,6.02038 -3.302,1.66067 -6.905,3.38299 -8.006,3.82737 -1.101,0.44437 -4.103,2.08995 -6.671,3.65684 -2.569,1.56689 -7.509,4.28862 -10.979,6.04829 -3.469,1.75967 -8.874,5.15345 -12.009,7.54174 -3.135,2.38829 -10.504,8.00937 -16.376,12.49129 -19.555,14.92848 -30.435,25.52845 -41.797,40.72128 -6.192,8.28098 -12.101,16.85768 -13.131,19.05934 -1.029,2.20167 -3.652,7.29364 -5.829,11.3155 -2.177,4.02186 -3.958,7.74827 -3.958,8.28092 0,0.53265 -1.802,4.02357 -4.003,7.7576 -2.202,3.73404 -4.003,7.48663 -4.003,8.3391 0,0.85247 -2.173,6.17917 -4.828,11.83711 -5.186,11.0525 -13.057,18.51973 -19.52,18.51973 -1.776,0 -3.65,0.42098 -4.164,0.93551 -0.515,0.51454 -6.655,1.16116 -13.645,1.43695 -12.354,0.48736 -12.811,0.39997 -16.3,-3.11787 -1.975,-1.9906 -5.844,-5.1201 -8.598,-6.95443 -2.755,-1.83432 -7.077,-6.10624 -9.606,-9.49315 -9.203,-12.32687 -10.709,-14.17363 -11.987,-14.70001 -0.715,-0.29478 -4.029,-3.07138 -7.365,-6.17022 -8.146,-7.56761 -20.026,-14.97807 -28.915,-18.03641 -4.013,-1.38069 -9.52,-3.69839 -12.238,-5.15045 -2.718,-1.45206 -7.043,-2.94974 -9.612,-3.32819 -2.569,-0.37844 -9.174,-1.60526 -14.678,-2.72627 -11.074,-2.25537 -27.539,-1.65889 -36.694,1.32931 -2.936,0.95815 -9.241,2.7362 -14.011,3.95123 -9.046,2.30412 -24.52,8.37859 -41.06,16.11868 -5.337,2.49739 -10.201,4.5407 -10.808,4.5407 -0.608,0 -3.592,1.80136 -6.631,4.00303 -3.04,2.20166 -5.855,4.00302 -6.258,4.00302 -0.402,0 -3.852,2.10159 -7.666,4.6702 -3.814,2.56861 -7.463,4.6702 -8.108,4.6702 -0.646,0 -5.027,3.02843 -9.737,6.72985 -4.71,3.70142 -11.117,8.35494 -14.237,10.34116 -11.442,7.28457 -42.995,36.87242 -57.211,53.64914 -11.265,13.29357 -26.454,33.68003 -28.734,38.56555 -1.233,2.64032 -4.004,7.80285 -6.159,11.47229 -6.346,10.80527 -12.869,23.88028 -12.876,25.80922 0,0.98507 -1.208,3.31775 -2.675,5.18373 -1.468,1.86597 -2.669,4.19908 -2.669,5.18469 0,0.9856 -1.469,4.95769 -3.265,8.82686 -7.795,16.80002 -10.079,22.35614 -10.079,24.5272 0,1.27196 -0.815,3.26062 -1.812,4.41924 -1.811,2.10453 -2.659,5.46309 -6.771,26.79192 -1.203,6.23805 -2.748,14.04395 -3.435,17.34645 -0.687,3.3025 -1.601,12.60954 -2.031,20.68231 -0.43,8.07277 -1.093,18.28049 -1.474,22.68382 -0.381,4.40333 -0.583,11.90901 -0.449,16.67928 0.134,4.77028 0.163,9.57391 0.07,10.67474 -0.245,2.74606 -1.615,30.49689 -1.729,35.02659 -0.05,2.0181 -0.534,3.6694 -1.074,3.6694 -1.754,0 -3.825,7.1453 -4.642,16.0121 -3.428,37.2323 -3.762,38.6959 -8.835,38.6959 -3.557,0 -3.12,3.7302 0.497,4.2438 2.871,0.4078 2.983,0.8928 2.561,11.1012 -0.284,6.8887 -1.124,11.435 -2.368,12.8185 -1.683,1.8707 -1.677,2.3528 0.05,3.7851 1.393,1.1555 1.786,3.2856 1.329,7.1966 -0.356,3.0554 -0.653,8.7877 -0.658,12.7384 0,3.9507 -0.56,8.212 -1.233,9.4696 -0.795,1.4867 -0.689,2.8209 0.305,3.8145 0.855,0.8548 1.67,6.6199 1.85,13.085 0.294,10.5344 4.308,32.675 7.295,40.233 0.666,1.6858 1.211,4.2899 1.211,5.787 0,4.4196 10.332,32.99075 13.291,36.75175 1.496,1.9028 2.721,4.0488 2.721,4.7689 0,1.1941 7.119,11.5291 12.006,17.4309 6.126,7.3976 35.515,26.2676 40.91,26.2676 1.179,0 4.017,1.1478 6.305,2.5507 5.55,3.4026 17.786,6.9172 30.847,8.8606 9.68,1.4403 46.775,1.4291 57.377,-0.017 z m 449.007,-9.4712 c 0,-1.1442 -0.601,-1.7092 -1.335,-1.2556 -0.734,0.4535 -1.334,1.3897 -1.334,2.0802 0,0.6906 0.6,1.2556 1.334,1.2556 0.734,0 1.335,-0.9361 1.335,-2.0802 z m 825.958,-776.36589 c 0,-1.9943 -2.838,-3.50619 -6.447,-3.43422 -1.779,0.0355 -1.593,0.57185 0.924,2.66868 3.708,3.089 5.523,3.3406 5.523,0.76554 z m -22.684,-4.60317 c 0,-1.06623 -2.303,-2.29706 -18.01,-9.62505 -3.668,-1.71111 -8.322,-2.98518 -10.341,-2.83127 -2.02,0.15391 -3.673,-0.29211 -3.673,-0.99115 0,-0.69905 -1.951,-1.45916 -4.337,-1.68913 -2.596,-0.25031 -4.202,-1.08756 -4.003,-2.08605 0.302,-1.5069 -1.325,-2.24878 -4.003,-1.82594 -0.55,0.0869 -1,-0.51248 -1,-1.33196 0,-0.81948 -1.116,-1.19823 -2.48,-0.84165 -1.363,0.35657 -3.403,0.13117 -4.532,-0.50091 -2.157,-1.20717 -11.669,1.98551 -11.669,3.91673 0,1.79027 15.949,6.47493 19.681,5.78077 0.918,-0.17063 1.668,0.2789 1.668,0.99896 0,0.72006 2.361,1.27662 5.246,1.2368 3.298,-0.0455 6.719,0.97643 9.213,2.75232 2.182,1.55359 5.186,2.82472 6.676,2.82472 1.49,0 4.332,0.61674 6.314,1.37054 1.983,0.7538 5.775,1.7117 8.427,2.12866 2.652,0.41696 5.072,1.00113 5.378,1.29814 0.884,0.85868 1.445,0.63163 1.445,-0.58453 z m -544.768,764.20296 c 0.905,-0.912 1.982,-1.3219 2.393,-0.9111 0.411,0.4108 -0.33,1.1569 -1.646,1.658 -1.901,0.7241 -2.055,0.5709 -0.747,-0.7469 z m 75.079,-39.1506 c 0,-0.3411 1.351,-1.3401 3.003,-2.22 2.722,-1.4506 2.831,-1.3928 1.171,0.6202 -1.705,2.0669 -4.174,3.0131 -4.174,1.5998 z"
       id="path27"
       sodipodi:nodetypes="sssssscccsscssscscccsccccsssscccscsccscccscsscccsccssccccccscssssscccscssscscsccssscsccscssssssscsscsscccscsccccsccssscssssscscccssssccssssscscssscccscsscccsscsssccscscsscsssssccsccssccscscscssssccsssscsssscssccssccssccsscccssscscsscsssscscccccssssscscsssssscsccccsscsscscssccsccsssscssscscccssccscsscsscsssscsscsccsccscccsscscscscccccsssscssscssssccccccscsscssssccscssccscccscsscscscsccsssssssssssssscssscsssssscscssssssccs" />
  </g>
</svg>
