<?xml version="1.0" encoding="UTF-8" standalone="no"?>
<!-- Created with Inkscape (http://www.inkscape.org/) -->

<svg
   version="1.1"
   id="svg1"
   width="740"
   height="740"
   viewBox="0 0 740 740"
   sodipodi:docname="retro-8-bit-pixel-art-envelope-icon_1292377-15217.jpg"
   inkscape:export-filename="retro-8-bit-pixel-art-envelope-icon_1292377-15217.svg"
   inkscape:export-xdpi="96"
   inkscape:export-ydpi="96"
   xmlns:inkscape="http://www.inkscape.org/namespaces/inkscape"
   xmlns:sodipodi="http://sodipodi.sourceforge.net/DTD/sodipodi-0.dtd"
   xmlns="http://www.w3.org/2000/svg"
   xmlns:svg="http://www.w3.org/2000/svg">
  <defs
     id="defs1" />
  <sodipodi:namedview
     id="namedview1"
     pagecolor="#ffffff"
     bordercolor="#000000"
     borderopacity="0.25"
     inkscape:showpageshadow="2"
     inkscape:pageopacity="0.0"
     inkscape:pagecheckerboard="0"
     inkscape:deskcolor="#d1d1d1">
    <inkscape:page
       x="0"
       y="0"
       width="740"
       height="740"
       id="page2"
       margin="0"
       bleed="0" />
  </sodipodi:namedview>
  <g
     inkscape:groupmode="layer"
     inkscape:label="Image"
     id="g1">
    <g
       id="g9"
       transform="translate(4.4417767,15.102041)">
      <path
         style="fill:#ebc8a5"
         d="M 647.45024,613.25173 647.5,601.5 l 11.25186,-0.0515 11.25185,-0.0515 -10.9704,0.33392 -10.9704,0.33391 -0.33122,11.46928 -0.33121,11.46927 z M 75.25,601.26101 c 3.1625,-0.19845 8.3375,-0.19845 11.5,0 3.1625,0.19845 0.575,0.36082 -5.75,0.36082 -6.325,0 -8.9125,-0.16237 -5.75,-0.36082 z m 549.41167,-41.47879 c -0.85317,-22.49186 -0.85381,-289.05566 -7.5e-4,-311.54454 l 0.65481,-17.26232 10.84496,0.14152 10.84496,0.14151 L 646.75283,403.8792 646.5,576.5 l -10.59138,0.28222 -10.59139,0.28223 z M 582.8125,530.31689 c 0.72187,-0.28887 1.58438,-0.25335 1.91667,0.0789 0.33229,0.33229 -0.25834,0.56864 -1.3125,0.52522 -1.16495,-0.048 -1.4019,-0.28494 -0.60417,-0.60416 z m 6,0 c 0.72187,-0.28887 1.58438,-0.25335 1.91667,0.0789 0.33229,0.33229 -0.25834,0.56864 -1.3125,0.52522 -1.16495,-0.048 -1.4019,-0.28494 -0.60417,-0.60416 z M 509.25218,453.5 c 0.0111,-2.2 0.21589,-2.98225 0.45508,-1.73834 0.23919,1.24391 0.23011,3.04391 -0.0202,4 -0.25029,0.95609 -0.446,-0.0617 -0.4349,-2.26166 z m -279.17323,-1.08333 c 0.048,-1.16495 0.28494,-1.4019 0.60416,-0.60417 0.28887,0.72187 0.25335,1.58438 -0.0789,1.91667 -0.3323,0.33229 -0.56864,-0.25834 -0.52522,-1.3125 z m 0,-6 c 0.048,-1.16495 0.28494,-1.4019 0.60416,-0.60417 0.28887,0.72187 0.25335,1.58438 -0.0789,1.91667 -0.3323,0.33229 -0.56864,-0.25834 -0.52522,-1.3125 z M 252.5,438 c 0.33992,-0.55 0.81648,-1 1.05902,-1 0.24254,0 0.44098,0.45 0.44098,1 0,0.55 -0.47656,1 -1.05902,1 -0.58246,0 -0.7809,-0.45 -0.44098,-1 z m 94.51531,-0.75 c 0.009,-0.99868 0.33573,-1.32068 0.76164,-0.75 0.41047,0.55 1.15358,1.3375 1.65135,1.75 0.49777,0.4125 0.15503,0.75 -0.76163,0.75 -0.92647,0 -1.65987,-0.77721 -1.65136,-1.75 z M 388,438.61658 c 0,-0.21089 1.125,-0.59848 2.5,-0.86133 1.375,-0.26285 2.5,-0.0903 2.5,0.38342 0,0.47373 -1.125,0.86133 -2.5,0.86133 -1.375,0 -2.5,-0.17254 -2.5,-0.38342 z M 347.33621,425 c 0,-4.125 0.17651,-5.8125 0.39226,-3.75 0.21574,2.0625 0.21574,5.4375 0,7.5 -0.21575,2.0625 -0.39226,0.375 -0.39226,-3.75 z M 423.25,392.28375 c 1.5125,-0.22913 3.9875,-0.22913 5.5,0 1.5125,0.22912 0.275,0.41659 -2.75,0.41659 -3.025,0 -4.2625,-0.18747 -2.75,-0.41659 z M 437.5,392 c 0.33992,-0.55 0.81648,-1 1.05902,-1 0.24254,0 0.44098,0.45 0.44098,1 0,0.55 -0.47656,1 -1.05902,1 -0.58246,0 -0.7809,-0.45 -0.44098,-1 z M 301,391.03138 c 0,-0.53273 0.675,-0.70959 1.5,-0.39301 0.825,0.31659 1.5,0.75246 1.5,0.96862 0,0.21615 -0.675,0.39301 -1.5,0.39301 -0.825,0 -1.5,-0.43588 -1.5,-0.96862 z M 301.25218,378.5 c 0.0111,-2.2 0.21589,-2.98225 0.45508,-1.73834 0.23919,1.24391 0.23011,3.04391 -0.0202,4 -0.25029,0.95609 -0.446,-0.0617 -0.4349,-2.26166 z M 484.15789,342 c 0,-1.375 0.22698,-1.9375 0.50439,-1.25 0.27741,0.6875 0.27741,1.8125 0,2.5 -0.27741,0.6875 -0.50439,0.125 -0.50439,-1.25 z m 0.17025,-10.5 c 0.004,-3.85 0.18518,-5.30246 0.40166,-3.2277 0.21647,2.07477 0.21284,5.22477 -0.008,7 -0.22091,1.77524 -0.39803,0.0777 -0.39359,-3.7723 z M 232,321.94098 c 0,-0.58246 0.45,-0.7809 1,-0.44098 0.55,0.33992 1,0.81648 1,1.05902 0,0.24254 -0.45,0.44098 -1,0.44098 -0.55,0 -1,-0.47656 -1,-1.05902 z m 6.8125,0.37591 c 0.72187,-0.28887 1.58437,-0.25335 1.91667,0.0789 0.33229,0.33229 -0.25834,0.56864 -1.3125,0.52522 -1.16495,-0.048 -1.4019,-0.28494 -0.60417,-0.60416 z m 8,0 c 0.72187,-0.28887 1.58437,-0.25335 1.91667,0.0789 0.33229,0.33229 -0.25834,0.56864 -1.3125,0.52522 -1.16495,-0.048 -1.4019,-0.28494 -0.60417,-0.60416 z M 506.63837,321.5 c 0.31659,-0.825 0.75246,-1.5 0.96862,-1.5 0.21615,0 0.39301,0.675 0.39301,1.5 0,0.825 -0.43588,1.5 -0.96862,1.5 -0.53273,0 -0.70959,-0.675 -0.39301,-1.5 z M 185.01531,275.25 c 0.0105,-1.20411 0.2557,-1.37173 0.78594,-0.53735 0.49987,0.78659 4.44714,1.32735 11.23469,1.53911 l 10.46406,0.32645 -11.25,0.21089 c -10.133,0.18996 -11.24848,0.0371 -11.23469,-1.5391 z m 349.25372,1.05701 c 0.97297,-0.25354 2.32297,-0.23687 3,0.0371 0.67703,0.27393 -0.11903,0.48137 -1.76903,0.46099 -1.65,-0.0204 -2.20394,-0.2445 -1.23097,-0.49804 z m 6.54347,0.01 c 0.72187,-0.28887 1.58438,-0.25335 1.91667,0.0789 0.33229,0.33229 -0.25834,0.56864 -1.3125,0.52522 -1.16495,-0.048 -1.4019,-0.28494 -0.60417,-0.60416 z m 8.94916,-0.0242 c 1.24391,-0.23919 3.04391,-0.23011 4,0.0202 0.95609,0.25029 -0.0617,0.446 -2.26166,0.4349 -2.2,-0.0111 -2.98225,-0.21589 -1.73834,-0.45508 z M 185.34941,265 c 0,-4.675 0.17226,-6.5875 0.3828,-4.25 0.21053,2.3375 0.21053,6.1625 0,8.5 -0.21054,2.3375 -0.3828,0.425 -0.3828,-4.25 z m 368.80848,-8 c 0,-1.375 0.22698,-1.9375 0.50439,-1.25 0.27741,0.6875 0.27741,1.8125 0,2.5 -0.27741,0.6875 -0.50439,0.125 -0.50439,-1.25 z m 3.65461,-3.68311 c 0.72187,-0.28887 1.58438,-0.25335 1.91667,0.0789 0.33229,0.33229 -0.25834,0.56864 -1.3125,0.52522 -1.16495,-0.048 -1.4019,-0.28494 -0.60417,-0.60416 z m -395.73355,-1.90022 c 0.048,-1.16495 0.28494,-1.4019 0.60416,-0.60417 0.28887,0.72187 0.25335,1.58437 -0.0789,1.91667 -0.3323,0.33229 -0.56864,-0.25834 -0.52522,-1.3125 z M 139.232,228 c 0,-1.925 0.2058,-2.7125 0.45733,-1.75 0.25152,0.9625 0.25152,2.5375 0,3.5 -0.25153,0.9625 -0.45733,0.175 -0.45733,-1.75 z m 449.98556,2.25412 10.71756,-0.32113 0.31869,-11.21649 0.31868,-11.2165 0.21375,11.75 L 601,231 589.75,230.78762 578.5,230.57524 Z M 87.269032,184.30701 c 0.972967,-0.25354 2.322967,-0.23687 3,0.0371 0.677032,0.27393 -0.119032,0.48137 -1.769032,0.46099 -1.65,-0.0204 -2.203936,-0.2445 -1.230968,-0.49804 z M 92.472356,161.5 92.5,138.5 l 22.71742,-0.26869 22.71743,-0.26869 0.28257,-11.23131 L 138.5,115.5 369.44786,115.24786 c 127.02133,-0.13867 231.28634,0.0863 231.70003,0.5 0.41369,0.41368 -103.38559,0.63774 -230.66507,0.49791 L 139.06558,115.99154 138.78279,127.24577 138.5,138.5 115.76838,138.76873 93.036769,139.03745 92.74074,161.76873 92.444712,184.5 Z M 647.22987,162.26843 647,139.03686 l -23.25,-0.28778 -23.25,-0.28778 23.28138,-0.23065 c 18.09346,-0.17925 23.39021,0.0529 23.76974,1.04198 0.2686,0.69995 0.35792,11.38745 0.19849,23.75 L 647.45974,185.5 Z m 7.05664,21.99149 c 3.18258,-0.19905 8.13258,-0.1972 11,0.004 2.86742,0.20131 0.26349,0.36417 -5.78651,0.36191 -6.05,-0.002 -8.39607,-0.16696 -5.21349,-0.36601 z M 162.19495,141.5 c 0.0204,-1.65 0.2445,-2.20394 0.49804,-1.23097 0.25354,0.97297 0.23687,2.32297 -0.0371,3 -0.27393,0.67703 -0.48137,-0.11903 -0.46099,-1.76903 z M 576.5,140 c -0.33992,-0.55 -0.14148,-1 0.44098,-1 0.58246,0 1.05902,0.45 1.05902,1 0,0.55 -0.19844,1 -0.44098,1 -0.24254,0 -0.7191,-0.45 -1.05902,-1 z"
         id="path15" />
      <path
         style="fill:#f6d161"
         d="m 611.75,553.26779 c 2.3375,-0.21053 6.1625,-0.21053 8.5,0 2.3375,0.21054 0.425,0.3828 -4.25,0.3828 -4.675,0 -6.5875,-0.17226 -4.25,-0.3828 z m -25.9375,-22.9509 c 0.72187,-0.28887 1.58438,-0.25335 1.91667,0.0789 0.33229,0.33229 -0.25834,0.56864 -1.3125,0.52522 -1.16495,-0.048 -1.4019,-0.28494 -0.60417,-0.60416 z m 6,0 c 0.72187,-0.28887 1.58438,-0.25335 1.91667,0.0789 0.33229,0.33229 -0.25834,0.56864 -1.3125,0.52522 -1.16495,-0.048 -1.4019,-0.28494 -0.60417,-0.60416 z M 167.75,507.26276 c 2.8875,-0.202 7.6125,-0.202 10.5,0 2.8875,0.202 0.525,0.36728 -5.25,0.36728 -5.775,0 -8.1375,-0.16528 -5.25,-0.36728 z m 23.5,-23.00175 c 3.1625,-0.19845 8.3375,-0.19845 11.5,0 3.1625,0.19845 0.575,0.36082 -5.75,0.36082 -6.325,0 -8.9125,-0.16237 -5.75,-0.36082 z M 211,461.35125 c 8.20382,-0.73259 19.77961,-0.79317 19.34887,-0.10125 -0.2568,0.4125 -5.50285,0.67435 -11.65789,0.5819 -6.15504,-0.0925 -9.61598,-0.30875 -7.69098,-0.48065 z m 298.07895,-2.93458 c 0.048,-1.16495 0.28494,-1.4019 0.60416,-0.60417 0.28887,0.72187 0.25335,1.58438 -0.0789,1.91667 -0.33229,0.33229 -0.56864,-0.25834 -0.52522,-1.3125 z m -279,-3 c 0.048,-1.16495 0.28494,-1.4019 0.60416,-0.60417 0.28887,0.72187 0.25335,1.58438 -0.0789,1.91667 -0.3323,0.33229 -0.56864,-0.25834 -0.52522,-1.3125 z m 0,-6 c 0.048,-1.16495 0.28494,-1.4019 0.60416,-0.60417 0.28887,0.72187 0.25335,1.58438 -0.0789,1.91667 -0.3323,0.33229 -0.56864,-0.25834 -0.52522,-1.3125 z M 509.15789,448 c 0,-1.375 0.22698,-1.9375 0.50439,-1.25 0.27741,0.6875 0.27741,1.8125 0,2.5 -0.27741,0.6875 -0.50439,0.125 -0.50439,-1.25 z m -279.07894,-4.58333 c 0.048,-1.16495 0.28494,-1.4019 0.60416,-0.60417 0.28887,0.72187 0.25335,1.58438 -0.0789,1.91667 -0.3323,0.33229 -0.56864,-0.25834 -0.52522,-1.3125 z M 509.19495,442.5 c 0.0204,-1.65 0.2445,-2.20394 0.49804,-1.23097 0.25354,0.97297 0.23687,2.32297 -0.0371,3 -0.27393,0.67703 -0.48137,-0.11903 -0.46099,-1.76903 z m -160.46819,-4.91609 c -1.06268,-1.06269 -1.30071,-3.29963 -0.95379,-8.96322 0.25427,-4.15092 0.17948,-8.67399 -0.16619,-10.05126 -0.61844,-2.46407 -0.8083,-2.50865 -11.86764,-2.78678 L 324.5,415.5 324.32427,405 c -0.0967,-5.775 -0.20915,-11.0625 -0.25,-11.75 -0.0539,-0.90771 -2.6937,-1.25 -9.64001,-1.25 -13.48364,0 -13.52463,-0.0351 -13.00127,-11.13369 0.23513,-4.98644 0.18576,-9.69626 -0.10973,-10.46628 -0.41107,-1.07124 -2.91925,-1.40363 -10.68025,-1.41534 -5.57865,-0.008 -10.743,-0.39565 -11.47632,-0.86051 -0.99871,-0.63309 -1.26513,-3.38434 -1.0616,-10.96295 0.14944,-5.56477 -0.0275,-10.41695 -0.39315,-10.78263 -0.36568,-0.36567 -5.51296,-0.71295 -11.4384,-0.77173 L 255.5,345.5 255.34647,334.61864 c -0.10128,-7.17814 -0.55815,-11.13143 -1.34243,-11.61614 -0.6539,-0.40413 -5.30981,-0.63007 -10.34647,-0.50208 -5.03666,0.12798 -9.72007,-0.21236 -10.40757,-0.75631 -0.85457,-0.67614 -1.25,-4.23595 -1.25,-11.25306 V 300.227 l -3.17986,-0.46671 c -1.74892,-0.25668 -6.92392,-0.30621 -11.5,-0.11006 L 209,300.00687 v -11.39645 c 0,-9.46957 -0.26744,-11.49907 -1.58179,-12.00343 -0.86998,-0.33385 -6.04498,-0.60699 -11.5,-0.60699 -5.91649,0 -9.93575,-0.40347 -9.96169,-1 -0.0239,-0.55 -0.063,-5.11517 -0.087,-10.14482 -0.0239,-5.02965 -0.2775,-9.75465 -0.56352,-10.5 C 184.91302,253.33095 182.15434,253 174.00964,253 c -12.68666,0 -11.97456,0.82191 -11.99599,-13.8458 L 162,229.80839 l -10.4303,0.33217 c -5.73667,0.1827 -10.63964,0.11331 -10.8955,-0.15419 -0.82497,-0.8625 -1.59766,-8.29287 -1.63643,-15.73637 L 139,207 h -11.51913 -11.51913 l 0.26913,-22.25 0.26913,-22.25 11.25,-0.31238 11.25,-0.31237 v 10.91509 10.9151 l 10.54022,0.68144 c 5.79712,0.37479 10.97212,0.41451 11.5,0.0883 1.49824,-0.92596 1.22849,-21.20005 -0.29022,-21.81286 -1,-0.40351 -1,-0.52017 0,-0.58333 0.88467,-0.0559 1.25322,-2.34403 1.26101,-7.82895 0.006,-4.2625 0.28993,-9.4375 0.63084,-11.5 l 0.61983,-3.75 H 369.5084 c 177.27936,0 206.4128,0.20013 207.42927,1.4249 0.75963,0.91529 1.11433,4.80797 0.99178,10.88406 -0.10494,5.20254 0.11957,9.96133 0.49889,10.5751 0.37933,0.61377 0.32564,1.11538 -0.11932,1.11469 -0.44496,-6.9e-4 -0.80902,4.83681 -0.80902,10.75 V 184.5 l -11.25,0.28275 -11.25,0.28275 v -11.44942 c 0,-6.74242 -0.41103,-11.58645 -0.99979,-11.78275 -0.54989,-0.18333 -83.79989,-0.21845 -185,-0.078 L 185,162.0106 V 173.5053 185 H 173.5 162 l -0.001,11.25 -0.001,11.25 H 173.2487 184.5 l 0.28232,11.81733 c 0.27507,11.5141 0.33922,11.81276 2.5,11.63931 1.21972,-0.0979 6.38018,-0.12821 11.46768,-0.0673 L 208,231 v 11.5 11.5 l 11.75,-0.002 11.75,-0.002 -0.31054,11.50197 L 230.87892,277 h 11.56054 c 6.3583,0 11.57712,0.3375 11.5974,0.75 0.0203,0.4125 0.13277,5.475 0.25,11.25 l 0.21314,10.5 11.31629,0.5 11.31628,0.5 0.18372,11 0.18371,11 11.5,0.5 11.5,0.5 0.15004,11 0.15003,11 11.34997,0.5 11.34996,0.5 0.28275,11.25 0.28275,11.25 h 11.43552 11.43551 l 0.28173,11.75 0.28174,11.75 h 22.5 22.5 v -11 -11 l 11.75,-0.28174 11.75,-0.28173 V 357.96826 346 l 11.75,0.002 11.75,0.002 -0.33119,-8.16282 c -0.18215,-4.48956 -0.0493,-9.66561 0.29532,-11.50235 L 440.09063,323 h 11.405 11.405 l -0.0901,-11.25 -0.0901,-11.25 11.3898,-0.5 11.38981,-0.5 0.0928,-11 0.0928,-11 11.65723,-0.28174 L 509,276.93653 V 265.46826 254 H 520.5 532 V 242.5 231 H 543.5 555 V 219.5 208 H 566.5 578 V 196.5 185 l 19.25,-0.13874 c 10.5875,-0.0763 20.7125,-0.0612 22.5,0.0335 l 3.25,0.17223 v -10.96707 c 0,-10.92965 -0.009,-10.96856 -2.51237,-11.4053 -2.30098,-0.40136 -2.27995,-0.42799 0.25,-0.31642 L 623.5,162.5 623.78321,183 c 0.15577,11.275 0.0347,21.5125 -0.26905,22.75 -0.53278,2.17061 -0.95734,2.25 -12.03321,2.25 H 600 v 11 11 h -10.44098 c -6.86971,0 -10.68734,0.39861 -11.16122,1.16537 -0.39613,0.64095 -0.65946,5.78936 -0.58517,11.44091 0.15914,12.10643 0.57676,11.71614 -12.15725,11.36129 -4.48546,-0.12499 -8.86876,-0.16883 -9.74067,-0.0974 -1.32823,0.10878 -1.613,1.86054 -1.75615,10.80265 -0.094,5.87004 -0.39947,10.90144 -0.67891,11.18088 -0.27944,0.27944 -5.11418,0.5849 -10.74386,0.6788 -5.62969,0.0939 -10.57329,0.23751 -10.98579,0.31912 -0.4125,0.0816 -0.75,5.06807 -0.75,11.081 0,12.90777 0.62048,12.33668 -12.97751,11.94441 -4.93568,-0.14238 -9.26935,0.0365 -9.63037,0.39753 -0.36102,0.36102 -0.5744,4.7094 -0.47417,9.66307 C 508.18136,322.95618 508.13981,323 495.5322,323 c -12.30373,0 -11.74957,-0.6437 -11.33764,13.16952 l 0.27825,9.33048 -10.78095,0.28428 c -8.16968,0.21543 -10.9123,0.6266 -11.32327,1.69757 -0.29828,0.77731 -0.61574,5.82438 -0.70546,11.21572 L 461.5,368.5 450.25,368.78275 439,369.0655 v 10.84481 c 0,12.90691 -0.45591,13.62727 -7.97043,12.59376 C 428.26331,392.12361 423.75,392.12178 421,392.5 l -5,0.68768 10e-4,11.15616 0.001,11.15616 H 404.75119 393.5 l -0.5,10.95785 c -0.48612,10.6537 -0.56939,10.97707 -3,11.65032 -1.375,0.38086 -10.90536,0.73733 -21.17857,0.79215 -14.8784,0.0794 -18.96668,-0.18843 -20.09467,-1.31641 z M 486.15789,434 c 0,-1.375 0.22698,-1.9375 0.50439,-1.25 0.27741,0.6875 0.27741,1.8125 0,2.5 -0.27741,0.6875 -0.50439,0.125 -0.50439,-1.25 z M 253.33621,423 c 0,-4.125 0.17651,-5.8125 0.39226,-3.75 0.21574,2.0625 0.21574,5.4375 0,7.5 -0.21575,2.0625 -0.39226,0.375 -0.39226,-3.75 z m 232.82168,-5 c 0,-1.375 0.22698,-1.9375 0.50439,-1.25 0.27741,0.6875 0.27741,1.8125 0,2.5 -0.27741,0.6875 -0.50439,0.125 -0.50439,-1.25 z M 589.75,162.25493 c 5.0875,-0.18149 13.4125,-0.18149 18.5,0 5.0875,0.18149 0.925,0.32999 -9.25,0.32999 -10.175,0 -14.3375,-0.1485 -9.25,-0.32999 z"
         id="path14" />
      <path
         style="fill:#e9af52"
         d="m 624.37407,566.5 c 0.002,-6.05 0.16696,-8.39607 0.36601,-5.21349 0.19905,3.18258 0.1972,8.13258 -0.004,11 -0.20131,2.86742 -0.36417,0.26349 -0.36191,-5.78651 z m -23.24135,-22.20102 c 0.10496,-5.99871 0.55391,-9.30441 1.26499,-9.31429 0.60626,-0.008 0.42729,-0.45153 -0.39771,-0.98469 -1.30213,-0.8415 -1.30575,-0.97139 -0.0275,-0.98469 0.96657,-0.01 0.68729,-0.56529 -0.81282,-1.61601 -1.83571,-1.28579 -4.33873,-1.52811 -12.72251,-1.23172 L 578,530.53656 V 519.26828 508 h -11.43027 -11.43026 l -0.0279,-10.25 c -0.0154,-5.6375 -0.0467,-10.8125 -0.0697,-11.5 -0.0309,-0.92488 -3.02381,-1.25 -11.50686,-1.25 h -11.46504 l 0.21504,-11.75 0.21503,-11.75 -11.5,0.30607 -11.5,0.30607 V 450.80607 439.5 l -11.54219,-0.5 -11.5422,-0.5 0.0422,-11.20436 c 0.0499,-13.2596 0.83556,-12.59817 -14.6606,-12.343 l -9.70279,0.15977 0.12551,-9.3062 C 462.407,391.93501 461.37879,393 474.58388,393 H 485.9345 L 486.21725,381.75 486.5,370.5 497.75,370.21725 509,369.9345 V 358.46725 347 h 11.46826 11.46827 L 532.21826,335.25 532.5,323.5 h 11.25119 11.25119 l -10e-4,-11.25 L 555,301 h 11.46826 11.46827 l 0.28173,-11.75 0.28174,-11.75 11.25,0.32479 11.25,0.32478 V 266.07479 254 h 11.46826 11.46827 l 0.28173,-11.75 c 0.15496,-6.4625 0.13973,60.69201 -0.0338,149.23224 -0.17356,88.54024 -0.39856,161.06057 -0.5,161.15629 -0.10143,0.0957 -5.25366,0.35076 -11.44941,0.56674 l -11.26499,0.39268 z M 161.99804,403.75 162,300 h 11.5 11.5 v 23 23 h 11.5 11.5 v 11.5 11.5 h 11.5 11.5 v 11.46826 11.46827 l 11.64061,0.28173 11.64061,0.28174 0.10939,11.7488 c 0.0602,6.46184 -0.26559,11.74934 -0.72391,11.75 -0.45831,6.6e-4 -0.66066,4.74567 -0.44966,10.54446 0.24391,6.70334 -0.004,10.86534 -0.68191,11.42759 -0.58605,0.48637 -5.87898,0.80441 -11.76208,0.70673 L 230.07652,438.5 l 0.15405,11 0.15406,11 -11.19232,0.28275 L 208,461.0655 V 472.5 483.9345 l -11.25,0.28275 -11.25,0.28275 -0.28219,11.19 -0.28219,11.19001 -11.46977,0.30999 -11.46978,0.31 z m 237.28847,11.50992 c 3.18258,-0.19905 8.13258,-0.1972 11,0.004 2.86742,0.20131 0.26349,0.36417 -5.78651,0.36191 -6.05,-0.002 -8.39607,-0.16696 -5.21349,-0.36601 z m -92.49732,-23.00133 c 3.45905,-0.19583 8.85905,-0.19422 12,0.004 3.14094,0.19781 0.31081,0.35803 -6.28919,0.35606 -6.6,-0.002 -9.16987,-0.16382 -5.71081,-0.35965 z m 40.84746,0.0447 C 347.28649,391.95316 347,386.56667 347,380.33333 V 369 H 335.53275 324.0655 L 323.78275,357.75 323.5,346.5 312.15004,346 l -11.34997,-0.5 -0.15003,-11 -0.15004,-11 -11.5,-0.5 -11.5,-0.5 -0.18371,-11 -0.18372,-11 L 265.81629,300 254.5,299.5 254.28686,289 c -0.11723,-5.775 -0.22973,-10.8375 -0.25,-11.25 -0.0203,-0.4125 -5.2391,-0.75 -11.5974,-0.75 h -11.56054 l 0.31054,-11.50196 0.31054,-11.50197 -11.75,0.002 L 208,254 V 242.5 231 l -9.25,-0.11069 c -5.0875,-0.0609 -10.24796,-0.0306 -11.46768,0.0673 -2.16078,0.17345 -2.22493,-0.12521 -2.5,-11.63931 L 184.5,207.5 h -11.2513 -11.2513 l 0.001,-11.25 L 162,185 h 11.5 11.5 v -11.4947 -11.4947 l 184.00021,-0.2553 c 101.20011,-0.14042 184.45011,-0.1053 185,0.078 0.58876,0.1963 0.99979,5.04033 0.99979,11.78275 V 185.0655 L 566.25,184.78275 577.5,184.5 v -10.75125 c 0,-6.47443 0.3978,-10.767 1,-10.79085 0.88581,-0.0351 36.49074,-0.0125 42.25,0.0267 2.19646,0.015 2.25,0.27792 2.25,11.04884 v 11.03349 l -3.25,-0.17223 c -1.7875,-0.0947 -11.9125,-0.10979 -22.5,-0.0335 L 578,185 V 196.5 208 H 566.5 555 V 219.5 231 H 543.5 532 V 242.5 254 H 520.5 509 v 11.46826 11.46827 l -11.65722,0.28173 -11.65723,0.28174 -0.0928,11 -0.0928,11 -11.38981,0.5 -11.3898,0.5 0.0901,11.25 0.0901,11.25 h -11.405 -11.405 l -0.6265,3.33953 c -0.34458,1.83674 -0.47747,7.01279 -0.29532,11.50235 L 439.5,346.0047 427.75,346.00235 416,346 v 11.96826 11.96827 L 404.25,370.21826 392.5,370.5 v 11 11 l -22.11335,0.21998 c -12.16235,0.12099 -22.39985,-0.0665 -22.75,-0.41667 z M 439.20355,377.75 439,369 l 11.25,0.21238 11.25,0.21238 -10.7101,0.32105 -10.7101,0.32104 -0.33635,8.21658 -0.33636,8.21657 z m -153.91704,-8.49008 c 3.18258,-0.19905 8.13258,-0.1972 11,0.004 2.86742,0.20131 0.26349,0.36417 -5.78651,0.36191 -6.05,-0.002 -8.39607,-0.16696 -5.21349,-0.36601 z M 462.35496,358.5 c -0.003,-4.95 0.16605,-7.10108 0.37577,-4.78017 0.20972,2.3209 0.21222,6.3709 0.006,9 C 462.5296,365.34892 462.358,363.45 462.35496,358.5 Z M 468.25,346.26101 c 3.1625,-0.19845 8.3375,-0.19845 11.5,0 3.1625,0.19845 0.575,0.36082 -5.75,0.36082 -6.325,0 -8.9125,-0.16237 -5.75,-0.36082 z M 254.36996,336 c 0,-5.775 0.16528,-8.1375 0.36728,-5.25 0.202,2.8875 0.202,7.6125 0,10.5 -0.202,2.8875 -0.36728,0.525 -0.36728,-5.25 z m -22.9882,-24.5 c 0.002,-6.6 0.16382,-9.16987 0.35965,-5.71081 0.19583,3.45905 0.19422,8.85905 -0.004,12 -0.19781,3.14094 -0.35803,0.31081 -0.35606,-6.28919 z M 508.15789,302 c 0,-1.375 0.22698,-1.9375 0.50439,-1.25 0.27741,0.6875 0.27741,1.8125 0,2.5 -0.27741,0.6875 -0.50439,0.125 -0.50439,-1.25 z M 208.38176,288.5 c 0.002,-6.6 0.16382,-9.16987 0.35965,-5.71081 0.19583,3.45905 0.19422,8.85905 -0.004,12 -0.19781,3.14094 -0.35803,0.31081 -0.35606,-6.28919 z m 9.88727,10.80701 c 0.97297,-0.25354 2.32297,-0.23687 3,0.0371 0.67703,0.27393 -0.11903,0.48137 -1.76903,0.46099 -1.65,-0.0204 -2.20394,-0.2445 -1.23097,-0.49804 z M 531.38176,288.5 c 0.002,-6.6 0.16382,-9.16987 0.35965,-5.71081 0.19583,3.45905 0.19422,8.85905 -0.004,12 -0.19781,3.14094 -0.35803,0.31081 -0.35606,-6.28919 z m 22.92811,-21 c 0.006,-3.3 0.1923,-4.52944 0.41486,-2.73209 0.22256,1.79735 0.21797,4.49735 -0.0102,6 -0.22818,1.50265 -0.41027,0.0321 -0.40466,-3.26791 z M 163.25,253.31067 c 0.9625,-0.25152 2.5375,-0.25152 3.5,0 0.9625,0.25153 0.175,0.45733 -1.75,0.45733 -1.925,0 -2.7125,-0.2058 -1.75,-0.45733 z m 18.01903,-0.004 c 0.97297,-0.25354 2.32297,-0.23687 3,0.0371 0.67703,0.27393 -0.11903,0.48137 -1.76903,0.46099 -1.65,-0.0204 -2.20394,-0.2445 -1.23097,-0.49804 z M 148.25,230.26496 c 2.6125,-0.206 6.8875,-0.206 9.5,0 2.6125,0.206 0.475,0.37454 -4.75,0.37454 -5.225,0 -7.3625,-0.16854 -4.75,-0.37454 z m -26.46081,-23.00637 c 3.45905,-0.19583 8.85905,-0.19422 12,0.004 3.14094,0.19781 0.31081,0.35803 -6.28919,0.35606 -6.6,-0.002 -9.16987,-0.16382 -5.71081,-0.35965 z M 115.4713,183.5 l 0.0287,-22 21,-0.21474 c 14.07044,-0.14387 21.74245,0.15937 23.25,0.91898 2.11373,1.06505 2.25,1.75586 2.25,11.40572 0,5.6496 -0.4319,10.53894 -0.95978,10.86518 -0.52788,0.32625 -5.70288,0.28653 -11.5,-0.0883 L 139,183.70544 V 172.85272 162 h -11.48087 -11.48087 l -0.29782,21.75 -0.29783,21.75 z"
         id="path13" />
      <path
         style="fill:#bb711d"
         d="M 139.97897,577.16667 C 139.42024,576.97642 139,572.13309 139,565.88392 V 554.9345 l 11.25,0.28275 11.25,0.28275 0.28317,10.68501 0.28317,10.685 -10.55419,0.315 c -5.80481,0.17324 -10.99474,0.16499 -11.53318,-0.0183 z M 578,566 v -11 h 11.5 11.5 v 11 11 H 589.5 578 Z M 162.77087,553.75 c -0.24371,-0.6875 -0.40435,-5.75 -0.35699,-11.25 l 0.0861,-10 11.25,-0.28275 L 185,531.9345 V 543.46725 555 h -10.89301 c -7.81142,0 -11.01837,-0.35362 -11.33612,-1.25 z m 392.64319,0.33333 C 555.18633,553.85417 555,548.77693 555,542.80058 V 531.9345 l 11.07418,0.28275 11.07419,0.28275 0.3975,10 c 0.21863,5.5 0.0727,10.45 -0.32418,11 -0.67994,0.94216 -20.91323,1.48338 -21.80763,0.58333 z M 186.21725,520.75 186.5,509.5 197.25,509.21617 208,508.93234 V 520.46617 532 H 196.96725 185.9345 Z M 532,520.5 V 509 h 11 11 V 520.5 532 H 543 532 Z M 139,403.87269 v -127.1273 l 22.25,0.73052 c 12.2375,0.40178 22.32054,0.79657 22.40675,0.8773 0.0862,0.0807 0.31121,4.9848 0.5,10.89791 L 184.5,300.00225 173.25,300.00112 162,300 v 98.84029 c 0,54.36216 -0.29567,106.33716 -0.65704,115.5 L 160.68592,531 H 149.84296 139 Z m 70,93.66006 V 486 H 220.5 232 V 474.5 463 H 243.5 255 V 451.5 440 h 11.53275 11.53275 L 277.78275,451.25 277.5,462.5 267,462.78612 c -5.775,0.15736 -11.07641,0.48608 -11.78091,0.73047 -0.94016,0.32615 -1.24331,3.1248 -1.13955,10.5201 0.0777,5.54166 -0.15163,10.36874 -0.50974,10.72684 -0.35811,0.35811 -5.02032,0.81033 -10.36046,1.00492 -5.34013,0.1946 -10.29695,0.54681 -11.01514,0.78271 -0.98278,0.3228 -1.25968,3.09059 -1.11938,11.18887 L 231.26123,508.5 220.13061,508.78275 209,509.0655 Z m 299.47395,1.99677 c -0.38807,-4.65876 -0.41989,-9.60876 -0.0707,-11 C 509.03419,486.01561 509.10585,486 520.01905,486 H 531 v 11 11 H 520.08977 509.17954 Z M 485.63454,485.19044 C 485.4091,484.8107 485.34168,483.375 485.48471,482 c 0.14302,-1.375 0.31747,-6.2125 0.38767,-10.75 L 486,463 h 11 11 v 11.37402 11.37402 l -10.9778,0.0664 c -6.03778,0.0365 -11.16223,-0.24428 -11.38766,-0.62402 z M 347,474 v -11 l 23.25,-0.002 23.25,-0.002 -0.31238,11.00204 L 392.87523,485 H 369.93762 347 Z m -23.1914,-22.61713 -0.3086,-11.3868 11.25,0.002 L 346,440 v 11.54733 11.54732 l -10.9414,-0.16249 -10.9414,-0.1625 z m 70.7886,10.88099 C 394.26874,461.9354 394,456.79167 394,450.83333 V 440 h 11 11 v 10.91023 10.91023 l -8.25,0.52258 c -10.51341,0.66594 -12.41916,0.65447 -13.1528,-0.0792 z m 68.389,-0.51386 c -0.008,-0.1375 -0.17568,-5.0875 -0.37354,-11 L 462.25292,440 H 473.62646 485 v 11 11 h -11 c -6.05,0 -11.00621,-0.1125 -11.0138,-0.25 z M 278,427.53174 V 416.06347 L 266.25,415.78174 254.5,415.5 254.41644,404 254.33288,392.5 242.66644,392.21826 231,391.93653 V 380.46826 369 H 219.5 208 V 357.5 346 H 196.5 185 V 323.5 301 h 11.36648 11.36648 l -0.49412,6.90599 c -0.27177,3.7983 -0.18411,8.9733 0.19479,11.5 L 208.12255,324 h 11.57665 11.57666 l -0.66882,7.38072 c -0.36785,4.05939 -0.37241,9.23439 -0.0101,11.5 L 231.25562,347 H 242.62781 254 v 11.5 11.5 h 11.46826 11.46827 l 0.28173,11.75 0.28174,11.75 h 11.25035 11.25034 l -3.4e-4,6.09029 c -1.9e-4,3.34966 0.29532,13.58716 0.65669,22.75 L 301.31408,439 H 289.65704 278 Z m 138.99804,0.21826 -0.002,-11.25 11.39889,0.3088 11.39889,0.3088 -0.14692,10.9371 -0.14693,10.9371 -11.25,0.004 L 417,439 Z M 440,405.01009 V 394.0655 L 451.25,393.78275 462.5,393.5 463,382 l 0.5,-11.5 11,-0.11602 11,-0.11602 0.28174,-11.63398 L 486.06347,347 h 11.43551 11.43552 l 0.28275,-11.25 0.28275,-11.25 11.37749,-0.5 11.37749,-0.5 -0.1812,-11.2178 -0.18121,-11.2178 11.78638,-0.2822 c 10.98809,-0.26309 11.79289,-0.41766 11.88266,-2.2822 0.053,-1.1 0.17326,-6.14776 0.26734,-11.21725 L 556,278.0655 567.25,277.78275 578.5,277.5 l 0.28148,-11.11397 0.28148,-11.11396 6.19669,-0.5619 c 3.40818,-0.30904 8.34401,-0.30757 10.96852,0.003 L 601,255.27858 v 11.4355 11.43549 L 589.75,277.82479 578.5,277.5 578.21826,289.25 577.93653,301 H 566.46826 555 l 10e-4,11.25 10e-4,11.25 H 543.75119 532.5 l -0.28174,11.75 -0.28173,11.75 H 520.46826 509 V 358.5 370 H 497.5 486 v 11.5 11.5 h -11.38337 c -13.23689,0 -12.20985,-1.05375 -12.39539,12.7177 l -0.12419,9.21771 11.20148,0.30861 c 6.16081,0.16974 1.18897,0.39907 -11.04853,0.50963 L 440,415.95467 Z M 439.25218,389.5 c 0.0111,-2.2 0.21589,-2.98225 0.45508,-1.73834 0.23919,1.24391 0.23011,3.04391 -0.0202,4 -0.25029,0.95609 -0.446,-0.0617 -0.4349,-2.26166 z M 277.07895,361.41667 c 0.048,-1.16495 0.28494,-1.4019 0.60416,-0.60417 0.28887,0.72187 0.25335,1.58438 -0.0789,1.91667 -0.33229,0.33229 -0.56864,-0.25834 -0.52522,-1.3125 z M 490.25,323.26496 c 2.6125,-0.206 6.8875,-0.206 9.5,0 2.6125,0.206 0.475,0.37454 -4.75,0.37454 -5.225,0 -7.3625,-0.16854 -4.75,-0.37454 z M 508.3605,313 c 0,-5.225 0.16854,-7.3625 0.37454,-4.75 0.206,2.6125 0.206,6.8875 0,9.5 -0.206,2.6125 -0.37454,0.475 -0.37454,-4.75 z m -339.548,-59.68311 c 0.72187,-0.28887 1.58437,-0.25335 1.91667,0.0789 0.33229,0.33229 -0.25834,0.56864 -1.3125,0.52522 -1.16495,-0.048 -1.4019,-0.28494 -0.60417,-0.60416 z m 4.9375,-0.0226 c 1.2375,-0.23836 3.2625,-0.23836 4.5,0 1.2375,0.23835 0.225,0.43337 -2.25,0.43337 -2.475,0 -3.4875,-0.19502 -2.25,-0.43337 z M 602,243 v -11 h 11 11 v 11 11 h -11 -11 z m 23,-23.25 V 208.5 h 11 11 V 219.75 231 H 636 625 Z M 141.8125,161.31689 c 0.72187,-0.28887 1.58437,-0.25335 1.91667,0.0789 0.33229,0.33229 -0.25834,0.56864 -1.3125,0.52522 -1.16495,-0.048 -1.4019,-0.28494 -0.60417,-0.60416 z M 265.75,138.25005 c 57.3375,-0.14262 151.1625,-0.14262 208.5,0 57.3375,0.14262 10.425,0.25931 -104.25,0.25931 -114.675,0 -161.5875,-0.11669 -104.25,-0.25931 z"
         id="path12" />
      <path
         style="fill:#9c5519"
         d="m 92.378169,613 c 0,-6.325 0.162369,-8.9125 0.360819,-5.75 0.198451,3.1625 0.198451,8.3375 0,11.5 -0.19845,3.1625 -0.360819,0.575 -0.360819,-5.75 z m 59.417811,-35.73714 10.29597,-0.33384 -0.15945,-11.5177 c -0.0877,-6.33473 0.11661,-11.79376 0.45402,-12.13118 0.33742,-0.33741 0.61348,-0.0885 0.61348,0.55319 0,0.81819 3.28571,1.16667 11,1.16667 h 11 v -22.96107 -22.96106 l -8.75,-0.35457 -8.75,-0.35456 9,0.0656 9,0.0656 0.28174,11.75 0.28173,11.75 H 197.03174 208 l 0.0153,-12.75 c 0.008,-7.0125 0.38237,-12.1715 0.83099,-11.46445 0.60131,0.94769 3.64047,1.2105 11.56434,1 L 231.1593,508.5 231.1484,497 231.1375,485.5 h 10.84913 c 5.96703,0 11.13773,-0.28914 11.49044,-0.64254 0.35272,-0.35339 0.6544,-5.52839 0.67039,-11.5 L 254.17658,462.5 H 265.83829 277.5 v -11.75113 -11.75113 l 11.81054,10e-4 11.81054,10e-4 -0.31054,-11.25 -0.31054,-11.25 11.25,0.31054 11.25,0.31054 0.125,10.93946 c 0.0688,6.0167 0.2375,11.38946 0.375,11.93946 0.1375,0.55 0.30625,5.92254 0.375,11.93899 L 324,462.87798 335.50038,462.68899 347.00076,462.5 347.00038,473.75 347,485 h 23 23 l 0.11842,-10.75 c 0.0651,-5.9125 0.0723,-11.06599 0.0159,-11.4522 -0.0564,-0.38621 1.57784,-0.47439 3.63157,-0.19596 2.05374,0.27842 7.20726,0.21134 11.45227,-0.14907 l 7.71819,-0.6553 0.28181,-11.14874 L 416.5,439.5 428,439 l 11.5,-0.5 0.17792,-10.71792 0.17793,-10.71793 -11.17793,-0.29906 c -7.57468,-0.20267 -4.00526,-0.45477 11.07298,-0.78208 l 22.2509,-0.48301 -9e-4,11.70794 -9e-4,11.70793 7.75,0.34082 7.75,0.34082 -7.62354,0.20125 -7.62354,0.20124 0.34497,10.75 0.34497,10.75 22.77857,0.52838 c 13.409,0.31104 18.15108,0.61954 11.52857,0.75 L 486,463 l -0.15,8.5 c -0.0825,4.675 -0.195,9.7375 -0.25,11.25 l -0.1,2.75 h 11.77516 11.77515 l -0.63276,2.87815 c -0.34801,1.58298 -0.31894,6.64548 0.0646,11.25 L 509.17954,508 H 520.08977 531 v -10.96617 -10.96617 l -10.502,-0.3371 -10.50199,-0.33711 10.75199,0.0533 10.752,0.0533 0.26843,23.25 0.26843,23.25 H 543.01843 554 l 0.22162,-11.75 c 0.14045,-7.44622 0.41515,-3.39029 0.75,11.07335 l 0.52838,22.82335 10.75026,0.17665 c 6.39232,0.10504 10.92084,-0.22873 11.17105,-0.82335 0.23144,-0.55 0.45632,4.49822 0.49974,11.21826 l 0.0789,12.21827 11.75,0.28173 c 6.4625,0.15496 -91.75,0.3035 -218.25,0.33009 -126.5,0.0266 -225.36681,-0.10188 -219.70402,-0.28549 z m 476.95402,0.005 c 2.3375,-0.21053 6.1625,-0.21053 8.5,0 2.3375,0.21054 0.425,0.3828 -4.25,0.3828 -4.675,0 -6.5875,-0.17226 -4.25,-0.3828 z m 14.0625,0.0491 c 0.72187,-0.28887 1.58438,-0.25335 1.91667,0.0789 0.33229,0.33229 -0.25834,0.56864 -1.3125,0.52522 -1.16495,-0.048 -1.4019,-0.28494 -0.60417,-0.60416 z m 4.18747,-173.11684 0.49996,-173.70005 0.25288,172.94716 c 0.13908,95.12093 -0.0859,173.28596 -0.49997,173.70004 -0.41406,0.41409 -0.52786,-77.41213 -0.25287,-172.94715 z M 93,392.54491 V 208.08982 l 10.96891,0.0299 10.96891,0.0299 0.28109,11.67521 L 115.5,231.5 h 11 11 l 0.5,11.37735 0.5,11.37735 11.25,-0.18158 11.25,-0.18157 V 264.978 c 0,10.06726 0.17872,11.15243 1.94404,11.80422 1.06922,0.39478 -3.88078,0.56009 -11,0.36736 L 139,276.79915 v 120.94012 c 0,66.51706 -0.29686,129.13551 -0.65968,139.15211 l -0.65968,18.21199 -11.09032,-0.17819 L 115.5,554.74699 115.21725,565.87349 114.9345,577 H 103.96725 93 Z m 69.07895,157.87176 c 0.048,-1.16495 0.28494,-1.4019 0.60416,-0.60417 0.28887,0.72187 0.25335,1.58438 -0.0789,1.91667 -0.3323,0.33229 -0.56864,-0.25834 -0.52522,-1.3125 z M 577.28601,539.5 c 0.008,-2.75 0.20172,-3.75631 0.43157,-2.23625 0.22986,1.52006 0.22371,3.77006 -0.0136,5 -0.23736,1.22994 -0.42542,-0.0137 -0.41792,-2.76375 z M 161.37817,520 c 0,-6.325 0.16237,-8.9125 0.36082,-5.75 0.19845,3.1625 0.19845,8.3375 0,11.5 -0.19845,3.1625 -0.36082,0.575 -0.36082,-5.75 z M 163.75,508.33772 c 0.6875,-0.27741 1.8125,-0.27741 2.5,0 0.6875,0.27741 0.125,0.50439 -1.25,0.50439 -1.375,0 -1.9375,-0.22698 -1.25,-0.50439 z m 374.01791,-0.0625 c 1.79735,-0.22256 4.49735,-0.21797 6,0.0102 1.50265,0.22818 0.0321,0.41027 -3.26791,0.40466 -3.3,-0.006 -4.52944,-0.1923 -2.73209,-0.41486 z m 11.50112,0.0317 c 0.97297,-0.25354 2.32297,-0.23687 3,0.0371 0.67703,0.27393 -0.11903,0.48137 -1.76903,0.46099 -1.65,-0.0204 -2.20394,-0.2445 -1.23097,-0.49804 z M 196.5,486 l -12,-0.59773 11.69098,-0.20113 c 6.94133,-0.11942 11.94207,0.20513 12.30902,0.79886 0.33992,0.55 0.47898,0.90949 0.30902,0.79886 C 208.63906,486.68824 203.1,486.32875 196.5,486 Z m 15.3125,-23.68311 c 0.72187,-0.28887 1.58437,-0.25335 1.91667,0.0789 0.33229,0.33229 -0.25834,0.56864 -1.3125,0.52522 -1.16495,-0.048 -1.4019,-0.28494 -0.60417,-0.60416 z m 6.96393,-0.0504 c 2.35204,-0.21124 5.95204,-0.20827 8,0.007 2.04796,0.21487 0.12357,0.38771 -4.27643,0.38408 -4.4,-0.004 -6.07561,-0.17944 -3.72357,-0.39069 z M 481.26903,439.307 c 0.97297,-0.25354 2.32297,-0.23687 3,0.0371 0.67703,0.27393 -0.11903,0.48137 -1.76903,0.46099 -1.65,-0.0204 -2.20394,-0.2445 -1.23097,-0.49804 z m -88.19008,-1.89034 c 0.048,-1.16495 0.28494,-1.4019 0.60416,-0.60417 0.28887,0.72187 0.25335,1.58438 -0.0789,1.91667 -0.33229,0.33229 -0.56864,-0.25834 -0.52522,-1.3125 z M 393.3605,426 c 0,-5.225 0.16854,-7.3625 0.37454,-4.75 0.206,2.6125 0.206,6.8875 0,9.5 -0.206,2.6125 -0.37454,0.475 -0.37454,-4.75 z m 23.02126,-21.5 c 0.002,-6.6 0.16382,-9.16987 0.35965,-5.71081 0.19583,3.45905 0.19422,8.85905 -0.004,12 -0.19781,3.14094 -0.35803,0.31081 -0.35606,-6.28919 z M 282.25,393.26496 c 2.6125,-0.206 6.8875,-0.206 9.5,0 2.6125,0.206 0.475,0.37454 -4.75,0.37454 -5.225,0 -7.3625,-0.16854 -4.75,-0.37454 z m 159.5,0.0293 c 1.2375,-0.23836 3.2625,-0.23836 4.5,0 1.2375,0.23835 0.225,0.43337 -2.25,0.43337 -2.475,0 -3.4875,-0.19502 -2.25,-0.43337 z m 17,0.0435 c 0.6875,-0.27741 1.8125,-0.27741 2.5,0 0.6875,0.27741 0.125,0.50439 -1.25,0.50439 -1.375,0 -1.9375,-0.22698 -1.25,-0.50439 z m 7,-23.04345 c 1.2375,-0.23836 3.2625,-0.23836 4.5,0 1.2375,0.23835 0.225,0.43337 -2.25,0.43337 -2.475,0 -3.4875,-0.19502 -2.25,-0.43337 z M 277.25218,366.5 c 0.0111,-2.2 0.21589,-2.98225 0.45508,-1.73834 0.23919,1.24391 0.23011,3.04391 -0.0202,4 -0.25029,0.95609 -0.446,-0.0617 -0.4349,-2.26166 z m 0.076,-13 c 0.004,-3.85 0.18518,-5.30246 0.40166,-3.2277 0.21647,2.07477 0.21284,5.22477 -0.008,7 -0.22091,1.77524 -0.39803,0.0777 -0.39359,-3.7723 z m -40.53895,-7.24141 c 3.45905,-0.19583 8.85905,-0.19422 12,0.004 3.14094,0.19781 0.31081,0.35803 -6.28919,0.35606 -6.6,-0.002 -9.16987,-0.16382 -5.71081,-0.35965 z M 230.28601,337.5 c 0.008,-2.75 0.20172,-3.75631 0.43157,-2.23625 0.22986,1.52006 0.22371,3.77006 -0.0136,5 -0.23736,1.22994 -0.42542,-0.0138 -0.41792,-2.76375 z M 217.25,323.28375 c 1.5125,-0.22913 3.9875,-0.22913 5.5,0 1.5125,0.22912 0.275,0.41659 -2.75,0.41659 -3.025,0 -4.2625,-0.18747 -2.75,-0.41659 z m 12.5625,0.0331 c 0.72187,-0.28887 1.58437,-0.25335 1.91667,0.0789 0.33229,0.33229 -0.25834,0.56864 -1.3125,0.52522 -1.16495,-0.048 -1.4019,-0.28494 -0.60417,-0.60416 z M 207.34941,312 c 0,-4.675 0.17226,-6.5875 0.3828,-4.25 0.21053,2.3375 0.21053,6.1625 0,8.5 -0.21054,2.3375 -0.3828,0.425 -0.3828,-4.25 z M 187.25,300.28375 c 1.5125,-0.22913 3.9875,-0.22913 5.5,0 1.5125,0.22912 0.275,0.41659 -2.75,0.41659 -3.025,0 -4.2625,-0.18747 -2.75,-0.41659 z m 14.5,0.0105 c 1.2375,-0.23836 3.2625,-0.23836 4.5,0 1.2375,0.23835 0.225,0.43337 -2.25,0.43337 -2.475,0 -3.4875,-0.19502 -2.25,-0.43337 z m 312,-0.0315 c 2.8875,-0.202 7.6125,-0.202 10.5,0 2.8875,0.202 0.525,0.36728 -5.25,0.36728 -5.775,0 -8.1375,-0.16528 -5.25,-0.36728 z M 184,288.06955 c 0,-9.50317 -0.0968,-9.94909 -2.25,-10.36382 -1.92915,-0.37157 -1.85784,-0.45279 0.5,-0.56955 L 185,277 v 10.5 c 0,5.775 -0.225,10.5 -0.5,10.5 -0.275,0 -0.5,-4.4687 -0.5,-9.93045 z M 555.3605,287 c 0,-5.225 0.16854,-7.3625 0.37454,-4.75 0.206,2.6125 0.206,6.8875 0,9.5 -0.206,2.6125 -0.37454,0.475 -0.37454,-4.75 z M 544.75,277.33772 c 0.6875,-0.27741 1.8125,-0.27741 2.5,0 0.6875,0.27741 0.125,0.50439 -1.25,0.50439 -1.375,0 -1.9375,-0.22698 -1.25,-0.50439 z M 578.4509,265.5 l 0.0491,-11 5,-0.1021 5,-0.1021 -4.71775,0.40557 -4.71775,0.40558 -0.33135,10.69652 -0.33136,10.69653 z m 18.54036,-11.204 c 1.9202,-0.25229 3.86695,-0.9846 4.32613,-1.62735 0.56944,-0.79711 0.70661,-0.69176 0.43144,0.33135 -0.26338,0.97929 -1.76516,1.54421 -4.32613,1.62735 -3.75781,0.122 -3.77594,0.10807 -0.43144,-0.33135 z M 601.41568,233 c 0.0892,-1.23662 2.12537,-1.50944 11.59629,-1.55378 l 11.48803,-0.0538 -11.18286,0.3359 c -7.63797,0.22943 -11.31392,0.72197 -11.59629,1.55378 -0.22739,0.66984 -0.36471,0.54288 -0.30517,-0.28212 z M 630.75,208.26276 c 2.8875,-0.202 7.6125,-0.202 10.5,0 2.8875,0.202 0.525,0.36728 -5.25,0.36728 -5.775,0 -8.1375,-0.16528 -5.25,-0.36728 z m -47.5,-47.00175 c 3.1625,-0.19845 8.3375,-0.19845 11.5,0 3.1625,0.19845 0.575,0.36082 -5.75,0.36082 -6.325,0 -8.9125,-0.16237 -5.75,-0.36082 z M 161.37817,150 c 0,-6.325 0.16237,-8.9125 0.36082,-5.75 0.19845,3.1625 0.19845,8.3375 0,11.5 -0.19845,3.1625 -0.36082,0.575 -0.36082,-5.75 z"
         id="path11" />
      <path
         style="fill:#723410"
         d="m 231.25,624.25003 c 76.3125,-0.14138 201.1875,-0.14138 277.5,0 76.3125,0.14137 13.875,0.25704 -138.75,0.25704 -152.625,0 -215.0625,-0.11567 -138.75,-0.25704 z M 116,589.5 V 578 h 11 11 V 554.5 531 l 23.75,0.23065 23.75,0.23065 -23.25,0.28778 -23.25,0.28778 v 23.00016 23.00017 l 230.96487,-0.1079 230.96486,-0.10791 0.32585,-9.66069 0.32584,-9.66069 0.20929,9.81054 L 602,578.12108 613.25,577.81054 624.5,577.5 624.1912,589.25 623.8824,601 H 369.9412 116 Z M 92.474671,576.78293 C 92.206365,576.07732 92.10351,492.7 92.246104,391.5 l 0.259262,-184 0.247317,184.75 L 93,577 h 11 11 v -10.94098 c 0,-6.01754 0.3375,-11.15098 0.75,-11.40764 0.4125,-0.25666 0.525,4.77929 0.25,11.19099 l -0.5,11.65763 -11.26875,0.28293 c -8.458791,0.21237 -11.390394,-0.037 -11.756579,-1 z M 601.116,556.78174 c -0.10132,-1.50088 -1.60258,-1.75834 -11.866,-2.03497 -6.4625,-0.17419 -1.175,-0.31728 11.75,-0.31798 12.925,-7e-4 18.46771,0.14199 12.31714,0.31709 -9.56543,0.27232 -11.24811,0.56683 -11.634,2.03624 -0.42635,1.6235 -0.45751,1.62348 -0.56714,-3.8e-4 z M 161.19495,541.5 c 0.0204,-1.65 0.2445,-2.20394 0.49804,-1.23097 0.25354,0.97297 0.23687,2.32297 -0.0371,3 -0.27393,0.67703 -0.48137,-0.11903 -0.46099,-1.76903 z M 566.25,531.25323 c 6.4625,-0.17418 17.0375,-0.17418 23.5,0 6.4625,0.17419 1.175,0.3167 -11.75,0.3167 -12.925,0 -18.2125,-0.14251 -11.75,-0.3167 z M 190.78919,508.25859 c 3.45905,-0.19583 8.85905,-0.19422 12,0.004 3.14094,0.19781 0.31081,0.35803 -6.28919,0.35606 -6.6,-0.002 -9.16987,-0.16382 -5.71081,-0.35965 z m 342.02331,0.0583 c 0.72187,-0.28887 1.58438,-0.25335 1.91667,0.0789 0.33229,0.33229 -0.25834,0.56864 -1.3125,0.52522 -1.16495,-0.048 -1.4019,-0.28494 -0.60417,-0.60416 z M 553.75525,506.5 c 0.26285,-1.375 0.65044,-2.5 0.86133,-2.5 0.21088,0 0.38342,1.125 0.38342,2.5 0,1.375 -0.3876,2.5 -0.86133,2.5 -0.47373,0 -0.64627,-1.125 -0.38342,-2.5 z M 208.36996,497 c 0,-5.775 0.16528,-8.1375 0.36728,-5.25 0.202,2.8875 0.202,7.6125 0,10.5 -0.202,2.8875 -0.36728,0.525 -0.36728,-5.25 z m 345.78793,4 c 0,-1.375 0.22698,-1.9375 0.50439,-1.25 0.27741,0.6875 0.27741,1.8125 0,2.5 -0.27741,0.6875 -0.50439,0.125 -0.50439,-1.25 z m -0.0789,-10.58333 c 0.048,-1.16495 0.28494,-1.4019 0.60416,-0.60417 0.28887,0.72187 0.25335,1.58438 -0.0789,1.91667 -0.33229,0.33229 -0.56864,-0.25834 -0.52522,-1.3125 z m -334.52827,-5.1491 11.55414,-0.33195 -0.1092,-11.21781 c -0.225,-23.11424 0.0271,-34.71787 0.75438,-34.71977 0.4125,-10e-4 0.61026,5.17391 0.43946,11.5 L 231.87892,462 h 11.01673 11.01673 l 0.35941,-6.75 0.35941,-6.75 -0.0656,7 -0.0656,7 -11.21755,0.28245 -11.21755,0.28245 -0.28245,11.21755 L 231.5,485.5 l -11.75173,0.0498 -11.75173,0.0498 z m 288.88094,-0.58517 c -0.27809,-0.72469 -0.37345,-6.01219 -0.21192,-11.75 l 0.29369,-10.4324 0.49331,11.75196 c 0.27131,6.46359 0.36668,11.75109 0.21192,11.75 -0.15477,-10e-4 -0.50891,-0.59488 -0.787,-1.31956 z M 531.38536,474 c 0,-6.875 0.15977,-9.6875 0.35504,-6.25 0.19527,3.4375 0.19527,9.0625 0,12.5 -0.19527,3.4375 -0.35504,0.625 -0.35504,-6.25 z M 346.68464,462.35131 C 346.30809,461.97476 346,456.8064 346,450.86608 V 440.0655 L 334.75,439.78275 323.5,439.5 323.21755,428.28245 322.9351,417.0649 311.72952,416.78245 c -9.87428,-0.24889 -11.22461,-0.49269 -11.36576,-2.05205 -0.11215,-1.23895 -0.0188,-1.31392 0.31135,-0.25 0.38404,1.23763 2.49316,1.5196 11.36648,1.5196 h 10.89494 l 0.3167,-11.75 c 0.17419,-6.4625 0.41347,-1.26026 0.53174,11.56054 L 324,439.12108 335.50196,438.81054 347.00393,438.5 347.00196,450.25 347,462 h 22.96725 22.96725 l 0.28275,-11.25 0.28275,-11.25 11.21855,-0.28246 11.21854,-0.28245 0.31642,-11.71755 0.31642,-11.71754 0.21504,12.25 L 417,440 H 405.53275 394.0655 l -0.28275,11.25 -0.28275,11.25 -23.06536,0.26798 c -12.68594,0.14738 -23.37344,-0.0401 -23.75,-0.41667 z M 485.40709,446 c 0,-9.075 0.1516,-12.7875 0.3369,-8.25 0.18529,4.5375 0.18529,11.9625 0,16.5 -0.1853,4.5375 -0.3369,0.825 -0.3369,-8.25 z m 22.97467,4.5 c 0.002,-6.6 0.16382,-9.16987 0.35965,-5.71081 0.19583,3.45905 0.19422,8.85905 -0.004,12 -0.19781,3.14094 -0.35803,0.31081 -0.35606,-6.28919 z M 254,443.06955 c 0,-2.24391 -0.52712,-3.03198 -2.25,-3.36382 -1.92915,-0.37157 -1.85784,-0.45279 0.5,-0.56955 2.50213,-0.12391 2.75,0.17929 2.75,3.36382 0,1.925 -0.225,3.5 -0.5,3.5 -0.275,0 -0.5,-1.3187 -0.5,-2.93045 z m -9.75,-3.75888 c 0.9625,-0.25152 2.5375,-0.25152 3.5,0 0.9625,0.25153 0.175,0.45733 -1.75,0.45733 -1.925,0 -2.7125,-0.2058 -1.75,-0.45733 z m 15.5,-0.0429 c 2.3375,-0.21053 6.1625,-0.21053 8.5,0 2.3375,0.21054 0.425,0.3828 -4.25,0.3828 -4.675,0 -6.5875,-0.17226 -4.25,-0.3828 z m 17.24514,-11.56398 0.49513,-12.20381 0.28917,11.4157 c 0.15904,6.27863 -0.0638,11.77035 -0.49514,12.20381 -0.43136,0.43346 -0.56149,-4.70361 -0.28916,-11.4157 z m 200.81736,11.61308 c 0.72187,-0.28887 1.58438,-0.25335 1.91667,0.0789 0.33229,0.33229 -0.25834,0.56864 -1.3125,0.52522 -1.16495,-0.048 -1.4019,-0.28494 -0.60417,-0.60416 z m -15.73355,-1.90022 c 0.048,-1.16495 0.28494,-1.4019 0.60416,-0.60417 0.28887,0.72187 0.25335,1.58438 -0.0789,1.91667 -0.33229,0.33229 -0.56864,-0.25834 -0.52522,-1.3125 z M 254.33621,431 c 0,-4.125 0.17651,-5.8125 0.39226,-3.75 0.21574,2.0625 0.21574,5.4375 0,7.5 -0.21575,2.0625 -0.39226,0.375 -0.39226,-3.75 z m 91.85874,-1.5 c 0.0204,-1.65 0.2445,-2.20394 0.49804,-1.23097 0.25354,0.97297 0.23687,2.32297 -0.0371,3 -0.27393,0.67703 -0.48137,-0.11903 -0.46099,-1.76903 z M 462.27236,420 c 0,-2.475 0.19502,-3.4875 0.43337,-2.25 0.23836,1.2375 0.23836,3.2625 0,4.5 -0.23835,1.2375 -0.43337,0.225 -0.43337,-2.25 z m 22.80659,-1.58333 c 0.048,-1.16495 0.28494,-1.4019 0.60416,-0.60417 0.28887,0.72187 0.25335,1.58438 -0.0789,1.91667 -0.33229,0.33229 -0.56864,-0.25834 -0.52522,-1.3125 z m -227.31729,-2.12393 c 1.24391,-0.23919 3.04391,-0.23011 4,0.0202 0.95609,0.25029 -0.0617,0.446 -2.26166,0.4349 -2.2,-0.0111 -2.98225,-0.21589 -1.73834,-0.45508 z m 8,0 c 1.24391,-0.23919 3.04391,-0.23011 4,0.0202 0.95609,0.25029 -0.0617,0.446 -2.26166,0.4349 -2.2,-0.0111 -2.98225,-0.21589 -1.73834,-0.45508 z m 63.05084,0.0242 c 0.72187,-0.28887 1.58438,-0.25335 1.91667,0.0789 0.33229,0.33229 -0.25834,0.56864 -1.3125,0.52522 -1.16495,-0.048 -1.4019,-0.28494 -0.60417,-0.60416 z m 3.9375,0.0208 c 0.6875,-0.27741 1.8125,-0.27741 2.5,0 0.6875,0.27741 0.125,0.50439 -1.25,0.50439 -1.375,0 -1.9375,-0.22698 -1.25,-0.50439 z m 6.0625,-0.0208 c 0.72187,-0.28887 1.58438,-0.25335 1.91667,0.0789 0.33229,0.33229 -0.25834,0.56864 -1.3125,0.52522 -1.16495,-0.048 -1.4019,-0.28494 -0.60417,-0.60416 z M 300.40249,385 c 0,-8.525 0.15337,-12.0125 0.34082,-7.75 0.18745,4.2625 0.18745,11.2375 0,15.5 -0.18745,4.2625 -0.34082,0.775 -0.34082,-7.75 z M 450.25,393.28375 c 1.5125,-0.22913 3.9875,-0.22913 5.5,0 1.5125,0.22912 0.275,0.41659 -2.75,0.41659 -3.025,0 -4.2625,-0.18747 -2.75,-0.41659 z M 277.25218,389.5 c 0.0111,-2.2 0.21589,-2.98225 0.45508,-1.73834 0.23919,1.24391 0.23011,3.04391 -0.0202,4 -0.25029,0.95609 -0.446,-0.0617 -0.4349,-2.26166 z m 185.12958,-8 c 0.002,-6.6 0.16382,-9.16987 0.35965,-5.71081 0.19583,3.45905 0.19422,8.85905 -0.004,12 -0.19781,3.14094 -0.35803,0.31081 -0.35606,-6.28919 z m -185.19268,-4.68045 c -0.17155,-6.06126 -0.39763,-6.72062 -2.43908,-7.11382 l -2.25,-0.43337 2.28138,-0.13618 c 2.91749,-0.17415 3.41042,1.23649 2.96173,8.47579 L 277.37817,383.5 Z M 259.75,369.26779 c 2.3375,-0.21053 6.1625,-0.21053 8.5,0 2.3375,0.21054 0.425,0.3828 -4.25,0.3828 -4.675,0 -6.5875,-0.17226 -4.25,-0.3828 z M 485.43007,347 c 0,-12.925 0.14251,-18.2125 0.3167,-11.75 0.17418,6.4625 0.17418,17.0375 0,23.5 -0.17419,6.4625 -0.3167,1.175 -0.3167,-11.75 z M 254.21376,357.75 254,346 l 5.25,0.18025 5.25,0.18025 -4.71775,0.37322 -4.71775,0.37323 -0.31849,11.19652 -0.3185,11.19653 z m 252.50025,-11.55208 c 0.79616,-0.50594 1.32538,-4.54482 1.53761,-11.73469 l 0.32362,-10.96323 0.21238,11.75 c 0.19177,10.60975 0.0426,11.74851 -1.53762,11.73469 -1.20577,-0.0106 -1.37246,-0.25523 -0.53599,-0.78677 z M 210.25,323.31067 c 0.9625,-0.25152 2.5375,-0.25152 3.5,0 0.9625,0.25153 0.175,0.45733 -1.75,0.45733 -1.925,0 -2.7125,-0.2058 -1.75,-0.45733 z m 27,-0.0497 c 3.1625,-0.19845 8.3375,-0.19845 11.5,0 3.1625,0.19845 0.575,0.36082 -5.75,0.36082 -6.325,0 -8.9125,-0.16237 -5.75,-0.36082 z m 278,0 c 3.1625,-0.19845 8.3375,-0.19845 11.5,0 3.1625,0.19845 0.575,0.36082 -5.75,0.36082 -6.325,0 -8.9125,-0.16237 -5.75,-0.36082 z m -318.98097,-22.954 c 0.97297,-0.25354 2.32297,-0.23687 3,0.0371 0.67703,0.27393 -0.11903,0.48137 -1.76903,0.46099 -1.65,-0.0204 -2.20394,-0.2445 -1.23097,-0.49804 z m 13,0 c 0.97297,-0.25354 2.32297,-0.23687 3,0.0371 0.67703,0.27393 -0.11903,0.48137 -1.76903,0.46099 -1.65,-0.0204 -2.20394,-0.2445 -1.23097,-0.49804 z m 18,0 c 0.97297,-0.25354 2.32297,-0.23687 3,0.0371 0.67703,0.27393 -0.11903,0.48137 -1.76903,0.46099 -1.65,-0.0204 -2.20394,-0.2445 -1.23097,-0.49804 z M 535.25,300.25845 c 3.7125,-0.19241 9.7875,-0.19241 13.5,0 3.7125,0.19241 0.675,0.34983 -6.75,0.34983 -7.425,0 -10.4625,-0.15742 -6.75,-0.34983 z M 168.77643,277.2665 c 2.35204,-0.21124 5.95204,-0.20827 8,0.007 2.04796,0.21487 0.12357,0.38771 -4.27643,0.38408 -4.4,-0.004 -6.07561,-0.17944 -3.72357,-0.39069 z M 536.25,277.2837 c 1.5125,-0.22913 3.9875,-0.22913 5.5,0 1.5125,0.22912 0.275,0.41659 -2.75,0.41659 -3.025,0 -4.2625,-0.18747 -2.75,-0.41659 z m 23.5,-0.0242 c 3.4375,-0.19527 9.0625,-0.19527 12.5,0 3.4375,0.19527 0.625,0.35504 -6.25,0.35504 -6.875,0 -9.6875,-0.15977 -6.25,-0.35504 z M 161.42879,253.5 c 7e-4,-12.65 0.14401,-17.68711 0.31847,-11.19358 0.17445,6.49353 0.17388,16.84353 -0.001,23 -0.17516,6.15647 -0.31789,0.84358 -0.31719,-11.80642 z m 22.94117,12.5 c 0,-5.775 0.16528,-8.1375 0.36728,-5.25 0.202,2.8875 0.202,7.6125 0,10.5 -0.202,2.8875 -0.36728,0.525 -0.36728,-5.25 z m -45.92108,-12.27263 c -0.2686,-0.69995 -0.36611,-11.38745 -0.21669,-23.75 l 0.27167,-22.47737 0.49807,23.75082 c 0.27394,13.06295 0.37145,23.75045 0.21669,23.75 -0.15477,-4.5e-4 -0.50115,-0.5735 -0.76974,-1.27345 z M 560.75,254.2596 c 3.4375,-0.19527 9.0625,-0.19527 12.5,0 3.4375,0.19527 0.625,0.35504 -6.25,0.35504 -6.875,0 -9.6875,-0.15977 -6.25,-0.35504 z M 601.35496,243.5 c -0.003,-4.95 0.16605,-7.10108 0.37577,-4.78017 0.20972,2.3209 0.21222,6.3709 0.006,9 C 601.5296,250.34892 601.358,248.45 601.35496,243.5 Z M 115.4329,230.68573 c -0.27738,-0.72284 -0.35883,-6.23534 -0.181,-12.25 l 0.32334,-10.93573 0.21238,11.71617 0.21238,11.71617 10.75,0.32145 10.75,0.32145 -10.78138,0.21238 c -8.13867,0.16032 -10.90501,-0.10977 -11.28572,-1.10189 z m 473.78564,0.56777 11.71853,-0.31643 0.31643,-11.71853 0.31643,-11.71854 0.21504,12.25 L 602,232 589.75,231.78497 577.5,231.56993 Z M 624.23624,196.78078 624,162.06156 611.75,161.747 l -12.25,-0.31456 12.28138,-0.21622 c 9.101,-0.16023 12.40626,0.1092 12.7636,1.0404 0.26522,0.69114 0.3574,16.55364 0.20486,35.25 L 624.47249,231.5 Z M 647.38176,219.5 c 0.002,-6.6 0.16382,-9.16987 0.35965,-5.71081 0.19583,3.45905 0.19422,8.85905 -0.004,12 -0.19781,3.14094 -0.35803,0.31081 -0.35606,-6.28919 z M 578.27236,143 c 0,-2.475 0.19502,-3.4875 0.43337,-2.25 0.23836,1.2375 0.23836,3.2625 0,4.5 -0.23835,1.2375 -0.43337,0.225 -0.43337,-2.25 z"
         id="path10" />
      <path
         style="fill:#030101"
         d="M 93,612.5 V 601 H 81.5 70 V 393 185 H 81.5 93 v -23 -23 h 23 23 V 127.5 116 h 231 231 v 11.5 11.5 h 23 23 v 22.96725 22.96725 l 11.25,0.28275 11.25,0.28275 0.25236,207.75 0.25237,207.75 H 658.50236 647 V 612.5 624 H 370 93 Z m 531,-23 V 578 h 12 12 V 393 208 H 636.51843 625.03686 L 624.76843,184.75 624.5,161.5 601.27456,161 l -23.22543,-0.5 0.22543,-11 L 578.5,138.5 369.75,138.24765 161,137.99529 V 149.49765 161 H 138 115 V 184.5 208 H 103.49735 91.994695 L 92.247348,392.75 92.5,577.5 H 104 115.5 L 115.78275,566.25 116.0655,555 H 127.03275 138 v 11.5 11.5 h -11 -11 v 11.5 11.5 h 254 254 z m -22.18359,-21.38358 c -0.17402,-5.43596 -0.17091,-10.61096 0.007,-11.5 C 602.0974,555.24621 603.81096,555 613.07332,555 H 624 V 566.5 578 H 613.06641 602.13283 Z M 139,543.53275 V 532 h 11.36462 11.36463 L 161.61462,543.25 161.5,554.5 150.25,554.78275 139,555.0655 Z M 578,543 v -11 h 11.5 11.5 v 11 11 H 589.5 578 Z M 162,520 v -11 h 11.5 11.5 v 11 11 H 173.5 162 Z m 393,-0.5 V 508 H 566.5 578 V 519.5 531 H 566.5 555 Z M 185,497 v -11 h 11.5 11.5 v 11 11 H 196.5 185 Z m 347,-0.53275 V 484.9345 l 11.25,0.28275 11.25,0.28275 -0.15841,9.5 c -0.0871,5.225 -0.19962,10.2875 -0.25,11.25 C 554.0102,507.80506 552.77463,508 543,508 H 532 Z M 208,474 v -11 h 11.5 11.5 v 11 11 H 219.5 208 Z M 508.78275,473.75 508.5,462.5 497.25,462.21725 486,461.9345 V 450.46725 439 h 11 11 V 450.5 462 H 519.5 531 V 473.5 485 H 520.03275 509.0655 Z m -276.5655,-23 0.28275,-11.25 9,0.19483 c 4.95,0.10715 9.7875,0.21965 10.75,0.25 1.55726,0.0491 1.75,1.26666 1.75,11.05517 v 11 H 242.96725 231.9345 Z M 347,450.5 V 439 H 370.5 394 V 427.5 416 h 11 11 v 11.46725 11.46725 L 404.75,439.21725 393.5,439.5 393.21725,450.75 392.9345,462 H 369.96725 347 Z m -91.99389,-22.75 0.006,-11.25 10.99388,-0.12351 L 277,416.25297 V 427.62649 439 h -11 -11 z m 68.99509,0.0328 0.001,-11.28275 h 11.23562 11.23561 l 0.0132,11 0.0132,11 -11.25,0.28275 L 324,439.0655 Z m 138.92229,9.9672 c -0.0421,-0.6875 -0.2776,-2.15 -0.52337,-3.25 -0.24577,-1.1 -0.17094,-5.7125 0.16628,-10.25 l 0.61314,-8.25 h 10.79894 10.79894 l 0.67258,3.58518 c 0.36992,1.97185 0.3619,7.14685 -0.0178,11.5 L 484.74175,439 h -10.87088 c -7.98922,0 -10.89115,-0.33135 -10.94738,-1.25 z m -162.2932,-24 c -0.78096,-2.91413 -0.77412,-8.90785 0.0177,-15.5 l 0.6306,-5.25 H 312.13929 323 v 11.5 11.5 h -10.88337 c -10.44113,0 -10.90787,-0.0914 -11.48634,-2.25 z M 417,404.5 V 393 H 428.5 440 V 381.5 370 h 11 11 V 381.5 393 H 451 440 V 404.5 416 H 428.5 417 Z M 277.83318,389.04794 c -0.20729,-2.17363 -0.20537,-7.34863 0.004,-11.5 L 278.2186,370 H 289.1093 300 V 381.5 393 H 289.10504 278.21007 Z M 463,358.5 V 347 h 11 11 v 11.5 11.5 h -11 -11 z m -208,-0.3554 v -10.85539 l 6.75,-0.6375 c 3.7125,-0.35062 8.6625,-0.64069 11,-0.6446 L 277,346 v 11.5 11.5 h -11 -11 z m 231,-22.586 V 324 h 11 11 v 10.89301 c 0,7.79498 -0.35551,11.0278 -1.25,11.36695 -0.6875,0.26066 -5.6375,0.56018 -11,0.66559 l -9.75,0.19166 z m -254.33333,9.77473 C 231.3,344.96667 231,340.01667 231,334.33333 V 324 h 11.5 11.5 v 11 11 h -10.83333 c -5.95834,0 -11.13334,-0.3 -11.5,-0.66667 z M 508.99804,312.25 509,301 h 11.5 11.5 v 10.93946 10.93946 L 520.49804,323.18946 508.99607,323.5 Z M 208,312 c 0,-10.70038 0.0613,-11.00371 2.25,-11.13623 1.2375,-0.0749 4.05,-0.31195 6.25,-0.52671 2.2,-0.21477 6.3625,-0.12109 9.25,0.20818 l 5.25,0.59867 V 312.07196 323 H 219.5 208 Z m -22.56975,-13.32118 c -0.27884,-0.72665 -0.37722,-5.78626 -0.21862,-11.24358 L 185.5,277.51283 196.75,277.17922 208,276.8456 V 288.4228 300 h -11.03138 c -8.21959,0 -11.16062,-0.33676 -11.53837,-1.32118 z M 532,289 v -11 h 11.5 11.5 v 11 11 H 543.5 532 Z M 162,265.46725 V 253.9345 l 11.07152,0.28275 11.07153,0.28275 0.17847,11.25021 0.17848,11.25021 -11.25,-2.1e-4 L 162,277 Z M 555,266 v -11 h 11.5 11.5 v 11 11 H 566.5 555 Z M 139,242.5 V 231 h 11 11 v 11.5 11.5 h -11 -11 z m 439,0.5 v -11 h 11.5 11.5 v 11 11 H 589.5 578 Z M 116,219.5 V 208 h 11 11 v 11.5 11.5 h -11 -11 z m 486,0 V 208 h 11 11 v 11.5 11.5 h -11 -11 z"
         id="path9" />
    </g>
  </g>
</svg>
